<?xml version="1.0" encoding="UTF-8" standalone="no"?>
<!-- Generator: Adobe Illustrator 19.0.0, SVG Export Plug-In . SVG Version: 6.00 Build 0)  -->

<svg
   version="1.1"
   id="Layer_1"
   x="0px"
   y="0px"
   viewBox="0 0 512 512"
   style="enable-background:new 0 0 512 512;"
   xml:space="preserve"
   width="512"
   height="512"
   sodipodi:docname="1.svg"
   inkscape:version="1.4.2 (f4327f4, 2025-05-13)"
   xmlns:inkscape="http://www.inkscape.org/namespaces/inkscape"
   xmlns:sodipodi="http://sodipodi.sourceforge.net/DTD/sodipodi-0.dtd"
   xmlns="http://www.w3.org/2000/svg"
   xmlns:svg="http://www.w3.org/2000/svg"><defs
   id="defs1"><clipPath
     clipPathUnits="userSpaceOnUse"
     id="clipPath5"><path
       d="M 0,841.89 H 595.276 V 0 H 0 Z"
       transform="translate(-105.3649,-673.69982)"
       id="path5" /></clipPath><clipPath
     clipPathUnits="userSpaceOnUse"
     id="clipPath7"><path
       d="M 0,841.89 H 595.276 V 0 H 0 Z"
       transform="translate(-111.0969,-670.03612)"
       id="path7" /></clipPath><clipPath
     clipPathUnits="userSpaceOnUse"
     id="clipPath9"><path
       d="M 0,841.89 H 595.276 V 0 H 0 Z"
       transform="translate(-89.642305,-672.31142)"
       id="path9" /></clipPath><clipPath
     clipPathUnits="userSpaceOnUse"
     id="clipPath11"><path
       d="M 0,841.89 H 595.276 V 0 H 0 Z"
       transform="translate(-82.095902,-666.63982)"
       id="path11" /></clipPath><clipPath
     clipPathUnits="userSpaceOnUse"
     id="clipPath13"><path
       d="M 0,841.89 H 595.276 V 0 H 0 Z"
       transform="translate(-74.647202,-672.31142)"
       id="path13" /></clipPath><clipPath
     clipPathUnits="userSpaceOnUse"
     id="clipPath15"><path
       d="M 0,841.89 H 595.276 V 0 H 0 Z"
       transform="translate(-67.099702,-666.63982)"
       id="path15" /></clipPath><clipPath
     clipPathUnits="userSpaceOnUse"
     id="clipPath17"><path
       d="M 0,841.89 H 595.276 V 0 H 0 Z"
       transform="translate(-98.050802,-658.29862)"
       id="path17" /></clipPath><clipPath
     clipPathUnits="userSpaceOnUse"
     id="clipPath19"><path
       d="M 0,841.89 H 595.276 V 0 H 0 Z"
       transform="translate(-93.054302,-651.82442)"
       id="path19" /></clipPath><clipPath
     clipPathUnits="userSpaceOnUse"
     id="clipPath21"><path
       d="M 0,841.89 H 595.276 V 0 H 0 Z"
       transform="translate(-52.287401,-673.69982)"
       id="path21" /></clipPath><clipPath
     clipPathUnits="userSpaceOnUse"
     id="clipPath23"><path
       d="M 0,841.89 H 595.276 V 0 H 0 Z"
       transform="translate(-46.554401,-670.03612)"
       id="path23" /></clipPath><clipPath
     clipPathUnits="userSpaceOnUse"
     id="clipPath25"><path
       d="M 0,841.89 H 595.276 V 0 H 0 Z"
       transform="translate(-41.901101,-645.58181)"
       id="path25" /></clipPath><clipPath
     clipPathUnits="userSpaceOnUse"
     id="clipPath27"><path
       d="M 0,841.89 H 595.276 V 0 H 0 Z"
       transform="translate(-57.187301,-659.39072)"
       id="path27" /></clipPath><clipPath
     clipPathUnits="userSpaceOnUse"
     id="clipPath29"><path
       d="M 0,841.89 H 595.276 V 0 H 0 Z"
       transform="translate(-60.454402,-658.29862)"
       id="path29" /></clipPath><clipPath
     clipPathUnits="userSpaceOnUse"
     id="clipPath31"><path
       d="M 0,841.89 H 595.276 V 0 H 0 Z"
       transform="translate(-60.457901,-655.37381)"
       id="path31" /></clipPath><clipPath
     clipPathUnits="userSpaceOnUse"
     id="clipPath33"><path
       d="M 0,841.89 H 595.276 V 0 H 0 Z"
       transform="translate(-59.281201,-711.35982)"
       id="path33" /></clipPath><clipPath
     clipPathUnits="userSpaceOnUse"
     id="clipPath35"><path
       d="M 0,841.89 H 595.276 V 0 H 0 Z"
       transform="translate(-64.542401,-710.28892)"
       id="path35" /></clipPath><clipPath
     clipPathUnits="userSpaceOnUse"
     id="clipPath37"><path
       d="M 0,841.89 H 595.276 V 0 H 0 Z"
       transform="translate(-69.078802,-710.28892)"
       id="path37" /></clipPath><clipPath
     clipPathUnits="userSpaceOnUse"
     id="clipPath39"><path
       d="M 0,841.89 H 595.276 V 0 H 0 Z"
       transform="translate(-73.753302,-706.02952)"
       id="path39" /></clipPath><clipPath
     clipPathUnits="userSpaceOnUse"
     id="clipPath41"><path
       d="M 0,841.89 H 595.276 V 0 H 0 Z"
       transform="translate(-79.083602,-704.62502)"
       id="path41" /></clipPath><clipPath
     clipPathUnits="userSpaceOnUse"
     id="clipPath43"><path
       d="M 0,841.89 H 595.276 V 0 H 0 Z"
       id="path43" /></clipPath><clipPath
     clipPathUnits="userSpaceOnUse"
     id="clipPath45"><path
       d="M 0,841.89 H 595.276 V 0 H 0 Z"
       transform="translate(-84.1843,-705.56872)"
       id="path45" /></clipPath><clipPath
     clipPathUnits="userSpaceOnUse"
     id="clipPath47"><path
       d="M 0,841.89 H 595.276 V 0 H 0 Z"
       transform="translate(-90.2632,-706.02952)"
       id="path47" /></clipPath><clipPath
     clipPathUnits="userSpaceOnUse"
     id="clipPath49"><path
       d="M 0,841.89 H 595.276 V 0 H 0 Z"
       transform="translate(-95.1214,-702.75992)"
       id="path49" /></clipPath><clipPath
     clipPathUnits="userSpaceOnUse"
     id="clipPath51"><path
       d="M 0,841.89 H 595.276 V 0 H 0 Z"
       transform="translate(-99.807505,-706.02952)"
       id="path51" /></clipPath><clipPath
     clipPathUnits="userSpaceOnUse"
     id="clipPath53"><path
       d="M 0,841.89 H 595.276 V 0 H 0 Z"
       transform="translate(-105.93231,-705.36182)"
       id="path53" /></clipPath><clipPath
     clipPathUnits="userSpaceOnUse"
     id="clipPath55"><path
       d="M 0,841.89 H 595.276 V 0 H 0 Z"
       transform="translate(-61.146101,-693.07672)"
       id="path55" /></clipPath><clipPath
     clipPathUnits="userSpaceOnUse"
     id="clipPath57"><path
       d="M 0,841.89 H 595.276 V 0 H 0 Z"
       transform="translate(-65.509402,-694.48132)"
       id="path57" /></clipPath><clipPath
     clipPathUnits="userSpaceOnUse"
     id="clipPath59"><path
       d="M 0,841.89 H 595.276 V 0 H 0 Z"
       transform="translate(-71.611602,-698.74102)"
       id="path59" /></clipPath><clipPath
     clipPathUnits="userSpaceOnUse"
     id="clipPath61"><path
       d="M 0,841.89 H 595.276 V 0 H 0 Z"
       transform="translate(-77.506502,-693.81382)"
       id="path61" /></clipPath><clipPath
     clipPathUnits="userSpaceOnUse"
     id="clipPath63"><path
       d="M 0,841.89 H 595.276 V 0 H 0 Z"
       transform="translate(-80.995,-695.51722)"
       id="path63" /></clipPath><clipPath
     clipPathUnits="userSpaceOnUse"
     id="clipPath65"><path
       d="M 0,841.89 H 595.276 V 0 H 0 Z"
       transform="translate(-85.6117,-698.74102)"
       id="path65" /></clipPath><clipPath
     clipPathUnits="userSpaceOnUse"
     id="clipPath67"><path
       d="M 0,841.89 H 595.276 V 0 H 0 Z"
       transform="translate(-88.847102,-699.81152)"
       id="path67" /></clipPath><clipPath
     clipPathUnits="userSpaceOnUse"
     id="clipPath69"><path
       d="M 0,841.89 H 595.276 V 0 H 0 Z"
       transform="translate(-94.073905,-693.07672)"
       id="path69" /></clipPath><clipPath
     clipPathUnits="userSpaceOnUse"
     id="clipPath71"><path
       d="M 0,841.89 H 595.276 V 0 H 0 Z"
       transform="translate(-98.3914,-694.48132)"
       id="path71" /></clipPath></defs><sodipodi:namedview
   id="namedview1"
   pagecolor="#505050"
   bordercolor="#eeeeee"
   borderopacity="1"
   inkscape:showpageshadow="0"
   inkscape:pageopacity="0"
   inkscape:pagecheckerboard="0"
   inkscape:deskcolor="#505050"
   inkscape:zoom="1.0675655"
   inkscape:cx="140.97496"
   inkscape:cy="338.62091"
   inkscape:window-width="1920"
   inkscape:window-height="991"
   inkscape:window-x="-9"
   inkscape:window-y="-9"
   inkscape:window-maximized="1"
   inkscape:current-layer="Layer_1" />
















<g
   id="g2"
   transform="matrix(4.0030093,0,0,4.0030093,-168.50881,-654.63048)"><path
     id="path2"
     d="M 127.318,623.758 H 31.815 v 95.507 h 95.503 z"
     style="fill:#dc2040;fill-opacity:1;fill-rule:nonzero;stroke:none"
     transform="matrix(1.3333333,0,0,-1.3333333,0,1122.52)" /><path
     id="path3"
     d="M 0,0 H 0.029 V -14.741 H 3.265 V 4.515 H 0.68 L -2.301,1.022 v -3.379 h 0.029 z"
     style="fill:#ffffff;fill-opacity:1;fill-rule:nonzero;stroke:none"
     transform="matrix(1.3333333,0,0,-1.3333333,60.1984,180.24693)" /><path
     id="path4"
     d="m 0,0 c 0,1.462 1.185,2.645 2.646,2.645 1.458,0 2.64,-1.183 2.64,-2.645 0,-1.46 -1.182,-2.644 -2.64,-2.644 C 1.185,-2.644 0,-1.46 0,0"
     style="fill:#ffffff;fill-opacity:1;fill-rule:nonzero;stroke:none"
     transform="matrix(1.3333333,0,0,-1.3333333,140.48653,224.2536)"
     clip-path="url(#clipPath5)" /><path
     id="path6"
     d="m 0,0 c 1.795,-0.162 3.2,-1.671 3.2,-3.512 v -0.878 -0.384 -6.067 c 0,-0.563 -0.459,-1.024 -1.024,-1.024 -0.568,0 -1.025,0.461 -1.025,1.024 v 6.295 c 0,0.236 -0.07,0.556 -0.501,0.556 -0.298,0 -0.36,-0.316 -0.371,-0.518 v -18.867 c 0,-0.81 -0.657,-1.472 -1.471,-1.472 -0.816,0 -1.476,0.662 -1.476,1.472 v 10.873 c -0.004,0.119 -0.044,0.431 -0.418,0.431 h -0.002 c -0.376,0 -0.421,-0.312 -0.425,-0.431 v -10.873 c 0,-0.81 -0.656,-1.472 -1.471,-1.472 -0.816,0 -1.473,0.662 -1.473,1.472 v 18.867 c -0.01,0.202 -0.075,0.518 -0.371,0.518 -0.434,0 -0.5,-0.32 -0.5,-0.556 v -6.295 c 0,-0.563 -0.459,-1.024 -1.025,-1.024 -0.567,0 -1.024,0.461 -1.024,1.024 v 6.067 0.384 0.878 c 0,1.841 1.407,3.35 3.204,3.512 0.058,0.008 0.123,0.016 0.194,0.016 h 2.893 2.885 C -0.125,0.016 -0.063,0.008 0,0"
     style="fill:#ffffff;fill-opacity:1;fill-rule:nonzero;stroke:none"
     transform="matrix(1.3333333,0,0,-1.3333333,148.1292,229.13853)"
     clip-path="url(#clipPath7)" /><path
     id="path8"
     d="m 0,0 c 0,1.383 -1.118,2.506 -2.501,2.506 -1.384,0 -2.505,-1.123 -2.505,-2.506 0,-1.384 1.121,-2.504 2.505,-2.504 C -1.118,-2.504 0,-1.384 0,0"
     style="fill:#ffffff;fill-opacity:1;fill-rule:nonzero;stroke:none"
     transform="matrix(1.3333333,0,0,-1.3333333,119.52307,226.1048)"
     clip-path="url(#clipPath9)" /><path
     id="path10"
     d="m 0,0 -2.081,-6.775 c 0,0 -0.371,-1.242 0.682,-1.553 1.049,-0.31 1.367,0.903 1.367,0.903 l 1.679,5.654 c 0,0 0.091,0.436 0.418,0.341 0.327,-0.094 0.204,-0.558 0.204,-0.558 l -2.921,-10.597 h 2.717 v -7.591 c 0,-0.717 0.584,-1.302 1.305,-1.302 0.72,0 1.302,0.585 1.302,1.302 v 7.591 h 0.373 0.369 v -7.591 c 0,-0.717 0.582,-1.302 1.302,-1.302 0.724,0 1.308,0.585 1.308,1.302 v 7.591 h 2.715 L 7.82,-1.988 c 0,0 -0.123,0.464 0.204,0.558 0.327,0.095 0.419,-0.341 0.419,-0.341 l 1.677,-5.654 c 0,0 0.319,-1.213 1.366,-0.903 1.056,0.311 0.683,1.553 0.683,1.553 L 10.088,0 c 0,0 -0.744,1.958 -2.391,1.958 H 5.045 2.392 C 0.745,1.958 0,0 0,0"
     style="fill:#ffffff;fill-opacity:1;fill-rule:nonzero;stroke:none"
     transform="matrix(1.3333333,0,0,-1.3333333,109.4612,233.66693)"
     clip-path="url(#clipPath11)" /><path
     id="path12"
     d="m 0,0 c 0,1.383 -1.12,2.506 -2.502,2.506 -1.384,0 -2.505,-1.123 -2.505,-2.506 0,-1.384 1.121,-2.504 2.505,-2.504 C -1.12,-2.504 0,-1.384 0,0"
     style="fill:#ffffff;fill-opacity:1;fill-rule:nonzero;stroke:none"
     transform="matrix(1.3333333,0,0,-1.3333333,99.5296,226.1048)"
     clip-path="url(#clipPath13)" /><path
     id="path14"
     d="m 0,0 -2.081,-6.775 c 0,0 -0.371,-1.242 0.683,-1.553 1.048,-0.31 1.366,0.903 1.366,0.903 l 1.678,5.654 c 0,0 0.091,0.436 0.418,0.341 0.328,-0.094 0.204,-0.558 0.204,-0.558 l -2.92,-10.597 h 2.716 v -7.591 c 0,-0.717 0.587,-1.302 1.306,-1.302 0.721,0 1.303,0.585 1.303,1.302 v 7.591 h 0.374 0.368 v -7.591 c 0,-0.717 0.58,-1.302 1.303,-1.302 0.724,0 1.306,0.585 1.306,1.302 v 7.591 H 10.74 L 7.822,-1.988 c 0,0 -0.124,0.464 0.202,0.558 0.326,0.095 0.419,-0.341 0.419,-0.341 l 1.676,-5.654 c 0,0 0.32,-1.213 1.367,-0.903 1.055,0.311 0.683,1.553 0.683,1.553 L 10.087,0 c 0,0 -0.742,1.958 -2.389,1.958 H 5.047 2.392 C 0.746,1.958 0,0 0,0"
     style="fill:#ffffff;fill-opacity:1;fill-rule:nonzero;stroke:none"
     transform="matrix(1.3333333,0,0,-1.3333333,89.466267,233.66693)"
     clip-path="url(#clipPath15)" /><path
     id="path16"
     d="M 0,0 C 1.152,0 2.083,0.933 2.083,2.086 2.083,3.238 1.152,4.168 0,4.168 -1.152,4.168 -2.084,3.238 -2.084,2.086 -2.084,0.933 -1.152,0 0,0"
     style="fill:#ffffff;fill-opacity:1;fill-rule:nonzero;stroke:none"
     transform="matrix(1.3333333,0,0,-1.3333333,130.7344,244.78853)"
     clip-path="url(#clipPath17)" /><path
     id="path18"
     d="m 0,0 c -0.102,-0.243 -0.185,-0.76 0.304,-0.985 0.574,-0.264 0.893,0.291 0.893,0.291 L 2.33,2.919 c 0,0 0.197,0.241 0.197,-0.009 v -8.505 h 0.005 c 0,-0.592 0.476,-1.069 1.069,-1.069 0.591,0 1.069,0.477 1.069,1.069 v 3.356 c 0,0 -0.062,0.475 0.319,0.475 0.384,0 0.325,-0.475 0.325,-0.475 v -3.356 c 0,-0.592 0.479,-1.069 1.071,-1.069 0.59,0 1.072,0.477 1.072,1.069 V 2.91 c 0,0.25 0.131,0.071 0.131,0.071 L 8.476,0.508 c 0,0 0.386,-1.106 0.504,-1.155 0.402,-0.168 0.864,0.023 1.033,0.428 0.112,0.263 0.069,0.546 -0.085,0.76 L 9.935,0.548 C 9.91,0.629 8.609,3.821 8.456,4.268 7.986,5.64 7.131,5.629 6.307,5.651 c -0.825,0.021 -1.318,0 -1.318,0 0,0 -0.526,0.023 -1.613,-0.011 C 2.29,5.607 1.947,5.051 0.75,1.968 0.579,1.524 0,0.088 -0.008,0.002 Z"
     style="fill:#ffffff;fill-opacity:1;fill-rule:nonzero;stroke:none"
     transform="matrix(1.3333333,0,0,-1.3333333,124.0724,253.4208)"
     clip-path="url(#clipPath19)" /><path
     id="path20"
     d="m 0,0 c 0,1.462 -1.186,2.645 -2.646,2.645 -1.459,0 -2.641,-1.183 -2.641,-2.645 0,-1.46 1.182,-2.644 2.641,-2.644 C -1.186,-2.644 0,-1.46 0,0"
     style="fill:#ffffff;fill-opacity:1;fill-rule:nonzero;stroke:none"
     transform="matrix(1.3333333,0,0,-1.3333333,69.716533,224.2536)"
     clip-path="url(#clipPath21)" /><path
     id="path22"
     d="m 0,0 c -1.793,-0.162 -3.201,-1.671 -3.201,-3.512 v -0.878 -0.384 -6.067 c 0,-0.563 0.46,-1.024 1.026,-1.024 0.567,0 1.025,0.461 1.025,1.024 v 6.295 c 0,0.236 0.069,0.556 0.5,0.556 0.298,0 0.361,-0.316 0.373,-0.518 v -18.867 c 0,-0.81 0.656,-1.472 1.471,-1.472 0.814,0 1.473,0.662 1.473,1.472 v 10.873 c 0.006,0.119 0.045,0.431 0.42,0.431 h 10e-4 c 0.376,0 0.421,-0.312 0.425,-0.431 v -10.873 c 0,-0.81 0.657,-1.472 1.471,-1.472 0.816,0 1.473,0.662 1.473,1.472 v 18.867 c 0.009,0.202 0.076,0.518 0.371,0.518 0.434,0 0.499,-0.32 0.499,-0.556 v -6.295 c 0,-0.563 0.46,-1.024 1.026,-1.024 0.567,0 1.025,0.461 1.025,1.024 v 6.067 0.384 0.878 C 9.378,-1.671 7.971,-0.162 6.174,0 6.115,0.008 6.051,0.016 5.98,0.016 H 3.087 0.202 C 0.126,0.016 0.062,0.008 0,0"
     style="fill:#ffffff;fill-opacity:1;fill-rule:nonzero;stroke:none"
     transform="matrix(1.3333333,0,0,-1.3333333,62.072533,229.13853)"
     clip-path="url(#clipPath23)" /><path
     id="path24"
     d="m 0,0 c -0.006,0 -0.013,0 -0.019,0.002 -0.057,0.01 -0.094,0.065 -0.083,0.121 l 2.348,12.445 c 0.01,0.056 0.064,0.093 0.121,0.083 C 2.423,12.64 2.461,12.585 2.45,12.529 L 0.102,0.085 C 0.093,0.035 0.049,0 0,0"
     style="fill:#ffffff;fill-opacity:1;fill-rule:nonzero;stroke:none"
     transform="matrix(1.3333333,0,0,-1.3333333,55.868133,261.74427)"
     clip-path="url(#clipPath25)" /><path
     id="path26"
     d="m 0,0 c -0.137,0.214 -0.372,0.357 -0.644,0.357 -0.418,0 -0.758,-0.341 -0.758,-0.758 0,-0.122 0.074,-0.334 0.074,-0.334 l 2.1,-3.801 c 0,0 0.13,-0.263 0.13,-0.502 v -8.164 h 0.003 c 0,-0.57 0.46,-1.027 1.028,-1.027 0.567,0 1.024,0.457 1.024,1.027 v 3.223 c 0,0 -0.058,0.455 0.31,0.455 0.367,0 0.309,-0.455 0.309,-0.455 v -3.223 c 0,-0.57 0.461,-1.027 1.029,-1.027 0.566,0 1.028,0.457 1.028,1.027 v 8.164 c 0,0.239 0.127,0.502 0.127,0.502 l 1.943,3.51 c 0,0 0.237,0.503 0.237,0.625 0,0.417 -0.339,0.758 -0.759,0.758 C 6.906,0.357 6.671,0.214 6.538,0 L 6.529,0.004 C 6.468,-0.048 5.495,-1.78 5.175,-2.101 4.834,-2.443 4.531,-2.406 4.531,-2.406 H 3.267 2.006 c 0,0 -0.306,-0.037 -0.644,0.305 -0.325,0.321 -1.294,2.053 -1.355,2.105 z"
     style="fill:#ffffff;fill-opacity:1;fill-rule:nonzero;stroke:none"
     transform="matrix(1.3333333,0,0,-1.3333333,76.249733,243.3324)"
     clip-path="url(#clipPath27)" /><path
     id="path28"
     d="M 0,0 C 1.152,0 2.083,0.933 2.083,2.086 2.083,3.238 1.152,4.168 0,4.168 -1.152,4.168 -2.083,3.238 -2.083,2.086 -2.083,0.933 -1.152,0 0,0"
     style="fill:#ffffff;fill-opacity:1;fill-rule:nonzero;stroke:none"
     transform="matrix(1.3333333,0,0,-1.3333333,80.605867,244.78853)"
     clip-path="url(#clipPath29)" /><path
     id="path30"
     d="m 0,0 2.355,-1.718 1.12,-4.121 H 0 -3.478 l 1.122,4.121 z"
     style="fill:#ffffff;fill-opacity:1;fill-rule:nonzero;stroke:none"
     transform="matrix(1.3333333,0,0,-1.3333333,80.610533,248.68827)"
     clip-path="url(#clipPath31)" /><path
     id="path32"
     d="M 0,0 H 3.132 V -1.071 H 1.312 V -3.304 H 2.613 V -4.363 H 1.312 v -2.372 h 1.82 v -1.07 H 0 Z"
     style="fill:#ffffff;fill-opacity:1;fill-rule:nonzero;stroke:none"
     transform="matrix(1.3333333,0,0,-1.3333333,79.0416,174.04027)"
     clip-path="url(#clipPath33)" /><path
     id="path34"
     d="m 0,0 v -2.429 h 0.438 c 0.449,0 0.644,0.23 0.644,0.645 v 1.151 C 1.082,-0.207 0.887,0 0.438,0 Z m 0,-3.154 v -3.58 h -1.312 v 7.805 h 1.911 c 1.324,0 1.807,-0.657 1.807,-1.75 v -1.002 c 0,-0.84 -0.299,-1.335 -1.048,-1.508 L 2.613,-6.734 H 1.232 Z"
     style="fill:#ffffff;fill-opacity:1;fill-rule:nonzero;stroke:none"
     transform="matrix(1.3333333,0,0,-1.3333333,86.056533,175.46813)"
     clip-path="url(#clipPath35)" /><path
     id="path36"
     d="m 0,0 v -2.429 h 0.437 c 0.449,0 0.645,0.23 0.645,0.645 v 1.151 C 1.082,-0.207 0.886,0 0.437,0 Z m 0,-3.154 v -3.58 h -1.312 v 7.805 h 1.91 c 1.324,0 1.808,-0.657 1.808,-1.75 v -1.002 c 0,-0.84 -0.3,-1.335 -1.048,-1.508 L 2.613,-6.734 H 1.232 Z"
     style="fill:#ffffff;fill-opacity:1;fill-rule:nonzero;stroke:none"
     transform="matrix(1.3333333,0,0,-1.3333333,92.105067,175.46813)"
     clip-path="url(#clipPath37)" /><path
     id="path38"
     d="M 0,0 H 1.048 L 0.529,3.131 H 0.518 Z M -1.646,-2.475 -0.173,5.33 H 1.324 L 2.809,-2.475 H 1.462 L 1.22,-1.048 h -1.393 l -0.23,-1.427 z"
     style="fill:#ffffff;fill-opacity:1;fill-rule:nonzero;stroke:none"
     transform="matrix(1.3333333,0,0,-1.3333333,98.337733,181.14733)"
     clip-path="url(#clipPath39)" /><path
     id="path40"
     d="M 0,0 C 0.541,0 0.748,0.322 0.748,0.794 V 4.881 C 0.748,5.341 0.541,5.664 0,5.664 H -0.552 V 0 Z M 2.061,4.639 V 1.024 c 0,-1.197 -0.495,-2.094 -1.899,-2.094 h -2.027 v 7.805 h 2.027 c 1.404,0 1.899,-0.887 1.899,-2.096"
     style="fill:#ffffff;fill-opacity:1;fill-rule:nonzero;stroke:none"
     transform="matrix(1.3333333,0,0,-1.3333333,105.4448,183.02)"
     clip-path="url(#clipPath41)" /><path
     id="path42"
     d="m 82.008,711.36 h 1.312 v -7.805 h -1.312 z"
     style="fill:#ffffff;fill-opacity:1;fill-rule:nonzero;stroke:none"
     transform="matrix(1.3333333,0,0,-1.3333333,0,1122.52)"
     clip-path="url(#clipPath43)" /><path
     id="path44"
     d="m 0,0 v 3.776 c 0,1.221 0.576,2.107 1.957,2.107 1.451,0 1.854,-0.806 1.854,-1.957 V 3.005 H 2.613 V 4.03 c 0,0.483 -0.161,0.759 -0.633,0.759 -0.472,0 -0.668,-0.333 -0.668,-0.806 v -4.19 c 0,-0.472 0.196,-0.806 0.668,-0.806 0.472,0 0.633,0.299 0.633,0.76 V 1.186 H 3.811 V -0.161 C 3.811,-1.278 3.35,-2.107 1.957,-2.107 0.576,-2.107 0,-1.208 0,0"
     style="fill:#ffffff;fill-opacity:1;fill-rule:nonzero;stroke:none"
     transform="matrix(1.3333333,0,0,-1.3333333,112.24573,181.76173)"
     clip-path="url(#clipPath45)" /><path
     id="path46"
     d="M 0,0 H 1.047 L 0.529,3.131 H 0.518 Z M -1.646,-2.475 -0.173,5.33 H 1.324 L 2.809,-2.475 H 1.462 L 1.22,-1.048 h -1.393 l -0.23,-1.427 z"
     style="fill:#ffffff;fill-opacity:1;fill-rule:nonzero;stroke:none"
     transform="matrix(1.3333333,0,0,-1.3333333,120.35093,181.14733)"
     clip-path="url(#clipPath47)" /><path
     id="path48"
     d="m 0,0 c 0.369,0.011 0.426,0.092 0.426,0.184 0,0.08 -0.069,0.127 -0.184,0.127 H 0.184 v 0.426 c -1.116,0.138 -1.577,0.978 -1.577,2.072 v 3.776 c 0,1.22 0.576,2.107 1.957,2.107 1.451,0 1.854,-0.806 1.854,-1.958 V 5.814 H 1.22 v 1.024 c 0,0.484 -0.161,0.76 -0.633,0.76 -0.472,0 -0.668,-0.334 -0.668,-0.806 v -4.19 c 0,-0.473 0.196,-0.806 0.668,-0.806 0.472,0 0.633,0.299 0.633,0.76 V 3.995 H 2.418 V 2.648 C 2.418,1.554 1.98,0.748 0.679,0.702 V 0.598 C 0.99,0.553 1.163,0.438 1.163,0.184 1.163,-0.173 0.829,-0.369 0,-0.369 Z"
     style="fill:#ffffff;fill-opacity:1;fill-rule:nonzero;stroke:none"
     transform="matrix(1.3333333,0,0,-1.3333333,126.82853,185.5068)"
     clip-path="url(#clipPath49)" /><path
     id="path50"
     d="M 0,0 H 1.048 L 0.529,3.131 H 0.518 Z m -0.622,5.641 c 0.023,0.541 0.231,0.978 0.806,0.978 0.334,0 0.61,-0.195 0.783,-0.195 0.092,0 0.161,0.057 0.161,0.172 H 1.773 C 1.75,6.055 1.542,5.618 0.967,5.618 0.633,5.618 0.357,5.814 0.184,5.814 0.092,5.814 0.023,5.756 0.023,5.641 Z M -1.646,-2.475 -0.173,5.33 H 1.324 L 2.809,-2.475 H 1.462 L 1.22,-1.048 h -1.393 l -0.23,-1.427 z"
     style="fill:#ffffff;fill-opacity:1;fill-rule:nonzero;stroke:none"
     transform="matrix(1.3333333,0,0,-1.3333333,133.07667,181.14733)"
     clip-path="url(#clipPath51)" /><path
     id="path52"
     d="M 0,0 V 4.19 C 0,4.662 -0.207,4.996 -0.679,4.996 -1.14,4.996 -1.347,4.662 -1.347,4.19 V 0 c 0,-0.472 0.207,-0.806 0.668,-0.806 C -0.207,-0.806 0,-0.472 0,0 m -2.659,0.207 v 3.776 c 0,1.22 0.598,2.107 1.98,2.107 1.393,0 1.991,-0.887 1.991,-2.107 V 0.207 c 0,-1.209 -0.598,-2.107 -1.991,-2.107 -1.382,0 -1.98,0.898 -1.98,2.107"
     style="fill:#ffffff;fill-opacity:1;fill-rule:nonzero;stroke:none"
     transform="matrix(1.3333333,0,0,-1.3333333,141.24307,182.0376)"
     clip-path="url(#clipPath53)" /><path
     id="path54"
     d="M 0,0 C 0.541,0 0.748,0.322 0.748,0.794 V 4.881 C 0.748,5.342 0.541,5.664 0,5.664 H -0.553 V 0 Z M 2.061,4.64 V 1.025 c 0,-1.197 -0.495,-2.095 -1.9,-2.095 h -2.026 v 7.805 h 2.026 c 1.405,0 1.9,-0.887 1.9,-2.095"
     style="fill:#ffffff;fill-opacity:1;fill-rule:nonzero;stroke:none"
     transform="matrix(1.3333333,0,0,-1.3333333,81.528133,198.41773)"
     clip-path="url(#clipPath55)" /><path
     id="path56"
     d="M 0,0 H 1.048 L 0.53,3.131 H 0.518 Z M -1.646,-2.475 -0.173,5.33 H 1.324 L 2.809,-2.475 H 1.462 L 1.22,-1.047 h -1.393 l -0.23,-1.428 z"
     style="fill:#ffffff;fill-opacity:1;fill-rule:nonzero;stroke:none"
     transform="matrix(1.3333333,0,0,-1.3333333,87.345867,196.54493)"
     clip-path="url(#clipPath57)" /><path
     id="path58"
     d="m 0,0 v -3.074 h 0.483 c 0.449,0 0.645,0.219 0.645,0.645 v 1.796 C 1.128,-0.207 0.932,0 0.483,0 Z m -1.312,1.071 h 1.945 c 1.324,0 1.808,-0.657 1.808,-1.75 v -1.646 c 0,-1.094 -0.484,-1.762 -1.808,-1.762 H 0 v -2.648 h -1.312 z"
     style="fill:#ffffff;fill-opacity:1;fill-rule:nonzero;stroke:none"
     transform="matrix(1.3333333,0,0,-1.3333333,95.482133,190.86533)"
     clip-path="url(#clipPath59)" /><path
     id="path60"
     d="M 0,0 V 4.19 C 0,4.662 -0.207,4.996 -0.679,4.996 -1.14,4.996 -1.347,4.662 -1.347,4.19 V 0 c 0,-0.472 0.207,-0.806 0.668,-0.806 C -0.207,-0.806 0,-0.472 0,0 m -2.66,0.207 v 3.776 c 0,1.22 0.599,2.107 1.981,2.107 1.393,0 1.991,-0.887 1.991,-2.107 V 0.207 c 0,-1.209 -0.598,-2.107 -1.991,-2.107 -1.382,0 -1.981,0.898 -1.981,2.107"
     style="fill:#ffffff;fill-opacity:1;fill-rule:nonzero;stroke:none"
     transform="matrix(1.3333333,0,0,-1.3333333,103.342,197.43493)"
     clip-path="url(#clipPath61)" /><path
     id="path62"
     d="m 0,0 v -2.441 h 0.576 c 0.437,0 0.644,0.219 0.644,0.634 v 1.174 C 1.22,-0.219 1.024,0 0.564,0 Z m 0,1.002 h 0.46 c 0.426,0 0.622,0.218 0.622,0.633 V 2.59 c 0,0.426 -0.196,0.634 -0.633,0.634 L 0,3.224 Z m -1.313,3.292 h 1.9 c 1.312,0 1.75,-0.61 1.75,-1.715 V 1.785 c 0,-0.657 -0.242,-1.071 -0.783,-1.244 0.656,-0.15 0.978,-0.587 0.978,-1.3 v -1.037 c 0,-1.105 -0.495,-1.715 -1.807,-1.715 h -2.038 z"
     style="fill:#ffffff;fill-opacity:1;fill-rule:nonzero;stroke:none"
     transform="matrix(1.3333333,0,0,-1.3333333,107.99333,195.16373)"
     clip-path="url(#clipPath63)" /><path
     id="path64"
     d="m 0,0 v -2.429 h 0.438 c 0.448,0 0.644,0.23 0.644,0.644 v 1.152 C 1.082,-0.207 0.886,0 0.438,0 Z m 0,-3.154 v -3.581 h -1.312 v 7.806 h 1.911 c 1.323,0 1.807,-0.657 1.807,-1.75 v -1.002 c 0,-0.84 -0.299,-1.335 -1.048,-1.508 L 2.613,-6.735 H 1.232 Z"
     style="fill:#ffffff;fill-opacity:1;fill-rule:nonzero;stroke:none"
     transform="matrix(1.3333333,0,0,-1.3333333,114.14893,190.86533)"
     clip-path="url(#clipPath65)" /><path
     id="path66"
     d="M 0,0 H 3.132 V -1.071 H 1.312 V -3.304 H 2.613 V -4.363 H 1.312 v -2.372 h 1.82 v -1.07 H 0 Z"
     style="fill:#ffffff;fill-opacity:1;fill-rule:nonzero;stroke:none"
     transform="matrix(1.3333333,0,0,-1.3333333,118.4628,189.438)"
     clip-path="url(#clipPath67)" /><path
     id="path68"
     d="M 0,0 H 1.992 V -1.07 H -1.37 V 0 L 0.691,5.664 H -1.163 V 6.735 H 2.072 V 5.664 Z"
     style="fill:#ffffff;fill-opacity:1;fill-rule:nonzero;stroke:none"
     transform="matrix(1.3333333,0,0,-1.3333333,125.43187,198.41773)"
     clip-path="url(#clipPath69)" /><path
     id="path70"
     d="M 0,0 H 1.048 L 0.529,3.131 H 0.518 Z M -1.646,-2.475 -0.173,5.33 H 1.324 L 2.809,-2.475 H 1.462 L 1.22,-1.047 h -1.393 l -0.23,-1.428 z"
     style="fill:#ffffff;fill-opacity:1;fill-rule:nonzero;stroke:none"
     transform="matrix(1.3333333,0,0,-1.3333333,131.18853,196.54493)"
     clip-path="url(#clipPath71)" /></g></svg>
