<?xml version="1.0" encoding="UTF-8" standalone="no"?>
<!-- Generator: Adobe Illustrator 19.0.0, SVG Export Plug-In . SVG Version: 6.00 Build 0)  -->

<svg
   version="1.1"
   id="Layer_1"
   x="0px"
   y="0px"
   viewBox="0 0 512 512"
   style="enable-background:new 0 0 512 512;"
   xml:space="preserve"
   width="512"
   height="512"
   sodipodi:docname="11.svg"
   inkscape:version="1.4.2 (f4327f4, 2025-05-13)"
   xmlns:inkscape="http://www.inkscape.org/namespaces/inkscape"
   xmlns:sodipodi="http://sodipodi.sourceforge.net/DTD/sodipodi-0.dtd"
   xmlns="http://www.w3.org/2000/svg"
   xmlns:svg="http://www.w3.org/2000/svg"><defs
   id="defs1"><clipPath
     clipPathUnits="userSpaceOnUse"
     id="clipPath699-9"><path
       d="M 0,841.89 H 595.276 V 0 H 0 Z"
       id="path699-0" /></clipPath><clipPath
     clipPathUnits="userSpaceOnUse"
     id="clipPath701-8"><path
       d="M 0,841.89 H 595.276 V 0 H 0 Z"
       transform="translate(-151.17051,-494.89231)"
       id="path701-7" /></clipPath><clipPath
     clipPathUnits="userSpaceOnUse"
     id="clipPath703-4"><path
       d="M 0,841.89 H 595.276 V 0 H 0 Z"
       transform="translate(-156.3673,-495.43061)"
       id="path703-5" /></clipPath><clipPath
     clipPathUnits="userSpaceOnUse"
     id="clipPath705-6"><path
       d="M 0,841.89 H 595.276 V 0 H 0 Z"
       transform="translate(-215.54431,-456.28011)"
       id="path705-8" /></clipPath><clipPath
     clipPathUnits="userSpaceOnUse"
     id="clipPath707-0"><path
       d="M 0,841.89 H 595.276 V 0 H 0 Z"
       transform="translate(-172.1247,-493.66231)"
       id="path707-7" /></clipPath><clipPath
     clipPathUnits="userSpaceOnUse"
     id="clipPath709-7"><path
       d="M 0,841.89 H 595.276 V 0 H 0 Z"
       transform="translate(-179.2978,-493.45501)"
       id="path709-4" /></clipPath><clipPath
     clipPathUnits="userSpaceOnUse"
     id="clipPath711-3"><path
       d="M 0,841.89 H 595.276 V 0 H 0 Z"
       transform="translate(-182.4519,-496.55231)"
       id="path711-1" /></clipPath><clipPath
     clipPathUnits="userSpaceOnUse"
     id="clipPath713-3"><path
       d="M 0,841.89 H 595.276 V 0 H 0 Z"
       transform="translate(-185.8144,-493.32821)"
       id="path713-6" /></clipPath><clipPath
     clipPathUnits="userSpaceOnUse"
     id="clipPath715-3"><path
       d="M 0,841.89 H 595.276 V 0 H 0 Z"
       transform="translate(-194.0695,-499.45441)"
       id="path715-0" /></clipPath><clipPath
     clipPathUnits="userSpaceOnUse"
     id="clipPath717-1"><path
       d="M 0,841.89 H 595.276 V 0 H 0 Z"
       transform="translate(-198.4102,-496.71361)"
       id="path717-9" /></clipPath><clipPath
     clipPathUnits="userSpaceOnUse"
     id="clipPath719-0"><path
       d="M 0,841.89 H 595.276 V 0 H 0 Z"
       transform="translate(-203.00371,-493.45501)"
       id="path719-4" /></clipPath><clipPath
     clipPathUnits="userSpaceOnUse"
     id="clipPath721-2"><path
       d="M 0,841.89 H 595.276 V 0 H 0 Z"
       transform="translate(-206.23911,-499.45441)"
       id="path721-9" /></clipPath><clipPath
     clipPathUnits="userSpaceOnUse"
     id="clipPath723-3"><path
       d="M 0,841.89 H 595.276 V 0 H 0 Z"
       transform="translate(-173.43711,-486.91581)"
       id="path723-1" /></clipPath><clipPath
     clipPathUnits="userSpaceOnUse"
     id="clipPath725-4"><path
       d="M 0,841.89 H 595.276 V 0 H 0 Z"
       transform="translate(-177.9855,-486.91581)"
       id="path725-8" /></clipPath><clipPath
     clipPathUnits="userSpaceOnUse"
     id="clipPath727-2"><path
       d="M 0,841.89 H 595.276 V 0 H 0 Z"
       transform="translate(-183.86871,-481.98761)"
       id="path727-0" /></clipPath><clipPath
     clipPathUnits="userSpaceOnUse"
     id="clipPath729-5"><path
       d="M 0,841.89 H 595.276 V 0 H 0 Z"
       transform="translate(-187.9096,-481.25051)"
       id="path729-5" /></clipPath><clipPath
     clipPathUnits="userSpaceOnUse"
     id="clipPath731-9"><path
       d="M 0,841.89 H 595.276 V 0 H 0 Z"
       transform="translate(-194.6454,-487.98671)"
       id="path731-3" /></clipPath><clipPath
     clipPathUnits="userSpaceOnUse"
     id="clipPath733-2"><path
       d="M 0,841.89 H 595.276 V 0 H 0 Z"
       transform="translate(-196.89021,-479.38551)"
       id="path733-8" /></clipPath><clipPath
     clipPathUnits="userSpaceOnUse"
     id="clipPath735-7"><path
       d="M 0,841.89 H 595.276 V 0 H 0 Z"
       transform="translate(-201.57661,-482.65541)"
       id="path735-4" /></clipPath><clipPath
     clipPathUnits="userSpaceOnUse"
     id="clipPath737-8"><path
       d="M 0,841.89 H 595.276 V 0 H 0 Z"
       transform="translate(-207.7018,-481.98761)"
       id="path737-1" /></clipPath><clipPath
     clipPathUnits="userSpaceOnUse"
     id="clipPath739-4"><path
       d="M 0,841.89 H 595.276 V 0 H 0 Z"
       transform="translate(-173.43711,-475.44861)"
       id="path739-3" /></clipPath><clipPath
     clipPathUnits="userSpaceOnUse"
     id="clipPath741-5"><path
       d="M 0,841.89 H 595.276 V 0 H 0 Z"
       transform="translate(-176.59191,-476.51901)"
       id="path741-5" /></clipPath><clipPath
     clipPathUnits="userSpaceOnUse"
     id="clipPath743-2"><path
       d="M 0,841.89 H 595.276 V 0 H 0 Z"
       transform="translate(-180.3799,-470.39321)"
       id="path743-6" /></clipPath><clipPath
     clipPathUnits="userSpaceOnUse"
     id="clipPath745-8"><path
       d="M 0,841.89 H 595.276 V 0 H 0 Z"
       transform="translate(-186.17091,-475.44861)"
       id="path745-9" /></clipPath><clipPath
     clipPathUnits="userSpaceOnUse"
     id="clipPath747-2"><path
       d="M 0,841.89 H 595.276 V 0 H 0 Z"
       transform="translate(-191.9859,-470.51971)"
       id="path747-9" /></clipPath><clipPath
     clipPathUnits="userSpaceOnUse"
     id="clipPath749-5"><path
       d="M 0,841.89 H 595.276 V 0 H 0 Z"
       transform="translate(-195.1864,-473.61701)"
       id="path749-9" /></clipPath><clipPath
     clipPathUnits="userSpaceOnUse"
     id="clipPath751-4"><path
       d="M 0,841.89 H 595.276 V 0 H 0 Z"
       transform="translate(-198.594,-470.39321)"
       id="path751-5" /></clipPath><clipPath
     clipPathUnits="userSpaceOnUse"
     id="clipPath753-0"><path
       d="M 0,841.89 H 595.276 V 0 H 0 Z"
       transform="translate(-204.51211,-471.18771)"
       id="path753-5" /></clipPath><clipPath
     clipPathUnits="userSpaceOnUse"
     id="clipPath755-8"><path
       d="M 0,841.89 H 595.276 V 0 H 0 Z"
       transform="translate(-212.09991,-476.51901)"
       id="path755-8" /></clipPath><clipPath
     clipPathUnits="userSpaceOnUse"
     id="clipPath757-0"><path
       d="M 0,841.89 H 595.276 V 0 H 0 Z"
       transform="translate(-212.67501,-476.51901)"
       id="path757-1" /></clipPath><clipPath
     clipPathUnits="userSpaceOnUse"
     id="clipPath759-3"><path
       d="M 0,841.89 H 595.276 V 0 H 0 Z"
       id="path759-2" /></clipPath><clipPath
     clipPathUnits="userSpaceOnUse"
     id="clipPath761-2"><path
       d="M 0,841.89 H 595.276 V 0 H 0 Z"
       transform="translate(-218.55831,-470.39321)"
       id="path761-2" /></clipPath></defs><sodipodi:namedview
   id="namedview1"
   pagecolor="#505050"
   bordercolor="#eeeeee"
   borderopacity="1"
   inkscape:showpageshadow="0"
   inkscape:pageopacity="0"
   inkscape:pagecheckerboard="0"
   inkscape:deskcolor="#505050"
   inkscape:zoom="1.0675655"
   inkscape:cx="294.5955"
   inkscape:cy="305.83603"
   inkscape:window-width="1920"
   inkscape:window-height="991"
   inkscape:window-x="-9"
   inkscape:window-y="-9"
   inkscape:window-maximized="1"
   inkscape:current-layer="Layer_1" />
















<g
   id="g14"
   transform="matrix(4.0160156,0,0,4.0160156,-758.81771,-1789.6744)"><path
     id="path698"
     d="m 237.14,411.934 h -95.503 v 95.508 h 95.503 z"
     style="fill:#ae7f31;fill-opacity:1;fill-rule:nonzero;stroke:none"
     transform="matrix(1.3333333,0,0,-1.3333333,0,1122.52)"
     clip-path="url(#clipPath699-9)" /><path
     id="path700"
     d="M 0,0 H 0.029 V -14.741 H 3.267 V 4.515 H 0.679 l -2.98,-3.493 v -3.38 h 0.027 z"
     style="fill:#ffffff;fill-opacity:1;fill-rule:nonzero;stroke:none"
     transform="matrix(1.3333333,0,0,-1.3333333,201.56067,462.6636)"
     clip-path="url(#clipPath701-8)" /><path
     id="path702"
     d="m 0,0 v -2.328 h 2.953 v 2.414 c 0,1.164 0.569,1.505 1.25,1.505 0.626,0 1.164,-0.255 1.164,-1.449 v -1.59 c 0,-1.591 -0.14,-2.215 -1.193,-3.323 L 2.358,-6.702 C 0.596,-8.577 -0.058,-9.827 -0.058,-11.73 v -3.55 H 8.35 v 2.642 H 3.038 v 0.908 c 0,1.506 0.54,2.073 1.363,2.954 l 2.074,2.187 c 1.676,1.789 2.046,2.926 2.046,4.857 V 0.142 C 8.521,2.898 7.187,4.204 4.289,4.204 1.448,4.204 0,2.698 0,0"
     style="fill:#ffffff;fill-opacity:1;fill-rule:nonzero;stroke:none"
     transform="matrix(1.3333333,0,0,-1.3333333,208.48973,461.94587)"
     clip-path="url(#clipPath703-4)" /><path
     id="path704"
     d="m 0,0 c -3.895,3.076 -8.565,3.408 -10.393,3.408 -0.962,0 -1.854,-0.087 -2.508,-0.242 l -0.256,-0.06 C -15.624,2.524 -19.753,1.549 -24.559,-4.416 L -24.7,-4.591 c -0.079,-0.113 -0.12,-0.235 -0.12,-0.36 0,-0.11 0.026,-0.214 0.084,-0.317 l 0.109,-0.179 c 0.793,-1.326 1.454,-2.48 1.977,-3.458 0.188,-0.363 0.69,-0.482 1.028,-0.144 0.034,0.044 0.067,0.09 0.091,0.126 4.151,5.742 7.404,6.507 9.557,7.014 l 0.267,0.062 c 0.296,0.071 0.777,0.113 1.318,0.113 1.001,0 4.48,-0.167 7.195,-2.31 2.415,-1.906 3.639,-4.95 3.639,-9.049 0,-6.869 -3.323,-9.547 -6.111,-10.586 -1.064,-0.397 -2.21,-0.599 -3.408,-0.599 -2.872,0 -5.082,1.149 -5.111,1.165 l -0.199,0.097 c -2.398,1.041 -5.979,3.211 -9.364,10.01 -6.94,13.937 -12.769,15.258 -16.629,16.133 l -0.203,0.045 c -0.295,0.067 -1.13,0.223 -2.487,0.223 -2.235,0 -6.535,-0.44 -10.22,-3.381 -2.516,-2.007 -5.516,-5.905 -5.516,-13.079 0,-4.371 0.899,-7.258 3.208,-10.295 0.434,-0.592 4.456,-5.784 12.177,-5.784 1.144,0 2.331,0.115 3.526,0.345 1.41,0.27 3.585,0.966 6.015,2.748 l 2.03,-1.831 c 0.226,-0.207 0.619,-0.186 0.823,0.038 0.099,0.105 0.153,0.247 0.147,0.386 l 1.571,9.672 v 0.114 c -0.002,0.164 -0.074,0.321 -0.189,0.421 -0.102,0.098 -0.236,0.15 -0.406,0.15 h -0.004 l -9.418,-2.603 -0.179,-0.029 c -0.119,-0.026 -0.223,-0.088 -0.3,-0.175 -0.106,-0.116 -0.16,-0.267 -0.152,-0.425 0.008,-0.157 0.079,-0.301 0.193,-0.403 l 1.951,-1.763 c -1.026,-0.63 -2.051,-1.046 -3.048,-1.239 -0.85,-0.163 -1.69,-0.245 -2.499,-0.245 -5.335,0 -7.96,3.502 -8.069,3.65 l -0.053,0.072 c -1.623,2.133 -2.171,3.949 -2.171,7.196 0,4.112 1.203,7.158 3.576,9.054 2.642,2.106 6.04,2.27 7.019,2.27 0.535,0 1.022,-0.041 1.334,-0.111 l 0.208,-0.047 c 3.082,-0.698 7.301,-1.653 13.151,-13.403 3.09,-6.203 6.964,-10.261 11.834,-12.4 0.566,-0.289 3.586,-1.73 7.459,-1.73 1.808,0 3.558,0.311 5.204,0.923 2.845,1.062 9.463,4.69 9.463,15.416 C 5.598,-5.925 2.554,-2.017 0,0"
     style="fill:#ffffff;fill-opacity:1;fill-rule:nonzero;stroke:none"
     transform="matrix(1.3333333,0,0,-1.3333333,287.3924,514.14653)"
     clip-path="url(#clipPath705-6)" /><path
     id="path706"
     d="m 0,0 v 3.777 c 0,1.221 0.576,2.107 1.957,2.107 1.451,0 1.854,-0.806 1.854,-1.958 V 3.005 H 2.614 V 4.03 C 2.614,4.514 2.453,4.79 1.98,4.79 1.508,4.79 1.312,4.456 1.312,3.984 v -4.191 c 0,-0.472 0.196,-0.807 0.668,-0.807 0.473,0 0.634,0.3 0.634,0.761 v 1.439 h 1.197 v -1.347 c 0,-1.117 -0.46,-1.946 -1.854,-1.946 C 0.576,-2.107 0,-1.209 0,0"
     style="fill:#ffffff;fill-opacity:1;fill-rule:nonzero;stroke:none"
     transform="matrix(1.3333333,0,0,-1.3333333,229.4996,464.3036)"
     clip-path="url(#clipPath707-0)" /><path
     id="path708"
     d="m 0,0 v 4.191 c 0,0.473 -0.208,0.807 -0.679,0.807 -0.461,0 -0.668,-0.334 -0.668,-0.807 V 0 c 0,-0.472 0.207,-0.806 0.668,-0.806 C -0.208,-0.806 0,-0.472 0,0 m -2.66,0.207 v 3.777 c 0,1.221 0.599,2.108 1.981,2.108 1.393,0 1.992,-0.887 1.992,-2.108 V 0.207 c 0,-1.209 -0.599,-2.107 -1.992,-2.107 -1.382,0 -1.981,0.898 -1.981,2.107"
     style="fill:#ffffff;fill-opacity:1;fill-rule:nonzero;stroke:none"
     transform="matrix(1.3333333,0,0,-1.3333333,239.06373,464.58)"
     clip-path="url(#clipPath709-7)" /><path
     id="path710"
     d="M 0,0 V -4.905 H -1.105 V 2.902 H 0.184 L 1.601,-1.577 V 2.902 H 2.695 V -4.905 H 1.543 Z"
     style="fill:#ffffff;fill-opacity:1;fill-rule:nonzero;stroke:none"
     transform="matrix(1.3333333,0,0,-1.3333333,243.2692,460.45027)"
     clip-path="url(#clipPath711-3)" /><path
     id="path712"
     d="m 0,0 v 1.048 h 1.22 v -1.071 c 0,-0.438 0.196,-0.691 0.645,-0.691 0.415,0 0.599,0.276 0.599,0.691 v 0.3 c 0,0.448 -0.184,0.725 -0.587,1.105 L 1.105,2.153 C 0.357,2.89 0.012,3.339 0.012,4.238 v 0.264 c 0,0.968 0.563,1.716 1.841,1.716 1.313,0 1.831,-0.645 1.831,-1.773 V 3.811 H 2.487 v 0.68 C 2.487,4.94 2.28,5.159 1.865,5.159 1.497,5.159 1.243,4.952 1.243,4.514 V 4.353 c 0,-0.438 0.242,-0.691 0.622,-1.06 L 2.706,2.464 C 3.42,1.739 3.765,1.301 3.765,0.438 V 0.058 C 3.765,-1.013 3.19,-1.773 1.853,-1.773 0.518,-1.773 0,-1.025 0,0"
     style="fill:#ffffff;fill-opacity:1;fill-rule:nonzero;stroke:none"
     transform="matrix(1.3333333,0,0,-1.3333333,247.75253,464.74907)"
     clip-path="url(#clipPath713-3)" /><path
     id="path714"
     d="m 0,0 v -5.907 c 0,-1.209 -0.519,-1.992 -1.854,-1.992 -1.381,0 -1.957,0.783 -1.957,1.992 V 0 h 1.312 v -6.034 c 0,-0.46 0.185,-0.772 0.645,-0.772 0.461,0 0.645,0.312 0.645,0.772 V 0 Z"
     style="fill:#ffffff;fill-opacity:1;fill-rule:nonzero;stroke:none"
     transform="matrix(1.3333333,0,0,-1.3333333,258.75933,456.5808)"
     clip-path="url(#clipPath715-3)" /><path
     id="path716"
     d="m 0,0 h -0.035 l -0.887,-5.066 h -0.61 L -2.511,0 h -0.022 v -5.066 h -1.083 v 7.807 h 1.532 l 0.852,-4.399 h 0.011 L -0.46,2.741 H 1.198 V -5.066 H 0 Z"
     style="fill:#ffffff;fill-opacity:1;fill-rule:nonzero;stroke:none"
     transform="matrix(1.3333333,0,0,-1.3333333,264.54693,460.2352)"
     clip-path="url(#clipPath717-1)" /><path
     id="path718"
     d="m 0,0 v 4.191 c 0,0.473 -0.207,0.807 -0.679,0.807 -0.46,0 -0.668,-0.334 -0.668,-0.807 V 0 c 0,-0.472 0.208,-0.806 0.668,-0.806 C -0.207,-0.806 0,-0.472 0,0 m -2.659,0.207 v 3.777 c 0,1.221 0.598,2.108 1.98,2.108 1.393,0 1.992,-0.887 1.992,-2.108 V 0.207 c 0,-1.209 -0.599,-2.107 -1.992,-2.107 -1.382,0 -1.98,0.898 -1.98,2.107"
     style="fill:#ffffff;fill-opacity:1;fill-rule:nonzero;stroke:none"
     transform="matrix(1.3333333,0,0,-1.3333333,270.6716,464.58)"
     clip-path="url(#clipPath719-0)" /><path
     id="path720"
     d="M 0,0 H 3.132 V -1.071 H 1.312 V -3.305 H 2.614 V -4.364 H 1.312 v -2.372 h 1.82 V -7.807 H 0 Z"
     style="fill:#ffffff;fill-opacity:1;fill-rule:nonzero;stroke:none"
     transform="matrix(1.3333333,0,0,-1.3333333,274.98547,456.5808)"
     clip-path="url(#clipPath721-2)" /><path
     id="path722"
     d="m 0,0 v -3.074 h 0.484 c 0.449,0 0.645,0.218 0.645,0.644 v 1.797 C 1.129,-0.207 0.933,0 0.484,0 Z m -1.312,1.071 h 1.945 c 1.325,0 1.809,-0.656 1.809,-1.75 v -1.647 c 0,-1.094 -0.484,-1.762 -1.809,-1.762 H 0 v -2.649 h -1.312 z"
     style="fill:#ffffff;fill-opacity:1;fill-rule:nonzero;stroke:none"
     transform="matrix(1.3333333,0,0,-1.3333333,231.24947,473.29893)"
     clip-path="url(#clipPath723-3)" /><path
     id="path724"
     d="m 0,0 v -2.43 h 0.437 c 0.45,0 0.645,0.231 0.645,0.645 v 1.152 C 1.082,-0.207 0.887,0 0.437,0 Z m 0,-3.155 v -3.582 h -1.313 v 7.808 h 1.911 c 1.325,0 1.808,-0.656 1.808,-1.75 v -1.002 c 0,-0.84 -0.299,-1.336 -1.047,-1.509 L 2.614,-6.737 H 1.232 Z"
     style="fill:#ffffff;fill-opacity:1;fill-rule:nonzero;stroke:none"
     transform="matrix(1.3333333,0,0,-1.3333333,237.314,473.29893)"
     clip-path="url(#clipPath725-4)" /><path
     id="path726"
     d="m 0,0 v 4.191 c 0,0.472 -0.207,0.806 -0.68,0.806 -0.46,0 -0.667,-0.334 -0.667,-0.806 V 0 c 0,-0.472 0.207,-0.806 0.667,-0.806 C -0.207,-0.806 0,-0.472 0,0 m -2.66,0.207 v 3.777 c 0,1.221 0.599,2.107 1.98,2.107 1.394,0 1.992,-0.886 1.992,-2.107 V 0.207 c 0,-1.209 -0.598,-2.107 -1.992,-2.107 -1.381,0 -1.98,0.898 -1.98,2.107"
     style="fill:#ffffff;fill-opacity:1;fill-rule:nonzero;stroke:none"
     transform="matrix(1.3333333,0,0,-1.3333333,245.15827,479.86987)"
     clip-path="url(#clipPath727-2)" /><path
     id="path728"
     d="M 0,0 C 0.541,0 0.749,0.322 0.749,0.794 V 4.882 C 0.749,5.343 0.541,5.665 0,5.665 H -0.553 V 0 Z M 2.061,4.641 V 1.025 c 0,-1.198 -0.495,-2.096 -1.9,-2.096 h -2.026 v 7.807 h 2.026 c 1.405,0 1.9,-0.886 1.9,-2.095"
     style="fill:#ffffff;fill-opacity:1;fill-rule:nonzero;stroke:none"
     transform="matrix(1.3333333,0,0,-1.3333333,250.54613,480.85267)"
     clip-path="url(#clipPath729-5)" /><path
     id="path730"
     d="m 0,0 v -5.907 c 0,-1.209 -0.518,-1.992 -1.854,-1.992 -1.381,0 -1.957,0.783 -1.957,1.992 V 0 h 1.312 v -6.034 c 0,-0.46 0.185,-0.771 0.645,-0.771 0.46,0 0.645,0.311 0.645,0.771 V 0 Z"
     style="fill:#ffffff;fill-opacity:1;fill-rule:nonzero;stroke:none"
     transform="matrix(1.3333333,0,0,-1.3333333,259.5272,471.87107)"
     clip-path="url(#clipPath731-9)" /><path
     id="path732"
     d="m 0,0 c 0.369,0.011 0.426,0.092 0.426,0.184 0,0.08 -0.069,0.127 -0.184,0.127 H 0.184 v 0.426 c -1.116,0.138 -1.577,0.978 -1.577,2.072 v 3.777 c 0,1.221 0.575,2.107 1.957,2.107 1.451,0 1.854,-0.806 1.854,-1.957 V 5.815 H 1.221 v 1.024 c 0,0.484 -0.161,0.76 -0.634,0.76 -0.472,0 -0.668,-0.333 -0.668,-0.806 V 2.602 c 0,-0.472 0.196,-0.806 0.668,-0.806 0.473,0 0.634,0.299 0.634,0.76 V 3.995 H 2.418 V 2.648 C 2.418,1.554 1.98,0.748 0.68,0.702 V 0.598 C 0.991,0.552 1.163,0.437 1.163,0.184 1.163,-0.173 0.829,-0.369 0,-0.369 Z"
     style="fill:#ffffff;fill-opacity:1;fill-rule:nonzero;stroke:none"
     transform="matrix(1.3333333,0,0,-1.3333333,262.52027,483.33933)"
     clip-path="url(#clipPath733-2)" /><path
     id="path734"
     d="M 0,0 H 1.047 L 0.529,3.132 H 0.518 Z m -0.622,5.642 c 0.023,0.542 0.23,0.979 0.806,0.979 0.334,0 0.61,-0.196 0.783,-0.196 0.092,0 0.161,0.058 0.161,0.173 H 1.773 C 1.75,6.057 1.543,5.619 0.967,5.619 0.633,5.619 0.357,5.815 0.184,5.815 0.092,5.815 0.023,5.757 0.023,5.642 Z m -1.025,-8.118 1.474,7.807 H 1.324 L 2.809,-2.476 H 1.462 L 1.22,-1.048 h -1.393 l -0.23,-1.428 z"
     style="fill:#ffffff;fill-opacity:1;fill-rule:nonzero;stroke:none"
     transform="matrix(1.3333333,0,0,-1.3333333,268.7688,478.97947)"
     clip-path="url(#clipPath735-7)" /><path
     id="path736"
     d="m 0,0 v 4.191 c 0,0.472 -0.208,0.806 -0.68,0.806 -0.46,0 -0.667,-0.334 -0.667,-0.806 V 0 c 0,-0.472 0.207,-0.806 0.667,-0.806 C -0.208,-0.806 0,-0.472 0,0 m -2.66,0.207 v 3.777 c 0,1.221 0.599,2.107 1.98,2.107 1.394,0 1.992,-0.886 1.992,-2.107 V 0.207 c 0,-1.209 -0.598,-2.107 -1.992,-2.107 -1.381,0 -1.98,0.898 -1.98,2.107"
     style="fill:#ffffff;fill-opacity:1;fill-rule:nonzero;stroke:none"
     transform="matrix(1.3333333,0,0,-1.3333333,276.93573,479.86987)"
     clip-path="url(#clipPath737-8)" /><path
     id="path738"
     d="m 0,0 v -2.43 h 0.438 c 0.449,0 0.645,0.23 0.645,0.645 v 1.151 C 1.083,-0.208 0.887,0 0.438,0 Z M 0,-3.156 V -6.737 H -1.312 V 1.07 h 1.911 c 1.324,0 1.808,-0.656 1.808,-1.75 v -1.001 c 0,-0.841 -0.299,-1.336 -1.048,-1.509 L 2.614,-6.737 H 1.232 Z"
     style="fill:#ffffff;fill-opacity:1;fill-rule:nonzero;stroke:none"
     transform="matrix(1.3333333,0,0,-1.3333333,231.24947,488.58853)"
     clip-path="url(#clipPath739-4)" /><path
     id="path740"
     d="m 0,0 h 3.132 v -1.07 h -1.82 v -2.234 h 1.302 v -1.06 H 1.312 v -2.373 h 1.82 v -1.07 H 0 Z"
     style="fill:#ffffff;fill-opacity:1;fill-rule:nonzero;stroke:none"
     transform="matrix(1.3333333,0,0,-1.3333333,235.45587,487.16133)"
     clip-path="url(#clipPath741-5)" /><path
     id="path742"
     d="m 0,0 v 1.048 h 1.221 v -1.071 c 0,-0.437 0.195,-0.691 0.644,-0.691 0.415,0 0.599,0.277 0.599,0.691 v 0.299 c 0,0.449 -0.184,0.726 -0.587,1.106 L 1.105,2.153 C 0.357,2.89 0.012,3.339 0.012,4.238 v 0.264 c 0,0.967 0.563,1.716 1.841,1.716 1.313,0 1.831,-0.645 1.831,-1.773 V 3.811 H 2.487 v 0.68 C 2.487,4.94 2.28,5.158 1.865,5.158 1.497,5.158 1.243,4.951 1.243,4.514 V 4.352 c 0,-0.437 0.242,-0.69 0.622,-1.059 L 2.706,2.464 C 3.42,1.739 3.765,1.301 3.765,0.437 v -0.38 c 0,-1.07 -0.575,-1.83 -1.912,-1.83 C 0.518,-1.773 0,-1.025 0,0"
     style="fill:#ffffff;fill-opacity:1;fill-rule:nonzero;stroke:none"
     transform="matrix(1.3333333,0,0,-1.3333333,240.50653,495.32907)"
     clip-path="url(#clipPath743-2)" /><path
     id="path744"
     d="m 0,0 v -3.075 h 0.484 c 0.449,0 0.645,0.219 0.645,0.645 v 1.796 C 1.129,-0.208 0.933,0 0.484,0 Z m -1.312,1.07 h 1.945 c 1.325,0 1.808,-0.656 1.808,-1.75 v -1.646 c 0,-1.095 -0.483,-1.762 -1.808,-1.762 H 0 v -2.649 h -1.312 z"
     style="fill:#ffffff;fill-opacity:1;fill-rule:nonzero;stroke:none"
     transform="matrix(1.3333333,0,0,-1.3333333,248.22787,488.58853)"
     clip-path="url(#clipPath745-8)" /><path
     id="path746"
     d="m 0,0 v 4.192 c 0,0.472 -0.207,0.806 -0.68,0.806 -0.46,0 -0.667,-0.334 -0.667,-0.806 V 0 c 0,-0.472 0.207,-0.806 0.667,-0.806 C -0.207,-0.806 0,-0.472 0,0 m -2.66,0.208 v 3.776 c 0,1.221 0.599,2.108 1.98,2.108 1.394,0 1.992,-0.887 1.992,-2.108 V 0.208 c 0,-1.21 -0.598,-2.108 -1.992,-2.108 -1.381,0 -1.98,0.898 -1.98,2.108"
     style="fill:#ffffff;fill-opacity:1;fill-rule:nonzero;stroke:none"
     transform="matrix(1.3333333,0,0,-1.3333333,255.9812,495.1604)"
     clip-path="url(#clipPath747-2)" /><path
     id="path748"
     d="M 0,0 V -4.905 H -1.105 V 2.902 H 0.184 L 1.6,-1.577 V 2.902 H 2.694 V -4.905 H 1.543 Z"
     style="fill:#ffffff;fill-opacity:1;fill-rule:nonzero;stroke:none"
     transform="matrix(1.3333333,0,0,-1.3333333,260.24853,491.03067)"
     clip-path="url(#clipPath749-5)" /><path
     id="path750"
     d="m 0,0 v 1.048 h 1.221 v -1.071 c 0,-0.437 0.196,-0.691 0.645,-0.691 0.414,0 0.598,0.277 0.598,0.691 v 0.299 c 0,0.449 -0.184,0.726 -0.587,1.106 L 1.105,2.153 C 0.357,2.89 0.012,3.339 0.012,4.238 v 0.264 c 0,0.967 0.564,1.716 1.842,1.716 1.313,0 1.831,-0.645 1.831,-1.773 V 3.811 H 2.487 v 0.68 C 2.487,4.94 2.28,5.158 1.866,5.158 1.497,5.158 1.244,4.951 1.244,4.514 V 4.352 c 0,-0.437 0.242,-0.69 0.622,-1.059 L 2.706,2.464 C 3.42,1.739 3.765,1.301 3.765,0.437 v -0.38 c 0,-1.07 -0.575,-1.83 -1.911,-1.83 C 0.518,-1.773 0,-1.025 0,0"
     style="fill:#ffffff;fill-opacity:1;fill-rule:nonzero;stroke:none"
     transform="matrix(1.3333333,0,0,-1.3333333,264.792,495.32907)"
     clip-path="url(#clipPath751-4)" /><path
     id="path752"
     d="M 0,0 H 1.048 L 0.529,3.132 H 0.518 Z M 1.647,5.884 -0.415,5.62 v 0.736 l 2.062,0.438 z m -3.293,-8.36 1.474,7.807 H 1.325 L 2.81,-2.476 H 1.463 l -0.242,1.428 h -1.393 l -0.231,-1.428 z"
     style="fill:#ffffff;fill-opacity:1;fill-rule:nonzero;stroke:none"
     transform="matrix(1.3333333,0,0,-1.3333333,272.6828,494.26973)"
     clip-path="url(#clipPath753-0)" /><path
     id="path754"
     d="M 0,0 -1.486,-7.807 H -2.913 L -4.399,0 h 1.336 l 0.898,-5.447 h 0.012 L -1.232,0 Z"
     style="fill:#ffffff;fill-opacity:1;fill-rule:nonzero;stroke:none"
     transform="matrix(1.3333333,0,0,-1.3333333,282.79987,487.16133)"
     clip-path="url(#clipPath755-8)" /><path
     id="path756"
     d="m 0,0 h 3.132 v -1.07 h -1.82 v -2.234 h 1.302 v -1.06 H 1.312 v -2.373 h 1.82 v -1.07 H 0 Z"
     style="fill:#ffffff;fill-opacity:1;fill-rule:nonzero;stroke:none"
     transform="matrix(1.3333333,0,0,-1.3333333,283.56667,487.16133)"
     clip-path="url(#clipPath757-0)" /><path
     id="path758"
     d="m 216.532,476.519 h 1.312 v -7.807 h -1.312 z"
     style="fill:#ffffff;fill-opacity:1;fill-rule:nonzero;stroke:none"
     transform="matrix(1.3333333,0,0,-1.3333333,0,1122.52)"
     clip-path="url(#clipPath759-3)" /><path
     id="path760"
     d="m 0,0 v 1.048 h 1.221 v -1.071 c 0,-0.437 0.195,-0.691 0.645,-0.691 0.414,0 0.598,0.277 0.598,0.691 v 0.299 c 0,0.449 -0.184,0.726 -0.587,1.106 L 1.105,2.153 C 0.357,2.89 0.012,3.339 0.012,4.238 v 0.264 c 0,0.967 0.564,1.716 1.842,1.716 1.312,0 1.831,-0.645 1.831,-1.773 V 3.811 H 2.487 v 0.68 C 2.487,4.94 2.28,5.158 1.866,5.158 1.497,5.158 1.243,4.951 1.243,4.514 V 4.352 c 0,-0.437 0.243,-0.69 0.623,-1.059 L 2.706,2.464 C 3.42,1.739 3.766,1.301 3.766,0.437 v -0.38 c 0,-1.07 -0.576,-1.83 -1.912,-1.83 C 0.518,-1.773 0,-1.025 0,0"
     style="fill:#ffffff;fill-opacity:1;fill-rule:nonzero;stroke:none"
     transform="matrix(1.3333333,0,0,-1.3333333,291.41107,495.32907)"
     clip-path="url(#clipPath761-2)" /></g></svg>
