<?xml version="1.0" encoding="UTF-8" standalone="no"?>
<svg
   id="Layer_1"
   enable-background="new 0 0 512 512"
   height="512"
   viewBox="0 0 512 512"
   width="512"
   version="1.1"
   sodipodi:docname="13.svg"
   inkscape:version="1.4.2 (f4327f4, 2025-05-13)"
   xmlns:inkscape="http://www.inkscape.org/namespaces/inkscape"
   xmlns:sodipodi="http://sodipodi.sourceforge.net/DTD/sodipodi-0.dtd"
   xmlns="http://www.w3.org/2000/svg"
   xmlns:svg="http://www.w3.org/2000/svg">
  <defs
     id="defs17">
    <clipPath
       clipPathUnits="userSpaceOnUse"
       id="clipPath833-2">
      <path
         d="M 0,841.89 H 595.276 V 0 H 0 Z"
         id="path833-6" />
    </clipPath>
    <clipPath
       clipPathUnits="userSpaceOnUse"
       id="clipPath835-6">
      <path
         d="M 0,841.89 H 595.276 V 0 H 0 Z"
         transform="translate(-366.77481,-499.40521)"
         id="path835-3" />
    </clipPath>
    <clipPath
       clipPathUnits="userSpaceOnUse"
       id="clipPath837-9">
      <path
         d="M 0,841.89 H 595.276 V 0 H 0 Z"
         transform="translate(-370.69431,-485.80501)"
         id="path837-4" />
    </clipPath>
    <clipPath
       clipPathUnits="userSpaceOnUse"
       id="clipPath839-5">
      <path
         d="M 0,841.89 H 595.276 V 0 H 0 Z"
         transform="translate(-413.86011,-436.27681)"
         id="path839-6" />
    </clipPath>
    <clipPath
       clipPathUnits="userSpaceOnUse"
       id="clipPath841-2">
      <path
         d="M 0,841.89 H 595.276 V 0 H 0 Z"
         transform="translate(-376.43081,-467.88471)"
         id="path841-5" />
    </clipPath>
    <clipPath
       clipPathUnits="userSpaceOnUse"
       id="clipPath843-3">
      <path
         d="M 0,841.89 H 595.276 V 0 H 0 Z"
         transform="translate(-387.53051,-458.15191)"
         id="path843-5" />
    </clipPath>
    <clipPath
       clipPathUnits="userSpaceOnUse"
       id="clipPath845-6">
      <path
         d="M 0,841.89 H 595.276 V 0 H 0 Z"
         transform="translate(-389.00651,-499.44481)"
         id="path845-6" />
    </clipPath>
    <clipPath
       clipPathUnits="userSpaceOnUse"
       id="clipPath847-1">
      <path
         d="M 0,841.89 H 595.276 V 0 H 0 Z"
         id="path847-4" />
    </clipPath>
    <clipPath
       clipPathUnits="userSpaceOnUse"
       id="clipPath849-4">
      <path
         d="M 0,841.89 H 595.276 V 0 H 0 Z"
         transform="translate(-393.50841,-492.71031)"
         id="path849-6" />
    </clipPath>
    <clipPath
       clipPathUnits="userSpaceOnUse"
       id="clipPath851-2">
      <path
         d="M 0,841.89 H 595.276 V 0 H 0 Z"
         transform="translate(-397.76821,-494.11481)"
         id="path851-6" />
    </clipPath>
    <clipPath
       clipPathUnits="userSpaceOnUse"
       id="clipPath853-8">
      <path
         d="M 0,841.89 H 595.276 V 0 H 0 Z"
         transform="translate(-403.45581,-496.54421)"
         id="path853-2" />
    </clipPath>
    <clipPath
       clipPathUnits="userSpaceOnUse"
       id="clipPath855-5">
      <path
         d="M 0,841.89 H 595.276 V 0 H 0 Z"
         transform="translate(-408.34851,-494.11481)"
         id="path855-5" />
    </clipPath>
    <clipPath
       clipPathUnits="userSpaceOnUse"
       id="clipPath857-1">
      <path
         d="M 0,841.89 H 595.276 V 0 H 0 Z"
         transform="translate(-386.23231,-482.65921)"
         id="path857-0" />
    </clipPath>
    <clipPath
       clipPathUnits="userSpaceOnUse"
       id="clipPath859-1">
      <path
         d="M 0,841.89 H 595.276 V 0 H 0 Z"
         transform="translate(-391.04431,-484.35131)"
         id="path859-5" />
    </clipPath>
    <clipPath
       clipPathUnits="userSpaceOnUse"
       id="clipPath861-1">
      <path
         d="M 0,841.89 H 595.276 V 0 H 0 Z"
         transform="translate(-396.95051,-487.98911)"
         id="path861-7" />
    </clipPath>
    <clipPath
       clipPathUnits="userSpaceOnUse"
       id="clipPath863-6">
      <path
         d="M 0,841.89 H 595.276 V 0 H 0 Z"
         transform="translate(-398.62011,-482.65921)"
         id="path863-0" />
    </clipPath>
  </defs>
  <sodipodi:namedview
     id="namedview17"
     pagecolor="#505050"
     bordercolor="#eeeeee"
     borderopacity="1"
     inkscape:showpageshadow="0"
     inkscape:pageopacity="0"
     inkscape:pagecheckerboard="0"
     inkscape:deskcolor="#505050"
     inkscape:zoom="1.5097656"
     inkscape:cx="256"
     inkscape:cy="256"
     inkscape:window-width="1920"
     inkscape:window-height="991"
     inkscape:window-x="-9"
     inkscape:window-y="-9"
     inkscape:window-maximized="1"
     inkscape:current-layer="Layer_1" />
  <g
     id="g17"
     transform="matrix(4.0271572,0,0,4.0271572,-1903.4158,-1795.7217)">
    <g
       id="g16">
      <path
         id="path832"
         d="m 449.835,411.934 h -95.503 v 95.508 h 95.503 z"
         style="fill:#388dca;fill-opacity:1;fill-rule:nonzero;stroke:none"
         transform="matrix(1.3333333,0,0,-1.3333333,0,1122.52)"
         clip-path="url(#clipPath833-2)" />
      <path
         id="path834"
         d="m 0,0 v -19.248 h -3.237 v 14.734 h -0.029 l -2.27,-2.356 h -0.029 v 3.378 L -2.584,0 Z"
         style="fill:#ffffff;fill-opacity:1;fill-rule:nonzero;stroke:none"
         transform="matrix(1.3333333,0,0,-1.3333333,489.03307,456.6464)"
         clip-path="url(#clipPath835-6)" />
      <path
         id="path836"
         d="M 0,0 2.897,7.925 H 2.926 V 0 Z m 5.936,-5.652 v 3.124 H 7.242 V 0 H 5.936 V 13.605 H 2.756 L -2.84,-0.539 v -1.989 h 5.709 v -3.124 z"
         style="fill:#ffffff;fill-opacity:1;fill-rule:nonzero;stroke:none"
         transform="matrix(1.3333333,0,0,-1.3333333,494.25907,474.78)"
         clip-path="url(#clipPath837-9)" />
      <path
         id="path838"
         d="m 0,0 c -1.755,0 -3.177,1.424 -3.177,3.178 0,1.754 1.422,3.175 3.177,3.175 1.759,0 3.18,-1.421 3.18,-3.175 C 3.18,1.424 1.759,0 0,0 m 13.799,1.48 c -1.202,1.624 -8.966,11.522 -19.851,11.522 -9.452,0 -19.564,-8.572 -19.564,-8.572 0,0 -3.799,7.774 -11.568,8.52 -0.045,0 -0.094,0.011 -0.146,0.011 h -0.048 c -0.163,-0.009 -0.315,-0.167 -0.297,-0.308 0.022,-0.136 0.122,-0.283 0.122,-0.283 1.001,-1.663 3.557,-6.395 3.557,-11.12 0,-4.741 -2.571,-9.484 -3.563,-11.139 l -0.067,-0.105 c -0.029,-0.05 -0.049,-0.1 -0.049,-0.164 0,-0.164 0.127,-0.291 0.287,-0.306 l 0.084,0.007 c 0.026,0 0.053,0 0.081,0.008 7.795,0.726 11.607,8.523 11.607,8.523 0,0 10.112,-8.573 19.564,-8.573 10.885,0 18.649,9.899 19.851,11.519 0.032,0.044 0.059,0.083 0.083,0.111 0.014,0.039 0.026,0.073 0.026,0.119 0,0.043 -0.012,0.086 -0.026,0.118 -0.024,0.034 -0.051,0.072 -0.083,0.112"
         style="fill:#ffffff;fill-opacity:1;fill-rule:nonzero;stroke:none"
         transform="matrix(1.3333333,0,0,-1.3333333,551.81347,540.8176)"
         clip-path="url(#clipPath839-5)" />
      <path
         id="path840"
         d="m 0,0 c -0.024,0.006 -0.04,0.014 -0.06,0.014 -0.172,0 -0.312,-0.14 -0.312,-0.316 v -2.167 c 0,-0.09 0.035,-0.17 0.091,-0.224 5.254,-4.565 10.23,-0.288 11.381,0.843 0.024,0.035 0.048,0.068 0.082,0.088 0.052,0.033 0.108,0.056 0.172,0.056 0.081,0 0.158,-0.031 0.212,-0.082 0.004,-0.007 0.01,-0.011 0.015,-0.015 5.936,-5.664 12.158,-1.075 13.453,0 l 0.127,0.118 c 0.037,0.017 0.077,0.022 0.119,0.022 0.044,0 0.088,-0.005 0.124,-0.022 l 0.128,-0.118 c 1.294,-1.075 7.518,-5.664 13.453,0 0,0.004 0.008,0.008 0.01,0.015 0.056,0.051 0.129,0.082 0.212,0.082 0.064,0 0.123,-0.023 0.172,-0.056 0.036,-0.02 0.06,-0.053 0.087,-0.088 1.151,-1.131 6.121,-5.408 11.379,-0.843 0.055,0.054 0.091,0.134 0.091,0.224 v 2.167 c 0,0.176 -0.137,0.316 -0.308,0.316 C 50.605,0.014 50.584,0.006 50.56,0 50.511,-0.027 50.461,-0.053 50.403,-0.081 48.787,-0.891 43.775,-2.817 39.226,1.488 39.182,1.528 39.138,1.569 39.093,1.614 39.051,1.631 39.011,1.643 38.96,1.643 38.929,1.643 38.894,1.634 38.866,1.629 38.798,1.601 38.744,1.558 38.709,1.506 37.352,0.472 31.128,-3.742 25.586,1.429 l -0.082,0.079 c -0.057,0.051 -0.136,0.093 -0.224,0.093 -0.082,0 -0.163,-0.042 -0.217,-0.093 L 24.977,1.429 C 19.438,-3.742 13.207,0.472 11.853,1.506 11.818,1.558 11.766,1.601 11.699,1.629 11.667,1.634 11.635,1.643 11.6,1.643 11.557,1.643 11.512,1.631 11.469,1.614 11.429,1.569 11.381,1.528 11.337,1.488 6.787,-2.817 1.777,-0.891 0.16,-0.081 0.103,-0.053 0.049,-0.027 0,0"
         style="fill:#ffffff;fill-opacity:1;fill-rule:nonzero;stroke:none"
         transform="matrix(1.3333333,0,0,-1.3333333,501.90773,498.67373)"
         clip-path="url(#clipPath841-2)" />
      <path
         id="path842"
         d="m 0,0 c 0.025,0.036 0.048,0.061 0.083,0.086 0.051,0.032 0.107,0.059 0.172,0.059 0.08,0 0.158,-0.034 0.212,-0.088 0.003,-0.004 0.01,-0.009 0.014,-0.013 5.934,-5.655 12.159,-1.071 13.454,0 l 0.127,0.121 c 0.036,0.015 0.076,0.02 0.118,0.02 0.045,0 0.088,-0.005 0.125,-0.02 l 0.127,-0.121 c 1.294,-1.071 7.517,-5.655 13.453,0 10e-4,0.004 0.006,0.009 0.011,0.013 0.056,0.054 0.128,0.088 0.21,0.088 0.066,0 0.124,-0.027 0.172,-0.059 0.037,-0.025 0.062,-0.05 0.088,-0.086 1.149,-1.131 6.12,-5.411 11.38,-0.841 0.055,0.056 0.092,0.13 0.092,0.219 v 2.173 c 0,0.173 -0.14,0.311 -0.31,0.311 -0.023,0 -0.044,-0.009 -0.068,-0.013 C 39.412,1.825 39.36,1.797 39.303,1.77 37.688,0.96 32.674,-0.961 28.126,3.338 28.083,3.378 28.038,3.418 27.993,3.463 27.952,3.486 27.911,3.494 27.86,3.494 27.829,3.494 27.795,3.486 27.767,3.47 27.698,3.453 27.645,3.41 27.609,3.354 26.253,2.321 20.029,-1.893 14.486,3.277 l -0.081,0.081 c -0.058,0.056 -0.137,0.087 -0.225,0.087 -0.082,0 -0.162,-0.031 -0.217,-0.087 L 13.877,3.277 C 8.338,-1.893 2.107,2.321 0.754,3.354 0.718,3.41 0.665,3.453 0.6,3.47 0.568,3.486 0.534,3.494 0.5,3.494 0.456,3.494 0.413,3.486 0.371,3.463 0.328,3.418 0.282,3.378 0.236,3.338 -4.313,-0.961 -9.323,0.96 -10.94,1.77 c -0.056,0.027 -0.11,0.055 -0.159,0.079 -0.024,0.004 -0.04,0.013 -0.06,0.013 -0.173,0 -0.313,-0.138 -0.313,-0.311 v -2.173 c 0,-0.089 0.035,-0.163 0.09,-0.219 C -6.126,-5.411 -1.151,-1.131 0,0"
         style="fill:#ffffff;fill-opacity:1;fill-rule:nonzero;stroke:none"
         transform="matrix(1.3333333,0,0,-1.3333333,516.70733,511.6508)"
         clip-path="url(#clipPath843-3)" />
      <path
         id="path844"
         d="M 0,0 -1.485,-7.805 H -2.912 L -4.397,0 h 1.335 l 0.898,-5.445 h 0.011 L -1.232,0 Z"
         style="fill:#ffffff;fill-opacity:1;fill-rule:nonzero;stroke:none"
         transform="matrix(1.3333333,0,0,-1.3333333,518.67533,456.5936)"
         clip-path="url(#clipPath845-6)" />
      <path
         id="path846"
         d="m 389.56,499.445 h 1.312 v -7.805 h -1.312 z"
         style="fill:#ffffff;fill-opacity:1;fill-rule:nonzero;stroke:none"
         transform="matrix(1.3333333,0,0,-1.3333333,0,1122.52)"
         clip-path="url(#clipPath847-1)" />
      <path
         id="path848"
         d="M 0,0 C 0.541,0 0.748,0.323 0.748,0.795 V 4.881 C 0.748,5.342 0.541,5.664 0,5.664 H -0.553 V 0 Z M 2.061,4.64 V 1.025 c 0,-1.198 -0.496,-2.095 -1.9,-2.095 h -2.026 v 7.805 h 2.026 c 1.404,0 1.9,-0.887 1.9,-2.095"
         style="fill:#ffffff;fill-opacity:1;fill-rule:nonzero;stroke:none"
         transform="matrix(1.3333333,0,0,-1.3333333,524.67787,465.57293)"
         clip-path="url(#clipPath849-4)" />
      <path
         id="path850"
         d="M 0,0 H 1.048 L 0.529,3.132 H 0.518 Z M -1.646,-2.475 -0.173,5.33 H 1.324 L 2.809,-2.475 H 1.462 L 1.22,-1.048 h -1.393 l -0.23,-1.427 z"
         style="fill:#ffffff;fill-opacity:1;fill-rule:nonzero;stroke:none"
         transform="matrix(1.3333333,0,0,-1.3333333,530.3576,463.70027)"
         clip-path="url(#clipPath851-2)" />
      <path
         id="path852"
         d="M 0,0 V -4.904 H -1.105 V 2.901 H 0.184 L 1.6,-1.577 V 2.901 H 2.694 V -4.904 H 1.543 Z"
         style="fill:#ffffff;fill-opacity:1;fill-rule:nonzero;stroke:none"
         transform="matrix(1.3333333,0,0,-1.3333333,537.94107,460.46107)"
         clip-path="url(#clipPath853-8)" />
      <path
         id="path854"
         d="M 0,0 H 1.048 L 0.53,3.132 H 0.518 Z M -1.646,-2.475 -0.173,5.33 H 1.324 L 2.809,-2.475 H 1.462 L 1.22,-1.048 h -1.393 l -0.23,-1.427 z"
         style="fill:#ffffff;fill-opacity:1;fill-rule:nonzero;stroke:none"
         transform="matrix(1.3333333,0,0,-1.3333333,544.46467,463.70027)"
         clip-path="url(#clipPath855-5)" />
      <path
         id="path856"
         d="M 0,0 H 1.048 L 0.529,3.131 H 0.518 Z M 1.646,5.883 -0.415,5.618 V 6.355 L 1.646,6.793 Z M -1.646,-2.475 -0.173,5.33 H 1.324 L 2.809,-2.475 H 1.462 L 1.22,-1.048 h -1.393 l -0.23,-1.427 z"
         style="fill:#ffffff;fill-opacity:1;fill-rule:nonzero;stroke:none"
         transform="matrix(1.3333333,0,0,-1.3333333,514.9764,478.9744)"
         clip-path="url(#clipPath857-1)" />
      <path
         id="path858"
         d="M 0,0 H 1.865 V -4.167 H 0.921 v 0.852 C 0.748,-3.903 0.38,-4.259 -0.334,-4.259 c -1.128,0 -1.646,0.897 -1.646,2.106 v 3.776 c 0,1.22 0.587,2.107 1.968,2.107 1.451,0 1.877,-0.805 1.877,-1.957 V 1.082 H 0.668 v 0.795 c 0,0.483 -0.184,0.759 -0.656,0.759 -0.472,0 -0.679,-0.334 -0.679,-0.805 V -2.36 c 0,-0.472 0.195,-0.806 0.644,-0.806 0.426,0 0.645,0.242 0.645,0.748 v 1.382 H 0 Z"
         style="fill:#ffffff;fill-opacity:1;fill-rule:nonzero;stroke:none"
         transform="matrix(1.3333333,0,0,-1.3333333,521.3924,476.71827)"
         clip-path="url(#clipPath859-1)" />
      <path
         id="path860"
         d="m 0,0 v -5.906 c 0,-1.208 -0.518,-1.991 -1.853,-1.991 -1.382,0 -1.957,0.783 -1.957,1.991 V 0 h 1.312 v -6.032 c 0,-0.461 0.184,-0.771 0.645,-0.771 0.46,0 0.645,0.31 0.645,0.771 V 0 Z"
         style="fill:#ffffff;fill-opacity:1;fill-rule:nonzero;stroke:none"
         transform="matrix(1.3333333,0,0,-1.3333333,529.26733,471.86787)"
         clip-path="url(#clipPath861-1)" />
      <path
         id="path862"
         d="M 0,0 H 1.048 L 0.529,3.131 H 0.518 Z M -1.646,-2.475 -0.173,5.33 H 1.324 L 2.809,-2.475 H 1.462 L 1.22,-1.048 h -1.393 l -0.23,-1.427 z"
         style="fill:#ffffff;fill-opacity:1;fill-rule:nonzero;stroke:none"
         transform="matrix(1.3333333,0,0,-1.3333333,531.49347,478.9744)"
         clip-path="url(#clipPath863-6)" />
    </g>
  </g>
</svg>
