<?xml version="1.0" encoding="UTF-8" standalone="no"?>
<!-- Generator: Adobe Illustrator 19.0.0, SVG Export Plug-In . SVG Version: 6.00 Build 0)  -->

<svg
   version="1.1"
   id="Layer_1"
   x="0px"
   y="0px"
   viewBox="0 0 512 512"
   style="enable-background:new 0 0 512 512;"
   xml:space="preserve"
   width="512"
   height="512"
   sodipodi:docname="14.svg"
   inkscape:version="1.4.2 (f4327f4, 2025-05-13)"
   xmlns:inkscape="http://www.inkscape.org/namespaces/inkscape"
   xmlns:sodipodi="http://sodipodi.sourceforge.net/DTD/sodipodi-0.dtd"
   xmlns="http://www.w3.org/2000/svg"
   xmlns:svg="http://www.w3.org/2000/svg"><defs
   id="defs1"><clipPath
     clipPathUnits="userSpaceOnUse"
     id="clipPath865-0"><path
       d="M 0,841.89 H 595.276 V 0 H 0 Z"
       id="path865-2" /></clipPath><clipPath
     clipPathUnits="userSpaceOnUse"
     id="clipPath867-4"><path
       d="M 0,841.89 H 595.276 V 0 H 0 Z"
       transform="translate(-470.45311,-495.95321)"
       id="path867-3" /></clipPath><clipPath
     clipPathUnits="userSpaceOnUse"
     id="clipPath869-3"><path
       d="M 0,841.89 H 595.276 V 0 H 0 Z"
       transform="translate(-483.71611,-493.33951)"
       id="path869-6" /></clipPath><clipPath
     clipPathUnits="userSpaceOnUse"
     id="clipPath871-2"><path
       d="M 0,841.89 H 595.276 V 0 H 0 Z"
       transform="translate(-503.00851,-442.86651)"
       id="path871-8" /></clipPath><clipPath
     clipPathUnits="userSpaceOnUse"
     id="clipPath873-2"><path
       d="M 0,841.89 H 595.276 V 0 H 0 Z"
       transform="translate(-533.91382,-432.50381)"
       id="path873-3" /></clipPath><clipPath
     clipPathUnits="userSpaceOnUse"
     id="clipPath875-4"><path
       d="M 0,841.89 H 595.276 V 0 H 0 Z"
       transform="translate(-533.91382,-426.86991)"
       id="path875-3" /></clipPath><clipPath
     clipPathUnits="userSpaceOnUse"
     id="clipPath877-4"><path
       d="M 0,841.89 H 595.276 V 0 H 0 Z"
       transform="translate(-525.08891,-450.56491)"
       id="path877-3" /></clipPath><clipPath
     clipPathUnits="userSpaceOnUse"
     id="clipPath879-6"><path
       d="M 0,841.89 H 595.276 V 0 H 0 Z"
       transform="translate(-522.21121,-469.04881)"
       id="path879-8" /></clipPath><clipPath
     clipPathUnits="userSpaceOnUse"
     id="clipPath881-4"><path
       d="M 0,841.89 H 595.276 V 0 H 0 Z"
       transform="translate(-512.41171,-461.91401)"
       id="path881-7" /></clipPath><clipPath
     clipPathUnits="userSpaceOnUse"
     id="clipPath883-3"><path
       d="M 0,841.89 H 595.276 V 0 H 0 Z"
       transform="translate(-488.94251,-458.19081)"
       id="path883-9" /></clipPath><clipPath
     clipPathUnits="userSpaceOnUse"
     id="clipPath885-8"><path
       d="M 0,841.89 H 595.276 V 0 H 0 Z"
       transform="translate(-498.19581,-499.44551)"
       id="path885-0" /></clipPath><clipPath
     clipPathUnits="userSpaceOnUse"
     id="clipPath887-0"><path
       d="M 0,841.89 H 595.276 V 0 H 0 Z"
       id="path887-8" /></clipPath><clipPath
     clipPathUnits="userSpaceOnUse"
     id="clipPath889-8"><path
       d="M 0,841.89 H 595.276 V 0 H 0 Z"
       transform="translate(-502.90471,-492.71031)"
       id="path889-0" /></clipPath><clipPath
     clipPathUnits="userSpaceOnUse"
     id="clipPath891-5"><path
       d="M 0,841.89 H 595.276 V 0 H 0 Z"
       transform="translate(-507.26831,-494.11481)"
       id="path891-1" /></clipPath><clipPath
     clipPathUnits="userSpaceOnUse"
     id="clipPath893-4"><path
       d="M 0,841.89 H 595.276 V 0 H 0 Z"
       transform="translate(-493.83251,-487.97751)"
       id="path893-3" /></clipPath><clipPath
     clipPathUnits="userSpaceOnUse"
     id="clipPath895-6"><path
       d="M 0,841.89 H 595.276 V 0 H 0 Z"
       transform="translate(-497.90821,-487.97751)"
       id="path895-3" /></clipPath><clipPath
     clipPathUnits="userSpaceOnUse"
     id="clipPath897-9"><path
       d="M 0,841.89 H 595.276 V 0 H 0 Z"
       transform="translate(-503.03141,-486.90771)"
       id="path897-2" /></clipPath><clipPath
     clipPathUnits="userSpaceOnUse"
     id="clipPath899-1"><path
       d="M 0,841.89 H 595.276 V 0 H 0 Z"
       transform="translate(-507.42952,-486.90771)"
       id="path899-9" /></clipPath><clipPath
     clipPathUnits="userSpaceOnUse"
     id="clipPath901-8"><path
       d="M 0,841.89 H 595.276 V 0 H 0 Z"
       transform="translate(-510.52661,-487.97751)"
       id="path901-2" /></clipPath><clipPath
     clipPathUnits="userSpaceOnUse"
     id="clipPath903-3"><path
       d="M 0,841.89 H 595.276 V 0 H 0 Z"
       transform="translate(-514.26821,-481.85301)"
       id="path903-4" /></clipPath><clipPath
     clipPathUnits="userSpaceOnUse"
     id="clipPath905-0"><path
       d="M 0,841.89 H 595.276 V 0 H 0 Z"
       transform="translate(-518.53991,-487.97751)"
       id="path905-2" /></clipPath><clipPath
     clipPathUnits="userSpaceOnUse"
     id="clipPath907-3"><path
       d="M 0,841.89 H 595.276 V 0 H 0 Z"
       transform="translate(-523.92791,-486.90771)"
       id="path907-1" /></clipPath><clipPath
     clipPathUnits="userSpaceOnUse"
     id="clipPath909-9"><path
       d="M 0,841.89 H 595.276 V 0 H 0 Z"
       transform="translate(-527.01331,-487.97751)"
       id="path909-8" /></clipPath></defs><sodipodi:namedview
   id="namedview1"
   pagecolor="#505050"
   bordercolor="#eeeeee"
   borderopacity="1"
   inkscape:showpageshadow="0"
   inkscape:pageopacity="0"
   inkscape:pagecheckerboard="0"
   inkscape:deskcolor="#505050"
   inkscape:zoom="1.0675655"
   inkscape:cx="289.91195"
   inkscape:cy="298.34235"
   inkscape:window-width="1920"
   inkscape:window-height="991"
   inkscape:window-x="-9"
   inkscape:window-y="-9"
   inkscape:window-maximized="1"
   inkscape:current-layer="Layer_1" />
















<g
   id="g18"
   transform="matrix(4.0011462,0,0,4.0011462,-2472.1133,-1783.2377)"><path
     id="path864"
     d="M 558.964,411.934 H 463.46 v 95.508 h 95.504 z"
     style="fill:#4cbd4a;fill-opacity:1;fill-rule:nonzero;stroke:none"
     transform="matrix(1.3333333,0,0,-1.3333333,0,1122.52)"
     clip-path="url(#clipPath865-0)" /><path
     id="path866"
     d="m 0,0 v -3.38 h 0.028 l 2.271,2.357 h 0.03 v -14.74 H 5.566 V 3.494 H 2.981 Z"
     style="fill:#ffffff;fill-opacity:1;fill-rule:nonzero;stroke:none"
     transform="matrix(1.3333333,0,0,-1.3333333,627.2708,461.24907)"
     clip-path="url(#clipPath867-4)" /><path
     id="path868"
     d="m 0,0 c -1.277,0 -2.214,-0.453 -2.727,-1.334 h -0.029 v 4.8 h 5.567 v 2.64 H -5.708 V -4.743 h 2.952 v 0.428 c 0,1.134 0.512,1.759 1.42,1.759 0.995,0 1.394,-0.681 1.394,-1.733 v -4.657 c 0,-1.022 -0.37,-1.732 -1.365,-1.732 -1.106,0 -1.503,0.738 -1.503,1.874 v 2.414 h -2.956 v -2.188 c 0,-2.925 1.165,-4.799 4.459,-4.799 3.267,0 4.601,1.733 4.601,4.403 V -4.26 C 3.294,-1.221 1.733,0 0,0"
     style="fill:#ffffff;fill-opacity:1;fill-rule:nonzero;stroke:none"
     transform="matrix(1.3333333,0,0,-1.3333333,644.9548,464.734)"
     clip-path="url(#clipPath869-3)" /><path
     id="path870"
     d="M 0,0 C 0.116,0 0.21,-0.094 0.21,-0.211 V -7.165 C 0.21,-7.283 0.116,-7.377 0,-7.377 h -2.814 c -0.118,0 -0.212,0.094 -0.212,0.212 v 6.954 c 0,0.117 0.094,0.211 0.212,0.211 z"
     style="fill:#ffffff;fill-opacity:1;fill-rule:nonzero;stroke:none"
     transform="matrix(1.3333333,0,0,-1.3333333,670.678,532.03133)"
     clip-path="url(#clipPath871-2)" /><path
     id="path872"
     d="m 0,0 h -46.377 c -0.116,0 -0.212,-0.1 -0.212,-0.218 v -2.834 c 0,-0.116 0.096,-0.209 0.212,-0.209 H 0 c 0.114,0 0.212,0.093 0.212,0.209 v 2.834 C 0.212,-0.1 0.114,0 0,0"
     style="fill:#ffffff;fill-opacity:1;fill-rule:nonzero;stroke:none"
     transform="matrix(1.3333333,0,0,-1.3333333,711.88507,545.84827)"
     clip-path="url(#clipPath873-2)" /><path
     id="path874"
     d="m 0,0 h -46.377 c -0.116,0 -0.212,-0.093 -0.212,-0.209 v -2.843 c 0,-0.114 0.096,-0.209 0.212,-0.209 H 0 c 0.114,0 0.212,0.095 0.212,0.209 v 2.843 C 0.212,-0.094 0.114,0 0,0"
     style="fill:#ffffff;fill-opacity:1;fill-rule:nonzero;stroke:none"
     transform="matrix(1.3333333,0,0,-1.3333333,711.88507,553.36013)"
     clip-path="url(#clipPath875-4)" /><path
     id="path876"
     d="m 0,0 c -0.58,0.454 -2.126,1.512 -4.011,1.512 -1.349,0 -2.603,-0.531 -3.725,-1.583 -0.08,-0.076 -0.124,-0.18 -0.124,-0.291 v -0.253 c 0,-0.124 0.041,-0.241 0.133,-0.317 0.099,-0.076 0.205,-0.105 0.325,-0.076 0.028,0.004 0.061,0.013 0.088,0.022 0.085,0.03 0.167,0.082 0.231,0.147 0.245,0.164 0.909,0.387 1.858,0.387 0.983,0 2.913,-0.263 4.779,-2.003 l 0.042,-0.039 c 0.106,-0.107 0.251,-0.167 0.404,-0.167 0.146,0 0.298,0.061 0.393,0.165 l 0.038,0.039 c 1.875,1.742 3.802,2.005 4.784,2.005 0.957,0 1.619,-0.223 1.863,-0.387 0.067,-0.065 0.148,-0.118 0.256,-0.156 0.041,-0.013 0.159,-0.037 0.272,-0.009 0.171,0.048 0.292,0.203 0.292,0.382 v 0.224 c 0,0.106 -0.047,0.213 -0.124,0.287 C 6.64,0.968 5.373,1.514 4.004,1.514 2.135,1.514 0.596,0.472 0,0"
     style="fill:#ffffff;fill-opacity:1;fill-rule:nonzero;stroke:none"
     transform="matrix(1.3333333,0,0,-1.3333333,700.11853,521.7668)"
     clip-path="url(#clipPath877-4)" /><path
     id="path878"
     d="m 0,0 c -0.099,-0.045 -0.17,-0.136 -0.203,-0.244 l -0.046,-0.155 c -0.035,-0.122 -0.012,-0.25 0.06,-0.348 0.072,-0.095 0.174,-0.151 0.287,-0.156 0.022,-0.003 0.043,-0.008 0.059,-0.003 0.08,0.003 0.153,0.02 0.223,0.058 0.042,0.008 0.127,0.03 0.282,0.03 0.207,0 2.077,-0.062 3.313,-2.163 l 0.016,-0.03 c 0.067,-0.122 0.172,-0.206 0.297,-0.238 0.035,-0.012 0.104,-0.023 0.147,-0.023 0.086,0 0.173,0.023 0.234,0.058 L 4.7,-3.2 c 0.676,0.339 1.377,0.513 2.068,0.513 1.172,0 1.937,-0.479 2.115,-0.678 0.036,-0.067 0.093,-0.126 0.155,-0.172 0.04,-0.024 0.11,-0.058 0.151,-0.073 0.022,-0.005 0.046,-0.008 0.069,-0.009 0.012,-0.004 0.028,-0.004 0.041,-0.004 0.064,0 0.124,0.017 0.184,0.047 0.095,0.048 0.166,0.134 0.197,0.237 l 0.039,0.137 c 0.012,0.035 0.016,0.073 0.016,0.114 0,0.071 -0.018,0.142 -0.054,0.198 -0.9,1.565 -2.207,1.891 -3.145,1.891 -0.699,0 -1.309,-0.181 -1.67,-0.313 C 4.441,-0.741 3.367,0.44 1.739,0.44 1.166,0.44 0.582,0.293 0,0"
     style="fill:#ffffff;fill-opacity:1;fill-rule:nonzero;stroke:none"
     transform="matrix(1.3333333,0,0,-1.3333333,696.2816,497.1216)"
     clip-path="url(#clipPath879-6)" /><path
     id="path880"
     d="m 0,0 0.013,-0.209 c 0.006,-0.13 0.074,-0.243 0.185,-0.312 0.092,-0.058 0.209,-0.078 0.312,-0.047 0.022,0.004 0.048,0.013 0.069,0.02 0.079,0.034 0.147,0.085 0.199,0.149 0.197,0.141 0.833,0.402 1.769,0.402 0.901,0 2.271,-0.241 3.667,-1.387 l 0.033,-0.034 c 0.099,-0.086 0.227,-0.134 0.358,-0.134 h 0.034 c 0.146,0.011 0.281,0.078 0.364,0.174 l 0.031,0.035 c 1.546,1.635 3.211,1.879 4.065,1.879 0.61,0 1.042,-0.125 1.21,-0.22 0.064,-0.056 0.142,-0.099 0.24,-0.126 0.028,-0.006 0.096,-0.019 0.171,-0.011 0.03,0.003 0.068,0.014 0.097,0.023 0.166,0.058 0.275,0.22 0.263,0.399 L 13.07,0.782 C 13.062,0.891 13.012,0.988 12.93,1.058 12.007,1.834 11.012,2.226 9.964,2.226 8.332,2.226 7.032,1.262 6.491,0.79 5.999,1.125 4.802,1.817 3.398,1.817 2.163,1.817 1.058,1.304 0.108,0.296 0.033,0.217 -0.005,0.109 0,0"
     style="fill:#ffffff;fill-opacity:1;fill-rule:nonzero;stroke:none"
     transform="matrix(1.3333333,0,0,-1.3333333,683.2156,506.63467)"
     clip-path="url(#clipPath881-4)" /><path
     id="path882"
     d="m 0,0 c 0,2.777 2.252,5.028 5.028,5.028 0.109,0 0.215,-0.01 0.322,-0.016 0.265,3.514 3.193,6.287 6.777,6.287 3.757,0 6.803,-3.047 6.803,-6.804 0,-1.064 -0.252,-2.066 -0.689,-2.964 3.406,-0.754 5.954,-3.787 5.954,-7.416 0,-4.198 -3.403,-7.603 -7.602,-7.603 -0.307,0 -10.145,0.059 -10.145,0.059 -2.975,10e-4 -5.384,2.41 -5.384,5.383 0,1.428 0.56,2.722 1.468,3.685 C 1.021,-3.494 0,-1.868 0,0"
     style="fill:#ffffff;fill-opacity:1;fill-rule:nonzero;stroke:none"
     transform="matrix(1.3333333,0,0,-1.3333333,651.92333,511.59893)"
     clip-path="url(#clipPath883-3)" /><path
     id="path884"
     d="M 0,0 -1.485,-7.806 H -2.913 L -4.398,0 h 1.336 l 0.898,-5.445 h 0.011 L -1.232,0 Z"
     style="fill:#ffffff;fill-opacity:1;fill-rule:nonzero;stroke:none"
     transform="matrix(1.3333333,0,0,-1.3333333,664.26107,456.59267)"
     clip-path="url(#clipPath885-8)" /><path
     id="path886"
     d="m 498.852,499.445 h 1.312 v -7.806 h -1.312 z"
     style="fill:#ffffff;fill-opacity:1;fill-rule:nonzero;stroke:none"
     transform="matrix(1.3333333,0,0,-1.3333333,0,1122.52)"
     clip-path="url(#clipPath887-0)" /><path
     id="path888"
     d="M 0,0 C 0.541,0 0.748,0.323 0.748,0.795 V 4.882 C 0.748,5.342 0.541,5.665 0,5.665 H -0.553 V 0 Z M 2.061,4.64 V 1.025 c 0,-1.197 -0.495,-2.095 -1.9,-2.095 h -2.026 v 7.805 h 2.026 c 1.405,0 1.9,-0.887 1.9,-2.095"
     style="fill:#ffffff;fill-opacity:1;fill-rule:nonzero;stroke:none"
     transform="matrix(1.3333333,0,0,-1.3333333,670.5396,465.57293)"
     clip-path="url(#clipPath889-8)" /><path
     id="path890"
     d="M 0,0 H 1.048 L 0.529,3.132 H 0.518 Z m -1.646,-2.475 1.473,7.806 H 1.324 L 2.809,-2.475 H 1.462 L 1.22,-1.047 h -1.393 l -0.23,-1.428 z"
     style="fill:#ffffff;fill-opacity:1;fill-rule:nonzero;stroke:none"
     transform="matrix(1.3333333,0,0,-1.3333333,676.35773,463.70027)"
     clip-path="url(#clipPath891-5)" /><path
     id="path892"
     d="M 0,0 H 3.488 V -1.07 H 2.406 V -7.805 H 1.082 V -1.07 H 0 Z"
     style="fill:#ffffff;fill-opacity:1;fill-rule:nonzero;stroke:none"
     transform="matrix(1.3333333,0,0,-1.3333333,658.44333,471.88333)"
     clip-path="url(#clipPath893-4)" /><path
     id="path894"
     d="M 0,0 H 3.132 V -1.07 H 1.312 V -3.304 H 2.613 V -4.363 H 1.312 v -2.372 h 1.82 v -1.07 H 0 Z"
     style="fill:#ffffff;fill-opacity:1;fill-rule:nonzero;stroke:none"
     transform="matrix(1.3333333,0,0,-1.3333333,663.8776,471.88333)"
     clip-path="url(#clipPath895-6)" /><path
     id="path896"
     d="m 0,0 v -2.429 h 0.437 c 0.449,0 0.645,0.23 0.645,0.645 v 1.151 C 1.082,-0.208 0.886,0 0.437,0 Z m 0,-3.155 v -3.58 H -1.312 V 1.07 h 1.91 c 1.324,0 1.808,-0.656 1.808,-1.75 v -1.001 c 0,-0.841 -0.3,-1.336 -1.048,-1.509 L 2.613,-6.735 H 1.232 Z"
     style="fill:#ffffff;fill-opacity:1;fill-rule:nonzero;stroke:none"
     transform="matrix(1.3333333,0,0,-1.3333333,670.70853,473.30973)"
     clip-path="url(#clipPath897-9)" /><path
     id="path898"
     d="m 0,0 v -2.429 h 0.437 c 0.449,0 0.645,0.23 0.645,0.645 v 1.151 C 1.082,-0.208 0.886,0 0.437,0 Z m 0,-3.155 v -3.58 H -1.313 V 1.07 h 1.911 c 1.324,0 1.808,-0.656 1.808,-1.75 v -1.001 c 0,-0.841 -0.299,-1.336 -1.048,-1.509 L 2.613,-6.735 H 1.232 Z"
     style="fill:#ffffff;fill-opacity:1;fill-rule:nonzero;stroke:none"
     transform="matrix(1.3333333,0,0,-1.3333333,676.57267,473.30973)"
     clip-path="url(#clipPath899-1)" /><path
     id="path900"
     d="M 0,0 H 3.131 V -1.07 H 1.312 V -3.304 H 2.613 V -4.363 H 1.312 v -2.372 h 1.819 v -1.07 H 0 Z"
     style="fill:#ffffff;fill-opacity:1;fill-rule:nonzero;stroke:none"
     transform="matrix(1.3333333,0,0,-1.3333333,680.70213,471.88333)"
     clip-path="url(#clipPath901-8)" /><path
     id="path902"
     d="m 0,0 v 1.048 h 1.22 v -1.071 c 0,-0.437 0.196,-0.69 0.645,-0.69 0.415,0 0.599,0.276 0.599,0.69 v 0.3 c 0,0.448 -0.184,0.725 -0.587,1.105 L 1.105,2.153 C 0.357,2.89 0.012,3.339 0.012,4.237 v 0.265 c 0,0.967 0.564,1.715 1.841,1.715 1.313,0 1.831,-0.645 1.831,-1.773 V 3.811 H 2.487 V 4.49 C 2.487,4.939 2.28,5.158 1.865,5.158 1.496,5.158 1.243,4.951 1.243,4.514 V 4.352 c 0,-0.438 0.242,-0.691 0.622,-1.059 L 2.706,2.464 C 3.419,1.739 3.765,1.301 3.765,0.438 V 0.058 C 3.765,-1.013 3.189,-1.773 1.853,-1.773 0.518,-1.773 0,-1.024 0,0"
     style="fill:#ffffff;fill-opacity:1;fill-rule:nonzero;stroke:none"
     transform="matrix(1.3333333,0,0,-1.3333333,685.69093,480.04933)"
     clip-path="url(#clipPath903-3)" /><path
     id="path904"
     d="M 0,0 H 3.488 V -1.07 H 2.406 V -7.805 H 1.082 V -1.07 H 0 Z"
     style="fill:#ffffff;fill-opacity:1;fill-rule:nonzero;stroke:none"
     transform="matrix(1.3333333,0,0,-1.3333333,691.38653,471.88333)"
     clip-path="url(#clipPath905-0)" /><path
     id="path906"
     d="m 0,0 v -2.429 h 0.437 c 0.449,0 0.645,0.23 0.645,0.645 v 1.151 C 1.082,-0.208 0.886,0 0.437,0 Z m 0,-3.155 v -3.58 H -1.313 V 1.07 h 1.911 c 1.324,0 1.808,-0.656 1.808,-1.75 v -1.001 c 0,-0.841 -0.3,-1.336 -1.048,-1.509 L 2.613,-6.735 H 1.231 Z"
     style="fill:#ffffff;fill-opacity:1;fill-rule:nonzero;stroke:none"
     transform="matrix(1.3333333,0,0,-1.3333333,698.57053,473.30973)"
     clip-path="url(#clipPath907-3)" /><path
     id="path908"
     d="M 0,0 H 3.132 V -1.07 H 1.313 v -2.234 h 1.3 v -1.059 h -1.3 v -2.372 h 1.819 v -1.07 H 0 Z"
     style="fill:#ffffff;fill-opacity:1;fill-rule:nonzero;stroke:none"
     transform="matrix(1.3333333,0,0,-1.3333333,702.6844,471.88333)"
     clip-path="url(#clipPath909-9)" /></g></svg>
