<?xml version="1.0" encoding="UTF-8" standalone="no"?>
<!-- Generator: Adobe Illustrator 19.0.0, SVG Export Plug-In . SVG Version: 6.00 Build 0)  -->

<svg
   version="1.1"
   id="Layer_1"
   x="0px"
   y="0px"
   viewBox="0 0 512 512"
   style="enable-background:new 0 0 512 512;"
   xml:space="preserve"
   width="512"
   height="512"
   sodipodi:docname="15.svg"
   inkscape:version="1.4.2 (f4327f4, 2025-05-13)"
   xmlns:inkscape="http://www.inkscape.org/namespaces/inkscape"
   xmlns:sodipodi="http://sodipodi.sourceforge.net/DTD/sodipodi-0.dtd"
   xmlns="http://www.w3.org/2000/svg"
   xmlns:svg="http://www.w3.org/2000/svg"><defs
   id="defs1"><clipPath
     clipPathUnits="userSpaceOnUse"
     id="clipPath911-9"><path
       d="M 0,841.89 H 595.276 V 0 H 0 Z"
       id="path911-8" /></clipPath><clipPath
     clipPathUnits="userSpaceOnUse"
     id="clipPath913-9"><path
       d="M 0,841.89 H 595.276 V 0 H 0 Z"
       transform="translate(-41.631001,-390.28651)"
       id="path913-1" /></clipPath><clipPath
     clipPathUnits="userSpaceOnUse"
     id="clipPath915-3"><path
       d="M 0,841.89 H 595.276 V 0 H 0 Z"
       transform="translate(-55.322002,-378.86831)"
       id="path915-5" /></clipPath><clipPath
     clipPathUnits="userSpaceOnUse"
     id="clipPath917-1"><path
       d="M 0,841.89 H 595.276 V 0 H 0 Z"
       transform="translate(-100.6698,-368.70651)"
       id="path917-4" /></clipPath><clipPath
     clipPathUnits="userSpaceOnUse"
     id="clipPath919-2"><path
       d="M 0,841.89 H 595.276 V 0 H 0 Z"
       transform="translate(-98.893705,-360.44101)"
       id="path919-5" /></clipPath><clipPath
     clipPathUnits="userSpaceOnUse"
     id="clipPath921-3"><path
       d="M 0,841.89 H 595.276 V 0 H 0 Z"
       transform="translate(-103.8576,-362.44411)"
       id="path921-8" /></clipPath><clipPath
     clipPathUnits="userSpaceOnUse"
     id="clipPath923-9"><path
       d="M 0,841.89 H 595.276 V 0 H 0 Z"
       transform="translate(-105.7615,-368.70651)"
       id="path923-2" /></clipPath><clipPath
     clipPathUnits="userSpaceOnUse"
     id="clipPath925-8"><path
       d="M 0,841.89 H 595.276 V 0 H 0 Z"
       transform="translate(-103.3855,-358.09791)"
       id="path925-7" /></clipPath><clipPath
     clipPathUnits="userSpaceOnUse"
     id="clipPath927-0"><path
       d="M 0,841.89 H 595.276 V 0 H 0 Z"
       transform="translate(-104.0725,-335.00061)"
       id="path927-1" /></clipPath><clipPath
     clipPathUnits="userSpaceOnUse"
     id="clipPath929-4"><path
       d="M 0,841.89 H 595.276 V 0 H 0 Z"
       transform="translate(-104.0725,-319.77891)"
       id="path929-8" /></clipPath><clipPath
     clipPathUnits="userSpaceOnUse"
     id="clipPath931-1"><path
       d="M 0,841.89 H 595.276 V 0 H 0 Z"
       transform="translate(-60.221501,-338.56811)"
       id="path931-9" /></clipPath><clipPath
     clipPathUnits="userSpaceOnUse"
     id="clipPath933-3"><path
       d="M 0,841.89 H 595.276 V 0 H 0 Z"
       transform="translate(-75.992304,-332.37841)"
       id="path933-5" /></clipPath><clipPath
     clipPathUnits="userSpaceOnUse"
     id="clipPath935-9"><path
       d="M 0,841.89 H 595.276 V 0 H 0 Z"
       transform="translate(-58.271501,-324.82311)"
       id="path935-7" /></clipPath><clipPath
     clipPathUnits="userSpaceOnUse"
     id="clipPath937-9"><path
       d="M 0,841.89 H 595.276 V 0 H 0 Z"
       transform="translate(-66.088402,-394.50421)"
       id="path937-8" /></clipPath><clipPath
     clipPathUnits="userSpaceOnUse"
     id="clipPath939-0"><path
       d="M 0,841.89 H 595.276 V 0 H 0 Z"
       transform="translate(-70.521302,-390.24481)"
       id="path939-1" /></clipPath><clipPath
     clipPathUnits="userSpaceOnUse"
     id="clipPath941-4"><path
       d="M 0,841.89 H 595.276 V 0 H 0 Z"
       transform="translate(-75.034202,-388.84021)"
       id="path941-7" /></clipPath><clipPath
     clipPathUnits="userSpaceOnUse"
     id="clipPath943-5"><path
       d="M 0,841.89 H 595.276 V 0 H 0 Z"
       transform="translate(-79.018299,-388.92091)"
       id="path943-5" /></clipPath><clipPath
     clipPathUnits="userSpaceOnUse"
     id="clipPath945-5"><path
       d="M 0,841.89 H 595.276 V 0 H 0 Z"
       transform="translate(-84.221905,-395.57541)"
       id="path945-0" /></clipPath><clipPath
     clipPathUnits="userSpaceOnUse"
     id="clipPath947-9"><path
       d="M 0,841.89 H 595.276 V 0 H 0 Z"
       transform="translate(-88.654105,-395.57541)"
       id="path947-2" /></clipPath><clipPath
     clipPathUnits="userSpaceOnUse"
     id="clipPath949-8"><path
       d="M 0,841.89 H 595.276 V 0 H 0 Z"
       transform="translate(-89.2075,-389.45031)"
       id="path949-2" /></clipPath><clipPath
     clipPathUnits="userSpaceOnUse"
     id="clipPath951-4"><path
       d="M 0,841.89 H 595.276 V 0 H 0 Z"
       transform="translate(-93.398605,-395.57541)"
       id="path951-5" /></clipPath><clipPath
     clipPathUnits="userSpaceOnUse"
     id="clipPath953-0"><path
       d="M 0,841.89 H 595.276 V 0 H 0 Z"
       id="path953-4" /></clipPath><clipPath
     clipPathUnits="userSpaceOnUse"
     id="clipPath955-4"><path
       d="M 0,841.89 H 595.276 V 0 H 0 Z"
       transform="translate(-100.7206,-386.97531)"
       id="path955-0" /></clipPath><clipPath
     clipPathUnits="userSpaceOnUse"
     id="clipPath957-5"><path
       d="M 0,841.89 H 595.276 V 0 H 0 Z"
       transform="translate(-105.1761,-390.24481)"
       id="path957-1" /></clipPath><clipPath
     clipPathUnits="userSpaceOnUse"
     id="clipPath959-1"><path
       d="M 0,841.89 H 595.276 V 0 H 0 Z"
       transform="translate(-109.5051,-395.57541)"
       id="path959-5" /></clipPath><clipPath
     clipPathUnits="userSpaceOnUse"
     id="clipPath961-9"><path
       d="M 0,841.89 H 595.276 V 0 H 0 Z"
       id="path961-0" /></clipPath><clipPath
     clipPathUnits="userSpaceOnUse"
     id="clipPath963-8"><path
       d="M 0,841.89 H 595.276 V 0 H 0 Z"
       transform="translate(-68.103701,-382.41521)"
       id="path963-3" /></clipPath><clipPath
     clipPathUnits="userSpaceOnUse"
     id="clipPath965-8"><path
       d="M 0,841.89 H 595.276 V 0 H 0 Z"
       transform="translate(-71.580202,-379.19211)"
       id="path965-7" /></clipPath><clipPath
     clipPathUnits="userSpaceOnUse"
     id="clipPath967-2"><path
       d="M 0,841.89 H 595.276 V 0 H 0 Z"
       transform="translate(-75.989904,-385.31591)"
       id="path967-6" /></clipPath><clipPath
     clipPathUnits="userSpaceOnUse"
     id="clipPath969-9"><path
       d="M 0,841.89 H 595.276 V 0 H 0 Z"
       id="path969-3" /></clipPath><clipPath
     clipPathUnits="userSpaceOnUse"
     id="clipPath971-8"><path
       d="M 0,841.89 H 595.276 V 0 H 0 Z"
       transform="translate(-82.218902,-385.31591)"
       id="path971-1" /></clipPath><clipPath
     clipPathUnits="userSpaceOnUse"
     id="clipPath973-0"><path
       d="M 0,841.89 H 595.276 V 0 H 0 Z"
       transform="translate(-90.231505,-385.31591)"
       id="path973-3" /></clipPath><clipPath
     clipPathUnits="userSpaceOnUse"
     id="clipPath975-3"><path
       d="M 0,841.89 H 595.276 V 0 H 0 Z"
       id="path975-8" /></clipPath><clipPath
     clipPathUnits="userSpaceOnUse"
     id="clipPath977-4"><path
       d="M 0,841.89 H 595.276 V 0 H 0 Z"
       transform="translate(-94.6303,-376.71641)"
       id="path977-8" /></clipPath><clipPath
     clipPathUnits="userSpaceOnUse"
     id="clipPath979-0"><path
       d="M 0,841.89 H 595.276 V 0 H 0 Z"
       transform="translate(-100.52451,-379.31851)"
       id="path979-1" /></clipPath><clipPath
     clipPathUnits="userSpaceOnUse"
     id="clipPath981-5"><path
       d="M 0,841.89 H 595.276 V 0 H 0 Z"
       transform="translate(-102.6894,-385.31591)"
       id="path981-4" /></clipPath><clipPath
     clipPathUnits="userSpaceOnUse"
     id="clipPath983-1"><path
       d="M 0,841.89 H 595.276 V 0 H 0 Z"
       transform="translate(-106.5574,-379.19211)"
       id="path983-3" /></clipPath><clipPath
     clipPathUnits="userSpaceOnUse"
     id="clipPath985-7"><path
       d="M 0,841.89 H 595.276 V 0 H 0 Z"
       transform="translate(-64.822502,-374.63211)"
       id="path985-3" /></clipPath><clipPath
     clipPathUnits="userSpaceOnUse"
     id="clipPath987-5"><path
       d="M 0,841.89 H 595.276 V 0 H 0 Z"
       transform="translate(-68.748502,-374.63211)"
       id="path987-8" /></clipPath><clipPath
     clipPathUnits="userSpaceOnUse"
     id="clipPath989-5"><path
       d="M 0,841.89 H 595.276 V 0 H 0 Z"
       id="path989-6" /></clipPath><clipPath
     clipPathUnits="userSpaceOnUse"
     id="clipPath991-9"><path
       d="M 0,841.89 H 595.276 V 0 H 0 Z"
       transform="translate(-74.677602,-368.84111)"
       id="path991-0" /></clipPath><clipPath
     clipPathUnits="userSpaceOnUse"
     id="clipPath993-8"><path
       d="M 0,841.89 H 595.276 V 0 H 0 Z"
       transform="translate(-80.744702,-369.30161)"
       id="path993-9" /></clipPath><clipPath
     clipPathUnits="userSpaceOnUse"
     id="clipPath995-3"><path
       d="M 0,841.89 H 595.276 V 0 H 0 Z"
       transform="translate(-85.476805,-367.89691)"
       id="path995-6" /></clipPath><clipPath
     clipPathUnits="userSpaceOnUse"
     id="clipPath997-0"><path
       d="M 0,841.89 H 595.276 V 0 H 0 Z"
       transform="translate(-88.332302,-374.63211)"
       id="path997-6" /></clipPath><clipPath
     clipPathUnits="userSpaceOnUse"
     id="clipPath999-9"><path
       d="M 0,841.89 H 595.276 V 0 H 0 Z"
       transform="translate(-92.201005,-368.50771)"
       id="path999-7" /></clipPath></defs><sodipodi:namedview
   id="namedview1"
   pagecolor="#505050"
   bordercolor="#eeeeee"
   borderopacity="1"
   inkscape:showpageshadow="0"
   inkscape:pageopacity="0"
   inkscape:pagecheckerboard="0"
   inkscape:deskcolor="#505050"
   inkscape:zoom="1.0675655"
   inkscape:cx="302.08919"
   inkscape:cy="301.15248"
   inkscape:window-width="1920"
   inkscape:window-height="991"
   inkscape:window-x="-9"
   inkscape:window-y="-9"
   inkscape:window-maximized="1"
   inkscape:current-layer="Layer_1" />
















<g
   id="g19"
   transform="matrix(4.0086279,0,0,4.0086279,-183.07664,-2351.1138)"><path
     id="path910"
     d="M 129.787,306.282 H 34.283 v 95.51 h 95.504 z"
     style="fill:#32669d;fill-opacity:1;fill-rule:nonzero;stroke:none"
     transform="matrix(1.3333333,0,0,-1.3333333,0,1122.52)"
     clip-path="url(#clipPath911-9)" /><path
     id="path912"
     d="m 0,0 v -3.38 h 0.029 l 2.272,2.357 H 2.33 v -14.74 H 5.568 V 3.494 H 2.984 Z"
     style="fill:#ffffff;fill-opacity:1;fill-rule:nonzero;stroke:none"
     transform="matrix(1.3333333,0,0,-1.3333333,55.508,602.138)"
     clip-path="url(#clipPath913-9)" /><path
     id="path914"
     d="m 0,0 c 0,-1.221 -0.455,-1.931 -1.562,-1.931 -1.079,0 -1.505,0.738 -1.505,1.931 v 3.522 c 0.056,1.079 0.511,1.761 1.534,1.761 C -0.427,5.283 0,4.601 0,3.351 Z m 3.209,0.284 v 2.84 c 0,3.153 -1.249,4.744 -3.578,4.744 -1.364,0 -2.187,-0.625 -2.67,-1.563 h -0.028 v 4.147 c 0,1.165 0.368,1.989 1.534,1.989 1.164,0 1.504,-0.682 1.504,-1.874 V 9.286 h 2.954 v 1.024 c 0,2.841 -0.936,4.828 -4.516,4.828 -3.408,0 -4.686,-2.187 -4.686,-5.198 V 0.568 c 0,-2.982 1.307,-5.141 4.715,-5.141 3.436,0 4.771,1.875 4.771,4.857"
     style="fill:#ffffff;fill-opacity:1;fill-rule:nonzero;stroke:none"
     transform="matrix(1.3333333,0,0,-1.3333333,73.762667,617.36227)"
     clip-path="url(#clipPath915-3)" /><path
     id="path916"
     d="m 0,0 c 0,0 -1.09,-1.448 -0.773,-2.858 0.319,-1.411 1.927,-2.249 1.927,-2.249 0,0 1.09,1.447 0.772,2.857 C 1.608,-0.839 0,0 0,0"
     style="fill:#ffffff;fill-opacity:1;fill-rule:nonzero;stroke:none"
     transform="matrix(1.3333333,0,0,-1.3333333,134.2264,630.91133)"
     clip-path="url(#clipPath917-1)" /><path
     id="path918"
     d="m 0,0 c 0,0 1.09,1.447 0.772,2.858 -0.319,1.411 -1.926,2.248 -1.926,2.248 0,0 -1.091,-1.446 -0.774,-2.856 C -1.608,0.839 0,0 0,0"
     style="fill:#ffffff;fill-opacity:1;fill-rule:nonzero;stroke:none"
     transform="matrix(1.3333333,0,0,-1.3333333,131.85827,641.932)"
     clip-path="url(#clipPath919-2)" /><path
     id="path920"
     d="m 0,0 c 0,0 1.163,-1.173 2.485,-1.055 1.325,0.118 2.306,1.48 2.306,1.48 0,0 -1.161,1.172 -2.486,1.055 C 0.982,1.362 0,0 0,0"
     style="fill:#ffffff;fill-opacity:1;fill-rule:nonzero;stroke:none"
     transform="matrix(1.3333333,0,0,-1.3333333,138.4768,639.2612)"
     clip-path="url(#clipPath921-3)" /><path
     id="path922"
     d="m 0,0 c -1.077,-1.094 -0.925,-3.027 -0.925,-3.027 0,0 1.899,-0.165 2.978,0.927 1.076,1.092 0.925,3.026 0.925,3.026 0,0 -1.9,0.164 -2.978,-0.926"
     style="fill:#ffffff;fill-opacity:1;fill-rule:nonzero;stroke:none"
     transform="matrix(1.3333333,0,0,-1.3333333,141.01533,630.91133)"
     clip-path="url(#clipPath923-9)" /><path
     id="path924"
     d="m 0,0 c 1.319,-0.156 2.558,0.977 2.558,0.977 0,0 -0.897,1.385 -2.215,1.54 -1.32,0.155 -2.56,-0.977 -2.56,-0.977 0,0 0.898,-1.385 2.217,-1.54"
     style="fill:#ffffff;fill-opacity:1;fill-rule:nonzero;stroke:none"
     transform="matrix(1.3333333,0,0,-1.3333333,137.84733,645.05613)"
     clip-path="url(#clipPath925-8)" /><path
     id="path926"
     d="m 0,0 h -9.762 c -0.763,0 -1.383,-0.616 -1.383,-1.38 0,-0.763 0.62,-1.382 1.383,-1.382 H 0 c 0.762,0 1.38,0.619 1.38,1.382 C 1.38,-0.616 0.762,0 0,0"
     style="fill:#ffffff;fill-opacity:1;fill-rule:nonzero;stroke:none"
     transform="matrix(1.3333333,0,0,-1.3333333,138.76333,675.85253)"
     clip-path="url(#clipPath927-0)" /><path
     id="path928"
     d="m 0,0 h -9.762 c -0.763,0 -1.383,-0.617 -1.383,-1.381 0,-0.761 0.62,-1.381 1.383,-1.381 H 0 c 0.762,0 1.38,0.62 1.38,1.381 C 1.38,-0.617 0.762,0 0,0"
     style="fill:#ffffff;fill-opacity:1;fill-rule:nonzero;stroke:none"
     transform="matrix(1.3333333,0,0,-1.3333333,138.76333,696.14813)"
     clip-path="url(#clipPath929-4)" /><path
     id="path930"
     d="M 0,0 C -0.232,0.072 -0.462,0.134 -0.684,0.176 -0.684,0.176 -0.432,0.097 0,0"
     style="fill:#ffffff;fill-opacity:1;fill-rule:nonzero;stroke:none"
     transform="matrix(1.3333333,0,0,-1.3333333,80.295333,671.09587)"
     clip-path="url(#clipPath931-1)" /><path
     id="path932"
     d="m 0,0 c 0.644,-0.011 1.289,0.008 1.936,0.052 v -5.1 L 0,-5.004 Z m 27.72,-1.104 h -9.045 c -0.434,0 -0.786,-0.353 -0.786,-0.786 v -2.739 l -5.905,-0.649 -8.626,0.197 v 5.27 c 1.146,0.146 2.293,0.374 3.432,0.696 8.303,2.343 10.115,9.209 9.934,13.958 -0.181,4.838 1.368,6.717 3.592,7.553 0.637,0.239 1.267,0.39 1.843,0.488 0.025,-1.188 0.266,-2.57 0.798,-4.215 0.197,0.01 0.393,0.026 0.588,0.048 -0.561,1.683 -0.8,3.069 -0.813,4.249 1.149,0.136 1.968,0.06 1.968,0.06 0,0 -0.776,0.417 -1.873,1.335 0.373,2.291 1.738,3.697 3.144,5.135 0.772,0.792 1.571,1.61 2.2,2.584 l -0.49,0.316 c -0.595,-0.926 -1.377,-1.721 -2.129,-2.492 -1.371,-1.402 -2.755,-2.836 -3.223,-5.111 -0.447,0.403 -0.928,0.878 -1.422,1.432 -2.048,2.296 -4.684,0.609 -8.443,-2.891 -3.762,-3.498 -8.49,-3.618 -13.109,1.107 -6.093,6.239 -11.409,6.204 -15.054,5.85 2.493,-1.062 3.366,-3.392 4.628,-9.315 1.322,-6.214 4.659,-9.026 9.221,-9.414 -2.537,-0.898 -2.663,-2.33 -6.064,-4.678 -2.655,-1.833 -6.392,-1.253 -7.906,-0.909 2.78,-0.867 6.073,-3.784 9.021,-4.799 1.716,-0.59 3.525,-0.956 5.377,-1.103 v -5.044 l -15.454,0.353 v -3.519 l 28.86,0.66 5.905,-0.65 v -2.737 c 0,-0.433 0.352,-0.787 0.786,-0.787 h 9.045 c 0.435,0 0.788,0.354 0.788,0.787 v 8.974 c 0,0.433 -0.353,0.786 -0.788,0.786"
     style="fill:#ffffff;fill-opacity:1;fill-rule:nonzero;stroke:none"
     transform="matrix(1.3333333,0,0,-1.3333333,101.32307,679.3488)"
     clip-path="url(#clipPath933-3)" /><path
     id="path934"
     d="m 0,0 c 0,-0.742 -0.518,-1.344 -1.156,-1.344 h -0.695 c -0.637,0 -1.157,0.602 -1.157,1.344 v 2.433 c 0,0.742 0.52,1.343 1.157,1.343 h 0.695 C -0.518,3.776 0,3.175 0,2.433 Z"
     style="fill:#ffffff;fill-opacity:1;fill-rule:nonzero;stroke:none"
     transform="matrix(1.3333333,0,0,-1.3333333,77.695333,689.42253)"
     clip-path="url(#clipPath935-9)" /><path
     id="path936"
     d="m 0,0 v -3.074 h 0.484 c 0.448,0 0.645,0.219 0.645,0.645 v 1.796 C 1.129,-0.207 0.932,0 0.484,0 Z m -1.312,1.071 h 1.945 c 1.324,0 1.808,-0.656 1.808,-1.75 v -1.646 c 0,-1.094 -0.484,-1.762 -1.808,-1.762 H 0 v -2.648 h -1.312 z"
     style="fill:#ffffff;fill-opacity:1;fill-rule:nonzero;stroke:none"
     transform="matrix(1.3333333,0,0,-1.3333333,88.117867,596.5144)"
     clip-path="url(#clipPath937-9)" /><path
     id="path938"
     d="M 0,0 H 1.047 L 0.529,3.132 H 0.518 Z m -1.646,-2.475 1.473,7.806 H 1.324 L 2.809,-2.475 H 1.462 L 1.22,-1.047 h -1.393 l -0.23,-1.428 z"
     style="fill:#ffffff;fill-opacity:1;fill-rule:nonzero;stroke:none"
     transform="matrix(1.3333333,0,0,-1.3333333,94.0284,602.1936)"
     clip-path="url(#clipPath939-0)" /><path
     id="path940"
     d="M 0,0 H 1.992 V -1.071 H -1.37 V 0 L 0.691,5.664 H -1.163 V 6.735 H 2.073 V 5.664 Z"
     style="fill:#ffffff;fill-opacity:1;fill-rule:nonzero;stroke:none"
     transform="matrix(1.3333333,0,0,-1.3333333,100.0456,604.0664)"
     clip-path="url(#clipPath941-4)" /><path
     id="path942"
     d="m 0,0 -0.668,-1.761 h -0.737 l 0.162,1.865 H 0 Z"
     style="fill:#ffffff;fill-opacity:1;fill-rule:nonzero;stroke:none"
     transform="matrix(1.3333333,0,0,-1.3333333,105.35773,603.9588)"
     clip-path="url(#clipPath943-5)" /><path
     id="path944"
     d="m 0,0 v -6.033 c 0,-1.128 -0.495,-1.865 -1.808,-1.865 -1.358,0 -1.727,0.749 -1.727,1.739 v 1.554 h 1.244 v -1.577 c 0,-0.392 0.138,-0.622 0.483,-0.622 0.358,0 0.496,0.23 0.496,0.633 V 0 Z"
     style="fill:#ffffff;fill-opacity:1;fill-rule:nonzero;stroke:none"
     transform="matrix(1.3333333,0,0,-1.3333333,112.29587,595.08613)"
     clip-path="url(#clipPath945-5)" /><path
     id="path946"
     d="m 0,0 v -5.906 c 0,-1.209 -0.518,-1.992 -1.853,-1.992 -1.382,0 -1.957,0.783 -1.957,1.992 V 0 h 1.312 v -6.033 c 0,-0.46 0.184,-0.771 0.645,-0.771 0.46,0 0.645,0.311 0.645,0.771 V 0 Z"
     style="fill:#ffffff;fill-opacity:1;fill-rule:nonzero;stroke:none"
     transform="matrix(1.3333333,0,0,-1.3333333,118.20547,595.08613)"
     clip-path="url(#clipPath947-9)" /><path
     id="path948"
     d="m 0,0 v 1.048 h 1.22 v -1.071 c 0,-0.437 0.196,-0.691 0.645,-0.691 0.415,0 0.598,0.277 0.598,0.691 v 0.3 c 0,0.448 -0.183,0.724 -0.586,1.104 L 1.105,2.153 C 0.357,2.89 0.012,3.339 0.012,4.237 v 0.264 c 0,0.968 0.563,1.716 1.841,1.716 1.313,0 1.831,-0.645 1.831,-1.773 V 3.811 H 2.487 V 4.49 C 2.487,4.939 2.28,5.158 1.865,5.158 1.497,5.158 1.243,4.951 1.243,4.513 V 4.352 c 0,-0.438 0.242,-0.691 0.622,-1.059 L 2.705,2.464 C 3.419,1.739 3.765,1.301 3.765,0.437 v -0.38 c 0,-1.07 -0.576,-1.83 -1.912,-1.83 C 0.518,-1.773 0,-1.024 0,0"
     style="fill:#ffffff;fill-opacity:1;fill-rule:nonzero;stroke:none"
     transform="matrix(1.3333333,0,0,-1.3333333,118.94333,603.25293)"
     clip-path="url(#clipPath949-8)" /><path
     id="path950"
     d="M 0,0 H 3.488 V -1.071 H 2.406 V -7.806 H 1.082 v 6.735 H 0 Z"
     style="fill:#ffffff;fill-opacity:1;fill-rule:nonzero;stroke:none"
     transform="matrix(1.3333333,0,0,-1.3333333,124.53147,595.08613)"
     clip-path="url(#clipPath951-4)" /><path
     id="path952"
     d="m 97.382,395.575 h 1.312 v -7.806 h -1.312 z"
     style="fill:#ffffff;fill-opacity:1;fill-rule:nonzero;stroke:none"
     transform="matrix(1.3333333,0,0,-1.3333333,0,1122.52)"
     clip-path="url(#clipPath953-0)" /><path
     id="path954"
     d="m 0,0 c 0.368,0.012 0.426,0.092 0.426,0.184 0,0.081 -0.069,0.127 -0.184,0.127 H 0.184 v 0.426 c -1.116,0.138 -1.577,0.978 -1.577,2.072 v 3.776 c 0,1.221 0.576,2.107 1.957,2.107 1.451,0 1.854,-0.806 1.854,-1.957 V 5.814 H 1.22 v 1.024 c 0,0.484 -0.161,0.761 -0.632,0.761 -0.473,0 -0.669,-0.334 -0.669,-0.806 V 2.602 c 0,-0.472 0.196,-0.806 0.669,-0.806 0.471,0 0.632,0.299 0.632,0.76 V 3.995 H 2.418 V 2.648 C 2.418,1.554 1.98,0.748 0.679,0.702 V 0.599 C 0.99,0.553 1.163,0.438 1.163,0.184 1.163,-0.173 0.829,-0.368 0,-0.368 Z"
     style="fill:#ffffff;fill-opacity:1;fill-rule:nonzero;stroke:none"
     transform="matrix(1.3333333,0,0,-1.3333333,134.29413,606.55293)"
     clip-path="url(#clipPath955-4)" /><path
     id="path956"
     d="M 0,0 H 1.048 L 0.53,3.132 H 0.518 Z m -1.646,-2.475 1.473,7.806 H 1.324 L 2.809,-2.475 H 1.462 l -0.241,1.428 h -1.394 l -0.229,-1.428 z"
     style="fill:#ffffff;fill-opacity:1;fill-rule:nonzero;stroke:none"
     transform="matrix(1.3333333,0,0,-1.3333333,140.2348,602.1936)"
     clip-path="url(#clipPath957-5)" /><path
     id="path958"
     d="M 0,0 H 3.132 V -1.071 H 1.312 V -3.304 H 2.614 V -4.363 H 1.312 v -2.372 h 1.82 V -7.806 H 0 Z"
     style="fill:#ffffff;fill-opacity:1;fill-rule:nonzero;stroke:none"
     transform="matrix(1.3333333,0,0,-1.3333333,146.0068,595.08613)"
     clip-path="url(#clipPath959-1)" /><path
     id="path960"
     d="m 64.822,385.316 h 1.312 v -7.805 h -1.312 z"
     style="fill:#ffffff;fill-opacity:1;fill-rule:nonzero;stroke:none"
     transform="matrix(1.3333333,0,0,-1.3333333,0,1122.52)"
     clip-path="url(#clipPath961-9)" /><path
     id="path962"
     d="M 0,0 V -4.904 H -1.105 V 2.901 H 0.184 L 1.6,-1.577 V 2.901 H 2.694 V -4.904 H 1.542 Z"
     style="fill:#ffffff;fill-opacity:1;fill-rule:nonzero;stroke:none"
     transform="matrix(1.3333333,0,0,-1.3333333,90.804933,612.63307)"
     clip-path="url(#clipPath963-8)" /><path
     id="path964"
     d="m 0,0 v 1.047 h 1.221 v -1.07 c 0,-0.437 0.195,-0.691 0.644,-0.691 0.415,0 0.599,0.276 0.599,0.691 v 0.299 c 0,0.449 -0.184,0.726 -0.587,1.105 L 1.105,2.153 C 0.357,2.89 0.012,3.339 0.012,4.236 v 0.265 c 0,0.967 0.564,1.716 1.841,1.716 1.313,0 1.831,-0.645 1.831,-1.774 V 3.811 H 2.487 V 4.49 C 2.487,4.938 2.28,5.157 1.865,5.157 1.497,5.157 1.244,4.95 1.244,4.513 V 4.352 c 0,-0.438 0.241,-0.692 0.621,-1.06 L 2.706,2.463 C 3.42,1.738 3.765,1.301 3.765,0.437 v -0.38 c 0,-1.07 -0.576,-1.83 -1.912,-1.83 C 0.519,-1.773 0,-1.025 0,0"
     style="fill:#ffffff;fill-opacity:1;fill-rule:nonzero;stroke:none"
     transform="matrix(1.3333333,0,0,-1.3333333,95.440267,616.93053)"
     clip-path="url(#clipPath965-8)" /><path
     id="path966"
     d="M 0,0 H 3.489 V -1.07 H 2.407 V -7.805 H 1.083 V -1.07 H 0 Z"
     style="fill:#ffffff;fill-opacity:1;fill-rule:nonzero;stroke:none"
     transform="matrix(1.3333333,0,0,-1.3333333,101.31987,608.76547)"
     clip-path="url(#clipPath967-2)" /><path
     id="path968"
     d="m 80.193,385.316 h 1.312 v -7.805 h -1.312 z"
     style="fill:#ffffff;fill-opacity:1;fill-rule:nonzero;stroke:none"
     transform="matrix(1.3333333,0,0,-1.3333333,0,1122.52)"
     clip-path="url(#clipPath969-9)" /><path
     id="path970"
     d="M 0,0 H 3.488 V -1.07 H 2.406 V -7.805 H 1.082 V -1.07 H 0 Z"
     style="fill:#ffffff;fill-opacity:1;fill-rule:nonzero;stroke:none"
     transform="matrix(1.3333333,0,0,-1.3333333,109.6252,608.76547)"
     clip-path="url(#clipPath971-8)" /><path
     id="path972"
     d="m 0,0 v -5.905 c 0,-1.209 -0.518,-1.992 -1.853,-1.992 -1.382,0 -1.958,0.783 -1.958,1.992 V 0 h 1.313 v -6.032 c 0,-0.461 0.184,-0.771 0.645,-0.771 0.46,0 0.645,0.31 0.645,0.771 V 0 Z"
     style="fill:#ffffff;fill-opacity:1;fill-rule:nonzero;stroke:none"
     transform="matrix(1.3333333,0,0,-1.3333333,120.30867,608.76547)"
     clip-path="url(#clipPath973-0)" /><path
     id="path974"
     d="m 91.072,385.316 h 1.312 v -7.805 h -1.312 z"
     style="fill:#ffffff;fill-opacity:1;fill-rule:nonzero;stroke:none"
     transform="matrix(1.3333333,0,0,-1.3333333,0,1122.52)"
     clip-path="url(#clipPath975-3)" /><path
     id="path976"
     d="m 0,0 c 0.368,0.012 0.426,0.092 0.426,0.184 0,0.081 -0.069,0.127 -0.185,0.127 H 0.184 v 0.426 c -1.116,0.138 -1.578,0.978 -1.578,2.072 v 3.777 c 0,1.22 0.576,2.106 1.958,2.106 1.451,0 1.853,-0.806 1.853,-1.957 V 5.814 H 1.22 v 1.024 c 0,0.484 -0.161,0.761 -0.633,0.761 -0.472,0 -0.668,-0.334 -0.668,-0.806 V 2.602 c 0,-0.472 0.196,-0.806 0.668,-0.806 0.472,0 0.633,0.299 0.633,0.76 V 3.995 H 2.417 V 2.648 C 2.417,1.554 1.98,0.749 0.679,0.702 V 0.599 C 0.99,0.553 1.162,0.438 1.162,0.184 1.162,-0.172 0.829,-0.368 0,-0.368 Z"
     style="fill:#ffffff;fill-opacity:1;fill-rule:nonzero;stroke:none"
     transform="matrix(1.3333333,0,0,-1.3333333,126.17373,620.23147)"
     clip-path="url(#clipPath977-4)" /><path
     id="path978"
     d="m 0,0 v 4.19 c 0,0.472 -0.207,0.807 -0.679,0.807 -0.46,0 -0.667,-0.335 -0.667,-0.807 V 0 c 0,-0.472 0.207,-0.806 0.667,-0.806 C -0.207,-0.806 0,-0.472 0,0 m -1.877,6.309 c 0.024,0.541 0.231,0.978 0.806,0.978 0.334,0 0.611,-0.195 0.783,-0.195 0.093,0 0.161,0.057 0.161,0.172 H 0.518 C 0.495,6.724 0.288,6.286 -0.288,6.286 c -0.334,0 -0.61,0.196 -0.783,0.196 -0.092,0 -0.161,-0.058 -0.161,-0.173 z M -2.659,0.207 v 3.776 c 0,1.221 0.598,2.107 1.98,2.107 1.393,0 1.991,-0.886 1.991,-2.107 V 0.207 c 0,-1.208 -0.598,-2.107 -1.991,-2.107 -1.382,0 -1.98,0.899 -1.98,2.107"
     style="fill:#ffffff;fill-opacity:1;fill-rule:nonzero;stroke:none"
     transform="matrix(1.3333333,0,0,-1.3333333,134.03267,616.762)"
     clip-path="url(#clipPath979-0)" /><path
     id="path980"
     d="M 0,0 H 3.132 V -1.07 H 1.312 V -3.304 H 2.613 V -4.363 H 1.312 v -2.371 h 1.82 V -7.805 H 0 Z"
     style="fill:#ffffff;fill-opacity:1;fill-rule:nonzero;stroke:none"
     transform="matrix(1.3333333,0,0,-1.3333333,136.9192,608.76547)"
     clip-path="url(#clipPath981-5)" /><path
     id="path982"
     d="m 0,0 v 1.047 h 1.221 v -1.07 c 0,-0.437 0.195,-0.691 0.644,-0.691 0.415,0 0.599,0.276 0.599,0.691 v 0.299 c 0,0.449 -0.184,0.726 -0.587,1.105 L 1.105,2.153 C 0.357,2.89 0.012,3.339 0.012,4.236 v 0.265 c 0,0.967 0.564,1.716 1.842,1.716 1.312,0 1.83,-0.645 1.83,-1.774 V 3.811 H 2.487 V 4.49 C 2.487,4.938 2.28,5.157 1.865,5.157 1.497,5.157 1.244,4.95 1.244,4.513 V 4.352 c 0,-0.438 0.241,-0.692 0.621,-1.06 L 2.706,2.463 C 3.42,1.738 3.765,1.301 3.765,0.437 v -0.38 c 0,-1.07 -0.576,-1.83 -1.911,-1.83 C 0.519,-1.773 0,-1.025 0,0"
     style="fill:#ffffff;fill-opacity:1;fill-rule:nonzero;stroke:none"
     transform="matrix(1.3333333,0,0,-1.3333333,142.07653,616.93053)"
     clip-path="url(#clipPath983-1)" /><path
     id="path984"
     d="M 0,0 H 3.132 V -1.07 H 1.312 V -3.304 H 2.613 V -4.363 H 1.312 v -2.372 h 1.82 V -7.806 H 0 Z"
     style="fill:#ffffff;fill-opacity:1;fill-rule:nonzero;stroke:none"
     transform="matrix(1.3333333,0,0,-1.3333333,86.43,623.01053)"
     clip-path="url(#clipPath985-7)" /><path
     id="path986"
     d="M 0,0 H 3.074 V -1.07 H 1.312 V -3.304 H 2.625 V -4.363 H 1.312 V -7.806 H 0 Z"
     style="fill:#ffffff;fill-opacity:1;fill-rule:nonzero;stroke:none"
     transform="matrix(1.3333333,0,0,-1.3333333,91.664667,623.01053)"
     clip-path="url(#clipPath987-5)" /><path
     id="path988"
     d="m 72.502,374.632 h 1.312 v -7.806 h -1.312 z"
     style="fill:#ffffff;fill-opacity:1;fill-rule:nonzero;stroke:none"
     transform="matrix(1.3333333,0,0,-1.3333333,0,1122.52)"
     clip-path="url(#clipPath989-5)" /><path
     id="path990"
     d="m 0,0 v 3.776 c 0,1.22 0.575,2.107 1.957,2.107 1.451,0 1.854,-0.806 1.854,-1.957 V 3.004 H 2.613 V 4.03 c 0,0.483 -0.161,0.759 -0.633,0.759 -0.472,0 -0.668,-0.334 -0.668,-0.806 v -4.19 c 0,-0.472 0.196,-0.806 0.668,-0.806 0.472,0 0.633,0.299 0.633,0.759 v 1.44 H 3.811 V -0.161 C 3.811,-1.277 3.35,-2.107 1.957,-2.107 0.575,-2.107 0,-1.209 0,0"
     style="fill:#ffffff;fill-opacity:1;fill-rule:nonzero;stroke:none"
     transform="matrix(1.3333333,0,0,-1.3333333,99.570133,630.73187)"
     clip-path="url(#clipPath991-9)" /><path
     id="path992"
     d="M 0,0 H 1.048 L 0.529,3.132 h -0.01 z m -1.646,-2.475 1.474,7.806 H 1.325 L 2.81,-2.475 H 1.463 l -0.242,1.428 h -1.393 l -0.23,-1.428 z"
     style="fill:#ffffff;fill-opacity:1;fill-rule:nonzero;stroke:none"
     transform="matrix(1.3333333,0,0,-1.3333333,107.6596,630.11787)"
     clip-path="url(#clipPath993-8)" /><path
     id="path994"
     d="M 0,0 H 1.991 V -1.07 H -1.37 V 0 l 2.061,5.665 h -1.854 v 1.07 h 3.235 v -1.07 z"
     style="fill:#ffffff;fill-opacity:1;fill-rule:nonzero;stroke:none"
     transform="matrix(1.3333333,0,0,-1.3333333,113.96907,631.9908)"
     clip-path="url(#clipPath995-3)" /><path
     id="path996"
     d="M 0,0 H 3.132 V -1.07 H 1.312 V -3.304 H 2.614 V -4.363 H 1.312 v -2.372 h 1.82 V -7.806 H 0 Z"
     style="fill:#ffffff;fill-opacity:1;fill-rule:nonzero;stroke:none"
     transform="matrix(1.3333333,0,0,-1.3333333,117.7764,623.01053)"
     clip-path="url(#clipPath997-0)" /><path
     id="path998"
     d="m 0,0 v 1.047 h 1.22 v -1.07 c 0,-0.438 0.196,-0.692 0.644,-0.692 0.415,0 0.599,0.277 0.599,0.692 v 0.299 c 0,0.449 -0.184,0.725 -0.587,1.105 L 1.105,2.153 C 0.357,2.889 0.011,3.338 0.011,4.236 v 0.265 c 0,0.967 0.564,1.716 1.842,1.716 1.313,0 1.831,-0.645 1.831,-1.774 V 3.81 H 2.487 V 4.49 C 2.487,4.939 2.279,5.157 1.864,5.157 1.497,5.157 1.243,4.95 1.243,4.513 V 4.352 c 0,-0.438 0.242,-0.692 0.621,-1.06 L 2.705,2.463 C 3.419,1.738 3.764,1.301 3.764,0.437 v -0.38 c 0,-1.071 -0.575,-1.83 -1.911,-1.83 C 0.518,-1.773 0,-1.025 0,0"
     style="fill:#ffffff;fill-opacity:1;fill-rule:nonzero;stroke:none"
     transform="matrix(1.3333333,0,0,-1.3333333,122.93467,631.1764)"
     clip-path="url(#clipPath999-9)" /></g></svg>
