<?xml version="1.0" encoding="UTF-8" standalone="no"?>
<!-- Generator: Adobe Illustrator 19.0.0, SVG Export Plug-In . SVG Version: 6.00 Build 0)  -->

<svg
   version="1.1"
   id="Layer_1"
   x="0px"
   y="0px"
   viewBox="0 0 511.949 511.949"
   style="enable-background:new 0 0 511.949 511.949;"
   xml:space="preserve"
   width="512"
   height="512"
   sodipodi:docname="19.svg"
   inkscape:version="1.4.2 (f4327f4, 2025-05-13)"
   xmlns:inkscape="http://www.inkscape.org/namespaces/inkscape"
   xmlns:sodipodi="http://sodipodi.sourceforge.net/DTD/sodipodi-0.dtd"
   xmlns="http://www.w3.org/2000/svg"
   xmlns:svg="http://www.w3.org/2000/svg"><defs
   id="defs1"><clipPath
     clipPathUnits="userSpaceOnUse"
     id="clipPath1073-3"><path
       d="M 0,841.89 H 595.276 V 0 H 0 Z"
       id="path1073-8" /></clipPath><linearGradient
     x1="0"
     y1="0"
     x2="1"
     y2="0"
     gradientUnits="userSpaceOnUse"
     gradientTransform="matrix(-0.0973477,-9.0394077,-9.0394077,0.0973477,547.32458,344.70343)"
     spreadMethod="pad"
     id="linearGradient1074"><stop
       style="stop-opacity:1;stop-color:#52b4e9"
       offset="0"
       id="stop1073" /><stop
       style="stop-opacity:1;stop-color:#f14b3c"
       offset="1"
       id="stop1074" /></linearGradient><clipPath
     clipPathUnits="userSpaceOnUse"
     id="clipPath1076-2"><path
       d="M 0,841.89 H 595.276 V 0 H 0 Z"
       transform="translate(-471.20261,-351.88911)"
       id="path1076-7" /></clipPath><clipPath
     clipPathUnits="userSpaceOnUse"
     id="clipPath1078-5"><path
       d="M 0,841.89 H 595.276 V 0 H 0 Z"
       transform="translate(-474.53491,-350.74881)"
       id="path1078-7" /></clipPath><clipPath
     clipPathUnits="userSpaceOnUse"
     id="clipPath1080-8"><path
       d="M 0,841.89 H 595.276 V 0 H 0 Z"
       transform="translate(-480.23991,-348.09811)"
       id="path1080-2" /></clipPath><clipPath
     clipPathUnits="userSpaceOnUse"
     id="clipPath1082-7"><path
       d="M 0,841.89 H 595.276 V 0 H 0 Z"
       transform="translate(-484.33281,-349.09571)"
       id="path1082-8" /></clipPath><clipPath
     clipPathUnits="userSpaceOnUse"
     id="clipPath1084-0"><path
       d="M 0,841.89 H 595.276 V 0 H 0 Z"
       transform="translate(-488.47361,-348.65881)"
       id="path1084-2" /></clipPath><clipPath
     clipPathUnits="userSpaceOnUse"
     id="clipPath1086-0"><path
       d="M 0,841.89 H 595.276 V 0 H 0 Z"
       transform="translate(-493.25131,-348.15231)"
       id="path1086-8" /></clipPath><clipPath
     clipPathUnits="userSpaceOnUse"
     id="clipPath1088-9"><path
       d="M 0,841.89 H 595.276 V 0 H 0 Z"
       transform="translate(-495.62491,-350.74881)"
       id="path1088-2" /></clipPath><clipPath
     clipPathUnits="userSpaceOnUse"
     id="clipPath1090-8"><path
       d="M 0,841.89 H 595.276 V 0 H 0 Z"
       transform="translate(-502.27961,-348.65881)"
       id="path1090-2" /></clipPath><clipPath
     clipPathUnits="userSpaceOnUse"
     id="clipPath1092-0"><path
       d="M 0,841.89 H 595.276 V 0 H 0 Z"
       transform="translate(-505.92431,-347.23681)"
       id="path1092-5" /></clipPath><clipPath
     clipPathUnits="userSpaceOnUse"
     id="clipPath1094-5"><path
       d="M 0,841.89 H 595.276 V 0 H 0 Z"
       id="path1094-2" /></clipPath><clipPath
     clipPathUnits="userSpaceOnUse"
     id="clipPath1096-7"><path
       d="M 0,841.89 H 595.276 V 0 H 0 Z"
       transform="translate(-511.06901,-349.09571)"
       id="path1096-6" /></clipPath><linearGradient
     x1="0"
     y1="0"
     x2="1"
     y2="0"
     gradientUnits="userSpaceOnUse"
     gradientTransform="matrix(-12.846876,28.241894,28.241894,12.846876,496.65344,351.75897)"
     spreadMethod="pad"
     id="linearGradient1099"><stop
       style="stop-opacity:1;stop-color:#64c771"
       offset="0"
       id="stop1096" /><stop
       style="stop-opacity:1;stop-color:#64c771"
       offset="0.00044047"
       id="stop1097" /><stop
       style="stop-opacity:1;stop-color:#64c771"
       offset="0.12738806"
       id="stop1098" /><stop
       style="stop-opacity:1;stop-color:#5190d3"
       offset="1"
       id="stop1099" /></linearGradient><linearGradient
     x1="0"
     y1="0"
     x2="1"
     y2="0"
     gradientUnits="userSpaceOnUse"
     gradientTransform="matrix(-12.846876,28.241894,28.241894,12.846876,485.46292,346.66855)"
     spreadMethod="pad"
     id="linearGradient1103"><stop
       style="stop-opacity:1;stop-color:#64c771"
       offset="0"
       id="stop1100" /><stop
       style="stop-opacity:1;stop-color:#64c771"
       offset="0.00044047"
       id="stop1101" /><stop
       style="stop-opacity:1;stop-color:#64c771"
       offset="0.12738806"
       id="stop1102" /><stop
       style="stop-opacity:1;stop-color:#5190d3"
       offset="1"
       id="stop1103" /></linearGradient><linearGradient
     x1="0"
     y1="0"
     x2="1"
     y2="0"
     gradientUnits="userSpaceOnUse"
     gradientTransform="matrix(-12.846876,28.241894,28.241894,12.846876,505.02896,355.56891)"
     spreadMethod="pad"
     id="linearGradient1107"><stop
       style="stop-opacity:1;stop-color:#64c771"
       offset="0"
       id="stop1104" /><stop
       style="stop-opacity:1;stop-color:#64c771"
       offset="0.00044047"
       id="stop1105" /><stop
       style="stop-opacity:1;stop-color:#64c771"
       offset="0.12738806"
       id="stop1106" /><stop
       style="stop-opacity:1;stop-color:#5190d3"
       offset="1"
       id="stop1107" /></linearGradient><linearGradient
     x1="0"
     y1="0"
     x2="1"
     y2="0"
     gradientUnits="userSpaceOnUse"
     gradientTransform="matrix(13.554813,26.850618,26.850618,-13.554813,516.82007,331.8916)"
     spreadMethod="pad"
     id="linearGradient1111"><stop
       style="stop-opacity:1;stop-color:#64c771"
       offset="0"
       id="stop1108" /><stop
       style="stop-opacity:1;stop-color:#64c771"
       offset="0.00044047"
       id="stop1109" /><stop
       style="stop-opacity:1;stop-color:#64c771"
       offset="0.12738806"
       id="stop1110" /><stop
       style="stop-opacity:1;stop-color:#5190d3"
       offset="1"
       id="stop1111" /></linearGradient><linearGradient
     x1="0"
     y1="0"
     x2="1"
     y2="0"
     gradientUnits="userSpaceOnUse"
     gradientTransform="matrix(-29.097143,-26.45195,-26.45195,29.097143,535.44983,376.09979)"
     spreadMethod="pad"
     id="linearGradient1115"><stop
       style="stop-opacity:1;stop-color:#64c771"
       offset="0"
       id="stop1112" /><stop
       style="stop-opacity:1;stop-color:#64c771"
       offset="0.00044047"
       id="stop1113" /><stop
       style="stop-opacity:1;stop-color:#64c771"
       offset="0.12738806"
       id="stop1114" /><stop
       style="stop-opacity:1;stop-color:#5190d3"
       offset="1"
       id="stop1115" /></linearGradient><linearGradient
     x1="0"
     y1="0"
     x2="1"
     y2="0"
     gradientUnits="userSpaceOnUse"
     gradientTransform="matrix(-14.107707,-19.067448,-19.067448,14.107707,538.99188,374.65271)"
     spreadMethod="pad"
     id="linearGradient1119"><stop
       style="stop-opacity:1;stop-color:#64c771"
       offset="0"
       id="stop1116" /><stop
       style="stop-opacity:1;stop-color:#64c771"
       offset="0.00044047"
       id="stop1117" /><stop
       style="stop-opacity:1;stop-color:#64c771"
       offset="0.12738806"
       id="stop1118" /><stop
       style="stop-opacity:1;stop-color:#5190d3"
       offset="1"
       id="stop1119" /></linearGradient><linearGradient
     x1="0"
     y1="0"
     x2="1"
     y2="0"
     gradientUnits="userSpaceOnUse"
     gradientTransform="matrix(29.207361,23.586323,23.586323,-29.207361,525.21381,335.39691)"
     spreadMethod="pad"
     id="linearGradient1123"><stop
       style="stop-opacity:1;stop-color:#64c771"
       offset="0"
       id="stop1120" /><stop
       style="stop-opacity:1;stop-color:#64c771"
       offset="0.00044047"
       id="stop1121" /><stop
       style="stop-opacity:1;stop-color:#64c771"
       offset="0.12738806"
       id="stop1122" /><stop
       style="stop-opacity:1;stop-color:#5190d3"
       offset="1"
       id="stop1123" /></linearGradient><linearGradient
     x1="0"
     y1="0"
     x2="1"
     y2="0"
     gradientUnits="userSpaceOnUse"
     gradientTransform="matrix(-10.762515,-11.797372,-11.797372,10.762515,546.1709,352.05719)"
     spreadMethod="pad"
     id="linearGradient1127"><stop
       style="stop-opacity:1;stop-color:#64c771"
       offset="0"
       id="stop1124" /><stop
       style="stop-opacity:1;stop-color:#64c771"
       offset="0.00044047"
       id="stop1125" /><stop
       style="stop-opacity:1;stop-color:#64c771"
       offset="0.12738806"
       id="stop1126" /><stop
       style="stop-opacity:1;stop-color:#5190d3"
       offset="1"
       id="stop1127" /></linearGradient></defs><sodipodi:namedview
   id="namedview1"
   pagecolor="#505050"
   bordercolor="#eeeeee"
   borderopacity="1"
   inkscape:showpageshadow="0"
   inkscape:pageopacity="0"
   inkscape:pagecheckerboard="0"
   inkscape:deskcolor="#505050"
   inkscape:zoom="1.0675655"
   inkscape:cx="303.96261"
   inkscape:cy="306.77274"
   inkscape:window-width="1920"
   inkscape:window-height="991"
   inkscape:window-x="-9"
   inkscape:window-y="-9"
   inkscape:window-maximized="1"
   inkscape:current-layer="Layer_1" />
















<g
   id="g23"
   transform="matrix(4.0095079,0,0,4.0095079,-2489.463,-2351.4532)"><path
     id="path1072"
     d="m 560.986,306.557 h -95.23 v 95.234 h 95.23 z"
     style="fill:#040606;fill-opacity:1;fill-rule:nonzero;stroke:none"
     transform="matrix(1.3333333,0,0,-1.3333333,0,1122.52)"
     clip-path="url(#clipPath1073-3)" /><path
     id="path1074"
     d="m 550.095,344.506 c -0.011,-0.103 0.063,-0.195 0.165,-0.207 v 0 l 1.148,-0.126 c 0.103,-0.011 0.196,0.063 0.207,0.164 v 0 c 0.011,0.103 -0.063,0.195 -0.165,0.206 v 0 l -1.149,0.127 c -0.007,10e-4 -0.014,0.002 -0.021,0.002 v 0 c -0.094,0 -0.174,-0.071 -0.185,-0.166 m -0.516,-2.103 c -0.037,-0.095 0.01,-0.204 0.106,-0.241 v 0 l 1.076,-0.42 c 0.096,-0.037 0.204,0.01 0.242,0.106 v 0 c 0.037,0.095 -0.01,0.204 -0.107,0.241 v 0 l -1.076,0.42 c -0.022,0.009 -0.045,0.013 -0.067,0.013 v 0 c -0.075,0 -0.145,-0.045 -0.174,-0.119 m -1.043,-1.897 c -0.062,-0.083 -0.044,-0.2 0.039,-0.26 v 0 l 0.932,-0.684 c 0.082,-0.061 0.199,-0.043 0.26,0.04 v 0 c 0.061,0.082 0.043,0.199 -0.04,0.26 v 0 l -0.931,0.684 c -0.033,0.024 -0.072,0.036 -0.11,0.036 v 0 c -0.057,0 -0.114,-0.026 -0.15,-0.076 m -1.5,-1.562 c -0.08,-0.064 -0.093,-0.181 -0.029,-0.262 v 0 l 0.723,-0.902 c 0.064,-0.08 0.182,-0.094 0.262,-0.029 v 0 c 0.08,0.064 0.094,0.182 0.029,0.262 v 0 l -0.722,0.902 c -0.037,0.046 -0.091,0.07 -0.146,0.07 v 0 c -0.041,0 -0.082,-0.014 -0.117,-0.041 m -1.851,-1.121 c -0.095,-0.041 -0.138,-0.152 -0.096,-0.246 v 0 l 0.464,-1.058 c 0.041,-0.095 0.151,-0.137 0.246,-0.095 v 0 c 0.094,0.041 0.136,0.151 0.095,0.244 v 0 l -0.464,1.059 c -0.031,0.07 -0.099,0.112 -0.171,0.112 v 0 c -0.025,0 -0.05,-0.005 -0.074,-0.016 m -2.08,-0.604 c -0.102,-0.015 -0.171,-0.111 -0.156,-0.212 v 0 l 0.175,-1.142 c 0.015,-0.102 0.111,-0.172 0.212,-0.157 v 0 c 0.102,0.016 0.172,0.111 0.156,0.213 v 0 l -0.175,1.142 c -0.013,0.093 -0.093,0.158 -0.184,0.158 v 0 c -0.009,0 -0.019,0 -0.028,-0.002"
     transform="matrix(1.3333333,0,0,-1.3333333,0,1122.52)"
     style="fill:url(#linearGradient1074);stroke:none" /><path
     id="path1075"
     d="M 0,0 0.906,-0.28 0.153,-0.909 h -0.685 z m -1.5,-1.14 h 2.877 v -0.812 h -1.899 v -0.521 h 1.72 v -0.753 h -1.72 V -3.771 H 1.403 V -4.583 H -1.5 Z"
     style="fill:#fcfcfc;fill-opacity:1;fill-rule:nonzero;stroke:none"
     transform="matrix(1.3333333,0,0,-1.3333333,628.27013,653.33453)"
     clip-path="url(#clipPath1076-2)" /><path
     id="path1077"
     d="M 0,0 H 0.993 V -1.288 H 2.268 V 0 H 3.261 V -3.442 H 2.268 v 1.308 H 0.993 V -3.442 H 0 Z"
     style="fill:#fcfcfc;fill-opacity:1;fill-rule:nonzero;stroke:none"
     transform="matrix(1.3333333,0,0,-1.3333333,632.7132,654.85493)"
     clip-path="url(#clipPath1078-5)" /><path
     id="path1079"
     d="m 0,0 c 0.137,0 0.262,0.024 0.375,0.073 0.113,0.05 0.208,0.116 0.287,0.2 0.079,0.084 0.14,0.181 0.185,0.292 0.045,0.112 0.067,0.229 0.067,0.354 v 0.01 C 0.914,1.054 0.892,1.172 0.847,1.283 0.802,1.395 0.739,1.493 0.657,1.578 0.575,1.664 0.477,1.732 0.364,1.782 0.251,1.834 0.126,1.859 -0.01,1.859 -0.147,1.859 -0.271,1.834 -0.382,1.785 -0.494,1.736 -0.59,1.669 -0.67,1.585 -0.751,1.502 -0.812,1.405 -0.855,1.293 -0.897,1.182 -0.919,1.064 -0.919,0.939 v -0.01 c 0,-0.125 0.022,-0.243 0.067,-0.354 0.044,-0.111 0.107,-0.209 0.187,-0.295 0.08,-0.085 0.177,-0.154 0.29,-0.204 C -0.262,0.025 -0.137,0 0,0 m -0.008,-0.861 c -0.276,0 -0.532,0.047 -0.768,0.141 -0.235,0.093 -0.438,0.22 -0.609,0.381 -0.171,0.16 -0.304,0.349 -0.402,0.565 -0.097,0.216 -0.145,0.447 -0.145,0.693 v 0.01 c 0,0.246 0.048,0.478 0.145,0.696 0.098,0.218 0.233,0.408 0.407,0.571 0.174,0.162 0.379,0.289 0.614,0.383 0.236,0.093 0.492,0.14 0.768,0.14 0.277,0 0.533,-0.047 0.768,-0.14 C 1.006,2.485 1.209,2.358 1.38,2.198 1.55,2.038 1.684,1.849 1.781,1.632 1.879,1.416 1.927,1.184 1.927,0.939 V 0.929 C 1.927,0.683 1.879,0.451 1.781,0.233 1.684,0.015 1.548,-0.175 1.375,-0.337 1.2,-0.499 0.995,-0.627 0.76,-0.72 0.525,-0.814 0.269,-0.861 -0.008,-0.861"
     style="fill:#fcfcfc;fill-opacity:1;fill-rule:nonzero;stroke:none"
     transform="matrix(1.3333333,0,0,-1.3333333,640.31987,658.3892)"
     clip-path="url(#clipPath1080-8)" /><path
     id="path1081"
     d="m 0,0 c 0.17,0 0.302,0.037 0.394,0.111 0.092,0.074 0.138,0.173 0.138,0.298 v 0.009 c 0,0.138 -0.048,0.24 -0.143,0.308 -0.096,0.067 -0.227,0.101 -0.394,0.101 h -0.65 V 0 Z M -1.649,1.653 H 0.046 C 0.322,1.653 0.556,1.62 0.747,1.555 0.938,1.489 1.093,1.397 1.213,1.279 1.425,1.082 1.53,0.815 1.53,0.478 V 0.468 C 1.53,0.202 1.464,-0.018 1.331,-0.191 1.198,-0.365 1.018,-0.498 0.793,-0.59 L 1.648,-1.789 H 0.501 l -0.721,1.042 h -0.011 -0.424 v -1.042 h -0.994 z"
     style="fill:#fcfcfc;fill-opacity:1;fill-rule:nonzero;stroke:none"
     transform="matrix(1.3333333,0,0,-1.3333333,645.77707,657.05907)"
     clip-path="url(#clipPath1082-7)" /><path
     id="path1083"
     d="M 0,0 -0.399,0.979 -0.803,0 Z M -0.87,2.114 H 0.087 L 1.612,-1.352 H 0.548 l -0.261,0.614 h -1.383 l -0.256,-0.614 h -1.044 z"
     style="fill:#fcfcfc;fill-opacity:1;fill-rule:nonzero;stroke:none"
     transform="matrix(1.3333333,0,0,-1.3333333,651.29813,657.6416)"
     clip-path="url(#clipPath1084-0)" /><path
     id="path1085"
     d="M 0,0 C 0.298,0 0.538,0.075 0.72,0.226 0.901,0.376 0.992,0.591 0.992,0.87 V 0.88 C 0.992,1.156 0.901,1.37 0.72,1.521 0.538,1.674 0.298,1.751 0,1.751 H -0.406 V 0 Z m -1.399,2.596 h 1.382 C 0.304,2.596 0.59,2.554 0.841,2.471 1.092,2.387 1.303,2.27 1.475,2.119 1.648,1.968 1.779,1.788 1.87,1.581 1.96,1.372 2.005,1.144 2.005,0.895 V 0.885 C 2.005,0.636 1.959,0.405 1.867,0.194 1.775,-0.017 1.642,-0.2 1.468,-0.355 1.294,-0.508 1.079,-0.629 0.825,-0.716 0.571,-0.803 0.284,-0.846 -0.037,-0.846 h -1.362 z"
     style="fill:#fcfcfc;fill-opacity:1;fill-rule:nonzero;stroke:none"
     transform="matrix(1.3333333,0,0,-1.3333333,657.6684,658.31693)"
     clip-path="url(#clipPath1086-0)" /><path
     id="path1087"
     d="M 0,0 H 2.877 V -0.812 H 0.978 v -0.521 h 1.72 V -2.086 H 0.978 V -2.631 H 2.903 V -3.442 H 0 Z"
     style="fill:#fcfcfc;fill-opacity:1;fill-rule:nonzero;stroke:none"
     transform="matrix(1.3333333,0,0,-1.3333333,660.8332,654.85493)"
     clip-path="url(#clipPath1088-9)" /><path
     id="path1089"
     d="M 0,0 -0.399,0.979 -0.804,0 Z M -0.87,2.114 H 0.087 L 1.612,-1.352 H 0.548 l -0.261,0.614 h -1.383 l -0.256,-0.614 h -1.044 z"
     style="fill:#fcfcfc;fill-opacity:1;fill-rule:nonzero;stroke:none"
     transform="matrix(1.3333333,0,0,-1.3333333,669.70613,657.6416)"
     clip-path="url(#clipPath1090-8)" /><path
     id="path1091"
     d="M 0,0 C -0.28,0 -0.538,0.044 -0.776,0.131 -1.013,0.218 -1.218,0.339 -1.392,0.497 -1.566,0.655 -1.703,0.842 -1.802,1.06 -1.901,1.278 -1.95,1.519 -1.95,1.78 v 0.01 c 0,0.249 0.048,0.483 0.145,0.701 0.097,0.218 0.23,0.408 0.4,0.57 0.169,0.163 0.373,0.29 0.61,0.381 0.237,0.093 0.493,0.139 0.77,0.139 0.317,0 0.591,-0.045 0.821,-0.133 C 1.027,3.359 1.237,3.237 1.428,3.079 L 0.845,2.405 C 0.715,2.51 0.583,2.59 0.448,2.646 0.313,2.702 0.157,2.73 -0.02,2.73 -0.15,2.73 -0.27,2.705 -0.381,2.656 -0.492,2.606 -0.589,2.54 -0.67,2.455 -0.753,2.369 -0.817,2.269 -0.865,2.154 -0.913,2.039 -0.937,1.917 -0.937,1.786 v -0.01 c 0,-0.138 0.024,-0.266 0.073,-0.384 0.047,-0.118 0.115,-0.218 0.202,-0.302 0.087,-0.084 0.19,-0.149 0.309,-0.197 0.117,-0.048 0.248,-0.071 0.392,-0.071 0.233,0 0.425,0.047 0.575,0.142 V 1.382 H -0.092 V 2.081 H 1.556 V 0.532 C 1.365,0.381 1.14,0.255 0.881,0.153 0.621,0.051 0.328,0 0,0"
     style="fill:#fcfcfc;fill-opacity:1;fill-rule:nonzero;stroke:none"
     transform="matrix(1.3333333,0,0,-1.3333333,674.56573,659.5376)"
     clip-path="url(#clipPath1092-0)" /><path
     id="path1093"
     d="m 507.91,350.749 h 0.999 v -3.442 h -0.999 z"
     style="fill:#fcfcfc;fill-opacity:1;fill-rule:nonzero;stroke:none"
     transform="matrix(1.3333333,0,0,-1.3333333,0,1122.52)"
     clip-path="url(#clipPath1094-5)" /><path
     id="path1095"
     d="m 0,0 c 0.17,0 0.302,0.037 0.394,0.111 0.092,0.074 0.138,0.173 0.138,0.298 v 0.009 c 0,0.138 -0.048,0.24 -0.143,0.308 -0.096,0.067 -0.227,0.101 -0.394,0.101 h -0.65 V 0 Z M -1.649,1.653 H 0.046 C 0.322,1.653 0.556,1.62 0.747,1.555 0.938,1.489 1.093,1.397 1.213,1.279 1.425,1.082 1.53,0.815 1.53,0.478 V 0.468 C 1.53,0.202 1.464,-0.018 1.331,-0.191 1.198,-0.365 1.018,-0.498 0.793,-0.59 L 1.648,-1.789 H 0.502 l -0.722,1.042 h -0.011 -0.424 v -1.042 h -0.994 z"
     style="fill:#fcfcfc;fill-opacity:1;fill-rule:nonzero;stroke:none"
     transform="matrix(1.3333333,0,0,-1.3333333,681.42533,657.05907)"
     clip-path="url(#clipPath1096-7)" /><path
     id="path1099"
     d="m 490.644,375.456 c -1.036,0 -1.877,-0.84 -1.877,-1.877 v 0 c 0,-1.037 0.841,-1.876 1.877,-1.876 v 0 h 0.153 c 1.037,0 1.877,0.839 1.877,1.876 v 0 c 0,1.037 -0.84,1.877 -1.877,1.877 v 0 z m -1.779,-20.055 h 3.712 v 15.318 h -3.712 z"
     transform="matrix(1.3333333,0,0,-1.3333333,0,1122.52)"
     style="fill:url(#linearGradient1099);stroke:none" /><path
     id="path1103"
     d="m 469.703,375.442 v -20.041 h 4.409 v 6.413 h 3.406 0.058 l 4.295,-6.413 h 5.153 l -4.896,7.157 c 2.548,0.945 4.295,2.978 4.295,6.213 v 0 0.057 c 0,1.89 -0.602,3.464 -1.718,4.581 v 0 c -1.317,1.317 -3.292,2.033 -5.841,2.033 v 0 z m 4.409,-3.98 h 4.38 c 2.148,0 3.464,-0.973 3.464,-2.863 v 0 -0.057 c 0,-1.689 -1.231,-2.834 -3.378,-2.834 v 0 h -4.466 z"
     transform="matrix(1.3333333,0,0,-1.3333333,0,1122.52)"
     style="fill:url(#linearGradient1103);stroke:none" /><path
     id="path1107"
     d="m 493.918,362.757 c 0,-4.324 3.517,-7.842 7.841,-7.842 v 0 c 4.324,0 7.842,3.518 7.842,7.842 v 0 c 0,4.323 -3.518,7.841 -7.842,7.841 v 0 c -4.324,0 -7.841,-3.518 -7.841,-7.841 m 3.695,0 c 0,2.286 1.86,4.147 4.146,4.147 v 0 c 2.287,0 4.147,-1.861 4.147,-4.147 v 0 c 0,-2.287 -1.86,-4.148 -4.147,-4.148 v 0 c -2.286,0 -4.146,1.861 -4.146,4.148"
     transform="matrix(1.3333333,0,0,-1.3333333,0,1122.52)"
     style="fill:url(#linearGradient1107);stroke:none" /><path
     id="path1111"
     d="m 517.208,350.101 1.429,-2.765 h 3.227 c 2.058,0 3.729,-1.88 3.729,-4.202 v 0 c 0,-2.321 -1.671,-4.202 -3.729,-4.202 v 0 c -1.965,0 -3.568,1.709 -3.714,3.882 v 0 h -5.008 c 0.129,-4.712 3.981,-8.493 8.722,-8.493 v 0 c 4.822,0 8.73,3.912 8.73,8.73 v 0 c 0,3.919 -2.58,7.233 -6.136,8.341 v 0 l 4.728,3.732 -1.596,3.422 z"
     transform="matrix(1.3333333,0,0,-1.3333333,0,1122.52)"
     style="fill:url(#linearGradient1111);stroke:none" /><path
     id="path1115"
     d="m 515.234,371.734 c 1.554,0 2.813,-1.258 2.813,-2.815 v 0 c 0,-0.289 -0.048,-0.589 -0.134,-0.897 v 0 c -1.138,-4.143 -9.376,-9.668 -9.376,-9.668 v 0 -3.389 h 6.697 6.695 9.627 l -3.966,3.581 h -12.356 v -0.003 h -1.176 c 0,0 7.277,4.492 7.833,9.479 v 0 c 0.023,0.201 0.04,0.396 0.04,0.598 v 0 c 0,3.7 -3.001,6.698 -6.697,6.698 v 0 z"
     transform="matrix(1.3333333,0,0,-1.3333333,0,1122.52)"
     style="fill:url(#linearGradient1115);stroke:none" /><path
     id="path1119"
     d="m 521.869,364.603 c 0,-5.342 4.346,-9.688 9.687,-9.688 v 0 c 5.343,0 9.689,4.346 9.689,9.688 v 0 c 0,5.343 -4.346,9.689 -9.689,9.689 v 0 c -5.341,0 -9.687,-4.346 -9.687,-9.689 m 3.355,0 c 0,3.492 2.841,6.333 6.332,6.333 v 0 c 3.492,0 6.333,-2.841 6.333,-6.333 v 0 c 0,-3.492 -2.841,-6.332 -6.333,-6.332 v 0 c -3.491,0 -6.332,2.84 -6.332,6.332"
     transform="matrix(1.3333333,0,0,-1.3333333,0,1122.52)"
     style="fill:url(#linearGradient1119);stroke:none" /><path
     id="path1123"
     d="m 540.088,358.515 c -5.991,-0.419 -10.844,-5.271 -11.262,-11.263 v 0 c -0.495,-7.097 5.138,-13.03 12.132,-13.03 v 0 4.212 c -4.683,0 -8.433,4.07 -7.9,8.858 v 0 c 0.407,3.647 3.344,6.583 6.991,6.99 v 0 c 4.788,0.535 8.858,-3.215 8.858,-7.898 v 0 h 4.212 c 0,6.706 -5.456,12.161 -12.162,12.161 v 0 c -0.287,0 -0.577,-0.01 -0.869,-0.03"
     transform="matrix(1.3333333,0,0,-1.3333333,0,1122.52)"
     style="fill:url(#linearGradient1123);stroke:none" /><path
     id="path1127"
     d="m 540.908,353.243 c -0.007,-0.019 -0.028,-0.027 -0.04,-0.042 v 0 l -0.017,-0.007 -0.007,-0.014 h -0.015 -0.026 l 0.015,-0.007 0.012,-0.023 -0.023,-0.01 -0.02,-0.002 -0.009,0.016 -0.025,-0.002 0.021,-0.022 c -0.032,-0.023 -0.032,-0.023 -0.064,-0.017 v 0 l -0.007,0.014 h -0.019 c -0.023,-0.014 -0.023,-0.014 -0.023,-0.018 v 0 c -0.007,-0.004 -0.017,-0.008 -0.024,-0.011 v 0 -0.018 l 0.018,0.011 0.02,0.012 c 0.015,10e-4 0.026,-0.011 0.04,-0.012 v 0 c 0.013,-0.017 0.011,-0.024 0.01,-0.028 v 0 c -0.004,-0.002 -0.004,-0.002 -0.011,0 v 0 c -0.013,0 -0.021,0 -0.028,0 v 0 l -0.005,-10e-4 c 10e-4,-0.015 0.023,-0.03 0.008,-0.047 v 0 c -0.004,-0.005 -0.004,-0.005 -0.049,-10e-4 v 0 h -0.019 l 0.003,-0.026 -0.015,-0.029 -0.03,-0.006 v -0.032 l 0.032,0.015 0.002,-0.023 c -0.014,-0.02 -0.014,-0.02 -0.079,-0.049 v 0 h -0.023 c -0.015,-0.006 -0.029,-0.005 -0.039,-0.002 v 0 l -0.002,0.004 c 0.012,0.018 0.012,0.018 0.012,0.023 v 0 c -0.01,0 -0.019,0 -0.028,0 v 0 c -0.052,-0.003 -0.052,-0.003 -0.06,0.007 v 0 c -0.014,-0.001 -0.022,-0.018 -0.038,-0.018 v 0 c -0.01,-10e-4 -0.019,0.004 -0.027,0.008 v 0 c -0.009,0.005 -0.018,0.009 -0.028,0.009 v 0 c -0.015,-0.003 -0.033,-0.013 -0.047,-0.018 v 0 l -0.023,0.017 -0.003,0.033 0.029,0.022 c 0.043,0.008 0.043,0.008 0.061,0.062 v 0 c 0.037,10e-4 0.039,10e-4 0.041,0 v 0 c 0.008,-0.003 0.014,-0.015 0.014,-0.017 v 0 c 0.006,-0.011 0.026,-0.016 0.036,-0.022 v 0 l 0.031,0.002 0.036,0.022 0.022,0.025 c -0.055,-0.036 -0.059,-0.035 -0.089,-0.028 v 0 l 0.004,0.021 0.036,0.018 -0.03,-0.003 h -0.032 l -0.019,0.006 0.01,0.015 c 0.005,0.006 0.009,0.014 0.014,0.021 v 0 l 0.03,0.012 0.023,0.005 0.031,0.004 0.021,-0.007 0.02,-0.031 c 0.002,0.007 0.006,0.014 0.009,0.021 v 0 c 0.008,0.012 0.025,0.01 0.033,0.019 v 0 c -0.011,0.002 -0.024,0.004 -0.034,0.006 v 0 l -0.016,0.012 -0.015,0.027 -0.004,0.02 -10e-4,0.014 0.016,0.018 0.029,-0.005 c 0.026,-0.004 0.026,-0.004 0.047,-0.044 v 0 c 0.007,-10e-4 0.014,-0.002 0.02,-0.002 v 0 l 0.016,0.003 -0.029,0.007 0.002,0.016 -0.005,0.009 -0.013,0.004 0.009,0.015 0.016,0.003 h 0.012 c 0.013,0.003 0.026,0.008 0.04,0.01 v 0 l 0.013,0.005 0.018,0.002 c 0.008,0 0.016,-10e-4 0.023,-10e-4 v 0 l 0.009,0.012 -0.008,0.002 -0.008,0.002 -0.022,-10e-4 c 0.005,0.003 0.01,0.006 0.014,0.009 v 0 c -0.006,0 -0.011,-0.001 -0.018,-0.001 v 0 l -0.012,-0.009 -0.022,-0.015 c -0.008,0.001 -0.016,0.001 -0.025,0.001 v 0 l -0.017,0.003 c -0.026,-0.018 -0.026,-0.018 -0.077,-0.018 v 0 l 0.013,0.018 0.02,0.014 c -0.005,-0.001 -0.009,-0.001 -0.014,-0.001 v 0 l -0.019,-0.013 c -0.011,10e-4 -0.018,0.007 -0.028,0.011 v 0 c -0.013,-10e-4 -0.026,-0.003 -0.04,-0.004 v 0 c 0,-0.001 -10e-4,-0.002 -10e-4,-0.003 v 0 c -10e-4,-0.009 0.016,-0.005 0.014,-0.015 v 0 c -10e-4,-0.008 -0.02,-0.014 -0.012,-0.023 v 0 c 0.004,0 0.005,10e-4 0.02,0.01 v 0 l 0.003,-0.01 -0.01,-0.012 -0.008,-0.016 c 0.002,-0.002 0.002,-0.002 0.027,-0.017 v 0 c -0.005,-0.009 -0.01,-0.017 -0.018,-0.026 v 0 c -0.015,-0.013 -0.021,-0.015 -0.022,-0.015 v 0 c -0.006,-0.002 -0.01,0.003 -0.015,0.005 v 0 c -0.007,10e-4 -0.009,0 -0.011,-0.002 v 0 c -0.007,-0.004 -0.012,-0.011 -0.019,-0.016 v 0 l -0.012,0.011 -0.018,-0.02 c -0.01,-0.016 -0.013,-0.017 -0.017,-0.018 v 0 h -0.013 l -0.021,-0.014 -0.022,0.01 -0.036,-0.005 -0.03,0.012 0.013,0.026 -0.005,0.017 0.027,0.009 h 0.021 c 0.003,0 0.008,0.001 0.029,0.008 v 0 l 0.008,0.018 -0.024,-10e-4 -0.025,-0.007 -0.021,-0.003 -0.003,0.014 c 0.009,0.007 0.019,0.014 0.028,0.021 v 0 l -0.013,0.003 c 0.009,0.006 0.018,0.012 0.026,0.018 v 0 l 0.023,0.009 0.025,0.019 0.015,0.002 0.013,-0.002 c 0.004,0.003 0.008,0.005 0.01,0.007 v 0 c -0.976,-0.086 -1.909,-0.376 -2.749,-0.849 v 0 l -0.006,-0.011 0.057,-0.015 -0.043,-0.062 0.039,-0.016 0.131,0.049 c 0.009,-10e-4 0.019,-0.002 0.027,-0.003 v 0 h 0.036 l 0.105,0.035 0.085,0.021 0.008,-0.007 -0.051,-0.029 -0.054,-0.015 -0.065,-0.015 -0.118,-0.058 0.1,0.036 0.084,0.023 0.049,0.005 0.071,0.035 0.086,0.056 0.018,-0.018 -0.078,-0.091 0.026,-0.013 0.101,0.066 -0.061,-0.079 0.042,0.007 0.054,0.032 0.038,0.001 0.047,-0.013 -0.012,-0.043 0.079,-0.063 0.053,0.001 0.029,-0.061 -0.081,-0.023 -0.025,-0.03 0.152,-0.03 0.096,0.016 0.041,-0.044 -0.032,-0.11 0.076,0.09 0.024,0.058 0.107,0.037 0.074,0.034 0.035,-0.052 0.049,-0.012 0.052,-0.041 0.159,10e-4 0.043,0.048 0.06,0.035 -0.043,0.065 0.063,0.025 0.054,0.056 0.058,-0.051 -0.034,-0.082 c -0.012,10e-4 -0.024,10e-4 -0.037,0.002 v 0 l -0.029,-0.057 c 0.014,-10e-4 0.028,-10e-4 0.042,-10e-4 v 0 l -0.05,-0.061 0.043,-0.05 0.035,0.089 0.132,0.058 c 0.009,0.019 0.019,0.039 0.029,0.059 v 0 l -0.078,-0.038 -0.053,-0.002 0.013,0.057 0.052,-0.015 0.043,0.048 -0.033,0.036 -0.022,0.055 0.026,0.032 0.009,0.039 0.058,0.047 0.029,0.003 0.028,0.029 0.06,-0.005 0.025,-0.052 -0.022,-0.045 0.03,-0.007 -0.016,-0.056 -0.03,-0.05 0.022,-0.014 0.037,-0.103 0.08,0.055 0.047,-0.074 -0.048,-0.047 0.005,-0.079 0.034,-0.022 0.059,0.051 0.049,0.064 0.084,0.089 -0.026,0.034 0.017,0.045 0.053,0.015 -0.07,0.029 -0.03,0.032 -0.035,-0.011 c -0.02,0 -0.04,0 -0.06,0 v 0 l -0.022,0.05 0.057,0.015 0.044,-0.011 -0.003,0.04 -0.04,0.005 -0.054,0.013 0.051,0.101 0.074,0.077 0.084,0.052 0.067,0.008 c 0.02,-10e-4 0.038,-10e-4 0.058,-10e-4 v 0 l -0.058,-0.037 -0.05,-0.046 -0.014,-0.045 -0.012,-0.069 0.027,-0.054 0.037,0.006 -0.021,0.062 0.033,0.031 -0.013,0.049 0.024,0.043 0.04,0.022 0.045,0.002 0.041,0.031 c 0.021,0 0.043,0 0.064,-0.001 v 0 l 0.004,-0.042 0.024,-0.05 -0.031,-0.036 -0.006,-0.041 0.038,0.003 0.019,0.031 0.037,-0.009 0.04,0.006 0.016,0.025 c 0.026,0 0.051,0 0.077,-10e-4 v 0 l 0.059,-0.022 10e-4,-0.032 0.038,-0.004 0.004,-0.026 0.041,-0.047 0.065,0.018 0.052,-0.018 -0.038,-0.027 0.02,-0.006 0.048,-0.003 0.01,-0.027 0.058,0.002 0.057,-0.024 -0.016,-0.034 0.054,-0.016 0.044,-0.038 -0.032,-0.007 -0.007,-0.022 0.072,-0.02 -0.023,-0.025 c -0.017,0 -0.035,0 -0.053,-10e-4 v 0 c 0.002,-0.018 0.004,-0.037 0.006,-0.057 v 0 l 0.032,-0.002 0.076,10e-4 0.021,-0.035 0.019,-0.037 c 0.015,0 0.029,0 0.046,0 v 0 l 0.063,-0.026 0.04,-0.007 0.067,-0.045 c 10e-4,-0.009 0.003,-0.019 0.005,-0.028 v 0 c 0.032,0 0.064,0 0.095,10e-4 v 0 l 0.017,-0.053 -0.013,-0.036 c -0.016,-10e-4 -0.031,-10e-4 -0.048,-10e-4 v 0 l -0.004,-0.032 -0.069,-0.031 -0.002,-0.082 -0.063,0.011 -0.06,0.07 -0.154,0.108 -0.031,-0.029 -0.031,-0.032 0.117,-0.118 0.096,-0.033 0.027,-0.096 0.073,-0.037 -0.032,-0.063 c 0.003,-0.024 0.006,-0.047 0.009,-0.071 v 0 l -0.08,0.043 -0.148,0.074 -0.086,0.042 0.03,-0.046 0.056,-0.043 0.138,-0.099 -0.003,-0.049 -0.082,0.036 -0.123,0.004 -0.085,0.079 c -0.026,0 -0.052,0 -0.078,0 v 0 l -0.054,0.059 -0.019,0.047 -0.085,0.085 -0.087,0.027 -0.045,0.011 -0.034,-0.018 -0.02,-0.035 -0.073,-0.003 -0.089,0.016 c 0.002,0.02 0.003,0.04 0.006,0.06 v 0 l 0.079,0.055 c 0.021,0 0.041,0 0.06,0 v 0 l 0.055,-0.015 0.107,0.014 -0.029,0.067 0.059,0.068 0.069,0.067 -0.01,0.063 -0.045,0.051 -0.053,0.021 -0.024,0.049 -0.044,0.021 -0.022,0.039 -0.04,0.01 -0.019,0.052 -0.054,0.006 -0.04,0.054 -0.034,-0.009 0.039,-0.048 -0.058,-0.012 -0.061,-0.002 -0.038,0.029 -0.052,0.006 -0.015,-0.024 c -0.024,0 -0.05,0.001 -0.074,0.001 v 0 l 0.055,-0.04 0.048,-0.026 0.028,-0.05 -0.025,-0.05 -0.055,-0.009 0.014,-0.069 0.023,-0.042 -0.027,-0.038 -0.067,-0.045 -0.034,-0.047 c -0.021,0 -0.042,10e-4 -0.063,10e-4 v 0 l -10e-4,-0.032 -0.031,-0.029 -0.051,0.011 c -0.004,-0.013 -0.006,-0.027 -0.01,-0.04 v 0 l 0.055,-0.016 0.05,-0.057 0.08,-0.008 0.019,-0.073 0.067,-0.016 -0.016,-0.058 c -0.023,0 -0.047,0 -0.07,10e-4 v 0 l -0.044,0.023 -0.046,0.009 -0.086,0.005 -0.037,-0.054 c -0.024,-0.007 -0.059,-0.011 -0.085,-0.008 v 0 c -0.005,0.016 -10e-4,0.03 0.002,0.044 v 0 l -0.067,0.005 -0.006,0.047 0.07,0.022 c 0.009,0.035 0.018,0.069 0.027,0.102 v 0 l 0.048,0.081 0.042,0.043 -0.026,0.039 c -0.019,0.001 -0.039,0.001 -0.059,0.002 v 0 l 0.031,-0.044 -0.056,-0.054 -0.067,-0.021 -0.053,0.024 -0.081,0.027 -0.055,0.005 0.07,-0.039 0.016,-0.034 0.072,-0.008 0.055,-0.009 -0.034,-0.059 -0.036,-0.019 -0.017,-0.045 -0.052,-0.01 -0.075,0.031 -0.028,-0.056 -0.051,-0.011 -0.092,0.03 -0.116,0.022 0.092,-0.041 0.086,-0.026 0.008,-0.054 -0.079,-0.051 -0.091,-0.033 -0.096,-0.099 -0.103,-0.113 -0.068,-0.155 0.026,-0.052 0.056,-0.037 0.019,-0.133 0.017,-0.057 0.149,0.031 0.095,-0.065 0.093,-0.06 0.037,-0.055 0.119,-0.034 0.048,-0.033 0.101,-0.007 0.136,-0.019 -0.026,-0.093 0.009,-0.113 c -0.002,-0.027 -0.005,-0.053 -0.008,-0.08 v 0 l 0.07,-0.096 0.055,-0.113 0.116,0.014 0.058,0.077 0.023,0.062 -0.027,0.077 c 0.004,0.044 0.007,0.088 0.01,0.131 v 0 l -0.054,0.103 0.113,0.013 0.085,0.064 0.063,0.08 c 0.002,0.04 0.005,0.079 0.008,0.117 v 0 l -0.017,0.102 -0.072,0.057 -0.048,0.036 0.041,0.042 0.003,0.077 c 0.019,0 0.038,0 0.057,-0.001 v 0 l -0.03,0.081 -0.007,0.058 0.023,0.086 -0.033,0.065 0.047,0.044 c 0.034,0 0.068,-10e-4 0.103,-10e-4 v 0 l 0.037,-0.024 0.093,-0.005 0.039,0.032 0.108,-0.069 0.063,-0.065 0.07,-0.045 0.089,-0.003 0.007,-0.062 c 0.002,-0.04 0.003,-0.079 0.006,-0.118 v 0 l -0.018,-0.09 0.076,0.017 0.054,-0.039 0.02,-0.052 0.078,-0.004 0.048,0.057 0.078,0.031 c -0.004,0.027 -0.006,0.054 -0.009,0.081 v 0 l 0.064,0.093 0.043,-0.072 0.123,-0.157 0.088,-0.091 0.075,-0.084 -0.008,-0.036 -0.039,-0.009 0.034,-0.049 0.076,-0.054 0.069,-0.054 0.1,-0.026 0.08,-0.036 0.076,-0.003 -0.043,-0.048 -0.112,-0.029 -0.092,-0.034 -0.012,-0.058 0.051,-0.018 0.051,0.039 0.077,0.049 c 0.036,0.001 0.072,0.001 0.108,0.002 v 0 l 0.028,-0.047 0.101,-0.013 0.011,-0.08 -0.021,-0.039 0.05,-0.036 -0.031,-0.04 -0.068,-0.031 -0.138,-0.016 -0.066,-0.089 -0.08,-0.065 -0.089,-0.006 -0.116,0.018 -0.224,-0.006 c -0.042,0 -0.082,-0.001 -0.125,-0.001 v 0 l -0.077,-0.03 -0.035,-0.08 -0.096,-0.005 -0.078,-0.065 -0.033,-0.071 c -0.049,0 -0.098,0 -0.147,0 v 0 l 0.118,-0.03 -0.046,-0.04 -0.07,-0.082 -0.046,-0.076 0.118,0.082 0.144,0.142 0.148,0.086 0.134,0.04 0.127,-0.009 0.014,-0.105 -0.083,-0.066 0.062,-0.131 0.104,-0.077 0.098,-0.046 0.115,0.006 0.057,0.109 0.096,0.027 -0.003,-0.072 -0.066,-0.062 -0.065,-0.09 -0.094,-0.021 -0.092,-0.048 -0.089,-0.027 -0.045,-0.032 -0.062,-0.054 -0.06,0.027 c -0.006,0.024 -0.011,0.057 -0.011,0.082 v 0 c 0.023,0.017 0.053,0.041 0.076,0.058 v 0 c 0.047,0.002 0.093,0.002 0.139,0.003 v 0 c 0.01,0.01 0.024,0.023 0.034,0.033 v 0 c -0.083,0.028 -0.083,0.028 -0.259,0.022 v 0 l -0.059,-0.079 -0.099,-0.057 -0.111,0.005 -0.026,-0.058 c -0.029,0 -0.057,0 -0.085,0 v 0 l -0.072,-0.1 0.006,-0.134 0.029,-0.064 -0.11,-0.011 -0.092,-0.053 c -0.049,0 -0.098,0 -0.148,0 v 0 l -0.051,-0.163 -0.049,-0.05 -0.046,-0.075 -0.041,-0.089 -0.064,0.089 -0.078,-0.038 0.043,-0.061 -0.024,-0.066 0.049,-0.057 0.064,-0.123 -0.079,-0.044 -0.018,-0.073 -0.103,-0.04 -0.109,-0.071 -0.116,-0.097 -0.097,-0.038 -0.067,-0.126 c -0.012,-0.028 -0.026,-0.064 -0.037,-0.091 v 0 c -0.009,-0.087 -0.011,-0.145 -0.013,-0.203 v 0 l 0.071,-0.135 0.031,-0.153 0.032,-0.1 -0.029,-0.083 -0.036,-0.052 -0.058,0.018 -0.004,0.078 -0.063,0.036 -0.026,0.07 -0.051,0.048 -0.016,0.065 -0.038,0.059 c 0.002,0.033 0.003,0.066 0.004,0.1 v 0 l -0.065,0.088 -0.071,0.07 -0.045,-0.011 -0.036,-0.046 c -0.017,0 -0.034,0.001 -0.051,0.001 v 0 l -0.057,0.083 -0.155,0.019 -0.085,-0.01 -0.122,-0.003 -0.033,-0.091 0.013,-0.059 -0.077,-0.004 c -0.032,10e-4 -0.066,10e-4 -0.099,0.002 v 0 l -0.05,0.078 -0.067,-0.028 -0.079,0.03 -0.113,0.021 -0.087,-0.079 -0.085,-0.067 -0.081,-0.003 -0.105,-0.132 0.044,-0.142 -0.034,-0.135 -0.06,-0.118 0.009,-0.155 0.036,-0.217 0.072,-0.128 0.036,-0.098 0.109,-0.063 0.061,-0.088 0.131,0.015 0.129,0.033 0.09,0.01 0.051,0.113 0.047,0.126 0.048,0.084 0.107,0.014 0.17,0.009 0.05,-0.036 -0.012,-0.091 -0.07,-0.046 c -10e-4,-0.041 -10e-4,-0.081 -0.002,-0.122 v 0 l -0.04,-0.107 -0.029,-0.067 v -0.061 -0.048 l -0.074,-0.06 0.08,-0.056 0.12,0.047 0.108,-0.027 0.156,0.01 0.103,-0.056 0.053,-0.08 c 0,-0.034 0,-0.067 0,-0.101 v 0 l -0.033,-0.149 c 0,-0.04 10e-4,-0.079 10e-4,-0.119 v 0 l -0.004,-0.089 0.106,-0.112 0.075,-0.053 0.163,-0.014 0.111,-0.007 c 0.056,-10e-4 0.112,-10e-4 0.169,-0.002 v 0 l 0.059,-0.07 -0.028,-0.076 -0.053,-0.004 -0.018,0.057 -0.163,0.013 -0.045,-0.058 0.007,-0.091 -0.093,0.041 -0.175,0.089 c -0.064,-0.004 -0.064,-0.004 -0.203,0.125 v 0 l -0.071,0.036 -0.05,-0.022 -0.041,0.047 c 0.017,0.059 0.017,0.059 -0.189,0.346 v 0 l -0.068,0.038 -0.006,-0.061 -0.125,0.045 -0.062,0.091 -0.057,0.026 -0.039,0.001 c -0.034,0 -0.068,10e-4 -0.101,0.002 v 0 l -0.068,0.086 -0.123,0.106 -0.11,0.063 -0.098,-0.009 -0.027,-0.048 -0.087,-0.003 -0.137,0.047 -0.165,0.097 -0.149,0.077 -0.125,0.091 -0.12,0.047 -0.095,0.094 -0.115,0.114 0.017,0.072 0.058,0.039 -0.054,0.057 -0.036,0.116 -0.099,0.136 -0.043,0.096 -0.058,0.093 -0.084,0.063 -0.006,0.094 -0.051,0.086 -0.073,0.086 -0.076,0.122 -0.066,0.149 0.01,0.11 -0.036,0.071 -0.071,0.045 -0.055,-0.003 -0.01,-0.127 0.054,-0.101 0.022,-0.118 0.057,-0.033 0.008,-0.094 0.054,-0.074 0.018,-0.095 0.019,-0.102 0.067,-0.068 0.004,-0.078 0.06,-0.039 0.023,-0.09 -0.013,-0.078 -0.041,-0.021 -10e-4,0.072 -0.045,0.062 -0.062,0.074 -0.068,0.039 -0.014,0.055 0.014,0.064 -0.045,0.08 -0.082,0.076 -0.063,0.068 -0.029,0.067 0.062,0.048 -0.012,0.061 -0.057,0.084 -0.044,0.073 -0.016,0.163 -0.015,0.099 -10e-4,0.098 -0.045,0.084 -0.075,0.056 -0.042,0.065 c -0.026,0.002 -0.051,0.004 -0.075,0.006 v 0 l -0.03,0.093 0.006,0.079 -0.038,0.065 0.002,0.151 -0.04,0.076 -0.018,0.09 0.035,0.104 -0.009,0.071 0.014,0.082 0.048,0.1 -0.004,0.108 c 0.011,0.034 0.024,0.067 0.036,0.1 v 0 l 0.046,0.034 c 0.019,0.05 0.038,0.1 0.058,0.15 v 0 l 0.06,0.132 0.044,0.096 0.017,0.123 0.011,0.097 -0.049,0.096 -0.016,0.057 -0.023,0.042 10e-4,0.065 0.043,0.006 0.025,-0.017 0.022,-0.022 0.017,-0.041 c 0.014,-10e-4 0.028,-0.003 0.043,-0.004 v 0 l -0.031,-0.078 0.028,-0.023 0.032,-0.053 -0.012,-0.05 0.01,-0.082 0.014,-0.064 c 0.013,0.031 0.027,0.064 0.041,0.094 v 0 l 0.025,0.121 -0.027,0.058 -0.039,0.069 0.014,0.048 -0.04,0.029 -0.046,0.04 -0.035,0.052 0.018,0.063 -0.011,0.09 0.037,0.089 -0.048,0.015 0.028,0.075 0.041,0.077 0.012,0.071 0.04,0.063 -0.033,0.012 -0.022,0.026 0.048,0.052 -0.029,0.046 0.051,0.054 -0.039,0.032 0.021,0.062 -0.005,0.042 c -0.013,-0.003 -0.029,-0.009 -0.042,-0.012 v 0 c -10e-4,0.026 -0.002,0.061 -0.003,0.087 v 0 l -0.013,0.057 0.013,0.057 c -0.011,0.002 -0.022,0.003 -0.033,0.005 v 0 l -0.009,0.032 -0.057,-0.013 -0.023,0.03 0.005,0.055 0.009,0.03 c -0.056,-0.053 -0.113,-0.107 -0.168,-0.162 v 0 c -1.293,-1.295 -2.005,-3.018 -2.002,-4.85 v 0 c 0.005,-3.783 3.087,-6.86 6.87,-6.86 v 0 h 10e-4 c 1.833,0 3.554,0.713 4.849,2.009 v 0 c 0.63,0.632 1.122,1.364 1.46,2.162 v 0 c 0.045,0.163 0.116,0.435 0.244,0.925 v 0 c 0.019,0.073 0.03,0.119 0.04,0.165 v 0 c -0.034,-0.009 -0.073,-0.018 -0.115,-0.028 v 0 c -0.022,0.03 -0.022,0.03 -0.012,0.19 v 0 c -0.011,0.006 -0.024,0.014 -0.035,0.018 v 0 c -0.019,-0.014 -0.042,-0.039 -0.053,-0.06 v 0 c -0.014,-0.017 -0.017,-0.018 -0.02,-0.019 v 0 c -0.129,0.016 -0.134,-0.145 -0.241,-0.162 v 0 c -0.005,0.012 -0.01,0.028 -0.016,0.04 v 0 c -0.022,0.007 -0.054,0.008 -0.077,0.003 v 0 l -0.013,-10e-4 c -0.024,-0.005 -0.055,-0.009 -0.079,-0.012 v 0 c -0.02,-0.035 -0.034,-0.074 -0.058,-0.107 v 0 c -0.083,0.023 -0.109,0.104 -0.165,0.155 v 0 c 0.004,0.039 0.01,0.079 0.013,0.119 v 0 c -0.153,0.089 -0.153,0.089 -0.129,0.285 v 0 c -0.012,0.002 -0.028,0.003 -0.04,0.004 v 0 c -0.013,0.04 -0.012,0.083 -0.031,0.12 v 0 c -0.013,0.001 -0.028,0.003 -0.04,0.004 v 0 c -0.076,0.099 -0.095,0.123 -0.092,0.227 v 0 c 0.002,0.016 0.003,0.032 0.004,0.048 v 0 c -0.005,0.054 -0.019,0.107 -0.021,0.161 v 0 c 0.048,0.05 0.048,0.05 0.061,0.1 v 0 c 0,0.047 0,0.063 0,0.079 v 0 c 0.001,0.308 0.001,0.308 0.026,0.392 v 0 c -0.005,0.011 -0.011,0.027 -0.016,0.039 v 0 c -0.042,0.005 -0.084,0.003 -0.126,0.008 v 0 c -10e-4,0.028 -0.002,0.056 -0.004,0.084 v 0 c 0.068,0.336 0.068,0.336 0.066,0.355 v 0 c 0.011,0.002 0.027,0.007 0.038,0.01 v 0 l 0.013,0.007 c 0.144,0.132 -0.018,0.366 0.169,0.485 v 0 c 0.013,0.067 0.051,0.129 0.043,0.201 v 0 c 0.025,0.003 0.051,0.006 0.075,0.009 v 0 c -0.004,0.027 -0.009,0.054 -0.014,0.081 v 0 c -0.017,0.099 -0.024,0.198 -0.039,0.298 v 0 c 0.024,0.039 0.054,0.043 0.083,0.046 v 0 c -0.016,0.062 -0.03,0.125 -0.046,0.187 v 0 c 0.023,-0.001 0.056,0.003 0.078,0.009 v 0 c -0.009,0.068 -0.035,0.133 -0.029,0.202 v 0 c 0.008,-0.004 0.02,-0.008 0.028,-0.012 v 0 c 0.034,-0.036 0.05,-0.043 0.104,-0.032 v 0 c 0.008,0.002 0.008,0.002 0.008,0.002 v 0 c 0.011,-0.002 0.027,-0.005 0.039,-0.006 v 0 l 0.009,10e-4 c 0.008,0.008 0.018,0.02 0.026,0.028 v 0 c 0.011,10e-4 0.027,0.002 0.039,0.003 v 0 c 0.011,0.03 0.011,0.03 10e-4,0.119 v 0 c 0.029,0.016 0.058,0.021 0.086,0.026 v 0 c 0,0.039 0.026,0.07 0.037,0.105 v 0 c 0.044,-0.006 0.044,-0.006 0.089,-0.071 v 0 c 0.028,0.047 0.085,0.071 0.109,0.122 v 0 l 0.327,-0.635 c -0.053,0.218 -0.118,0.433 -0.192,0.643 v 0 c -0.005,-10e-4 -0.012,-10e-4 -0.022,0 v 0 c -0.035,0.02 -0.04,0.064 -0.068,0.09 v 0 c -0.003,0.007 -0.008,0.018 -0.01,0.025 v 0 c 0.033,0.012 0.033,0.012 0.048,0.012 v 0 c 0,0.006 10e-4,0.009 10e-4,0.014 v 0 c -0.031,0.084 -0.065,0.165 -0.099,0.247 v 0 c -0.069,0.1 -0.146,0.176 -0.179,0.21 v 0 c -0.017,0.031 -0.018,0.032 -0.036,0.048 v 0 c -0.062,0.056 -0.058,0.164 -0.158,0.188 v 0 c 0.006,-0.021 0.006,-0.023 0.009,-0.062 v 0 l -0.011,-0.011 c -0.002,-10e-4 -0.004,-10e-4 -0.012,-0.01 v 0 c 0.014,-0.054 0.014,-0.054 0.026,-0.077 v 0 l -0.008,-0.015 c -0.004,0 -0.006,-0.001 -0.023,-0.002 v 0 c -0.016,0.008 -0.028,0.019 -0.042,0.028 v 0 h -10e-4 -10e-4 v 0 h -10e-4 -0.002 c -0.07,0.022 -0.042,-0.034 0.014,-0.145 v 0 c 0.003,-0.008 0.007,-0.015 0.009,-0.021 v 0 c 0.01,-0.022 0.018,-0.042 0.025,-0.065 v 0 c -0.007,-0.004 -0.019,-0.008 -0.029,-0.009 v 0 c -0.029,-0.048 -0.029,-0.048 -0.023,-0.089 v 0 c -0.007,-0.004 -0.017,-0.014 -0.021,-0.022 v 0 c 10e-4,-0.01 0.004,-0.023 0.006,-0.033 v 0 c 0.018,-0.101 0.018,-0.101 0.069,-0.187 v 0 c 0.008,-0.024 0.017,-0.048 0.026,-0.072 v 0 c -0.059,-0.034 -0.053,-0.105 -0.09,-0.152 v 0 c -0.067,-0.008 -0.018,-0.108 -0.086,-0.115 v 0 l -0.007,-0.013 0.011,-0.004 c 0,-0.008 0.001,-0.018 0.001,-0.026 v 0 c -0.024,0.022 -0.033,0.052 -0.052,0.077 v 0 c -0.021,0.012 -0.04,0.025 -0.061,0.037 v 0 c -0.005,-0.008 -0.017,-0.016 -0.026,-0.019 v 0 c -0.015,0.006 -0.023,0.021 -0.034,0.03 v 0 c -0.009,0 -0.022,-0.005 -0.03,-0.01 v 0 c -0.012,-0.001 -0.023,-0.003 -0.037,0.003 v 0 c -0.023,0.062 -0.026,0.074 -0.023,0.103 v 0 l -0.007,0.022 c -0.002,0.007 -0.005,0.015 -0.008,0.022 v 0 c -0.004,0.008 -0.011,0.019 -0.017,0.026 v 0 c -0.037,0.059 -0.028,0.129 -0.047,0.193 v 0 c -0.015,0.041 -0.03,0.083 -0.05,0.131 v 0 c -0.06,0.064 -0.063,0.157 -0.118,0.223 v 0 l -0.003,0.022 c 0.018,0.002 0.036,0.004 0.054,0.014 v 0 c -0.003,0.01 -0.007,0.024 -0.011,0.033 v 0 l 0.006,0.013 h 0.008 c 0.015,-0.013 0.015,-0.013 0.064,-0.018 v 0 c 0.031,0.005 0.061,0.008 0.101,0.01 v 0 c 0.031,-0.03 0.075,-0.032 0.111,-0.052 v 0 c 0.003,0 0.006,10e-4 0.02,0.011 v 0 c 0.003,0.009 0.006,0.022 0.009,0.032 v 0 c -0.044,0.183 -0.044,0.183 -0.181,0.346 v 0 c -0.018,0.035 -0.036,0.07 -0.055,0.105 v 0 c -0.034,0.029 -0.066,0.059 -0.102,0.087 v 0 l -0.011,-0.002 c -0.01,-0.001 -0.03,-0.006 -0.065,0.033 v 0 l -0.01,-10e-4 c -0.031,0.035 -0.026,0.048 -0.016,0.07 v 0 c 0.009,0.003 0.02,0.01 0.027,0.016 v 0 c 0,-0.001 0.05,-0.042 0.096,-0.022 v 0 c -0.004,0.008 -0.009,0.016 -0.014,0.024 v 0 l -0.015,0.019 c -0.009,0.017 -0.022,0.043 -0.04,0.052 v 0 c -0.012,0.02 -0.022,0.039 -0.031,0.061 v 0 c 0.01,-10e-4 0.021,-0.007 0.027,-0.014 v 0 c 0.005,-0.006 0.009,-0.013 0.013,-0.019 v 0 c 0.008,-0.003 0.022,-0.003 0.031,-0.001 v 0 l 0.012,-0.008 c 0.011,0.002 0.02,0.004 0.03,0.005 v 0 c -0.012,0.019 -0.023,0.038 -0.03,0.066 v 0 c 0.008,0.006 0.02,0.012 0.03,0.015 v 0 c -0.024,0.037 -0.049,0.075 -0.065,0.115 v 0 l 0.015,0.003 c 0.003,0 0.006,0 0.006,0.013 v 0 c -0.016,0.07 -0.016,0.07 10e-4,0.088 v 0 c -0.015,0.021 -0.028,0.041 -0.043,0.061 v 0 l -0.026,0.016 c -0.008,0.011 -0.017,0.024 -0.012,0.039 v 0 l 0.005,0.001 0.007,0.002 h 0.017 c -0.007,0.015 -0.007,0.015 -0.032,0.064 v 0 l 0.007,0.014 c -0.003,0.008 -0.006,0.021 -0.005,0.03 v 0 c 0.009,0.002 0.021,0.003 0.03,0.002 v 0 l 0.009,0.002 0.01,0.013 0.008,0.002 c -0.009,0.012 -0.018,0.023 -0.031,0.04 v 0 c -0.02,0.023 -0.041,0.044 -0.061,0.065 v 0 c -0.01,0.015 -0.019,0.028 -0.03,0.042 v 0 c -0.004,0.005 -0.009,0.011 -0.016,0.02 v 0 c -0.059,0.06 -0.105,0.13 -0.157,0.194 v 0 c -0.003,0.003 -0.005,0.006 -0.017,0.019 v 0 c -0.008,0.006 -0.017,0.016 -0.023,0.024 v 0 c 0.011,0.043 -0.042,0.06 -0.043,0.098 v 0 c 0.045,-0.041 0.045,-0.041 0.12,-0.132 v 0 h 0.015 c 0.009,-0.009 0.016,-0.017 0.03,-0.035 v 0 c 0.036,-0.052 0.036,-0.052 0.053,-0.065 v 0 l 0.002,0.005 c -0.025,0.039 -0.025,0.039 -0.02,0.055 v 0 c 0.002,0.001 0.005,0.002 0.016,-0.006 v 0 c 0.036,-0.04 0.119,-0.135 0.119,-0.166 v 0 c -0.038,0.024 -0.038,0.024 -0.043,0.025 v 0 c -0.006,-10e-4 -0.012,-0.003 -0.011,-0.016 v 0 c 0.006,-0.008 0.014,-0.018 0.021,-0.025 v 0 c 0.008,-0.01 0.016,-0.021 0.024,-0.031 v 0 l 0.009,0.002 0.003,0.006 c 0.034,-0.042 0.034,-0.042 0.055,-0.049 v 0 l 0.009,0.003 c -0.033,0.041 -0.033,0.041 -0.037,0.06 v 0 c 0.003,10e-4 0.005,0.002 0.015,0.01 v 0 l -0.007,0.015 c 0.003,10e-4 0.005,0.002 0.015,-0.006 v 0 c 0.033,-0.041 0.035,-0.042 0.053,-0.059 v 0 l 0.009,0.003 c -0.053,0.066 -0.107,0.131 -0.163,0.196 v 0 c 0.006,-0.007 0.012,-0.015 0.02,-0.026 v 0 c -0.008,-0.003 -0.016,-0.006 -0.025,-0.009 v 0 c -0.011,0.011 -0.021,0.023 -0.031,0.034 v 0 l -0.007,0.009 c -0.019,0.022 -0.032,0.047 -0.055,0.065 v 0 c -0.056,0.045 -0.056,0.045 -0.078,0.069 v 0 l -0.014,0.016 -0.016,0.017 c -0.005,0.005 -0.005,0.005 -0.048,0.038 v 0 c -0.015,0.011 -0.015,0.011 -0.06,0.063 v 0 l -0.009,0.008 c -0.019,0.02 -0.044,0.035 -0.063,0.055 v 0 c -0.074,0.076 -0.092,0.08 -0.099,0.081 v 0 c 0.011,-0.011 0.022,-0.022 0.033,-0.033 v 0 l 0.003,-0.009 -0.008,-0.003 c 0.012,-0.016 0.023,-0.031 0.034,-0.046 v 0 -0.001 c 0.028,-0.039 0.028,-0.039 0.033,-0.049 v 0 c 0.004,-0.007 0.002,-0.008 -0.004,-0.009 v 0 c -10e-4,-10e-4 0,-0.003 0.005,-0.01 v 0 l 0.005,-0.007 c 0,0 0.008,-0.014 0,-0.017 v 0 c -0.005,-0.002 -0.008,0.005 -0.012,0.006 v 0 l -0.006,0.002 -0.006,0.002 -0.002,-0.011 c -0.011,0.007 -0.021,0.015 -0.03,0.024 v 0 l -0.01,0.008 h -0.002 l -0.004,-0.002 h -0.005 l -0.006,-0.003 -0.012,0.013 c -0.006,0.006 -0.013,0.01 -0.018,0.016 v 0 l -0.011,0.014 -0.002,0.003 c 0.024,0.005 0.045,0.01 0.066,0.015 v 0 c -0.021,-0.005 -0.043,-0.009 -0.068,-0.009 v 0 c -0.006,0.01 -0.006,0.01 -0.039,0.047 v 0 c -0.042,-0.002 -0.056,0.028 -0.069,0.059 v 0 c -0.013,0.031 -0.027,0.064 -0.07,0.059 v 0 l -0.014,-0.003 c -0.011,0.011 -0.022,0.022 -0.033,0.033 v 0 l -0.012,0.015 0.003,0.005 c -0.048,0.053 -0.119,0.084 -0.147,0.155 v 0 l 0.008,0.004 c -0.074,0.105 -0.074,0.105 -0.076,0.109 v 0 h 10e-4 10e-4 l 0.004,0.005 v 0.009 c -0.013,0.011 -0.025,0.02 -0.039,0.03 v 0 l -0.029,0.026 c 0.003,0 0.006,0.001 0.014,0 v 0 c 0.006,-0.003 0.014,-0.004 0.021,-0.005 v 0 c -0.124,0.141 -0.124,0.141 -0.134,0.15 v 0 c -0.002,-0.001 -0.005,-0.002 -0.014,-0.004 v 0 c -0.032,0.024 -0.05,0.059 -0.078,0.088 v 0 l 0.012,-0.009 c -0.006,0.005 -0.021,0.017 -0.04,0.032 v 0 c -0.868,0.61 -1.882,1.024 -2.979,1.178 v 0 c 0.021,-0.01 0.043,-0.019 0.064,-0.028 v 0 l 0.003,-0.002 c 0.012,-0.01 0.012,-0.01 0.053,-0.026 v 0 l -0.011,-10e-4 c 0.108,-0.045 0.108,-0.045 0.11,-0.05 v 0 c 0.012,-0.006 0.052,-0.026 0.077,-0.033 v 0 c -0.006,0.005 -0.016,0.011 -0.024,0.014 v 0 c 0.027,0.011 0.09,-0.017 0.09,-0.017 v 0 l -0.004,-0.005 -0.014,0.002 c 0.018,-0.009 0.035,-0.018 0.054,-0.026 v 0 c 0.014,0 0.016,0 0.018,0 v 0 l 0.013,0.007 c 0.013,-0.006 0.028,-0.011 0.041,-0.017 v 0 c 0.007,-0.002 0.009,-0.003 0.012,-0.005 v 0 c 0.007,-0.005 0.016,-0.01 0.024,-0.014 v 0 c 0.05,-0.024 0.096,-0.046 0.142,-0.07 v 0 l 10e-4,-0.004 c -0.06,0.025 -0.06,0.025 -0.107,0.053 v 0 l -0.008,0.003 c -0.012,0.006 -0.012,0.006 -0.043,0.016 v 0 c -0.013,-0.001 -0.016,-0.001 -0.02,-0.001 v 0 l -0.011,-0.006 0.011,-0.008 c 0.008,-0.007 0.01,-0.008 0.014,-0.01 v 0 c 0.063,-0.031 0.134,-0.042 0.199,-0.07 v 0 c 0.024,-0.012 0.04,-0.021 0.057,-0.03 v 0 l -0.014,-0.002 0.003,-0.006 c 0.056,-0.035 0.12,-0.051 0.178,-0.081 v 0 c -0.006,-0.01 -0.009,-0.01 -0.012,-0.01 v 0 l -0.012,0.003 0.012,-0.015 c -0.015,-0.008 -0.017,-0.009 -0.04,-0.005 v 0 c 0.009,-0.014 0.012,-0.018 0.049,-0.027 v 0 l 0.005,0.01 c 0.059,-0.014 0.083,-0.037 0.104,-0.057 v 0 c -0.008,-0.002 -0.02,-0.001 -0.028,0.002 v 0 c -0.009,0 -0.012,0 -0.014,0 v 0 l 10e-4,-0.013 c -0.01,-0.005 -0.019,-0.005 -0.028,-0.006 v 0 c -0.015,0.01 -0.028,0.019 -0.043,0.028 v 0 c -0.01,0 -0.018,0 -0.028,-10e-4 v 0 l 0.006,-0.008 c 0.045,-0.016 0.045,-0.016 0.05,-0.019 v 0 c 0.002,-0.008 0.007,-0.018 0.014,-0.025 v 0 c 0.011,-0.003 0.02,-0.002 0.028,-0.002 v 0 l -0.007,0.011 c 0.029,0.013 0.048,-0.002 0.087,-0.034 v 0 c 0.007,-0.004 0.011,-0.008 0.017,-0.012 v 0 c 0.019,-0.013 0.039,-0.027 0.057,-0.043 v 0 c -0.015,-0.002 -0.018,-0.002 -0.019,-0.002 v 0 c -0.011,0.001 -0.011,0.001 -0.057,0.025 v 0 L 543,352.544 c 0.146,-0.055 0.295,-0.158 0.296,-0.159 v 0 c -0.011,-0.008 -0.025,-0.008 -0.035,-0.016 v 0 c 0.004,-0.006 0.011,-0.015 0.017,-0.023 v 0 l -0.013,-0.007 c -0.045,0.019 -0.073,0.063 -0.122,0.076 v 0 c 0.004,-0.007 0.01,-0.018 0.011,-0.027 v 0 c -0.014,-0.007 -0.017,-0.009 -0.037,-0.01 v 0 h -0.002 c -10e-4,-0.013 0.009,-0.021 0.018,-0.028 v 0 c 0.034,-0.029 0.068,-0.041 0.112,-0.039 v 0 l 0.007,0.001 c 0.027,-0.003 0.046,-0.024 0.071,-0.03 v 0 c 0.008,-10e-4 0.01,0 0.011,0 v 0 l -0.002,0.016 -0.004,0.012 0.014,0.002 c 0.011,-0.009 0.019,-0.015 0.027,-0.048 v 0 c -0.019,-0.006 -0.034,-0.007 -0.048,-0.008 v 0 c -0.005,-0.029 0.027,-0.047 0.025,-0.077 v 0 l -0.009,-0.007 -0.003,-0.012 c -0.008,-0.002 -0.018,-0.008 -0.021,-0.013 v 0 c -0.009,-10e-4 -0.02,-0.004 -0.026,-0.008 v 0 c 10e-4,-0.02 0.012,-0.04 0.002,-0.062 v 0 c -0.031,-0.009 -0.031,-0.009 -0.123,0.017 v 0 l -0.012,0.008 -0.004,0.001 -0.01,0.005 -0.003,10e-4 -0.004,0.001 -0.004,10e-4 c -0.011,0.001 -0.013,0.001 -0.014,0.001 v 0 l 0.002,-0.001 c 0.03,-0.034 0.03,-0.034 0.038,-0.047 v 0 l -0.009,-0.011 0.004,-0.013 c 0.004,-0.006 0.008,-0.01 0.012,-0.015 v 0 l -0.012,-0.012 c 0.01,-0.024 0.01,-0.024 0.016,-0.038 v 0 l -0.008,-0.008 c 10e-4,-0.009 0.006,-0.019 0.008,-0.027 v 0 c -0.012,-0.022 -0.012,-0.022 -0.005,-0.045 v 0 l 0.01,-0.011 c -0.011,-0.013 -0.014,-0.016 -0.035,-0.016 v 0 l -0.013,-10e-4 c -0.014,-0.02 -0.005,-0.046 -0.015,-0.067 v 0 c -0.024,0.002 -0.024,0.002 -0.043,-0.002 v 0 c -0.017,0.022 -0.017,0.022 -0.043,0.061 v 0 c -0.012,-10e-4 -0.027,-10e-4 -0.04,-0.002 v 0 c 0.01,-0.019 0.012,-0.023 0.037,-0.054 v 0 c -0.025,-10e-4 -0.05,-0.002 -0.075,-0.003 v 0 c 0.007,-0.017 0.02,-0.031 0.025,-0.049 v 0 c -0.011,-0.015 -0.011,-0.015 -0.049,-0.022 v 0 c 0.012,-0.04 0.081,-0.041 0.07,-0.095 v 0 c 0.013,-0.028 0.029,-0.054 0.043,-0.08 v 0 l -0.006,-0.011 -0.013,-0.001 c -0.013,-0.022 -0.013,-0.022 0.011,-0.064 v 0 c -0.007,-0.004 -0.017,-0.008 -0.025,-0.008 v 0 c -0.015,-0.005 -0.018,-0.005 -0.024,-0.006 v 0 c -0.008,0 -0.02,-0.005 -0.027,-0.01 v 0 l 0.004,-0.013 c 0.019,-0.044 0.059,-0.072 0.086,-0.11 v 0 c 0.032,-0.045 10e-4,-0.099 0.022,-0.145 v 0 c 0.007,-0.015 0.01,-0.02 0.012,-0.026 v 0 l 0.008,-0.013 c -0.044,-0.125 -0.187,0.047 -0.281,0.067 v 0 l -0.007,-10e-4 c -0.008,-0.002 -0.019,-0.004 -0.026,-0.008 v 0 C 542.754,351.2 542.75,351.2 542.743,351.2 v 0 c -0.052,-0.005 -0.483,0.327 -0.434,0.388 v 0 c 0.009,0.01 0.021,0.016 0.027,0.028 v 0 c -0.007,0.025 -0.016,0.045 -0.024,0.064 v 0 c -0.008,0.002 -0.02,0.003 -0.028,0.003 v 0 c -0.012,-0.013 -0.012,-0.033 -0.023,-0.046 v 0 c -0.022,0 -0.022,0 -0.079,0.114 v 0 l 0.01,0.008 c 0.006,10e-4 0.011,10e-4 0.015,10e-4 v 0 c -0.004,0.024 -0.004,0.024 -0.017,0.034 v 0 c -0.014,0.002 -0.018,0.002 -0.023,0.002 v 0 h -0.012 l -0.005,-0.013 c -0.067,-0.028 -0.115,0.087 -0.115,0.089 v 0 c 0.005,0.006 0.016,0.014 0.025,0.015 v 0 c -0.017,0.052 -0.077,0.048 -0.108,0.082 v 0 c -0.004,0.008 -0.004,0.011 -0.005,0.014 v 0 l -0.007,0.012 0.006,0.012 c 0.024,0.007 0.024,0.007 0.029,0.024 v 0 c 0.009,-0.001 0.019,-0.003 0.028,-0.005 v 0 c 0.002,0.02 -0.008,0.042 -0.019,0.064 v 0 l 0.013,0.004 0.012,-0.005 c 0.008,0 0.012,0 0.016,0 v 0 h 0.002 0.013 c 0.001,0.007 0.006,0.017 0.009,0.023 v 0 l 0.016,-0.002 c 0.011,10e-4 0.023,10e-4 0.034,10e-4 v 0 c -0.007,0.013 -0.014,0.026 -0.021,0.039 v 0 c -0.012,0.013 -0.012,0.013 -0.045,0.034 v 0 c -0.004,0.007 -0.005,0.009 -0.006,0.011 v 0 l 0.005,0.014 -0.006,0.011 0.005,0.011 -0.003,0.006 c -0.015,0.018 -0.019,0.018 -0.036,0.022 v 0 c -0.019,0 -0.026,-0.001 -0.035,-0.001 v 0 c -0.032,0.006 -0.032,0.006 -0.063,0.02 v 0 c -0.017,0 -0.024,0 -0.032,0 v 0 l 0.001,-0.013 c 0.007,-10e-4 0.018,-0.002 0.026,-0.003 v 0 l 0.009,-0.011 c 0.014,0 0.027,-0.003 0.041,-0.003 v 0 c 0.016,-0.014 0.023,-0.029 0.031,-0.045 v 0 c -0.026,0 -0.026,0 -0.041,-10e-4 v 0 c -0.005,-0.007 -0.01,-0.018 -0.013,-0.025 v 0 l -0.016,-0.004 c -0.032,0.02 -0.073,0.015 -0.103,0.04 v 0 c -0.035,0.03 -10e-4,0.049 0,0.049 v 0 l 0.013,0.002 0.007,0.011 c -0.018,0.017 -0.04,0.029 -0.056,0.048 v 0 c 0.032,0.015 0.062,0.006 0.09,-0.004 v 0 c 0.02,-0.007 0.04,-0.013 0.061,-0.011 v 0 h 0.002 l 0.023,0.001 0.014,-0.004 c 0.01,10e-4 0.016,10e-4 0.024,10e-4 v 0 l -0.004,0.012 c -0.008,0.01 -0.027,0.027 -0.069,0.045 v 0 h -0.002 -10e-4 -0.002 -0.001 -10e-4 -10e-4 c -0.049,0 -0.071,0.088 -0.126,0.053 v 0 l 0.006,-0.013 c -0.016,-0.006 -0.034,-0.007 -0.051,-0.007 v 0 l -0.014,0.003 c -0.016,0.002 -0.02,0.002 -0.023,10e-4 v 0 c -0.025,0.004 -0.026,0.007 -0.038,0.019 v 0 c -0.006,0.01 -0.009,0.017 -0.013,0.025 v 0 c 0.007,0 0.014,0 0.02,0 v 0 c -0.004,0.018 -0.017,0.03 -0.022,0.046 v 0 l 0.009,0.008 c 0.006,0.007 0.002,0.015 -0.002,0.022 v 0 c -0.008,0 -0.016,0 -0.025,0 v 0 c -0.003,0.006 -0.006,0.017 -0.004,0.024 v 0 c -0.005,0.013 -0.011,0.023 -0.015,0.032 v 0 c -0.025,0.023 -0.025,0.023 -0.028,0.032 v 0 c -0.004,0.01 -0.005,0.011 -0.005,0.012 v 0 l -0.021,0.015 -0.008,0.004 c -0.006,0.006 -0.015,0.016 -0.021,0.022 v 0 c -0.023,0.022 -0.023,0.022 -0.026,0.025 v 0 l -0.007,0.005 -0.007,0.007 -0.009,0.005 c -0.004,0.005 -0.012,0.011 -0.019,0.014 v 0 l -0.003,0.006 -0.015,0.014 -0.007,0.004 -0.006,0.002 -0.007,0.003 h -0.008 l -0.005,0.002 -0.006,0.004 -0.006,0.006 -0.01,0.008 c -0.007,0.012 -0.012,0.023 -0.018,0.035 v 0 l -0.017,0.012 c -0.01,0.001 -0.012,0.001 -0.013,0.001 v 0 l -0.014,0.006 -0.018,0.013 h -0.005 -0.004 l -0.018,0.004 c -0.006,0.003 -0.014,0.008 -0.02,0.01 v 0 l -0.005,0.001 h -0.027 l -0.005,10e-4 -0.006,0.001 -0.005,0.005 c -0.006,0.003 -0.014,0.006 -0.021,0.009 v 0 h -0.003 l -0.014,0.001 h -0.012 l -0.004,0.002 c -0.013,0.008 -0.018,0.011 -0.028,0.003 v 0 l -0.002,-0.004 -0.003,-10e-4 h -10e-4 -0.001 -10e-4 -10e-4 l -0.004,-0.002 -0.002,-0.002 -0.004,-0.003 -10e-4,-0.004 c -0.008,-10e-4 -0.019,0.001 -0.027,0.004 v 0 l -0.005,0.002 h -0.016 l 0.002,-0.009 -0.002,-10e-4 -0.007,0.003 -0.003,10e-4 -0.005,0.002 c -0.007,0.002 -0.018,0.004 -0.025,0.004 v 0 h -0.012 c 0.002,-0.006 0.006,-0.013 0.009,-0.018 v 0 l 0.003,-0.005 -0.003,-0.003 h -0.005 -0.002 l -0.019,0.005 -0.005,0.004 -0.006,0.003 -0.015,0.006 -0.003,0.002 -0.006,0.003 -0.004,0.002 -0.002,0.005 -0.005,0.003 -0.003,0.006 -0.012,0.004 -0.003,0.005 v 0.003 l 0.003,0.004 0.005,0.004 c -0.017,0.01 -0.038,0.015 -0.058,0.022 v 0 l -0.005,0.005 -0.009,0.01 0.006,0.01 h 0.022 l 0.002,0.012 h 0.006 c 0.007,-0.002 0.017,-0.004 0.024,-0.005 v 0 h 0.005 l 0.014,0.005 c 0.007,10e-4 0.007,10e-4 0.008,10e-4 v 0 h 10e-4 10e-4 0.001 0.007 l 0.004,-10e-4 0.005,-0.003 h 0.003 l 0.006,-0.002 h 0.003 0.004 l 0.012,0.011 0.002,0.002 c 0,0.015 -10e-4,0.02 -0.002,0.026 v 0 l -0.003,-10e-4 c -0.008,10e-4 -0.009,10e-4 -0.011,10e-4 v 0 l -0.012,-0.003 c -0.009,-10e-4 -0.014,-10e-4 -0.02,-10e-4 v 0 l -0.004,-0.002 -0.011,-0.005 h -0.01 c -0.009,0 -0.018,0.004 -0.025,0.009 v 0 l -0.005,0.001 -0.015,0.008 h -0.032 c -0.012,0.014 -0.013,0.016 -0.033,0.016 v 0 c -0.022,0.025 -0.022,0.025 -0.012,0.039 v 0 h 0.016 l 0.003,0.003 0.002,0.004 10e-4,0.003 -10e-4,0.004 0.002,0.003 0.002,0.002 0.004,10e-4 0.004,0.002 c 0.013,0.002 0.026,0 0.039,0.004 v 0 c 0.011,0.004 0.016,0.004 0.022,0.004 v 0 l 0.002,0.002 c 0.004,0.009 0.004,0.011 0.004,0.012 v 0 0.005 c 0.006,0.003 0.016,0.004 0.023,0.004 v 0 l 0.014,-0.004 h 0.013 l 0.008,0.004 0.017,0.004 10e-4,10e-4 0.012,0.003 0.002,0.002 v 0.015 c -0.003,0.008 -0.005,0.012 -0.007,0.018 v 0 l -0.003,0.003 -0.003,0.003 -0.002,0.004 -0.005,0.012 -0.011,10e-4 -0.001,-10e-4 -0.013,-0.002 h -0.008 l -0.004,0.003 -0.002,0.003 c -0.013,0.003 -0.015,0.003 -0.017,0.003 v 0 l 10e-4,0.009 -10e-4,0.004 0.002,0.01 0.003,10e-4 h 0.002 l 0.002,0.003 -10e-4,0.003 10e-4,0.001 10e-4,0.002 0.002,0.003 0.002,10e-4 h 0.003 l 10e-4,0.001 0.01,10e-4 10e-4,0.002 0.002,0.009 0.013,0.013 -10e-4,0.008 c -0.014,0 -0.026,-0.001 -0.04,-0.001 m -0.701,-0.071 -0.016,10e-4 c 0.01,0.006 0.02,0.011 0.029,0.018 v 0 h 0.014 l 0.003,-0.008 -0.027,-0.021 -0.025,-0.008 z m -0.216,-0.047 0.051,0.009 0.019,0.003 -0.003,-0.015 -0.009,-0.014 0.02,0.003 -0.002,-0.012 0.003,-0.012 -0.021,-0.022 -0.005,-0.016 -0.023,-0.022 -0.028,-0.017 -0.017,0.008 0.011,0.029 -0.027,0.006 -0.01,0.002 -0.028,-0.008 0.008,0.013 -0.017,-0.002 0.022,0.021 c 0.007,-0.001 0.015,-0.001 0.022,-0.001 v 0 l 0.029,0.022 10e-4,0.009 -0.016,-10e-4 z m -0.226,-0.056 c -0.01,10e-4 -0.019,10e-4 -0.029,0.002 v 0 c -0.008,10e-4 -0.015,10e-4 -0.022,0.002 v 0 l 0.057,0.019 0.032,0.007 0.025,0.001 c 0,-0.009 0.002,-0.011 0.003,-0.013 v 0 c -10e-4,-10e-4 -0.002,-0.004 -0.028,-0.019 v 0 l -0.002,-10e-4 c -0.012,10e-4 -0.024,0.002 -0.036,0.002 m 0.303,-0.039 0.032,0.035 0.013,0.02 0.029,0.012 -0.003,-0.022 0.028,-0.005 v -0.023 l -0.022,-0.015 -0.029,-0.004 -0.028,-0.004 z m -0.478,-0.002 0.015,0.013 0.03,0.019 0.016,0.002 -0.003,-0.013 -0.041,-0.024 z m -0.005,-0.037 0.046,0.037 0.045,0.013 0.032,0.006 c 0.011,0 0.021,0 0.032,0 v 0 l 0.015,-0.001 -0.038,-0.017 -0.016,-10e-4 -0.015,-0.018 -0.032,-0.016 -0.034,-0.001 -0.028,-0.007 z m 0.297,0.012 0.025,0.022 0.029,0.001 -0.004,-0.018 -0.029,-0.008 z m -0.059,0.021 -0.003,-0.019 -0.029,-0.035 -0.03,-0.009 c 0.016,0.034 0.035,0.047 0.062,0.063 m -0.31,-0.006 0.011,-0.012 -0.055,-0.026 -0.075,-0.039 -0.044,-0.011 -0.029,-0.007 0.036,0.028 -0.046,-0.016 -0.05,-0.024 -0.022,-0.002 -0.034,-0.017 -0.038,-0.012 0.014,0.019 -0.05,-0.022 -10e-4,0.018 0.037,0.026 0.051,0.014 c 0.008,-10e-4 0.016,-0.002 0.024,-0.002 v 0 c 0.06,0.023 0.116,0.05 0.176,0.07 v 0 l 0.015,-0.002 c 0.01,-10e-4 0.02,-0.002 0.03,-0.003 v 0 z m 0.563,-0.024 0.035,0.018 c 0.01,-10e-4 0.019,-10e-4 0.029,-10e-4 v 0 c 0.011,0 0.023,-0.001 0.033,-0.001 v 0 c -0.006,-0.007 -0.011,-0.014 -0.017,-0.02 v 0 l -0.031,-0.006 -0.026,-0.005 -0.04,-10e-4 z m 0.093,-0.029 0.038,0.028 0.041,0.007 c 10e-4,-0.004 10e-4,-0.007 -0.001,-0.031 v 0 c -0.012,-0.004 -0.026,-0.013 -0.037,-0.014 v 0 z m -0.713,-0.017 0.024,0.017 0.002,-0.005 c 0.002,-10e-4 0.01,-10e-4 0.031,0.002 v 0 l -0.032,-0.021 z m 0.548,-0.072 -0.013,0.021 -0.011,0.023 0.032,0.028 0.035,0.005 0.008,-0.011 c 0.01,-0.001 0.021,-0.001 0.031,-0.001 v 0 l 0.003,-0.024 -0.014,-0.021 -0.04,-0.023 z m -0.521,-0.027 -0.018,0.006 c 0.05,0.03 0.05,0.03 0.057,0.052 v 0 l 0.023,0.017 0.027,0.006 0.03,0.014 c 0.007,0 0.015,-0.001 0.023,-0.001 v 0 l -0.028,-0.026 c -0.009,-0.007 -0.019,-0.014 -0.029,-0.022 v 0 l -0.011,-0.03 0.009,-0.013 0.029,0.021 c 0.006,-10e-4 0.013,-10e-4 0.019,-10e-4 v 0 l -0.009,-0.019 -0.069,-0.048 -0.045,-0.026 c -0.015,10e-4 -0.03,0.002 -0.045,0.002 v 0 c -0.014,10e-4 -0.028,0.002 -0.043,0.002 v 0 l -0.038,-0.003 -0.063,-0.028 -0.074,-0.02 c -0.015,10e-4 -0.03,0.002 -0.044,0.003 v 0 l -0.005,0.014 0.026,0.021 0.042,0.014 c 0.011,-10e-4 0.021,-10e-4 0.033,-0.002 v 0 c 0.024,0 0.041,0.007 0.053,0.013 v 0 c -0.01,10e-4 -0.02,10e-4 -0.029,10e-4 v 0 l -0.031,0.012 -0.042,-0.01 -0.035,-0.003 -0.017,0.011 -0.032,0.004 0.039,0.029 0.057,0.024 0.05,0.021 0.064,0.029 0.05,0.011 0.007,-0.004 -0.003,-0.016 c 0.007,-10e-4 0.015,-10e-4 0.021,-10e-4 v 0 l 0.005,-0.016 -0.03,-0.037 -0.005,-0.019 c 0.012,0 0.024,-0.001 0.035,-0.001 v 0 c 0.004,0 0.007,-10e-4 0.01,-10e-4 v 0 c 0.015,0 0.022,0.003 0.036,0.02 m 0.198,-0.011 c 0.003,0.005 0.005,0.011 0.006,0.041 v 0 c 0,0.008 0.011,0.016 0.015,0.024 v 0 l 0.048,0.036 0.017,-0.021 -0.036,-0.044 0.003,-0.026 0.026,0.029 0.028,0.027 c 0.008,0 0.016,0 0.024,-10e-4 v 0 l -0.011,-0.044 c 0.029,-0.021 0.041,0.042 0.045,0.065 v 0 c 0.009,0 0.017,0 0.026,-10e-4 v 0 l 0.004,-0.027 c 0.019,0.011 0.031,0.016 0.035,0.015 v 0 c 0.008,0 0.011,-0.017 0.011,-0.019 v 0 c -10e-4,-0.002 -0.007,-0.016 -0.015,-0.024 v 0 c -0.01,-0.008 -0.022,-0.012 -0.033,-0.019 v 0 c -0.013,-0.014 -0.023,-0.026 -0.035,-0.039 v 0 l -0.025,-0.026 -0.027,-0.004 -0.034,-10e-4 -0.031,-0.011 0.028,0.043 0.007,0.021 -0.023,-0.003 -0.031,-0.009 z m 0.341,-0.089 -0.002,0.029 0.044,0.038 c 0.01,0.044 0.01,0.046 0.034,0.09 v 0 c 0.01,10e-4 0.023,0.004 0.033,0.006 v 0 c 0.015,-10e-4 0.029,-10e-4 0.044,-0.002 v 0 l -0.01,-0.031 -0.019,-0.034 0.014,-0.036 0.046,0.002 0.049,-0.014 0.042,0.005 0.068,0.015 0.047,0.016 0.051,-0.015 0.046,-0.017 -0.003,-0.039 h -10e-4 c -0.025,-0.008 -0.027,-0.015 -0.029,-0.025 v 0 c -0.003,-0.022 -0.003,-0.022 -0.112,-0.028 v 0 l -0.015,0.02 -0.021,-0.017 -0.036,-0.01 c -0.024,10e-4 -0.048,10e-4 -0.072,0.002 v 0 c -0.054,-0.007 -0.054,-0.007 -0.081,0.036 v 0 c -0.011,-0.006 -0.027,-0.013 -0.038,-0.018 v 0 l -0.06,-0.005 z m -0.869,0.104 0.059,0.026 0.046,0.009 -0.088,-0.043 z m 0.741,-0.112 c -0.011,0 -0.021,0.001 -0.031,0.001 v 0 l -0.002,0.034 0.027,0.023 0.054,0.018 0.029,0.004 -0.005,-0.026 0.012,-0.021 -0.034,-0.036 -0.033,-0.012 z m -0.338,0.038 0.023,0.026 c 0.005,0 0.015,10e-4 0.022,0.009 v 0 l 0.008,0.004 c 0.006,-10e-4 0.017,-0.008 0.005,-0.019 v 0 c -0.011,-0.008 -0.031,-0.018 -0.031,-0.019 v 0 c -0.003,-10e-4 -0.007,-10e-4 -0.011,-10e-4 v 0 c -0.005,0 -0.011,0 -0.016,0 m -1.093,-0.279 -0.025,0.034 0.184,0.09 0.114,0.07 0.064,0.045 c 0.013,0.008 0.026,0.016 0.039,0.024 v 0 l 0.067,0.004 0.035,-0.008 0.005,-0.023 0.012,-0.02 0.061,0.018 0.021,-0.007 -0.007,-0.043 -0.039,-0.033 -0.065,-0.017 -0.114,-0.032 c -0.143,-0.062 -0.177,-0.084 -0.226,-0.117 v 0 l -0.061,-0.027 c -0.014,10e-4 -0.027,0.002 -0.042,0.003 v 0 l -0.084,-0.039 z m 1.286,0.215 0.034,0.022 -0.006,-0.022 c -0.009,0 -0.019,0 -0.028,0 m -0.011,-0.159 c 0.015,0.023 0.03,0.046 0.046,0.068 v 0 c 0.036,0.01 0.039,0.014 0.06,0.049 v 0 c 0.008,0.01 0.008,0.01 0.07,0.012 v 0 l 0.028,-0.017 c 0.013,0 0.026,0 0.038,-0.001 v 0 c 0.006,-10e-4 0.012,-0.003 0.027,-0.021 v 0 c -0.015,-0.012 -0.036,-0.026 -0.049,-0.038 v 0 l -0.046,-0.042 -0.042,-0.024 -0.04,0.012 -0.029,-0.039 -0.047,-0.025 -0.051,-0.007 c 0.005,0.009 0.005,0.009 0.035,0.073 m -0.066,0.125 0.035,0.002 -0.002,-0.022 c 0.01,-0.051 0.01,-0.051 -0.07,-0.079 v 0 l 0.015,-0.023 0.006,-0.034 -0.006,-0.037 -0.053,-0.046 -0.057,-0.001 c -0.012,-0.008 -0.049,-0.034 -0.058,-0.034 v 0 c -0.002,0 -0.033,0.019 -0.035,0.028 v 0 l 0.005,0.011 c 0.002,0.003 0.007,0.017 0.013,0.042 v 0 c -0.009,0.003 -0.021,0.009 -0.03,0.012 v 0 l -0.009,0.021 -0.012,0.027 0.031,0.03 0.028,0.001 c 0.001,-0.041 0.002,-0.051 0.079,0.017 v 0 0.033 l 0.019,0.029 0.04,0.01 0.017,-0.015 0.015,-0.001 z m -0.337,-0.066 c -0.002,0.002 -0.006,0.008 -0.005,0.032 v 0 c 0.012,0.006 0.028,0.015 0.041,0.022 v 0 l 0.048,-0.016 -10e-4,-0.019 -0.047,-0.039 -0.043,-0.021 c 0.011,0.037 0.008,0.041 0.007,0.041 m -0.07,0.029 0.033,0.017 0.027,0.002 -0.038,-0.026 z m -0.594,-0.162 c -0.008,0 -0.016,10e-4 -0.024,10e-4 v 0 l 0.026,0.024 0.068,0.026 0.042,0.038 0.058,0.023 0.044,0.009 0.039,0.012 0.056,0.025 c 0.011,-10e-4 0.023,-0.002 0.034,-0.002 v 0 l 0.006,-0.009 -0.04,-0.038 -0.028,-0.019 0.017,-0.006 0.04,0.03 0.033,10e-4 0.014,-0.016 0.021,-0.003 -0.042,-0.03 -0.033,-0.025 0.036,0.003 0.025,0.023 c 0.013,-10e-4 0.023,-10e-4 0.035,-0.002 v 0 l 0.015,0.025 0.025,0.031 0.027,-0.005 -0.016,-0.045 -0.018,-0.028 -0.028,-0.034 -0.002,-0.02 0.014,-0.005 0.033,0.02 0.024,0.046 0.025,0.034 c 0.015,0.015 0.032,0.031 0.048,0.046 v 0 c 0.013,-0.001 0.026,-0.002 0.039,-0.003 v 0 l 0.021,-0.025 -0.013,-0.043 -0.053,-0.065 0.007,-0.033 -0.049,-0.05 v -0.053 l 0.056,-0.037 0.02,-0.033 -0.031,-0.028 -0.05,-0.007 -0.032,-0.003 0.012,-0.036 -0.048,-0.041 -0.05,-0.006 -0.048,0.007 -0.039,0.047 -0.034,-0.004 -0.002,0.022 -0.042,-0.017 -0.072,-0.03 -0.059,-0.014 -0.069,-0.028 h -0.066 c -0.023,10e-4 -0.046,0.003 -0.068,0.004 v 0 l -0.011,0.028 0.03,0.063 c -0.017,0.001 -0.033,0.001 -0.049,0.002 v 0 l -0.056,0.007 0.033,0.065 0.083,0.027 c 0.024,-10e-4 0.048,-0.003 0.072,-0.004 v 0 l 0.077,-0.007 c 0.027,0.018 0.032,0.023 0.035,0.028 v 0 c -0.005,0.008 -0.012,0.016 -0.018,0.024 v 0 c -0.015,0.002 -0.031,0.003 -0.046,0.003 v 0 l -0.06,-0.002 c -0.016,10e-4 -0.031,0.002 -0.048,0.002 v 0 l -0.017,0.03 0.044,0.023 0.048,0.01 0.057,0.011 0.004,0.027 -0.046,-0.002 -0.046,-0.013 z m 1.771,0.061 -0.006,0.038 0.003,0.049 c 0.02,-10e-4 0.041,-10e-4 0.061,-10e-4 v 0 l 0.087,-0.005 0.051,-0.045 -0.059,-0.016 -0.039,-0.027 z m -1.691,-0.44 0.101,0.039 0.089,0.02 -0.035,-0.042 -0.05,-0.009 -0.063,-0.024 z m 1.748,-0.166 -0.025,0.045 c 0.03,0.038 0.047,0.054 0.051,0.055 v 0 c 0.004,0.002 0.004,0.002 0.097,0.005 v 0 l 0.023,-0.051 -0.031,-0.049 -0.061,-0.013 z m 3.559,-0.056 -0.005,0.012 c 0.012,0.004 0.002,0.029 0.002,0.029 v 0 c -10e-4,0.007 -0.006,0.017 0.008,0.02 v 0 c 0.014,0.002 0.027,0.003 0.04,0.004 v 0 c 0.014,-0.013 0.031,-0.023 0.044,-0.036 v 0 c 0.017,-0.017 0.03,-0.041 0.051,-0.056 v 0 l 0.005,0.001 c 0.006,0.003 0.006,0.003 0.042,-0.012 v 0 c 0.015,-0.007 0.026,-0.018 0.038,-0.028 v 0 c 0.021,-0.019 0.04,-0.038 0.06,-0.057 v 0 c -0.064,-0.006 -0.064,-0.006 -0.07,-0.011 v 0 c -0.018,-0.017 0.007,-0.034 0.003,-0.052 v 0 l -0.016,-10e-4 c -0.004,-0.005 -0.004,-0.005 0,-0.015 v 0 c 10e-4,-0.009 10e-4,-0.009 0.019,-0.04 v 0 l 0.004,-0.032 c -0.013,-0.007 -0.041,-0.014 -0.074,0 v 0 c -0.026,0.011 -0.041,0.045 -0.076,0.035 v 0 c -0.008,0 -0.015,-10e-4 -0.022,-10e-4 v 0 c -0.025,-0.003 -0.025,-0.003 -0.053,-0.013 v 0 c -0.007,-10e-4 -0.014,-10e-4 -0.022,-0.002 v 0 l -0.036,0.03 c -0.017,0.02 -0.034,0.04 -0.051,0.059 v 0 l -0.012,0.008 c -0.014,-0.002 -0.027,-0.003 -0.041,-0.004 v 0 l -0.013,-0.009 c -0.014,0.014 -0.031,0.032 -0.044,0.044 v 0 c 0.032,0.02 0.076,0.012 0.099,0.007 v 0 c -0.035,0.035 -0.078,0.078 -0.122,0.068 v 0 l -0.003,-0.014 c -0.02,-0.012 -0.075,0.04 -0.072,0.068 v 0 c 0.002,0.015 0.037,0.02 0.048,0.021 v 0 c 0.003,0 0.003,0 0.041,-0.012 v 0 c -0.009,0.01 -0.019,0.019 -0.027,0.028 v 0 l 0.011,0.009 c 0.015,-0.01 0.03,-0.016 0.043,-0.027 v 0 c 0.008,-0.01 0.018,-0.019 0.026,-0.028 v 0 c 0.01,-0.01 0.019,-0.02 0.028,-0.029 v 0 c 0.013,10e-4 0.026,0.002 0.037,0.003 v 0 c 0.007,0.002 0.01,0.002 0.009,0.014 v 0 c 0,0.01 -10e-4,0.025 0.034,0.028 v 0 c 0.01,0 0.021,-0.003 0.031,-0.005 v 0 c 0.009,-0.002 0.018,-0.004 0.028,-0.004 v 0 c 0.002,0 0.005,0 0.008,0 m -4.066,-0.543 c -0.013,0.005 -0.019,0.017 -0.028,0.025 v 0 c 0.01,0.004 0.019,0.01 0.029,0.015 v 0 c 0.038,0.022 0.049,0.025 0.058,0.027 v 0 c 0.018,0.003 0.018,0.003 0.025,0.006 v 0 c 0.01,0.006 0.018,0.016 0.029,0.021 v 0 l 0.002,-0.031 -0.003,-0.004 c -0.018,-0.023 -0.018,-0.023 -0.025,-0.028 v 0 c -0.003,-0.003 -0.032,-0.023 -0.054,-0.028 v 0 c -0.011,-0.003 -0.019,-0.003 -0.025,-0.003 v 0 c -0.005,0 -0.008,0 -0.008,0 m 0.207,0.014 0.065,0.031 0.06,-0.009 c 0,-0.019 0.002,-0.037 0.002,-0.056 v 0 c -10e-4,-0.011 -0.002,-0.022 -0.004,-0.032 v 0 l -0.033,-0.016 c -0.026,0 -0.052,0 -0.078,0 v 0 z m 5.175,-0.245 0.012,0.004 0.007,0.002 c 0.013,-0.003 0.02,-0.014 0.08,-0.122 v 0 c 0.026,0.004 0.051,0.007 0.075,0.011 v 0 c 0.019,-0.024 0.038,-0.046 0.057,-0.07 v 0 c 0.014,-0.018 0.014,-0.042 0.03,-0.06 v 0 c 0.005,-0.008 0.011,-0.013 0.015,-0.02 v 0 l -0.009,-0.005 0.02,-0.05 c 0.023,-0.021 0.057,-0.017 0.08,-0.034 v 0 c 0.025,-0.019 0.041,-0.047 0.067,-0.066 v 0 c 0.02,-0.015 0.037,-0.036 0.06,-0.048 v 0 c 0.006,-0.005 0.011,-0.012 0.017,-0.017 v 0 c 0.024,0.007 0.059,-0.046 0.091,-0.096 v 0 c 0.008,0 0.015,10e-4 0.022,0.003 v 0 c 0.08,-0.1 0.08,-0.1 0.085,-0.102 v 0 c 0.007,0.016 -0.013,0.043 -0.02,0.052 v 0 l 0.004,0.005 c 0.03,-0.02 0.049,-0.05 0.078,-0.07 v 0 c 0.013,-0.015 0.022,-0.028 0.03,-0.04 v 0 l -0.015,-0.002 c 0.01,-0.017 0.023,-0.038 0.023,-0.038 v 0 l -0.011,-0.005 c 0,-0.008 0,-0.008 0.009,-0.022 v 0 l 0.006,-0.009 c 0.018,-0.023 0.04,-0.04 0.054,-0.064 v 0 l -0.003,-0.012 -0.011,-0.001 c -0.004,-0.013 0.006,-0.023 0.007,-0.035 v 0 c -0.008,-0.004 -0.019,-0.002 -0.026,-0.008 v 0 l -0.006,-0.003 c -0.019,0.005 -0.031,0.023 -0.051,0.027 v 0 l -0.003,-0.005 c 0.006,-0.013 0.007,-0.015 0.007,-0.031 v 0 c -0.022,-0.005 -0.03,-0.002 -0.034,0 v 0 c -0.013,-0.006 -0.013,-0.006 -0.025,-0.004 v 0 c 10e-4,-0.009 10e-4,-0.011 0.027,-0.052 v 0 c -0.008,-0.002 -0.017,-0.003 -0.026,-0.004 v 0 c -0.023,0.01 -0.023,0.01 -0.027,0.012 v 0 c 0.004,-0.028 0.004,-0.028 0.003,-0.031 v 0 c -0.012,-0.013 -0.014,-0.014 -0.021,-0.018 v 0 l -0.013,0.012 c 0.013,0.032 0.013,0.032 -0.024,0.092 v 0 l 0.013,0.011 h 0.006 c 10e-4,0.011 -0.008,0.022 -10e-4,0.033 v 0 c 0.057,0.003 0.01,0.048 0.01,0.049 v 0 l -0.073,0.013 c -0.004,-0.006 -0.006,-0.014 -0.009,-0.022 v 0 c -0.017,-10e-4 -0.042,0.042 -0.049,0.055 v 0 h 10e-4 l 10e-4,10e-4 h 10e-4 0.001 10e-4 v 0 l 0.009,0.005 c -0.001,0.011 -0.008,0.022 -0.008,0.034 v 0 l 0.009,0.003 c -0.015,0.033 -0.026,0.054 -0.052,0.028 v 0 c -0.01,0.002 -0.011,0.004 -0.03,0.031 v 0 l 0.017,0.002 c -0.003,0.006 -0.008,0.014 -0.01,0.02 v 0 c -0.002,0.006 -0.005,0.013 -0.007,0.019 v 0 l 0.007,0.001 0.007,10e-4 c 0.02,0.006 0.036,-0.008 0.055,-0.011 v 0 c 0.005,0.046 -0.04,0.063 -0.059,0.096 v 0 c -0.051,0.024 -0.06,0.091 -0.116,0.11 v 0 l 0.006,-0.017 c -0.014,-10e-4 -0.028,-0.003 -0.043,-0.006 v 0 c -0.019,0.019 -0.019,0.019 -0.032,0.036 v 0 l 0.003,0.011 0.004,0.003 c -0.01,0.029 -0.078,0.088 -0.078,0.089 v 0 c 0.006,-0.015 0.006,-0.015 0.022,-0.036 v 0 l -0.018,-0.003 c -0.01,0.009 -0.044,0.033 -0.044,0.033 v 0 l -10e-4,-0.006 c -0.006,-0.004 -0.011,-0.005 -0.017,-0.006 v 0 c -0.033,0.039 -0.033,0.039 -0.016,0.055 v 0 c -0.008,0.022 -0.026,0.036 -0.038,0.054 v 0 c -0.004,0.006 -0.009,0.011 -0.014,0.017 v 0 c -0.003,0.006 -0.006,0.012 -0.009,0.018 v 0 c -0.058,0.009 -0.086,0.069 -0.083,0.078 v 0 c 0.008,10e-4 0.015,-0.004 0.023,-0.007 v 0 c 0.009,-0.006 0.018,-0.012 0.031,-0.005 v 0 c -0.007,0.027 -0.033,0.04 -0.048,0.061 v 0 c -0.043,0.064 -0.043,0.064 -0.05,0.072 v 0 c 0.009,-0.001 0.015,-0.001 0.02,-0.001 v 0 c 0.008,0 0.012,0.001 0.017,0.005 m -0.044,-0.126 c -0.006,0.008 -0.013,0.014 -0.017,0.023 v 0 c -0.005,0.009 -0.006,0.02 -0.009,0.03 v 0 c -0.002,0.006 -0.008,0.01 -0.01,0.016 v 0 10e-4 l 0.004,0.006 c 0.002,0.009 -0.005,0.016 -0.004,0.025 v 0 l 0.006,0.012 0.004,-0.004 c 0.021,-0.031 0.022,-0.034 0.025,-0.039 v 0 l 0.003,-0.009 c 0.004,-0.005 0.01,-0.008 0.013,-0.015 v 0 c 10e-4,-0.002 10e-4,-0.004 -0.005,-0.007 v 0 h -0.008 c 0,-0.002 -10e-4,-0.004 0.011,-0.027 v 0 l 0.004,-0.009 -0.002,-0.01 z m 0.239,-0.298 c 0.007,0.004 0.007,0.012 0.013,0.015 v 0 h 0.006 c 0.006,-0.005 0.012,-0.01 0.019,-0.013 v 0 c 0.003,0.002 0.009,0.005 0.025,-0.011 v 0 l 0.078,-0.084 c 0.01,-0.019 0.006,-0.03 0.004,-0.034 v 0 h -0.008 c 0.009,-0.012 0.017,-0.024 0.026,-0.037 v 0 c 0.027,-0.036 0.073,-0.101 0.082,-0.131 v 0 l -0.004,-0.004 c 0,-0.001 -10e-4,-0.005 0.017,-0.023 v 0 c 0.008,-0.01 0.01,-0.012 0.015,-0.019 v 0 c 0.006,-0.009 0.012,-0.018 0.017,-0.027 v 0 c -0.026,-0.004 -0.053,-0.006 -0.081,-0.01 v 0 c 0.012,-0.064 0.012,-0.064 0.005,-0.067 v 0 c -0.023,0.015 -0.025,0.013 -0.036,-0.006 v 0 c -0.007,-0.011 -0.052,0.011 -0.066,0.059 v 0 l 0.004,0.008 c -0.005,0.014 -0.018,0.025 -0.024,0.04 v 0 c 0,0 -0.012,0.027 -0.012,0.036 v 0 c 0.007,0.002 0.007,0.002 0.022,0.008 v 0 c -0.012,0.018 -0.024,0.038 -0.037,0.057 v 0 c -0.017,-0.003 -0.017,-0.003 -0.033,-0.003 v 0 c -0.029,0.044 -0.057,0.087 -0.087,0.13 v 0 l 0.009,0.005 c 0.007,-0.002 0.011,-0.009 0.018,-0.012 v 0 l 0.008,0.014 0.013,0.004 0.002,0.009 0.005,0.002 c -0.022,0.028 -0.04,0.06 -0.062,0.09 v 0 l 0.019,0.007 c 0.016,-0.011 0.032,-0.023 0.049,-0.033 v 0 c 10e-4,0.01 -0.007,0.019 -0.006,0.03 m -3.435,-1.073 c -0.003,0.024 0,0.043 0.006,0.059 v 0 c 0.009,0.021 0.024,0.039 0.043,0.06 v 0 c 0.071,0.082 0.116,0.164 0.116,0.165 v 0 c 0.002,0.004 0.002,0.006 0.002,0.018 v 0 c 0,0.015 0.004,0.031 0.002,0.048 v 0 c -0.002,0.011 -0.014,0.021 -0.006,0.034 v 0 c 0.006,0.011 0.04,0.022 0.044,0.022 v 0 c 0.011,0 0.02,-0.003 0.03,-0.001 v 0 c 0.004,-0.008 0.005,-0.009 0.015,-0.019 v 0 c 0.025,-0.026 0.01,-0.063 0.003,-0.067 v 0 c -0.009,-0.005 -0.023,-10e-4 -0.029,-0.013 v 0 c -0.007,-0.014 -0.007,-0.014 -0.017,-0.079 v 0 c 0.015,-0.005 0.028,-0.016 0.044,-0.019 v 0 c 0.027,-0.006 0.055,0 0.081,-0.009 v 0 c 0.011,-0.003 0.019,-0.011 0.029,-0.022 v 0 c 0.02,-0.022 0.084,-0.054 0.085,-0.054 v 0 c 0.015,-0.008 0.015,-0.008 0.062,-0.009 v 0 c 0.007,-0.012 0.014,-0.028 0.019,-0.041 v 0 l -0.004,-0.011 c -0.024,-0.05 -0.024,-0.05 -0.006,-0.105 v 0 c 0.03,-0.091 0.008,-0.1 0,-0.103 v 0 c -0.015,-0.007 -0.016,-0.008 -0.02,-0.016 v 0 c -0.032,0.015 -0.056,0.025 -0.116,0.081 v 0 c -0.036,0.035 -0.047,0.036 -0.072,0.039 v 0 c -0.098,-0.003 -0.197,-0.004 -0.295,-0.005 v 0 c -0.004,0.017 -0.015,0.03 -0.016,0.047 m -0.486,0.259 c 0.011,0 0.019,-0.004 0.032,-0.021 v 0 c 0.005,-0.005 0.018,-0.022 0.054,-0.036 v 0 c 0.011,-0.005 0.013,-0.005 0.034,-0.003 v 0 c 0.004,0 0.015,10e-4 0.022,-0.002 v 0 c 0.014,-0.003 0.024,-0.013 0.037,-0.018 v 0 l -0.002,-0.002 c -0.038,-0.075 -0.058,-0.07 -0.071,-0.067 v 0 c -0.01,0.003 -0.014,0.006 -0.025,0.013 v 0 c -0.011,0.007 -0.019,0.018 -0.03,0.026 v 0 c -0.012,0.009 -0.025,0.016 -0.038,0.025 v 0 l -0.01,0.008 c -0.011,0.011 -0.016,0.025 -0.028,0.035 v 0 c -0.012,0.01 -0.028,0.013 -0.042,0.02 v 0 c 0.012,0.005 0.026,0.014 0.039,0.019 v 0 c 10e-4,0 0.002,0 0.004,0 v 0 c 0.008,0 0.016,0.002 0.024,0.003 m -1.949,-3.307 c 0.041,0.021 0.041,0.021 0.047,0.022 v 0 c 0.037,10e-4 0.076,10e-4 0.113,0.002 v 0 c 0.031,-0.001 0.037,-0.014 0.043,-0.029 v 0 c 0.007,-0.019 0.007,-0.019 0.062,-0.049 v 0 c 0.046,-0.026 0.097,-0.041 0.139,-0.073 v 0 c 0.028,-0.021 0.042,-0.057 0.076,-0.07 v 0 c 0.033,-0.013 0.068,-0.01 0.101,-0.007 v 0 c 0.018,0.002 0.036,0.003 0.054,0.003 v 0 c 0.021,0 0.037,0 0.052,0 v 0 c 0.063,-0.009 0.158,-0.103 0.189,-0.152 v 0 c -0.121,10e-4 -0.243,0.002 -0.364,0.003 v 0 c -0.075,0.005 -0.117,0.064 -0.125,0.076 v 0 c -0.015,0.023 -0.024,0.032 -0.055,0.028 v 0 c -0.025,-0.002 -0.116,0.032 -0.117,0.032 v 0 c -0.014,0.007 -0.018,0.009 -0.021,0.028 v 0 c -0.012,0.049 -0.11,0.082 -0.111,0.083 v 0 c -0.028,0.005 -0.081,0.006 -0.085,0.004 v 0 c -0.034,-0.009 -0.053,-0.038 -0.081,-0.052 v 0 c -0.123,-0.061 -0.283,0.08 -0.18,0.158 v 0 c 0.011,0.009 0.011,0.009 0.1,0.004 v 0 c 0.038,0 0.072,-10e-4 0.105,-10e-4 v 0 c 0.015,-0.002 0.029,-0.013 0.044,-0.013 v 0 c 0.005,0 0.009,10e-4 0.014,0.003 m 1.029,-0.577 c 0,0.049 0,0.097 0.001,0.146 v 0 c 0.065,0.011 0.065,0.011 0.092,0.012 v 0 l 0.171,-0.008 c 0.04,-0.003 0.063,-0.041 0.102,-0.048 v 0 c 0.029,-0.006 0.043,-0.041 0.076,-0.042 v 0 c 0.006,0 0.083,10e-4 0.083,10e-4 v 0 c 0.021,0.006 0.029,0.03 0.049,0.036 v 0 c 0.008,0 0.016,0 0.025,0 v 0 c 0.026,-10e-4 0.046,-0.018 0.072,-0.024 v 0 c 0.015,0 0.031,0.001 0.047,0.001 v 0 c 0.051,10e-4 0.056,0.002 0.144,0.022 v 0 c 0.004,-0.023 -0.011,-0.046 0,-0.07 v 0 c 0.011,-0.019 0.035,-0.011 0.049,-0.023 v 0 l -0.006,-0.003 c -0.015,-0.008 -0.026,-0.02 -0.043,-0.022 v 0 c -0.016,0 -0.031,0 -0.048,0 v 0 c -0.018,0 -0.101,0.01 -0.12,0.018 v 0 c -0.021,0.007 -0.027,0.007 -0.048,-10e-4 v 0 c -0.011,-0.005 -0.098,-0.022 -0.182,-0.02 v 0 c -0.028,0.001 -0.054,-0.011 -0.081,-0.012 v 0 c -0.028,0 -0.054,0.015 -0.081,0.015 v 0 c -0.06,0 -0.093,-0.066 -0.154,-0.062 v 0 h -0.052 c -0.023,0.005 -0.077,0.064 -0.096,0.084 m -0.577,-0.017 -0.013,0.013 c -0.01,0.014 -0.017,0.03 -0.026,0.045 v 0 c 0.047,-0.001 0.093,-0.001 0.139,-0.002 v 0 l 0.015,-0.003 c 0.015,-0.005 0.026,-0.019 0.042,-0.024 v 0 c 0.013,-0.006 0.029,-0.001 0.041,-0.01 v 0 c 0.016,-0.014 0.005,-0.033 0.012,-0.049 v 0 l -0.006,-0.006 c -0.032,-0.038 -0.032,-0.038 -0.042,-0.042 v 0 c -0.01,-0.006 -0.019,-0.004 -0.028,-0.002 v 0 c -0.007,0.001 -0.013,0.003 -0.019,0.002 v 0 c -0.003,0.007 -0.004,0.01 -0.004,0.02 v 0 c 0,0.017 0,0.023 -0.008,0.029 v 0 c 0,10e-4 -0.043,0.03 -0.065,0.026 v 0 c -0.012,-0.002 -0.018,-0.003 -0.023,-0.003 v 0 c -0.006,0 -0.009,0.002 -0.015,0.006 m 0.517,-0.772 c 0.065,0.006 0.111,0.006 0.156,0.006 v 0 c -0.004,0.08 0.008,0.085 0.08,0.101 v 0 h 0.052 l 0.011,-0.024 c -10e-4,-10e-4 -0.096,-0.072 -0.107,-0.117 v 0 c 0.054,-0.083 -0.046,-0.206 0.07,-0.27 v 0 c 0.027,0.069 -0.032,0.137 -0.002,0.207 v 0 c 0,0 0.035,0.047 0.106,0.043 v 0 c 0.033,0.036 0.033,0.041 0.034,0.084 v 0 c 0.081,0.031 0.132,-0.049 0.203,-0.054 v 0 c 0.022,-0.023 0.022,-0.045 0.022,-0.069 v 0 c 0.018,-0.003 0.043,-0.009 0.061,-0.012 v 0 c 0.065,-0.012 0.106,-0.012 0.146,-0.011 v 0 c 0.066,-0.011 0.1,-0.066 0.15,-0.098 v 0 c 0.037,0.008 0.037,0.008 0.087,0.112 v 0 c 0.04,0.006 0.044,0.007 0.094,-0.015 v 0 c 0.009,-0.002 0.013,-0.002 0.018,-0.002 v 0 l 0.054,0.041 c 0.079,-0.013 0.083,-0.019 0.106,-0.051 v 0 c -0.014,-0.011 -0.036,-0.021 -0.054,-0.024 v 0 c 10e-4,-0.026 10e-4,-0.026 0.009,-0.087 v 0 c 0.024,-0.004 0.024,-0.004 0.121,0.025 v 0 c 0.031,0.005 0.04,0.005 0.048,0.005 v 0 c -0.005,-0.047 -0.009,-0.096 0.074,-0.108 v 0 c 0.005,-0.009 0.004,-0.017 0.004,-0.025 v 0 c 0.118,-0.063 0.118,-0.063 0.134,-0.065 v 0 c 0.044,-0.129 0.059,-0.177 0.275,-0.214 v 0 c 0.018,0 0.031,0 0.044,0 v 0 c 0.022,-0.001 0.042,0.004 0.064,0.01 v 0 c 0.036,0.008 0.072,0.017 0.11,-10e-4 v 0 c 0.061,-0.035 0.296,-0.147 0.297,-0.147 v 0 c 0.005,-0.01 0.005,-0.01 0.052,-0.137 v 0 c -0.004,-0.041 -0.007,-0.081 -0.011,-0.121 v 0 c 0.018,0 0.042,0 0.061,0 v 0 c 0.035,-0.075 0.035,-0.075 -0.113,-0.235 v 0 c -0.009,-0.036 -0.011,-0.051 -0.013,-0.065 v 0 c 0.089,-0.012 0.094,0.026 0.1,0.083 v 0 c 0.008,0.005 0.018,0.012 0.026,0.017 v 0 c 0.011,10e-4 0.017,10e-4 0.025,10e-4 v 0 c 0.008,0 0.016,0.001 0.023,0.001 v 0 c 0.073,-0.025 0.122,-0.04 0.122,-0.04 v 0 c 0.003,-0.009 0.007,-0.02 0.008,-0.028 v 0 c -0.009,-0.007 -0.02,-0.015 -0.029,-0.022 v 0 c -0.012,-0.013 -0.028,-0.03 -0.042,-0.041 v 0 c -0.011,-0.039 -0.013,-0.053 -0.015,-0.068 v 0 c 0.03,10e-4 0.06,0.002 0.09,0.003 v 0 c 0.005,0.034 0.009,0.068 0.014,0.102 v 0 c 0.064,0.012 0.072,0.009 0.12,-0.016 v 0 c 0.032,-0.012 0.039,-0.012 0.046,-0.012 v 0 c 0.077,-0.009 0.077,-0.009 0.227,-0.109 v 0 c -0.057,-0.04 -0.057,-0.04 -0.064,-0.062 v 0 c 0.064,-0.042 0.09,-0.026 0.114,-0.01 v 0 c 0.017,0.087 0.08,0.053 0.168,0.007 v 0 c 0.055,10e-4 0.095,0.002 0.136,0.004 v 0 c 0.141,0.05 0.162,-0.136 0.268,-0.167 v 0 c 0.049,-0.003 0.08,-0.002 0.11,0 v 0 c 0.036,-0.019 0.066,-0.035 0.049,-0.259 v 0 c -0.012,-0.043 -0.012,-0.043 -0.061,-0.115 v 0 l -0.178,-0.207 c -0.053,-0.051 -0.252,-0.216 -0.252,-0.216 v 0 c -0.04,-0.045 -0.052,-0.084 -0.064,-0.123 v 0 c -0.005,-0.032 -0.009,-0.047 -0.015,-0.061 v 0 c -0.001,-0.008 -0.001,-0.02 -0.002,-0.029 v 0 c -0.007,-0.028 -0.009,-0.037 -0.013,-0.046 v 0 c -0.014,-0.045 -0.032,-0.074 -0.075,-0.13 v 0 c -0.015,-0.023 -0.017,-0.029 -0.019,-0.035 v 0 c -0.09,-0.168 -0.09,-0.168 -0.104,-0.17 v 0 c -0.234,-0.278 -0.234,-0.278 -0.264,-0.286 v 0 c -0.014,-0.01 -0.029,-0.029 -0.037,-0.044 v 0 c -0.079,-0.02 -0.15,-0.022 -0.222,-0.024 v 0 c -0.091,-0.061 -0.091,-0.061 -0.103,-0.067 v 0 c -0.028,-10e-4 -0.057,-0.002 -0.086,-0.002 v 0 c -0.287,-0.163 -0.284,-0.222 -0.281,-0.283 v 0 c 0.007,-0.112 -0.314,-0.342 -0.336,-0.344 v 0 c 0.008,0.016 0.021,0.037 0.033,0.051 v 0 c -0.002,0.001 -0.002,0.001 -0.271,-0.24 v 0 c -0.096,-0.086 -0.096,-0.086 -0.331,-0.047 v 0 c -0.022,0 -0.042,0 -0.063,-10e-4 v 0 c 10e-4,-0.008 0.003,-0.02 0.004,-0.028 v 0 c 0.047,-0.033 0.047,-0.033 0.067,-0.058 v 0 c -0.007,-0.027 -0.01,-0.036 -0.013,-0.045 v 0 c 0.019,-0.003 0.025,-0.003 0.029,-0.003 v 0 c -0.004,-0.013 -0.009,-0.027 -0.013,-0.04 v 0 l -0.025,-0.025 c -0.051,-0.046 -0.168,-0.126 -0.169,-0.127 v 0 c -0.047,0.009 -0.071,0.008 -0.094,0.008 v 0 c -0.018,-0.005 -0.042,-0.011 -0.06,-0.014 v 0 c -0.013,0 -0.023,0 -0.033,0 v 0 c -0.039,-0.003 -0.062,-0.004 -0.085,-0.004 v 0 c -0.002,-0.009 -0.005,-0.019 -0.007,-0.029 v 0 c 0.003,-0.017 0.004,-0.04 0,-0.057 v 0 c -0.007,-0.006 -0.017,-0.012 -0.024,-0.017 v 0 c -0.005,-0.019 -0.007,-0.023 -0.008,-0.027 v 0 c -0.032,-0.023 -0.06,-0.024 -0.088,-0.024 v 0 c -0.008,0.005 -0.017,0.012 -0.026,0.017 v 0 c -0.034,0.009 -0.042,0.009 -0.05,0.009 v 0 c -0.003,-0.013 -0.004,-0.024 -0.007,-0.036 v 0 c 0,-0.018 10e-4,-0.041 0.002,-0.059 v 0 c 0.017,-0.003 0.04,0.002 0.055,0.011 v 0 c 0.006,0.002 0.006,0.002 0.006,0.002 v 0 h 0.001 10e-4 10e-4 v 0 h 10e-4 10e-4 c 0.011,-0.015 0.01,-0.019 0.009,-0.022 v 0 c -0.025,-0.029 -0.025,-0.029 -0.079,-0.026 v 0 c -0.028,-0.055 -0.028,-0.055 -0.048,-0.077 v 0 c -0.018,-0.034 -0.023,-0.053 -0.027,-0.072 v 0 c -0.024,0 -0.048,0 -0.073,0 v 0 c -0.017,-0.006 -0.041,-0.018 -0.056,-0.03 v 0 c -0.007,-0.011 -0.007,-0.015 -0.008,-0.018 v 0 c 0.005,-0.023 0.005,-0.023 0.05,-0.067 v 0 c 0.009,-0.001 0.02,-0.004 0.03,-0.005 v 0 c 0.021,-0.008 0.02,-0.014 0.018,-0.02 v 0 c -0.052,-0.027 -0.094,-0.069 -0.142,-0.102 v 0 c -0.001,-0.009 -0.002,-0.021 -0.003,-0.029 v 0 c -0.018,-0.003 -0.035,-0.003 -0.052,-0.003 v 0 c -0.008,-0.028 -0.008,-0.037 -0.01,-0.046 v 0 c 0.002,-0.01 0.002,-0.012 0.002,-0.015 v 0 c 0.004,-0.017 0.008,-0.04 0.009,-0.057 v 0 l -10e-4,-0.007 c 0.003,-0.018 0.008,-0.04 0.01,-0.057 v 0 c 0.027,-0.007 0.026,-0.012 0.025,-0.016 v 0 c 0.018,-10e-4 0.041,-0.006 0.057,-0.009 v 0 c -0.01,-0.007 -0.025,-0.014 -0.034,-0.023 v 0 c -0.037,-0.002 -0.057,-0.002 -0.079,-0.003 v 0 c -0.02,0.007 -0.022,0.007 -0.024,0.007 v 0 c -0.018,0.003 -0.042,0.007 -0.059,0.01 v 0 c -0.017,0.013 -0.017,0.015 -0.017,0.018 v 0 c -0.009,0 -0.021,0.001 -0.03,0.002 v 0 c -0.025,0.03 -0.064,0.046 -0.082,0.081 v 0 l 0.005,0.009 -10e-4,0.006 c -0.008,10e-4 -0.021,0.005 -0.03,0.007 v 0 c -0.002,0.024 -0.009,0.024 -0.015,0.024 v 0 l -0.015,0.008 0.019,0.007 c -0.013,0.011 -0.026,0.032 -0.031,0.048 v 0 c -0.001,0.029 -0.001,0.03 -0.001,0.031 v 0 c -0.006,0.007 -0.014,0.015 -0.021,0.021 v 0 c -0.008,0.024 -0.008,0.026 -0.008,0.026 v 0 c 0.027,0.018 0.027,0.018 0.086,0.023 v 0 c -0.003,0.008 -0.006,0.019 -0.009,0.027 v 0 c -0.009,0.002 -0.021,0.004 -0.029,0.005 v 0 c 0.001,0.008 0.004,0.021 0.005,0.029 v 0 c -0.015,0.01 -0.038,0.017 -0.056,0.019 v 0 c -10e-4,0.009 -10e-4,0.021 -10e-4,0.03 v 0 c 0.025,0.019 0.024,0.029 0.024,0.038 v 0 c 0.022,-0.009 0.041,-0.024 0.061,-0.035 v 0 c -10e-4,0.017 -0.01,0.04 -0.018,0.054 v 0 c -0.025,0.027 -0.025,0.037 -0.026,0.047 v 0 c 0.018,0.002 0.018,0.004 0.018,0.006 v 0 c 0.005,-0.025 0.005,-0.028 0.005,-0.031 v 0 c 0.01,-0.011 0.023,-0.024 0.036,-0.032 v 0 c 0.015,0.105 0.015,0.105 0.02,0.11 v 0 c 0.003,0.024 0.003,0.044 0.003,0.062 v 0 c 0.008,0.006 0.018,0.013 0.025,0.018 v 0 c 0.009,0.021 0.009,0.033 0.009,0.044 v 0 h -0.051 l -0.007,-0.099 h -0.042 c -0.008,0.003 -0.018,0.008 -0.026,0.012 v 0 c -0.006,0.023 -0.006,0.023 0.014,0.082 v 0 c 0.009,0.002 0.022,0.005 0.03,0.008 v 0 c 0,0.015 -0.003,0.034 -0.011,0.046 v 0 c -0.004,0.008 -0.007,0.019 -0.011,0.027 v 0 c 0.04,0.082 0.054,0.11 0.004,0.195 v 0 c 0.023,0.044 0.066,0.073 0.086,0.119 v 0 l -0.005,0.008 c 10e-4,0.009 0.002,0.021 0.002,0.03 v 0 c -0.002,0.017 -0.002,0.026 -0.002,0.035 v 0 c 0.105,0.088 0.096,0.134 0.057,0.357 v 0 c -10e-4,0.009 -10e-4,0.011 -10e-4,0.015 v 0 c 0.019,0.046 0.019,0.046 0.078,0.231 v 0 c 10e-4,0.062 0.051,0.107 0.063,0.166 v 0 c 0.006,0.016 0.007,0.021 0.007,0.027 v 0 l 10e-4,0.016 c -0.008,0.016 -0.014,0.04 -0.014,0.058 v 0 c 0.016,0.026 0.016,0.033 0.016,0.038 v 0 0.009 c 0,0.009 0,0.021 0,0.029 v 0 c -0.008,0.02 -0.008,0.027 -0.008,0.034 v 0 l 0.006,0.006 c -0.003,0.017 0,0.04 0.005,0.056 v 0 c 0.011,0.027 0.012,0.031 0.012,0.034 v 0 c -0.003,0.01 -0.006,0.021 -0.007,0.031 v 0 c -0.002,0.016 -0.002,0.023 -10e-4,0.029 v 0 l 0.004,0.008 c -0.002,0.019 0,0.044 0.006,0.062 v 0 c 0.002,0.062 0.002,0.124 0.005,0.188 v 0 c -0.019,0 -0.044,0 -0.062,0.001 v 0 c -0.18,0.212 -0.343,0.244 -0.345,0.244 v 0 c -0.045,0.004 -0.045,0.004 -0.397,0.523 v 0 c -0.002,0.018 -0.003,0.033 -0.003,0.049 v 0 c -0.02,0.198 -0.303,0.21 -0.313,0.416 v 0 c 0,0.007 0,0.014 0,0.021 v 0 c -0.046,0.058 -0.046,0.058 -0.036,0.109 v 0 c 0.066,0.043 0.066,0.043 0.064,0.091 v 0 c 0.029,0.018 0.063,0.019 0.093,0.031 v 0 c 0.01,0.036 0.009,0.05 0.009,0.064 v 0 c -0.053,0.007 -0.053,0.007 -0.092,-0.007 v 0 c -0.008,0.004 -0.02,0.01 -0.028,0.013 v 0 c -0.018,0.061 0.002,0.123 -0.008,0.184 v 0 c 0.029,0.017 0.061,0.016 0.092,0.016 v 0 c -0.002,0.108 0.034,0.116 0.098,0.13 v 0 c 0.002,0.013 0.004,0.031 0.005,0.045 v 0 c 0.019,0.012 0.046,0.027 0.067,0.038 v 0 c -0.003,0.023 -0.009,0.054 -0.013,0.077 v 0 c 0.019,0.002 0.045,0.004 0.064,0.005 v 0 c 0.028,0.03 0.028,0.03 0.046,0.17 v 0 c 0.115,0.072 0.007,0.188 0.009,0.281 v 0 c -0.017,0.004 -0.039,0.013 -0.054,0.024 v 0 c 0.004,0.024 0.024,0.074 0.114,0.136 v 0 c 0.004,0.029 0.007,0.047 0.043,0.109 v 0 c 0.052,10e-4 0.053,0.002 0.09,0.03 v 0 c 0.012,0.056 0.011,0.1 0.011,0.146 v 0 c 0.004,0 0.008,0 0.012,0 v 0 c 0.126,0 0.191,0.055 0.222,0.081 m 4.303,6.767 -0.005,0.003 c 0.003,-0.002 0.004,-0.003 0.005,-0.003 m 1.197,-1.084 c -10e-4,10e-4 -0.003,0.003 -0.004,0.004 v 0 c 10e-4,-10e-4 0.003,-0.003 0.004,-0.004"
     transform="matrix(1.3333333,0,0,-1.3333333,0,1122.52)"
     style="fill:url(#linearGradient1127);stroke:none" /></g></svg>
