<?xml version="1.0" encoding="UTF-8" standalone="no"?>
<!-- Generator: Adobe Illustrator 19.0.0, SVG Export Plug-In . SVG Version: 6.00 Build 0)  -->

<svg
   version="1.1"
   id="Layer_1"
   x="0px"
   y="0px"
   viewBox="0 0 512 512"
   style="enable-background:new 0 0 512 512;"
   xml:space="preserve"
   width="512"
   height="512"
   sodipodi:docname="2.svg"
   inkscape:version="1.4.2 (f4327f4, 2025-05-13)"
   xmlns:inkscape="http://www.inkscape.org/namespaces/inkscape"
   xmlns:sodipodi="http://sodipodi.sourceforge.net/DTD/sodipodi-0.dtd"
   xmlns="http://www.w3.org/2000/svg"
   xmlns:svg="http://www.w3.org/2000/svg"><defs
   id="defs1"><clipPath
     clipPathUnits="userSpaceOnUse"
     id="clipPath147-8"><path
       d="M 0,841.89 H 595.276 V 0 H 0 Z"
       id="path147-1" /></clipPath><clipPath
     clipPathUnits="userSpaceOnUse"
     id="clipPath149-8"><path
       d="M 0,841.89 H 595.276 V 0 H 0 Z"
       transform="translate(-262.6468,-691.74592)"
       id="path149-2" /></clipPath><clipPath
     clipPathUnits="userSpaceOnUse"
     id="clipPath151-6"><path
       d="M 0,841.89 H 595.276 V 0 H 0 Z"
       transform="translate(-328.84791,-659.57681)"
       id="path151-6" /></clipPath><clipPath
     clipPathUnits="userSpaceOnUse"
     id="clipPath153-0"><path
       d="M 0,841.89 H 595.276 V 0 H 0 Z"
       transform="translate(-300.34461,-638.48051)"
       id="path153-3" /></clipPath><clipPath
     clipPathUnits="userSpaceOnUse"
     id="clipPath155-8"><path
       d="M 0,841.89 H 595.276 V 0 H 0 Z"
       transform="translate(-276.2305,-705.14012)"
       id="path155-0" /></clipPath><clipPath
     clipPathUnits="userSpaceOnUse"
     id="clipPath157-1"><path
       d="M 0,841.89 H 595.276 V 0 H 0 Z"
       transform="translate(-282.24081,-705.93492)"
       id="path157-2" /></clipPath><clipPath
     clipPathUnits="userSpaceOnUse"
     id="clipPath159-5"><path
       d="M 0,841.89 H 595.276 V 0 H 0 Z"
       transform="translate(-288.71161,-711.81882)"
       id="path159-0" /></clipPath><clipPath
     clipPathUnits="userSpaceOnUse"
     id="clipPath161-9"><path
       d="M 0,841.89 H 595.276 V 0 H 0 Z"
       transform="translate(-292.2463,-704.53002)"
       id="path161-4" /></clipPath><clipPath
     clipPathUnits="userSpaceOnUse"
     id="clipPath163-7"><path
       d="M 0,841.89 H 595.276 V 0 H 0 Z"
       transform="translate(-295.1704,-711.26622)"
       id="path163-8" /></clipPath><clipPath
     clipPathUnits="userSpaceOnUse"
     id="clipPath165-3"><path
       d="M 0,841.89 H 595.276 V 0 H 0 Z"
       transform="translate(-300.43201,-711.26622)"
       id="path165-5" /></clipPath><clipPath
     clipPathUnits="userSpaceOnUse"
     id="clipPath167-1"><path
       d="M 0,841.89 H 595.276 V 0 H 0 Z"
       transform="translate(-277.61221,-695.69902)"
       id="path167-2" /></clipPath><clipPath
     clipPathUnits="userSpaceOnUse"
     id="clipPath169-0"><path
       d="M 0,841.89 H 595.276 V 0 H 0 Z"
       transform="translate(-280.91661,-699.99392)"
       id="path169-1" /></clipPath><clipPath
     clipPathUnits="userSpaceOnUse"
     id="clipPath171-6"><path
       d="M 0,841.89 H 595.276 V 0 H 0 Z"
       transform="translate(-288.48141,-697.25351)"
       id="path171-4" /></clipPath><clipPath
     clipPathUnits="userSpaceOnUse"
     id="clipPath173-0"><path
       d="M 0,841.89 H 595.276 V 0 H 0 Z"
       id="path173-6" /></clipPath><clipPath
     clipPathUnits="userSpaceOnUse"
     id="clipPath175-1"><path
       d="M 0,841.89 H 595.276 V 0 H 0 Z"
       transform="translate(-293.0749,-699.99392)"
       id="path175-8" /></clipPath><clipPath
     clipPathUnits="userSpaceOnUse"
     id="clipPath177-9"><path
       d="M 0,841.89 H 595.276 V 0 H 0 Z"
       transform="translate(-296.9548,-693.86812)"
       id="path177-8" /></clipPath><clipPath
     clipPathUnits="userSpaceOnUse"
     id="clipPath179-4"><path
       d="M 0,841.89 H 595.276 V 0 H 0 Z"
       transform="translate(-301.37621,-699.99392)"
       id="path179-1" /></clipPath><clipPath
     clipPathUnits="userSpaceOnUse"
     id="clipPath181-4"><path
       d="M 0,841.89 H 595.276 V 0 H 0 Z"
       transform="translate(-307.02961,-694.66262)"
       id="path181-3" /></clipPath><clipPath
     clipPathUnits="userSpaceOnUse"
     id="clipPath183-9"><path
       d="M 0,841.89 H 595.276 V 0 H 0 Z"
       transform="translate(-311.80751,-698.92312)"
       id="path183-8" /></clipPath></defs><sodipodi:namedview
   id="namedview1"
   pagecolor="#505050"
   bordercolor="#eeeeee"
   borderopacity="1"
   inkscape:showpageshadow="0"
   inkscape:pageopacity="0"
   inkscape:pagecheckerboard="0"
   inkscape:deskcolor="#505050"
   inkscape:zoom="0.75488281"
   inkscape:cx="-131.80854"
   inkscape:cy="163.60155"
   inkscape:window-width="1920"
   inkscape:window-height="991"
   inkscape:window-x="-9"
   inkscape:window-y="-9"
   inkscape:window-maximized="1"
   inkscape:current-layer="Layer_1" />
















<g
   id="g5"
   transform="matrix(4.0169125,0,0,4.0169125,-1334.0408,-656.15235)"><path
     id="path146"
     d="m 344.521,623.759 h -95.503 v 95.506 h 95.503 z"
     style="fill:#44a04a;fill-opacity:1;fill-rule:nonzero;stroke:none"
     transform="matrix(1.3333333,0,0,-1.3333333,0,1122.52)"
     clip-path="url(#clipPath147-8)" /><path
     id="path148"
     d="m 0,0 c 3.267,0 4.686,1.733 4.686,4.401 v 2.841 c 0,1.76 -0.766,2.897 -2.385,3.266 1.335,0.425 2.215,1.505 2.215,3.124 v 1.676 c 0,2.726 -1.306,4.401 -4.288,4.401 -3.353,0 -4.517,-1.986 -4.517,-4.826 v -1.704 h 2.954 v 1.959 c 0,1.192 0.37,1.874 1.392,1.874 1.023,0 1.39,-0.682 1.39,-1.732 v -2.074 c 0,-1.022 -0.68,-1.561 -1.731,-1.561 H -1.506 V 9.173 h 1.365 c 1.135,0 1.588,-0.539 1.588,-1.562 V 4.43 C 1.447,3.409 0.994,2.697 0,2.697 c -1.108,0 -1.506,0.74 -1.506,1.875 V 7.327 H -4.458 V 4.8 C -4.458,1.874 -3.295,0 0,0"
     style="fill:#ffffff;fill-opacity:1;fill-rule:nonzero;stroke:none"
     transform="matrix(1.3333333,0,0,-1.3333333,350.19573,200.19213)"
     clip-path="url(#clipPath149-8)" /><path
     id="path150"
     d="m 0,0 c 0,2.688 -1.724,4.866 -4.336,4.866 -1.306,0 -2.881,-1.43 -3.737,-2.309 -0.855,0.88 -2.325,2.312 -3.633,2.312 -2.611,0 -4.442,-2.179 -4.442,-4.868 0,-1.343 0.53,-2.56 1.387,-3.441 l 6.694,-6.707 6.686,6.699 -0.006,0.005 C -0.53,-2.561 0,-1.344 0,0"
     style="fill:#ffffff;fill-opacity:1;fill-rule:nonzero;stroke:none"
     transform="matrix(1.3333333,0,0,-1.3333333,438.46387,243.08427)"
     clip-path="url(#clipPath151-6)" /><path
     id="path152"
     d="m 0,0 c -0.023,0 -0.045,0 -0.068,0.001 -0.51,0.032 -0.929,0.409 -1.015,0.912 l -3.401,19.806 -5.151,-9.552 c -0.226,-0.418 -0.697,-0.643 -1.161,-0.559 -0.468,0.083 -0.828,0.456 -0.895,0.926 l -2.187,15.285 -4.001,-8.987 c -0.177,-0.397 -0.57,-0.653 -1.005,-0.653 h -15.55 c -0.607,0 -1.1,0.493 -1.1,1.1 0,0.607 0.493,1.099 1.1,1.099 h 14.836 l 5.263,11.821 c 0.2,0.447 0.671,0.709 1.156,0.642 0.485,-0.068 0.867,-0.448 0.937,-0.933 l 2.255,-15.761 5.08,9.419 c 0.222,0.413 0.682,0.64 1.145,0.563 0.463,-0.076 0.827,-0.437 0.906,-0.899 L 0.293,5.887 11.77,44.013 c 0.131,0.434 0.515,0.744 0.967,0.779 0.453,0.033 0.88,-0.21 1.077,-0.618 l 6.039,-12.521 c 0.263,-0.546 0.034,-1.203 -0.512,-1.467 -0.547,-0.264 -1.205,-0.035 -1.469,0.513 L 13.061,40.672 1.052,0.782 C 0.912,0.315 0.482,0 0,0"
     style="fill:#ffffff;fill-opacity:1;fill-rule:nonzero;stroke:none"
     transform="matrix(1.3333333,0,0,-1.3333333,400.45947,271.21267)"
     clip-path="url(#clipPath153-0)" /><path
     id="path154"
     d="m 0,0 v 1.048 h 1.22 v -1.071 c 0,-0.437 0.196,-0.691 0.645,-0.691 0.415,0 0.599,0.277 0.599,0.691 v 0.3 c 0,0.449 -0.184,0.725 -0.587,1.105 L 1.105,2.153 C 0.357,2.89 0.012,3.34 0.012,4.238 v 0.265 c 0,0.967 0.564,1.715 1.842,1.715 1.313,0 1.831,-0.645 1.831,-1.773 V 3.812 H 2.487 V 4.491 C 2.487,4.94 2.28,5.159 1.865,5.159 1.497,5.159 1.244,4.951 1.244,4.514 V 4.353 c 0,-0.438 0.242,-0.691 0.621,-1.06 L 2.706,2.464 C 3.42,1.739 3.765,1.301 3.765,0.438 V 0.058 C 3.765,-1.013 3.19,-1.773 1.854,-1.773 0.518,-1.773 0,-1.024 0,0"
     style="fill:#ffffff;fill-opacity:1;fill-rule:nonzero;stroke:none"
     transform="matrix(1.3333333,0,0,-1.3333333,368.30733,182.3332)"
     clip-path="url(#clipPath155-8)" /><path
     id="path156"
     d="M 0,0 H 1.048 L 0.53,3.132 H 0.518 Z m -1.647,-2.476 1.474,7.807 H 1.324 L 2.809,-2.476 H 1.462 L 1.22,-1.048 h -1.393 l -0.23,-1.428 z"
     style="fill:#ffffff;fill-opacity:1;fill-rule:nonzero;stroke:none"
     transform="matrix(1.3333333,0,0,-1.3333333,376.32107,181.27347)"
     clip-path="url(#clipPath157-1)" /><path
     id="path158"
     d="M 0,0 -2.061,-0.265 V 0.472 L 0,0.91 Z M 0.806,-0.553 V -6.46 c 0,-1.209 -0.518,-1.992 -1.854,-1.992 -1.382,0 -1.958,0.783 -1.958,1.992 v 5.907 h 1.313 v -6.034 c 0,-0.46 0.185,-0.771 0.645,-0.771 0.461,0 0.645,0.311 0.645,0.771 v 6.034 z"
     style="fill:#ffffff;fill-opacity:1;fill-rule:nonzero;stroke:none"
     transform="matrix(1.3333333,0,0,-1.3333333,384.9488,173.42827)"
     clip-path="url(#clipPath159-5)" /><path
     id="path160"
     d="M 0,0 C 0.541,0 0.748,0.322 0.748,0.795 V 4.882 C 0.748,5.343 0.541,5.665 0,5.665 H -0.553 V 0 Z M 2.061,4.64 V 1.025 c 0,-1.198 -0.495,-2.096 -1.9,-2.096 h -2.026 v 7.807 h 2.026 c 1.405,0 1.9,-0.887 1.9,-2.096"
     style="fill:#ffffff;fill-opacity:1;fill-rule:nonzero;stroke:none"
     transform="matrix(1.3333333,0,0,-1.3333333,389.66173,183.14667)"
     clip-path="url(#clipPath161-9)" /><path
     id="path162"
     d="M 0,0 H 3.132 V -1.071 H 1.313 V -3.305 H 2.614 V -4.364 H 1.313 V -6.736 H 3.132 V -7.807 H 0 Z"
     style="fill:#ffffff;fill-opacity:1;fill-rule:nonzero;stroke:none"
     transform="matrix(1.3333333,0,0,-1.3333333,393.56053,174.16507)"
     clip-path="url(#clipPath163-7)" /><path
     id="path164"
     d="M 0,0 H 3.132 V -1.071 H 1.313 V -3.305 H 2.614 V -4.364 H 1.313 V -6.736 H 3.132 V -7.807 H 0 Z"
     style="fill:#ffffff;fill-opacity:1;fill-rule:nonzero;stroke:none"
     transform="matrix(1.3333333,0,0,-1.3333333,400.576,174.16507)"
     clip-path="url(#clipPath165-3)" /><path
     id="path166"
     d="m 0,0 v -2.441 h 0.576 c 0.438,0 0.645,0.219 0.645,0.633 v 1.175 C 1.221,-0.219 1.025,0 0.564,0 Z m 0,1.002 h 0.461 c 0.426,0 0.621,0.218 0.621,0.633 v 0.956 c 0,0.426 -0.195,0.633 -0.633,0.633 H 0 Z m -1.313,3.293 h 1.901 c 1.312,0 1.749,-0.61 1.749,-1.716 V 1.785 C 2.337,1.128 2.096,0.714 1.555,0.541 2.211,0.391 2.533,-0.046 2.533,-0.76 v -1.036 c 0,-1.106 -0.495,-1.716 -1.808,-1.716 h -2.038 z"
     style="fill:#ffffff;fill-opacity:1;fill-rule:nonzero;stroke:none"
     transform="matrix(1.3333333,0,0,-1.3333333,370.1496,194.92133)"
     clip-path="url(#clipPath167-1)" /><path
     id="path168"
     d="M 0,0 H 3.132 V -1.071 H 1.313 v -2.233 h 1.301 v -1.06 H 1.313 V -6.736 H 3.132 V -7.807 H 0 Z"
     style="fill:#ffffff;fill-opacity:1;fill-rule:nonzero;stroke:none"
     transform="matrix(1.3333333,0,0,-1.3333333,374.55547,189.1948)"
     clip-path="url(#clipPath169-0)" /><path
     id="path170"
     d="M 0,0 H -0.034 L -0.921,-5.067 H -1.532 L -2.51,0 H -2.533 V -5.067 H -3.616 V 2.74 h 1.532 l 0.852,-4.398 h 0.011 l 0.76,4.398 H 1.198 V -5.067 H 0 Z"
     style="fill:#ffffff;fill-opacity:1;fill-rule:nonzero;stroke:none"
     transform="matrix(1.3333333,0,0,-1.3333333,384.64187,192.84867)"
     clip-path="url(#clipPath171-6)" /><path
     id="path172"
     d="m 290.461,696.344 h 1.842 v -1.059 h -1.842 z"
     style="fill:#ffffff;fill-opacity:1;fill-rule:nonzero;stroke:none"
     transform="matrix(1.3333333,0,0,-1.3333333,0,1122.52)"
     clip-path="url(#clipPath173-0)" /><path
     id="path174"
     d="M 0,0 H 3.132 V -1.071 H 1.313 v -2.233 h 1.301 v -1.06 H 1.313 V -6.736 H 3.132 V -7.807 H 0 Z"
     style="fill:#ffffff;fill-opacity:1;fill-rule:nonzero;stroke:none"
     transform="matrix(1.3333333,0,0,-1.3333333,390.76653,189.1948)"
     clip-path="url(#clipPath175-1)" /><path
     id="path176"
     d="m 0,0 v 1.048 h 1.221 v -1.071 c 0,-0.438 0.196,-0.691 0.644,-0.691 0.415,0 0.599,0.276 0.599,0.691 v 0.299 c 0,0.45 -0.184,0.726 -0.587,1.106 L 1.106,2.153 C 0.357,2.89 0.012,3.339 0.012,4.237 v 0.265 c 0,0.968 0.564,1.716 1.842,1.716 1.313,0 1.831,-0.645 1.831,-1.773 V 3.811 H 2.487 v 0.68 C 2.487,4.94 2.28,5.158 1.865,5.158 1.497,5.158 1.244,4.951 1.244,4.514 V 4.353 c 0,-0.438 0.242,-0.691 0.621,-1.06 L 2.706,2.464 C 3.42,1.739 3.766,1.301 3.766,0.438 V 0.058 C 3.766,-1.013 3.19,-1.773 1.854,-1.773 0.518,-1.773 0,-1.025 0,0"
     style="fill:#ffffff;fill-opacity:1;fill-rule:nonzero;stroke:none"
     transform="matrix(1.3333333,0,0,-1.3333333,395.93973,197.36253)"
     clip-path="url(#clipPath177-9)" /><path
     id="path178"
     d="M 0,0 H 3.489 V -1.071 H 2.407 V -7.807 H 1.082 v 6.736 H 0 Z"
     style="fill:#ffffff;fill-opacity:1;fill-rule:nonzero;stroke:none"
     transform="matrix(1.3333333,0,0,-1.3333333,401.83493,189.1948)"
     clip-path="url(#clipPath179-4)" /><path
     id="path180"
     d="M 0,0 H 1.048 L 0.53,3.132 H 0.518 Z m -1.646,-2.476 1.474,7.807 H 1.324 L 2.81,-2.476 H 1.463 l -0.242,1.428 h -1.393 l -0.231,-1.428 z"
     style="fill:#ffffff;fill-opacity:1;fill-rule:nonzero;stroke:none"
     transform="matrix(1.3333333,0,0,-1.3333333,409.3728,196.3032)"
     clip-path="url(#clipPath181-4)" /><path
     id="path182"
     d="m 0,0 v -2.43 h 0.437 c 0.45,0 0.645,0.231 0.645,0.645 v 1.152 C 1.082,-0.207 0.887,0 0.437,0 Z m 0,-3.155 v -3.581 h -1.313 v 7.807 h 1.912 c 1.324,0 1.808,-0.656 1.808,-1.75 v -1.002 c 0,-0.841 -0.3,-1.336 -1.048,-1.509 L 2.614,-6.736 H 1.232 Z"
     style="fill:#ffffff;fill-opacity:1;fill-rule:nonzero;stroke:none"
     transform="matrix(1.3333333,0,0,-1.3333333,415.74333,190.62253)"
     clip-path="url(#clipPath183-9)" /></g></svg>
