<?xml version="1.0" encoding="UTF-8" standalone="no"?>
<!-- Generator: Adobe Illustrator 19.0.0, SVG Export Plug-In . SVG Version: 6.00 Build 0)  -->

<svg
   version="1.1"
   id="Layer_1"
   x="0px"
   y="0px"
   viewBox="0 0 512 512"
   style="enable-background:new 0 0 512 512;"
   xml:space="preserve"
   width="512"
   height="512"
   sodipodi:docname="3.svg"
   inkscape:version="1.4.2 (f4327f4, 2025-05-13)"
   xmlns:inkscape="http://www.inkscape.org/namespaces/inkscape"
   xmlns:sodipodi="http://sodipodi.sourceforge.net/DTD/sodipodi-0.dtd"
   xmlns="http://www.w3.org/2000/svg"
   xmlns:svg="http://www.w3.org/2000/svg"><defs
   id="defs1"><clipPath
     clipPathUnits="userSpaceOnUse"
     id="clipPath185-8"><path
       d="M 0,841.89 H 595.276 V 0 H 0 Z"
       id="path185-0" /></clipPath><clipPath
     clipPathUnits="userSpaceOnUse"
     id="clipPath187-8"><path
       d="M 0,841.89 H 595.276 V 0 H 0 Z"
       transform="translate(-367.81231,-697.65551)"
       id="path187-7" /></clipPath><clipPath
     clipPathUnits="userSpaceOnUse"
     id="clipPath189-7"><path
       d="M 0,841.89 H 595.276 V 0 H 0 Z"
       transform="translate(-398.06971,-668.05571)"
       id="path189-8" /></clipPath><clipPath
     clipPathUnits="userSpaceOnUse"
     id="clipPath191-3"><path
       d="M 0,841.89 H 595.276 V 0 H 0 Z"
       transform="translate(-399.95311,-667.99042)"
       id="path191-8" /></clipPath><clipPath
     clipPathUnits="userSpaceOnUse"
     id="clipPath193-3"><path
       d="M 0,841.89 H 595.276 V 0 H 0 Z"
       transform="translate(-430.63871,-678.75551)"
       id="path193-7" /></clipPath><clipPath
     clipPathUnits="userSpaceOnUse"
     id="clipPath195-1"><path
       d="M 0,841.89 H 595.276 V 0 H 0 Z"
       transform="translate(-427.08971,-646.51882)"
       id="path195-0" /></clipPath><clipPath
     clipPathUnits="userSpaceOnUse"
     id="clipPath197-7"><path
       d="M 0,841.89 H 595.276 V 0 H 0 Z"
       transform="translate(-420.87181,-676.57211)"
       id="path197-3" /></clipPath><clipPath
     clipPathUnits="userSpaceOnUse"
     id="clipPath199-4"><path
       d="M 0,841.89 H 595.276 V 0 H 0 Z"
       transform="translate(-385.66441,-693.75401)"
       id="path199-9" /></clipPath><clipPath
     clipPathUnits="userSpaceOnUse"
     id="clipPath201-6"><path
       d="M 0,841.89 H 595.276 V 0 H 0 Z"
       transform="translate(-391.62831,-699.82112)"
       id="path201-5" /></clipPath><clipPath
     clipPathUnits="userSpaceOnUse"
     id="clipPath203-1"><path
       d="M 0,841.89 H 595.276 V 0 H 0 Z"
       transform="translate(-393.89621,-694.49042)"
       id="path203-0" /></clipPath><clipPath
     clipPathUnits="userSpaceOnUse"
     id="clipPath205-9"><path
       d="M 0,841.89 H 595.276 V 0 H 0 Z"
       transform="translate(-397.33861,-699.82112)"
       id="path205-9" /></clipPath><clipPath
     clipPathUnits="userSpaceOnUse"
     id="clipPath207-6"><path
       d="M 0,841.89 H 595.276 V 0 H 0 Z"
       id="path207-8" /></clipPath><clipPath
     clipPathUnits="userSpaceOnUse"
     id="clipPath209-3"><path
       d="M 0,841.89 H 595.276 V 0 H 0 Z"
       transform="translate(-404.93731,-693.08591)"
       id="path209-4" /></clipPath><clipPath
     clipPathUnits="userSpaceOnUse"
     id="clipPath211-8"><path
       d="M 0,841.89 H 595.276 V 0 H 0 Z"
       transform="translate(-409.27801,-694.49042)"
       id="path211-4" /></clipPath><clipPath
     clipPathUnits="userSpaceOnUse"
     id="clipPath213-9"><path
       d="M 0,841.89 H 595.276 V 0 H 0 Z"
       transform="translate(-414.58541,-693.08591)"
       id="path213-9" /></clipPath><clipPath
     clipPathUnits="userSpaceOnUse"
     id="clipPath215-2"><path
       d="M 0,841.89 H 595.276 V 0 H 0 Z"
       transform="translate(-417.48681,-699.82112)"
       id="path215-5" /></clipPath><clipPath
     clipPathUnits="userSpaceOnUse"
     id="clipPath217-5"><path
       d="M 0,841.89 H 595.276 V 0 H 0 Z"
       transform="translate(-383.00491,-711.26512)"
       id="path217-3" /></clipPath><clipPath
     clipPathUnits="userSpaceOnUse"
     id="clipPath219-3"><path
       d="M 0,841.89 H 595.276 V 0 H 0 Z"
       transform="translate(-388.79591,-704.53072)"
       id="path219-3" /></clipPath><clipPath
     clipPathUnits="userSpaceOnUse"
     id="clipPath221-7"><path
       d="M 0,841.89 H 595.276 V 0 H 0 Z"
       transform="translate(-395.51951,-711.26512)"
       id="path221-4" /></clipPath><clipPath
     clipPathUnits="userSpaceOnUse"
     id="clipPath223-3"><path
       d="M 0,841.89 H 595.276 V 0 H 0 Z"
       transform="translate(-396.38361,-705.47442)"
       id="path223-8" /></clipPath><clipPath
     clipPathUnits="userSpaceOnUse"
     id="clipPath225-0"><path
       d="M 0,841.89 H 595.276 V 0 H 0 Z"
       transform="translate(-402.17471,-705.93522)"
       id="path225-8" /></clipPath><clipPath
     clipPathUnits="userSpaceOnUse"
     id="clipPath227-8"><path
       d="M 0,841.89 H 595.276 V 0 H 0 Z"
       transform="translate(-406.74491,-702.66532)"
       id="path227-0" /></clipPath><clipPath
     clipPathUnits="userSpaceOnUse"
     id="clipPath229-6"><path
       d="M 0,841.89 H 595.276 V 0 H 0 Z"
       transform="translate(-411.14301,-705.93522)"
       id="path229-8" /></clipPath><clipPath
     clipPathUnits="userSpaceOnUse"
     id="clipPath231-1"><path
       d="M 0,841.89 H 595.276 V 0 H 0 Z"
       transform="translate(-416.97991,-705.26752)"
       id="path231-9" /></clipPath><clipPath
     clipPathUnits="userSpaceOnUse"
     id="clipPath233-8"><path
       d="M 0,841.89 H 595.276 V 0 H 0 Z"
       transform="translate(-421.77011,-704.53072)"
       id="path233-9" /></clipPath><clipPath
     clipPathUnits="userSpaceOnUse"
     id="clipPath235-7"><path
       d="M 0,841.89 H 595.276 V 0 H 0 Z"
       transform="translate(-424.40641,-711.26512)"
       id="path235-2" /></clipPath></defs><sodipodi:namedview
   id="namedview1"
   pagecolor="#505050"
   bordercolor="#eeeeee"
   borderopacity="1"
   inkscape:showpageshadow="0"
   inkscape:pageopacity="0"
   inkscape:pagecheckerboard="0"
   inkscape:deskcolor="#505050"
   inkscape:zoom="1.0675655"
   inkscape:cx="215.91181"
   inkscape:cy="258.06379"
   inkscape:window-width="1920"
   inkscape:window-height="991"
   inkscape:window-x="-9"
   inkscape:window-y="-9"
   inkscape:window-maximized="1"
   inkscape:current-layer="Layer_1" />
















<g
   id="g6"
   transform="matrix(4.0013033,0,0,4.0013033,-1897.2655,-653.20098)"><path
     id="path184"
     d="m 451.224,623.758 h -95.503 v 95.507 h 95.503 z"
     style="fill:#bd2438;fill-opacity:1;fill-rule:nonzero;stroke:none"
     transform="matrix(1.3333333,0,0,-1.3333333,0,1122.52)"
     clip-path="url(#clipPath185-8)" /><path
     id="path186"
     d="M 0,0 2.897,7.924 H 2.926 V 0 Z m 2.869,-5.651 h 3.067 v 3.124 H 7.243 V 0 H 5.936 V 13.606 H 2.754 L -2.84,-0.539 v -1.988 h 5.709 z"
     style="fill:#ffffff;fill-opacity:1;fill-rule:nonzero;stroke:none"
     transform="matrix(1.3333333,0,0,-1.3333333,490.4164,192.31267)"
     clip-path="url(#clipPath187-8)" /><path
     id="path188"
     d="M 0,0 -17.129,9.891 V -22.105 L 0,-27.272 Z"
     style="fill:#ffffff;fill-opacity:1;fill-rule:nonzero;stroke:none"
     transform="matrix(1.3333333,0,0,-1.3333333,530.7596,231.77907)"
     clip-path="url(#clipPath189-7)" /><path
     id="path190"
     d="m 0,0 v -27.218 l 17.239,5.183 V 9.954 Z"
     style="fill:#ffffff;fill-opacity:1;fill-rule:nonzero;stroke:none"
     transform="matrix(1.3333333,0,0,-1.3333333,533.2708,231.86613)"
     clip-path="url(#clipPath191-3)" /><path
     id="path192"
     d="M 0,0 C 0,1.121 -0.907,2.028 -2.025,2.028 -3.146,2.028 -4.052,1.121 -4.052,0 V -2.184 H 0 Z"
     style="fill:#ffffff;fill-opacity:1;fill-rule:nonzero;stroke:none"
     transform="matrix(1.3333333,0,0,-1.3333333,574.18493,217.51267)"
     clip-path="url(#clipPath193-3)" /><path
     id="path194"
     d="M 0,0 H -0.503 L 1.524,-7.083 3.548,0 H 3.045 3.548 V 28.465 H 3.045 2.542 2.008 1 0.503 0 -0.504 V 0 Z"
     style="fill:#ffffff;fill-opacity:1;fill-rule:nonzero;stroke:none"
     transform="matrix(1.3333333,0,0,-1.3333333,569.45293,260.49493)"
     clip-path="url(#clipPath195-1)" /><path
     id="path196"
     d="m 0,0 -1.836,1.45 v -32.939 l -19.031,-6.149 h -0.882 -0.173 -0.88 l -18.947,5.293 V 1.45 L -43.587,0 v -33.633 l 20.698,-5.73 h 0.967 0.173 0.968 L -1.687,-33.3 0,-32.803 Z"
     style="fill:#ffffff;fill-opacity:1;fill-rule:nonzero;stroke:none"
     transform="matrix(1.3333333,0,0,-1.3333333,561.1624,220.42387)"
     clip-path="url(#clipPath197-7)" /><path
     id="path198"
     d="m 0,0 v 4.259 c 0,0.473 -0.207,0.806 -0.679,0.806 -0.46,0 -0.668,-0.333 -0.668,-0.806 V 0 c 0,-0.461 0.208,-0.806 0.668,-0.806 C -0.207,-0.806 0,-0.461 0,0 m -1.163,-2.268 v 0.529 C -2.21,-1.554 -2.66,-0.783 -2.66,0.276 v 3.776 c 0,1.22 0.6,2.107 1.981,2.107 1.393,0 1.991,-0.887 1.991,-2.107 V 0.276 c 0,-0.852 -0.299,-1.519 -0.966,-1.842 L 1.312,-1.75 v -0.979 z"
     style="fill:#ffffff;fill-opacity:1;fill-rule:nonzero;stroke:none"
     transform="matrix(1.3333333,0,0,-1.3333333,514.2192,197.51467)"
     clip-path="url(#clipPath199-4)" /><path
     id="path200"
     d="m 0,0 v -5.906 c 0,-1.209 -0.519,-1.992 -1.854,-1.992 -1.381,0 -1.957,0.783 -1.957,1.992 V 0 h 1.313 v -6.033 c 0,-0.46 0.183,-0.771 0.644,-0.771 0.461,0 0.645,0.311 0.645,0.771 V 0 Z"
     style="fill:#ffffff;fill-opacity:1;fill-rule:nonzero;stroke:none"
     transform="matrix(1.3333333,0,0,-1.3333333,522.17107,189.4252)"
     clip-path="url(#clipPath201-6)" /><path
     id="path202"
     d="M 0,0 H 1.048 L 0.529,3.132 H 0.518 Z m -1.646,-2.475 1.473,7.806 H 1.324 L 2.809,-2.475 H 1.462 L 1.22,-1.047 h -1.393 l -0.23,-1.428 z"
     style="fill:#ffffff;fill-opacity:1;fill-rule:nonzero;stroke:none"
     transform="matrix(1.3333333,0,0,-1.3333333,525.19493,196.5328)"
     clip-path="url(#clipPath203-1)" /><path
     id="path204"
     d="M 0,0 H 1.312 V -6.735 H 2.878 V -7.806 H 0 Z"
     style="fill:#ffffff;fill-opacity:1;fill-rule:nonzero;stroke:none"
     transform="matrix(1.3333333,0,0,-1.3333333,529.7848,189.4252)"
     clip-path="url(#clipPath205-9)" /><path
     id="path206"
     d="m 400.908,699.821 h 1.312 v -7.806 h -1.312 z"
     style="fill:#ffffff;fill-opacity:1;fill-rule:nonzero;stroke:none"
     transform="matrix(1.3333333,0,0,-1.3333333,0,1122.52)"
     clip-path="url(#clipPath207-6)" /><path
     id="path208"
     d="M 0,0 C 0.541,0 0.748,0.323 0.748,0.795 V 4.881 C 0.748,5.342 0.541,5.664 0,5.664 H -0.553 V 0 Z M 2.06,4.64 V 1.025 C 2.06,-0.172 1.566,-1.07 0.161,-1.07 H -1.865 V 6.735 H 0.161 C 1.566,6.735 2.06,5.849 2.06,4.64"
     style="fill:#ffffff;fill-opacity:1;fill-rule:nonzero;stroke:none"
     transform="matrix(1.3333333,0,0,-1.3333333,539.9164,198.40547)"
     clip-path="url(#clipPath209-3)" /><path
     id="path210"
     d="M 0,0 H 1.047 L 0.53,3.132 H 0.518 Z m -1.646,-2.475 1.473,7.806 H 1.324 L 2.809,-2.475 H 1.462 L 1.22,-1.047 h -1.393 l -0.23,-1.428 z"
     style="fill:#ffffff;fill-opacity:1;fill-rule:nonzero;stroke:none"
     transform="matrix(1.3333333,0,0,-1.3333333,545.704,196.5328)"
     clip-path="url(#clipPath211-8)" /><path
     id="path212"
     d="M 0,0 C 0.541,0 0.748,0.323 0.748,0.795 V 4.881 C 0.748,5.342 0.541,5.664 0,5.664 H -0.553 V 0 Z M 2.06,4.64 V 1.025 C 2.06,-0.172 1.565,-1.07 0.161,-1.07 H -1.865 V 6.735 H 0.161 C 1.565,6.735 2.06,5.849 2.06,4.64"
     style="fill:#ffffff;fill-opacity:1;fill-rule:nonzero;stroke:none"
     transform="matrix(1.3333333,0,0,-1.3333333,552.78053,198.40547)"
     clip-path="url(#clipPath213-9)" /><path
     id="path214"
     d="M 0,0 H 3.132 V -1.071 H 1.312 V -3.304 H 2.613 V -4.363 H 1.312 v -2.372 h 1.82 V -7.806 H 0 Z"
     style="fill:#ffffff;fill-opacity:1;fill-rule:nonzero;stroke:none"
     transform="matrix(1.3333333,0,0,-1.3333333,556.64907,189.4252)"
     clip-path="url(#clipPath215-2)" /><path
     id="path216"
     d="M 0,0 H 3.132 V -1.07 H 1.312 V -3.304 H 2.614 V -4.363 H 1.312 v -2.371 h 1.82 V -7.805 H 0 Z"
     style="fill:#ffffff;fill-opacity:1;fill-rule:nonzero;stroke:none"
     transform="matrix(1.3333333,0,0,-1.3333333,510.6732,174.16653)"
     clip-path="url(#clipPath217-5)" /><path
     id="path218"
     d="M 0,0 C 0.541,0 0.749,0.322 0.749,0.794 V 4.881 C 0.749,5.341 0.541,5.664 0,5.664 H -0.553 V 0 Z M 2.061,4.639 V 1.024 c 0,-1.197 -0.495,-2.095 -1.9,-2.095 h -2.026 v 7.805 h 2.026 c 1.405,0 1.9,-0.886 1.9,-2.095"
     style="fill:#ffffff;fill-opacity:1;fill-rule:nonzero;stroke:none"
     transform="matrix(1.3333333,0,0,-1.3333333,518.39453,183.14573)"
     clip-path="url(#clipPath219-3)" /><path
     id="path220"
     d="m 0,0 v -5.906 c 0,-1.209 -0.518,-1.992 -1.853,-1.992 -1.382,0 -1.958,0.783 -1.958,1.992 V 0 h 1.313 v -6.033 c 0,-0.46 0.184,-0.771 0.645,-0.771 0.46,0 0.644,0.311 0.644,0.771 V 0 Z"
     style="fill:#ffffff;fill-opacity:1;fill-rule:nonzero;stroke:none"
     transform="matrix(1.3333333,0,0,-1.3333333,527.35933,174.16653)"
     clip-path="url(#clipPath221-7)" /><path
     id="path222"
     d="m 0,0 v 3.776 c 0,1.22 0.576,2.107 1.957,2.107 1.451,0 1.854,-0.806 1.854,-1.957 V 3.005 H 2.613 V 4.03 c 0,0.483 -0.161,0.759 -0.633,0.759 -0.472,0 -0.668,-0.334 -0.668,-0.806 v -4.19 c 0,-0.472 0.196,-0.806 0.668,-0.806 0.472,0 0.633,0.299 0.633,0.76 V 1.186 H 3.811 V -0.161 C 3.811,-1.278 3.35,-2.107 1.957,-2.107 0.576,-2.107 0,-1.209 0,0"
     style="fill:#ffffff;fill-opacity:1;fill-rule:nonzero;stroke:none"
     transform="matrix(1.3333333,0,0,-1.3333333,528.51147,181.88747)"
     clip-path="url(#clipPath223-3)" /><path
     id="path224"
     d="M 0,0 H 1.047 L 0.529,3.131 H 0.518 Z M -1.646,-2.475 -0.173,5.33 H 1.324 L 2.809,-2.475 H 1.462 L 1.22,-1.048 h -1.393 l -0.23,-1.427 z"
     style="fill:#ffffff;fill-opacity:1;fill-rule:nonzero;stroke:none"
     transform="matrix(1.3333333,0,0,-1.3333333,536.23293,181.27307)"
     clip-path="url(#clipPath225-0)" /><path
     id="path226"
     d="m 0,0 c 0.369,0.012 0.426,0.092 0.426,0.184 0,0.081 -0.069,0.127 -0.184,0.127 H 0.184 v 0.426 c -1.116,0.138 -1.577,0.978 -1.577,2.072 v 3.776 c 0,1.22 0.576,2.107 1.957,2.107 1.451,0 1.854,-0.806 1.854,-1.957 V 5.814 H 1.221 v 1.025 c 0,0.483 -0.161,0.759 -0.633,0.759 -0.472,0 -0.669,-0.334 -0.669,-0.806 v -4.19 c 0,-0.472 0.197,-0.806 0.669,-0.806 0.472,0 0.633,0.299 0.633,0.76 V 3.995 H 2.418 V 2.648 C 2.418,1.554 1.98,0.748 0.68,0.702 V 0.599 C 0.991,0.553 1.163,0.438 1.163,0.184 1.163,-0.172 0.829,-0.368 0,-0.368 Z"
     style="fill:#ffffff;fill-opacity:1;fill-rule:nonzero;stroke:none"
     transform="matrix(1.3333333,0,0,-1.3333333,542.32653,185.63293)"
     clip-path="url(#clipPath227-8)" /><path
     id="path228"
     d="M 0,0 H 1.048 L 0.529,3.131 h -0.01 z m -0.622,5.641 c 0.024,0.54 0.231,0.978 0.806,0.978 0.335,0 0.611,-0.195 0.783,-0.195 0.093,0 0.162,0.057 0.162,0.172 H 1.773 C 1.75,6.055 1.543,5.618 0.967,5.618 0.633,5.618 0.357,5.814 0.184,5.814 0.092,5.814 0.023,5.756 0.023,5.641 Z M -1.646,-2.475 -0.173,5.33 H 1.324 L 2.809,-2.475 H 1.462 l -0.241,1.427 h -1.394 l -0.23,-1.427 z"
     style="fill:#ffffff;fill-opacity:1;fill-rule:nonzero;stroke:none"
     transform="matrix(1.3333333,0,0,-1.3333333,548.19067,181.27307)"
     clip-path="url(#clipPath229-6)" /><path
     id="path230"
     d="m 0,0 v 4.19 c 0,0.472 -0.207,0.806 -0.679,0.806 -0.46,0 -0.667,-0.334 -0.667,-0.806 V 0 c 0,-0.472 0.207,-0.806 0.667,-0.806 C -0.207,-0.806 0,-0.472 0,0 m -2.659,0.207 v 3.776 c 0,1.22 0.599,2.107 1.98,2.107 1.393,0 1.991,-0.887 1.991,-2.107 V 0.207 c 0,-1.209 -0.598,-2.107 -1.991,-2.107 -1.381,0 -1.98,0.898 -1.98,2.107"
     style="fill:#ffffff;fill-opacity:1;fill-rule:nonzero;stroke:none"
     transform="matrix(1.3333333,0,0,-1.3333333,555.9732,182.16333)"
     clip-path="url(#clipPath231-1)" /><path
     id="path232"
     d="M 0,0 C 0.541,0 0.748,0.322 0.748,0.794 V 4.881 C 0.748,5.341 0.541,5.664 0,5.664 H -0.553 V 0 Z M 2.06,4.639 V 1.024 c 0,-1.197 -0.495,-2.095 -1.9,-2.095 H -1.865 V 6.734 H 0.16 c 1.405,0 1.9,-0.886 1.9,-2.095"
     style="fill:#ffffff;fill-opacity:1;fill-rule:nonzero;stroke:none"
     transform="matrix(1.3333333,0,0,-1.3333333,562.36013,183.14573)"
     clip-path="url(#clipPath233-8)" /><path
     id="path234"
     d="M 0,0 H 3.132 V -1.07 H 1.312 V -3.304 H 2.613 V -4.363 H 1.312 v -2.371 h 1.82 V -7.805 H 0 Z"
     style="fill:#ffffff;fill-opacity:1;fill-rule:nonzero;stroke:none"
     transform="matrix(1.3333333,0,0,-1.3333333,565.8752,174.16653)"
     clip-path="url(#clipPath235-7)" /></g></svg>
