<?xml version="1.0" encoding="UTF-8" standalone="no"?>
<!-- Generator: Adobe Illustrator 19.0.0, SVG Export Plug-In . SVG Version: 6.00 Build 0)  -->

<svg
   version="1.1"
   id="Layer_1"
   x="0px"
   y="0px"
   viewBox="0 0 512 512"
   style="enable-background:new 0 0 512 512;"
   xml:space="preserve"
   width="512"
   height="512"
   sodipodi:docname="7.svg"
   inkscape:version="1.4.2 (f4327f4, 2025-05-13)"
   xmlns:inkscape="http://www.inkscape.org/namespaces/inkscape"
   xmlns:sodipodi="http://sodipodi.sourceforge.net/DTD/sodipodi-0.dtd"
   xmlns="http://www.w3.org/2000/svg"
   xmlns:svg="http://www.w3.org/2000/svg"><defs
   id="defs1"><clipPath
     clipPathUnits="userSpaceOnUse"
     id="clipPath405-5"><path
       d="M 0,841.89 H 595.276 V 0 H 0 Z"
       id="path405-2" /></clipPath><clipPath
     clipPathUnits="userSpaceOnUse"
     id="clipPath407-0"><path
       d="M 0,841.89 H 595.276 V 0 H 0 Z"
       transform="translate(-263.1493,-589.93001)"
       id="path407-3" /></clipPath><clipPath
     clipPathUnits="userSpaceOnUse"
     id="clipPath409-7"><path
       d="M 0,841.89 H 595.276 V 0 H 0 Z"
       transform="translate(-313.70361,-565.83232)"
       id="path409-2" /></clipPath><clipPath
     clipPathUnits="userSpaceOnUse"
     id="clipPath411-9"><path
       d="M 0,841.89 H 595.276 V 0 H 0 Z"
       transform="translate(-285.73861,-553.80211)"
       id="path411-7" /></clipPath><clipPath
     clipPathUnits="userSpaceOnUse"
     id="clipPath413-5"><path
       d="M 0,841.89 H 595.276 V 0 H 0 Z"
       transform="translate(-318.11571,-577.03121)"
       id="path413-3" /></clipPath><clipPath
     clipPathUnits="userSpaceOnUse"
     id="clipPath415-4"><path
       d="M 0,841.89 H 595.276 V 0 H 0 Z"
       transform="translate(-299.77591,-552.18161)"
       id="path415-3" /></clipPath><clipPath
     clipPathUnits="userSpaceOnUse"
     id="clipPath417-2"><path
       d="M 0,841.89 H 595.276 V 0 H 0 Z"
       transform="translate(-272.16201,-605.41972)"
       id="path417-1" /></clipPath><clipPath
     clipPathUnits="userSpaceOnUse"
     id="clipPath419-1"><path
       d="M 0,841.89 H 595.276 V 0 H 0 Z"
       transform="translate(-277.65351,-604.34921)"
       id="path419-3" /></clipPath><clipPath
     clipPathUnits="userSpaceOnUse"
     id="clipPath421-2"><path
       d="M 0,841.89 H 595.276 V 0 H 0 Z"
       transform="translate(-282.28191,-600.08951)"
       id="path421-5" /></clipPath><clipPath
     clipPathUnits="userSpaceOnUse"
     id="clipPath423-3"><path
       d="M 0,841.89 H 595.276 V 0 H 0 Z"
       transform="translate(-287.02521,-601.12541)"
       id="path423-5" /></clipPath><clipPath
     clipPathUnits="userSpaceOnUse"
     id="clipPath425-1"><path
       d="M 0,841.89 H 595.276 V 0 H 0 Z"
       transform="translate(-291.7339,-600.08951)"
       id="path425-2" /></clipPath><clipPath
     clipPathUnits="userSpaceOnUse"
     id="clipPath427-2"><path
       d="M 0,841.89 H 595.276 V 0 H 0 Z"
       transform="translate(-295.165,-605.41972)"
       id="path427-2" /></clipPath><clipPath
     clipPathUnits="userSpaceOnUse"
     id="clipPath429-6"><path
       d="M 0,841.89 H 595.276 V 0 H 0 Z"
       transform="translate(-301.30141,-601.05652)"
       id="path429-4" /></clipPath><clipPath
     clipPathUnits="userSpaceOnUse"
     id="clipPath431-0"><path
       d="M 0,841.89 H 595.276 V 0 H 0 Z"
       transform="translate(-306.11381,-599.42171)"
       id="path431-7" /></clipPath><clipPath
     clipPathUnits="userSpaceOnUse"
     id="clipPath433-0"><path
       d="M 0,841.89 H 595.276 V 0 H 0 Z"
       transform="translate(-311.40961,-598.68491)"
       id="path433-3" /></clipPath><clipPath
     clipPathUnits="userSpaceOnUse"
     id="clipPath435-4"><path
       d="M 0,841.89 H 595.276 V 0 H 0 Z"
       transform="translate(-314.29961,-605.41972)"
       id="path435-0" /></clipPath><clipPath
     clipPathUnits="userSpaceOnUse"
     id="clipPath437-0"><path
       d="M 0,841.89 H 595.276 V 0 H 0 Z"
       transform="translate(-318.22671,-599.62901)"
       id="path437-5" /></clipPath><clipPath
     clipPathUnits="userSpaceOnUse"
     id="clipPath439-3"><path
       d="M 0,841.89 H 595.276 V 0 H 0 Z"
       transform="translate(-322.57911,-605.41972)"
       id="path439-1" /></clipPath><clipPath
     clipPathUnits="userSpaceOnUse"
     id="clipPath441-0"><path
       d="M 0,841.89 H 595.276 V 0 H 0 Z"
       transform="translate(-327.34511,-602.51872)"
       id="path441-6" /></clipPath><clipPath
     clipPathUnits="userSpaceOnUse"
     id="clipPath443-7"><path
       d="M 0,841.89 H 595.276 V 0 H 0 Z"
       transform="translate(-330.46531,-605.41972)"
       id="path443-5" /></clipPath><clipPath
     clipPathUnits="userSpaceOnUse"
     id="clipPath445-0"><path
       d="M 0,841.89 H 595.276 V 0 H 0 Z"
       transform="translate(-334.39071,-605.41972)"
       id="path445-0" /></clipPath><clipPath
     clipPathUnits="userSpaceOnUse"
     id="clipPath447-4"><path
       d="M 0,841.89 H 595.276 V 0 H 0 Z"
       transform="translate(-271.71321,-594.55111)"
       id="path447-5" /></clipPath><clipPath
     clipPathUnits="userSpaceOnUse"
     id="clipPath449-4"><path
       d="M 0,841.89 H 595.276 V 0 H 0 Z"
       transform="translate(-276.4912,-588.76051)"
       id="path449-9" /></clipPath><clipPath
     clipPathUnits="userSpaceOnUse"
     id="clipPath451-5"><path
       d="M 0,841.89 H 595.276 V 0 H 0 Z"
       transform="translate(-282.20121,-593.48071)"
       id="path451-6" /></clipPath><clipPath
     clipPathUnits="userSpaceOnUse"
     id="clipPath453-4"><path
       d="M 0,841.89 H 595.276 V 0 H 0 Z"
       transform="translate(-285.1948,-594.55111)"
       id="path453-8" /></clipPath><clipPath
     clipPathUnits="userSpaceOnUse"
     id="clipPath455-2"><path
       d="M 0,841.89 H 595.276 V 0 H 0 Z"
       transform="translate(-288.8329,-588.42682)"
       id="path455-1" /></clipPath><clipPath
     clipPathUnits="userSpaceOnUse"
     id="clipPath457-6"><path
       d="M 0,841.89 H 595.276 V 0 H 0 Z"
       transform="translate(-293.15041,-588.76051)"
       id="path457-8" /></clipPath><clipPath
     clipPathUnits="userSpaceOnUse"
     id="clipPath459-3"><path
       d="M 0,841.89 H 595.276 V 0 H 0 Z"
       id="path459-1" /></clipPath><clipPath
     clipPathUnits="userSpaceOnUse"
     id="clipPath461-4"><path
       d="M 0,841.89 H 595.276 V 0 H 0 Z"
       transform="translate(-303.09731,-591.81101)"
       id="path461-8" /></clipPath><clipPath
     clipPathUnits="userSpaceOnUse"
     id="clipPath463-4"><path
       d="M 0,841.89 H 595.276 V 0 H 0 Z"
       transform="translate(-304.91661,-594.55111)"
       id="path463-9" /></clipPath><clipPath
     clipPathUnits="userSpaceOnUse"
     id="clipPath465-2"><path
       d="M 0,841.89 H 595.276 V 0 H 0 Z"
       transform="translate(-309.71771,-591.65011)"
       id="path465-0" /></clipPath><clipPath
     clipPathUnits="userSpaceOnUse"
     id="clipPath467-7"><path
       d="M 0,841.89 H 595.276 V 0 H 0 Z"
       transform="translate(-312.88351,-594.55111)"
       id="path467-0" /></clipPath><clipPath
     clipPathUnits="userSpaceOnUse"
     id="clipPath469-6"><path
       d="M 0,841.89 H 595.276 V 0 H 0 Z"
       transform="translate(-319.51481,-588.55321)"
       id="path469-0" /></clipPath><clipPath
     clipPathUnits="userSpaceOnUse"
     id="clipPath471-7"><path
       d="M 0,841.89 H 595.276 V 0 H 0 Z"
       transform="translate(-271.71321,-583.86682)"
       id="path471-0" /></clipPath><clipPath
     clipPathUnits="userSpaceOnUse"
     id="clipPath473-5"><path
       d="M 0,841.89 H 595.276 V 0 H 0 Z"
       transform="translate(-275.37421,-578.07641)"
       id="path473-6" /></clipPath><clipPath
     clipPathUnits="userSpaceOnUse"
     id="clipPath475-7"><path
       d="M 0,841.89 H 595.276 V 0 H 0 Z"
       transform="translate(-282.3853,-577.86871)"
       id="path475-3" /></clipPath><clipPath
     clipPathUnits="userSpaceOnUse"
     id="clipPath477-8"><path
       d="M 0,841.89 H 595.276 V 0 H 0 Z"
       transform="translate(-285.37891,-580.96541)"
       id="path477-4" /></clipPath><clipPath
     clipPathUnits="userSpaceOnUse"
     id="clipPath479-9"><path
       d="M 0,841.89 H 595.276 V 0 H 0 Z"
       transform="translate(-291.3079,-577.86871)"
       id="path479-2" /></clipPath><clipPath
     clipPathUnits="userSpaceOnUse"
     id="clipPath481-6"><path
       d="M 0,841.89 H 595.276 V 0 H 0 Z"
       transform="translate(-296.81101,-581.12662)"
       id="path481-5" /></clipPath><clipPath
     clipPathUnits="userSpaceOnUse"
     id="clipPath483-7"><path
       d="M 0,841.89 H 595.276 V 0 H 0 Z"
       id="path483-7" /></clipPath><clipPath
     clipPathUnits="userSpaceOnUse"
     id="clipPath485-4"><path
       d="M 0,841.89 H 595.276 V 0 H 0 Z"
       transform="translate(-300.48401,-578.07641)"
       id="path485-5" /></clipPath><clipPath
     clipPathUnits="userSpaceOnUse"
     id="clipPath487-7"><path
       d="M 0,841.89 H 595.276 V 0 H 0 Z"
       transform="translate(-307.49551,-577.86871)"
       id="path487-9" /></clipPath></defs><sodipodi:namedview
   id="namedview1"
   pagecolor="#505050"
   bordercolor="#eeeeee"
   borderopacity="1"
   inkscape:showpageshadow="0"
   inkscape:pageopacity="0"
   inkscape:pagecheckerboard="0"
   inkscape:deskcolor="#505050"
   inkscape:zoom="1.0675655"
   inkscape:cx="216.84852"
   inkscape:cy="229.96247"
   inkscape:window-width="1920"
   inkscape:window-height="991"
   inkscape:window-x="-9"
   inkscape:window-y="-9"
   inkscape:window-maximized="1"
   inkscape:current-layer="Layer_1" />
















<g
   id="g10"
   transform="matrix(4.0160156,0,0,4.0160156,-1326.8363,-1226.0986)"><path
     id="path404"
     d="m 343.334,517.314 h -95.503 v 95.506 h 95.503 z"
     style="fill:#992247;fill-opacity:1;fill-rule:nonzero;stroke:none"
     transform="matrix(1.3333333,0,0,-1.3333333,0,1122.52)"
     clip-path="url(#clipPath405-5)" /><path
     id="path406"
     d="m 0,0 c 0,-1.164 -0.426,-1.988 -1.59,-1.988 -1.137,0 -1.562,0.824 -1.562,1.988 v 3.125 c 0,1.164 0.425,1.987 1.562,1.987 C -0.426,5.112 0,4.289 0,3.125 Z m -3.039,10.65 c 0,1.166 0.399,1.848 1.449,1.848 1.078,0 1.477,-0.682 1.477,-1.848 V 9.345 c 0,-1.165 -0.399,-1.848 -1.477,-1.848 -1.05,0 -1.449,0.683 -1.449,1.848 z M 3.238,0.341 v 2.102 c 0,1.846 -0.652,3.181 -2.158,3.863 1.276,0.624 1.874,1.76 1.874,3.35 v 0.797 c 0,3.011 -1.562,4.629 -4.544,4.629 -2.953,0 -4.488,-1.618 -4.488,-4.629 V 9.656 c 0,-1.562 0.569,-2.726 1.817,-3.35 -1.504,-0.682 -2.13,-2.017 -2.13,-3.863 V 0.341 c 0,-2.926 1.393,-4.97 4.801,-4.97 3.435,0 4.828,2.044 4.828,4.97"
     style="fill:#ffffff;fill-opacity:1;fill-rule:nonzero;stroke:none"
     transform="matrix(1.3333333,0,0,-1.3333333,350.86573,335.94667)"
     clip-path="url(#clipPath407-0)" /><path
     id="path408"
     d="m 0,0 -9.707,-9.233 c -0.367,-0.365 -0.554,-0.634 -0.554,-1.388 v -25.88 c 0,-0.304 0.248,-0.552 0.554,-0.552 H 0.32 c 0.305,0 0.552,0.248 0.552,0.552 V -0.232 C 0.872,0.072 0.633,0.63 0,0"
     style="fill:#ffffff;fill-opacity:1;fill-rule:nonzero;stroke:none"
     transform="matrix(1.3333333,0,0,-1.3333333,418.27147,368.07693)"
     clip-path="url(#clipPath409-7)" /><path
     id="path410"
     d="m 0,0 -9.708,-9.233 c -0.366,-0.365 -0.554,-0.633 -0.554,-1.386 v -13.852 c 0,-0.303 0.248,-0.551 0.554,-0.551 H 0.319 c 0.306,0 0.553,0.248 0.553,0.551 V -0.232 C 0.872,0.074 0.632,0.633 0,0"
     style="fill:#ffffff;fill-opacity:1;fill-rule:nonzero;stroke:none"
     transform="matrix(1.3333333,0,0,-1.3333333,380.9848,384.1172)"
     clip-path="url(#clipPath411-9)" /><path
     id="path412"
     d="M 0,0 C 0.003,0.073 -0.023,0.152 -0.083,0.21 -0.134,0.26 -0.199,0.283 -0.261,0.289 L -0.315,0.286 -0.395,0.281 -7.827,-1.396 -7.962,-1.409 c -0.054,-0.011 -0.104,-0.038 -0.145,-0.077 -0.111,-0.11 -0.111,-0.289 0,-0.399 l 0.083,-0.085 1.698,-1.696 -16.843,-16.844 -7.778,7.78 c -0.088,0.089 -0.228,0.089 -0.318,0 l -2.11,-2.111 c -10e-4,0 -10e-4,-0.003 -10e-4,-0.003 l -12.47,-12.467 c -0.087,-0.088 -0.087,-0.231 0,-0.318 l 2.114,-2.111 c 0.085,-0.088 0.226,-0.088 0.314,0 l 12.314,12.311 5.645,-5.645 c 0.005,-0.009 0.009,-0.019 0.018,-0.027 l 2.112,-2.109 c 0.087,-0.089 0.227,-0.089 0.316,0 l 19.115,19.115 1.783,-1.781 c 0.109,-0.111 0.288,-0.111 0.396,0 0.052,0.051 0.077,0.115 0.08,0.182 l 0.002,0.024 1.633,7.588 z"
     style="fill:#ffffff;fill-opacity:1;fill-rule:nonzero;stroke:none"
     transform="matrix(1.3333333,0,0,-1.3333333,424.15427,353.14507)"
     clip-path="url(#clipPath413-5)" /><path
     id="path414"
     d="m 0,0 -4.697,-4.736 c -0.089,-0.073 -0.22,-0.071 -0.302,0.012 l -4.256,4.337 c -0.778,0.776 -0.947,0.147 -0.947,-0.157 V -22.85 c 0,-0.303 0.245,-0.552 0.55,-0.552 h 10.03 c 0.303,0 0.551,0.249 0.551,0.552 V -0.175 C 0.929,0.13 0.689,0.69 0,0"
     style="fill:#ffffff;fill-opacity:1;fill-rule:nonzero;stroke:none"
     transform="matrix(1.3333333,0,0,-1.3333333,399.7012,386.27787)"
     clip-path="url(#clipPath415-4)" /><path
     id="path416"
     d="M 0,0 H 3.488 V -1.07 H 2.406 V -7.805 H 1.082 V -1.07 H 0 Z"
     style="fill:#ffffff;fill-opacity:1;fill-rule:nonzero;stroke:none"
     transform="matrix(1.3333333,0,0,-1.3333333,362.88267,315.29373)"
     clip-path="url(#clipPath417-2)" /><path
     id="path418"
     d="m 0,0 v -2.429 h 0.438 c 0.448,0 0.644,0.23 0.644,0.644 v 1.152 C 1.082,-0.207 0.886,0 0.438,0 Z M 0,-3.154 V -6.735 H -1.312 V 1.07 h 1.911 c 1.324,0 1.807,-0.656 1.807,-1.749 v -1.002 c 0,-0.84 -0.299,-1.335 -1.047,-1.508 L 2.613,-6.735 H 1.232 Z"
     style="fill:#ffffff;fill-opacity:1;fill-rule:nonzero;stroke:none"
     transform="matrix(1.3333333,0,0,-1.3333333,370.20467,316.72107)"
     clip-path="url(#clipPath419-1)" /><path
     id="path420"
     d="M 0,0 H 1.048 L 0.53,3.131 H 0.518 Z M -1.646,-2.475 -0.173,5.33 H 1.324 L 2.809,-2.475 H 1.462 L 1.22,-1.048 h -1.393 l -0.23,-1.427 z"
     style="fill:#ffffff;fill-opacity:1;fill-rule:nonzero;stroke:none"
     transform="matrix(1.3333333,0,0,-1.3333333,376.37587,322.40067)"
     clip-path="url(#clipPath421-2)" /><path
     id="path422"
     d="m 0,0 v -2.44 h 0.576 c 0.437,0 0.644,0.218 0.644,0.633 v 1.174 C 1.22,-0.218 1.024,0 0.564,0 Z m 0,1.002 h 0.46 c 0.426,0 0.622,0.218 0.622,0.633 v 0.956 c 0,0.425 -0.196,0.633 -0.633,0.633 H 0 Z m -1.312,3.292 h 1.899 c 1.312,0 1.75,-0.61 1.75,-1.715 V 1.785 C 2.337,1.128 2.095,0.714 1.554,0.541 2.21,0.391 2.533,-0.046 2.533,-0.76 v -1.036 c 0,-1.105 -0.495,-1.715 -1.808,-1.715 h -2.037 z"
     style="fill:#ffffff;fill-opacity:1;fill-rule:nonzero;stroke:none"
     transform="matrix(1.3333333,0,0,-1.3333333,382.70027,321.01947)"
     clip-path="url(#clipPath423-3)" /><path
     id="path424"
     d="M 0,0 H 1.048 L 0.53,3.131 H 0.518 Z M -1.646,-2.475 -0.173,5.33 H 1.324 L 2.809,-2.475 H 1.462 L 1.22,-1.048 h -1.393 l -0.23,-1.427 z"
     style="fill:#ffffff;fill-opacity:1;fill-rule:nonzero;stroke:none"
     transform="matrix(1.3333333,0,0,-1.3333333,388.97853,322.40067)"
     clip-path="url(#clipPath425-1)" /><path
     id="path426"
     d="m 0,0 h 1.312 v -6.735 h 1.566 v -1.07 H 0 Z"
     style="fill:#ffffff;fill-opacity:1;fill-rule:nonzero;stroke:none"
     transform="matrix(1.3333333,0,0,-1.3333333,393.55333,315.29373)"
     clip-path="url(#clipPath427-2)" /><path
     id="path428"
     d="m 0,0 h -1.267 v -3.442 h -1.312 v 7.805 h 1.312 V 1.059 H 0 V 4.363 H 1.324 V -3.442 H 0 Z"
     style="fill:#ffffff;fill-opacity:1;fill-rule:nonzero;stroke:none"
     transform="matrix(1.3333333,0,0,-1.3333333,401.7352,321.11133)"
     clip-path="url(#clipPath429-6)" /><path
     id="path430"
     d="m 0,0 v 4.191 c 0,0.471 -0.207,0.806 -0.679,0.806 -0.461,0 -0.668,-0.335 -0.668,-0.806 V 0 c 0,-0.472 0.207,-0.806 0.668,-0.806 C -0.207,-0.806 0,-0.472 0,0 m -2.66,0.207 v 3.776 c 0,1.221 0.599,2.107 1.981,2.107 1.393,0 1.991,-0.886 1.991,-2.107 V 0.207 c 0,-1.208 -0.598,-2.106 -1.991,-2.106 -1.382,0 -1.981,0.898 -1.981,2.106"
     style="fill:#ffffff;fill-opacity:1;fill-rule:nonzero;stroke:none"
     transform="matrix(1.3333333,0,0,-1.3333333,408.15173,323.29107)"
     clip-path="url(#clipPath431-0)" /><path
     id="path432"
     d="M 0,0 C 0.541,0 0.748,0.322 0.748,0.794 V 4.881 C 0.748,5.342 0.541,5.664 0,5.664 H -0.552 V 0 Z M 2.061,4.64 V 1.025 c 0,-1.198 -0.495,-2.096 -1.9,-2.096 h -2.026 v 7.806 h 2.026 c 1.405,0 1.9,-0.887 1.9,-2.095"
     style="fill:#ffffff;fill-opacity:1;fill-rule:nonzero;stroke:none"
     transform="matrix(1.3333333,0,0,-1.3333333,415.2128,324.27347)"
     clip-path="url(#clipPath433-0)" /><path
     id="path434"
     d="M 0,0 H 3.132 V -1.07 H 1.312 V -3.304 H 2.613 V -4.363 H 1.312 v -2.372 h 1.82 v -1.07 H 0 Z"
     style="fill:#ffffff;fill-opacity:1;fill-rule:nonzero;stroke:none"
     transform="matrix(1.3333333,0,0,-1.3333333,419.06613,315.29373)"
     clip-path="url(#clipPath435-4)" /><path
     id="path436"
     d="m 0,0 v 3.776 c 0,1.221 0.576,2.107 1.957,2.107 1.451,0 1.854,-0.806 1.854,-1.957 V 3.005 H 2.613 v 1.024 c 0,0.484 -0.161,0.76 -0.633,0.76 -0.472,0 -0.667,-0.334 -0.667,-0.806 v -4.19 c 0,-0.472 0.195,-0.806 0.667,-0.806 0.472,0 0.633,0.299 0.633,0.76 V 1.186 H 3.811 V -0.161 C 3.811,-1.278 3.35,-2.107 1.957,-2.107 0.576,-2.107 0,-1.209 0,0"
     style="fill:#ffffff;fill-opacity:1;fill-rule:nonzero;stroke:none"
     transform="matrix(1.3333333,0,0,-1.3333333,424.30227,323.01467)"
     clip-path="url(#clipPath437-0)" /><path
     id="path438"
     d="M 0,0 H 3.131 V -1.07 H 1.312 V -3.304 H 2.613 V -4.363 H 1.312 v -2.372 h 1.819 v -1.07 H 0 Z"
     style="fill:#ffffff;fill-opacity:1;fill-rule:nonzero;stroke:none"
     transform="matrix(1.3333333,0,0,-1.3333333,430.10547,315.29373)"
     clip-path="url(#clipPath439-3)" /><path
     id="path440"
     d="M 0,0 V -4.904 H -1.105 V 2.901 H 0.184 L 1.6,-1.577 V 2.901 H 2.694 V -4.904 H 1.542 Z"
     style="fill:#ffffff;fill-opacity:1;fill-rule:nonzero;stroke:none"
     transform="matrix(1.3333333,0,0,-1.3333333,436.46013,319.16173)"
     clip-path="url(#clipPath441-0)" /><path
     id="path442"
     d="M 0,0 H 3.488 V -1.07 H 2.406 V -7.805 H 1.082 V -1.07 H 0 Z"
     style="fill:#ffffff;fill-opacity:1;fill-rule:nonzero;stroke:none"
     transform="matrix(1.3333333,0,0,-1.3333333,440.6204,315.29373)"
     clip-path="url(#clipPath443-7)" /><path
     id="path444"
     d="M 0,0 H 3.132 V -1.07 H 1.313 v -2.234 h 1.3 v -1.059 h -1.3 v -2.372 h 1.819 v -1.07 H 0 Z"
     style="fill:#ffffff;fill-opacity:1;fill-rule:nonzero;stroke:none"
     transform="matrix(1.3333333,0,0,-1.3333333,445.85427,315.29373)"
     clip-path="url(#clipPath445-0)" /><path
     id="path446"
     d="M 0,0 H 3.131 V -1.07 H 1.312 V -3.304 H 2.613 V -4.363 H 1.312 V -6.735 H 3.131 V -7.806 H 0 Z"
     style="fill:#ffffff;fill-opacity:1;fill-rule:nonzero;stroke:none"
     transform="matrix(1.3333333,0,0,-1.3333333,362.28427,329.7852)"
     clip-path="url(#clipPath447-4)" /><path
     id="path448"
     d="m 0,0 v 3.776 c 0,1.22 0.576,2.107 1.957,2.107 1.45,0 1.853,-0.806 1.853,-1.957 V 3.005 H 2.613 v 1.024 c 0,0.484 -0.161,0.76 -0.633,0.76 -0.472,0 -0.668,-0.334 -0.668,-0.806 v -4.19 c 0,-0.472 0.196,-0.806 0.668,-0.806 0.472,0 0.633,0.299 0.633,0.76 V 1.186 H 3.81 V -0.161 C 3.81,-1.278 3.35,-2.107 1.957,-2.107 0.576,-2.107 0,-1.209 0,0"
     style="fill:#ffffff;fill-opacity:1;fill-rule:nonzero;stroke:none"
     transform="matrix(1.3333333,0,0,-1.3333333,368.65493,337.506)"
     clip-path="url(#clipPath449-4)" /><path
     id="path450"
     d="m 0,0 v -2.429 h 0.438 c 0.448,0 0.644,0.23 0.644,0.645 v 1.151 C 1.082,-0.207 0.886,0 0.438,0 Z M 0,-3.154 V -6.735 H -1.312 V 1.07 h 1.911 c 1.324,0 1.807,-0.656 1.807,-1.749 v -1.002 c 0,-0.84 -0.299,-1.335 -1.048,-1.508 L 2.613,-6.735 H 1.232 Z"
     style="fill:#ffffff;fill-opacity:1;fill-rule:nonzero;stroke:none"
     transform="matrix(1.3333333,0,0,-1.3333333,376.26827,331.2124)"
     clip-path="url(#clipPath451-5)" /><path
     id="path452"
     d="M 0,0 H 3.131 V -1.07 H 1.312 V -3.304 H 2.613 V -4.363 H 1.312 V -6.735 H 3.131 V -7.806 H 0 Z"
     style="fill:#ffffff;fill-opacity:1;fill-rule:nonzero;stroke:none"
     transform="matrix(1.3333333,0,0,-1.3333333,380.25973,329.7852)"
     clip-path="url(#clipPath453-4)" /><path
     id="path454"
     d="m 0,0 v 1.048 h 1.22 v -1.071 c 0,-0.438 0.196,-0.691 0.645,-0.691 0.415,0 0.599,0.276 0.599,0.691 v 0.299 c 0,0.449 -0.184,0.725 -0.588,1.105 L 1.105,2.153 C 0.357,2.89 0.011,3.339 0.011,4.236 v 0.265 c 0,0.967 0.565,1.716 1.843,1.716 1.312,0 1.83,-0.645 1.83,-1.773 V 3.81 H 2.487 V 4.49 C 2.487,4.938 2.28,5.157 1.865,5.157 1.496,5.157 1.243,4.95 1.243,4.513 V 4.352 c 0,-0.438 0.242,-0.691 0.622,-1.06 L 2.705,2.463 C 3.419,1.738 3.764,1.301 3.764,0.437 v -0.38 c 0,-1.07 -0.575,-1.83 -1.91,-1.83 C 0.518,-1.773 0,-1.025 0,0"
     style="fill:#ffffff;fill-opacity:1;fill-rule:nonzero;stroke:none"
     transform="matrix(1.3333333,0,0,-1.3333333,385.11053,337.95093)"
     clip-path="url(#clipPath455-2)" /><path
     id="path456"
     d="m 0,0 v 3.776 c 0,1.22 0.576,2.107 1.957,2.107 1.451,0 1.853,-0.806 1.853,-1.957 V 3.005 H 2.613 v 1.024 c 0,0.484 -0.161,0.76 -0.633,0.76 -0.472,0 -0.668,-0.334 -0.668,-0.806 v -4.19 c 0,-0.472 0.196,-0.806 0.668,-0.806 0.472,0 0.633,0.299 0.633,0.76 V 1.186 H 3.81 V -0.161 C 3.81,-1.278 3.35,-2.107 1.957,-2.107 0.576,-2.107 0,-1.209 0,0"
     style="fill:#ffffff;fill-opacity:1;fill-rule:nonzero;stroke:none"
     transform="matrix(1.3333333,0,0,-1.3333333,390.8672,337.506)"
     clip-path="url(#clipPath457-6)" /><path
     id="path458"
     d="m 297.548,594.551 h 1.313 v -7.806 h -1.313 z"
     style="fill:#ffffff;fill-opacity:1;fill-rule:nonzero;stroke:none"
     transform="matrix(1.3333333,0,0,-1.3333333,0,1122.52)"
     clip-path="url(#clipPath459-3)" /><path
     id="path460"
     d="m 0,0 h -0.034 l -0.887,-5.065 h -0.61 L -2.51,0 H -2.533 V -5.065 H -3.615 V 2.74 h 1.531 l 0.852,-4.397 H -1.22 L -0.46,2.74 H 1.198 V -5.065 H 0 Z"
     style="fill:#ffffff;fill-opacity:1;fill-rule:nonzero;stroke:none"
     transform="matrix(1.3333333,0,0,-1.3333333,404.12973,333.43867)"
     clip-path="url(#clipPath461-4)" /><path
     id="path462"
     d="M 0,0 H 3.131 V -1.07 H 1.313 v -2.234 h 1.3 v -1.059 h -1.3 V -6.735 H 3.131 V -7.806 H 0 Z"
     style="fill:#ffffff;fill-opacity:1;fill-rule:nonzero;stroke:none"
     transform="matrix(1.3333333,0,0,-1.3333333,406.55547,329.7852)"
     clip-path="url(#clipPath463-4)" /><path
     id="path464"
     d="M 0,0 V -4.905 H -1.105 V 2.901 H 0.184 L 1.6,-1.577 V 2.901 H 2.694 V -4.905 H 1.542 Z"
     style="fill:#ffffff;fill-opacity:1;fill-rule:nonzero;stroke:none"
     transform="matrix(1.3333333,0,0,-1.3333333,412.95693,333.6532)"
     clip-path="url(#clipPath465-2)" /><path
     id="path466"
     d="M 0,0 H 3.488 V -1.07 H 2.406 V -7.806 H 1.082 V -1.07 H 0 Z"
     style="fill:#ffffff;fill-opacity:1;fill-rule:nonzero;stroke:none"
     transform="matrix(1.3333333,0,0,-1.3333333,417.178,329.7852)"
     clip-path="url(#clipPath467-7)" /><path
     id="path468"
     d="m 0,0 v 4.191 c 0,0.472 -0.207,0.806 -0.679,0.806 -0.46,0 -0.668,-0.334 -0.668,-0.806 V 0 c 0,-0.472 0.208,-0.806 0.668,-0.806 C -0.207,-0.806 0,-0.472 0,0 m -2.659,0.207 v 3.776 c 0,1.22 0.599,2.107 1.98,2.107 1.393,0 1.991,-0.887 1.991,-2.107 V 0.207 c 0,-1.209 -0.598,-2.106 -1.991,-2.106 -1.381,0 -1.98,0.897 -1.98,2.106"
     style="fill:#ffffff;fill-opacity:1;fill-rule:nonzero;stroke:none"
     transform="matrix(1.3333333,0,0,-1.3333333,426.01973,337.7824)"
     clip-path="url(#clipPath469-6)" /><path
     id="path470"
     d="M 0,0 H 3.131 V -1.07 H 1.312 V -3.304 H 2.613 V -4.363 H 1.312 V -6.734 H 3.131 V -7.806 H 0 Z"
     style="fill:#ffffff;fill-opacity:1;fill-rule:nonzero;stroke:none"
     transform="matrix(1.3333333,0,0,-1.3333333,362.28427,344.03093)"
     clip-path="url(#clipPath471-7)" /><path
     id="path472"
     d="m 0,0 v 3.776 c 0,1.22 0.576,2.107 1.957,2.107 1.451,0 1.853,-0.807 1.853,-1.958 V 3.004 H 2.613 v 1.025 c 0,0.484 -0.161,0.76 -0.633,0.76 -0.472,0 -0.668,-0.334 -0.668,-0.806 v -4.191 c 0,-0.472 0.196,-0.805 0.668,-0.805 0.472,0 0.633,0.299 0.633,0.76 V 1.185 H 3.81 V -0.162 C 3.81,-1.278 3.35,-2.107 1.957,-2.107 0.576,-2.107 0,-1.209 0,0"
     style="fill:#ffffff;fill-opacity:1;fill-rule:nonzero;stroke:none"
     transform="matrix(1.3333333,0,0,-1.3333333,367.1656,351.75147)"
     clip-path="url(#clipPath473-5)" /><path
     id="path474"
     d="M 0,0 V 4.19 C 0,4.663 -0.207,4.997 -0.679,4.997 -1.14,4.997 -1.347,4.663 -1.347,4.19 V 0 c 0,-0.472 0.207,-0.805 0.668,-0.805 C -0.207,-0.805 0,-0.472 0,0 m -2.659,0.208 v 3.776 c 0,1.22 0.598,2.106 1.98,2.106 1.393,0 1.991,-0.886 1.991,-2.106 V 0.208 c 0,-1.209 -0.598,-2.107 -1.991,-2.107 -1.382,0 -1.98,0.898 -1.98,2.107"
     style="fill:#ffffff;fill-opacity:1;fill-rule:nonzero;stroke:none"
     transform="matrix(1.3333333,0,0,-1.3333333,376.51373,352.0284)"
     clip-path="url(#clipPath475-7)" /><path
     id="path476"
     d="M 0,0 V -4.904 H -1.105 V 2.901 H 0.184 L 1.6,-1.577 V 2.901 H 2.694 V -4.904 H 1.543 Z"
     style="fill:#ffffff;fill-opacity:1;fill-rule:nonzero;stroke:none"
     transform="matrix(1.3333333,0,0,-1.3333333,380.5052,347.89947)"
     clip-path="url(#clipPath477-8)" /><path
     id="path478"
     d="M 0,0 V 4.19 C 0,4.663 -0.207,4.997 -0.679,4.997 -1.14,4.997 -1.347,4.663 -1.347,4.19 V 0 c 0,-0.472 0.207,-0.805 0.668,-0.805 C -0.207,-0.805 0,-0.472 0,0 m -1.796,6.286 v 0.633 l 0.829,0.61 h 0.576 L 0.438,6.919 V 6.286 L -0.668,6.62 Z M -2.659,0.208 v 3.776 c 0,1.22 0.599,2.106 1.98,2.106 1.393,0 1.991,-0.886 1.991,-2.106 V 0.208 c 0,-1.209 -0.598,-2.107 -1.991,-2.107 -1.381,0 -1.98,0.898 -1.98,2.107"
     style="fill:#ffffff;fill-opacity:1;fill-rule:nonzero;stroke:none"
     transform="matrix(1.3333333,0,0,-1.3333333,388.41053,352.0284)"
     clip-path="url(#clipPath479-9)" /><path
     id="path480"
     d="m 0,0 h -0.034 l -0.887,-5.066 h -0.61 L -2.51,0 H -2.533 V -5.066 H -3.615 V 2.74 h 1.531 l 0.852,-4.397 H -1.22 L -0.46,2.74 H 1.198 V -5.066 H 0 Z"
     style="fill:#ffffff;fill-opacity:1;fill-rule:nonzero;stroke:none"
     transform="matrix(1.3333333,0,0,-1.3333333,395.748,347.68453)"
     clip-path="url(#clipPath481-6)" /><path
     id="path482"
     d="m 298.585,583.867 h 1.313 v -7.806 h -1.313 z"
     style="fill:#ffffff;fill-opacity:1;fill-rule:nonzero;stroke:none"
     transform="matrix(1.3333333,0,0,-1.3333333,0,1122.52)"
     clip-path="url(#clipPath483-7)" /><path
     id="path484"
     d="m 0,0 v 3.776 c 0,1.22 0.576,2.107 1.957,2.107 1.451,0 1.853,-0.807 1.853,-1.958 V 3.004 H 2.613 v 1.025 c 0,0.484 -0.161,0.76 -0.633,0.76 -0.472,0 -0.668,-0.334 -0.668,-0.806 v -4.191 c 0,-0.472 0.196,-0.805 0.668,-0.805 0.472,0 0.633,0.299 0.633,0.76 V 1.185 H 3.81 V -0.162 C 3.81,-1.278 3.35,-2.107 1.957,-2.107 0.576,-2.107 0,-1.209 0,0"
     style="fill:#ffffff;fill-opacity:1;fill-rule:nonzero;stroke:none"
     transform="matrix(1.3333333,0,0,-1.3333333,400.64533,351.75147)"
     clip-path="url(#clipPath485-4)" /><path
     id="path486"
     d="M 0,0 V 4.19 C 0,4.663 -0.207,4.997 -0.679,4.997 -1.14,4.997 -1.347,4.663 -1.347,4.19 V 0 c 0,-0.472 0.207,-0.805 0.668,-0.805 C -0.207,-0.805 0,-0.472 0,0 m -2.66,0.208 v 3.776 c 0,1.22 0.599,2.106 1.981,2.106 1.393,0 1.991,-0.886 1.991,-2.106 V 0.208 c 0,-1.209 -0.598,-2.107 -1.991,-2.107 -1.382,0 -1.981,0.898 -1.981,2.107"
     style="fill:#ffffff;fill-opacity:1;fill-rule:nonzero;stroke:none"
     transform="matrix(1.3333333,0,0,-1.3333333,409.994,352.0284)"
     clip-path="url(#clipPath487-7)" /></g></svg>
