<?xml version="1.0" encoding="UTF-8" standalone="no"?>
<!-- Generator: Adobe Illustrator 19.0.0, SVG Export Plug-In . SVG Version: 6.00 Build 0)  -->

<svg
   version="1.1"
   id="Layer_1"
   x="0px"
   y="0px"
   viewBox="0 0 512 512"
   style="enable-background:new 0 0 512 512;"
   xml:space="preserve"
   width="512"
   height="512"
   sodipodi:docname="0.svg"
   inkscape:version="1.4.2 (f4327f4, 2025-05-13)"
   xmlns:inkscape="http://www.inkscape.org/namespaces/inkscape"
   xmlns:sodipodi="http://sodipodi.sourceforge.net/DTD/sodipodi-0.dtd"
   xmlns="http://www.w3.org/2000/svg"
   xmlns:svg="http://www.w3.org/2000/svg"><defs
   id="defs1"><clipPath
     clipPathUnits="userSpaceOnUse"
     id="clipPath73-9"><path
       d="M 0,841.89 H 595.276 V 0 H 0 Z"
       id="path73-0" /></clipPath><clipPath
     clipPathUnits="userSpaceOnUse"
     id="clipPath75-0"><path
       d="M 0,841.89 H 595.276 V 0 H 0 Z"
       transform="translate(-157.7358,-694.69502)"
       id="path75-6" /></clipPath><clipPath
     clipPathUnits="userSpaceOnUse"
     id="clipPath77-1"><path
       d="M 0,841.89 H 595.276 V 0 H 0 Z"
       transform="translate(-177.9685,-638.16052)"
       id="path77-3" /></clipPath><clipPath
     clipPathUnits="userSpaceOnUse"
     id="clipPath79-8"><path
       d="M 0,841.89 H 595.276 V 0 H 0 Z"
       transform="translate(-195.00351,-679.37242)"
       id="path79-9" /></clipPath><clipPath
     clipPathUnits="userSpaceOnUse"
     id="clipPath81-3"><path
       d="M 0,841.89 H 595.276 V 0 H 0 Z"
       transform="translate(-186.61071,-660.02392)"
       id="path81-4" /></clipPath><clipPath
     clipPathUnits="userSpaceOnUse"
     id="clipPath83-4"><path
       d="M 0,841.89 H 595.276 V 0 H 0 Z"
       transform="translate(-175.0242,-679.37242)"
       id="path83-6" /></clipPath><clipPath
     clipPathUnits="userSpaceOnUse"
     id="clipPath85-0"><path
       d="M 0,841.89 H 595.276 V 0 H 0 Z"
       transform="translate(-167.15121,-713.08342)"
       id="path85-6" /></clipPath><clipPath
     clipPathUnits="userSpaceOnUse"
     id="clipPath87-6"><path
       d="M 0,841.89 H 595.276 V 0 H 0 Z"
       transform="translate(-173.5639,-707.08532)"
       id="path87-1" /></clipPath><clipPath
     clipPathUnits="userSpaceOnUse"
     id="clipPath89-8"><path
       d="M 0,841.89 H 595.276 V 0 H 0 Z"
       transform="translate(-179.3431,-710.34332)"
       id="path89-4" /></clipPath><clipPath
     clipPathUnits="userSpaceOnUse"
     id="clipPath91-9"><path
       d="M 0,841.89 H 595.276 V 0 H 0 Z"
       transform="translate(-181.39281,-713.08342)"
       id="path91-6" /></clipPath><clipPath
     clipPathUnits="userSpaceOnUse"
     id="clipPath93-3"><path
       d="M 0,841.89 H 595.276 V 0 H 0 Z"
       transform="translate(-187.9207,-706.34852)"
       id="path93-7" /></clipPath><clipPath
     clipPathUnits="userSpaceOnUse"
     id="clipPath95-8"><path
       d="M 0,841.89 H 595.276 V 0 H 0 Z"
       transform="translate(-190.7875,-713.08342)"
       id="path95-8" /></clipPath><clipPath
     clipPathUnits="userSpaceOnUse"
     id="clipPath97-2"><path
       d="M 0,841.89 H 595.276 V 0 H 0 Z"
       transform="translate(-196.0258,-712.01292)"
       id="path97-9" /></clipPath><clipPath
     clipPathUnits="userSpaceOnUse"
     id="clipPath99-1"><path
       d="M 0,841.89 H 595.276 V 0 H 0 Z"
       transform="translate(-201.89721,-707.08532)"
       id="path99-3" /></clipPath><clipPath
     clipPathUnits="userSpaceOnUse"
     id="clipPath101-5"><path
       d="M 0,841.89 H 595.276 V 0 H 0 Z"
       transform="translate(-167.1283,-702.24932)"
       id="path101-9" /></clipPath><clipPath
     clipPathUnits="userSpaceOnUse"
     id="clipPath103-8"><path
       d="M 0,841.89 H 595.276 V 0 H 0 Z"
       transform="translate(-173.8402,-696.91942)"
       id="path103-4" /></clipPath><clipPath
     clipPathUnits="userSpaceOnUse"
     id="clipPath105-0"><path
       d="M 0,841.89 H 595.276 V 0 H 0 Z"
       transform="translate(-179.286,-698.61122)"
       id="path105-7" /></clipPath><clipPath
     clipPathUnits="userSpaceOnUse"
     id="clipPath107-6"><path
       d="M 0,841.89 H 595.276 V 0 H 0 Z"
       transform="translate(-183.3268,-701.17852)"
       id="path107-3" /></clipPath><clipPath
     clipPathUnits="userSpaceOnUse"
     id="clipPath109-6"><path
       d="M 0,841.89 H 595.276 V 0 H 0 Z"
       id="path109-1" /></clipPath><clipPath
     clipPathUnits="userSpaceOnUse"
     id="clipPath111-5"><path
       d="M 0,841.89 H 595.276 V 0 H 0 Z"
       transform="translate(-188.7496,-696.45862)"
       id="path111-4" /></clipPath><clipPath
     clipPathUnits="userSpaceOnUse"
     id="clipPath113-2"><path
       d="M 0,841.89 H 595.276 V 0 H 0 Z"
       transform="translate(-197.19981,-702.24932)"
       id="path113-0" /></clipPath><clipPath
     clipPathUnits="userSpaceOnUse"
     id="clipPath115-9"><path
       d="M 0,841.89 H 595.276 V 0 H 0 Z"
       transform="translate(-198.05211,-702.24932)"
       id="path115-7" /></clipPath><clipPath
     clipPathUnits="userSpaceOnUse"
     id="clipPath117-3"><path
       d="M 0,841.89 H 595.276 V 0 H 0 Z"
       transform="translate(-201.4945,-702.24932)"
       id="path117-7" /></clipPath><clipPath
     clipPathUnits="userSpaceOnUse"
     id="clipPath119-2"><path
       d="M 0,841.89 H 595.276 V 0 H 0 Z"
       transform="translate(-209.51871,-702.24932)"
       id="path119-6" /></clipPath><clipPath
     clipPathUnits="userSpaceOnUse"
     id="clipPath121-0"><path
       d="M 0,841.89 H 595.276 V 0 H 0 Z"
       transform="translate(-211.69491,-701.17852)"
       id="path121-1" /></clipPath><clipPath
     clipPathUnits="userSpaceOnUse"
     id="clipPath123-6"><path
       d="M 0,841.89 H 595.276 V 0 H 0 Z"
       transform="translate(-216.3694,-696.91942)"
       id="path123-5" /></clipPath><clipPath
     clipPathUnits="userSpaceOnUse"
     id="clipPath125-7"><path
       d="M 0,841.89 H 595.276 V 0 H 0 Z"
       transform="translate(-167.059,-685.44011)"
       id="path125-5" /></clipPath><clipPath
     clipPathUnits="userSpaceOnUse"
     id="clipPath127-4"><path
       d="M 0,841.89 H 595.276 V 0 H 0 Z"
       transform="translate(-175.4289,-691.56491)"
       id="path127-1" /></clipPath><clipPath
     clipPathUnits="userSpaceOnUse"
     id="clipPath129-2"><path
       d="M 0,841.89 H 595.276 V 0 H 0 Z"
       transform="translate(-176.22381,-685.44011)"
       id="path129-0" /></clipPath><clipPath
     clipPathUnits="userSpaceOnUse"
     id="clipPath131-0"><path
       d="M 0,841.89 H 595.276 V 0 H 0 Z"
       transform="translate(-180.6448,-691.56491)"
       id="path131-1" /></clipPath><clipPath
     clipPathUnits="userSpaceOnUse"
     id="clipPath133-4"><path
       d="M 0,841.89 H 595.276 V 0 H 0 Z"
       transform="translate(-184.85841,-691.56491)"
       id="path133-6" /></clipPath><clipPath
     clipPathUnits="userSpaceOnUse"
     id="clipPath135-0"><path
       d="M 0,841.89 H 595.276 V 0 H 0 Z"
       transform="translate(-189.90111,-688.66361)"
       id="path135-7" /></clipPath><clipPath
     clipPathUnits="userSpaceOnUse"
     id="clipPath137-1"><path
       d="M 0,841.89 H 595.276 V 0 H 0 Z"
       transform="translate(-193.309,-691.56491)"
       id="path137-7" /></clipPath><clipPath
     clipPathUnits="userSpaceOnUse"
     id="clipPath139-7"><path
       d="M 0,841.89 H 595.276 V 0 H 0 Z"
       transform="translate(-198.96171,-686.23432)"
       id="path139-7" /></clipPath><clipPath
     clipPathUnits="userSpaceOnUse"
     id="clipPath141-7"><path
       d="M 0,841.89 H 595.276 V 0 H 0 Z"
       transform="translate(-206.629,-691.56491)"
       id="path141-3" /></clipPath><clipPath
     clipPathUnits="userSpaceOnUse"
     id="clipPath143-3"><path
       d="M 0,841.89 H 595.276 V 0 H 0 Z"
       transform="translate(-207.28551,-691.56491)"
       id="path143-5" /></clipPath><clipPath
     clipPathUnits="userSpaceOnUse"
     id="clipPath145-9"><path
       d="M 0,841.89 H 595.276 V 0 H 0 Z"
       transform="translate(-211.23481,-691.56491)"
       id="path145-9" /></clipPath></defs><sodipodi:namedview
   id="namedview1"
   pagecolor="#505050"
   bordercolor="#eeeeee"
   borderopacity="1"
   inkscape:showpageshadow="0"
   inkscape:pageopacity="0"
   inkscape:pagecheckerboard="0"
   inkscape:deskcolor="#505050"
   inkscape:zoom="0.75488281"
   inkscape:cx="111.9379"
   inkscape:cy="129.15912"
   inkscape:window-width="1920"
   inkscape:window-height="991"
   inkscape:window-x="-9"
   inkscape:window-y="-9"
   inkscape:window-maximized="1"
   inkscape:current-layer="Layer_1" />
<g
   id="g4"
   transform="matrix(4.0065094,0,0,4.0065094,-747.20194,-653.8667)"><path
     id="path72"
     d="m 235.378,623.807 h -95.503 v 95.507 h 95.503 z"
     style="fill:#cd9632;fill-opacity:1;fill-rule:nonzero;stroke:none"
     transform="matrix(1.3333333,0,0,-1.3333333,0,1122.52)"
     clip-path="url(#clipPath73-9)" /><path
     id="path74"
     d="m 0,0 h -5.312 v 0.908 c 0,1.505 0.541,2.073 1.364,2.954 l 2.072,2.186 C -0.2,7.838 0.17,8.974 0.17,10.906 v 1.874 c 0,2.755 -1.336,4.062 -4.233,4.062 -2.839,0 -4.287,-1.505 -4.287,-4.204 V 10.31 h 2.953 v 2.414 c 0,1.163 0.568,1.506 1.251,1.506 0.623,0 1.164,-0.257 1.164,-1.45 v -1.59 c 0,-1.591 -0.143,-2.216 -1.193,-3.323 L -5.994,5.936 C -7.753,4.061 -8.407,2.811 -8.407,0.908 v -3.55 H 0 Z"
     style="fill:#ffffff;fill-opacity:1;fill-rule:nonzero;stroke:none"
     transform="matrix(1.3333333,0,0,-1.3333333,210.3144,196.26)"
     clip-path="url(#clipPath75-0)" /><path
     id="path76"
     d="m 0,0 v -1.344 c -0.001,-0.008 -0.005,-0.019 -0.005,-0.03 0,-0.011 0.004,-0.022 0.005,-0.031 0.013,-0.332 0.285,-0.597 0.62,-0.603 0.003,0 0.007,-0.003 0.011,-0.003 0.005,0 0.011,0.003 0.016,0.003 h 15.754 c 0.004,0 0.008,-0.003 0.013,-0.003 0.005,0 0.01,0.003 0.015,0.003 0.343,0.006 0.619,0.287 0.62,0.631 0,0.001 0.002,0.002 0.002,0.003 0,0 -0.002,0.003 -0.002,0.005 v 1.52 c 8.869,2.907 15.513,10.096 16.974,18.854 0.003,0.02 0.005,0.037 0.008,0.052 0.006,0.032 0.009,0.059 0.009,0.089 0,0.352 -0.284,0.637 -0.637,0.637 h -49.909 -0.3 c -0.355,0 -0.64,-0.285 -0.64,-0.637 l 0.034,-0.287 C -15.877,10.017 -9.051,2.789 0,0"
     style="fill:#ffffff;fill-opacity:1;fill-rule:nonzero;stroke:none"
     transform="matrix(1.3333333,0,0,-1.3333333,237.29133,271.63933)"
     clip-path="url(#clipPath77-1)" /><path
     id="path78"
     d="m 0,0 c -0.207,-0.294 -5.057,-7.278 0.109,-12.925 2.368,-2.592 2.163,-4.879 1.486,-6.424 h 3.314 c 0.671,2.281 0.395,5.141 -2.296,8.081 -3.807,4.161 0.048,9.786 0.107,9.873 C 3.175,-0.754 2.93,0.073 2.182,0.459 1.43,0.843 0.457,0.638 0,0"
     style="fill:#ffffff;fill-opacity:1;fill-rule:nonzero;stroke:none"
     transform="matrix(1.3333333,0,0,-1.3333333,260.00467,216.69013)"
     clip-path="url(#clipPath79-8)" /><path
     id="path80"
     d="m 0,0 h 3.315 c 0.671,2.281 0.392,5.14 -2.298,8.08 -3.808,4.162 0.044,9.784 0.105,9.876 0.452,0.639 0.213,1.465 -0.539,1.852 -0.749,0.383 -1.725,0.179 -2.179,-0.459 C -1.804,19.055 -6.659,12.071 -1.488,6.423 0.881,3.831 0.675,1.544 0,0"
     style="fill:#ffffff;fill-opacity:1;fill-rule:nonzero;stroke:none"
     transform="matrix(1.3333333,0,0,-1.3333333,248.81427,242.48813)"
     clip-path="url(#clipPath81-3)" /><path
     id="path82"
     d="m 0,0 c -0.21,-0.294 -5.061,-7.278 0.107,-12.925 2.37,-2.594 2.165,-4.88 1.49,-6.424 h 3.314 c 0.67,2.28 0.393,5.14 -2.3,8.081 -3.808,4.161 0.048,9.786 0.109,9.875 C 3.17,-0.754 2.93,0.073 2.179,0.459 1.43,0.845 0.455,0.639 0,0"
     style="fill:#ffffff;fill-opacity:1;fill-rule:nonzero;stroke:none"
     transform="matrix(1.3333333,0,0,-1.3333333,233.3656,216.69013)"
     clip-path="url(#clipPath83-4)" /><path
     id="path84"
     d="M 0,0 H 3.074 V -1.07 H 1.312 V -3.304 H 2.625 V -4.363 H 1.312 V -7.805 H 0 Z"
     style="fill:#ffffff;fill-opacity:1;fill-rule:nonzero;stroke:none"
     transform="matrix(1.3333333,0,0,-1.3333333,222.86827,171.74213)"
     clip-path="url(#clipPath85-0)" /><path
     id="path86"
     d="m 0,0 v 4.191 c 0,0.472 -0.207,0.806 -0.679,0.806 -0.461,0 -0.668,-0.334 -0.668,-0.806 V 0 c 0,-0.472 0.207,-0.806 0.668,-0.806 C -0.207,-0.806 0,-0.472 0,0 m -2.659,0.207 v 3.777 c 0,1.22 0.598,2.106 1.98,2.106 1.393,0 1.991,-0.886 1.991,-2.106 V 0.207 c 0,-1.208 -0.598,-2.106 -1.991,-2.106 -1.382,0 -1.98,0.898 -1.98,2.106"
     style="fill:#ffffff;fill-opacity:1;fill-rule:nonzero;stroke:none"
     transform="matrix(1.3333333,0,0,-1.3333333,231.41853,179.7396)"
     clip-path="url(#clipPath87-6)" /><path
     id="path88"
     d="m 0,0 h -0.035 l -0.886,-5.065 h -0.61 L -2.51,0 H -2.533 V -5.065 H -3.615 V 2.74 h 1.531 l 0.852,-4.398 H -1.22 L -0.46,2.74 H 1.198 V -5.065 H 0 Z"
     style="fill:#ffffff;fill-opacity:1;fill-rule:nonzero;stroke:none"
     transform="matrix(1.3333333,0,0,-1.3333333,239.12413,175.3956)"
     clip-path="url(#clipPath89-8)" /><path
     id="path90"
     d="M 0,0 H 3.131 V -1.07 H 1.312 V -3.304 H 2.613 V -4.363 H 1.312 v -2.372 h 1.819 v -1.07 H 0 Z"
     style="fill:#ffffff;fill-opacity:1;fill-rule:nonzero;stroke:none"
     transform="matrix(1.3333333,0,0,-1.3333333,241.85707,171.74213)"
     clip-path="url(#clipPath91-9)" /><path
     id="path92"
     d="M 0,0 H 1.991 V -1.07 H -1.37 V 0 L 0.69,5.664 H -1.163 V 6.735 H 2.072 V 5.664 Z"
     style="fill:#ffffff;fill-opacity:1;fill-rule:nonzero;stroke:none"
     transform="matrix(1.3333333,0,0,-1.3333333,250.56093,180.722)"
     clip-path="url(#clipPath93-3)" /><path
     id="path94"
     d="M 0,0 H 3.131 V -1.07 H 1.312 V -3.304 H 2.613 V -4.363 H 1.312 v -2.372 h 1.819 v -1.07 H 0 Z"
     style="fill:#ffffff;fill-opacity:1;fill-rule:nonzero;stroke:none"
     transform="matrix(1.3333333,0,0,-1.3333333,254.38333,171.74213)"
     clip-path="url(#clipPath95-8)" /><path
     id="path96"
     d="m 0,0 v -2.429 h 0.438 c 0.448,0 0.644,0.23 0.644,0.644 v 1.152 C 1.082,-0.207 0.886,0 0.438,0 Z m 0,-3.155 v -3.58 H -1.312 V 1.07 h 1.91 c 1.325,0 1.808,-0.656 1.808,-1.749 v -1.002 c 0,-0.84 -0.299,-1.335 -1.048,-1.508 L 2.613,-6.735 H 1.232 Z"
     style="fill:#ffffff;fill-opacity:1;fill-rule:nonzero;stroke:none"
     transform="matrix(1.3333333,0,0,-1.3333333,261.36773,173.16947)"
     clip-path="url(#clipPath97-2)" /><path
     id="path98"
     d="m 0,0 v 4.191 c 0,0.472 -0.207,0.806 -0.679,0.806 -0.46,0 -0.668,-0.334 -0.668,-0.806 V 0 c 0,-0.472 0.208,-0.806 0.668,-0.806 C -0.207,-0.806 0,-0.472 0,0 m -2.659,0.207 v 3.777 c 0,1.22 0.599,2.106 1.98,2.106 1.393,0 1.992,-0.886 1.992,-2.106 V 0.207 c 0,-1.208 -0.599,-2.106 -1.992,-2.106 -1.381,0 -1.98,0.898 -1.98,2.106"
     style="fill:#ffffff;fill-opacity:1;fill-rule:nonzero;stroke:none"
     transform="matrix(1.3333333,0,0,-1.3333333,269.19627,179.7396)"
     clip-path="url(#clipPath99-1)" /><path
     id="path100"
     d="M 0,0 H 3.131 V -1.071 H 1.312 V -3.304 H 2.613 V -4.363 H 1.312 v -2.372 h 1.819 v -1.07 H 0 Z"
     style="fill:#ffffff;fill-opacity:1;fill-rule:nonzero;stroke:none"
     transform="matrix(1.3333333,0,0,-1.3333333,222.83773,186.1876)"
     clip-path="url(#clipPath101-5)" /><path
     id="path102"
     d="M 0,0 H 1.048 L 0.529,3.131 H 0.518 Z M -1.646,-2.475 -0.173,5.33 H 1.324 L 2.809,-2.475 H 1.462 l -0.241,1.427 h -1.394 l -0.23,-1.427 z"
     style="fill:#ffffff;fill-opacity:1;fill-rule:nonzero;stroke:none"
     transform="matrix(1.3333333,0,0,-1.3333333,231.78693,193.29413)"
     clip-path="url(#clipPath103-8)" /><path
     id="path104"
     d="M 0,0 H 1.865 V -4.167 H 0.921 v 0.851 C 0.748,-3.902 0.38,-4.259 -0.334,-4.259 c -1.128,0 -1.646,0.897 -1.646,2.106 v 3.777 c 0,1.22 0.587,2.106 1.968,2.106 1.451,0 1.877,-0.806 1.877,-1.957 V 1.082 H 0.667 v 0.795 c 0,0.483 -0.184,0.76 -0.656,0.76 -0.472,0 -0.679,-0.334 -0.679,-0.806 V -2.36 c 0,-0.472 0.196,-0.806 0.645,-0.806 0.426,0 0.645,0.242 0.645,0.748 v 1.382 H 0 Z"
     style="fill:#ffffff;fill-opacity:1;fill-rule:nonzero;stroke:none"
     transform="matrix(1.3333333,0,0,-1.3333333,239.048,191.0384)"
     clip-path="url(#clipPath105-0)" /><path
     id="path106"
     d="m 0,0 v -2.429 h 0.438 c 0.448,0 0.644,0.23 0.644,0.645 v 1.151 C 1.082,-0.207 0.886,0 0.438,0 Z m 0,-3.154 v -3.58 h -1.312 v 7.805 h 1.911 c 1.324,0 1.807,-0.656 1.807,-1.75 v -1.002 c 0,-0.84 -0.299,-1.335 -1.048,-1.508 L 2.613,-6.734 H 1.232 Z"
     style="fill:#ffffff;fill-opacity:1;fill-rule:nonzero;stroke:none"
     transform="matrix(1.3333333,0,0,-1.3333333,244.43573,187.61533)"
     clip-path="url(#clipPath107-6)" /><path
     id="path108"
     d="m 186.562,702.249 h 1.312 v -7.805 h -1.312 z"
     style="fill:#ffffff;fill-opacity:1;fill-rule:nonzero;stroke:none"
     transform="matrix(1.3333333,0,0,-1.3333333,0,1122.52)"
     clip-path="url(#clipPath109-6)" /><path
     id="path110"
     d="m 0,0 v 3.776 c 0,1.22 0.576,2.107 1.957,2.107 1.451,0 1.854,-0.806 1.854,-1.957 V 3.005 H 2.613 v 1.024 c 0,0.484 -0.161,0.76 -0.633,0.76 -0.472,0 -0.668,-0.334 -0.668,-0.806 v -4.19 c 0,-0.472 0.196,-0.806 0.668,-0.806 0.472,0 0.633,0.299 0.633,0.76 V 1.186 H 3.811 V -0.161 C 3.811,-1.278 3.35,-2.107 1.957,-2.107 0.576,-2.107 0,-1.209 0,0"
     style="fill:#ffffff;fill-opacity:1;fill-rule:nonzero;stroke:none"
     transform="matrix(1.3333333,0,0,-1.3333333,251.66613,193.90853)"
     clip-path="url(#clipPath111-5)" /><path
     id="path112"
     d="m 0,0 v -5.906 c 0,-1.209 -0.518,-1.992 -1.853,-1.992 -1.382,0 -1.958,0.783 -1.958,1.992 V 0 h 1.313 v -6.033 c 0,-0.46 0.184,-0.771 0.645,-0.771 0.46,0 0.645,0.311 0.645,0.771 V 0 Z"
     style="fill:#ffffff;fill-opacity:1;fill-rule:nonzero;stroke:none"
     transform="matrix(1.3333333,0,0,-1.3333333,262.93307,186.1876)"
     clip-path="url(#clipPath113-2)" /><path
     id="path114"
     d="m 0,0 h 1.313 v -6.735 h 1.565 v -1.07 H 0 Z"
     style="fill:#ffffff;fill-opacity:1;fill-rule:nonzero;stroke:none"
     transform="matrix(1.3333333,0,0,-1.3333333,264.06947,186.1876)"
     clip-path="url(#clipPath115-9)" /><path
     id="path116"
     d="M 0,0 H 3.488 V -1.071 H 2.406 V -7.805 H 1.082 v 6.734 H 0 Z"
     style="fill:#ffffff;fill-opacity:1;fill-rule:nonzero;stroke:none"
     transform="matrix(1.3333333,0,0,-1.3333333,268.65933,186.1876)"
     clip-path="url(#clipPath117-3)" /><path
     id="path118"
     d="m 0,0 v -5.906 c 0,-1.209 -0.518,-1.992 -1.853,-1.992 -1.382,0 -1.958,0.783 -1.958,1.992 V 0 h 1.313 v -6.033 c 0,-0.46 0.184,-0.771 0.645,-0.771 0.46,0 0.644,0.311 0.644,0.771 V 0 Z"
     style="fill:#ffffff;fill-opacity:1;fill-rule:nonzero;stroke:none"
     transform="matrix(1.3333333,0,0,-1.3333333,279.35827,186.1876)"
     clip-path="url(#clipPath119-2)" /><path
     id="path120"
     d="m 0,0 v -2.429 h 0.438 c 0.448,0 0.644,0.23 0.644,0.645 v 1.151 C 1.082,-0.207 0.886,0 0.438,0 Z m 0,-3.154 v -3.58 h -1.312 v 7.805 h 1.911 c 1.324,0 1.807,-0.656 1.807,-1.75 v -1.002 c 0,-0.84 -0.299,-1.335 -1.048,-1.508 L 2.613,-6.734 H 1.232 Z"
     style="fill:#ffffff;fill-opacity:1;fill-rule:nonzero;stroke:none"
     transform="matrix(1.3333333,0,0,-1.3333333,282.25987,187.61533)"
     clip-path="url(#clipPath121-0)" /><path
     id="path122"
     d="M 0,0 H 1.048 L 0.529,3.131 H 0.518 Z M -1.646,-2.475 -0.173,5.33 H 1.324 L 2.809,-2.475 H 1.462 L 1.22,-1.048 h -1.393 l -0.23,-1.427 z"
     style="fill:#ffffff;fill-opacity:1;fill-rule:nonzero;stroke:none"
     transform="matrix(1.3333333,0,0,-1.3333333,288.49253,193.29413)"
     clip-path="url(#clipPath123-6)" /><path
     id="path124"
     d="m 0,0 v 1.048 h 1.22 v -1.071 c 0,-0.437 0.196,-0.691 0.645,-0.691 0.415,0 0.599,0.277 0.599,0.691 v 0.299 c 0,0.449 -0.184,0.726 -0.587,1.106 L 1.105,2.153 C 0.357,2.89 0.012,3.339 0.012,4.237 v 0.264 c 0,0.967 0.564,1.716 1.841,1.716 1.313,0 1.831,-0.645 1.831,-1.773 V 3.811 H 2.487 V 4.49 C 2.487,4.939 2.28,5.157 1.865,5.157 1.497,5.157 1.244,4.951 1.244,4.513 V 4.352 c 0,-0.438 0.241,-0.691 0.621,-1.06 L 2.706,2.464 C 3.42,1.738 3.765,1.301 3.765,0.438 V 0.057 c 0,-1.07 -0.576,-1.83 -1.912,-1.83 C 0.518,-1.773 0,-1.025 0,0"
     style="fill:#ffffff;fill-opacity:1;fill-rule:nonzero;stroke:none"
     transform="matrix(1.3333333,0,0,-1.3333333,222.74533,208.59987)"
     clip-path="url(#clipPath125-7)" /><path
     id="path126"
     d="m 0,0 v -5.906 c 0,-1.209 -0.518,-1.992 -1.854,-1.992 -1.381,0 -1.957,0.783 -1.957,1.992 V 0 h 1.313 v -6.033 c 0,-0.46 0.184,-0.771 0.644,-0.771 0.461,0 0.645,0.311 0.645,0.771 V 0 Z"
     style="fill:#ffffff;fill-opacity:1;fill-rule:nonzero;stroke:none"
     transform="matrix(1.3333333,0,0,-1.3333333,233.9052,200.43347)"
     clip-path="url(#clipPath127-4)" /><path
     id="path128"
     d="m 0,0 v 1.048 h 1.22 v -1.071 c 0,-0.437 0.196,-0.691 0.645,-0.691 0.414,0 0.598,0.277 0.598,0.691 v 0.299 c 0,0.449 -0.184,0.726 -0.587,1.106 L 1.105,2.153 C 0.357,2.89 0.011,3.339 0.011,4.237 v 0.264 c 0,0.967 0.565,1.716 1.842,1.716 1.313,0 1.831,-0.645 1.831,-1.773 V 3.811 H 2.487 V 4.49 c 0,0.449 -0.208,0.667 -0.622,0.667 -0.369,0 -0.622,-0.206 -0.622,-0.644 V 4.352 c 0,-0.438 0.242,-0.691 0.622,-1.06 L 2.705,2.464 C 3.419,1.738 3.764,1.301 3.764,0.438 V 0.057 c 0,-1.07 -0.575,-1.83 -1.911,-1.83 C 0.518,-1.773 0,-1.025 0,0"
     style="fill:#ffffff;fill-opacity:1;fill-rule:nonzero;stroke:none"
     transform="matrix(1.3333333,0,0,-1.3333333,234.96507,208.59987)"
     clip-path="url(#clipPath129-2)" /><path
     id="path130"
     d="M 0,0 H 3.488 V -1.071 H 2.406 V -7.806 H 1.082 v 6.735 H 0 Z"
     style="fill:#ffffff;fill-opacity:1;fill-rule:nonzero;stroke:none"
     transform="matrix(1.3333333,0,0,-1.3333333,240.85973,200.43347)"
     clip-path="url(#clipPath131-0)" /><path
     id="path132"
     d="M 0,0 H 3.132 V -1.071 H 1.313 v -2.233 h 1.3 v -1.059 h -1.3 V -6.735 H 3.132 V -7.806 H 0 Z"
     style="fill:#ffffff;fill-opacity:1;fill-rule:nonzero;stroke:none"
     transform="matrix(1.3333333,0,0,-1.3333333,246.47787,200.43347)"
     clip-path="url(#clipPath133-4)" /><path
     id="path134"
     d="M 0,0 V -4.904 H -1.105 V 2.901 H 0.184 L 1.6,-1.577 V 2.901 H 2.694 V -4.904 H 1.543 Z"
     style="fill:#ffffff;fill-opacity:1;fill-rule:nonzero;stroke:none"
     transform="matrix(1.3333333,0,0,-1.3333333,253.20147,204.30187)"
     clip-path="url(#clipPath135-0)" /><path
     id="path136"
     d="M 0,0 H 3.488 V -1.071 H 2.406 V -7.806 H 1.082 v 6.735 H 0 Z"
     style="fill:#ffffff;fill-opacity:1;fill-rule:nonzero;stroke:none"
     transform="matrix(1.3333333,0,0,-1.3333333,257.74533,200.43347)"
     clip-path="url(#clipPath137-1)" /><path
     id="path138"
     d="M 0,0 H 1.048 L 0.529,3.132 H 0.518 Z m 1.646,5.883 -2.06,-0.265 v 0.737 l 2.06,0.438 z m -3.292,-8.358 1.473,7.806 H 1.324 L 2.809,-2.475 H 1.462 L 1.22,-1.047 h -1.393 l -0.23,-1.428 z"
     style="fill:#ffffff;fill-opacity:1;fill-rule:nonzero;stroke:none"
     transform="matrix(1.3333333,0,0,-1.3333333,265.28227,207.54093)"
     clip-path="url(#clipPath139-7)" /><path
     id="path140"
     d="M 0,0 -1.485,-7.806 H -2.912 L -4.398,0 h 1.336 l 0.898,-5.445 h 0.011 L -1.232,0 Z"
     style="fill:#ffffff;fill-opacity:1;fill-rule:nonzero;stroke:none"
     transform="matrix(1.3333333,0,0,-1.3333333,275.50533,200.43347)"
     clip-path="url(#clipPath141-7)" /><path
     id="path142"
     d="M 0,0 H 3.132 V -1.071 H 1.313 v -2.233 h 1.3 v -1.059 h -1.3 V -6.735 H 3.132 V -7.806 H 0 Z"
     style="fill:#ffffff;fill-opacity:1;fill-rule:nonzero;stroke:none"
     transform="matrix(1.3333333,0,0,-1.3333333,276.38067,200.43347)"
     clip-path="url(#clipPath143-3)" /><path
     id="path144"
     d="M 0,0 H 1.312 V -6.735 H 2.878 V -7.806 H 0 Z"
     style="fill:#ffffff;fill-opacity:1;fill-rule:nonzero;stroke:none"
     transform="matrix(1.3333333,0,0,-1.3333333,281.6464,200.43347)"
     clip-path="url(#clipPath145-9)" /></g>















</svg>
