<?xml version="1.0" encoding="UTF-8" standalone="no"?>
<!-- Generator: Adobe Illustrator 19.0.0, SVG Export Plug-In . SVG Version: 6.00 Build 0)  -->

<svg
   version="1.1"
   id="Layer_1"
   x="0px"
   y="0px"
   viewBox="0 0 512 512"
   style="enable-background:new 0 0 512 512;"
   xml:space="preserve"
   width="512"
   height="512"
   sodipodi:docname="10.svg"
   inkscape:version="1.4.2 (f4327f4, 2025-05-13)"
   xmlns:inkscape="http://www.inkscape.org/namespaces/inkscape"
   xmlns:sodipodi="http://sodipodi.sourceforge.net/DTD/sodipodi-0.dtd"
   xmlns="http://www.w3.org/2000/svg"
   xmlns:svg="http://www.w3.org/2000/svg"><defs
   id="defs1"><clipPath
     clipPathUnits="userSpaceOnUse"
     id="clipPath619-4"><path
       d="M 0,841.89 H 595.276 V 0 H 0 Z"
       id="path619-6" /></clipPath><clipPath
     clipPathUnits="userSpaceOnUse"
     id="clipPath621-3"><path
       d="M 0,841.89 H 595.276 V 0 H 0 Z"
       transform="translate(-41.071501,-494.40861)"
       id="path621-6" /></clipPath><clipPath
     clipPathUnits="userSpaceOnUse"
     id="clipPath623-5"><path
       d="M 0,841.89 H 595.276 V 0 H 0 Z"
       transform="translate(-48.455701,-494.40861)"
       id="path623-2" /></clipPath><clipPath
     clipPathUnits="userSpaceOnUse"
     id="clipPath625-8"><path
       d="M 0,841.89 H 595.276 V 0 H 0 Z"
       transform="translate(-50.658101,-433.19751)"
       id="path625-1" /></clipPath><clipPath
     clipPathUnits="userSpaceOnUse"
     id="clipPath627-0"><path
       d="M 0,841.89 H 595.276 V 0 H 0 Z"
       transform="translate(-64.980302,-431.89411)"
       id="path627-3" /></clipPath><clipPath
     clipPathUnits="userSpaceOnUse"
     id="clipPath629-1"><path
       d="M 0,841.89 H 595.276 V 0 H 0 Z"
       transform="translate(-113.4394,-430.23191)"
       id="path629-5" /></clipPath><clipPath
     clipPathUnits="userSpaceOnUse"
     id="clipPath631-5"><path
       d="M 0,841.89 H 595.276 V 0 H 0 Z"
       transform="translate(-79.578504,-458.01151)"
       id="path631-2" /></clipPath><clipPath
     clipPathUnits="userSpaceOnUse"
     id="clipPath633-2"><path
       d="M 0,841.89 H 595.276 V 0 H 0 Z"
       transform="translate(-115.06191,-436.29081)"
       id="path633-1" /></clipPath><clipPath
     clipPathUnits="userSpaceOnUse"
     id="clipPath635-7"><path
       d="M 0,841.89 H 595.276 V 0 H 0 Z"
       transform="translate(-96.866905,-444.67921)"
       id="path635-4" /></clipPath><clipPath
     clipPathUnits="userSpaceOnUse"
     id="clipPath637-8"><path
       d="M 0,841.89 H 595.276 V 0 H 0 Z"
       transform="translate(-60.367702,-493.32961)"
       id="path637-2" /></clipPath><clipPath
     clipPathUnits="userSpaceOnUse"
     id="clipPath639-3"><path
       d="M 0,841.89 H 595.276 V 0 H 0 Z"
       id="path639-6" /></clipPath><clipPath
     clipPathUnits="userSpaceOnUse"
     id="clipPath641-3"><path
       d="M 0,841.89 H 595.276 V 0 H 0 Z"
       transform="translate(-68.575702,-492.38551)"
       id="path641-0" /></clipPath><clipPath
     clipPathUnits="userSpaceOnUse"
     id="clipPath643-3"><path
       d="M 0,841.89 H 595.276 V 0 H 0 Z"
       transform="translate(-72.697802,-493.79001)"
       id="path643-5" /></clipPath><clipPath
     clipPathUnits="userSpaceOnUse"
     id="clipPath645-2"><path
       d="M 0,841.89 H 595.276 V 0 H 0 Z"
       transform="translate(-77.786604,-492.38551)"
       id="path645-8" /></clipPath><clipPath
     clipPathUnits="userSpaceOnUse"
     id="clipPath647-0"><path
       d="M 0,841.89 H 595.276 V 0 H 0 Z"
       transform="translate(-80.4694,-499.11991)"
       id="path647-7" /></clipPath><clipPath
     clipPathUnits="userSpaceOnUse"
     id="clipPath649-2"><path
       d="M 0,841.89 H 595.276 V 0 H 0 Z"
       transform="translate(-84.0961,-492.99551)"
       id="path649-2" /></clipPath><clipPath
     clipPathUnits="userSpaceOnUse"
     id="clipPath651-5"><path
       d="M 0,841.89 H 595.276 V 0 H 0 Z"
       transform="translate(-89.4958,-499.11991)"
       id="path651-9" /></clipPath><clipPath
     clipPathUnits="userSpaceOnUse"
     id="clipPath653-1"><path
       d="M 0,841.89 H 595.276 V 0 H 0 Z"
       transform="translate(-60.528902,-483.64661)"
       id="path653-0" /></clipPath><clipPath
     clipPathUnits="userSpaceOnUse"
     id="clipPath655-8"><path
       d="M 0,841.89 H 595.276 V 0 H 0 Z"
       transform="translate(-67.827701,-483.43971)"
       id="path655-5" /></clipPath><clipPath
     clipPathUnits="userSpaceOnUse"
     id="clipPath657-0"><path
       d="M 0,841.89 H 595.276 V 0 H 0 Z"
       transform="translate(-73.618702,-486.69761)"
       id="path657-7" /></clipPath><clipPath
     clipPathUnits="userSpaceOnUse"
     id="clipPath659-9"><path
       d="M 0,841.89 H 595.276 V 0 H 0 Z"
       transform="translate(-79.490402,-489.43731)"
       id="path659-0" /></clipPath><clipPath
     clipPathUnits="userSpaceOnUse"
     id="clipPath661-5"><path
       d="M 0,841.89 H 595.276 V 0 H 0 Z"
       transform="translate(-81.459205,-486.53631)"
       id="path661-3" /></clipPath><clipPath
     clipPathUnits="userSpaceOnUse"
     id="clipPath663-4"><path
       d="M 0,841.89 H 595.276 V 0 H 0 Z"
       id="path663-1" /></clipPath><clipPath
     clipPathUnits="userSpaceOnUse"
     id="clipPath665-0"><path
       d="M 0,841.89 H 595.276 V 0 H 0 Z"
       transform="translate(-89.057905,-482.70291)"
       id="path665-4" /></clipPath><clipPath
     clipPathUnits="userSpaceOnUse"
     id="clipPath667-8"><path
       d="M 0,841.89 H 595.276 V 0 H 0 Z"
       transform="translate(-93.421802,-484.10711)"
       id="path667-5" /></clipPath><clipPath
     clipPathUnits="userSpaceOnUse"
     id="clipPath669-9"><path
       d="M 0,841.89 H 595.276 V 0 H 0 Z"
       transform="translate(-98.7517,-482.70291)"
       id="path669-2" /></clipPath><clipPath
     clipPathUnits="userSpaceOnUse"
     id="clipPath671-5"><path
       d="M 0,841.89 H 595.276 V 0 H 0 Z"
       transform="translate(-101.6763,-489.43731)"
       id="path671-4" /></clipPath><clipPath
     clipPathUnits="userSpaceOnUse"
     id="clipPath673-1"><path
       d="M 0,841.89 H 595.276 V 0 H 0 Z"
       transform="translate(-105.5566,-483.31291)"
       id="path673-3" /></clipPath><clipPath
     clipPathUnits="userSpaceOnUse"
     id="clipPath675-9"><path
       d="M 0,841.89 H 595.276 V 0 H 0 Z"
       transform="translate(-60.459302,-472.62811)"
       id="path675-5" /></clipPath><clipPath
     clipPathUnits="userSpaceOnUse"
     id="clipPath677-8"><path
       d="M 0,841.89 H 595.276 V 0 H 0 Z"
       transform="translate(-68.829202,-478.75261)"
       id="path677-2" /></clipPath><clipPath
     clipPathUnits="userSpaceOnUse"
     id="clipPath679-7"><path
       d="M 0,841.89 H 595.276 V 0 H 0 Z"
       transform="translate(-69.624302,-472.62811)"
       id="path679-9" /></clipPath><clipPath
     clipPathUnits="userSpaceOnUse"
     id="clipPath681-6"><path
       d="M 0,841.89 H 595.276 V 0 H 0 Z"
       transform="translate(-74.033402,-478.75261)"
       id="path681-1" /></clipPath><clipPath
     clipPathUnits="userSpaceOnUse"
     id="clipPath683-7"><path
       d="M 0,841.89 H 595.276 V 0 H 0 Z"
       transform="translate(-78.247802,-478.75261)"
       id="path683-7" /></clipPath><clipPath
     clipPathUnits="userSpaceOnUse"
     id="clipPath685-1"><path
       d="M 0,841.89 H 595.276 V 0 H 0 Z"
       transform="translate(-83.290105,-475.85191)"
       id="path685-9" /></clipPath><clipPath
     clipPathUnits="userSpaceOnUse"
     id="clipPath687-0"><path
       d="M 0,841.89 H 595.276 V 0 H 0 Z"
       transform="translate(-86.698202,-478.75261)"
       id="path687-3" /></clipPath><clipPath
     clipPathUnits="userSpaceOnUse"
     id="clipPath689-4"><path
       d="M 0,841.89 H 595.276 V 0 H 0 Z"
       transform="translate(-92.3506,-473.42271)"
       id="path689-1" /></clipPath><clipPath
     clipPathUnits="userSpaceOnUse"
     id="clipPath691-7"><path
       d="M 0,841.89 H 595.276 V 0 H 0 Z"
       transform="translate(-100.0183,-478.75261)"
       id="path691-5" /></clipPath><clipPath
     clipPathUnits="userSpaceOnUse"
     id="clipPath693-3"><path
       d="M 0,841.89 H 595.276 V 0 H 0 Z"
       transform="translate(-100.67481,-478.75261)"
       id="path693-3" /></clipPath><clipPath
     clipPathUnits="userSpaceOnUse"
     id="clipPath695-2"><path
       d="M 0,841.89 H 595.276 V 0 H 0 Z"
       id="path695-4" /></clipPath><clipPath
     clipPathUnits="userSpaceOnUse"
     id="clipPath697-1"><path
       d="M 0,841.89 H 595.276 V 0 H 0 Z"
       transform="translate(-106.73091,-472.62811)"
       id="path697-2" /></clipPath></defs><sodipodi:namedview
   id="namedview1"
   pagecolor="#505050"
   bordercolor="#eeeeee"
   borderopacity="1"
   inkscape:showpageshadow="0"
   inkscape:pageopacity="0"
   inkscape:pagecheckerboard="0"
   inkscape:deskcolor="#505050"
   inkscape:zoom="1.0675655"
   inkscape:cx="309.58287"
   inkscape:cy="303.96261"
   inkscape:window-width="1920"
   inkscape:window-height="991"
   inkscape:window-x="-9"
   inkscape:window-y="-9"
   inkscape:window-maximized="1"
   inkscape:current-layer="Layer_1" />
















<g
   id="g13"
   transform="matrix(4.0160156,0,0,4.0160156,-182.49776,-1798.2248)"><path
     id="path618"
     d="M 129.732,410.402 H 34.229 v 95.506 h 95.503 z"
     style="fill:#f18528;fill-opacity:1;fill-rule:nonzero;stroke:none"
     transform="matrix(1.3333333,0,0,-1.3333333,0,1122.52)"
     clip-path="url(#clipPath619-4)" /><path
     id="path620"
     d="M 0,0 V -3.379 H 0.028 L 2.3,-1.021 H 2.329 V -15.763 H 5.566 V 3.495 H 2.981 Z"
     style="fill:#ffffff;fill-opacity:1;fill-rule:nonzero;stroke:none"
     transform="matrix(1.3333333,0,0,-1.3333333,54.762,463.30853)"
     clip-path="url(#clipPath621-3)" /><path
     id="path622"
     d="m 0,0 v -3.379 h 0.029 l 2.272,2.358 H 2.328 V -15.763 H 5.567 V 3.495 H 2.983 Z"
     style="fill:#ffffff;fill-opacity:1;fill-rule:nonzero;stroke:none"
     transform="matrix(1.3333333,0,0,-1.3333333,64.6076,463.30853)"
     clip-path="url(#clipPath623-5)" /><path
     id="path624"
     d="m 0,0 h 0.148 14.218 c 0.194,0 0.352,0.159 0.352,0.354 0,0.09 -0.036,0.171 -0.093,0.233 L 14.606,0.609 7.458,9.856 7.389,9.932 c -0.065,0.071 -0.157,0.116 -0.26,0.116 -0.088,0 -0.168,-0.038 -0.231,-0.091 L 6.855,9.907 6.788,9.832 -0.185,0.681 -0.292,0.551 C -0.331,0.495 -0.353,0.427 -0.353,0.354 -0.353,0.159 -0.195,0 0,0"
     style="fill:#ffffff;fill-opacity:1;fill-rule:nonzero;stroke:none"
     transform="matrix(1.3333333,0,0,-1.3333333,67.544133,544.92333)"
     clip-path="url(#clipPath625-8)" /><path
     id="path626"
     d="m 0,0 h -14.394 c -0.195,0 -0.352,-0.158 -0.352,-0.353 v -11.264 c 0,-0.195 0.157,-0.354 0.352,-0.354 h 4.633 v 7.087 c 0,0.196 0.157,0.353 0.352,0.353 h 4.301 c 0.195,0 0.353,-0.157 0.353,-0.353 v -7.087 H 0 c 0.195,0 0.353,0.159 0.353,0.354 V -0.353 C 0.353,-0.158 0.195,0 0,0"
     style="fill:#ffffff;fill-opacity:1;fill-rule:nonzero;stroke:none"
     transform="matrix(1.3333333,0,0,-1.3333333,86.6404,546.6612)"
     clip-path="url(#clipPath627-0)" /><path
     id="path628"
     d="m 0,0 c 0,-0.188 -0.156,-0.339 -0.349,-0.339 h -4.255 c -0.194,0 -0.349,0.151 -0.349,0.339 v 2.587 c 0,0.188 0.155,0.34 0.349,0.34 h 4.255 C -0.156,2.927 0,2.775 0,2.587 Z M 0,-4.781 C 0,-4.97 -0.156,-5.122 -0.349,-5.122 h -4.255 c -0.194,0 -0.349,0.152 -0.349,0.341 v 2.587 c 0,0.188 0.155,0.339 0.349,0.339 h 4.255 C -0.156,-1.855 0,-2.006 0,-2.194 Z M -6.506,0 c 0,-0.188 -0.155,-0.339 -0.347,-0.339 h -4.256 c -0.194,0 -0.35,0.151 -0.35,0.339 v 2.587 c 0,0.188 0.156,0.34 0.35,0.34 h 4.256 c 0.192,0 0.347,-0.152 0.347,-0.34 z m 0,-4.781 c 0,-0.189 -0.155,-0.341 -0.347,-0.341 h -4.256 c -0.194,0 -0.35,0.152 -0.35,0.341 v 2.587 c 0,0.188 0.156,0.339 0.35,0.339 h 4.256 c 0.192,0 0.347,-0.151 0.347,-0.339 z M 1.29,4.611 h -14.247 c -0.193,0 -0.348,-0.149 -0.348,-0.339 v -14.386 c 0,-0.186 0.155,-0.338 0.348,-0.338 H 1.29 c 0.193,0 0.349,0.152 0.349,0.338 V 4.272 c 0,0.19 -0.156,0.339 -0.349,0.339"
     style="fill:#ffffff;fill-opacity:1;fill-rule:nonzero;stroke:none"
     transform="matrix(1.3333333,0,0,-1.3333333,151.25253,548.87747)"
     clip-path="url(#clipPath629-1)" /><path
     id="path630"
     d="m 0,0 c 0,-0.1 -0.083,-0.182 -0.184,-0.182 h -3.191 c -0.102,0 -0.184,0.082 -0.184,0.182 v 3.559 c 0,0.101 0.082,0.183 0.184,0.183 h 3.191 C -0.083,3.742 0,3.66 0,3.559 Z M 0,-8.169 C 0,-8.27 -0.083,-8.352 -0.184,-8.352 h -3.191 c -0.102,0 -0.184,0.082 -0.184,0.183 v 3.558 c 0,0.102 0.082,0.181 0.184,0.181 h 3.191 C -0.083,-4.43 0,-4.509 0,-4.611 Z m 0,-8.17 c 0,-0.101 -0.083,-0.184 -0.184,-0.184 h -3.191 c -0.102,0 -0.184,0.083 -0.184,0.184 v 3.559 c 0,0.1 0.082,0.182 0.184,0.182 h 3.191 C -0.083,-12.598 0,-12.68 0,-12.78 Z m 0,-8.169 c 0,-0.103 -0.083,-0.183 -0.184,-0.183 h -3.191 c -0.102,0 -0.184,0.08 -0.184,0.183 v 3.556 c 0,0.104 0.082,0.184 0.184,0.184 h 3.191 c 0.101,0 0.184,-0.08 0.184,-0.184 z m 0,-8.171 c 0,-0.101 -0.083,-0.182 -0.184,-0.182 h -3.191 c -0.102,0 -0.184,0.081 -0.184,0.182 v 3.558 c 0,0.101 0.082,0.181 0.184,0.181 h 3.191 C -0.083,-28.94 0,-29.02 0,-29.121 Z M -6.26,0 c 0,-0.1 -0.084,-0.182 -0.183,-0.182 H -9.636 C -9.737,-0.182 -9.82,-0.1 -9.82,0 v 3.559 c 0,0.101 0.083,0.183 0.184,0.183 h 3.193 c 0.099,0 0.183,-0.082 0.183,-0.183 z m 0,-8.169 c 0,-0.101 -0.084,-0.183 -0.183,-0.183 h -3.193 c -0.101,0 -0.184,0.082 -0.184,0.183 v 3.558 c 0,0.102 0.083,0.181 0.184,0.181 h 3.193 c 0.099,0 0.183,-0.079 0.183,-0.181 z m 0,-8.17 c 0,-0.101 -0.084,-0.184 -0.183,-0.184 h -3.193 c -0.101,0 -0.184,0.083 -0.184,0.184 v 3.559 c 0,0.1 0.083,0.182 0.184,0.182 h 3.193 c 0.099,0 0.183,-0.082 0.183,-0.182 z m 0,-8.169 c 0,-0.103 -0.084,-0.183 -0.183,-0.183 h -3.193 c -0.101,0 -0.184,0.08 -0.184,0.183 v 3.556 c 0,0.104 0.083,0.184 0.184,0.184 h 3.193 c 0.099,0 0.183,-0.08 0.183,-0.184 z m 0,-8.171 c 0,-0.101 -0.084,-0.182 -0.183,-0.182 h -3.193 c -0.101,0 -0.184,0.081 -0.184,0.182 v 3.558 c 0,0.101 0.083,0.181 0.184,0.181 h 3.193 c 0.099,0 0.183,-0.08 0.183,-0.181 z m 8.293,42.904 h -13.942 c -0.187,0 -0.341,-0.153 -0.341,-0.343 v -47.648 c 0,-0.188 0.154,-0.341 0.341,-0.341 H 2.033 c 0.187,0 0.343,0.153 0.343,0.341 V 9.882 c 0,0.19 -0.156,0.343 -0.343,0.343"
     style="fill:#ffffff;fill-opacity:1;fill-rule:nonzero;stroke:none"
     transform="matrix(1.3333333,0,0,-1.3333333,106.10467,511.838)"
     clip-path="url(#clipPath631-5)" /><path
     id="path632"
     d="m 0,0 c 0,-0.161 -0.127,-0.288 -0.286,-0.288 h -14.339 c -0.158,0 -0.287,0.127 -0.287,0.288 v 2.867 c 0,0.158 0.129,0.286 0.287,0.286 H -0.286 C -0.127,3.153 0,3.025 0,2.867 Z"
     style="fill:#ffffff;fill-opacity:1;fill-rule:nonzero;stroke:none"
     transform="matrix(1.3333333,0,0,-1.3333333,153.41587,540.79893)"
     clip-path="url(#clipPath633-2)" /><path
     id="path634"
     d="m 0,0 c 0,-0.189 -0.154,-0.341 -0.341,-0.341 h -4.154 c -0.19,0 -0.344,0.152 -0.344,0.341 v 2.601 c 0,0.19 0.154,0.342 0.344,0.342 h 4.154 C -0.154,2.943 0,2.791 0,2.601 Z m 0,-4.807 c 0,-0.188 -0.154,-0.34 -0.341,-0.34 h -4.154 c -0.19,0 -0.344,0.152 -0.344,0.34 v 2.6 c 0,0.19 0.154,0.341 0.344,0.341 h 4.154 C -0.154,-1.866 0,-2.017 0,-2.207 Z m 0,-4.807 c 0,-0.187 -0.154,-0.339 -0.341,-0.339 h -4.154 c -0.19,0 -0.344,0.152 -0.344,0.339 v 2.602 c 0,0.189 0.154,0.341 0.344,0.341 h 4.154 C -0.154,-6.671 0,-6.823 0,-7.012 Z m 0,-4.806 c 0,-0.188 -0.154,-0.341 -0.341,-0.341 h -4.154 c -0.19,0 -0.344,0.153 -0.344,0.341 v 2.602 c 0,0.189 0.154,0.34 0.344,0.34 h 4.154 c 0.187,0 0.341,-0.151 0.341,-0.34 z m 0,-4.806 c 0,-0.189 -0.154,-0.341 -0.341,-0.341 h -4.154 c -0.19,0 -0.344,0.152 -0.344,0.341 v 2.601 c 0,0.188 0.154,0.34 0.344,0.34 h 4.154 c 0.187,0 0.341,-0.152 0.341,-0.34 z M -6.34,0.918 V 0.793 -4.811 c 0,-0.19 -0.155,-0.342 -0.341,-0.342 h -4.155 c -0.19,0 -0.343,0.152 -0.343,0.342 v 0.692 0.028 c 0.002,0.046 0.011,0.088 0.026,0.127 0.007,0.015 0.008,0.02 0.021,0.041 0.008,0.015 0.02,0.03 0.03,0.045 0.01,0.015 0.026,0.036 0.039,0.055 0.531,0.76 2.928,3.713 3.935,4.947 l 0.1,0.122 c 0.074,0.087 0.184,0.145 0.307,0.145 0.191,0 0.343,-0.14 0.381,-0.318 z M -6.352,-9.614 c 0,-0.187 -0.152,-0.339 -0.342,-0.339 h -4.154 c -0.19,0 -0.342,0.152 -0.342,0.339 v 2.602 c 0,0.189 0.152,0.341 0.342,0.341 h 4.154 c 0.19,0 0.342,-0.152 0.342,-0.341 z m 0,-4.806 c 0,-0.188 -0.152,-0.341 -0.342,-0.341 h -4.154 c -0.19,0 -0.342,0.153 -0.342,0.341 v 2.602 c 0,0.189 0.152,0.34 0.342,0.34 h 4.154 c 0.19,0 0.342,-0.151 0.342,-0.34 z m 0,-4.806 c 0,-0.189 -0.152,-0.341 -0.342,-0.341 h -4.154 c -0.19,0 -0.342,0.152 -0.342,0.341 v 2.601 c 0,0.188 0.152,0.34 0.342,0.34 h 4.154 c 0.19,0 0.342,-0.152 0.342,-0.34 z m 2.168,24.345 0.098,0.122 c 0.937,1.203 2.517,3.149 3.288,4.094 l 0.1,0.12 c 0.074,0.088 0.184,0.145 0.307,0.145 0.191,0 0.343,-0.138 0.38,-0.319 V 9.128 9.002 4.884 c 0,-0.213 -0.168,-0.383 -0.378,-0.393 -0.007,0 -0.011,-0.003 -0.018,-0.003 -0.005,0 -0.01,0.003 -0.017,0.003 h -3.254 -0.169 c -0.007,0 -0.012,-0.003 -0.018,-0.003 -0.006,0 -0.011,0.003 -0.017,0.003 -0.211,0.01 -0.379,0.18 -0.379,0.393 0,0.087 0.028,0.169 0.077,0.235 m 5.769,9.439 C 1.538,14.712 1.403,14.825 1.235,14.825 1.16,14.825 1.094,14.798 1.036,14.759 1.027,14.753 1.019,14.749 1.01,14.742 L 0.891,14.593 -12.811,-2.789 -12.874,-2.874 c -0.071,-0.07 -0.116,-0.164 -0.119,-0.271 v -0.023 -21.337 c 0,-0.188 0.153,-0.34 0.342,-0.34 H 1.278 c 0.189,0 0.34,0.152 0.34,0.34 v 38.921 c 0,0.051 -0.013,0.1 -0.033,0.142"
     style="fill:#ffffff;fill-opacity:1;fill-rule:nonzero;stroke:none"
     transform="matrix(1.3333333,0,0,-1.3333333,129.15587,529.6144)"
     clip-path="url(#clipPath635-7)" /><path
     id="path636"
     d="m 0,0 v 3.776 c 0,1.22 0.575,2.107 1.957,2.107 1.45,0 1.853,-0.806 1.853,-1.958 V 3.004 H 2.613 v 1.025 c 0,0.484 -0.161,0.76 -0.633,0.76 -0.472,0 -0.668,-0.334 -0.668,-0.806 v -4.19 c 0,-0.472 0.196,-0.806 0.668,-0.806 0.472,0 0.633,0.299 0.633,0.76 V 1.185 H 3.81 V -0.161 C 3.81,-1.278 3.35,-2.107 1.957,-2.107 0.575,-2.107 0,-1.209 0,0"
     style="fill:#ffffff;fill-opacity:1;fill-rule:nonzero;stroke:none"
     transform="matrix(1.3333333,0,0,-1.3333333,80.490267,464.7472)"
     clip-path="url(#clipPath637-8)" /><path
     id="path638"
     d="m 64.766,499.12 h 1.312 v -7.805 h -1.312 z"
     style="fill:#ffffff;fill-opacity:1;fill-rule:nonzero;stroke:none"
     transform="matrix(1.3333333,0,0,-1.3333333,0,1122.52)"
     clip-path="url(#clipPath639-3)" /><path
     id="path640"
     d="M 0,0 C 0.542,0 0.749,0.322 0.749,0.794 V 4.881 C 0.749,5.341 0.542,5.664 0,5.664 H -0.552 V 0 Z M 2.061,4.64 V 1.024 c 0,-1.197 -0.495,-2.095 -1.9,-2.095 h -2.025 v 7.805 h 2.025 c 1.405,0 1.9,-0.886 1.9,-2.094"
     style="fill:#ffffff;fill-opacity:1;fill-rule:nonzero;stroke:none"
     transform="matrix(1.3333333,0,0,-1.3333333,91.434267,466.006)"
     clip-path="url(#clipPath641-3)" /><path
     id="path642"
     d="M 0,0 H 1.048 L 0.529,3.131 H 0.518 Z M -1.646,-2.475 -0.173,5.33 H 1.324 L 2.809,-2.475 H 1.462 L 1.22,-1.048 h -1.393 l -0.23,-1.427 z"
     style="fill:#ffffff;fill-opacity:1;fill-rule:nonzero;stroke:none"
     transform="matrix(1.3333333,0,0,-1.3333333,96.9304,464.13333)"
     clip-path="url(#clipPath643-3)" /><path
     id="path644"
     d="M 0,0 C 0.541,0 0.748,0.322 0.748,0.794 V 4.881 C 0.748,5.341 0.541,5.664 0,5.664 H -0.553 V 0 Z M 2.06,4.64 V 1.024 c 0,-1.197 -0.494,-2.095 -1.899,-2.095 H -1.865 V 6.734 H 0.161 C 1.566,6.734 2.06,5.848 2.06,4.64"
     style="fill:#ffffff;fill-opacity:1;fill-rule:nonzero;stroke:none"
     transform="matrix(1.3333333,0,0,-1.3333333,103.71547,466.006)"
     clip-path="url(#clipPath645-2)" /><path
     id="path646"
     d="M 0,0 H 3.132 V -1.07 H 1.312 V -3.304 H 2.613 V -4.363 H 1.312 v -2.371 h 1.82 V -7.805 H 0 Z"
     style="fill:#ffffff;fill-opacity:1;fill-rule:nonzero;stroke:none"
     transform="matrix(1.3333333,0,0,-1.3333333,107.29253,457.0268)"
     clip-path="url(#clipPath647-0)" /><path
     id="path648"
     d="m 0,0 v 1.048 h 1.22 v -1.071 c 0,-0.437 0.196,-0.691 0.644,-0.691 0.415,0 0.599,0.277 0.599,0.691 v 0.299 c 0,0.45 -0.184,0.726 -0.587,1.106 L 1.105,2.153 C 0.357,2.89 0.011,3.339 0.011,4.237 v 0.265 c 0,0.967 0.564,1.715 1.842,1.715 1.313,0 1.831,-0.645 1.831,-1.773 V 3.811 H 2.487 V 4.49 C 2.487,4.939 2.279,5.157 1.864,5.157 1.496,5.157 1.243,4.95 1.243,4.513 V 4.352 c 0,-0.438 0.241,-0.691 0.621,-1.059 L 2.705,2.464 C 3.418,1.739 3.764,1.301 3.764,0.438 V 0.057 c 0,-1.07 -0.576,-1.83 -1.911,-1.83 C 0.518,-1.773 0,-1.024 0,0"
     style="fill:#ffffff;fill-opacity:1;fill-rule:nonzero;stroke:none"
     transform="matrix(1.3333333,0,0,-1.3333333,112.12813,465.19267)"
     clip-path="url(#clipPath649-2)" /><path
     id="path650"
     d="M 0,0 H 3.132 V -1.07 H 1.312 V -3.304 H 2.613 V -4.363 H 1.312 v -2.371 h 1.82 V -7.805 H 0 Z"
     style="fill:#ffffff;fill-opacity:1;fill-rule:nonzero;stroke:none"
     transform="matrix(1.3333333,0,0,-1.3333333,119.32773,457.0268)"
     clip-path="url(#clipPath651-5)" /><path
     id="path652"
     d="M 0,0 V 3.776 C 0,4.997 0.575,5.883 1.956,5.883 3.407,5.883 3.81,5.077 3.81,3.926 V 3.005 H 2.613 V 4.03 c 0,0.483 -0.161,0.759 -0.633,0.759 -0.472,0 -0.668,-0.334 -0.668,-0.806 v -4.19 c 0,-0.472 0.196,-0.806 0.668,-0.806 0.472,0 0.633,0.299 0.633,0.76 V 1.186 H 3.81 V -0.161 C 3.81,-1.278 3.35,-2.106 1.956,-2.106 0.575,-2.106 0,-1.209 0,0"
     style="fill:#ffffff;fill-opacity:1;fill-rule:nonzero;stroke:none"
     transform="matrix(1.3333333,0,0,-1.3333333,80.7052,477.65787)"
     clip-path="url(#clipPath653-1)" /><path
     id="path654"
     d="m 0,0 v 4.19 c 0,0.472 -0.207,0.806 -0.679,0.806 -0.46,0 -0.667,-0.334 -0.667,-0.806 V 0 c 0,-0.472 0.207,-0.806 0.667,-0.806 C -0.207,-0.806 0,-0.472 0,0 m -2.66,0.207 v 3.776 c 0,1.221 0.599,2.107 1.981,2.107 1.393,0 1.991,-0.886 1.991,-2.107 V 0.207 c 0,-1.209 -0.598,-2.106 -1.991,-2.106 -1.382,0 -1.981,0.897 -1.981,2.106"
     style="fill:#ffffff;fill-opacity:1;fill-rule:nonzero;stroke:none"
     transform="matrix(1.3333333,0,0,-1.3333333,90.436933,477.93373)"
     clip-path="url(#clipPath655-8)" /><path
     id="path656"
     d="m 0,0 h -0.035 l -0.886,-5.066 h -0.61 L -2.51,0 H -2.533 V -5.066 H -3.615 V 2.74 h 1.531 l 0.852,-4.398 H -1.22 L -0.46,2.74 H 1.198 V -5.066 H 0 Z"
     style="fill:#ffffff;fill-opacity:1;fill-rule:nonzero;stroke:none"
     transform="matrix(1.3333333,0,0,-1.3333333,98.158267,473.58987)"
     clip-path="url(#clipPath657-0)" /><path
     id="path658"
     d="m 0,0 v -5.906 c 0,-1.209 -0.519,-1.991 -1.853,-1.991 -1.382,0 -1.958,0.782 -1.958,1.991 V 0 h 1.313 v -6.032 c 0,-0.461 0.184,-0.771 0.645,-0.771 0.46,0 0.645,0.31 0.645,0.771 V 0 Z"
     style="fill:#ffffff;fill-opacity:1;fill-rule:nonzero;stroke:none"
     transform="matrix(1.3333333,0,0,-1.3333333,105.9872,469.93693)"
     clip-path="url(#clipPath659-9)" /><path
     id="path660"
     d="M 0,0 V -4.904 H -1.105 V 2.901 H 0.184 L 1.601,-1.577 V 2.901 H 2.694 V -4.904 H 1.543 Z"
     style="fill:#ffffff;fill-opacity:1;fill-rule:nonzero;stroke:none"
     transform="matrix(1.3333333,0,0,-1.3333333,108.61227,473.80493)"
     clip-path="url(#clipPath661-5)" /><path
     id="path662"
     d="m 85.017,489.437 h 1.312 v -7.805 h -1.312 z"
     style="fill:#ffffff;fill-opacity:1;fill-rule:nonzero;stroke:none"
     transform="matrix(1.3333333,0,0,-1.3333333,0,1122.52)"
     clip-path="url(#clipPath663-4)" /><path
     id="path664"
     d="M 0,0 C 0.541,0 0.749,0.322 0.749,0.794 V 4.881 C 0.749,5.341 0.541,5.664 0,5.664 H -0.553 V 0 Z M 2.06,4.639 V 1.024 c 0,-1.197 -0.494,-2.095 -1.899,-2.095 h -2.026 v 7.805 h 2.026 c 1.405,0 1.899,-0.886 1.899,-2.095"
     style="fill:#ffffff;fill-opacity:1;fill-rule:nonzero;stroke:none"
     transform="matrix(1.3333333,0,0,-1.3333333,118.74387,478.91613)"
     clip-path="url(#clipPath665-0)" /><path
     id="path666"
     d="M 0,0 H 1.047 L 0.529,3.131 H 0.518 Z M -1.646,-2.475 -0.173,5.33 H 1.324 L 2.809,-2.475 H 1.462 L 1.22,-1.047 h -1.393 l -0.23,-1.428 z"
     style="fill:#ffffff;fill-opacity:1;fill-rule:nonzero;stroke:none"
     transform="matrix(1.3333333,0,0,-1.3333333,124.5624,477.04387)"
     clip-path="url(#clipPath667-8)" /><path
     id="path668"
     d="M 0,0 C 0.541,0 0.749,0.322 0.749,0.794 V 4.881 C 0.749,5.341 0.541,5.664 0,5.664 H -0.552 V 0 Z M 2.061,4.639 V 1.024 c 0,-1.197 -0.495,-2.095 -1.9,-2.095 h -2.025 v 7.805 h 2.025 c 1.405,0 1.9,-0.886 1.9,-2.095"
     style="fill:#ffffff;fill-opacity:1;fill-rule:nonzero;stroke:none"
     transform="matrix(1.3333333,0,0,-1.3333333,131.66893,478.91613)"
     clip-path="url(#clipPath669-9)" /><path
     id="path670"
     d="M 0,0 H 3.132 V -1.071 H 1.312 V -3.304 H 2.613 V -4.363 H 1.312 v -2.371 h 1.82 V -7.805 H 0 Z"
     style="fill:#ffffff;fill-opacity:1;fill-rule:nonzero;stroke:none"
     transform="matrix(1.3333333,0,0,-1.3333333,135.5684,469.93693)"
     clip-path="url(#clipPath671-5)" /><path
     id="path672"
     d="m 0,0 v 1.048 h 1.22 v -1.071 c 0,-0.437 0.196,-0.691 0.645,-0.691 0.414,0 0.598,0.276 0.598,0.691 v 0.299 c 0,0.449 -0.184,0.726 -0.587,1.105 L 1.105,2.153 C 0.357,2.89 0.012,3.339 0.012,4.237 v 0.264 c 0,0.967 0.563,1.716 1.841,1.716 1.313,0 1.831,-0.645 1.831,-1.773 V 3.811 H 2.487 V 4.49 C 2.487,4.939 2.279,5.157 1.865,5.157 1.496,5.157 1.243,4.95 1.243,4.513 V 4.352 c 0,-0.438 0.242,-0.691 0.622,-1.06 L 2.705,2.464 C 3.419,1.738 3.764,1.301 3.764,0.438 V 0.057 c 0,-1.07 -0.576,-1.83 -1.911,-1.83 C 0.518,-1.773 0,-1.025 0,0"
     style="fill:#ffffff;fill-opacity:1;fill-rule:nonzero;stroke:none"
     transform="matrix(1.3333333,0,0,-1.3333333,140.74213,478.1028)"
     clip-path="url(#clipPath673-1)" /><path
     id="path674"
     d="m 0,0 v 1.048 h 1.221 v -1.071 c 0,-0.437 0.195,-0.691 0.644,-0.691 0.415,0 0.599,0.277 0.599,0.691 v 0.3 c 0,0.448 -0.184,0.725 -0.587,1.105 L 1.105,2.153 C 0.357,2.89 0.012,3.339 0.012,4.237 v 0.264 c 0,0.968 0.564,1.716 1.841,1.716 1.313,0 1.831,-0.645 1.831,-1.773 V 3.811 H 2.487 V 4.49 C 2.487,4.939 2.28,5.158 1.865,5.158 1.497,5.158 1.243,4.951 1.243,4.513 V 4.352 c 0,-0.438 0.242,-0.691 0.622,-1.059 L 2.706,2.464 C 3.42,1.739 3.765,1.301 3.765,0.438 V 0.057 c 0,-1.069 -0.576,-1.83 -1.912,-1.83 C 0.519,-1.773 0,-1.025 0,0"
     style="fill:#ffffff;fill-opacity:1;fill-rule:nonzero;stroke:none"
     transform="matrix(1.3333333,0,0,-1.3333333,80.6124,492.3492)"
     clip-path="url(#clipPath675-9)" /><path
     id="path676"
     d="m 0,0 v -5.906 c 0,-1.208 -0.518,-1.991 -1.853,-1.991 -1.382,0 -1.957,0.783 -1.957,1.991 V 0 h 1.312 v -6.032 c 0,-0.461 0.184,-0.771 0.645,-0.771 0.46,0 0.645,0.31 0.645,0.771 V 0 Z"
     style="fill:#ffffff;fill-opacity:1;fill-rule:nonzero;stroke:none"
     transform="matrix(1.3333333,0,0,-1.3333333,91.772267,484.1832)"
     clip-path="url(#clipPath677-8)" /><path
     id="path678"
     d="m 0,0 v 1.048 h 1.22 v -1.071 c 0,-0.437 0.196,-0.691 0.645,-0.691 0.415,0 0.598,0.277 0.598,0.691 v 0.3 c 0,0.448 -0.183,0.725 -0.587,1.105 L 1.105,2.153 C 0.357,2.89 0.011,3.339 0.011,4.237 v 0.264 c 0,0.968 0.564,1.716 1.842,1.716 1.313,0 1.831,-0.645 1.831,-1.773 V 3.811 H 2.487 V 4.49 C 2.487,4.939 2.28,5.158 1.865,5.158 1.496,5.158 1.243,4.951 1.243,4.513 V 4.352 c 0,-0.438 0.242,-0.691 0.622,-1.059 L 2.705,2.464 C 3.419,1.739 3.764,1.301 3.764,0.438 V 0.057 c 0,-1.069 -0.575,-1.83 -1.911,-1.83 C 0.518,-1.773 0,-1.025 0,0"
     style="fill:#ffffff;fill-opacity:1;fill-rule:nonzero;stroke:none"
     transform="matrix(1.3333333,0,0,-1.3333333,92.8324,492.3492)"
     clip-path="url(#clipPath679-7)" /><path
     id="path680"
     d="M 0,0 H 3.488 V -1.07 H 2.406 V -7.805 H 1.082 V -1.07 H 0 Z"
     style="fill:#ffffff;fill-opacity:1;fill-rule:nonzero;stroke:none"
     transform="matrix(1.3333333,0,0,-1.3333333,98.7112,484.1832)"
     clip-path="url(#clipPath681-6)" /><path
     id="path682"
     d="M 0,0 H 3.131 V -1.07 H 1.312 V -3.304 H 2.613 V -4.363 H 1.312 V -6.734 H 3.131 V -7.805 H 0 Z"
     style="fill:#ffffff;fill-opacity:1;fill-rule:nonzero;stroke:none"
     transform="matrix(1.3333333,0,0,-1.3333333,104.3304,484.1832)"
     clip-path="url(#clipPath683-7)" /><path
     id="path684"
     d="M 0,0 V -4.904 H -1.105 V 2.901 H 0.184 L 1.6,-1.577 V 2.901 H 2.694 V -4.904 H 1.543 Z"
     style="fill:#ffffff;fill-opacity:1;fill-rule:nonzero;stroke:none"
     transform="matrix(1.3333333,0,0,-1.3333333,111.05347,488.0508)"
     clip-path="url(#clipPath685-1)" /><path
     id="path686"
     d="M 0,0 H 3.488 V -1.07 H 2.406 V -7.805 H 1.082 V -1.07 H 0 Z"
     style="fill:#ffffff;fill-opacity:1;fill-rule:nonzero;stroke:none"
     transform="matrix(1.3333333,0,0,-1.3333333,115.5976,484.1832)"
     clip-path="url(#clipPath687-0)" /><path
     id="path688"
     d="M 0,0 H 1.048 L 0.53,3.132 H 0.519 Z m 1.646,5.883 -2.06,-0.265 v 0.737 l 2.06,0.437 z M -1.646,-2.475 -0.172,5.33 H 1.324 L 2.809,-2.475 H 1.462 l -0.241,1.428 h -1.393 l -0.231,-1.428 z"
     style="fill:#ffffff;fill-opacity:1;fill-rule:nonzero;stroke:none"
     transform="matrix(1.3333333,0,0,-1.3333333,123.13413,491.28973)"
     clip-path="url(#clipPath689-4)" /><path
     id="path690"
     d="M 0,0 -1.485,-7.805 H -2.912 L -4.397,0 h 1.334 l 0.899,-5.445 h 0.011 L -1.232,0 Z"
     style="fill:#ffffff;fill-opacity:1;fill-rule:nonzero;stroke:none"
     transform="matrix(1.3333333,0,0,-1.3333333,133.35773,484.1832)"
     clip-path="url(#clipPath691-7)" /><path
     id="path692"
     d="M 0,0 H 3.132 V -1.07 H 1.312 V -3.304 H 2.614 V -4.363 H 1.312 v -2.371 h 1.82 V -7.805 H 0 Z"
     style="fill:#ffffff;fill-opacity:1;fill-rule:nonzero;stroke:none"
     transform="matrix(1.3333333,0,0,-1.3333333,134.23307,484.1832)"
     clip-path="url(#clipPath693-3)" /><path
     id="path694"
     d="m 104.612,478.753 h 1.312 v -7.805 h -1.312 z"
     style="fill:#ffffff;fill-opacity:1;fill-rule:nonzero;stroke:none"
     transform="matrix(1.3333333,0,0,-1.3333333,0,1122.52)"
     clip-path="url(#clipPath695-2)" /><path
     id="path696"
     d="m 0,0 v 1.048 h 1.22 v -1.071 c 0,-0.437 0.196,-0.691 0.645,-0.691 0.415,0 0.598,0.277 0.598,0.691 v 0.3 c 0,0.448 -0.183,0.725 -0.586,1.105 L 1.105,2.153 C 0.357,2.89 0.012,3.339 0.012,4.237 v 0.264 c 0,0.968 0.564,1.716 1.841,1.716 1.313,0 1.831,-0.645 1.831,-1.773 V 3.811 H 2.487 V 4.49 C 2.487,4.939 2.28,5.158 1.865,5.158 1.497,5.158 1.243,4.951 1.243,4.513 V 4.352 c 0,-0.438 0.242,-0.691 0.622,-1.059 L 2.705,2.464 C 3.419,1.739 3.765,1.301 3.765,0.438 V 0.057 c 0,-1.069 -0.576,-1.83 -1.912,-1.83 C 0.518,-1.773 0,-1.025 0,0"
     style="fill:#ffffff;fill-opacity:1;fill-rule:nonzero;stroke:none"
     transform="matrix(1.3333333,0,0,-1.3333333,142.30787,492.3492)"
     clip-path="url(#clipPath697-1)" /></g></svg>
