<?xml version="1.0" encoding="UTF-8" standalone="no"?>
<!-- Generator: Adobe Illustrator 19.0.0, SVG Export Plug-In . SVG Version: 6.00 Build 0)  -->

<svg
   version="1.1"
   id="Layer_1"
   x="0px"
   y="0px"
   viewBox="0 0 512 512"
   style="enable-background:new 0 0 512 512;"
   xml:space="preserve"
   width="512"
   height="512"
   sodipodi:docname="12.svg"
   inkscape:version="1.4.2 (f4327f4, 2025-05-13)"
   xmlns:inkscape="http://www.inkscape.org/namespaces/inkscape"
   xmlns:sodipodi="http://sodipodi.sourceforge.net/DTD/sodipodi-0.dtd"
   xmlns="http://www.w3.org/2000/svg"
   xmlns:svg="http://www.w3.org/2000/svg"><defs
   id="defs1"><clipPath
     clipPathUnits="userSpaceOnUse"
     id="clipPath763-7"><path
       d="M 0,841.89 H 595.276 V 0 H 0 Z"
       id="path763-0" /></clipPath><clipPath
     clipPathUnits="userSpaceOnUse"
     id="clipPath765-3"><path
       d="M 0,841.89 H 595.276 V 0 H 0 Z"
       transform="translate(-259.2664,-499.43111)"
       id="path765-1" /></clipPath><clipPath
     clipPathUnits="userSpaceOnUse"
     id="clipPath767-3"><path
       d="M 0,841.89 H 595.276 V 0 H 0 Z"
       transform="translate(-269.94061,-495.25641)"
       id="path767-3" /></clipPath><clipPath
     clipPathUnits="userSpaceOnUse"
     id="clipPath769-7"><path
       d="M 0,841.89 H 595.276 V 0 H 0 Z"
       transform="translate(-310.13401,-444.16651)"
       id="path769-0" /></clipPath><clipPath
     clipPathUnits="userSpaceOnUse"
     id="clipPath771-9"><path
       d="M 0,841.89 H 595.276 V 0 H 0 Z"
       transform="translate(-279.14091,-494.03011)"
       id="path771-5" /></clipPath><clipPath
     clipPathUnits="userSpaceOnUse"
     id="clipPath773-5"><path
       d="M 0,841.89 H 595.276 V 0 H 0 Z"
       transform="translate(-284.1115,-490.69301)"
       id="path773-8" /></clipPath><clipPath
     clipPathUnits="userSpaceOnUse"
     id="clipPath775-3"><path
       d="M 0,841.89 H 595.276 V 0 H 0 Z"
       transform="translate(-288.90591,-494.03011)"
       id="path775-7" /></clipPath><clipPath
     clipPathUnits="userSpaceOnUse"
     id="clipPath777-8"><path
       d="M 0,841.89 H 595.276 V 0 H 0 Z"
       transform="translate(-295.1686,-493.34911)"
       id="path777-3" /></clipPath><clipPath
     clipPathUnits="userSpaceOnUse"
     id="clipPath779-7"><path
       d="M 0,841.89 H 595.276 V 0 H 0 Z"
       transform="translate(-298.7527,-493.56021)"
       id="path779-9" /></clipPath><clipPath
     clipPathUnits="userSpaceOnUse"
     id="clipPath781-3"><path
       d="M 0,841.89 H 595.276 V 0 H 0 Z"
       transform="translate(-306.21441,-493.34911)"
       id="path781-9" /></clipPath><clipPath
     clipPathUnits="userSpaceOnUse"
     id="clipPath783-1"><path
       d="M 0,841.89 H 595.276 V 0 H 0 Z"
       transform="translate(-309.57511,-496.51001)"
       id="path783-8" /></clipPath><clipPath
     clipPathUnits="userSpaceOnUse"
     id="clipPath785-2"><path
       d="M 0,841.89 H 595.276 V 0 H 0 Z"
       transform="translate(-313.06541,-499.47081)"
       id="path785-8" /></clipPath><clipPath
     clipPathUnits="userSpaceOnUse"
     id="clipPath787-0"><path
       d="M 0,841.89 H 595.276 V 0 H 0 Z"
       transform="translate(-318.71741,-498.37771)"
       id="path787-1" /></clipPath><clipPath
     clipPathUnits="userSpaceOnUse"
     id="clipPath789-8"><path
       d="M 0,841.89 H 595.276 V 0 H 0 Z"
       transform="translate(-323.49981,-494.03011)"
       id="path789-4" /></clipPath><clipPath
     clipPathUnits="userSpaceOnUse"
     id="clipPath791-8"><path
       d="M 0,841.89 H 595.276 V 0 H 0 Z"
       transform="translate(-329.88041,-494.03011)"
       id="path791-6" /></clipPath><clipPath
     clipPathUnits="userSpaceOnUse"
     id="clipPath793-0"><path
       d="M 0,841.89 H 595.276 V 0 H 0 Z"
       transform="translate(-281.3383,-485.36991)"
       id="path793-9" /></clipPath><clipPath
     clipPathUnits="userSpaceOnUse"
     id="clipPath795-3"><path
       d="M 0,841.89 H 595.276 V 0 H 0 Z"
       transform="translate(-287.0374,-488.16671)"
       id="path795-0" /></clipPath><clipPath
     clipPathUnits="userSpaceOnUse"
     id="clipPath797-0"><path
       d="M 0,841.89 H 595.276 V 0 H 0 Z"
       transform="translate(-289.52851,-481.29221)"
       id="path797-8" /></clipPath><clipPath
     clipPathUnits="userSpaceOnUse"
     id="clipPath799-7"><path
       d="M 0,841.89 H 595.276 V 0 H 0 Z"
       transform="translate(-293.68821,-482.72611)"
       id="path799-6" /></clipPath><clipPath
     clipPathUnits="userSpaceOnUse"
     id="clipPath801-3"><path
       d="M 0,841.89 H 595.276 V 0 H 0 Z"
       transform="translate(-298.0597,-485.20531)"
       id="path801-5" /></clipPath><clipPath
     clipPathUnits="userSpaceOnUse"
     id="clipPath803-6"><path
       d="M 0,841.89 H 595.276 V 0 H 0 Z"
       transform="translate(-302.81881,-479.38901)"
       id="path803-5" /></clipPath><clipPath
     clipPathUnits="userSpaceOnUse"
     id="clipPath805-8"><path
       d="M 0,841.89 H 595.276 V 0 H 0 Z"
       transform="translate(-307.30741,-482.72611)"
       id="path805-3" /></clipPath><clipPath
     clipPathUnits="userSpaceOnUse"
     id="clipPath807-9"><path
       d="M 0,841.89 H 595.276 V 0 H 0 Z"
       transform="translate(-313.62931,-484.45311)"
       id="path807-4" /></clipPath><clipPath
     clipPathUnits="userSpaceOnUse"
     id="clipPath809-8"><path
       d="M 0,841.89 H 595.276 V 0 H 0 Z"
       transform="translate(-316.12041,-488.16671)"
       id="path809-3" /></clipPath><clipPath
     clipPathUnits="userSpaceOnUse"
     id="clipPath811-9"><path
       d="M 0,841.89 H 595.276 V 0 H 0 Z"
       transform="translate(-322.20721,-482.04441)"
       id="path811-7" /></clipPath><clipPath
     clipPathUnits="userSpaceOnUse"
     id="clipPath813-6"><path
       d="M 0,841.89 H 595.276 V 0 H 0 Z"
       transform="translate(-325.47371,-483.78361)"
       id="path813-4" /></clipPath><clipPath
     clipPathUnits="userSpaceOnUse"
     id="clipPath815-5"><path
       d="M 0,841.89 H 595.276 V 0 H 0 Z"
       transform="translate(-330.02151,-482.72611)"
       id="path815-8" /></clipPath><clipPath
     clipPathUnits="userSpaceOnUse"
     id="clipPath817-6"><path
       d="M 0,841.89 H 595.276 V 0 H 0 Z"
       transform="translate(-333.26471,-488.16671)"
       id="path817-1" /></clipPath><clipPath
     clipPathUnits="userSpaceOnUse"
     id="clipPath819-5"><path
       d="M 0,841.89 H 595.276 V 0 H 0 Z"
       transform="translate(-279.55221,-470.61051)"
       id="path819-5" /></clipPath><clipPath
     clipPathUnits="userSpaceOnUse"
     id="clipPath821-1"><path
       d="M 0,841.89 H 595.276 V 0 H 0 Z"
       transform="translate(-284.95761,-471.36261)"
       id="path821-9" /></clipPath><clipPath
     clipPathUnits="userSpaceOnUse"
     id="clipPath823-6"><path
       d="M 0,841.89 H 595.276 V 0 H 0 Z"
       transform="translate(-287.94231,-471.57441)"
       id="path823-4" /></clipPath><clipPath
     clipPathUnits="userSpaceOnUse"
     id="clipPath825-5"><path
       d="M 0,841.89 H 595.276 V 0 H 0 Z"
       transform="translate(-292.38411,-477.48431)"
       id="path825-4" /></clipPath><clipPath
     clipPathUnits="userSpaceOnUse"
     id="clipPath827-2"><path
       d="M 0,841.89 H 595.276 V 0 H 0 Z"
       id="path827-5" /></clipPath><clipPath
     clipPathUnits="userSpaceOnUse"
     id="clipPath829-3"><path
       d="M 0,841.89 H 595.276 V 0 H 0 Z"
       transform="translate(-301.38491,-474.68821)"
       id="path829-2" /></clipPath><clipPath
     clipPathUnits="userSpaceOnUse"
     id="clipPath831-6"><path
       d="M 0,841.89 H 595.276 V 0 H 0 Z"
       transform="translate(-304.66331,-472.04441)"
       id="path831-8" /></clipPath></defs><sodipodi:namedview
   id="namedview1"
   pagecolor="#505050"
   bordercolor="#eeeeee"
   borderopacity="1"
   inkscape:showpageshadow="0"
   inkscape:pageopacity="0"
   inkscape:pagecheckerboard="0"
   inkscape:deskcolor="#505050"
   inkscape:zoom="0.75488281"
   inkscape:cx="379.52911"
   inkscape:cy="374.23027"
   inkscape:window-width="1920"
   inkscape:window-height="991"
   inkscape:window-x="-9"
   inkscape:window-y="-9"
   inkscape:window-maximized="1"
   inkscape:current-layer="Layer_1" />
















<g
   id="g15"
   transform="matrix(4.0065094,0,0,4.0065094,-1320.5602,-1785.5335)"><path
     id="path762"
     d="m 342.714,411.933 h -95.503 v 95.51 h 95.503 z"
     style="fill:#3d8049;fill-opacity:1;fill-rule:nonzero;stroke:none"
     transform="matrix(1.3333333,0,0,-1.3333333,0,1122.52)"
     clip-path="url(#clipPath763-7)" /><path
     id="path764"
     d="m 0,0 v -19.249 h -3.237 v 14.734 h -0.028 l -2.271,-2.356 h -0.029 v 3.379 L -2.585,0 Z"
     style="fill:#ffffff;fill-opacity:1;fill-rule:nonzero;stroke:none"
     transform="matrix(1.3333333,0,0,-1.3333333,345.68853,456.61187)"
     clip-path="url(#clipPath765-3)" /><path
     id="path766"
     d="M 0,0 V -1.674 C 0,-3.291 -0.88,-4.371 -2.214,-4.798 -0.596,-5.166 0.17,-6.302 0.17,-8.062 v -2.839 c 0,-2.668 -1.419,-4.4 -4.684,-4.4 -3.293,0 -4.459,1.874 -4.459,4.798 v 2.527 h 2.954 v -2.756 c 0,-1.135 0.397,-1.872 1.505,-1.872 0.992,0 1.446,0.709 1.446,1.732 v 3.179 c 0,1.022 -0.454,1.561 -1.589,1.561 h -1.362 v 2.47 h 1.222 c 1.05,0 1.729,0.541 1.729,1.561 v 2.074 c 0,1.05 -0.367,1.731 -1.389,1.731 -1.021,0 -1.391,-0.681 -1.391,-1.873 v -1.959 h -2.954 v 1.702 c 0,2.84 1.165,4.828 4.514,4.828 C -1.306,4.402 0,2.726 0,0"
     style="fill:#ffffff;fill-opacity:1;fill-rule:nonzero;stroke:none"
     transform="matrix(1.3333333,0,0,-1.3333333,359.9208,462.17813)"
     clip-path="url(#clipPath767-3)" /><path
     id="path768"
     d="M 0,0 C -0.396,0.108 -2.051,2.396 -0.742,3.902 -0.525,4.149 -1.181,4.877 -1.001,4.893 -0.286,4.947 0.095,4.503 0.283,3.863 0.297,3.581 0.309,3.296 0.309,3.009 0.309,1.978 0.2,0.971 0,0 m -4.038,-7.442 c -0.147,0.043 -0.299,0.09 -0.463,0.172 -0.804,0.409 -0.708,-0.245 -1.103,-0.101 -0.399,0.148 0.446,1.066 -0.742,0.289 -1.183,-0.774 -0.863,0.121 -1.38,1.432 -0.522,1.312 0.593,2.81 1.525,3.15 1.28,0.463 2.075,0.558 2.677,0.706 1.769,0.442 2.144,1.493 2.465,0.853 0.06,-0.12 0.119,-0.233 0.173,-0.341 0.103,-0.192 0.222,-0.578 0.228,-0.96 -0.752,-1.97 -1.912,-3.739 -3.38,-5.2 m -10.395,-4.29 c -1.441,0 -2.828,0.21 -4.143,0.593 -0.189,0.155 -0.297,0.412 -0.178,0.721 0.456,1.189 1.814,1.655 2.886,1.758 2.39,0.233 5.532,-1.552 6.031,-1.263 0.501,0.287 1.513,1.601 2.994,1.546 1.012,-0.039 1.005,-0.209 1.344,-0.337 -2.478,-1.891 -5.574,-3.018 -8.934,-3.018 m -2.004,9.607 c -0.203,-0.331 -0.757,-2.811 -1.129,-2.522 -0.374,0.29 0.15,2.876 0.258,3.072 0.582,1.068 1.842,1.014 0.871,-0.55 m 6.019,2.926 c -0.29,-0.259 -1.036,-0.164 -1.408,0.127 -0.371,0.289 0.235,0.767 0.456,0.785 0.496,0.043 1.242,-0.649 0.952,-0.912 m 6.505,-0.025 c -0.158,0.059 -0.299,0.21 -0.419,0.572 -0.12,0.362 0.184,0.568 0.482,0.423 0.302,-0.154 0.695,-0.605 0.695,-0.846 0,-0.241 -0.594,-0.213 -0.758,-0.149 m 0.627,-0.453 c 0.496,0.04 1.24,-0.646 0.948,-0.911 -0.289,-0.26 -1.032,-0.164 -1.405,0.128 -0.37,0.288 0.235,0.765 0.457,0.783 m -15.811,-5.877 c -0.287,-1.127 -0.621,-1.533 -0.906,-1.888 -0.285,-0.36 -1.34,-0.819 -2.01,-0.769 -0.67,0.05 -0.763,1.839 -0.763,2.759 0,0.317 -0.451,-0.625 -0.685,1.291 -0.15,1.225 -0.937,-0.129 -0.992,0.689 -0.056,0.816 -0.449,0.653 -0.863,1.164 -0.411,0.509 -0.924,-0.05 -1.499,-0.309 -0.572,-0.253 -0.336,-0.387 -1.149,-0.131 -0.021,0.006 -0.031,0.013 -0.052,0.02 -0.746,1.763 -1.158,3.701 -1.158,5.737 0,0.498 0.027,0.987 0.073,1.47 0.028,0.05 0.057,0.097 0.091,0.138 0.78,0.922 0.762,1.138 0.762,1.138 l 0.862,0.298 c 0,0 1.378,-0.211 2.416,-0.603 0.853,-0.319 2.199,-1.044 2.982,-0.725 0.565,0.233 1.008,0.543 0.955,1.013 -0.064,0.591 -0.529,0.732 -1.093,0.334 -0.208,-0.147 -0.65,0.891 -0.998,0.837 -0.347,-0.052 0.429,-1.219 0.136,-1.268 -0.296,-0.051 -0.89,1.216 -0.991,1.423 -0.1,0.203 -0.559,0.711 -0.97,0.324 -0.869,-0.826 -2.281,-0.776 -2.564,-0.988 -0.864,-0.646 -1.091,0.212 -1.072,0.735 0.035,0.119 0.07,0.24 0.109,0.358 0.281,0.311 1.292,0.414 1.64,0.182 0.381,-0.255 0.654,0.065 0.803,0.22 0.152,0.15 0.099,0.396 0.004,0.599 -0.097,0.205 0.19,0.355 0.387,0.407 0.199,0.053 0.855,0.513 1.117,0.666 0.265,0.153 1.628,0.318 2.239,0.012 0.61,-0.307 1.171,-0.056 1.471,0.298 0.377,0.447 0.856,0.788 1.069,0.89 0.213,0.1 -0.526,0.79 -1.134,0.038 -0.61,-0.748 -0.92,-0.818 -1.206,-0.818 -0.286,0 -1.988,0.424 -2.198,0.962 -0.208,0.538 0.532,0.94 1.16,1.244 0.628,0.299 2.346,0.295 2.786,0.395 0.893,0.196 2.034,0.645 2.61,0.252 0.572,-0.384 -2.402,-1.061 -1.424,-1.589 0.347,-0.192 1.92,0.905 2.459,1.185 1.267,0.653 -1.229,0.87 -0.905,2.198 0.366,1.503 -3.063,0.921 -4.772,0.794 2.292,1.468 5.014,2.323 7.937,2.323 6.954,0 12.779,-4.818 14.332,-11.295 C -0.09,6.135 -0.14,5.905 -0.173,5.774 -0.307,5.242 -1.314,4.786 -1.899,5.641 -2.048,5.857 -2.681,6.454 -2.658,5.432 -2.638,4.41 -1.666,4.307 -2.609,3.693 -3.549,3.08 -3.721,3.229 -4.158,3.073 -4.591,2.92 -5.013,1.868 -4.908,1.305 -4.804,0.742 -3.46,-0.794 -4.458,-0.732 -4.69,-0.714 -6.452,0.489 -6.742,1.262 -7.05,2.077 -7.385,2.873 -7.622,3.488 -7.863,4.1 -8.484,4.256 -9.011,3.897 -9.535,3.537 -8.865,3.179 -9.242,2.411 -9.617,1.645 -9.887,0.96 -10.441,1.592 c -1.439,1.65 -3.529,0.837 -3.857,2.671 -0.177,0.995 -1.033,0.899 -1.749,1.462 -0.72,0.561 -1.121,0.865 -1.241,0.46 -0.107,-0.356 2.252,-2.228 2.42,-2.706 0.251,-0.712 -0.706,-1.339 -1.407,-1.509 -0.697,-0.167 -1.005,0.394 -1.692,1.108 -0.686,0.714 -0.987,1.226 -1.034,0.664 -0.069,-0.811 0.652,-2.001 1.352,-2.447 0.596,-0.378 1.264,-0.548 1.071,-1.162 -0.194,-0.614 -0.003,-0.266 -0.671,-0.927 -0.67,-0.665 -0.797,-0.878 -0.749,-1.797 0.048,-0.92 -0.191,-0.972 -0.335,-1.737 -0.143,-0.766 -0.475,-0.104 -0.764,-1.226 m -7.919,16.245 c 0.034,0.039 0.064,0.072 0.077,0.088 0.266,0.304 0.796,0.369 1.162,0.425 0.367,0.064 0.856,-0.121 0.915,-0.365 0.063,-0.243 -0.919,-0.687 -1.099,-0.854 -0.509,-0.469 -1.306,-1.424 -1.772,-1.527 -0.152,-0.034 -0.278,-0.011 -0.381,0.04 0.306,0.763 0.674,1.498 1.098,2.193 m 0.756,1.502 c 0.191,0.28 0.825,1.079 0.901,1.18 0.163,0.21 0.487,0.253 0.714,0.293 0.224,0.043 0.523,-0.083 0.56,-0.252 0.038,-0.169 -0.088,-0.824 -0.198,-0.936 -0.31,-0.322 -1.117,-0.778 -1.563,-0.706 -0.345,0.053 -0.479,0.32 -0.414,0.421 M 20.598,3.483 C 18.082,7.012 6.7,21.104 -14.457,21.104 c -21.161,0 -32.54,-14.092 -35.059,-17.621 -0.107,-0.151 -0.199,-0.281 -0.275,-0.392 0.076,-0.115 0.168,-0.244 0.275,-0.397 2.519,-3.527 13.898,-17.619 35.059,-17.619 21.157,0 32.539,14.092 35.055,17.619 0.11,0.153 0.2,0.282 0.272,0.397 -0.072,0.111 -0.162,0.241 -0.272,0.392"
     style="fill:#ffffff;fill-opacity:1;fill-rule:nonzero;stroke:none"
     transform="matrix(1.3333333,0,0,-1.3333333,413.512,530.298)"
     clip-path="url(#clipPath769-7)" /><path
     id="path770"
     d="M 0,0 H 1.069 L 0.54,3.197 H 0.529 Z m -1.68,-2.526 1.504,7.967 H 1.351 L 2.867,-2.526 H 1.492 l -0.246,1.458 h -1.422 l -0.235,-1.458 z"
     style="fill:#ffffff;fill-opacity:1;fill-rule:nonzero;stroke:none"
     transform="matrix(1.3333333,0,0,-1.3333333,372.18787,463.8132)"
     clip-path="url(#clipPath771-9)" /><path
     id="path772"
     d="m 0,0 c 0.376,0.012 0.435,0.094 0.435,0.189 0,0.082 -0.071,0.129 -0.188,0.129 H 0.188 v 0.434 c -1.14,0.142 -1.61,1 -1.61,2.115 v 3.854 c 0,1.247 0.588,2.151 1.998,2.151 1.48,0 1.892,-0.822 1.892,-1.997 V 5.935 H 1.245 V 6.98 c 0,0.494 -0.164,0.776 -0.646,0.776 -0.481,0 -0.681,-0.341 -0.681,-0.823 V 2.656 c 0,-0.482 0.2,-0.822 0.681,-0.822 0.482,0 0.646,0.305 0.646,0.775 V 4.078 H 2.468 V 2.703 C 2.468,1.587 2.021,0.764 0.693,0.717 V 0.611 C 1.01,0.564 1.187,0.447 1.187,0.189 1.187,-0.176 0.846,-0.376 0,-0.376 Z"
     style="fill:#ffffff;fill-opacity:1;fill-rule:nonzero;stroke:none"
     transform="matrix(1.3333333,0,0,-1.3333333,378.81533,468.26267)"
     clip-path="url(#clipPath773-5)" /><path
     id="path774"
     d="M 0,0 H 1.069 L 0.54,3.197 H 0.529 Z m -0.635,5.758 c 0.024,0.552 0.235,0.999 0.823,0.999 0.341,0 0.622,-0.2 0.799,-0.2 0.094,0 0.164,0.059 0.164,0.176 H 1.809 C 1.786,6.181 1.575,5.734 0.987,5.734 0.646,5.734 0.364,5.935 0.188,5.935 0.094,5.935 0.023,5.876 0.023,5.758 Z m -1.046,-8.284 1.505,7.967 H 1.351 L 2.867,-2.526 H 1.492 l -0.247,1.458 h -1.421 l -0.236,-1.458 z"
     style="fill:#ffffff;fill-opacity:1;fill-rule:nonzero;stroke:none"
     transform="matrix(1.3333333,0,0,-1.3333333,385.20787,463.8132)"
     clip-path="url(#clipPath775-3)" /><path
     id="path776"
     d="M 0,0 V 4.277 C 0,4.759 -0.211,5.1 -0.693,5.1 -1.163,5.1 -1.375,4.759 -1.375,4.277 V 0 c 0,-0.482 0.212,-0.823 0.682,-0.823 C -0.211,-0.823 0,-0.482 0,0 m -2.714,0.211 v 3.854 c 0,1.246 0.611,2.151 2.021,2.151 1.422,0 2.033,-0.905 2.033,-2.151 V 0.211 c 0,-1.234 -0.611,-2.15 -2.033,-2.15 -1.41,0 -2.021,0.916 -2.021,2.15"
     style="fill:#ffffff;fill-opacity:1;fill-rule:nonzero;stroke:none"
     transform="matrix(1.3333333,0,0,-1.3333333,393.55813,464.7212)"
     clip-path="url(#clipPath777-8)" /><path
     id="path778"
     d="m 0,0 v 3.854 c 0,1.246 0.588,2.151 1.998,2.151 1.48,0 1.891,-0.823 1.891,-1.998 V 3.067 H 2.667 V 4.113 C 2.667,4.606 2.503,4.889 2.021,4.889 1.539,4.889 1.34,4.548 1.34,4.066 v -4.277 c 0,-0.482 0.199,-0.823 0.681,-0.823 0.482,0 0.646,0.306 0.646,0.776 V 1.21 H 3.889 V -0.164 C 3.889,-1.304 3.42,-2.15 1.998,-2.15 0.588,-2.15 0,-1.234 0,0"
     style="fill:#ffffff;fill-opacity:1;fill-rule:nonzero;stroke:none"
     transform="matrix(1.3333333,0,0,-1.3333333,398.33693,464.43973)"
     clip-path="url(#clipPath779-7)" /><path
     id="path780"
     d="M 0,0 V 4.277 C 0,4.759 -0.211,5.1 -0.693,5.1 -1.163,5.1 -1.375,4.759 -1.375,4.277 V 0 c 0,-0.482 0.212,-0.823 0.682,-0.823 C -0.211,-0.823 0,-0.482 0,0 m -2.714,0.211 v 3.854 c 0,1.246 0.611,2.151 2.021,2.151 1.422,0 2.033,-0.905 2.033,-2.151 V 0.211 c 0,-1.234 -0.611,-2.15 -2.033,-2.15 -1.41,0 -2.021,0.916 -2.021,2.15"
     style="fill:#ffffff;fill-opacity:1;fill-rule:nonzero;stroke:none"
     transform="matrix(1.3333333,0,0,-1.3333333,408.28587,464.7212)"
     clip-path="url(#clipPath781-3)" /><path
     id="path782"
     d="m 0,0 v -5.006 h -1.128 v 7.967 h 1.316 l 1.445,-4.57 v 4.57 H 2.75 V -5.006 H 1.575 Z"
     style="fill:#ffffff;fill-opacity:1;fill-rule:nonzero;stroke:none"
     transform="matrix(1.3333333,0,0,-1.3333333,412.7668,460.50667)"
     clip-path="url(#clipPath783-1)" /><path
     id="path784"
     d="M 0,0 H 3.56 V -1.093 H 2.456 V -7.967 H 1.104 v 6.874 H 0 Z"
     style="fill:#ffffff;fill-opacity:1;fill-rule:nonzero;stroke:none"
     transform="matrix(1.3333333,0,0,-1.3333333,417.42053,456.55893)"
     clip-path="url(#clipPath785-2)" /><path
     id="path786"
     d="m 0,0 v -2.478 h 0.446 c 0.458,0 0.658,0.234 0.658,0.657 v 1.175 C 1.104,-0.211 0.904,0 0.446,0 Z m 0,-3.219 v -3.655 h -1.34 v 7.967 h 1.951 c 1.351,0 1.845,-0.669 1.845,-1.786 v -1.022 c 0,-0.858 -0.306,-1.363 -1.07,-1.54 l 1.281,-3.619 h -1.41 z"
     style="fill:#ffffff;fill-opacity:1;fill-rule:nonzero;stroke:none"
     transform="matrix(1.3333333,0,0,-1.3333333,424.95653,458.0164)"
     clip-path="url(#clipPath787-0)" /><path
     id="path788"
     d="M 0,0 H 1.069 L 0.54,3.197 H 0.529 Z m -1.68,-2.526 1.504,7.967 H 1.351 L 2.867,-2.526 H 1.492 l -0.246,1.458 h -1.422 l -0.235,-1.458 z"
     style="fill:#ffffff;fill-opacity:1;fill-rule:nonzero;stroke:none"
     transform="matrix(1.3333333,0,0,-1.3333333,431.33307,463.8132)"
     clip-path="url(#clipPath789-8)" /><path
     id="path790"
     d="M 0,0 H 1.069 L 0.54,3.197 H 0.529 Z m -1.68,-2.526 1.504,7.967 H 1.351 L 2.867,-2.526 H 1.492 l -0.247,1.458 h -1.421 l -0.235,-1.458 z"
     style="fill:#ffffff;fill-opacity:1;fill-rule:nonzero;stroke:none"
     transform="matrix(1.3333333,0,0,-1.3333333,439.84053,463.8132)"
     clip-path="url(#clipPath791-8)" /><path
     id="path792"
     d="M 0,0 H -0.035 L -0.94,-5.17 H -1.563 L -2.561,0 H -2.585 V -5.17 H -3.69 v 7.967 h 1.563 l 0.87,-4.489 h 0.012 L -0.47,2.797 H 1.222 V -5.17 H 0 Z"
     style="fill:#ffffff;fill-opacity:1;fill-rule:nonzero;stroke:none"
     transform="matrix(1.3333333,0,0,-1.3333333,375.11773,475.36013)"
     clip-path="url(#clipPath793-0)" /><path
     id="path794"
     d="m 0,0 v -6.028 c 0,-1.234 -0.529,-2.033 -1.892,-2.033 -1.41,0 -1.998,0.799 -1.998,2.033 V 0 h 1.34 v -6.157 c 0,-0.47 0.188,-0.788 0.658,-0.788 0.47,0 0.658,0.318 0.658,0.788 V 0 Z"
     style="fill:#ffffff;fill-opacity:1;fill-rule:nonzero;stroke:none"
     transform="matrix(1.3333333,0,0,-1.3333333,382.71653,471.63107)"
     clip-path="url(#clipPath795-3)" /><path
     id="path796"
     d="M 0,0 C 0.552,0 0.764,0.329 0.764,0.811 V 4.982 C 0.764,5.453 0.552,5.781 0,5.781 H -0.564 V 0 Z m 2.103,4.736 v -3.69 c 0,-1.222 -0.505,-2.138 -1.938,-2.138 h -2.068 v 7.966 h 2.068 c 1.433,0 1.938,-0.905 1.938,-2.138"
     style="fill:#ffffff;fill-opacity:1;fill-rule:nonzero;stroke:none"
     transform="matrix(1.3333333,0,0,-1.3333333,386.038,480.79707)"
     clip-path="url(#clipPath797-0)" /><path
     id="path798"
     d="M 0,0 H 1.069 L 0.541,3.196 H 0.529 Z m -1.68,-2.526 1.504,7.967 H 1.351 L 2.867,-2.526 H 1.492 l -0.246,1.457 h -1.422 l -0.235,-1.457 z"
     style="fill:#ffffff;fill-opacity:1;fill-rule:nonzero;stroke:none"
     transform="matrix(1.3333333,0,0,-1.3333333,391.58427,478.8852)"
     clip-path="url(#clipPath799-7)" /><path
     id="path800"
     d="M 0,0 V -5.005 H -1.128 V 2.961 H 0.188 L 1.633,-1.61 V 2.961 H 2.75 V -5.005 H 1.574 Z"
     style="fill:#ffffff;fill-opacity:1;fill-rule:nonzero;stroke:none"
     transform="matrix(1.3333333,0,0,-1.3333333,397.41293,475.5796)"
     clip-path="url(#clipPath801-3)" /><path
     id="path802"
     d="m 0,0 c 0.376,0.012 0.434,0.094 0.434,0.188 0,0.083 -0.07,0.129 -0.187,0.129 H 0.188 v 0.435 c -1.14,0.141 -1.61,0.999 -1.61,2.115 v 3.854 c 0,1.246 0.588,2.15 1.998,2.15 1.48,0 1.891,-0.822 1.891,-1.997 V 5.934 H 1.245 V 6.98 c 0,0.494 -0.164,0.775 -0.646,0.775 -0.482,0 -0.681,-0.34 -0.681,-0.822 V 2.655 c 0,-0.481 0.199,-0.822 0.681,-0.822 0.482,0 0.646,0.305 0.646,0.776 V 4.077 H 2.467 V 2.702 C 2.467,1.586 2.021,0.764 0.693,0.717 V 0.611 C 1.01,0.564 1.187,0.447 1.187,0.188 1.187,-0.176 0.846,-0.376 0,-0.376 Z"
     style="fill:#ffffff;fill-opacity:1;fill-rule:nonzero;stroke:none"
     transform="matrix(1.3333333,0,0,-1.3333333,403.7584,483.33467)"
     clip-path="url(#clipPath803-6)" /><path
     id="path804"
     d="M 0,0 H 1.069 L 0.54,3.196 H 0.529 Z m -1.68,-2.526 1.504,7.967 H 1.351 L 2.867,-2.526 H 1.492 l -0.247,1.457 h -1.421 l -0.235,-1.457 z"
     style="fill:#ffffff;fill-opacity:1;fill-rule:nonzero;stroke:none"
     transform="matrix(1.3333333,0,0,-1.3333333,409.7432,478.8852)"
     clip-path="url(#clipPath805-8)" /><path
     id="path806"
     d="M 0,0 H 1.904 V -4.253 H 0.94 v 0.869 c -0.176,-0.599 -0.552,-0.964 -1.281,-0.964 -1.151,0 -1.68,0.917 -1.68,2.151 v 3.854 c 0,1.246 0.599,2.15 2.009,2.15 1.481,0 1.916,-0.822 1.916,-1.997 V 1.105 H 0.682 v 0.811 c 0,0.493 -0.188,0.775 -0.67,0.775 -0.482,0 -0.693,-0.34 -0.693,-0.823 v -4.277 c 0,-0.481 0.199,-0.822 0.657,-0.822 0.435,0 0.659,0.246 0.659,0.764 v 1.41 H 0 Z"
     style="fill:#ffffff;fill-opacity:1;fill-rule:nonzero;stroke:none"
     transform="matrix(1.3333333,0,0,-1.3333333,418.1724,476.58253)"
     clip-path="url(#clipPath807-9)" /><path
     id="path808"
     d="M 0,0 H 1.34 V -6.874 H 2.938 V -7.967 H 0 Z"
     style="fill:#ffffff;fill-opacity:1;fill-rule:nonzero;stroke:none"
     transform="matrix(1.3333333,0,0,-1.3333333,421.49387,471.63107)"
     clip-path="url(#clipPath809-8)" /><path
     id="path810"
     d="M 0,0 V 4.277 C 0,4.759 -0.212,5.1 -0.693,5.1 -1.163,5.1 -1.375,4.759 -1.375,4.277 V 0 c 0,-0.482 0.212,-0.823 0.682,-0.823 C -0.212,-0.823 0,-0.482 0,0 m -2.714,0.212 v 3.854 c 0,1.245 0.611,2.15 2.021,2.15 1.422,0 2.032,-0.905 2.032,-2.15 V 0.212 c 0,-1.234 -0.61,-2.151 -2.032,-2.151 -1.41,0 -2.021,0.917 -2.021,2.151"
     style="fill:#ffffff;fill-opacity:1;fill-rule:nonzero;stroke:none"
     transform="matrix(1.3333333,0,0,-1.3333333,429.6096,479.79413)"
     clip-path="url(#clipPath811-9)" /><path
     id="path812"
     d="m 0,0 v -2.491 h 0.588 c 0.446,0 0.657,0.223 0.657,0.646 v 1.199 C 1.245,-0.223 1.046,0 0.576,0 Z m 0,1.023 h 0.47 c 0.435,0 0.635,0.222 0.635,0.645 v 0.976 c 0,0.435 -0.2,0.646 -0.647,0.646 H 0 Z m -1.339,3.36 h 1.938 c 1.34,0 1.787,-0.623 1.787,-1.751 V 1.821 c 0,-0.67 -0.247,-1.093 -0.8,-1.269 0.67,-0.152 0.999,-0.599 0.999,-1.327 v -1.058 c 0,-1.128 -0.505,-1.751 -1.844,-1.751 h -2.08 z"
     style="fill:#ffffff;fill-opacity:1;fill-rule:nonzero;stroke:none"
     transform="matrix(1.3333333,0,0,-1.3333333,433.96493,477.4752)"
     clip-path="url(#clipPath813-6)" /><path
     id="path814"
     d="M 0,0 H 1.069 L 0.54,3.196 H 0.529 Z m -1.68,-2.526 1.504,7.967 H 1.351 L 2.867,-2.526 H 1.492 l -0.247,1.457 h -1.421 l -0.235,-1.457 z"
     style="fill:#ffffff;fill-opacity:1;fill-rule:nonzero;stroke:none"
     transform="matrix(1.3333333,0,0,-1.3333333,440.02867,478.8852)"
     clip-path="url(#clipPath815-5)" /><path
     id="path816"
     d="M 0,0 H 1.34 V -6.874 H 2.938 V -7.967 H 0 Z"
     style="fill:#ffffff;fill-opacity:1;fill-rule:nonzero;stroke:none"
     transform="matrix(1.3333333,0,0,-1.3333333,444.35293,471.63107)"
     clip-path="url(#clipPath817-6)" /><path
     id="path818"
     d="M 0,0 C 0.552,0 0.764,0.329 0.764,0.811 V 4.982 C 0.764,5.452 0.552,5.781 0,5.781 H -0.564 V 0 Z m 2.103,4.736 v -3.69 c 0,-1.222 -0.505,-2.138 -1.938,-2.138 h -2.069 v 7.966 h 2.069 c 1.433,0 1.938,-0.905 1.938,-2.138"
     style="fill:#ffffff;fill-opacity:1;fill-rule:nonzero;stroke:none"
     transform="matrix(1.3333333,0,0,-1.3333333,372.73627,495.03933)"
     clip-path="url(#clipPath819-5)" /><path
     id="path820"
     d="M 0,0 V 4.277 C 0,4.759 -0.212,5.1 -0.693,5.1 -1.163,5.1 -1.375,4.759 -1.375,4.277 V 0 c 0,-0.482 0.212,-0.823 0.682,-0.823 C -0.212,-0.823 0,-0.482 0,0 m -2.715,0.212 v 3.853 c 0,1.246 0.612,2.151 2.022,2.151 1.422,0 2.033,-0.905 2.033,-2.151 V 0.212 c 0,-1.234 -0.611,-2.151 -2.033,-2.151 -1.41,0 -2.022,0.917 -2.022,2.151"
     style="fill:#ffffff;fill-opacity:1;fill-rule:nonzero;stroke:none"
     transform="matrix(1.3333333,0,0,-1.3333333,379.94347,494.03653)"
     clip-path="url(#clipPath821-1)" /><path
     id="path822"
     d="m 0,0 v 3.854 c 0,1.246 0.588,2.15 1.998,2.15 1.48,0 1.891,-0.822 1.891,-1.997 V 3.067 H 2.667 V 4.113 C 2.667,4.606 2.503,4.888 2.021,4.888 1.539,4.888 1.34,4.547 1.34,4.065 v -4.277 c 0,-0.481 0.199,-0.822 0.681,-0.822 0.482,0 0.646,0.306 0.646,0.775 V 1.21 h 1.222 v -1.375 c 0,-1.14 -0.47,-1.986 -1.891,-1.986 C 0.588,-2.151 0,-1.234 0,0"
     style="fill:#ffffff;fill-opacity:1;fill-rule:nonzero;stroke:none"
     transform="matrix(1.3333333,0,0,-1.3333333,383.92307,493.75413)"
     clip-path="url(#clipPath823-6)" /><path
     id="path824"
     d="M 0,0 H 1.34 V -6.874 H 2.938 V -7.966 H 0 Z"
     style="fill:#ffffff;fill-opacity:1;fill-rule:nonzero;stroke:none"
     transform="matrix(1.3333333,0,0,-1.3333333,389.84547,485.87427)"
     clip-path="url(#clipPath825-5)" /><path
     id="path826"
     d="m 295.756,477.484 h 1.34 v -7.966 h -1.34 z"
     style="fill:#ffffff;fill-opacity:1;fill-rule:nonzero;stroke:none"
     transform="matrix(1.3333333,0,0,-1.3333333,0,1122.52)"
     clip-path="url(#clipPath827-2)" /><path
     id="path828"
     d="M 0,0 H -0.035 L -0.94,-5.17 H -1.563 L -2.561,0 H -2.585 V -5.17 H -3.69 v 7.966 h 1.563 l 0.87,-4.488 h 0.012 L -0.47,2.796 H 1.222 V -5.17 H 0 Z"
     style="fill:#ffffff;fill-opacity:1;fill-rule:nonzero;stroke:none"
     transform="matrix(1.3333333,0,0,-1.3333333,401.84653,489.6024)"
     clip-path="url(#clipPath829-3)" /><path
     id="path830"
     d="M 0,0 H 1.07 L 0.54,3.196 H 0.529 Z M -1.68,-2.526 -0.176,5.44 H 1.351 L 2.867,-2.526 H 1.492 l -0.246,1.457 h -1.422 l -0.235,-1.457 z"
     style="fill:#ffffff;fill-opacity:1;fill-rule:nonzero;stroke:none"
     transform="matrix(1.3333333,0,0,-1.3333333,406.21773,493.12747)"
     clip-path="url(#clipPath831-6)" /></g></svg>
