<?xml version="1.0" encoding="UTF-8" standalone="no"?>
<!-- Generator: Adobe Illustrator 19.0.0, SVG Export Plug-In . SVG Version: 6.00 Build 0)  -->

<svg
   version="1.1"
   id="Layer_1"
   x="0px"
   y="0px"
   viewBox="0 0 511.989 511.989"
   style="enable-background:new 0 0 511.989 511.989;"
   xml:space="preserve"
   width="512"
   height="512"
   sodipodi:docname="17.svg"
   inkscape:version="1.4.2 (f4327f4, 2025-05-13)"
   xmlns:inkscape="http://www.inkscape.org/namespaces/inkscape"
   xmlns:sodipodi="http://sodipodi.sourceforge.net/DTD/sodipodi-0.dtd"
   xmlns="http://www.w3.org/2000/svg"
   xmlns:svg="http://www.w3.org/2000/svg"><defs
   id="defs1"><clipPath
     clipPathUnits="userSpaceOnUse"
     id="clipPath1069-8"><path
       d="M 0,841.89 H 595.276 V 0 H 0 Z"
       id="path1069-6" /></clipPath><clipPath
     clipPathUnits="userSpaceOnUse"
     id="clipPath1674-1"><path
       d="M 0,841.89 H 595.276 V 0 H 0 Z"
       transform="translate(-281.5678,-384.67651)"
       id="path1674-1" /></clipPath><clipPath
     clipPathUnits="userSpaceOnUse"
     id="clipPath1676-9"><path
       d="M 0,841.89 H 595.276 V 0 H 0 Z"
       transform="translate(-284.9035,-385.69321)"
       id="path1676-5" /></clipPath><clipPath
     clipPathUnits="userSpaceOnUse"
     id="clipPath1678-3"><path
       d="M 0,841.89 H 595.276 V 0 H 0 Z"
       transform="translate(-286.9651,-385.49721)"
       id="path1678-6" /></clipPath><clipPath
     clipPathUnits="userSpaceOnUse"
     id="clipPath1680-3"><path
       d="M 0,841.89 H 595.276 V 0 H 0 Z"
       transform="translate(-289.3984,-386.60781)"
       id="path1680-1" /></clipPath><clipPath
     clipPathUnits="userSpaceOnUse"
     id="clipPath1682-5"><path
       d="M 0,841.89 H 595.276 V 0 H 0 Z"
       transform="translate(-291.19071,-385.69321)"
       id="path1682-3" /></clipPath><clipPath
     clipPathUnits="userSpaceOnUse"
     id="clipPath1684-4"><path
       d="M 0,841.89 H 595.276 V 0 H 0 Z"
       transform="translate(-293.18701,-386.62821)"
       id="path1684-0" /></clipPath><clipPath
     clipPathUnits="userSpaceOnUse"
     id="clipPath1686-3"><path
       d="M 0,841.89 H 595.276 V 0 H 0 Z"
       transform="translate(-296.5555,-385.35841)"
       id="path1686-1" /></clipPath><clipPath
     clipPathUnits="userSpaceOnUse"
     id="clipPath1688-7"><path
       d="M 0,841.89 H 595.276 V 0 H 0 Z"
       transform="translate(-297.62901,-386.60781)"
       id="path1688-9" /></clipPath><clipPath
     clipPathUnits="userSpaceOnUse"
     id="clipPath1690-0"><path
       d="M 0,841.89 H 595.276 V 0 H 0 Z"
       id="path1690-3" /></clipPath><clipPath
     clipPathUnits="userSpaceOnUse"
     id="clipPath1692-5"><path
       d="M 0,841.89 H 595.276 V 0 H 0 Z"
       transform="translate(-301.65881,-385.35841)"
       id="path1692-2" /></clipPath><clipPath
     clipPathUnits="userSpaceOnUse"
     id="clipPath1694-9"><path
       d="M 0,841.89 H 595.276 V 0 H 0 Z"
       transform="translate(-305.36181,-385.50541)"
       id="path1694-1" /></clipPath><clipPath
     clipPathUnits="userSpaceOnUse"
     id="clipPath1696-2"><path
       d="M 0,841.89 H 595.276 V 0 H 0 Z"
       transform="translate(-306.62731,-385.69321)"
       id="path1696-6" /></clipPath><clipPath
     clipPathUnits="userSpaceOnUse"
     id="clipPath1698-1"><path
       d="M 0,841.89 H 595.276 V 0 H 0 Z"
       transform="translate(-266.36341,-380.91641)"
       id="path1698-7" /></clipPath><clipPath
     clipPathUnits="userSpaceOnUse"
     id="clipPath1700-0"><path
       d="M 0,841.89 H 595.276 V 0 H 0 Z"
       transform="translate(-267.77581,-382.14141)"
       id="path1700-1" /></clipPath><clipPath
     clipPathUnits="userSpaceOnUse"
     id="clipPath1702-5"><path
       d="M 0,841.89 H 595.276 V 0 H 0 Z"
       transform="translate(-273.70401,-381.00221)"
       id="path1702-2" /></clipPath><clipPath
     clipPathUnits="userSpaceOnUse"
     id="clipPath1704-2"><path
       d="M 0,841.89 H 595.276 V 0 H 0 Z"
       id="path1704-9" /></clipPath><clipPath
     clipPathUnits="userSpaceOnUse"
     id="clipPath1706-0"><path
       d="M 0,841.89 H 595.276 V 0 H 0 Z"
       transform="translate(-276.45571,-381.23901)"
       id="path1706-5" /></clipPath><clipPath
     clipPathUnits="userSpaceOnUse"
     id="clipPath1708-1"><path
       d="M 0,841.89 H 595.276 V 0 H 0 Z"
       transform="translate(-278.47251,-382.14141)"
       id="path1708-8" /></clipPath><clipPath
     clipPathUnits="userSpaceOnUse"
     id="clipPath1710-3"><path
       d="M 0,841.89 H 595.276 V 0 H 0 Z"
       transform="translate(-281.0323,-382.17811)"
       id="path1710-6" /></clipPath><clipPath
     clipPathUnits="userSpaceOnUse"
     id="clipPath1712-8"><path
       d="M 0,841.89 H 595.276 V 0 H 0 Z"
       transform="translate(-283.54321,-381.23901)"
       id="path1712-8" /></clipPath><clipPath
     clipPathUnits="userSpaceOnUse"
     id="clipPath1714-6"><path
       d="M 0,841.89 H 595.276 V 0 H 0 Z"
       transform="translate(-286.94811,-381.23901)"
       id="path1714-1" /></clipPath><clipPath
     clipPathUnits="userSpaceOnUse"
     id="clipPath1716-6"><path
       d="M 0,841.89 H 595.276 V 0 H 0 Z"
       transform="translate(-289.67941,-380.21831)"
       id="path1716-6" /></clipPath><clipPath
     clipPathUnits="userSpaceOnUse"
     id="clipPath1718-7"><path
       d="M 0,841.89 H 595.276 V 0 H 0 Z"
       transform="translate(-292.85571,-380.94501)"
       id="path1718-0" /></clipPath><clipPath
     clipPathUnits="userSpaceOnUse"
     id="clipPath1720-4"><path
       d="M 0,841.89 H 595.276 V 0 H 0 Z"
       transform="translate(-295.33381,-380.12021)"
       id="path1720-9" /></clipPath><clipPath
     clipPathUnits="userSpaceOnUse"
     id="clipPath1722-8"><path
       d="M 0,841.89 H 595.276 V 0 H 0 Z"
       transform="translate(-297.7345,-382.17811)"
       id="path1722-9" /></clipPath><clipPath
     clipPathUnits="userSpaceOnUse"
     id="clipPath1724-4"><path
       d="M 0,841.89 H 595.276 V 0 H 0 Z"
       transform="translate(-300.24541,-381.23901)"
       id="path1724-9" /></clipPath><clipPath
     clipPathUnits="userSpaceOnUse"
     id="clipPath1726-8"><path
       d="M 0,841.89 H 595.276 V 0 H 0 Z"
       transform="translate(-302.26211,-382.14141)"
       id="path1726-7" /></clipPath><clipPath
     clipPathUnits="userSpaceOnUse"
     id="clipPath1728-5"><path
       d="M 0,841.89 H 595.276 V 0 H 0 Z"
       transform="translate(-304.82201,-382.17811)"
       id="path1728-6" /></clipPath><clipPath
     clipPathUnits="userSpaceOnUse"
     id="clipPath1730-4"><path
       d="M 0,841.89 H 595.276 V 0 H 0 Z"
       transform="translate(-308.24751,-380.82661)"
       id="path1730-8" /></clipPath><clipPath
     clipPathUnits="userSpaceOnUse"
     id="clipPath1732-6"><path
       d="M 0,841.89 H 595.276 V 0 H 0 Z"
       transform="translate(-311.19111,-381.00221)"
       id="path1732-8" /></clipPath><clipPath
     clipPathUnits="userSpaceOnUse"
     id="clipPath1734-7"><path
       d="M 0,841.89 H 595.276 V 0 H 0 Z"
       id="path1734-8" /></clipPath><clipPath
     clipPathUnits="userSpaceOnUse"
     id="clipPath1736-0"><path
       d="M 0,841.89 H 595.276 V 0 H 0 Z"
       transform="translate(-313.45691,-380.56531)"
       id="path1736-9" /></clipPath><clipPath
     clipPathUnits="userSpaceOnUse"
     id="clipPath1738-5"><path
       d="M 0,841.89 H 595.276 V 0 H 0 Z"
       id="path1738-6" /></clipPath><clipPath
     clipPathUnits="userSpaceOnUse"
     id="clipPath1740-9"><path
       d="M 0,841.89 H 595.276 V 0 H 0 Z"
       transform="translate(-317.65401,-381.03491)"
       id="path1740-0" /></clipPath><clipPath
     clipPathUnits="userSpaceOnUse"
     id="clipPath1742-0"><path
       d="M 0,841.89 H 595.276 V 0 H 0 Z"
       transform="translate(-320.22611,-380.82661)"
       id="path1742-1" /></clipPath><clipPath
     clipPathUnits="userSpaceOnUse"
     id="clipPath1744-3"><path
       d="M 0,841.89 H 595.276 V 0 H 0 Z"
       transform="translate(-323.06761,-381.03491)"
       id="path1744-5" /></clipPath><clipPath
     clipPathUnits="userSpaceOnUse"
     id="clipPath1746-5"><path
       d="M 0,841.89 H 595.276 V 0 H 0 Z"
       transform="translate(-324.72511,-381.23901)"
       id="path1746-8" /></clipPath><clipPath
     clipPathUnits="userSpaceOnUse"
     id="clipPath1748-0"><path
       d="m 247.212,307.65 h 95.503 v 95.503 h -95.503 z"
       transform="translate(-259.0237,-331.87031)"
       id="path1748-1" /></clipPath><clipPath
     clipPathUnits="userSpaceOnUse"
     id="clipPath1750-7"><path
       d="m 247.212,307.65 h 95.503 v 95.503 h -95.503 z"
       transform="translate(-264.47241,-329.42481)"
       id="path1750-7" /></clipPath><clipPath
     clipPathUnits="userSpaceOnUse"
     id="clipPath1752-4"><path
       d="m 247.212,307.65 h 95.503 v 95.503 h -95.503 z"
       transform="translate(-273.02731,-330.20171)"
       id="path1752-6" /></clipPath><clipPath
     clipPathUnits="userSpaceOnUse"
     id="clipPath1754-7"><path
       d="m 247.212,307.65 h 95.503 v 95.503 h -95.503 z"
       transform="translate(-280.14451,-336.34661)"
       id="path1754-0" /></clipPath><clipPath
     clipPathUnits="userSpaceOnUse"
     id="clipPath1756-7"><path
       d="m 247.212,307.65 h 95.503 v 95.503 h -95.503 z"
       transform="translate(-283.92511,-329.42481)"
       id="path1756-4" /></clipPath><clipPath
     clipPathUnits="userSpaceOnUse"
     id="clipPath1758-1"><path
       d="m 247.212,307.65 h 95.503 v 95.503 h -95.503 z"
       transform="translate(-295.83951,-336.41751)"
       id="path1758-2" /></clipPath><clipPath
     clipPathUnits="userSpaceOnUse"
     id="clipPath1760-1"><path
       d="m 247.212,307.65 h 95.503 v 95.503 h -95.503 z"
       transform="translate(-301.91621,-329.42481)"
       id="path1760-8" /></clipPath><clipPath
     clipPathUnits="userSpaceOnUse"
     id="clipPath1762-3"><path
       d="m 247.212,307.65 h 95.503 v 95.503 h -95.503 z"
       transform="translate(-308.15941,-333.52591)"
       id="path1762-5" /></clipPath><clipPath
     clipPathUnits="userSpaceOnUse"
     id="clipPath1764-7"><path
       d="m 247.212,307.65 h 95.503 v 95.503 h -95.503 z"
       transform="translate(-311.38401,-329.42481)"
       id="path1764-1" /></clipPath><clipPath
     clipPathUnits="userSpaceOnUse"
     id="clipPath1766-4"><path
       d="m 247.212,307.65 h 95.503 v 95.503 h -95.503 z"
       transform="translate(-317.02371,-329.42481)"
       id="path1766-7" /></clipPath><clipPath
     clipPathUnits="userSpaceOnUse"
     id="clipPath1768-6"><path
       d="m 247.212,307.65 h 95.503 v 95.503 h -95.503 z"
       transform="translate(-321.30541,-331.87031)"
       id="path1768-8" /></clipPath><clipPath
     clipPathUnits="userSpaceOnUse"
     id="clipPath1770-2"><path
       d="m 247.212,307.65 h 95.503 v 95.503 h -95.503 z"
       transform="translate(-332.21881,-330.20171)"
       id="path1770-3" /></clipPath><clipPath
     clipPathUnits="userSpaceOnUse"
     id="clipPath1772-0"><path
       d="m 247.212,307.65 h 95.503 v 95.503 h -95.503 z"
       transform="translate(-256.762,-340.05311)"
       id="path1772-2" /></clipPath><clipPath
     clipPathUnits="userSpaceOnUse"
     id="clipPath1774-7"><path
       d="m 247.212,307.65 h 95.503 v 95.503 h -95.503 z"
       transform="translate(-261.73171,-340.05311)"
       id="path1774-8" /></clipPath><clipPath
     clipPathUnits="userSpaceOnUse"
     id="clipPath1776-8"><path
       d="m 247.212,307.65 h 95.503 v 95.503 h -95.503 z"
       transform="translate(-266.74371,-341.77691)"
       id="path1776-5" /></clipPath><clipPath
     clipPathUnits="userSpaceOnUse"
     id="clipPath1778-9"><path
       d="m 247.212,307.65 h 95.503 v 95.503 h -95.503 z"
       transform="translate(-271.91481,-341.77691)"
       id="path1778-7" /></clipPath><clipPath
     clipPathUnits="userSpaceOnUse"
     id="clipPath1780-1"><path
       d="m 247.212,307.65 h 95.503 v 95.503 h -95.503 z"
       transform="translate(-277.8025,-339.47101)"
       id="path1780-3" /></clipPath><clipPath
     clipPathUnits="userSpaceOnUse"
     id="clipPath1782-4"><path
       d="m 247.212,307.65 h 95.503 v 95.503 h -95.503 z"
       transform="translate(-281.31421,-341.77691)"
       id="path1782-7" /></clipPath><clipPath
     clipPathUnits="userSpaceOnUse"
     id="clipPath1784-1"><path
       d="m 247.212,307.65 h 95.503 v 95.503 h -95.503 z"
       transform="translate(-286.2382,-340.05311)"
       id="path1784-3" /></clipPath><clipPath
     clipPathUnits="userSpaceOnUse"
     id="clipPath1786-7"><path
       d="m 247.212,307.65 h 95.503 v 95.503 h -95.503 z"
       transform="translate(-294.16681,-341.77691)"
       id="path1786-1" /></clipPath><clipPath
     clipPathUnits="userSpaceOnUse"
     id="clipPath1788-2"><path
       d="m 247.212,307.65 h 95.503 v 95.503 h -95.503 z"
       transform="translate(-298.93491,-340.05311)"
       id="path1788-7" /></clipPath><clipPath
     clipPathUnits="userSpaceOnUse"
     id="clipPath1790-5"><path
       d="m 247.212,307.65 h 95.503 v 95.503 h -95.503 z"
       transform="translate(-306.86371,-341.77691)"
       id="path1790-3" /></clipPath><clipPath
     clipPathUnits="userSpaceOnUse"
     id="clipPath1792-4"><path
       d="m 247.212,307.65 h 95.503 v 95.503 h -95.503 z"
       transform="translate(-311.11751,-338.72561)"
       id="path1792-4" /></clipPath><clipPath
     clipPathUnits="userSpaceOnUse"
     id="clipPath1794-5"><path
       d="m 247.212,307.65 h 95.503 v 95.503 h -95.503 z"
       transform="translate(-316.77441,-341.08731)"
       id="path1794-5" /></clipPath><clipPath
     clipPathUnits="userSpaceOnUse"
     id="clipPath1796-1"><path
       d="m 247.212,307.65 h 95.503 v 95.503 h -95.503 z"
       transform="translate(-321.11631,-341.80001)"
       id="path1796-4" /></clipPath><clipPath
     clipPathUnits="userSpaceOnUse"
     id="clipPath1798-1"><path
       d="m 247.212,307.65 h 95.503 v 95.503 h -95.503 z"
       transform="translate(-325.07631,-341.77691)"
       id="path1798-2" /></clipPath><clipPath
     clipPathUnits="userSpaceOnUse"
     id="clipPath1800-6"><path
       d="m 247.212,307.65 h 95.503 v 95.503 h -95.503 z"
       transform="translate(-329.84511,-340.05311)"
       id="path1800-6" /></clipPath><clipPath
     clipPathUnits="userSpaceOnUse"
     id="clipPath1802-3"><path
       d="m 247.212,307.65 h 95.503 v 95.503 h -95.503 z"
       transform="translate(-301.04451,-348.88761)"
       id="path1802-3" /></clipPath><clipPath
     clipPathUnits="userSpaceOnUse"
     id="clipPath1804-0"><path
       d="m 247.212,307.65 h 95.503 v 95.503 h -95.503 z"
       transform="translate(-288.13341,-368.46171)"
       id="path1804-0" /></clipPath><clipPath
     clipPathUnits="userSpaceOnUse"
     id="clipPath1806-8"><path
       d="m 247.212,307.65 h 95.503 v 95.503 h -95.503 z"
       transform="translate(-295.14811,-369.20451)"
       id="path1806-1" /></clipPath><clipPath
     clipPathUnits="userSpaceOnUse"
     id="clipPath1808-3"><path
       d="m 247.212,307.65 h 95.503 v 95.503 h -95.503 z"
       transform="translate(-291.90111,-353.30811)"
       id="path1808-8" /></clipPath><clipPath
     clipPathUnits="userSpaceOnUse"
     id="clipPath1810-1"><path
       d="m 247.212,307.65 h 95.503 v 95.503 h -95.503 z"
       transform="translate(-291.56371,-353.94831)"
       id="path1810-6" /></clipPath><clipPath
     clipPathUnits="userSpaceOnUse"
     id="clipPath1812-9"><path
       d="m 247.212,307.65 h 95.503 v 95.503 h -95.503 z"
       transform="translate(-291.75381,-354.76801)"
       id="path1812-8" /></clipPath><clipPath
     clipPathUnits="userSpaceOnUse"
     id="clipPath1814-0"><path
       d="m 247.212,307.65 h 95.503 v 95.503 h -95.503 z"
       transform="translate(-292.25851,-355.69251)"
       id="path1814-1" /></clipPath><clipPath
     clipPathUnits="userSpaceOnUse"
     id="clipPath1816-3"><path
       d="m 247.212,307.65 h 95.503 v 95.503 h -95.503 z"
       transform="translate(-293.0521,-356.06691)"
       id="path1816-9" /></clipPath><clipPath
     clipPathUnits="userSpaceOnUse"
     id="clipPath1818-3"><path
       d="m 247.212,307.65 h 95.503 v 95.503 h -95.503 z"
       transform="translate(-293.6515,-356.83051)"
       id="path1818-9" /></clipPath><clipPath
     clipPathUnits="userSpaceOnUse"
     id="clipPath1820-3"><path
       d="m 247.212,307.65 h 95.503 v 95.503 h -95.503 z"
       transform="translate(-294.4852,-357.10231)"
       id="path1820-6" /></clipPath><clipPath
     clipPathUnits="userSpaceOnUse"
     id="clipPath1822-5"><path
       d="m 247.212,307.65 h 95.503 v 95.503 h -95.503 z"
       transform="translate(-295.2484,-357.17041)"
       id="path1822-5" /></clipPath><clipPath
     clipPathUnits="userSpaceOnUse"
     id="clipPath1824-4"><path
       d="m 247.212,307.65 h 95.503 v 95.503 h -95.503 z"
       transform="translate(-295.71891,-356.87661)"
       id="path1824-0" /></clipPath><clipPath
     clipPathUnits="userSpaceOnUse"
     id="clipPath1826-5"><path
       d="m 247.212,307.65 h 95.503 v 95.503 h -95.503 z"
       transform="translate(-296.78991,-356.81471)"
       id="path1826-0" /></clipPath><clipPath
     clipPathUnits="userSpaceOnUse"
     id="clipPath1828-6"><path
       d="m 247.212,307.65 h 95.503 v 95.503 h -95.503 z"
       transform="translate(-297.43611,-356.42831)"
       id="path1828-5" /></clipPath><clipPath
     clipPathUnits="userSpaceOnUse"
     id="clipPath1830-5"><path
       d="m 247.212,307.65 h 95.503 v 95.503 h -95.503 z"
       transform="translate(-298.52431,-354.13171)"
       id="path1830-1" /></clipPath><clipPath
     clipPathUnits="userSpaceOnUse"
     id="clipPath1832-8"><path
       d="m 247.212,307.65 h 95.503 v 95.503 h -95.503 z"
       transform="translate(-298.81071,-353.31361)"
       id="path1832-9" /></clipPath><clipPath
     clipPathUnits="userSpaceOnUse"
     id="clipPath1834-6"><path
       d="m 247.212,307.65 h 95.503 v 95.503 h -95.503 z"
       transform="translate(-298.26921,-352.49611)"
       id="path1834-2" /></clipPath><clipPath
     clipPathUnits="userSpaceOnUse"
     id="clipPath1836-2"><path
       d="m 247.212,307.65 h 95.503 v 95.503 h -95.503 z"
       transform="translate(-298.37841,-351.86541)"
       id="path1836-5" /></clipPath><clipPath
     clipPathUnits="userSpaceOnUse"
     id="clipPath1838-0"><path
       d="m 247.212,307.65 h 95.503 v 95.503 h -95.503 z"
       transform="translate(-297.55501,-351.33401)"
       id="path1838-5" /></clipPath><clipPath
     clipPathUnits="userSpaceOnUse"
     id="clipPath1840-2"><path
       d="m 247.212,307.65 h 95.503 v 95.503 h -95.503 z"
       transform="translate(-297.4015,-350.71351)"
       id="path1840-5" /></clipPath><clipPath
     clipPathUnits="userSpaceOnUse"
     id="clipPath1842-2"><path
       d="m 247.212,307.65 h 95.503 v 95.503 h -95.503 z"
       transform="translate(-295.52151,-350.32281)"
       id="path1842-0" /></clipPath><clipPath
     clipPathUnits="userSpaceOnUse"
     id="clipPath1844-6"><path
       d="m 247.212,307.65 h 95.503 v 95.503 h -95.503 z"
       transform="translate(-295.00461,-349.94711)"
       id="path1844-7" /></clipPath><clipPath
     clipPathUnits="userSpaceOnUse"
     id="clipPath1846-2"><path
       d="m 247.212,307.65 h 95.503 v 95.503 h -95.503 z"
       transform="translate(-294.39501,-350.28971)"
       id="path1846-8" /></clipPath><clipPath
     clipPathUnits="userSpaceOnUse"
     id="clipPath1848-0"><path
       d="m 247.212,307.65 h 95.503 v 95.503 h -95.503 z"
       transform="translate(-293.48991,-350.46711)"
       id="path1848-0" /></clipPath><clipPath
     clipPathUnits="userSpaceOnUse"
     id="clipPath1850-6"><path
       d="m 247.212,307.65 h 95.503 v 95.503 h -95.503 z"
       transform="translate(-292.9318,-350.69261)"
       id="path1850-8" /></clipPath><clipPath
     clipPathUnits="userSpaceOnUse"
     id="clipPath1852-3"><path
       d="m 247.212,307.65 h 95.503 v 95.503 h -95.503 z"
       transform="translate(-292.36,-353.61321)"
       id="path1852-0" /></clipPath><clipPath
     clipPathUnits="userSpaceOnUse"
     id="clipPath1854-6"><path
       d="m 247.212,307.65 h 95.503 v 95.503 h -95.503 z"
       transform="translate(-293.40471,-352.50111)"
       id="path1854-4" /></clipPath><clipPath
     clipPathUnits="userSpaceOnUse"
     id="clipPath1856-3"><path
       d="m 247.212,307.65 h 95.503 v 95.503 h -95.503 z"
       transform="translate(-293.64871,-353.32121)"
       id="path1856-7" /></clipPath><clipPath
     clipPathUnits="userSpaceOnUse"
     id="clipPath1858-0"><path
       d="m 247.212,307.65 h 95.503 v 95.503 h -95.503 z"
       transform="translate(-293.95561,-353.57941)"
       id="path1858-5" /></clipPath><clipPath
     clipPathUnits="userSpaceOnUse"
     id="clipPath1860-2"><path
       d="m 247.212,307.65 h 95.503 v 95.503 h -95.503 z"
       transform="translate(-294.73231,-353.71891)"
       id="path1860-0" /></clipPath><clipPath
     clipPathUnits="userSpaceOnUse"
     id="clipPath1862-7"><path
       d="m 247.212,307.65 h 95.503 v 95.503 h -95.503 z"
       transform="translate(-294.8608,-354.15281)"
       id="path1862-5" /></clipPath><clipPath
     clipPathUnits="userSpaceOnUse"
     id="clipPath1864-6"><path
       d="m 247.212,307.65 h 95.503 v 95.503 h -95.503 z"
       transform="translate(-295.07761,-354.25871)"
       id="path1864-1" /></clipPath><clipPath
     clipPathUnits="userSpaceOnUse"
     id="clipPath1866-8"><path
       d="m 247.212,307.65 h 95.503 v 95.503 h -95.503 z"
       transform="translate(-295.7077,-354.40241)"
       id="path1866-1" /></clipPath><clipPath
     clipPathUnits="userSpaceOnUse"
     id="clipPath1868-8"><path
       d="m 247.212,307.65 h 95.503 v 95.503 h -95.503 z"
       transform="translate(-295.98511,-354.22711)"
       id="path1868-5" /></clipPath><clipPath
     clipPathUnits="userSpaceOnUse"
     id="clipPath1870-6"><path
       d="m 247.212,307.65 h 95.503 v 95.503 h -95.503 z"
       transform="translate(-296.52801,-354.29291)"
       id="path1870-5" /></clipPath><clipPath
     clipPathUnits="userSpaceOnUse"
     id="clipPath1872-9"><path
       d="m 247.212,307.65 h 95.503 v 95.503 h -95.503 z"
       transform="translate(-296.91801,-354.34051)"
       id="path1872-2" /></clipPath><clipPath
     clipPathUnits="userSpaceOnUse"
     id="clipPath1874-6"><path
       d="m 247.212,307.65 h 95.503 v 95.503 h -95.503 z"
       transform="translate(-296.44731,-369.59551)"
       id="path1874-5" /></clipPath><clipPath
     clipPathUnits="userSpaceOnUse"
     id="clipPath1876-2"><path
       d="m 247.212,307.65 h 95.503 v 95.503 h -95.503 z"
       transform="translate(-302.71031,-347.15191)"
       id="path1876-3" /></clipPath></defs><sodipodi:namedview
   id="namedview1"
   pagecolor="#505050"
   bordercolor="#eeeeee"
   borderopacity="1"
   inkscape:showpageshadow="0"
   inkscape:pageopacity="0"
   inkscape:pagecheckerboard="0"
   inkscape:deskcolor="#505050"
   inkscape:zoom="1.0675655"
   inkscape:cx="290.84866"
   inkscape:cy="294.5955"
   inkscape:window-width="1920"
   inkscape:window-height="991"
   inkscape:window-x="-9"
   inkscape:window-y="-9"
   inkscape:window-maximized="1"
   inkscape:current-layer="Layer_1" />
















<g
   id="g21"
   transform="matrix(4.031825,0,0,4.031825,-1331.2088,-2363.4608)"><path
     id="path1068"
     d="m 342.937,306.827 h -95.23 v 95.234 h 95.23 z"
     style="fill:#245597;fill-opacity:1;fill-rule:nonzero;stroke:none"
     transform="matrix(1.3333333,0,0,-1.3333333,0,1122.52)"
     clip-path="url(#clipPath1069-8)" /><path
     id="path1673"
     d="M 0,0 0.208,0.319 C 0.559,0.09 0.923,0.004 1.29,0.004 c 0.617,0 0.85,0.159 0.85,0.527 0,0.375 -0.331,0.437 -0.854,0.522 -0.694,0.115 -1.127,0.233 -1.127,0.862 0,0.608 0.38,0.841 1.135,0.841 0.511,0 0.862,-0.118 1.103,-0.277 L 2.172,2.14 C 1.964,2.278 1.633,2.376 1.294,2.376 0.772,2.376 0.568,2.242 0.568,1.923 0.568,1.58 0.866,1.515 1.388,1.425 2.066,1.311 2.548,1.209 2.548,0.551 2.548,-0.053 2.176,-0.359 1.303,-0.359 0.808,-0.359 0.376,-0.253 0,0"
     style="fill:#ffffff;fill-opacity:1;fill-rule:nonzero;stroke:none"
     transform="matrix(1.3333333,0,0,-1.3333333,375.42373,609.618)"
     clip-path="url(#clipPath1674-1)" /><path
     id="path1675"
     d="M 0,0 H 1.298 C 1.278,0.359 1.245,0.637 0.706,0.637 0.188,0.637 0.033,0.384 0,0 m -0.388,-0.196 c 0,0.653 0.2,1.184 1.107,1.184 0.935,0 0.967,-0.649 0.955,-1.339 h -1.678 c 0.024,-0.413 0.167,-0.686 0.731,-0.686 0.367,0 0.547,0.094 0.722,0.224 L 1.662,-1.09 C 1.421,-1.278 1.155,-1.38 0.727,-1.38 c -0.931,0 -1.115,0.527 -1.115,1.184"
     style="fill:#ffffff;fill-opacity:1;fill-rule:nonzero;stroke:none"
     transform="matrix(1.3333333,0,0,-1.3333333,379.87133,608.2624)"
     clip-path="url(#clipPath1676-9)" /><path
     id="path1677"
     d="m 0,0 c 0,0.702 0.233,1.184 1.123,1.184 0.404,0 0.669,-0.143 0.845,-0.339 L 1.678,0.572 C 1.572,0.682 1.413,0.8 1.123,0.8 0.563,0.8 0.4,0.498 0.4,-0.008 c 0,-0.506 0.155,-0.817 0.723,-0.817 0.245,0 0.404,0.078 0.576,0.233 L 1.964,-0.845 C 1.731,-1.062 1.507,-1.18 1.106,-1.18 0.237,-1.18 0,-0.702 0,0"
     style="fill:#ffffff;fill-opacity:1;fill-rule:nonzero;stroke:none"
     transform="matrix(1.3333333,0,0,-1.3333333,382.62013,608.52373)"
     clip-path="url(#clipPath1678-3)" /><path
     id="path1679"
     d="m 0,0 0.314,0.02 0.041,-0.277 c 0.09,0.163 0.368,0.298 0.768,0.306 v -0.4 C 0.576,-0.355 0.4,-0.637 0.4,-1.053 V -2.25 H 0 Z"
     style="fill:#ffffff;fill-opacity:1;fill-rule:nonzero;stroke:none"
     transform="matrix(1.3333333,0,0,-1.3333333,385.86453,607.04293)"
     clip-path="url(#clipPath1680-3)" /><path
     id="path1681"
     d="M 0,0 H 1.298 C 1.278,0.359 1.245,0.637 0.706,0.637 0.188,0.637 0.033,0.384 0,0 m -0.388,-0.196 c 0,0.653 0.2,1.184 1.107,1.184 0.935,0 0.967,-0.649 0.955,-1.339 h -1.678 c 0.024,-0.413 0.167,-0.686 0.731,-0.686 0.367,0 0.547,0.094 0.722,0.224 L 1.662,-1.09 C 1.421,-1.278 1.155,-1.38 0.727,-1.38 c -0.931,0 -1.115,0.527 -1.115,1.184"
     style="fill:#ffffff;fill-opacity:1;fill-rule:nonzero;stroke:none"
     transform="matrix(1.3333333,0,0,-1.3333333,388.25427,608.2624)"
     clip-path="url(#clipPath1682-5)" /><path
     id="path1683"
     d="m 0,0 h 0.412 l 0.07,0.645 0.314,0.061 V 0 h 0.6 v -0.359 h -0.6 v -1.238 c 0,-0.2 0.025,-0.322 0.327,-0.322 H 1.396 V -2.27 C 1.347,-2.274 1.115,-2.274 1.053,-2.274 0.515,-2.274 0.4,-2.07 0.4,-1.65 v 1.291 H 0 Z"
     style="fill:#ffffff;fill-opacity:1;fill-rule:nonzero;stroke:none"
     transform="matrix(1.3333333,0,0,-1.3333333,390.916,607.01573)"
     clip-path="url(#clipPath1684-4)" /><path
     id="path1685"
     d="m 0,0 v 0.139 h -0.102 c -0.935,0 -1.139,-0.106 -1.139,-0.466 0,-0.241 0.11,-0.371 0.498,-0.371 C -0.216,-0.698 0,-0.486 0,0 m -1.621,-0.355 c 0,0.645 0.363,0.833 1.499,0.833 H 0 c -0.008,0.326 -0.086,0.473 -0.568,0.473 -0.285,0 -0.526,-0.102 -0.669,-0.192 L -1.445,1.07 c 0.151,0.102 0.51,0.253 0.914,0.253 0.776,0 0.915,-0.265 0.915,-0.911 v -0.808 c 0,-0.221 0.016,-0.253 0.224,-0.253 V -0.996 C 0.58,-1.004 0.527,-1.004 0.445,-1.004 c -0.249,0 -0.331,0.069 -0.388,0.257 -0.135,-0.192 -0.38,-0.294 -0.865,-0.294 -0.654,0 -0.813,0.302 -0.813,0.686"
     style="fill:#ffffff;fill-opacity:1;fill-rule:nonzero;stroke:none"
     transform="matrix(1.3333333,0,0,-1.3333333,395.40733,608.7088)"
     clip-path="url(#clipPath1686-3)" /><path
     id="path1687"
     d="m 0,0 0.314,0.02 0.041,-0.277 c 0.09,0.163 0.368,0.298 0.768,0.306 v -0.4 C 0.576,-0.355 0.4,-0.637 0.4,-1.053 V -2.25 H 0 Z"
     style="fill:#ffffff;fill-opacity:1;fill-rule:nonzero;stroke:none"
     transform="matrix(1.3333333,0,0,-1.3333333,396.83867,607.04293)"
     clip-path="url(#clipPath1688-7)" /><path
     id="path1689"
     d="m 299.168,386.628 h 0.392 v -2.27 h -0.392 z m -0.004,0.756 h 0.4 v -0.482 h -0.4 z"
     style="fill:#ffffff;fill-opacity:1;fill-rule:nonzero;stroke:none"
     transform="matrix(1.3333333,0,0,-1.3333333,0,1122.52)"
     clip-path="url(#clipPath1690-0)" /><path
     id="path1691"
     d="m 0,0 v 0.139 h -0.102 c -0.935,0 -1.139,-0.106 -1.139,-0.466 0,-0.241 0.11,-0.371 0.498,-0.371 C -0.216,-0.698 0,-0.486 0,0 m -1.621,-0.355 c 0,0.645 0.363,0.833 1.499,0.833 H 0 c -0.008,0.326 -0.086,0.473 -0.568,0.473 -0.285,0 -0.526,-0.102 -0.669,-0.192 L -1.445,1.07 c 0.151,0.102 0.51,0.253 0.914,0.253 0.776,0 0.915,-0.265 0.915,-0.911 v -0.808 c 0,-0.221 0.016,-0.253 0.224,-0.253 V -0.996 C 0.58,-1.004 0.527,-1.004 0.445,-1.004 c -0.249,0 -0.331,0.069 -0.388,0.257 -0.135,-0.192 -0.38,-0.294 -0.865,-0.294 -0.654,0 -0.813,0.302 -0.813,0.686"
     style="fill:#ffffff;fill-opacity:1;fill-rule:nonzero;stroke:none"
     transform="matrix(1.3333333,0,0,-1.3333333,402.21173,608.7088)"
     clip-path="url(#clipPath1692-5)" /><path
     id="path1693"
     d="m 0,0 c 0,0.596 -0.192,0.8 -0.739,0.8 -0.523,0 -0.657,-0.306 -0.657,-0.8 0,-0.502 0.134,-0.825 0.657,-0.825 C -0.204,-0.825 0,-0.6 0,0 m -1.801,0 c 0,0.69 0.221,1.172 0.988,1.172 0.474,0 0.703,-0.09 0.813,-0.274 V 2.021 H 0.4 V -1.131 L 0.094,-1.16 0.049,-0.894 c -0.143,-0.2 -0.388,-0.294 -0.874,-0.294 -0.759,0 -0.976,0.49 -0.976,1.188"
     style="fill:#ffffff;fill-opacity:1;fill-rule:nonzero;stroke:none"
     transform="matrix(1.3333333,0,0,-1.3333333,407.14907,608.5128)"
     clip-path="url(#clipPath1694-9)" /><path
     id="path1695"
     d="M 0,0 H 1.298 C 1.278,0.359 1.245,0.637 0.706,0.637 0.188,0.637 0.033,0.384 0,0 m -0.388,-0.196 c 0,0.653 0.2,1.184 1.107,1.184 0.935,0 0.967,-0.649 0.955,-1.339 h -1.678 c 0.024,-0.413 0.167,-0.686 0.731,-0.686 0.367,0 0.547,0.094 0.722,0.224 L 1.662,-1.09 C 1.421,-1.278 1.155,-1.38 0.727,-1.38 c -0.931,0 -1.115,0.527 -1.115,1.184"
     style="fill:#ffffff;fill-opacity:1;fill-rule:nonzero;stroke:none"
     transform="matrix(1.3333333,0,0,-1.3333333,408.8364,608.2624)"
     clip-path="url(#clipPath1696-2)" /><path
     id="path1697"
     d="M 0,0 -0.474,1.205 -0.947,0 Z m -0.796,1.997 h 0.678 l 1.22,-3.046 H 0.408 L 0.212,-0.551 H -1.16 l -0.196,-0.498 h -0.653 z"
     style="fill:#ffffff;fill-opacity:1;fill-rule:nonzero;stroke:none"
     transform="matrix(1.3333333,0,0,-1.3333333,355.1512,614.63147)"
     clip-path="url(#clipPath1698-1)" /><path
     id="path1699"
     d="m 0,0 0.498,0.037 0.053,-0.2 c 0.102,0.138 0.347,0.253 0.813,0.253 0.506,0 0.6,-0.115 0.673,-0.262 0.119,0.152 0.372,0.262 0.858,0.262 0.698,0 0.808,-0.388 0.808,-0.964 v -1.4 H 3.058 V -1 c 0,0.281 -0.004,0.485 -0.392,0.485 -0.445,0 -0.494,-0.208 -0.494,-0.514 V -2.274 H 1.531 V -1 c 0,0.281 -0.008,0.485 -0.396,0.485 -0.445,0 -0.494,-0.208 -0.494,-0.514 V -2.274 H 0 Z"
     style="fill:#ffffff;fill-opacity:1;fill-rule:nonzero;stroke:none"
     transform="matrix(1.3333333,0,0,-1.3333333,357.0344,612.99813)"
     clip-path="url(#clipPath1700-0)" /><path
     id="path1701"
     d="m 0,0 c 0,0.372 -0.082,0.645 -0.502,0.645 -0.441,0 -0.592,-0.204 -0.592,-0.645 0,-0.441 0.126,-0.633 0.592,-0.633 C -0.09,-0.633 0,-0.368 0,0 m -1.18,-0.935 -0.127,-0.225 -0.428,0.045 v 3.148 h 0.637 V 1.008 c 0.126,0.147 0.371,0.221 0.755,0.221 0.796,0 0.992,-0.539 0.992,-1.205 0,-0.665 -0.212,-1.196 -1.029,-1.196 -0.441,0 -0.678,0.09 -0.8,0.237"
     style="fill:#ffffff;fill-opacity:1;fill-rule:nonzero;stroke:none"
     transform="matrix(1.3333333,0,0,-1.3333333,364.93867,614.51707)"
     clip-path="url(#clipPath1702-5)" /><path
     id="path1703"
     d="m 274.774,382.178 h 0.637 v -2.311 h -0.637 z m -0.004,0.796 h 0.645 v -0.584 h -0.645 z"
     style="fill:#ffffff;fill-opacity:1;fill-rule:nonzero;stroke:none"
     transform="matrix(1.3333333,0,0,-1.3333333,0,1122.52)"
     clip-path="url(#clipPath1704-2)" /><path
     id="path1705"
     d="M 0,0 H 1.025 C 1.009,0.265 0.955,0.457 0.559,0.457 0.163,0.457 0.033,0.282 0,0 m -0.621,-0.212 c 0,0.645 0.213,1.204 1.201,1.204 1.017,0 1.049,-0.678 1.029,-1.449 H 0 c 0.037,-0.278 0.171,-0.441 0.584,-0.441 0.355,0 0.555,0.086 0.727,0.212 L 1.633,-1.102 C 1.335,-1.327 1.041,-1.417 0.584,-1.417 c -1.001,0 -1.205,0.547 -1.205,1.205"
     style="fill:#ffffff;fill-opacity:1;fill-rule:nonzero;stroke:none"
     transform="matrix(1.3333333,0,0,-1.3333333,368.6076,614.20133)"
     clip-path="url(#clipPath1706-0)" /><path
     id="path1707"
     d="m 0,0 0.498,0.037 0.053,-0.2 c 0.123,0.134 0.347,0.253 0.837,0.253 0.699,0 0.829,-0.388 0.829,-0.964 v -1.4 H 1.58 V -1 c 0,0.281 -0.032,0.485 -0.42,0.485 -0.445,0 -0.519,-0.208 -0.519,-0.514 V -2.274 H 0 Z"
     style="fill:#ffffff;fill-opacity:1;fill-rule:nonzero;stroke:none"
     transform="matrix(1.3333333,0,0,-1.3333333,371.29667,612.99813)"
     clip-path="url(#clipPath1708-1)" /><path
     id="path1709"
     d="m 0,0 h 0.408 l 0.11,0.563 0.499,0.103 V 0 H 1.564 V -0.547 H 1.017 v -0.951 c 0,-0.18 0.024,-0.278 0.298,-0.278 H 1.564 V -2.311 C 1.47,-2.319 1.298,-2.319 1.184,-2.319 c -0.625,0 -0.804,0.212 -0.804,0.727 v 1.045 H 0 Z"
     style="fill:#ffffff;fill-opacity:1;fill-rule:nonzero;stroke:none"
     transform="matrix(1.3333333,0,0,-1.3333333,374.70973,612.9492)"
     clip-path="url(#clipPath1710-3)" /><path
     id="path1711"
     d="M 0,0 H 1.025 C 1.009,0.265 0.955,0.457 0.559,0.457 0.163,0.457 0.033,0.282 0,0 m -0.621,-0.212 c 0,0.645 0.213,1.204 1.201,1.204 1.017,0 1.049,-0.678 1.029,-1.449 H 0 c 0.037,-0.278 0.171,-0.441 0.584,-0.441 0.355,0 0.555,0.086 0.727,0.212 L 1.633,-1.102 C 1.335,-1.327 1.041,-1.417 0.584,-1.417 c -1,0 -1.205,0.547 -1.205,1.205"
     style="fill:#ffffff;fill-opacity:1;fill-rule:nonzero;stroke:none"
     transform="matrix(1.3333333,0,0,-1.3333333,378.0576,614.20133)"
     clip-path="url(#clipPath1712-8)" /><path
     id="path1713"
     d="M 0,0 H 1.025 C 1.009,0.265 0.955,0.457 0.559,0.457 0.163,0.457 0.033,0.282 0,0 m -0.621,-0.212 c 0,0.645 0.213,1.204 1.201,1.204 1.016,0 1.049,-0.678 1.029,-1.449 H 0 c 0.037,-0.278 0.171,-0.441 0.584,-0.441 0.355,0 0.555,0.086 0.727,0.212 L 1.633,-1.102 C 1.335,-1.327 1.041,-1.417 0.584,-1.417 c -1.001,0 -1.205,0.547 -1.205,1.205"
     style="fill:#ffffff;fill-opacity:1;fill-rule:nonzero;stroke:none"
     transform="matrix(1.3333333,0,0,-1.3333333,382.59747,614.20133)"
     clip-path="url(#clipPath1714-6)" /><path
     id="path1715"
     d="M 0,0 0.335,0.482 C 0.657,0.265 1.033,0.159 1.421,0.159 c 0.592,0 0.702,0.115 0.702,0.368 0,0.249 -0.253,0.298 -0.718,0.363 -0.809,0.114 -1.229,0.261 -1.229,0.919 0,0.674 0.408,0.914 1.261,0.914 0.617,0 0.992,-0.143 1.225,-0.298 L 2.303,1.907 C 2.111,2.033 1.756,2.139 1.429,2.139 0.955,2.139 0.841,2.046 0.841,1.825 0.841,1.58 1.09,1.535 1.572,1.466 2.299,1.36 2.785,1.241 2.785,0.559 2.785,-0.053 2.45,-0.396 1.441,-0.396 0.841,-0.396 0.343,-0.253 0,0"
     style="fill:#ffffff;fill-opacity:1;fill-rule:nonzero;stroke:none"
     transform="matrix(1.3333333,0,0,-1.3333333,386.2392,615.56227)"
     clip-path="url(#clipPath1716-6)" /><path
     id="path1717"
     d="m 0,0 v 1.233 h 0.641 v -1.245 c 0,-0.323 0.008,-0.547 0.466,-0.547 0.453,0 0.461,0.228 0.461,0.551 V 1.233 H 2.197 V 0.004 C 2.197,-0.788 1.984,-1.115 1.102,-1.115 0.22,-1.115 0,-0.792 0,0"
     style="fill:#ffffff;fill-opacity:1;fill-rule:nonzero;stroke:none"
     transform="matrix(1.3333333,0,0,-1.3333333,390.47427,614.59333)"
     clip-path="url(#clipPath1718-7)" /><path
     id="path1719"
     d="M 0,0 0.327,0.47 C 0.568,0.314 0.882,0.229 1.143,0.229 1.466,0.229 1.56,0.261 1.56,0.421 1.56,0.555 1.466,0.584 1.151,0.625 0.58,0.702 0.143,0.784 0.143,1.388 c 0,0.47 0.278,0.723 1.008,0.723 0.372,0 0.731,-0.074 0.976,-0.212 L 1.821,1.401 C 1.658,1.486 1.405,1.552 1.172,1.552 0.845,1.552 0.78,1.494 0.78,1.384 0.78,1.254 0.862,1.225 1.16,1.184 1.748,1.102 2.184,1.033 2.184,0.457 2.184,-0.074 1.899,-0.29 1.102,-0.29 0.706,-0.29 0.31,-0.208 0,0"
     style="fill:#ffffff;fill-opacity:1;fill-rule:nonzero;stroke:none"
     transform="matrix(1.3333333,0,0,-1.3333333,393.7784,615.69307)"
     clip-path="url(#clipPath1720-4)" /><path
     id="path1721"
     d="M 0,0 H 0.408 L 0.519,0.563 1.017,0.666 V 0 H 1.564 V -0.547 H 1.017 v -0.951 c 0,-0.18 0.024,-0.278 0.298,-0.278 H 1.564 V -2.311 C 1.47,-2.319 1.298,-2.319 1.184,-2.319 c -0.625,0 -0.804,0.212 -0.804,0.727 v 1.045 H 0 Z"
     style="fill:#ffffff;fill-opacity:1;fill-rule:nonzero;stroke:none"
     transform="matrix(1.3333333,0,0,-1.3333333,396.97933,612.9492)"
     clip-path="url(#clipPath1722-8)" /><path
     id="path1723"
     d="M 0,0 H 1.025 C 1.009,0.265 0.955,0.457 0.559,0.457 0.163,0.457 0.033,0.282 0,0 m -0.621,-0.212 c 0,0.645 0.213,1.204 1.201,1.204 1.016,0 1.049,-0.678 1.029,-1.449 H 0 c 0.037,-0.278 0.171,-0.441 0.584,-0.441 0.355,0 0.555,0.086 0.727,0.212 L 1.633,-1.102 C 1.335,-1.327 1.041,-1.417 0.584,-1.417 c -1.001,0 -1.205,0.547 -1.205,1.205"
     style="fill:#ffffff;fill-opacity:1;fill-rule:nonzero;stroke:none"
     transform="matrix(1.3333333,0,0,-1.3333333,400.3272,614.20133)"
     clip-path="url(#clipPath1724-4)" /><path
     id="path1725"
     d="m 0,0 0.498,0.037 0.053,-0.2 c 0.123,0.134 0.347,0.253 0.837,0.253 0.699,0 0.829,-0.388 0.829,-0.964 v -1.4 H 1.58 V -1 c 0,0.281 -0.032,0.485 -0.42,0.485 -0.445,0 -0.519,-0.208 -0.519,-0.514 V -2.274 H 0 Z"
     style="fill:#ffffff;fill-opacity:1;fill-rule:nonzero;stroke:none"
     transform="matrix(1.3333333,0,0,-1.3333333,403.01613,612.99813)"
     clip-path="url(#clipPath1726-8)" /><path
     id="path1727"
     d="M 0,0 H 0.408 L 0.519,0.563 1.017,0.666 V 0 H 1.564 V -0.547 H 1.017 v -0.951 c 0,-0.18 0.024,-0.278 0.298,-0.278 H 1.564 V -2.311 C 1.47,-2.319 1.298,-2.319 1.184,-2.319 c -0.625,0 -0.804,0.212 -0.804,0.727 v 1.045 H 0 Z"
     style="fill:#ffffff;fill-opacity:1;fill-rule:nonzero;stroke:none"
     transform="matrix(1.3333333,0,0,-1.3333333,406.42933,612.9492)"
     clip-path="url(#clipPath1728-5)" /><path
     id="path1729"
     d="m 0,0 v 0.086 h -0.053 c -0.817,0 -0.915,-0.066 -0.915,-0.315 0,-0.171 0.094,-0.253 0.388,-0.253 C -0.176,-0.482 0,-0.339 0,0 m -1.576,-0.282 c 0,0.654 0.457,0.809 1.482,0.809 H 0 c -0.004,0.208 -0.057,0.314 -0.457,0.314 -0.282,0 -0.531,-0.102 -0.67,-0.188 l -0.318,0.47 c 0.163,0.11 0.571,0.282 1.057,0.282 0.833,0 1.005,-0.266 1.005,-0.919 v -0.702 c 0,-0.184 0.012,-0.213 0.2,-0.213 V -0.951 C 0.772,-0.964 0.69,-0.968 0.547,-0.968 c -0.245,0 -0.351,0.049 -0.441,0.229 -0.118,-0.159 -0.376,-0.257 -0.812,-0.257 -0.715,0 -0.87,0.31 -0.87,0.714"
     style="fill:#ffffff;fill-opacity:1;fill-rule:nonzero;stroke:none"
     transform="matrix(1.3333333,0,0,-1.3333333,410.99667,614.7512)"
     clip-path="url(#clipPath1730-4)" /><path
     id="path1731"
     d="m 0,0 c 0,0.372 -0.082,0.645 -0.502,0.645 -0.441,0 -0.592,-0.204 -0.592,-0.645 0,-0.441 0.126,-0.633 0.592,-0.633 C -0.09,-0.633 0,-0.368 0,0 m -1.18,-0.935 -0.127,-0.225 -0.428,0.045 v 3.148 h 0.637 V 1.008 c 0.126,0.147 0.371,0.221 0.755,0.221 0.796,0 0.992,-0.539 0.992,-1.205 0,-0.665 -0.212,-1.196 -1.029,-1.196 -0.441,0 -0.678,0.09 -0.8,0.237"
     style="fill:#ffffff;fill-opacity:1;fill-rule:nonzero;stroke:none"
     transform="matrix(1.3333333,0,0,-1.3333333,414.92147,614.51707)"
     clip-path="url(#clipPath1732-6)" /><path
     id="path1733"
     d="m 312.261,382.178 h 0.637 v -2.311 h -0.637 z m -0.004,0.796 h 0.645 v -0.584 h -0.645 z"
     style="fill:#ffffff;fill-opacity:1;fill-rule:nonzero;stroke:none"
     transform="matrix(1.3333333,0,0,-1.3333333,0,1122.52)"
     clip-path="url(#clipPath1734-7)" /><path
     id="path1735"
     d="M 0,0 V 2.47 H 0.637 V 0.078 c 0,-0.188 0.037,-0.241 0.229,-0.241 H 0.943 V -0.69 C 0.89,-0.698 0.764,-0.706 0.633,-0.706 0.216,-0.706 0,-0.547 0,0"
     style="fill:#ffffff;fill-opacity:1;fill-rule:nonzero;stroke:none"
     transform="matrix(1.3333333,0,0,-1.3333333,417.94253,615.0996)"
     clip-path="url(#clipPath1736-0)" /><path
     id="path1737"
     d="m 314.849,382.178 h 0.637 v -2.311 h -0.637 z m -0.004,0.796 h 0.645 v -0.584 h -0.645 z"
     style="fill:#ffffff;fill-opacity:1;fill-rule:nonzero;stroke:none"
     transform="matrix(1.3333333,0,0,-1.3333333,0,1122.52)"
     clip-path="url(#clipPath1738-5)" /><path
     id="path1739"
     d="m 0,0 c 0,0.437 -0.122,0.621 -0.588,0.621 -0.42,0 -0.506,-0.254 -0.506,-0.621 0,-0.372 0.086,-0.662 0.506,-0.662 C -0.147,-0.662 0,-0.445 0,0 m -1.743,0 c 0,0.661 0.216,1.196 1.024,1.196 0.421,0 0.621,-0.094 0.719,-0.216 v 1.021 h 0.641 v -3.144 l -0.49,-0.045 -0.065,0.233 c -0.139,-0.164 -0.38,-0.258 -0.825,-0.258 -0.796,0 -1.004,0.547 -1.004,1.213"
     style="fill:#ffffff;fill-opacity:1;fill-rule:nonzero;stroke:none"
     transform="matrix(1.3333333,0,0,-1.3333333,423.53867,614.47347)"
     clip-path="url(#clipPath1740-9)" /><path
     id="path1741"
     d="m 0,0 v 0.086 h -0.053 c -0.817,0 -0.915,-0.066 -0.915,-0.315 0,-0.171 0.094,-0.253 0.388,-0.253 C -0.176,-0.482 0,-0.339 0,0 m -1.576,-0.282 c 0,0.654 0.457,0.809 1.482,0.809 H 0 c -0.004,0.208 -0.057,0.314 -0.457,0.314 -0.282,0 -0.531,-0.102 -0.67,-0.188 l -0.318,0.47 c 0.163,0.11 0.571,0.282 1.057,0.282 0.833,0 1.005,-0.266 1.005,-0.919 v -0.702 c 0,-0.184 0.012,-0.213 0.2,-0.213 V -0.951 C 0.772,-0.964 0.69,-0.968 0.547,-0.968 c -0.245,0 -0.351,0.049 -0.441,0.229 -0.118,-0.159 -0.376,-0.257 -0.812,-0.257 -0.715,0 -0.87,0.31 -0.87,0.714"
     style="fill:#ffffff;fill-opacity:1;fill-rule:nonzero;stroke:none"
     transform="matrix(1.3333333,0,0,-1.3333333,426.96813,614.7512)"
     clip-path="url(#clipPath1742-0)" /><path
     id="path1743"
     d="m 0,0 c 0,0.437 -0.122,0.621 -0.588,0.621 -0.42,0 -0.506,-0.254 -0.506,-0.621 0,-0.372 0.086,-0.662 0.506,-0.662 C -0.147,-0.662 0,-0.445 0,0 m -1.743,0 c 0,0.661 0.216,1.196 1.024,1.196 0.421,0 0.621,-0.094 0.719,-0.216 v 1.021 h 0.641 v -3.144 l -0.49,-0.045 -0.065,0.233 c -0.139,-0.164 -0.38,-0.258 -0.825,-0.258 -0.796,0 -1.004,0.547 -1.004,1.213"
     style="fill:#ffffff;fill-opacity:1;fill-rule:nonzero;stroke:none"
     transform="matrix(1.3333333,0,0,-1.3333333,430.7568,614.47347)"
     clip-path="url(#clipPath1744-3)" /><path
     id="path1745"
     d="M 0,0 H 1.025 C 1.009,0.265 0.955,0.457 0.559,0.457 0.163,0.457 0.033,0.282 0,0 m -0.621,-0.212 c 0,0.645 0.213,1.204 1.201,1.204 1.017,0 1.049,-0.678 1.029,-1.449 H 0 c 0.037,-0.278 0.171,-0.441 0.584,-0.441 0.355,0 0.555,0.086 0.727,0.212 L 1.633,-1.102 C 1.335,-1.327 1.041,-1.417 0.584,-1.417 c -1,0 -1.205,0.547 -1.205,1.205"
     style="fill:#ffffff;fill-opacity:1;fill-rule:nonzero;stroke:none"
     transform="matrix(1.3333333,0,0,-1.3333333,432.9668,614.20133)"
     clip-path="url(#clipPath1746-5)" /><path
     id="path1747"
     d="m 0,0 v -2.181 c 0,-0.07 -0.024,-0.132 -0.072,-0.185 -0.047,-0.053 -0.106,-0.079 -0.174,-0.079 H -2.01 c -0.063,0 -0.119,0.026 -0.166,0.079 -0.048,0.053 -0.072,0.115 -0.072,0.185 v 6.392 c 0,0.071 0.024,0.133 0.072,0.186 0.047,0.053 0.103,0.079 0.166,0.079 H 1.978 C 2.661,4.476 3.209,4.309 3.622,3.973 4.067,3.608 4.289,3.129 4.289,2.534 4.289,1.863 4.107,1.378 3.741,1.077 3.651,1.001 3.547,0.929 3.427,0.861 3.308,0.793 3.177,0.733 3.034,0.68 3.204,0.58 3.348,0.471 3.467,0.353 3.586,0.236 3.686,0.118 3.765,0 L 4.853,-2.039 C 4.906,-2.139 4.91,-2.232 4.865,-2.317 4.82,-2.403 4.747,-2.445 4.647,-2.445 H 2.629 c -0.042,0 -0.083,0.014 -0.123,0.044 -0.04,0.029 -0.07,0.064 -0.091,0.106 L 1.398,-0.194 1.406,-0.212 C 1.385,-0.182 1.362,-0.153 1.338,-0.124 1.315,-0.094 1.289,-0.07 1.263,-0.053 1.22,-0.018 1.056,0 0.77,0 Z m -0.048,2.896 v 0 -1.316 h 0.954 c 0.386,0 0.68,0.051 0.881,0.151 0.201,0.1 0.302,0.279 0.302,0.538 0,0.218 -0.077,0.377 -0.23,0.477 -0.154,0.1 -0.376,0.15 -0.668,0.15 z"
     style="fill:#ffffff;fill-opacity:1;fill-rule:nonzero;stroke:none"
     transform="matrix(1.3333333,0,0,-1.3333333,345.36493,680.02627)"
     clip-path="url(#clipPath1748-0)" /><path
     id="path1749"
     d="m 0,0 c -0.058,0 -0.107,0.026 -0.147,0.079 -0.04,0.054 -0.059,0.115 -0.059,0.186 v 6.392 c 0,0.071 0.019,0.133 0.059,0.185 0.04,0.053 0.089,0.08 0.147,0.08 h 1.478 c 0.058,0 0.107,-0.027 0.147,-0.08 C 1.664,6.79 1.684,6.728 1.684,6.657 V 0.265 C 1.684,0.194 1.664,0.133 1.625,0.079 1.585,0.026 1.536,0 1.478,0 Z"
     style="fill:#ffffff;fill-opacity:1;fill-rule:nonzero;stroke:none"
     transform="matrix(1.3333333,0,0,-1.3333333,352.62987,683.28693)"
     clip-path="url(#clipPath1750-7)" /><path
     id="path1751"
     d="m 0,0 c -0.63,-0.588 -1.559,-0.883 -2.788,-0.883 -1.228,0 -2.158,0.295 -2.788,0.883 -0.63,0.588 -0.945,1.486 -0.945,2.693 0,1.206 0.315,2.106 0.945,2.697 0.63,0.592 1.56,0.887 2.788,0.887 C -1.559,6.277 -0.63,5.982 0,5.39 0.63,4.799 0.945,3.899 0.945,2.693 0.945,1.486 0.63,0.588 0,0 m -1.648,3.836 v 0 C -1.91,4.092 -2.29,4.22 -2.788,4.22 -3.286,4.22 -3.664,4.092 -3.924,3.836 -4.183,3.58 -4.313,3.199 -4.313,2.693 c 0,-0.507 0.13,-0.888 0.389,-1.143 0.26,-0.256 0.638,-0.385 1.136,-0.385 0.498,0 0.878,0.129 1.14,0.385 0.262,0.255 0.393,0.636 0.393,1.143 0,0.506 -0.131,0.887 -0.393,1.143"
     style="fill:#ffffff;fill-opacity:1;fill-rule:nonzero;stroke:none"
     transform="matrix(1.3333333,0,0,-1.3333333,364.0364,682.25107)"
     clip-path="url(#clipPath1752-4)" /><path
     id="path1753"
     d="M 0,0 C 0.948,0 1.718,-0.321 2.311,-0.962 2.899,-1.598 3.193,-2.431 3.193,-3.461 3.193,-4.467 2.896,-5.297 2.303,-5.95 1.716,-6.598 0.958,-6.922 0.031,-6.922 h -3.494 c -0.069,0 -0.127,0.027 -0.175,0.08 -0.048,0.053 -0.072,0.114 -0.072,0.185 v 6.392 c 0,0.071 0.024,0.133 0.072,0.185 C -3.59,-0.027 -3.532,0 -3.463,0 Z m 0.754,-2.446 v 0 c -0.185,0.23 -0.458,0.345 -0.818,0.345 h -1.398 v -2.72 h 1.335 c 0.381,0 0.67,0.114 0.865,0.341 0.197,0.226 0.295,0.563 0.295,1.01 0,0.453 -0.093,0.795 -0.279,1.024"
     style="fill:#ffffff;fill-opacity:1;fill-rule:nonzero;stroke:none"
     transform="matrix(1.3333333,0,0,-1.3333333,373.526,674.05787)"
     clip-path="url(#clipPath1754-7)" /><path
     id="path1755"
     d="m 0,0 c -0.063,0 -0.119,0.026 -0.167,0.079 -0.048,0.054 -0.071,0.115 -0.071,0.186 v 6.392 c 0,0.071 0.023,0.133 0.071,0.185 0.048,0.053 0.104,0.08 0.167,0.08 H 4.631 C 4.695,6.922 4.75,6.895 4.798,6.842 4.845,6.79 4.869,6.728 4.869,6.657 V 5.368 C 4.869,5.292 4.845,5.227 4.798,5.174 4.75,5.121 4.695,5.094 4.631,5.094 H 1.962 V 4.388 h 2.28 C 4.305,4.388 4.361,4.361 4.409,4.309 4.456,4.255 4.48,4.194 4.48,4.123 V 2.852 C 4.48,2.775 4.456,2.71 4.409,2.658 4.361,2.604 4.305,2.578 4.242,2.578 L 1.962,2.569 V 1.827 H 4.845 C 4.914,1.827 4.971,1.801 5.016,1.748 5.061,1.695 5.084,1.63 5.084,1.554 V 0.265 C 5.084,0.194 5.061,0.133 5.016,0.079 4.971,0.026 4.914,0 4.845,0 Z"
     style="fill:#ffffff;fill-opacity:1;fill-rule:nonzero;stroke:none"
     transform="matrix(1.3333333,0,0,-1.3333333,378.5668,683.28693)"
     clip-path="url(#clipPath1756-7)" /><path
     id="path1757"
     d="M 0,0 C 0.064,0 0.117,-0.027 0.163,-0.08 0.208,-0.133 0.23,-0.198 0.23,-0.274 v -4.538 c 0,-0.718 -0.222,-1.309 -0.667,-1.774 -0.434,-0.448 -0.998,-0.672 -1.691,-0.672 -0.371,0 -0.755,0.071 -1.152,0.212 -0.196,0.071 -0.354,0.13 -0.473,0.177 -0.119,0.047 -0.205,0.088 -0.258,0.124 -0.027,0.017 -0.052,0.048 -0.075,0.092 -0.025,0.045 -0.039,0.081 -0.044,0.111 l -0.231,2.013 c -0.01,0.07 -0.002,0.131 0.024,0.181 0.027,0.05 0.062,0.086 0.107,0.11 0.045,0.023 0.093,0.031 0.144,0.022 0.05,-0.009 0.096,-0.04 0.139,-0.093 0.084,-0.111 0.254,-0.247 0.508,-0.406 0.233,-0.147 0.484,-0.221 0.754,-0.221 0.498,0 0.747,0.253 0.747,0.76 v 3.902 c 0,0.076 0.024,0.141 0.072,0.194 C -1.819,-0.027 -1.763,0 -1.7,0 Z"
     style="fill:#ffffff;fill-opacity:1;fill-rule:nonzero;stroke:none"
     transform="matrix(1.3333333,0,0,-1.3333333,394.45267,673.96333)"
     clip-path="url(#clipPath1758-1)" /><path
     id="path1759"
     d="M 0,0 C -0.037,0 -0.078,0.015 -0.123,0.044 -0.168,0.073 -0.199,0.109 -0.215,0.15 L -0.619,1.015 H -3.598 L -4.003,0.15 C -4.025,0.109 -4.057,0.073 -4.099,0.044 -4.141,0.015 -4.184,0 -4.226,0 H -5.87 c -0.106,0 -0.183,0.041 -0.231,0.124 -0.047,0.082 -0.045,0.173 0.009,0.274 l 3.264,6.382 c 0.016,0.036 0.048,0.068 0.095,0.098 0.048,0.029 0.088,0.044 0.119,0.044 h 1.406 c 0.038,0 0.078,-0.015 0.12,-0.044 0.042,-0.03 0.073,-0.065 0.095,-0.106 L 2.081,0.388 C 2.123,0.289 2.123,0.199 2.081,0.119 2.038,0.04 1.965,0 1.858,0 Z m -2.82,2.569 v 0 h 1.478 l -0.715,1.537 z"
     style="fill:#ffffff;fill-opacity:1;fill-rule:nonzero;stroke:none"
     transform="matrix(1.3333333,0,0,-1.3333333,402.55493,683.28693)"
     clip-path="url(#clipPath1760-1)" /><path
     id="path1761"
     d="m 0,0 c 0.148,-0.227 0.299,-0.458 0.453,-0.693 v 3.249 c 0,0.071 0.023,0.132 0.071,0.185 0.048,0.053 0.106,0.08 0.175,0.08 h 1.549 c 0.068,0 0.127,-0.027 0.174,-0.08 C 2.47,2.688 2.494,2.627 2.494,2.556 V -3.836 C 2.494,-3.907 2.47,-3.969 2.422,-4.022 2.375,-4.075 2.316,-4.101 2.248,-4.101 H 0.469 c -0.027,0 -0.062,0.01 -0.104,0.031 -0.042,0.021 -0.074,0.045 -0.095,0.075 l -2.24,3.355 v -3.196 c 0,-0.071 -0.024,-0.133 -0.072,-0.186 -0.048,-0.053 -0.106,-0.079 -0.174,-0.079 h -1.549 c -0.064,0 -0.119,0.026 -0.167,0.079 -0.048,0.053 -0.071,0.115 -0.071,0.186 v 6.392 c 0,0.071 0.023,0.132 0.071,0.185 0.048,0.053 0.103,0.08 0.167,0.08 h 1.763 c 0.032,0 0.07,-0.012 0.116,-0.036 0.044,-0.023 0.072,-0.05 0.083,-0.079 C -1.57,2.353 -1.344,2.01 -1.124,1.678 -0.904,1.345 -0.681,1.011 -0.453,0.675 -0.299,0.452 -0.148,0.226 0,0"
     style="fill:#ffffff;fill-opacity:1;fill-rule:nonzero;stroke:none"
     transform="matrix(1.3333333,0,0,-1.3333333,410.8792,677.8188)"
     clip-path="url(#clipPath1762-3)" /><path
     id="path1763"
     d="m 0,0 c -0.063,0 -0.119,0.026 -0.167,0.079 -0.048,0.054 -0.071,0.115 -0.071,0.186 v 6.392 c 0,0.071 0.023,0.133 0.071,0.185 0.048,0.053 0.104,0.08 0.167,0.08 H 4.631 C 4.695,6.922 4.75,6.895 4.798,6.842 4.845,6.79 4.869,6.728 4.869,6.657 V 5.368 C 4.869,5.292 4.845,5.227 4.798,5.174 4.75,5.121 4.695,5.094 4.631,5.094 H 1.962 V 4.388 h 2.28 C 4.305,4.388 4.361,4.361 4.409,4.309 4.456,4.255 4.48,4.194 4.48,4.123 V 2.852 C 4.48,2.775 4.456,2.71 4.409,2.658 4.361,2.604 4.305,2.578 4.242,2.578 L 1.962,2.569 V 1.827 H 4.845 C 4.914,1.827 4.971,1.801 5.016,1.748 5.061,1.695 5.084,1.63 5.084,1.554 V 0.265 C 5.084,0.194 5.061,0.133 5.016,0.079 4.971,0.026 4.914,0 4.845,0 Z"
     style="fill:#ffffff;fill-opacity:1;fill-rule:nonzero;stroke:none"
     transform="matrix(1.3333333,0,0,-1.3333333,415.17867,683.28693)"
     clip-path="url(#clipPath1764-7)" /><path
     id="path1765"
     d="m 0,0 c -0.058,0 -0.108,0.026 -0.147,0.079 -0.04,0.054 -0.06,0.115 -0.06,0.186 v 6.392 c 0,0.071 0.02,0.133 0.06,0.185 0.039,0.053 0.089,0.08 0.147,0.08 h 1.477 c 0.058,0 0.107,-0.027 0.147,-0.08 0.04,-0.052 0.06,-0.114 0.06,-0.185 V 0.265 C 1.684,0.194 1.664,0.133 1.624,0.079 1.584,0.026 1.535,0 1.477,0 Z"
     style="fill:#ffffff;fill-opacity:1;fill-rule:nonzero;stroke:none"
     transform="matrix(1.3333333,0,0,-1.3333333,422.69827,683.28693)"
     clip-path="url(#clipPath1766-4)" /><path
     id="path1767"
     d="m 0,0 v -2.181 c 0,-0.07 -0.024,-0.132 -0.072,-0.185 -0.047,-0.053 -0.106,-0.079 -0.175,-0.079 H -2.01 c -0.063,0 -0.119,0.026 -0.167,0.079 -0.048,0.053 -0.071,0.115 -0.071,0.185 v 6.392 c 0,0.071 0.023,0.133 0.071,0.186 0.048,0.053 0.104,0.079 0.167,0.079 h 3.988 c 0.683,0 1.23,-0.167 1.644,-0.503 C 4.066,3.608 4.289,3.129 4.289,2.534 4.289,1.863 4.106,1.378 3.741,1.077 3.651,1.001 3.547,0.929 3.427,0.861 3.308,0.793 3.177,0.733 3.034,0.68 3.203,0.58 3.347,0.471 3.467,0.353 3.586,0.236 3.685,0.118 3.765,0 L 4.853,-2.039 C 4.906,-2.139 4.91,-2.232 4.865,-2.317 4.82,-2.403 4.747,-2.445 4.646,-2.445 H 2.629 c -0.043,0 -0.084,0.014 -0.123,0.044 -0.04,0.029 -0.07,0.064 -0.091,0.106 L 1.398,-0.194 1.406,-0.212 C 1.385,-0.182 1.362,-0.153 1.338,-0.124 1.315,-0.094 1.289,-0.07 1.263,-0.053 1.22,-0.018 1.056,0 0.77,0 Z m -0.048,2.896 v 0 -1.316 h 0.953 c 0.387,0 0.681,0.051 0.882,0.151 0.201,0.1 0.302,0.279 0.302,0.538 0,0.218 -0.077,0.377 -0.231,0.477 -0.153,0.1 -0.376,0.15 -0.667,0.15 z"
     style="fill:#ffffff;fill-opacity:1;fill-rule:nonzero;stroke:none"
     transform="matrix(1.3333333,0,0,-1.3333333,428.4072,680.02627)"
     clip-path="url(#clipPath1768-6)" /><path
     id="path1769"
     d="m 0,0 c -0.63,-0.588 -1.559,-0.883 -2.788,-0.883 -1.228,0 -2.158,0.295 -2.788,0.883 -0.63,0.588 -0.945,1.486 -0.945,2.693 0,1.206 0.315,2.106 0.945,2.697 0.63,0.592 1.56,0.887 2.788,0.887 C -1.559,6.277 -0.63,5.982 0,5.39 0.63,4.799 0.945,3.899 0.945,2.693 0.945,1.486 0.63,0.588 0,0 m -1.649,3.836 v 0 C -1.911,4.092 -2.29,4.22 -2.788,4.22 -3.286,4.22 -3.664,4.092 -3.924,3.836 -4.183,3.58 -4.313,3.199 -4.313,2.693 c 0,-0.507 0.13,-0.888 0.389,-1.143 0.26,-0.256 0.638,-0.385 1.136,-0.385 0.498,0 0.877,0.129 1.139,0.385 0.263,0.255 0.394,0.636 0.394,1.143 0,0.506 -0.131,0.887 -0.394,1.143"
     style="fill:#ffffff;fill-opacity:1;fill-rule:nonzero;stroke:none"
     transform="matrix(1.3333333,0,0,-1.3333333,442.9584,682.25107)"
     clip-path="url(#clipPath1770-2)" /><path
     id="path1771"
     d="m 0,0 c 0,1.249 0.586,1.78 1.634,1.78 0.629,0 1.01,-0.205 1.258,-0.49 L 2.422,0.764 C 2.263,0.932 2.058,1.081 1.63,1.081 c -0.679,0 -0.943,-0.373 -0.943,-1.09 0,-0.755 0.185,-1.128 0.935,-1.128 0.603,0 0.78,0.224 0.78,0.708 v 0.075 H 1.534 V 0.28 H 3.08 V -0.284 C 3.08,-1.267 2.728,-1.78 1.588,-1.78 0.348,-1.78 0,-1.146 0,0"
     style="fill:#ffffff;fill-opacity:1;fill-rule:nonzero;stroke:none"
     transform="matrix(1.3333333,0,0,-1.3333333,342.34933,669.11587)"
     clip-path="url(#clipPath1772-0)" /><path
     id="path1773"
     d="M 0,0 C 0,1.295 0.654,1.78 1.643,1.78 2.632,1.78 3.29,1.295 3.29,0 3.29,-1.3 2.632,-1.784 1.643,-1.784 0.654,-1.784 0,-1.3 0,0 m 2.594,-0.014 v 0 c 0,0.675 -0.239,1.095 -0.951,1.095 -0.712,0 -0.951,-0.42 -0.951,-1.095 0,-0.676 0.239,-1.099 0.951,-1.099 0.712,0 0.951,0.423 0.951,1.099"
     style="fill:#ffffff;fill-opacity:1;fill-rule:nonzero;stroke:none"
     transform="matrix(1.3333333,0,0,-1.3333333,348.9756,669.11587)"
     clip-path="url(#clipPath1774-7)" /><path
     id="path1775"
     d="M 0,0 H 0.721 L 1.588,-2.525 2.452,0 H 3.16 L 1.924,-3.475 H 1.228 Z"
     style="fill:#ffffff;fill-opacity:1;fill-rule:nonzero;stroke:none"
     transform="matrix(1.3333333,0,0,-1.3333333,355.65827,666.81747)"
     clip-path="url(#clipPath1776-8)" /><path
     id="path1777"
     d="M 0,0 H 2.334 V -0.69 H 0.687 V -1.36 H 2.293 V -2.026 H 0.687 V -2.791 H 2.351 V -3.452 H 0 Z"
     style="fill:#ffffff;fill-opacity:1;fill-rule:nonzero;stroke:none"
     transform="matrix(1.3333333,0,0,-1.3333333,362.55307,666.81747)"
     clip-path="url(#clipPath1778-9)" /><path
     id="path1779"
     d="m 0,0 h -0.696 v -1.146 h -0.67 v 3.452 h 1.5 c 0.977,0 1.212,-0.466 1.212,-1.128 0,-0.475 -0.139,-0.912 -0.654,-1.094 l 0.616,-1.23 H 0.575 Z m 0.113,0.657 v 0 c 0.374,0 0.541,0.102 0.541,0.493 0,0.401 -0.159,0.504 -0.549,0.504 H -0.696 V 0.657 Z"
     style="fill:#ffffff;fill-opacity:1;fill-rule:nonzero;stroke:none"
     transform="matrix(1.3333333,0,0,-1.3333333,370.40333,669.892)"
     clip-path="url(#clipPath1780-1)" /><path
     id="path1781"
     d="M 0,0 H 0.742 L 2.171,-2.176 V 0 H 2.825 V -3.452 H 2.196 L 0.658,-1.123 V -3.452 H 0 Z"
     style="fill:#ffffff;fill-opacity:1;fill-rule:nonzero;stroke:none"
     transform="matrix(1.3333333,0,0,-1.3333333,375.0856,666.81747)"
     clip-path="url(#clipPath1782-4)" /><path
     id="path1783"
     d="M 0,0 C 0,1.295 0.654,1.78 1.643,1.78 2.632,1.78 3.29,1.295 3.29,0 3.29,-1.3 2.632,-1.784 1.643,-1.784 0.654,-1.784 0,-1.3 0,0 m 2.594,-0.014 v 0 c 0,0.675 -0.239,1.095 -0.951,1.095 -0.712,0 -0.952,-0.42 -0.952,-1.095 0,-0.676 0.24,-1.099 0.952,-1.099 0.712,0 0.951,0.423 0.951,1.099"
     style="fill:#ffffff;fill-opacity:1;fill-rule:nonzero;stroke:none"
     transform="matrix(1.3333333,0,0,-1.3333333,381.65093,669.11587)"
     clip-path="url(#clipPath1784-1)" /><path
     id="path1785"
     d="m 0,0 h 1.114 c 1.224,0 1.732,-0.354 1.732,-1.724 0,-1.346 -0.524,-1.728 -1.748,-1.728 H 0 Z m 1.136,-2.786 v 0 c 0.846,0 1.018,0.284 1.018,1.062 0,0.778 -0.143,1.039 -1.031,1.039 H 0.687 v -2.101 z"
     style="fill:#ffffff;fill-opacity:1;fill-rule:nonzero;stroke:none"
     transform="matrix(1.3333333,0,0,-1.3333333,392.2224,666.81747)"
     clip-path="url(#clipPath1786-7)" /><path
     id="path1787"
     d="M 0,0 C 0,1.295 0.654,1.78 1.643,1.78 2.632,1.78 3.29,1.295 3.29,0 3.29,-1.3 2.632,-1.784 1.643,-1.784 0.654,-1.784 0,-1.3 0,0 m 2.595,-0.014 v 0 c 0,0.675 -0.239,1.095 -0.952,1.095 -0.712,0 -0.951,-0.42 -0.951,-1.095 0,-0.676 0.239,-1.099 0.951,-1.099 0.713,0 0.952,0.423 0.952,1.099"
     style="fill:#ffffff;fill-opacity:1;fill-rule:nonzero;stroke:none"
     transform="matrix(1.3333333,0,0,-1.3333333,398.57987,669.11587)"
     clip-path="url(#clipPath1788-2)" /><path
     id="path1789"
     d="M 0,0 H 2.334 V -0.69 H 0.687 V -1.36 H 2.292 V -2.026 H 0.687 V -2.791 H 2.351 V -3.452 H 0 Z"
     style="fill:#ffffff;fill-opacity:1;fill-rule:nonzero;stroke:none"
     transform="matrix(1.3333333,0,0,-1.3333333,409.1516,666.81747)"
     clip-path="url(#clipPath1790-5)" /><path
     id="path1791"
     d="M 0,0 0.343,0.549 C 0.674,0.303 1.06,0.181 1.458,0.181 c 0.608,0 0.721,0.131 0.721,0.42 0,0.284 -0.26,0.34 -0.737,0.414 -0.83,0.131 -1.262,0.299 -1.262,1.049 0,0.768 0.419,1.043 1.295,1.043 0.633,0 1.019,-0.163 1.257,-0.34 L 2.364,2.176 C 2.167,2.32 1.802,2.441 1.467,2.441 0.98,2.441 0.863,2.334 0.863,2.082 c 0,-0.28 0.256,-0.33 0.75,-0.41 0.746,-0.121 1.245,-0.256 1.245,-1.034 0,-0.699 -0.344,-1.09 -1.379,-1.09 C 0.863,-0.452 0.351,-0.289 0,0"
     style="fill:#ffffff;fill-opacity:1;fill-rule:nonzero;stroke:none"
     transform="matrix(1.3333333,0,0,-1.3333333,414.82333,670.88587)"
     clip-path="url(#clipPath1792-4)" /><path
     id="path1793"
     d="M 0,0 H -1.077 V 0.689 H 1.765 V 0 H 0.692 V -2.762 H 0 Z"
     style="fill:#ffffff;fill-opacity:1;fill-rule:nonzero;stroke:none"
     transform="matrix(1.3333333,0,0,-1.3333333,422.36587,667.73693)"
     clip-path="url(#clipPath1794-5)" /><path
     id="path1795"
     d="M 0,0 H 0.696 L 1.949,-3.475 H 1.236 l -0.201,0.568 h -1.408 l -0.202,-0.568 h -0.67 z m 0.817,-2.278 v 0 l -0.486,1.374 -0.486,-1.374 z"
     style="fill:#ffffff;fill-opacity:1;fill-rule:nonzero;stroke:none"
     transform="matrix(1.3333333,0,0,-1.3333333,428.15507,666.78667)"
     clip-path="url(#clipPath1796-1)" /><path
     id="path1797"
     d="m 0,0 h 1.115 c 1.224,0 1.731,-0.354 1.731,-1.724 0,-1.346 -0.525,-1.728 -1.748,-1.728 H 0 Z m 1.136,-2.786 v 0 c 0.846,0 1.018,0.284 1.018,1.062 0,0.778 -0.142,1.039 -1.031,1.039 H 0.687 v -2.101 z"
     style="fill:#ffffff;fill-opacity:1;fill-rule:nonzero;stroke:none"
     transform="matrix(1.3333333,0,0,-1.3333333,433.43507,666.81747)"
     clip-path="url(#clipPath1798-1)" /><path
     id="path1799"
     d="M 0,0 C 0,1.295 0.653,1.78 1.643,1.78 2.632,1.78 3.29,1.295 3.29,0 3.29,-1.3 2.632,-1.784 1.643,-1.784 0.653,-1.784 0,-1.3 0,0 m 2.594,-0.014 v 0 c 0,0.675 -0.239,1.095 -0.951,1.095 -0.713,0 -0.952,-0.42 -0.952,-1.095 0,-0.676 0.239,-1.099 0.952,-1.099 0.712,0 0.951,0.423 0.951,1.099"
     style="fill:#ffffff;fill-opacity:1;fill-rule:nonzero;stroke:none"
     transform="matrix(1.3333333,0,0,-1.3333333,439.79347,669.11587)"
     clip-path="url(#clipPath1800-6)" /><path
     id="path1801"
     d="M 0,0 C 0.1,0.092 0.241,0.107 0.356,0.052 0.12,0.26 -0.046,0.561 -0.09,0.912 -0.14,1.308 -0.025,1.683 0.199,1.958 0.481,1.75 0.685,1.421 0.738,1.031 0.765,1.073 0.793,1.114 0.825,1.155 1.022,1.411 1.287,1.58 1.568,1.653 1.508,1.749 1.502,1.874 1.562,1.979 1.615,2.073 1.709,2.129 1.809,2.137 1.794,2.17 1.785,2.207 1.78,2.242 1.689,2.201 1.581,2.202 1.486,2.256 1.333,2.343 1.281,2.537 1.367,2.691 1.455,2.844 1.651,2.897 1.804,2.809 1.897,2.756 1.954,2.663 1.963,2.563 1.995,2.579 2.029,2.588 2.064,2.591 2.023,2.682 2.025,2.788 2.078,2.882 2.142,2.992 2.263,3.053 2.385,3.04 2.111,3.177 1.875,3.416 1.737,3.731 1.579,4.098 1.585,4.491 1.723,4.815 2.053,4.696 2.34,4.438 2.5,4.078 2.514,4.125 2.53,4.172 2.549,4.219 2.672,4.534 2.894,4.777 3.157,4.925 3.055,5 3.003,5.133 3.038,5.263 3.066,5.369 3.143,5.447 3.235,5.481 3.213,5.51 3.195,5.542 3.182,5.576 3.105,5.512 2.999,5.483 2.895,5.512 2.724,5.557 2.622,5.731 2.667,5.901 2.713,6.073 2.889,6.175 3.058,6.13 3.163,6.101 3.24,6.026 3.276,5.932 3.303,5.953 3.333,5.973 3.365,5.985 3.303,6.062 3.278,6.165 3.304,6.269 3.34,6.405 3.461,6.498 3.596,6.506 3.286,6.568 2.99,6.746 2.774,7.028 2.533,7.345 2.443,7.728 2.501,8.076 2.848,8.04 3.19,7.857 3.431,7.545 3.433,7.594 3.437,7.644 3.444,7.694 3.488,8.022 3.638,8.308 3.852,8.512 3.748,8.567 3.68,8.676 3.682,8.802 3.684,8.91 3.74,9.005 3.823,9.059 3.794,9.081 3.768,9.108 3.748,9.138 3.689,9.058 3.591,9.006 3.485,9.009 3.308,9.012 3.168,9.159 3.173,9.335 3.176,9.511 3.322,9.651 3.499,9.648 3.606,9.645 3.7,9.59 3.756,9.507 3.777,9.535 3.801,9.56 3.832,9.58 3.753,9.64 3.703,9.734 3.704,9.841 3.709,9.979 3.797,10.093 3.921,10.135 3.61,10.13 3.289,10.239 3.02,10.46 c -0.307,0.256 -0.478,0.608 -0.501,0.962 0.346,0.042 0.721,-0.06 1.026,-0.31 -0.01,0.049 -0.016,0.099 -0.021,0.149 -0.029,0.322 0.049,0.626 0.202,0.873 C 3.615,12.165 3.524,12.257 3.5,12.38 3.479,12.487 3.514,12.59 3.583,12.662 3.551,12.676 3.521,12.696 3.495,12.722 3.453,12.631 3.368,12.56 3.264,12.54 3.09,12.507 2.924,12.62 2.889,12.792 c -0.033,0.174 0.08,0.342 0.254,0.375 0.105,0.021 0.208,-0.014 0.281,-0.083 0.013,0.032 0.034,0.061 0.057,0.088 -0.089,0.04 -0.158,0.124 -0.178,0.227 -0.022,0.121 0.023,0.237 0.113,0.31 -0.295,-0.067 -0.623,-0.03 -0.924,0.121 -0.358,0.181 -0.604,0.487 -0.704,0.826 0.329,0.117 0.717,0.103 1.07,-0.072 -0.021,0.045 -0.04,0.092 -0.055,0.139 -0.107,0.326 -0.09,0.661 0.023,0.946 -0.132,-0.014 -0.262,0.056 -0.321,0.182 -0.046,0.097 -0.038,0.207 0.012,0.293 -0.036,0.007 -0.071,0.019 -0.102,0.038 -0.019,-0.099 -0.082,-0.189 -0.179,-0.234 -0.16,-0.075 -0.349,-0.006 -0.425,0.154 -0.075,0.158 -0.006,0.35 0.154,0.423 0.097,0.047 0.205,0.039 0.293,-0.011 0.006,0.034 0.017,0.069 0.035,0.099 -0.098,0.019 -0.184,0.081 -0.229,0.179 -0.058,0.122 -0.03,0.264 0.059,0.356 C 1.857,17 1.529,16.94 1.193,17.005 0.801,17.077 0.48,17.303 0.288,17.601 0.571,17.805 0.947,17.899 1.334,17.829 1.303,17.866 1.273,17.907 1.243,17.948 1.054,18.228 0.975,18.549 1.002,18.849 0.883,18.806 0.743,18.837 0.652,18.937 0.582,19.017 0.556,19.124 0.58,19.223 0.544,19.218 0.508,19.22 0.472,19.228 0.483,19.129 0.449,19.025 0.367,18.953 0.235,18.835 0.034,18.848 -0.083,18.98 c -0.118,0.13 -0.107,0.332 0.025,0.45 0.08,0.072 0.186,0.095 0.284,0.073 -0.004,0.035 -0.002,0.07 0.006,0.104 -0.099,-0.009 -0.201,0.027 -0.272,0.105 -0.07,0.08 -0.094,0.184 -0.073,0.281 -0.205,-0.215 -0.493,-0.367 -0.822,-0.411 -0.397,-0.053 -0.773,0.061 -1.046,0.284 0.204,0.282 0.531,0.488 0.922,0.543 -0.042,0.027 -0.083,0.054 -0.124,0.084 -0.317,0.244 -0.502,0.59 -0.54,0.941 0.349,0.057 0.731,-0.032 1.048,-0.274 0.041,-0.032 0.078,-0.064 0.115,-0.099 -0.046,0.389 0.067,0.758 0.287,1.028 0.285,-0.208 0.492,-0.54 0.546,-0.935 0.045,-0.347 -0.036,-0.676 -0.206,-0.938 0.124,0.056 0.275,0.028 0.37,-0.079 0.071,-0.078 0.094,-0.183 0.074,-0.28 0.033,0.002 0.066,0.001 0.099,-0.005 -0.01,0.097 0.026,0.198 0.105,0.268 0.132,0.118 0.332,0.105 0.45,-0.027 C 1.283,19.963 1.272,19.761 1.14,19.643 1.062,19.573 0.956,19.549 0.861,19.57 0.864,19.535 0.863,19.5 0.854,19.467 0.953,19.479 1.057,19.442 1.129,19.363 1.226,19.254 1.236,19.098 1.162,18.981 1.46,18.898 1.739,18.709 1.934,18.421 1.963,18.379 1.99,18.337 2.014,18.293 2.09,18.677 2.313,18.99 2.606,19.179 2.812,18.894 2.906,18.512 2.832,18.12 2.76,17.741 2.547,17.427 2.263,17.234 c 0.149,0.042 0.311,-0.027 0.38,-0.171 0.043,-0.097 0.037,-0.204 -0.011,-0.29 0.032,-0.006 0.064,-0.017 0.092,-0.033 0.02,0.096 0.083,0.181 0.179,0.226 0.158,0.075 0.35,0.007 0.423,-0.154 0.075,-0.16 0.007,-0.35 -0.152,-0.424 C 3.078,16.343 2.972,16.349 2.886,16.396 2.877,16.362 2.867,16.33 2.85,16.301 2.948,16.284 3.038,16.22 3.083,16.122 3.146,15.989 3.108,15.836 3.002,15.744 3.27,15.583 3.488,15.319 3.598,14.985 c 0.016,-0.047 0.03,-0.097 0.039,-0.146 0.182,0.348 0.484,0.588 0.817,0.687 0.119,-0.332 0.102,-0.725 -0.078,-1.08 -0.162,-0.32 -0.425,-0.551 -0.723,-0.668 0.134,-0.016 0.251,-0.117 0.277,-0.256 0.021,-0.105 -0.013,-0.207 -0.08,-0.28 0.03,-0.014 0.057,-0.033 0.082,-0.054 0.042,0.087 0.124,0.155 0.227,0.175 0.173,0.035 0.34,-0.08 0.374,-0.252 C 4.567,12.938 4.454,12.771 4.28,12.736 4.177,12.717 4.074,12.748 4.002,12.815 3.988,12.784 3.968,12.756 3.945,12.731 4.037,12.69 4.107,12.607 4.128,12.501 4.153,12.369 4.094,12.238 3.985,12.171 4.189,11.958 4.327,11.668 4.357,11.34 4.362,11.29 4.363,11.238 4.363,11.188 4.617,11.486 4.965,11.653 5.312,11.676 5.353,11.326 5.249,10.946 4.995,10.64 4.755,10.352 4.429,10.182 4.098,10.145 4.241,10.111 4.347,9.98 4.345,9.826 4.341,9.719 4.288,9.627 4.206,9.57 4.233,9.551 4.255,9.527 4.274,9.5 4.334,9.578 4.429,9.626 4.534,9.624 4.71,9.62 4.85,9.474 4.846,9.298 4.841,9.121 4.696,8.981 4.52,8.986 4.414,8.987 4.322,9.041 4.266,9.122 4.244,9.094 4.219,9.07 4.191,9.051 4.27,8.992 4.322,8.896 4.32,8.788 4.318,8.645 4.222,8.525 4.092,8.489 4.246,8.233 4.318,7.916 4.274,7.585 4.267,7.535 4.258,7.485 4.246,7.437 4.559,7.67 4.936,7.754 5.279,7.698 5.241,7.348 5.056,7.001 4.739,6.76 4.437,6.53 4.076,6.438 3.74,6.48 3.883,6.418 3.963,6.26 3.922,6.104 3.894,6.002 3.82,5.924 3.728,5.888 3.75,5.863 3.766,5.835 3.778,5.803 3.855,5.864 3.958,5.889 4.059,5.863 4.23,5.817 4.332,5.643 4.286,5.472 4.241,5.303 4.066,5.201 3.896,5.247 3.794,5.274 3.717,5.347 3.681,5.438 3.654,5.416 3.625,5.4 3.591,5.387 3.656,5.311 3.684,5.204 3.656,5.101 3.618,4.961 3.495,4.868 3.357,4.863 3.457,4.572 3.453,4.235 3.328,3.914 3.309,3.866 3.287,3.821 3.265,3.775 3.626,3.927 4.012,3.92 4.33,3.783 4.209,3.451 3.947,3.16 3.582,3.003 3.242,2.853 2.879,2.848 2.569,2.958 2.678,2.861 2.709,2.696 2.632,2.565 2.579,2.472 2.487,2.416 2.39,2.405 2.402,2.374 2.412,2.343 2.415,2.311 2.505,2.351 2.611,2.349 2.702,2.296 2.856,2.209 2.909,2.013 2.822,1.861 2.733,1.707 2.539,1.653 2.385,1.741 2.294,1.792 2.238,1.884 2.227,1.981 2.195,1.968 2.163,1.959 2.128,1.956 2.17,1.866 2.17,1.755 2.115,1.663 2.046,1.542 1.911,1.483 1.782,1.506 1.786,1.211 1.689,0.905 1.486,0.643 1.455,0.602 1.422,0.565 1.388,0.529 1.776,0.573 2.145,0.459 2.413,0.237 2.205,-0.047 1.871,-0.254 1.475,-0.304 1.101,-0.351 0.743,-0.251 0.475,-0.048 0.569,-0.178 0.552,-0.36 0.431,-0.47 0.352,-0.542 0.248,-0.568 0.152,-0.549 0.155,-0.58 0.153,-0.614 0.147,-0.646 0.244,-0.637 0.345,-0.672 0.416,-0.748 0.535,-0.878 0.525,-1.081 0.395,-1.2 c -0.13,-0.119 -0.331,-0.11 -0.45,0.02 -0.072,0.079 -0.097,0.183 -0.077,0.278 -0.035,-0.003 -0.069,-0.001 -0.102,0.007 0.013,-0.1 -0.022,-0.204 -0.102,-0.277 -0.13,-0.119 -0.333,-0.109 -0.452,0.021 -0.119,0.13 -0.11,0.332 0.021,0.452 0.08,0.073 0.186,0.097 0.283,0.075 -0.002,0.035 -0.001,0.072 0.005,0.108 -0.099,-0.012 -0.202,0.023 -0.274,0.102 -0.119,0.13 -0.11,0.333 0.02,0.45 0.131,0.119 0.332,0.11 0.45,-0.021 0.073,-0.077 0.098,-0.185 0.077,-0.282 0.034,0.004 0.071,0.004 0.104,-0.004 C -0.113,-0.173 -0.079,-0.071 0,0"
     style="fill:#ffffff;fill-opacity:1;fill-rule:evenodd;stroke:none"
     transform="matrix(1.3333333,0,0,-1.3333333,401.39267,657.33653)"
     clip-path="url(#clipPath1802-3)" /><path
     id="path1803"
     d="m 0,0 c -0.655,-0.763 -1.235,-1.637 -1.72,-2.587 l 0.53,1.938 c 0.008,0.027 -0.005,0.056 -0.031,0.068 l -0.493,0.218 c -0.027,0.012 -0.057,0.002 -0.072,-0.023 L -3.13,-2.772 c -0.015,-0.024 -0.008,-0.057 0.017,-0.074 0.024,-0.016 0.056,-0.013 0.075,0.009 0,0 0.957,1.117 1.144,1.336 L -2.025,-3.219 C -2.1,-3.386 -2.171,-3.554 -2.242,-3.724 -2.653,-4.735 -2.961,-5.816 -3.16,-6.931 l -0.036,2.092 c -10e-4,0.027 -0.022,0.052 -0.05,0.055 l -0.533,0.072 c -0.031,0.004 -0.056,-0.014 -0.064,-0.043 l -0.619,-2.666 c -0.006,-0.029 0.01,-0.058 0.037,-0.068 0.028,-0.009 0.059,0.005 0.07,0.031 0,0 0.604,1.34 0.723,1.603 l 0.367,-1.737 c -0.106,-0.775 -0.161,-1.562 -0.161,-2.35 0,-0.432 0.016,-0.86 0.047,-1.282 l -0.546,2.001 c -0.009,0.027 -0.034,0.043 -0.061,0.04 l -0.537,-0.062 c -0.029,-0.003 -0.05,-0.027 -0.05,-0.057 l 0.058,-2.737 c 0,-0.029 0.023,-0.053 0.052,-0.055 0.029,-0.002 0.056,0.018 0.061,0.047 0,0 0.254,1.448 0.304,1.731 l 0.781,-1.584 c 0.142,-1.257 0.423,-2.473 0.837,-3.637 l -1.054,1.765 c -0.014,0.024 -0.045,0.034 -0.071,0.024 l -0.499,-0.204 c -0.027,-0.011 -0.042,-0.041 -0.033,-0.069 l 0.792,-2.62 c 0.008,-0.029 0.037,-0.045 0.065,-0.041 0.027,0.007 0.046,0.029 0.046,0.056 v 0.005 c 0,0 -0.145,1.465 -0.173,1.75 l 1.173,-1.308 c 0.469,-1.149 1.071,-2.21 1.777,-3.14 l -1.515,1.302 c -0.02,0.018 -0.053,0.018 -0.073,0 l -0.41,-0.351 c -0.022,-0.019 -0.025,-0.051 -0.009,-0.076 l 1.58,-2.235 c 0.016,-0.025 0.048,-0.032 0.074,-0.017 0.018,0.01 0.029,0.029 0.029,0.048 0,0.008 -0.002,0.017 -0.005,0.025 0,0 -0.599,1.342 -0.717,1.603 l 1.487,-0.846 c 0.202,-0.237 0.411,-0.464 0.627,-0.68 0.116,-0.114 0.301,-0.114 0.415,0.002 0.116,0.114 0.115,0.301 0,0.415 -0.227,0.226 -0.446,0.464 -0.657,0.715 l -0.129,1.397 c 0.19,-0.222 1.142,-1.324 1.142,-1.324 0.018,-0.021 0.052,-0.025 0.076,-0.008 0.024,0.016 0.031,0.05 0.016,0.074 l -1.385,2.369 c -0.015,0.025 -0.043,0.034 -0.07,0.025 l -0.503,-0.2 c -0.03,-0.011 -0.045,-0.042 -0.034,-0.069 l 0.576,-1.877 c -0.731,0.952 -1.351,2.056 -1.822,3.253 l 0.282,1.465 c 0.124,-0.258 0.777,-1.607 0.777,-1.607 0.013,-0.028 0.043,-0.039 0.07,-0.029 0.028,0.009 0.044,0.038 0.036,0.067 l -0.696,2.653 c -0.006,0.028 -0.032,0.046 -0.061,0.042 l -0.539,-0.055 c -0.029,-0.003 -0.052,-0.028 -0.051,-0.057 l 0.017,-2.034 c -0.415,1.164 -0.688,2.383 -0.819,3.643 l 0.659,1.38 c 0.055,-0.28 0.343,-1.755 0.343,-1.755 0.007,-0.028 0.032,-0.047 0.062,-0.044 0.029,0.003 0.051,0.027 0.051,0.056 v 2.743 c 0,0.029 -0.021,0.052 -0.048,0.057 l -0.537,0.082 c -0.029,0.005 -0.056,-0.013 -0.063,-0.042 l -0.508,-2.007 c -0.033,0.42 -0.049,0.844 -0.049,1.274 0,0.818 0.061,1.627 0.177,2.416 l 0.959,1.173 C -1.715,-6.639 -1.783,-8.136 -1.783,-8.136 V -8.14 c 0,-0.028 0.019,-0.051 0.048,-0.056 0.029,-0.005 0.057,0.014 0.063,0.044 l 0.651,2.664 c 0.007,0.027 -0.008,0.055 -0.034,0.066 l -0.501,0.208 c -0.027,0.011 -0.058,0 -0.071,-0.026 L -2.58,-7.036 c 0.236,1.319 0.631,2.579 1.166,3.731 l 1.263,0.81 c -0.102,-0.267 -0.632,-1.67 -0.632,-1.67 -0.003,-0.007 -0.003,-0.015 -0.003,-0.022 0,-0.021 0.012,-0.04 0.03,-0.05 0.028,-0.013 0.059,-0.004 0.075,0.021 l 1.445,2.333 c 0.014,0.022 0.009,0.055 -0.011,0.073 L 0.34,-1.458 C 0.318,-1.438 0.285,-1.44 0.263,-1.461 L -1.21,-2.882 c 0.468,0.923 1.027,1.771 1.669,2.515 L 2.545,1.424 C 2.557,1.434 2.558,1.45 2.55,1.463 2.541,1.474 2.524,1.477 2.511,1.47 c 0,0 -0.616,-0.352 -1.09,-0.621 l 1.372,1.76 c 0.01,0.012 0.009,0.029 -0.003,0.039 -0.011,0.01 -0.027,0.01 -0.039,0 L 1.147,1.118 C 1.366,1.612 1.645,2.245 1.645,2.245 1.651,2.258 1.647,2.275 1.633,2.282 1.621,2.289 1.605,2.286 1.597,2.273 l -1.6,-2.271 z"
     style="fill:#ffffff;fill-opacity:1;fill-rule:evenodd;stroke:none"
     transform="matrix(1.3333333,0,0,-1.3333333,384.17787,631.23773)"
     clip-path="url(#clipPath1804-0)" /><path
     id="path1805"
     d="m 0,0 c -4.348,0 -7.883,-4.794 -7.883,-10.685 0,-5.892 3.535,-10.686 7.883,-10.686 4.346,0 7.882,4.794 7.882,10.686 C 7.882,-4.794 4.346,0 0,0 m -7.132,-8.251 1.631,-0.592 c 0.222,0 0.385,0.167 0.492,0.331 0.643,-0.002 1.239,0.11 1.458,0.141 -0.204,-0.068 -1.434,-0.322 -1.404,-0.357 0.016,-0.116 0.772,-0.289 2.244,0.167 -0.243,-0.168 -0.826,-0.366 -1.267,-0.491 -0.028,-0.008 0.023,-0.033 0.103,-0.052 0.253,-0.053 0.865,-0.109 2.123,0.337 -0.287,-0.153 -0.864,-0.373 -1.29,-0.51 -0.237,-0.077 0.403,-0.136 0.872,-0.045 0.492,0.095 0.922,0.317 1.254,0.357 l 0.249,0.022 c -0.501,-0.091 -1.748,-0.705 -2.15,-0.93 -0.456,-0.255 -1.338,-0.613 -1.776,-0.659 0.176,-0.166 0.7,-0.41 1.103,-0.514 0.446,-0.115 1.149,-0.171 1.749,-0.074 0.202,0.483 0.985,0.975 1.347,1.113 -0.413,-0.368 -0.416,-0.623 -0.431,-0.867 -0.001,-0.191 0.108,-0.615 0.15,-0.838 -0.096,-0.018 -0.19,-0.038 -0.283,-0.062 h -0.043 c -1.716,-0.446 -2.982,-2.006 -2.982,-3.86 0,-0.048 0,-0.095 0.002,-0.143 h -2.37 c 1.274,-3.017 3.643,-5.049 6.351,-5.049 2.706,0 5.076,2.031 6.35,5.049 H 3.989 c 0.002,0.047 0.003,0.095 0.003,0.143 0,1.882 -1.304,3.46 -3.059,3.879 H 0.96 l -0.017,0.004 c -0.084,0.206 0.014,0.913 0.054,1.083 0.054,0.225 0.464,0.53 0.796,0.736 0.332,0.206 0.94,0.368 1.322,0.478 0.383,0.11 0.565,0.187 0.655,0.259 0.155,0.104 0.284,0.297 0.476,0.498 0.062,0.057 0.115,0.114 0.116,0.115 0.001,0.001 0.418,0.434 1.098,0.723 0.172,0.073 0.53,0.163 0.674,0.154 0.144,-0.009 0.224,-0.047 0.312,-0.129 0.01,0.146 -0.02,0.285 -0.066,0.426 C 6.333,-7.262 6.196,-6.963 5.743,-7.05 5.666,-6.894 5.31,-6.953 4.98,-7.044 4.65,-7.135 4.021,-7.392 3.748,-7.484 3.474,-7.576 3.039,-7.632 2.894,-7.551 2.922,-7.64 3.007,-7.69 3.103,-7.726 c -0.028,-0.001 -0.063,0 -0.102,0.004 -0.136,0.037 -0.331,0.13 -0.444,0.356 -0.136,0.273 -0.119,0.52 -0.215,0.696 -0.096,0.176 -0.149,0.448 -0.627,0.448 -0.478,0 -1.541,-0.384 -2.467,-0.619 C -1.679,-7.077 -3.277,-7.523 -3.987,-7.71 -4.179,-7.76 -4.42,-7.811 -4.68,-7.857 l 1.352,2.626 c 0.757,1.632 1.303,0.622 1.303,0.622 0,0 0.274,0.263 0.582,0.413 0.413,0.263 0.755,-0.319 0.755,-0.319 0,0 0.084,0.395 0.717,0.475 0.141,0.018 0.472,2.37 0.472,2.37 0,0 0.069,0.787 0.361,1.055 -0.283,0.047 -0.57,0.071 -0.862,0.071 -3.443,0 -6.34,-3.287 -7.132,-7.707 m 8.57,7.511 c 0.176,-0.245 0.174,-0.607 0.174,-0.607 l 0.274,-4.585 1.345,-0.025 2,2.384 C 4.218,-2.155 2.906,-1.144 1.438,-0.74 m -1.563,-10.912 c -0.005,0.207 -0.007,0.561 0.006,0.719 0.023,0.273 0.137,0.5 0.433,0.705 -0.074,-0.117 0.014,-1.087 0.073,-1.436 -0.115,0.01 -0.23,0.016 -0.347,0.016 -0.055,0 -0.11,-10e-4 -0.165,-0.004 m 5.43,4.506 v 0 c -0.128,-0.033 0.102,0.232 0.324,0.071 0,0 -0.213,-0.043 -0.324,-0.071 M 4.301,-8.901 C 4.287,-8.909 4.252,-8.938 4.164,-9.052 c 0,0 -0.006,-0.006 -0.013,-0.015 -0.185,-0.246 -0.423,-0.388 -0.7,-0.469 -0.321,-0.095 -1.017,-0.255 -1.476,-0.465 0.316,-0.011 1.571,-0.137 2.042,-0.079 0.47,0.058 0.979,0.314 0.998,0.7 0.017,0.372 -0.343,0.489 -0.714,0.479"
     style="fill:#ffffff;fill-opacity:1;fill-rule:evenodd;stroke:none"
     transform="matrix(1.3333333,0,0,-1.3333333,393.5308,630.24733)"
     clip-path="url(#clipPath1806-8)" /><path
     id="path1807"
     d="m 0,0 0.007,-0.118 0.176,0.011 0.007,-0.114 -0.528,-0.033 -0.016,0.255 c -0.01,0.165 0.059,0.21 0.159,0.216 0.073,0.004 0.141,-0.015 0.175,-0.1 L 0.161,0.233 0.169,0.108 Z m -0.102,0.013 v 0 C -0.106,0.076 -0.123,0.104 -0.183,0.1 -0.244,0.096 -0.258,0.068 -0.254,0.002 l 0.009,-0.136 0.152,0.009 z"
     style="fill:#ffffff;fill-opacity:1;fill-rule:nonzero;stroke:none"
     transform="matrix(1.3333333,0,0,-1.3333333,389.20147,651.44253)"
     clip-path="url(#clipPath1808-3)" /><path
     id="path1809"
     d="M 0,0 0.069,0.391 0.173,0.373 0.124,0.097 0.226,0.079 0.273,0.348 0.374,0.33 0.326,0.061 0.441,0.041 0.491,0.32 0.59,0.303 0.521,-0.092 Z"
     style="fill:#ffffff;fill-opacity:1;fill-rule:nonzero;stroke:none"
     transform="matrix(1.3333333,0,0,-1.3333333,388.7516,650.58893)"
     clip-path="url(#clipPath1810-1)" /><path
     id="path1811"
     d="M 0,0 0.064,0.139 0.452,0.119 0.184,0.4 0.247,0.538 0.728,0.317 0.68,0.213 0.359,0.361 0.621,0.084 0.584,0.003 0.206,0.022 0.525,-0.125 0.48,-0.221 Z"
     style="fill:#ffffff;fill-opacity:1;fill-rule:nonzero;stroke:none"
     transform="matrix(1.3333333,0,0,-1.3333333,389.00507,649.496)"
     clip-path="url(#clipPath1812-9)" /><path
     id="path1813"
     d="M 0,0 0.163,0.195 C 0.268,0.319 0.352,0.312 0.434,0.243 0.518,0.173 0.55,0.086 0.44,-0.046 L 0.354,-0.148 0.479,-0.252 0.405,-0.34 Z m 0.367,0.022 v 0 C 0.41,0.073 0.411,0.11 0.364,0.149 0.315,0.19 0.283,0.182 0.238,0.128 L 0.15,0.023 0.278,-0.084 Z"
     style="fill:#ffffff;fill-opacity:1;fill-rule:nonzero;stroke:none"
     transform="matrix(1.3333333,0,0,-1.3333333,389.678,648.26333)"
     clip-path="url(#clipPath1814-0)" /><path
     id="path1815"
     d="M 0,0 -0.192,0.264 -0.097,0.333 0.086,0.081 C 0.132,0.017 0.174,-0.008 0.261,0.055 0.347,0.117 0.339,0.164 0.291,0.229 L 0.108,0.482 0.2,0.548 0.392,0.284 C 0.451,0.202 0.5,0.101 0.321,-0.029 0.139,-0.161 0.06,-0.082 0,0"
     style="fill:#ffffff;fill-opacity:1;fill-rule:nonzero;stroke:none"
     transform="matrix(1.3333333,0,0,-1.3333333,390.73613,647.76413)"
     clip-path="url(#clipPath1816-3)" /><path
     id="path1817"
     d="M 0,0 0.228,0.091 C 0.359,0.142 0.429,0.128 0.464,0.038 0.487,-0.019 0.481,-0.063 0.442,-0.097 0.505,-0.088 0.541,-0.117 0.569,-0.187 0.611,-0.293 0.554,-0.35 0.421,-0.402 L 0.195,-0.491 Z m 0.31,-0.104 v 0 c 0.058,0.022 0.065,0.047 0.051,0.082 C 0.347,0.012 0.324,0.022 0.268,0 L 0.143,-0.05 0.185,-0.154 Z m 0.088,-0.202 v 0 c 0.056,0.022 0.073,0.046 0.057,0.086 -0.017,0.041 -0.044,0.047 -0.101,0.024 L 0.221,-0.248 0.266,-0.359 Z"
     style="fill:#ffffff;fill-opacity:1;fill-rule:nonzero;stroke:none"
     transform="matrix(1.3333333,0,0,-1.3333333,391.53533,646.746)"
     clip-path="url(#clipPath1818-3)" /><path
     id="path1819"
     d="m 0,0 0.116,0.018 0.065,-0.423 0.257,0.04 0.015,-0.1 -0.373,-0.058 z"
     style="fill:#ffffff;fill-opacity:1;fill-rule:nonzero;stroke:none"
     transform="matrix(1.3333333,0,0,-1.3333333,392.64693,646.3836)"
     clip-path="url(#clipPath1820-3)" /><path
     id="path1821"
     d="M 0,0 0.116,-0.003 0.102,-0.531 -0.014,-0.528 Z"
     style="fill:#ffffff;fill-opacity:1;fill-rule:nonzero;stroke:none"
     transform="matrix(1.3333333,0,0,-1.3333333,393.66453,646.2928)"
     clip-path="url(#clipPath1822-5)" /><path
     id="path1823"
     d="M 0,0 C 0.042,0.185 0.161,0.243 0.332,0.203 0.426,0.182 0.481,0.144 0.518,0.083 L 0.421,0.022 C 0.397,0.06 0.364,0.086 0.308,0.099 0.198,0.124 0.139,0.08 0.115,-0.028 0.091,-0.131 0.117,-0.199 0.234,-0.226 c 0.067,-0.016 0.104,0 0.143,0.023 L 0.435,-0.295 C 0.385,-0.328 0.321,-0.353 0.204,-0.326 0.012,-0.282 -0.039,-0.171 0,0"
     style="fill:#ffffff;fill-opacity:1;fill-rule:nonzero;stroke:none"
     transform="matrix(1.3333333,0,0,-1.3333333,394.29187,646.68453)"
     clip-path="url(#clipPath1824-4)" /><path
     id="path1825"
     d="m 0,0 0.106,-0.053 -0.046,-0.571 -0.109,0.054 0.008,0.093 -0.214,0.106 -0.07,-0.062 -0.102,0.05 z m -0.031,-0.375 v 0 l 0.02,0.226 -0.168,-0.151 z"
     style="fill:#ffffff;fill-opacity:1;fill-rule:nonzero;stroke:none"
     transform="matrix(1.3333333,0,0,-1.3333333,395.71987,646.76707)"
     clip-path="url(#clipPath1826-5)" /><path
     id="path1827"
     d="m 0,0 0.114,-0.102 -0.135,-0.365 0.348,0.174 0.113,-0.102 -0.353,-0.393 -0.085,0.076 0.236,0.263 -0.342,-0.168 -0.065,0.059 0.129,0.355 -0.234,-0.261 -0.079,0.07 z"
     style="fill:#ffffff;fill-opacity:1;fill-rule:nonzero;stroke:none"
     transform="matrix(1.3333333,0,0,-1.3333333,396.58147,647.28227)"
     clip-path="url(#clipPath1828-6)" /><path
     id="path1829"
     d="M 0,0 C 0.191,0.014 0.28,-0.079 0.293,-0.257 0.301,-0.364 0.275,-0.431 0.234,-0.476 l -0.086,0.073 c 0.024,0.029 0.044,0.066 0.038,0.138 -0.009,0.116 -0.069,0.157 -0.179,0.148 -0.115,-0.009 -0.169,-0.044 -0.16,-0.171 0.008,-0.103 0.045,-0.131 0.119,-0.125 l 0.011,0.001 -0.011,0.147 0.096,0.008 0.021,-0.263 -0.087,-0.007 c -0.15,-0.011 -0.233,0.043 -0.247,0.236 C -0.267,-0.08 -0.175,-0.013 0,0"
     style="fill:#ffffff;fill-opacity:1;fill-rule:nonzero;stroke:none"
     transform="matrix(1.3333333,0,0,-1.3333333,398.0324,650.3444)"
     clip-path="url(#clipPath1830-5)" /><path
     id="path1831"
     d="m 0,0 -0.054,-0.394 -0.104,0.014 0.038,0.278 -0.102,0.013 -0.037,-0.27 -0.101,0.014 0.037,0.27 -0.117,0.016 -0.038,-0.281 -0.1,0.014 0.054,0.397 z"
     style="fill:#ffffff;fill-opacity:1;fill-rule:nonzero;stroke:none"
     transform="matrix(1.3333333,0,0,-1.3333333,398.41427,651.4352)"
     clip-path="url(#clipPath1832-8)" /><path
     id="path1833"
     d="M 0,0 0.04,0.111 -0.125,0.17 -0.087,0.277 0.411,0.1 0.325,-0.14 C 0.269,-0.297 0.189,-0.31 0.093,-0.276 c -0.068,0.024 -0.124,0.068 -0.12,0.16 l -0.213,-0.035 0.042,0.117 z m 0.088,-0.052 v 0 C 0.067,-0.112 0.072,-0.144 0.129,-0.164 0.187,-0.185 0.21,-0.165 0.232,-0.102 L 0.279,0.026 0.135,0.077 Z"
     style="fill:#ffffff;fill-opacity:1;fill-rule:nonzero;stroke:none"
     transform="matrix(1.3333333,0,0,-1.3333333,397.69227,652.5252)"
     clip-path="url(#clipPath1834-6)" /><path
     id="path1835"
     d="m 0,0 -0.207,-0.339 -0.09,0.055 0.146,0.239 -0.088,0.054 -0.142,-0.233 -0.088,0.053 0.143,0.233 -0.1,0.061 -0.147,-0.242 -0.087,0.054 0.209,0.341 z"
     style="fill:#ffffff;fill-opacity:1;fill-rule:nonzero;stroke:none"
     transform="matrix(1.3333333,0,0,-1.3333333,397.83787,653.36613)"
     clip-path="url(#clipPath1836-2)" /><path
     id="path1837"
     d="M 0,0 0.081,0.086 -0.046,0.207 0.032,0.29 0.417,-0.073 0.242,-0.259 C 0.128,-0.38 0.048,-0.36 -0.025,-0.29 c -0.054,0.049 -0.086,0.113 -0.046,0.196 l -0.209,0.052 0.085,0.091 z m 0.06,-0.083 v 0 C 0.016,-0.129 0.009,-0.161 0.052,-0.201 c 0.045,-0.043 0.075,-0.033 0.12,0.015 l 0.094,0.099 -0.112,0.105 z"
     style="fill:#ffffff;fill-opacity:1;fill-rule:nonzero;stroke:none"
     transform="matrix(1.3333333,0,0,-1.3333333,396.74,654.07467)"
     clip-path="url(#clipPath1838-0)" /><path
     id="path1839"
     d="m 0,0 -0.327,-0.227 -0.06,0.087 0.231,0.16 -0.059,0.085 -0.225,-0.156 -0.058,0.084 0.225,0.155 -0.067,0.097 -0.233,-0.162 -0.058,0.083 0.33,0.228 z"
     style="fill:#ffffff;fill-opacity:1;fill-rule:nonzero;stroke:none"
     transform="matrix(1.3333333,0,0,-1.3333333,396.53533,654.902)"
     clip-path="url(#clipPath1840-2)" /><path
     id="path1841"
     d="M 0,0 0.117,0.014 0.098,0.188 0.211,0.201 0.272,-0.324 0.018,-0.354 c -0.165,-0.018 -0.213,0.047 -0.225,0.149 -0.008,0.072 0.007,0.141 0.091,0.179 l -0.126,0.175 0.125,0.014 z m -0.007,-0.102 v 0 c -0.064,-0.008 -0.09,-0.026 -0.083,-0.086 0.007,-0.061 0.035,-0.073 0.101,-0.066 l 0.136,0.015 -0.018,0.153 z"
     style="fill:#ffffff;fill-opacity:1;fill-rule:nonzero;stroke:none"
     transform="matrix(1.3333333,0,0,-1.3333333,394.02867,655.42293)"
     clip-path="url(#clipPath1842-2)" /><path
     id="path1843"
     d="m 0,0 -0.396,0.038 0.01,0.105 0.28,-0.026 0.009,0.102 -0.272,0.026 0.01,0.101 0.272,-0.026 0.011,0.116 -0.282,0.027 0.009,0.101 0.399,-0.037 z"
     style="fill:#ffffff;fill-opacity:1;fill-rule:nonzero;stroke:none"
     transform="matrix(1.3333333,0,0,-1.3333333,393.33947,655.92387)"
     clip-path="url(#clipPath1844-6)" /><path
     id="path1845"
     d="m 0,0 c -0.056,-0.182 -0.179,-0.23 -0.346,-0.179 -0.093,0.028 -0.144,0.071 -0.177,0.134 l 0.101,0.053 c 0.021,-0.039 0.052,-0.068 0.107,-0.085 0.108,-0.032 0.171,0.008 0.203,0.113 0.031,0.102 0.011,0.172 -0.106,0.207 -0.065,0.02 -0.103,0.007 -0.144,-0.012 L -0.413,0.326 C -0.36,0.355 -0.295,0.376 -0.18,0.341 0.009,0.283 0.051,0.167 0,0"
     style="fill:#ffffff;fill-opacity:1;fill-rule:nonzero;stroke:none"
     transform="matrix(1.3333333,0,0,-1.3333333,392.52667,655.46707)"
     clip-path="url(#clipPath1846-2)" /><path
     id="path1847"
     d="M 0,0 0.161,-0.088 0.11,-0.18 -0.314,0.052 -0.263,0.145 -0.103,0.057 0.1,0.428 0.204,0.371 Z"
     style="fill:#ffffff;fill-opacity:1;fill-rule:nonzero;stroke:none"
     transform="matrix(1.3333333,0,0,-1.3333333,391.31987,655.23053)"
     clip-path="url(#clipPath1848-0)" /><path
     id="path1849"
     d="m 0,0 -0.304,0.257 0.068,0.08 0.215,-0.181 0.066,0.079 -0.209,0.176 0.066,0.078 L 0.111,0.313 0.186,0.402 -0.03,0.585 0.035,0.663 0.341,0.404 Z"
     style="fill:#ffffff;fill-opacity:1;fill-rule:nonzero;stroke:none"
     transform="matrix(1.3333333,0,0,-1.3333333,390.57573,654.92987)"
     clip-path="url(#clipPath1850-6)" /><path
     id="path1851"
     d="M 0,0 C 0,1.542 1.251,2.793 2.793,2.793 L 2.596,2.215 1.984,2.206 2.474,1.841 2.293,1.256 2.793,1.609 3.286,1.26 C 2.372,0.972 1.178,0.165 0.222,-1.12 0.12,-0.831 0,-0.324 0,0 m 2.793,2.793 v 0 L 2.989,2.215 3.6,2.206 3.11,1.841 3.29,1.26 C 3.314,1.268 3.338,1.276 3.36,1.282 4.133,1.515 4.825,1.559 5.103,1.568 4.601,2.307 3.753,2.793 2.793,2.793 M 5.526,0.557 v 0 C 5.531,0.486 5.585,0.141 5.585,0 c 0,-1.542 -1.251,-2.792 -2.792,-2.792 -0.692,0 -1.598,0.413 -2.086,0.83 l 0.04,0.053 c 1.55,1.993 4.068,2.431 4.735,2.464 z"
     style="fill:#ffffff;fill-opacity:1;fill-rule:evenodd;stroke:none"
     transform="matrix(1.3333333,0,0,-1.3333333,389.81333,651.03573)"
     clip-path="url(#clipPath1852-3)" /><path
     id="path1853"
     d="M 0,0 0.032,0.036 C 0.15,0.171 0.112,0.212 0.073,0.252 0.081,0.216 0.062,0.174 0.011,0.117 -0.069,0.025 -0.142,0.039 -0.214,0.103 -0.294,0.173 -0.31,0.254 -0.216,0.361 -0.117,0.474 -0.024,0.471 0.082,0.378 0.229,0.249 0.25,0.157 0.092,-0.021 L 0.063,-0.055 Z m -0.015,0.324 v 0 c -0.048,0.042 -0.089,0.032 -0.135,-0.02 -0.053,-0.06 -0.039,-0.093 0,-0.127 0.038,-0.033 0.076,-0.039 0.124,0.016 0.046,0.051 0.051,0.095 0.011,0.131"
     style="fill:#ffffff;fill-opacity:1;fill-rule:nonzero;stroke:none"
     transform="matrix(1.3333333,0,0,-1.3333333,391.20627,652.51853)"
     clip-path="url(#clipPath1854-6)" /><path
     id="path1855"
     d="M 0,0 0.08,0.071 0.541,-0.161 0.459,-0.233 0.384,-0.195 0.223,-0.338 0.252,-0.417 0.174,-0.485 Z m 0.302,-0.152 v 0 L 0.121,-0.06 0.19,-0.251 Z"
     style="fill:#ffffff;fill-opacity:1;fill-rule:nonzero;stroke:none"
     transform="matrix(1.3333333,0,0,-1.3333333,391.5316,651.42507)"
     clip-path="url(#clipPath1856-3)" /><path
     id="path1857"
     d="M 0,0 0.179,0.13 C 0.281,0.205 0.345,0.207 0.397,0.137 0.43,0.092 0.434,0.053 0.407,0.014 0.461,0.036 0.498,0.019 0.538,-0.035 0.599,-0.119 0.561,-0.181 0.458,-0.256 L 0.28,-0.385 Z m 0.294,-0.022 v 0 C 0.339,0.011 0.339,0.035 0.32,0.062 0.3,0.089 0.278,0.091 0.234,0.06 l -0.098,-0.072 0.06,-0.081 z m 0.122,-0.156 v 0 c 0.044,0.032 0.053,0.056 0.03,0.088 -0.023,0.032 -0.049,0.031 -0.093,-0.002 L 0.249,-0.167 0.312,-0.254 Z"
     style="fill:#ffffff;fill-opacity:1;fill-rule:nonzero;stroke:none"
     transform="matrix(1.3333333,0,0,-1.3333333,391.9408,651.0808)"
     clip-path="url(#clipPath1858-0)" /><path
     id="path1859"
     d="m 0,0 -0.092,-0.054 0.08,-0.136 -0.088,-0.052 -0.242,0.41 0.199,0.117 C -0.015,0.36 0.049,0.323 0.095,0.245 0.128,0.188 0.141,0.125 0.086,0.064 L 0.253,-0.034 0.156,-0.091 Z m -0.031,0.087 v 0 C 0.018,0.116 0.033,0.141 0.006,0.188 -0.022,0.235 -0.05,0.235 -0.102,0.205 L -0.207,0.142 -0.138,0.024 Z"
     style="fill:#ffffff;fill-opacity:1;fill-rule:nonzero;stroke:none"
     transform="matrix(1.3333333,0,0,-1.3333333,392.9764,650.8948)"
     clip-path="url(#clipPath1860-2)" /><path
     id="path1861"
     d="M 0,0 0.094,0.046 0.306,-0.38 0.212,-0.427 Z"
     style="fill:#ffffff;fill-opacity:1;fill-rule:nonzero;stroke:none"
     transform="matrix(1.3333333,0,0,-1.3333333,393.14773,650.31627)"
     clip-path="url(#clipPath1862-7)" /><path
     id="path1863"
     d="m 0,0 0.097,0.041 0.15,-0.354 0.215,0.09 0.036,-0.083 -0.313,-0.132 z"
     style="fill:#ffffff;fill-opacity:1;fill-rule:nonzero;stroke:none"
     transform="matrix(1.3333333,0,0,-1.3333333,393.4368,650.17507)"
     clip-path="url(#clipPath1864-6)" /><path
     id="path1865"
     d="M 0,0 -0.077,-0.024 -0.104,0.062 0.068,0.116 0.21,-0.338 0.115,-0.368 Z"
     style="fill:#ffffff;fill-opacity:1;fill-rule:nonzero;stroke:none"
     transform="matrix(1.3333333,0,0,-1.3333333,394.27693,649.98347)"
     clip-path="url(#clipPath1866-8)" /><path
     id="path1867"
     d="M 0,0 C -0.013,0.055 -0.008,0.108 0.045,0.141 -0.008,0.149 -0.026,0.182 -0.036,0.225 -0.051,0.288 -0.029,0.352 0.12,0.387 0.27,0.422 0.317,0.374 0.332,0.312 0.342,0.269 0.34,0.228 0.296,0.199 0.359,0.195 0.387,0.149 0.4,0.094 0.418,0.017 0.385,-0.058 0.232,-0.094 0.081,-0.129 0.018,-0.077 0,0 m 0.239,0.276 v 0 C 0.232,0.309 0.207,0.325 0.138,0.309 0.069,0.293 0.055,0.268 0.062,0.235 0.07,0.201 0.095,0.184 0.164,0.2 0.232,0.216 0.248,0.242 0.239,0.276 m 0.06,-0.197 v 0 C 0.288,0.123 0.255,0.144 0.181,0.126 0.107,0.108 0.087,0.076 0.097,0.032 0.108,-0.012 0.139,-0.033 0.214,-0.014 0.288,0.003 0.309,0.036 0.299,0.079"
     style="fill:#ffffff;fill-opacity:1;fill-rule:nonzero;stroke:none"
     transform="matrix(1.3333333,0,0,-1.3333333,394.6468,650.2172)"
     clip-path="url(#clipPath1868-8)" /><path
     id="path1869"
     d="M 0,0 0.048,0.007 C 0.225,0.032 0.223,0.088 0.219,0.144 0.202,0.112 0.16,0.092 0.085,0.082 -0.036,0.064 -0.082,0.122 -0.096,0.217 -0.111,0.323 -0.07,0.394 0.071,0.414 0.219,0.435 0.288,0.373 0.308,0.233 0.335,0.04 0.292,-0.043 0.056,-0.076 L 0.012,-0.083 Z m 0.199,0.255 v 0 C 0.19,0.318 0.153,0.338 0.084,0.328 0.005,0.317 -0.006,0.283 0.001,0.232 0.008,0.182 0.033,0.153 0.106,0.163 0.174,0.172 0.207,0.202 0.199,0.255"
     style="fill:#ffffff;fill-opacity:1;fill-rule:nonzero;stroke:none"
     transform="matrix(1.3333333,0,0,-1.3333333,395.37067,650.12947)"
     clip-path="url(#clipPath1870-6)" /><path
     id="path1871"
     d="M 0,0 0.147,0.144 C 0.215,0.21 0.238,0.236 0.235,0.276 0.233,0.314 0.215,0.33 0.151,0.326 0.105,0.323 0.051,0.306 0.024,0.289 l -0.05,0.075 C 0.023,0.393 0.066,0.409 0.155,0.415 0.269,0.422 0.329,0.388 0.335,0.292 0.339,0.22 0.307,0.174 0.234,0.104 L 0.142,0.014 0.357,0.027 0.362,-0.057 0.005,-0.079 Z"
     style="fill:#ffffff;fill-opacity:1;fill-rule:nonzero;stroke:none"
     transform="matrix(1.3333333,0,0,-1.3333333,395.89067,650.066)"
     clip-path="url(#clipPath1872-9)" /><path
     id="path1873"
     d="M 0,0 -1.082,0.764 -2.162,0 -1.769,1.265 -2.831,2.057 -1.506,2.074 -1.082,3.328 -0.656,2.074 0.669,2.057 -0.393,1.265 Z"
     style="fill:#ffffff;fill-opacity:1;fill-rule:evenodd;stroke:none"
     transform="matrix(1.3333333,0,0,-1.3333333,395.26307,629.726)"
     clip-path="url(#clipPath1874-6)" /><path
     id="path1875"
     d="m 0,0 c -0.85,-0.527 -1.854,-0.832 -2.928,-0.832 -1.076,0 -2.08,0.306 -2.93,0.832 l -0.65,-1.048 -1.874,1.162 c 0,0 -0.345,-0.56 -0.656,-1.061 -1.094,0.604 -2.35,0.947 -3.689,0.947 -1.474,0 -2.851,-0.415 -4.017,-1.139 0,0 0.833,-1.351 1.087,-1.763 0.852,0.527 1.856,0.833 2.93,0.833 1.076,0 2.078,-0.305 2.93,-0.833 l 0.651,1.054 1.854,-1.149 c 0.109,0.177 0.408,0.641 0.669,1.047 1.095,-0.606 2.354,-0.944 3.695,-0.944 1.474,0 2.85,0.409 4.019,1.132 0,0 -0.881,1.422 -1.091,1.762 m -5.586,-0.977 0.08,-0.038 c 0.11,-0.047 0.055,-0.17 -0.01,-0.309 -0.085,-0.187 -0.136,-0.25 -0.231,-0.207 l -0.076,0.035 z m -0.446,-0.564 v 0 l 0.254,-0.116 c 0.27,-0.121 0.373,0.15 0.424,0.266 0.108,0.234 0.132,0.388 -0.074,0.482 l -0.263,0.12 z m 1.178,-0.457 v 0 l 0.038,0.122 -0.274,0.086 0.072,0.228 0.244,-0.077 0.039,0.123 -0.245,0.075 0.061,0.195 0.266,-0.083 0.039,0.12 -0.43,0.135 -0.249,-0.785 z m 0.906,0.639 v 0 l -0.101,-0.636 c -0.005,-0.034 -0.037,-0.066 -0.076,-0.06 -0.09,0.014 -0.059,0.109 -0.048,0.174 l -0.174,0.027 c -0.031,-0.185 -0.036,-0.284 0.203,-0.323 0.12,-0.02 0.245,0.024 0.267,0.165 l 0.1,0.626 z m 0.331,-0.877 v 0 l 0.059,0.18 0.235,-0.016 0.033,-0.188 0.181,-0.011 -0.165,0.838 -0.228,0.016 -0.284,-0.806 z m 0.267,0.292 v 0 l -0.164,0.012 0.103,0.349 h 0.003 z m 0.59,-0.317 v 0 l -0.028,0.602 h 0.002 l 0.252,-0.593 0.227,0.012 -0.037,0.823 -0.16,-0.007 0.025,-0.57 -10e-4,-0.001 -0.247,0.562 -0.232,-0.012 0.038,-0.824 z m 1.152,0.118 v 0 l -0.022,0.125 -0.282,-0.046 -0.039,0.24 0.253,0.038 -0.019,0.126 -0.253,-0.041 -0.032,0.203 0.275,0.043 -0.02,0.126 -0.445,-0.071 0.129,-0.816 z m 0.321,0.065 v 0 l -0.172,0.807 -0.169,-0.035 0.172,-0.807 z m 0.172,0.776 v 0 l 0.073,0.022 c 0.054,0.016 0.093,-0.003 0.116,-0.079 0.014,-0.05 0.016,-0.121 -0.05,-0.141 l -0.072,-0.021 z m 0.102,-0.342 v 0 l 0.044,0.012 c 0.127,0.04 0.141,-0.042 0.17,-0.138 0.015,-0.051 0.027,-0.105 0.063,-0.147 l 0.162,0.049 c -0.025,0.027 -0.073,0.176 -0.087,0.226 -0.044,0.144 -0.154,0.119 -0.191,0.112 l -0.002,0.002 c 0.104,0.049 0.12,0.137 0.089,0.238 -0.04,0.136 -0.134,0.187 -0.246,0.152 l -0.306,-0.092 0.238,-0.791 0.164,0.05 z m 0.842,0.048 v 0 c -0.09,-0.038 -0.136,0.041 -0.22,0.235 -0.082,0.195 -0.107,0.284 -0.016,0.323 0.088,0.037 0.135,-0.043 0.219,-0.236 0.082,-0.196 0.106,-0.285 0.017,-0.322 m 0.047,-0.113 v 0 c 0.263,0.109 0.181,0.303 0.097,0.504 -0.085,0.199 -0.168,0.391 -0.428,0.279 -0.263,-0.11 -0.183,-0.302 -0.098,-0.502 0.086,-0.201 0.168,-0.393 0.429,-0.281 m -8.109,0.845 v 0 l 0.065,-0.04 c 0.047,-0.029 0.058,-0.073 0.016,-0.139 -0.028,-0.045 -0.081,-0.092 -0.139,-0.055 l -0.064,0.041 z m -0.191,-0.302 v 0 l 0.038,-0.021 c 0.112,-0.071 0.06,-0.138 0.007,-0.222 -0.029,-0.044 -0.063,-0.089 -0.069,-0.144 l 0.141,-0.091 c 0.005,0.037 0.086,0.17 0.115,0.216 0.078,0.126 -0.012,0.192 -0.041,0.216 l 0.002,0.003 c 0.105,-0.045 0.181,0 0.237,0.09 0.076,0.118 0.053,0.221 -0.047,0.284 l -0.269,0.17 -0.443,-0.696 0.146,-0.092 z m 0.414,-0.666 v 0 l 0.442,0.697 -0.146,0.092 -0.441,-0.695 z m 0.473,-0.169 v 0 c -0.082,0.051 -0.043,0.135 0.07,0.314 0.112,0.178 0.172,0.249 0.254,0.198 0.082,-0.054 0.043,-0.137 -0.069,-0.316 -0.113,-0.179 -0.173,-0.248 -0.255,-0.196 m -0.066,-0.106 v 0 c 0.241,-0.15 0.353,0.026 0.469,0.209 0.116,0.184 0.227,0.361 -0.013,0.512 -0.24,0.152 -0.351,-0.023 -0.469,-0.208 -0.114,-0.182 -0.227,-0.359 0.013,-0.513 m -7.388,0.226 v 0 l -0.055,0.115 -0.258,-0.126 -0.105,0.218 0.231,0.111 -0.055,0.114 -0.23,-0.111 -0.089,0.183 0.25,0.121 -0.055,0.115 -0.406,-0.198 0.359,-0.742 z m 0.55,0.419 v 0 c -0.084,0.246 -0.407,0.12 -0.459,0.267 -0.018,0.055 0.004,0.095 0.057,0.113 0.066,0.023 0.095,-0.034 0.115,-0.091 l 0.159,0.055 c -0.046,0.167 -0.148,0.21 -0.308,0.155 -0.198,-0.068 -0.222,-0.184 -0.181,-0.308 0.08,-0.231 0.411,-0.126 0.46,-0.268 0.017,-0.052 0.003,-0.096 -0.052,-0.116 -0.09,-0.031 -0.114,0.031 -0.14,0.105 l -0.163,-0.057 c 0.037,-0.137 0.116,-0.243 0.319,-0.174 0.124,0.044 0.264,0.118 0.193,0.319 m -0.022,0.602 v 0 l 0.027,-0.133 0.189,0.04 0.143,-0.673 0.169,0.035 -0.143,0.674 0.186,0.04 -0.027,0.134 z m 0.875,-0.668 v 0 l 0.023,0.186 0.234,0.029 0.068,-0.176 0.18,0.021 -0.32,0.792 -0.226,-0.026 -0.128,-0.847 z m 0.208,0.337 v 0 l -0.165,-0.02 0.037,0.363 h 0.002 z m 0.582,0.424 v 0 l 0.089,-0.002 c 0.121,-0.003 0.117,-0.135 0.114,-0.287 -0.003,-0.208 -0.024,-0.286 -0.13,-0.284 l -0.082,0.001 z m -0.185,-0.695 v 0 l 0.282,-0.004 c 0.295,-0.008 0.28,0.284 0.282,0.412 0.005,0.256 -0.035,0.407 -0.261,0.413 l -0.288,0.004 z m 0.986,0.063 v 0 c -0.097,0.015 -0.097,0.106 -0.066,0.315 0.029,0.209 0.055,0.298 0.15,0.286 0.097,-0.014 0.097,-0.106 0.067,-0.317 -0.03,-0.209 -0.054,-0.296 -0.151,-0.284 m -0.018,-0.121 v 0 c 0.282,-0.04 0.311,0.168 0.342,0.382 0.031,0.216 0.059,0.422 -0.222,0.462 -0.282,0.039 -0.312,-0.168 -0.342,-0.383 -0.031,-0.214 -0.06,-0.422 0.222,-0.461 m 1.134,0.502 v 0 l 0.086,-0.025 c 0.116,-0.032 0.079,-0.161 0.037,-0.308 -0.057,-0.198 -0.098,-0.268 -0.2,-0.24 l -0.081,0.024 z m -0.357,-0.624 v 0 l 0.268,-0.078 c 0.284,-0.081 0.346,0.204 0.381,0.326 0.071,0.247 0.072,0.404 -0.145,0.465 l -0.277,0.081 z m 0.99,-0.214 v 0 c -0.09,0.038 -0.068,0.129 0.012,0.324 0.079,0.195 0.125,0.276 0.215,0.239 0.091,-0.036 0.068,-0.125 -0.012,-0.322 -0.079,-0.195 -0.124,-0.276 -0.215,-0.241 m -0.046,-0.113 v 0 c 0.264,-0.106 0.343,0.088 0.423,0.289 0.083,0.201 0.16,0.395 -0.104,0.502 -0.263,0.106 -0.342,-0.086 -0.424,-0.288 -0.081,-0.2 -0.16,-0.395 0.105,-0.503"
     style="fill:#ffffff;fill-opacity:1;fill-rule:evenodd;stroke:none"
     transform="matrix(1.3333333,0,0,-1.3333333,403.61373,659.6508)"
     clip-path="url(#clipPath1876-2)" /></g></svg>
