<?xml version="1.0" encoding="UTF-8" standalone="no"?>
<!-- Generator: Adobe Illustrator 19.0.0, SVG Export Plug-In . SVG Version: 6.00 Build 0)  -->

<svg
   version="1.1"
   id="Layer_1"
   x="0px"
   y="0px"
   viewBox="0 0 512 512"
   style="enable-background:new 0 0 512 512;"
   xml:space="preserve"
   width="512"
   height="512"
   sodipodi:docname="16.svg"
   inkscape:version="1.4.2 (f4327f4, 2025-05-13)"
   xmlns:inkscape="http://www.inkscape.org/namespaces/inkscape"
   xmlns:sodipodi="http://sodipodi.sourceforge.net/DTD/sodipodi-0.dtd"
   xmlns="http://www.w3.org/2000/svg"
   xmlns:svg="http://www.w3.org/2000/svg"><defs
   id="defs1"><clipPath
     clipPathUnits="userSpaceOnUse"
     id="clipPath1001-8"><path
       d="M 0,841.89 H 595.276 V 0 H 0 Z"
       id="path1001-9" /></clipPath><clipPath
     clipPathUnits="userSpaceOnUse"
     id="clipPath1003-4"><path
       d="M 0,841.89 H 595.276 V 0 H 0 Z"
       transform="translate(-155.4805,-393.78691)"
       id="path1003-1" /></clipPath><clipPath
     clipPathUnits="userSpaceOnUse"
     id="clipPath1005-5"><path
       d="M 0,841.89 H 595.276 V 0 H 0 Z"
       transform="translate(-156.95751,-393.78691)"
       id="path1005-6" /></clipPath><clipPath
     clipPathUnits="userSpaceOnUse"
     id="clipPath1007-6"><path
       d="M 0,841.89 H 595.276 V 0 H 0 Z"
       transform="translate(-197.95731,-343.03861)"
       id="path1007-6" /></clipPath><clipPath
     clipPathUnits="userSpaceOnUse"
     id="clipPath1009-6"><path
       d="M 0,841.89 H 595.276 V 0 H 0 Z"
       transform="translate(-170.602,-392.73901)"
       id="path1009-6" /></clipPath><clipPath
     clipPathUnits="userSpaceOnUse"
     id="clipPath1011-7"><path
       d="M 0,841.89 H 595.276 V 0 H 0 Z"
       transform="translate(-174.8737,-388.47891)"
       id="path1011-1" /></clipPath><clipPath
     clipPathUnits="userSpaceOnUse"
     id="clipPath1013-4"><path
       d="M 0,841.89 H 595.276 V 0 H 0 Z"
       transform="translate(-179.24871,-392.73901)"
       id="path1013-0" /></clipPath><clipPath
     clipPathUnits="userSpaceOnUse"
     id="clipPath1015-6"><path
       d="M 0,841.89 H 595.276 V 0 H 0 Z"
       transform="translate(-182.0817,-388.01841)"
       id="path1015-1" /></clipPath><clipPath
     clipPathUnits="userSpaceOnUse"
     id="clipPath1017-2"><path
       d="M 0,841.89 H 595.276 V 0 H 0 Z"
       transform="translate(-186.3178,-393.80941)"
       id="path1017-1" /></clipPath><clipPath
     clipPathUnits="userSpaceOnUse"
     id="clipPath1019-4"><path
       d="M 0,841.89 H 595.276 V 0 H 0 Z"
       transform="translate(-191.17641,-392.73901)"
       id="path1019-9" /></clipPath><clipPath
     clipPathUnits="userSpaceOnUse"
     id="clipPath1021-5"><path
       d="M 0,841.89 H 595.276 V 0 H 0 Z"
       id="path1021-2" /></clipPath><clipPath
     clipPathUnits="userSpaceOnUse"
     id="clipPath1023-3"><path
       d="M 0,841.89 H 595.276 V 0 H 0 Z"
       transform="translate(-197.2209,-388.47891)"
       id="path1023-4" /></clipPath><clipPath
     clipPathUnits="userSpaceOnUse"
     id="clipPath1025-1"><path
       d="M 0,841.89 H 595.276 V 0 H 0 Z"
       transform="translate(-200.21451,-387.68511)"
       id="path1025-5" /></clipPath><clipPath
     clipPathUnits="userSpaceOnUse"
     id="clipPath1027-2"><path
       d="M 0,841.89 H 595.276 V 0 H 0 Z"
       transform="translate(-205.30321,-393.80941)"
       id="path1027-3" /></clipPath><clipPath
     clipPathUnits="userSpaceOnUse"
     id="clipPath1029-1"><path
       d="M 0,841.89 H 595.276 V 0 H 0 Z"
       transform="translate(-213.3739,-391.06931)"
       id="path1029-6" /></clipPath><clipPath
     clipPathUnits="userSpaceOnUse"
     id="clipPath1031-8"><path
       d="M 0,841.89 H 595.276 V 0 H 0 Z"
       transform="translate(-215.0326,-393.80941)"
       id="path1031-8" /></clipPath><clipPath
     clipPathUnits="userSpaceOnUse"
     id="clipPath1033-2"><path
       d="M 0,841.89 H 595.276 V 0 H 0 Z"
       id="path1033-7" /></clipPath><clipPath
     clipPathUnits="userSpaceOnUse"
     id="clipPath1035-7"><path
       d="M 0,841.89 H 595.276 V 0 H 0 Z"
       transform="translate(-223.01041,-387.81141)"
       id="path1035-1" /></clipPath><clipPath
     clipPathUnits="userSpaceOnUse"
     id="clipPath1037-2"><path
       d="M 0,841.89 H 595.276 V 0 H 0 Z"
       transform="translate(-224.71491,-387.68511)"
       id="path1037-6" /></clipPath><clipPath
     clipPathUnits="userSpaceOnUse"
     id="clipPath1039-0"><path
       d="M 0,841.89 H 595.276 V 0 H 0 Z"
       transform="translate(-171.19161,-375.62961)"
       id="path1039-4" /></clipPath><clipPath
     clipPathUnits="userSpaceOnUse"
     id="clipPath1041-9"><path
       d="M 0,841.89 H 595.276 V 0 H 0 Z"
       transform="translate(-173.91531,-382.46991)"
       id="path1041-4" /></clipPath><clipPath
     clipPathUnits="userSpaceOnUse"
     id="clipPath1043-6"><path
       d="M 0,841.89 H 595.276 V 0 H 0 Z"
       id="path1043-0" /></clipPath><clipPath
     clipPathUnits="userSpaceOnUse"
     id="clipPath1045-3"><path
       d="M 0,841.89 H 595.276 V 0 H 0 Z"
       transform="translate(-184.4146,-379.68681)"
       id="path1045-6" /></clipPath><clipPath
     clipPathUnits="userSpaceOnUse"
     id="clipPath1047-2"><path
       d="M 0,841.89 H 595.276 V 0 H 0 Z"
       transform="translate(-187.5946,-381.38231)"
       id="path1047-4" /></clipPath><clipPath
     clipPathUnits="userSpaceOnUse"
     id="clipPath1049-5"><path
       d="M 0,841.89 H 595.276 V 0 H 0 Z"
       transform="translate(-190.62231,-382.46991)"
       id="path1049-8" /></clipPath><clipPath
     clipPathUnits="userSpaceOnUse"
     id="clipPath1051-8"><path
       d="M 0,841.89 H 595.276 V 0 H 0 Z"
       transform="translate(-194.0244,-382.46991)"
       id="path1051-1" /></clipPath><clipPath
     clipPathUnits="userSpaceOnUse"
     id="clipPath1053-2"><path
       d="M 0,841.89 H 595.276 V 0 H 0 Z"
       transform="translate(-201.4489,-379.68681)"
       id="path1053-1" /></clipPath><clipPath
     clipPathUnits="userSpaceOnUse"
     id="clipPath1055-4"><path
       d="M 0,841.89 H 595.276 V 0 H 0 Z"
       transform="translate(-203.29611,-382.46991)"
       id="path1055-9" /></clipPath><clipPath
     clipPathUnits="userSpaceOnUse"
     id="clipPath1057-8"><path
       d="M 0,841.89 H 595.276 V 0 H 0 Z"
       transform="translate(-208.17111,-379.52351)"
       id="path1057-2" /></clipPath><clipPath
     clipPathUnits="userSpaceOnUse"
     id="clipPath1059-4"><path
       d="M 0,841.89 H 595.276 V 0 H 0 Z"
       transform="translate(-211.3867,-382.46991)"
       id="path1059-5" /></clipPath><clipPath
     clipPathUnits="userSpaceOnUse"
     id="clipPath1061-2"><path
       d="M 0,841.89 H 595.276 V 0 H 0 Z"
       transform="translate(-216.8812,-377.05591)"
       id="path1061-9" /></clipPath><clipPath
     clipPathUnits="userSpaceOnUse"
     id="clipPath1063-9"><path
       d="M 0,841.89 H 595.276 V 0 H 0 Z"
       transform="translate(-221.5696,-373.73581)"
       id="path1063-8" /></clipPath><clipPath
     clipPathUnits="userSpaceOnUse"
     id="clipPath1065-3"><path
       d="M 0,841.89 H 595.276 V 0 H 0 Z"
       transform="translate(-226.0825,-377.05591)"
       id="path1065-8" /></clipPath><clipPath
     clipPathUnits="userSpaceOnUse"
     id="clipPath1067-6"><path
       d="M 0,841.89 H 595.276 V 0 H 0 Z"
       transform="translate(-232.05661,-376.37831)"
       id="path1067-9" /></clipPath></defs><sodipodi:namedview
   id="namedview1"
   pagecolor="#505050"
   bordercolor="#eeeeee"
   borderopacity="1"
   inkscape:showpageshadow="0"
   inkscape:pageopacity="0"
   inkscape:pagecheckerboard="0"
   inkscape:deskcolor="#505050"
   inkscape:zoom="1.0675655"
   inkscape:cx="304.89932"
   inkscape:cy="301.15248"
   inkscape:window-width="1920"
   inkscape:window-height="991"
   inkscape:window-x="-9"
   inkscape:window-y="-9"
   inkscape:window-maximized="1"
   inkscape:current-layer="Layer_1" />
















<g
   id="g20"
   transform="matrix(4.0232134,0,0,4.0232134,-758.04179,-2359.6833)"><path
     id="path1000"
     d="M 236.694,306.282 H 141.19 v 95.508 h 95.504 z"
     style="fill:#33456c;fill-opacity:1;fill-rule:nonzero;stroke:none"
     transform="matrix(1.3333333,0,0,-1.3333333,0,1122.52)"
     clip-path="url(#clipPath1001-8)" /><path
     id="path1002"
     d="m 0,0 v -19.256 h -3.237 v 14.74 h -0.029 l -2.272,-2.356 h -0.028 v 3.378 L -2.584,0 Z"
     style="fill:#ffffff;fill-opacity:1;fill-rule:nonzero;stroke:none"
     transform="matrix(1.3333333,0,0,-1.3333333,207.30733,597.4708)"
     clip-path="url(#clipPath1003-4)" /><path
     id="path1004"
     d="M 0,0 H 8.123 V -2.982 L 3.891,-19.256 H 0.68 L 4.998,-2.641 H 0 Z"
     style="fill:#ffffff;fill-opacity:1;fill-rule:nonzero;stroke:none"
     transform="matrix(1.3333333,0,0,-1.3333333,209.27667,597.4708)"
     clip-path="url(#clipPath1005-5)" /><path
     id="path1006"
     d="m 0,0 c 2.45,2.274 3.988,5.518 3.988,9.116 0,0.538 -0.039,1.069 -0.105,1.589 4.979,-0.533 8.87,-4.757 8.87,-9.876 C 12.753,-2.08 11.49,-4.692 9.49,-6.51 7.617,-3.003 4.115,-0.494 0,0 m 8.444,-12.347 c 0,-5.476 -4.456,-9.933 -9.935,-9.933 -1.783,0 -3.45,0.478 -4.899,1.303 2.114,2.23 3.417,5.24 3.417,8.547 0,0.814 -0.083,1.61 -0.232,2.381 1.786,-0.993 3.839,-1.561 6.024,-1.561 1.944,0 3.785,0.449 5.424,1.249 0.132,-0.642 0.201,-1.307 0.201,-1.986 m -33.791,-0.083 c 0,0.706 0.075,1.394 0.217,2.058 1.637,-0.793 3.471,-1.238 5.408,-1.238 2.178,0 4.224,0.564 6.006,1.551 -0.138,-0.742 -0.215,-1.506 -0.215,-2.288 0,-3.36 1.344,-6.412 3.516,-8.652 -1.47,-0.86 -3.175,-1.364 -4.997,-1.364 -5.479,0 -9.935,4.456 -9.935,9.933 m -4.31,13.259 c 0,5.119 3.891,9.343 8.87,9.877 -0.066,-0.521 -0.104,-1.052 -0.104,-1.59 0,-3.636 1.569,-6.913 4.063,-9.188 -4.126,-0.471 -7.646,-2.964 -9.537,-6.465 -2.015,1.819 -3.292,4.444 -3.292,7.366 M -8.453,19.05 c 4.071,0 7.574,-2.461 9.107,-5.973 -4.041,-0.713 -7.414,-3.38 -9.107,-6.99 -1.689,3.61 -5.064,6.278 -9.105,6.99 1.534,3.512 5.036,5.973 9.105,5.973 m 2.367,-22.598 c 1.376,0.722 2.936,1.136 4.595,1.136 3.906,0 7.283,-2.272 8.907,-5.558 -1.378,-0.722 -2.941,-1.136 -4.597,-1.136 -3.907,0 -7.284,2.272 -8.905,5.558 m -4.764,-0.067 c -1.635,-3.25 -4.992,-5.491 -8.872,-5.491 -1.645,0 -3.196,0.409 -4.563,1.121 1.634,3.249 4.993,5.49 8.873,5.49 1.646,0 3.195,-0.408 4.562,-1.12 m -7.407,14.259 c 4.785,-0.712 8.47,-4.836 8.47,-9.815 0,-0.52 -0.052,-1.027 -0.13,-1.527 -4.785,0.712 -8.47,4.834 -8.47,9.814 0,0.52 0.053,1.029 0.13,1.528 m 9.851,-30.107 c -1.86,1.806 -3.019,4.327 -3.019,7.116 0,2.746 1.121,5.236 2.927,7.036 1.858,-1.807 3.019,-4.328 3.019,-7.119 0,-2.745 -1.12,-5.233 -2.927,-7.033 M 1.482,9.116 c 0,-4.98 -3.684,-9.102 -8.47,-9.814 -0.076,0.5 -0.128,1.007 -0.128,1.527 0,4.979 3.685,9.103 8.469,9.814 C 1.43,10.145 1.482,9.636 1.482,9.116 M 15.258,0.829 c 0,6.707 -5.335,12.187 -11.982,12.43 -1.71,4.827 -6.321,8.296 -11.729,8.296 -5.407,0 -10.016,-3.469 -11.728,-8.296 -6.647,-0.244 -11.98,-5.724 -11.98,-12.43 0,-3.98 1.88,-7.528 4.8,-9.806 -0.317,-1.097 -0.491,-2.255 -0.491,-3.453 0,-6.857 5.58,-12.437 12.44,-12.437 2.603,0 5.021,0.806 7.02,2.178 1.977,-1.322 4.35,-2.096 6.901,-2.096 6.859,0 12.439,5.581 12.439,12.438 0,1.173 -0.166,2.309 -0.471,3.384 2.907,2.28 4.781,5.82 4.781,9.792"
     style="fill:#ffffff;fill-opacity:1;fill-rule:nonzero;stroke:none"
     transform="matrix(1.3333333,0,0,-1.3333333,263.94307,665.1352)"
     clip-path="url(#clipPath1007-6)" /><path
     id="path1008"
     d="m 0,0 v -3.074 h 0.484 c 0.448,0 0.645,0.219 0.645,0.645 v 1.796 C 1.129,-0.208 0.932,0 0.484,0 Z m -1.312,1.07 h 1.945 c 1.324,0 1.808,-0.656 1.808,-1.749 v -1.647 c 0,-1.094 -0.484,-1.761 -1.808,-1.761 H 0 v -2.648 h -1.312 z"
     style="fill:#ffffff;fill-opacity:1;fill-rule:nonzero;stroke:none"
     transform="matrix(1.3333333,0,0,-1.3333333,227.46933,598.868)"
     clip-path="url(#clipPath1009-6)" /><path
     id="path1010"
     d="M 0,0 H 1.047 L 0.529,3.132 H 0.518 Z m -1.646,-2.475 1.473,7.806 H 1.324 L 2.809,-2.475 H 1.462 L 1.22,-1.047 h -1.393 l -0.23,-1.428 z"
     style="fill:#ffffff;fill-opacity:1;fill-rule:nonzero;stroke:none"
     transform="matrix(1.3333333,0,0,-1.3333333,233.16493,604.54813)"
     clip-path="url(#clipPath1011-7)" /><path
     id="path1012"
     d="m 0,0 v -2.429 h 0.437 c 0.449,0 0.645,0.23 0.645,0.645 v 1.151 C 1.082,-0.208 0.886,0 0.437,0 Z m 0,-3.155 v -3.58 H -1.312 V 1.07 h 1.91 c 1.324,0 1.808,-0.656 1.808,-1.749 v -1.002 c 0,-0.841 -0.299,-1.336 -1.048,-1.508 L 2.613,-6.735 H 1.232 Z"
     style="fill:#ffffff;fill-opacity:1;fill-rule:nonzero;stroke:none"
     transform="matrix(1.3333333,0,0,-1.3333333,238.99827,598.868)"
     clip-path="url(#clipPath1013-4)" /><path
     id="path1014"
     d="M 0,0 V 3.776 C 0,4.997 0.575,5.883 1.956,5.883 3.407,5.883 3.81,5.077 3.81,3.926 V 3.005 H 2.612 V 4.03 c 0,0.483 -0.16,0.76 -0.633,0.76 -0.471,0 -0.667,-0.334 -0.667,-0.807 v -4.19 c 0,-0.472 0.196,-0.806 0.667,-0.806 0.473,0 0.633,0.3 0.633,0.76 V 1.186 H 3.81 V -0.161 C 3.81,-1.277 3.349,-2.107 1.956,-2.107 0.575,-2.107 0,-1.208 0,0"
     style="fill:#ffffff;fill-opacity:1;fill-rule:nonzero;stroke:none"
     transform="matrix(1.3333333,0,0,-1.3333333,242.7756,605.16213)"
     clip-path="url(#clipPath1015-6)" /><path
     id="path1016"
     d="M 0,0 H 3.132 V -1.07 H 1.312 V -3.304 H 2.614 V -4.363 H 1.312 v -2.371 h 1.82 V -7.806 H 0 Z"
     style="fill:#ffffff;fill-opacity:1;fill-rule:nonzero;stroke:none"
     transform="matrix(1.3333333,0,0,-1.3333333,248.42373,597.4408)"
     clip-path="url(#clipPath1017-2)" /><path
     id="path1018"
     d="m 0,0 v -2.429 h 0.437 c 0.449,0 0.645,0.23 0.645,0.645 v 1.151 C 1.082,-0.208 0.886,0 0.437,0 Z m 0,-3.155 v -3.58 H -1.312 V 1.07 h 1.91 c 1.324,0 1.808,-0.656 1.808,-1.749 v -1.002 c 0,-0.841 -0.299,-1.336 -1.048,-1.508 L 2.613,-6.735 H 1.232 Z"
     style="fill:#ffffff;fill-opacity:1;fill-rule:nonzero;stroke:none"
     transform="matrix(1.3333333,0,0,-1.3333333,254.90187,598.868)"
     clip-path="url(#clipPath1019-4)" /><path
     id="path1020"
     d="m 193.997,393.809 h 1.313 v -7.806 h -1.313 z"
     style="fill:#ffffff;fill-opacity:1;fill-rule:nonzero;stroke:none"
     transform="matrix(1.3333333,0,0,-1.3333333,0,1122.52)"
     clip-path="url(#clipPath1021-5)" /><path
     id="path1022"
     d="M 0,0 H 1.048 L 0.529,3.132 H 0.518 Z m -1.646,-2.475 1.473,7.806 H 1.324 L 2.809,-2.475 H 1.462 l -0.241,1.428 h -1.394 l -0.23,-1.428 z"
     style="fill:#ffffff;fill-opacity:1;fill-rule:nonzero;stroke:none"
     transform="matrix(1.3333333,0,0,-1.3333333,262.9612,604.54813)"
     clip-path="url(#clipPath1023-3)" /><path
     id="path1024"
     d="m 0,0 v 1.047 h 1.22 v -1.07 c 0,-0.438 0.196,-0.691 0.645,-0.691 0.414,0 0.598,0.277 0.598,0.691 v 0.299 c 0,0.449 -0.184,0.725 -0.586,1.105 L 1.105,2.153 C 0.357,2.89 0.012,3.339 0.012,4.236 v 0.265 c 0,0.967 0.564,1.716 1.841,1.716 1.313,0 1.831,-0.645 1.831,-1.774 V 3.811 H 2.487 V 4.49 C 2.487,4.938 2.279,5.157 1.865,5.157 1.497,5.157 1.243,4.95 1.243,4.513 V 4.352 c 0,-0.438 0.242,-0.691 0.622,-1.06 L 2.705,2.463 C 3.419,1.738 3.765,1.301 3.765,0.437 v -0.38 c 0,-1.07 -0.576,-1.83 -1.912,-1.83 C 0.518,-1.773 0,-1.025 0,0"
     style="fill:#ffffff;fill-opacity:1;fill-rule:nonzero;stroke:none"
     transform="matrix(1.3333333,0,0,-1.3333333,266.95267,605.60653)"
     clip-path="url(#clipPath1025-1)" /><path
     id="path1026"
     d="M 0,0 H 3.132 V -1.07 H 1.312 V -3.304 H 2.614 V -4.363 H 1.312 v -2.371 h 1.82 V -7.806 H 0 Z"
     style="fill:#ffffff;fill-opacity:1;fill-rule:nonzero;stroke:none"
     transform="matrix(1.3333333,0,0,-1.3333333,273.7376,597.4408)"
     clip-path="url(#clipPath1027-2)" /><path
     id="path1028"
     d="m 0,0 h -0.035 l -0.886,-5.066 h -0.61 L -2.51,0 H -2.533 V -5.066 H -3.615 V 2.74 h 1.531 l 0.852,-4.398 H -1.22 L -0.46,2.74 H 1.197 V -5.066 H 0 Z"
     style="fill:#ffffff;fill-opacity:1;fill-rule:nonzero;stroke:none"
     transform="matrix(1.3333333,0,0,-1.3333333,284.49853,601.09427)"
     clip-path="url(#clipPath1029-1)" /><path
     id="path1030"
     d="M 0,0 H 3.131 V -1.07 H 1.312 V -3.304 H 2.613 V -4.363 H 1.312 V -6.734 H 3.131 V -7.806 H 0 Z"
     style="fill:#ffffff;fill-opacity:1;fill-rule:nonzero;stroke:none"
     transform="matrix(1.3333333,0,0,-1.3333333,286.71013,597.4408)"
     clip-path="url(#clipPath1031-8)" /><path
     id="path1032"
     d="m 218.578,393.809 h 1.312 v -7.806 h -1.312 z"
     style="fill:#ffffff;fill-opacity:1;fill-rule:nonzero;stroke:none"
     transform="matrix(1.3333333,0,0,-1.3333333,0,1122.52)"
     clip-path="url(#clipPath1033-2)" /><path
     id="path1034"
     d="m 0,0 v 4.19 c 0,0.473 -0.207,0.807 -0.679,0.807 -0.46,0 -0.668,-0.334 -0.668,-0.807 V 0 c 0,-0.472 0.208,-0.806 0.668,-0.806 C -0.207,-0.806 0,-0.472 0,0 m -2.66,0.207 v 3.776 c 0,1.221 0.6,2.107 1.981,2.107 1.393,0 1.991,-0.886 1.991,-2.107 V 0.207 c 0,-1.208 -0.598,-2.107 -1.991,-2.107 -1.381,0 -1.981,0.899 -1.981,2.107"
     style="fill:#ffffff;fill-opacity:1;fill-rule:nonzero;stroke:none"
     transform="matrix(1.3333333,0,0,-1.3333333,297.3472,605.43813)"
     clip-path="url(#clipPath1035-7)" /><path
     id="path1036"
     d="m 0,0 v 1.047 h 1.22 v -1.07 c 0,-0.438 0.195,-0.691 0.644,-0.691 0.415,0 0.599,0.277 0.599,0.691 v 0.299 c 0,0.449 -0.184,0.725 -0.587,1.105 L 1.105,2.153 C 0.357,2.89 0.011,3.339 0.011,4.236 v 0.265 c 0,0.967 0.564,1.716 1.842,1.716 1.313,0 1.831,-0.645 1.831,-1.774 V 3.811 H 2.486 V 4.49 C 2.486,4.938 2.279,5.157 1.864,5.157 1.496,5.157 1.243,4.95 1.243,4.513 V 4.352 c 0,-0.438 0.241,-0.691 0.621,-1.06 L 2.705,2.463 C 3.419,1.738 3.764,1.301 3.764,0.437 v -0.38 c 0,-1.07 -0.575,-1.83 -1.911,-1.83 C 0.518,-1.773 0,-1.025 0,0"
     style="fill:#ffffff;fill-opacity:1;fill-rule:nonzero;stroke:none"
     transform="matrix(1.3333333,0,0,-1.3333333,299.61987,605.60653)"
     clip-path="url(#clipPath1037-2)" /><path
     id="path1038"
     d="M 0,0 C 0.55,0 0.76,0.328 0.76,0.807 V 4.958 C 0.76,5.426 0.55,5.753 0,5.753 H -0.561 V 0 Z M 2.093,4.712 V 1.041 c 0,-1.216 -0.503,-2.128 -1.929,-2.128 H -1.894 V 6.84 h 2.058 c 1.426,0 1.929,-0.9 1.929,-2.128"
     style="fill:#ffffff;fill-opacity:1;fill-rule:nonzero;stroke:none"
     transform="matrix(1.3333333,0,0,-1.3333333,228.25547,621.68053)"
     clip-path="url(#clipPath1039-0)" /><path
     id="path1040"
     d="M 0,0 H 3.181 V -1.088 H 1.334 V -3.356 H 2.655 V -4.432 H 1.334 V -6.84 H 3.181 V -7.927 H 0 Z"
     style="fill:#ffffff;fill-opacity:1;fill-rule:nonzero;stroke:none"
     transform="matrix(1.3333333,0,0,-1.3333333,231.88707,612.56013)"
     clip-path="url(#clipPath1041-9)" /><path
     id="path1042"
     d="m 178.768,382.47 h 1.333 v -7.927 h -1.333 z"
     style="fill:#ffffff;fill-opacity:1;fill-rule:nonzero;stroke:none"
     transform="matrix(1.3333333,0,0,-1.3333333,0,1122.52)"
     clip-path="url(#clipPath1043-6)" /><path
     id="path1044"
     d="m 0,0 h -0.035 l -0.9,-5.144 h -0.62 L -2.549,0 h -0.023 v -5.144 h -1.099 v 7.927 h 1.555 l 0.865,-4.466 h 0.012 l 0.771,4.466 H 1.216 V -5.144 H 0 Z"
     style="fill:#ffffff;fill-opacity:1;fill-rule:nonzero;stroke:none"
     transform="matrix(1.3333333,0,0,-1.3333333,245.88613,616.27093)"
     clip-path="url(#clipPath1045-3)" /><path
     id="path1046"
     d="m 0,0 v -3.122 h 0.491 c 0.456,0 0.655,0.222 0.655,0.655 v 1.824 C 1.146,-0.21 0.947,0 0.491,0 Z m -1.333,1.088 h 1.976 c 1.345,0 1.835,-0.667 1.835,-1.778 v -1.672 c 0,-1.11 -0.49,-1.789 -1.835,-1.789 H 0 V -6.84 h -1.333 z"
     style="fill:#ffffff;fill-opacity:1;fill-rule:nonzero;stroke:none"
     transform="matrix(1.3333333,0,0,-1.3333333,250.12613,614.01027)"
     clip-path="url(#clipPath1047-2)" /><path
     id="path1048"
     d="M 0,0 H 1.334 V -6.84 H 2.923 V -7.927 H 0 Z"
     style="fill:#ffffff;fill-opacity:1;fill-rule:nonzero;stroke:none"
     transform="matrix(1.3333333,0,0,-1.3333333,254.16307,612.56013)"
     clip-path="url(#clipPath1049-5)" /><path
     id="path1050"
     d="M 0,0 H 3.181 V -1.088 H 1.333 V -3.356 H 2.654 V -4.432 H 1.333 V -6.84 H 3.181 V -7.927 H 0 Z"
     style="fill:#ffffff;fill-opacity:1;fill-rule:nonzero;stroke:none"
     transform="matrix(1.3333333,0,0,-1.3333333,258.6992,612.56013)"
     clip-path="url(#clipPath1051-8)" /><path
     id="path1052"
     d="m 0,0 h -0.035 l -0.9,-5.144 h -0.62 L -2.549,0 h -0.023 v -5.144 h -1.099 v 7.927 h 1.555 l 0.865,-4.466 h 0.012 l 0.771,4.466 H 1.216 V -5.144 H 0 Z"
     style="fill:#ffffff;fill-opacity:1;fill-rule:nonzero;stroke:none"
     transform="matrix(1.3333333,0,0,-1.3333333,268.59853,616.27093)"
     clip-path="url(#clipPath1053-2)" /><path
     id="path1054"
     d="M 0,0 H 3.18 V -1.088 H 1.332 V -3.356 H 2.654 V -4.432 H 1.332 V -6.84 H 3.18 V -7.927 H 0 Z"
     style="fill:#ffffff;fill-opacity:1;fill-rule:nonzero;stroke:none"
     transform="matrix(1.3333333,0,0,-1.3333333,271.06147,612.56013)"
     clip-path="url(#clipPath1055-4)" /><path
     id="path1056"
     d="M 0,0 V -4.981 H -1.122 V 2.946 H 0.187 L 1.625,-1.602 V 2.946 H 2.736 V -4.981 H 1.567 Z"
     style="fill:#ffffff;fill-opacity:1;fill-rule:nonzero;stroke:none"
     transform="matrix(1.3333333,0,0,-1.3333333,277.56147,616.48867)"
     clip-path="url(#clipPath1057-8)" /><path
     id="path1058"
     d="M 0,0 H 3.542 V -1.088 H 2.444 V -7.927 H 1.098 v 6.839 H 0 Z"
     style="fill:#ffffff;fill-opacity:1;fill-rule:nonzero;stroke:none"
     transform="matrix(1.3333333,0,0,-1.3333333,281.84893,612.56013)"
     clip-path="url(#clipPath1059-4)" /><path
     id="path1060"
     d="M 0,0 H 1.064 L 0.538,3.181 H 0.526 Z m -1.672,-2.513 1.497,7.927 H 1.344 L 2.853,-2.513 H 1.485 l -0.246,1.449 h -1.414 l -0.234,-1.449 z"
     style="fill:#ffffff;fill-opacity:1;fill-rule:nonzero;stroke:none"
     transform="matrix(1.3333333,0,0,-1.3333333,289.17493,619.7788)"
     clip-path="url(#clipPath1061-2)" /><path
     id="path1062"
     d="m 0,0 c 0.374,0.012 0.432,0.094 0.432,0.186 0,0.082 -0.07,0.13 -0.187,0.13 H 0.187 v 0.432 c -1.135,0.14 -1.602,0.994 -1.602,2.105 v 3.834 c 0,1.24 0.584,2.141 1.988,2.141 1.473,0 1.882,-0.819 1.882,-1.988 V 5.904 H 1.239 v 1.041 c 0,0.491 -0.164,0.772 -0.643,0.772 -0.479,0 -0.678,-0.34 -0.678,-0.819 V 2.642 c 0,-0.479 0.199,-0.818 0.678,-0.818 0.479,0 0.643,0.304 0.643,0.771 V 4.057 H 2.455 V 2.689 C 2.455,1.578 2.011,0.76 0.69,0.713 V 0.608 C 1.006,0.561 1.18,0.444 1.18,0.186 1.18,-0.176 0.842,-0.374 0,-0.374 Z"
     style="fill:#ffffff;fill-opacity:1;fill-rule:nonzero;stroke:none"
     transform="matrix(1.3333333,0,0,-1.3333333,295.42613,624.2056)"
     clip-path="url(#clipPath1063-9)" /><path
     id="path1064"
     d="M 0,0 H 1.064 L 0.538,3.181 H 0.526 Z m -0.632,5.73 c 0.024,0.549 0.234,0.994 0.819,0.994 0.339,0 0.62,-0.199 0.795,-0.199 0.093,0 0.164,0.058 0.164,0.175 H 1.8 C 1.777,6.15 1.566,5.706 0.982,5.706 0.643,5.706 0.362,5.904 0.187,5.904 0.094,5.904 0.023,5.846 0.023,5.73 Z m -1.04,-8.243 1.496,7.927 h 1.52 L 2.852,-2.513 H 1.484 L 1.239,-1.064 H -0.176 L -0.41,-2.513 Z"
     style="fill:#ffffff;fill-opacity:1;fill-rule:nonzero;stroke:none"
     transform="matrix(1.3333333,0,0,-1.3333333,301.44333,619.7788)"
     clip-path="url(#clipPath1065-3)" /><path
     id="path1066"
     d="m 0,0 v 4.255 c 0,0.48 -0.21,0.819 -0.69,0.819 -0.468,0 -0.678,-0.339 -0.678,-0.819 V 0 c 0,-0.48 0.21,-0.818 0.678,-0.818 C -0.21,-0.818 0,-0.48 0,0 m -2.701,0.21 v 3.835 c 0,1.24 0.608,2.14 2.011,2.14 1.415,0 2.023,-0.9 2.023,-2.14 V 0.21 c 0,-1.227 -0.608,-2.139 -2.023,-2.139 -1.403,0 -2.011,0.912 -2.011,2.139"
     style="fill:#ffffff;fill-opacity:1;fill-rule:nonzero;stroke:none"
     transform="matrix(1.3333333,0,0,-1.3333333,309.4088,620.68227)"
     clip-path="url(#clipPath1067-6)" /></g></svg>
