<?xml version="1.0" encoding="UTF-8" standalone="no"?>
<!-- Generator: Adobe Illustrator 19.0.0, SVG Export Plug-In . SVG Version: 6.00 Build 0)  -->

<svg
   version="1.1"
   id="Layer_1"
   x="0px"
   y="0px"
   viewBox="0 0 512 512"
   style="enable-background:new 0 0 512 512;"
   xml:space="preserve"
   width="512"
   height="512"
   sodipodi:docname="9.svg"
   inkscape:version="1.4.2 (f4327f4, 2025-05-13)"
   xmlns:inkscape="http://www.inkscape.org/namespaces/inkscape"
   xmlns:sodipodi="http://sodipodi.sourceforge.net/DTD/sodipodi-0.dtd"
   xmlns="http://www.w3.org/2000/svg"
   xmlns:svg="http://www.w3.org/2000/svg"><defs
   id="defs1"><clipPath
     clipPathUnits="userSpaceOnUse"
     id="clipPath561-1"><path
       d="M 0,841.89 H 595.276 V 0 H 0 Z"
       id="path561-9" /></clipPath><clipPath
     clipPathUnits="userSpaceOnUse"
     id="clipPath563-1"><path
       d="M 0,841.89 H 595.276 V 0 H 0 Z"
       transform="translate(-472.82521,-600.10961)"
       id="path563-6" /></clipPath><clipPath
     clipPathUnits="userSpaceOnUse"
     id="clipPath565-2"><path
       d="M 0,841.89 H 595.276 V 0 H 0 Z"
       transform="translate(-481.55311,-589.81702)"
       id="path565-7" /></clipPath><clipPath
     clipPathUnits="userSpaceOnUse"
     id="clipPath567-2"><path
       d="M 0,841.89 H 595.276 V 0 H 0 Z"
       transform="translate(-521.22352,-549.53441)"
       id="path567-7" /></clipPath><clipPath
     clipPathUnits="userSpaceOnUse"
     id="clipPath569-6"><path
       d="M 0,841.89 H 595.276 V 0 H 0 Z"
       transform="translate(-521.43322,-557.46031)"
       id="path569-5" /></clipPath><clipPath
     clipPathUnits="userSpaceOnUse"
     id="clipPath571-1"><path
       d="M 0,841.89 H 595.276 V 0 H 0 Z"
       transform="translate(-532.47832,-555.76751)"
       id="path571-3" /></clipPath><clipPath
     clipPathUnits="userSpaceOnUse"
     id="clipPath573-9"><path
       d="M 0,841.89 H 595.276 V 0 H 0 Z"
       transform="translate(-495.42991,-603.55402)"
       id="path573-9" /></clipPath><clipPath
     clipPathUnits="userSpaceOnUse"
     id="clipPath575-5"><path
       d="M 0,841.89 H 595.276 V 0 H 0 Z"
       transform="translate(-498.70351,-604.64122)"
       id="path575-9" /></clipPath><clipPath
     clipPathUnits="userSpaceOnUse"
     id="clipPath577-2"><path
       d="M 0,841.89 H 595.276 V 0 H 0 Z"
       transform="translate(-504.60791,-597.80161)"
       id="path577-6" /></clipPath><clipPath
     clipPathUnits="userSpaceOnUse"
     id="clipPath579-5"><path
       d="M 0,841.89 H 595.276 V 0 H 0 Z"
       transform="translate(-511.44761,-604.64122)"
       id="path579-3" /></clipPath><clipPath
     clipPathUnits="userSpaceOnUse"
     id="clipPath581-2"><path
       d="M 0,841.89 H 595.276 V 0 H 0 Z"
       transform="translate(-513.73891,-595.90721)"
       id="path581-4" /></clipPath><clipPath
     clipPathUnits="userSpaceOnUse"
     id="clipPath583-4"><path
       d="M 0,841.89 H 595.276 V 0 H 0 Z"
       transform="translate(-518.49701,-599.22772)"
       id="path583-4" /></clipPath><clipPath
     clipPathUnits="userSpaceOnUse"
     id="clipPath585-2"><path
       d="M 0,841.89 H 595.276 V 0 H 0 Z"
       transform="translate(-524.71642,-598.55002)"
       id="path585-7" /></clipPath><clipPath
     clipPathUnits="userSpaceOnUse"
     id="clipPath587-9"><path
       d="M 0,841.89 H 595.276 V 0 H 0 Z"
       transform="translate(-530.16451,-597.80161)"
       id="path587-2" /></clipPath><clipPath
     clipPathUnits="userSpaceOnUse"
     id="clipPath589-3"><path
       d="M 0,841.89 H 595.276 V 0 H 0 Z"
       transform="translate(-534.59542,-599.22772)"
       id="path589-7" /></clipPath><clipPath
     clipPathUnits="userSpaceOnUse"
     id="clipPath591-3"><path
       d="M 0,841.89 H 595.276 V 0 H 0 Z"
       transform="translate(-538.04471,-598.42121)"
       id="path591-1" /></clipPath><clipPath
     clipPathUnits="userSpaceOnUse"
     id="clipPath593-5"><path
       d="M 0,841.89 H 595.276 V 0 H 0 Z"
       transform="translate(-495.99141,-586.44901)"
       id="path593-7" /></clipPath><clipPath
     clipPathUnits="userSpaceOnUse"
     id="clipPath595-8"><path
       d="M 0,841.89 H 595.276 V 0 H 0 Z"
       transform="translate(-498.93721,-593.28911)"
       id="path595-5" /></clipPath><clipPath
     clipPathUnits="userSpaceOnUse"
     id="clipPath597-8"><path
       d="M 0,841.89 H 595.276 V 0 H 0 Z"
       transform="translate(-502.84201,-587.06872)"
       id="path597-3" /></clipPath><clipPath
     clipPathUnits="userSpaceOnUse"
     id="clipPath599-2"><path
       d="M 0,841.89 H 595.276 V 0 H 0 Z"
       id="path599-4" /></clipPath><clipPath
     clipPathUnits="userSpaceOnUse"
     id="clipPath601-1"><path
       d="M 0,841.89 H 595.276 V 0 H 0 Z"
       transform="translate(-511.66901,-589.59431)"
       id="path601-1" /></clipPath><clipPath
     clipPathUnits="userSpaceOnUse"
     id="clipPath603-5"><path
       d="M 0,841.89 H 595.276 V 0 H 0 Z"
       transform="translate(-518.28661,-593.28911)"
       id="path603-9" /></clipPath><clipPath
     clipPathUnits="userSpaceOnUse"
     id="clipPath605-5"><path
       d="M 0,841.89 H 595.276 V 0 H 0 Z"
       transform="translate(-520.58951,-587.87542)"
       id="path605-1" /></clipPath><clipPath
     clipPathUnits="userSpaceOnUse"
     id="clipPath607-0"><path
       d="M 0,841.89 H 595.276 V 0 H 0 Z"
       transform="translate(-524.08522,-593.28911)"
       id="path607-6" /></clipPath><clipPath
     clipPathUnits="userSpaceOnUse"
     id="clipPath609-4"><path
       d="M 0,841.89 H 595.276 V 0 H 0 Z"
       transform="translate(-529.60361,-586.44901)"
       id="path609-5" /></clipPath><clipPath
     clipPathUnits="userSpaceOnUse"
     id="clipPath611-3"><path
       d="M 0,841.89 H 595.276 V 0 H 0 Z"
       transform="translate(-534.01072,-587.87542)"
       id="path611-0" /></clipPath><clipPath
     clipPathUnits="userSpaceOnUse"
     id="clipPath613-8"><path
       d="M 0,841.89 H 595.276 V 0 H 0 Z"
       transform="translate(-539.40061,-586.44901)"
       id="path613-9" /></clipPath><clipPath
     clipPathUnits="userSpaceOnUse"
     id="clipPath615-1"><path
       d="M 0,841.89 H 595.276 V 0 H 0 Z"
       transform="translate(-542.34641,-593.28911)"
       id="path615-3" /></clipPath><clipPath
     clipPathUnits="userSpaceOnUse"
     id="clipPath617-4"><path
       d="M 0,841.89 H 595.276 V 0 H 0 Z"
       transform="translate(-546.25132,-587.06872)"
       id="path617-7" /></clipPath></defs><sodipodi:namedview
   id="namedview1"
   pagecolor="#505050"
   bordercolor="#eeeeee"
   borderopacity="1"
   inkscape:showpageshadow="0"
   inkscape:pageopacity="0"
   inkscape:pagecheckerboard="0"
   inkscape:deskcolor="#505050"
   inkscape:zoom="0.75488281"
   inkscape:cx="391.45149"
   inkscape:cy="382.17853"
   inkscape:window-width="1920"
   inkscape:window-height="991"
   inkscape:window-x="-9"
   inkscape:window-y="-9"
   inkscape:window-maximized="1"
   inkscape:current-layer="Layer_1" />
















<g
   id="g12"
   transform="matrix(4.0065094,0,0,4.0065094,-2475.3466,-1224.2427)"><path
     id="path560"
     d="m 559.114,517.118 h -95.503 v 95.505 h 95.503 z"
     style="fill:#d51666;fill-opacity:1;fill-rule:nonzero;stroke:none"
     transform="matrix(1.3333333,0,0,-1.3333333,0,1122.52)"
     clip-path="url(#clipPath561-1)" /><path
     id="path562"
     d="M 0,0 V -14.755 H 3.241 V 4.52 H 0.653 L -2.331,1.024 v -3.385 h 0.027 L -0.03,0 Z"
     style="fill:#ffffff;fill-opacity:1;fill-rule:nonzero;stroke:none"
     transform="matrix(1.3333333,0,0,-1.3333333,630.4336,322.37387)"
     clip-path="url(#clipPath563-1)" /><path
     id="path564"
     d="m 0,0 v 10.35 c 0,1.165 0.426,1.99 1.535,1.99 1.137,0 1.563,-0.825 1.563,-1.99 V 0 C 3.098,-1.166 2.672,-1.988 1.535,-1.988 0.426,-1.988 0,-1.166 0,0 m 6.34,0.512 v 9.326 c 0,3.014 -1.507,5.203 -4.805,5.203 -3.269,0 -4.777,-2.189 -4.777,-5.203 V 0.512 c 0,-2.984 1.508,-5.202 4.777,-5.202 3.298,0 4.805,2.218 4.805,5.202"
     style="fill:#ffffff;fill-opacity:1;fill-rule:nonzero;stroke:none"
     transform="matrix(1.3333333,0,0,-1.3333333,642.0708,336.09733)"
     clip-path="url(#clipPath565-2)" /><path
     id="path566"
     d="m 0,0 h -19.09 c -0.115,0 -0.208,-0.094 -0.208,-0.208 v -4.325 c 0,-0.117 0.093,-0.209 0.208,-0.209 H 0 c 0.117,0 0.209,0.092 0.209,0.209 v 4.325 C 0.209,-0.094 0.117,0 0,0"
     style="fill:#ffffff;fill-opacity:1;fill-rule:nonzero;stroke:none"
     transform="matrix(1.3333333,0,0,-1.3333333,694.96467,389.80747)"
     clip-path="url(#clipPath567-2)" /><path
     id="path568"
     d="M 0,0 C 0,0.115 -0.093,0.208 -0.21,0.208 H -16.036 -19.3 c -0.114,0 -0.207,-0.093 -0.207,-0.208 v -1.704 -2.623 c 0,-0.114 0.093,-0.207 0.207,-0.207 h 19.09 c 0.117,0 0.21,0.093 0.21,0.207 z"
     style="fill:#ffffff;fill-opacity:1;fill-rule:nonzero;stroke:none"
     transform="matrix(1.3333333,0,0,-1.3333333,695.24427,379.2396)"
     clip-path="url(#clipPath569-6)" /><path
     id="path570"
     d="M 0,0 C -0.782,3.145 -2.208,5.958 -4.093,8.35 L -4.136,8.317 c 0.614,-0.912 1.163,-1.878 1.631,-2.898 2.477,-4.541 3.235,-10.021 1.673,-15.38 -3.136,-10.751 -14.392,-16.925 -25.143,-13.791 -4.518,1.319 -8.225,4.076 -10.775,7.625 -1.594,2.049 -2.799,4.452 -3.466,7.129 -2.551,10.259 3.694,20.645 13.954,23.198 6.345,1.579 12.728,-0.221 17.287,-4.245 0.041,-0.036 0.08,-0.073 0.121,-0.109 0.123,-0.092 0.27,-0.158 0.436,-0.158 0.184,0 0.347,0.074 0.477,0.186 l 0.077,0.075 2.429,2.4 0.16,0.157 c 0.091,0.123 0.155,0.268 0.155,0.432 0,0.191 -0.077,0.36 -0.196,0.493 -0.025,0.023 -0.051,0.046 -0.077,0.069 -5.607,5.01 -13.504,7.26 -21.352,5.308 -12.602,-3.136 -20.275,-15.895 -17.14,-28.497 1.315,-5.282 4.322,-9.69 8.295,-12.808 3.959,-3.245 9,-5.088 14.282,-5.033 1.7,0.018 3.422,0.227 5.144,0.656 C -4.279,-23.917 2.957,-11.885 0,0"
     style="fill:#ffffff;fill-opacity:1;fill-rule:nonzero;stroke:none"
     transform="matrix(1.3333333,0,0,-1.3333333,709.97107,381.49667)"
     clip-path="url(#clipPath571-1)" /><path
     id="path572"
     d="m 0,0 v -2.467 h 0.445 c 0.455,0 0.654,0.234 0.654,0.655 v 1.169 C 1.099,-0.21 0.9,0 0.445,0 Z M 0,-3.204 V -6.84 h -1.333 v 7.927 h 1.941 c 1.345,0 1.836,-0.666 1.836,-1.777 V -1.708 C 2.444,-2.561 2.14,-3.063 1.38,-3.239 L 2.655,-6.84 H 1.251 Z"
     style="fill:#ffffff;fill-opacity:1;fill-rule:nonzero;stroke:none"
     transform="matrix(1.3333333,0,0,-1.3333333,660.5732,317.78133)"
     clip-path="url(#clipPath573-9)" /><path
     id="path574"
     d="M 0,0 H 3.18 V -1.087 H 1.333 V -3.356 H 2.654 V -4.431 H 1.333 V -6.84 H 3.18 V -7.927 H 0 Z"
     style="fill:#ffffff;fill-opacity:1;fill-rule:nonzero;stroke:none"
     transform="matrix(1.3333333,0,0,-1.3333333,664.938,316.33173)"
     clip-path="url(#clipPath575-5)" /><path
     id="path576"
     d="m 0,0 c 0.549,0 0.76,0.328 0.76,0.807 v 4.15 C 0.76,5.425 0.549,5.752 0,5.752 H -0.562 V 0 Z M 2.092,4.712 V 1.04 c 0,-1.216 -0.502,-2.128 -1.929,-2.128 H -1.894 V 6.84 h 2.057 c 1.427,0 1.929,-0.901 1.929,-2.128"
     style="fill:#ffffff;fill-opacity:1;fill-rule:nonzero;stroke:none"
     transform="matrix(1.3333333,0,0,-1.3333333,672.81053,325.4512)"
     clip-path="url(#clipPath577-2)" /><path
     id="path578"
     d="m 0,0 v -5.998 c 0,-1.228 -0.527,-2.023 -1.883,-2.023 -1.403,0 -1.988,0.795 -1.988,2.023 V 0 h 1.334 v -6.126 c 0,-0.468 0.186,-0.784 0.654,-0.784 0.468,0 0.655,0.316 0.655,0.784 V 0 Z"
     style="fill:#ffffff;fill-opacity:1;fill-rule:nonzero;stroke:none"
     transform="matrix(1.3333333,0,0,-1.3333333,681.93013,316.33173)"
     clip-path="url(#clipPath579-5)" /><path
     id="path580"
     d="m 0,0 c 0.374,0.012 0.432,0.094 0.432,0.187 0,0.082 -0.069,0.129 -0.187,0.129 H 0.186 v 0.432 c -1.134,0.141 -1.601,0.994 -1.601,2.105 v 3.835 c 0,1.239 0.584,2.14 1.988,2.14 1.473,0 1.882,-0.819 1.882,-1.988 V 5.904 H 1.239 v 1.041 c 0,0.491 -0.164,0.772 -0.643,0.772 -0.479,0 -0.678,-0.339 -0.678,-0.819 V 2.643 c 0,-0.48 0.199,-0.819 0.678,-0.819 0.479,0 0.643,0.304 0.643,0.772 V 4.057 H 2.455 V 2.689 C 2.455,1.578 2.011,0.76 0.69,0.713 V 0.608 C 1.006,0.561 1.18,0.444 1.18,0.187 1.18,-0.175 0.842,-0.374 0,-0.374 Z"
     style="fill:#ffffff;fill-opacity:1;fill-rule:nonzero;stroke:none"
     transform="matrix(1.3333333,0,0,-1.3333333,684.9852,327.97707)"
     clip-path="url(#clipPath581-2)" /><path
     id="path582"
     d="M 0,0 H 1.064 L 0.538,3.18 H 0.526 Z m -0.631,5.729 c 0.023,0.55 0.233,0.994 0.818,0.994 0.339,0 0.62,-0.199 0.795,-0.199 0.094,0 0.164,0.059 0.164,0.176 H 1.801 C 1.778,6.15 1.567,5.706 0.982,5.706 0.643,5.706 0.363,5.905 0.187,5.905 0.094,5.905 0.023,5.846 0.023,5.729 Z m -1.041,-8.243 1.496,7.928 h 1.52 L 2.853,-2.514 H 1.485 l -0.246,1.45 h -1.415 l -0.233,-1.45 z"
     style="fill:#ffffff;fill-opacity:1;fill-rule:nonzero;stroke:none"
     transform="matrix(1.3333333,0,0,-1.3333333,691.32933,323.54973)"
     clip-path="url(#clipPath583-4)" /><path
     id="path584"
     d="m 0,0 v 4.256 c 0,0.479 -0.21,0.818 -0.689,0.818 -0.468,0 -0.679,-0.339 -0.679,-0.818 V 0 c 0,-0.48 0.211,-0.819 0.679,-0.819 C -0.21,-0.819 0,-0.48 0,0 m -2.7,0.21 v 3.835 c 0,1.239 0.608,2.14 2.011,2.14 1.415,0 2.023,-0.901 2.023,-2.14 V 0.21 c 0,-1.228 -0.608,-2.14 -2.023,-2.14 -1.403,0 -2.011,0.912 -2.011,2.14"
     style="fill:#ffffff;fill-opacity:1;fill-rule:nonzero;stroke:none"
     transform="matrix(1.3333333,0,0,-1.3333333,699.62187,324.45333)"
     clip-path="url(#clipPath585-2)" /><path
     id="path586"
     d="m 0,0 c 0.55,0 0.76,0.328 0.76,0.807 v 4.15 C 0.76,5.425 0.55,5.752 0,5.752 H -0.561 V 0 Z M 2.093,4.712 V 1.04 c 0,-1.216 -0.503,-2.128 -1.929,-2.128 H -1.894 V 6.84 h 2.058 c 1.426,0 1.929,-0.901 1.929,-2.128"
     style="fill:#ffffff;fill-opacity:1;fill-rule:nonzero;stroke:none"
     transform="matrix(1.3333333,0,0,-1.3333333,706.886,325.4512)"
     clip-path="url(#clipPath587-9)" /><path
     id="path588"
     d="M 0,0 H 1.064 L 0.538,3.18 H 0.526 Z m -1.672,-2.514 1.497,7.928 H 1.344 L 2.853,-2.514 H 1.485 l -0.245,1.45 h -1.415 l -0.234,-1.45 z"
     style="fill:#ffffff;fill-opacity:1;fill-rule:nonzero;stroke:none"
     transform="matrix(1.3333333,0,0,-1.3333333,712.79387,323.54973)"
     clip-path="url(#clipPath589-3)" /><path
     id="path590"
     d="m 0,0 v 1.064 h 1.239 v -1.088 c 0,-0.444 0.199,-0.701 0.655,-0.701 0.42,0 0.608,0.281 0.608,0.701 V 0.28 c 0,0.456 -0.188,0.737 -0.597,1.123 L 1.122,2.186 C 0.362,2.935 0.012,3.39 0.012,4.302 v 0.27 c 0,0.982 0.572,1.742 1.87,1.742 1.333,0 1.859,-0.655 1.859,-1.801 V 3.87 H 2.526 V 4.56 C 2.526,5.016 2.314,5.238 1.894,5.238 1.52,5.238 1.262,5.027 1.262,4.583 V 4.419 c 0,-0.444 0.246,-0.701 0.632,-1.075 L 2.748,2.502 C 3.472,1.765 3.823,1.321 3.823,0.444 V 0.058 C 3.823,-1.029 3.238,-1.801 1.882,-1.801 0.526,-1.801 0,-1.041 0,0"
     style="fill:#ffffff;fill-opacity:1;fill-rule:nonzero;stroke:none"
     transform="matrix(1.3333333,0,0,-1.3333333,717.39293,324.62507)"
     clip-path="url(#clipPath591-3)" /><path
     id="path592"
     d="M 0,0 C 0.549,0 0.76,0.327 0.76,0.807 V 4.958 C 0.76,5.425 0.549,5.752 0,5.752 H -0.562 V 0 Z M 2.093,4.712 V 1.041 c 0,-1.217 -0.503,-2.129 -1.93,-2.129 H -1.894 V 6.84 h 2.057 c 1.427,0 1.93,-0.9 1.93,-2.128"
     style="fill:#ffffff;fill-opacity:1;fill-rule:nonzero;stroke:none"
     transform="matrix(1.3333333,0,0,-1.3333333,661.32187,340.588)"
     clip-path="url(#clipPath593-5)" /><path
     id="path594"
     d="M 0,0 H 3.18 V -1.088 H 1.333 V -3.356 H 2.654 V -4.431 H 1.333 V -6.84 H 3.18 V -7.928 H 0 Z"
     style="fill:#ffffff;fill-opacity:1;fill-rule:nonzero;stroke:none"
     transform="matrix(1.3333333,0,0,-1.3333333,665.2496,331.46787)"
     clip-path="url(#clipPath595-8)" /><path
     id="path596"
     d="m 0,0 v 1.064 h 1.239 v -1.087 c 0,-0.444 0.199,-0.702 0.655,-0.702 0.421,0 0.608,0.281 0.608,0.702 v 0.304 c 0,0.456 -0.187,0.737 -0.596,1.122 L 1.122,2.186 C 0.363,2.935 0.012,3.391 0.012,4.303 v 0.269 c 0,0.982 0.573,1.742 1.871,1.742 1.333,0 1.859,-0.655 1.859,-1.8 V 3.87 H 2.526 v 0.69 c 0,0.456 -0.211,0.678 -0.632,0.678 -0.374,0 -0.631,-0.21 -0.631,-0.655 V 4.42 c 0,-0.444 0.245,-0.702 0.631,-1.076 L 2.748,2.502 C 3.473,1.766 3.824,1.321 3.824,0.445 V 0.059 C 3.824,-1.029 3.239,-1.8 1.883,-1.8 0.527,-1.8 0,-1.04 0,0"
     style="fill:#ffffff;fill-opacity:1;fill-rule:nonzero;stroke:none"
     transform="matrix(1.3333333,0,0,-1.3333333,670.456,339.76173)"
     clip-path="url(#clipPath597-8)" /><path
     id="path598"
     d="m 507.46,593.289 h 1.333 v -7.928 h -1.333 z"
     style="fill:#ffffff;fill-opacity:1;fill-rule:nonzero;stroke:none"
     transform="matrix(1.3333333,0,0,-1.3333333,0,1122.52)"
     clip-path="url(#clipPath599-2)" /><path
     id="path600"
     d="M 0,0 H 1.894 V -4.233 H 0.936 v 0.866 c -0.176,-0.597 -0.55,-0.959 -1.275,-0.959 -1.145,0 -1.672,0.912 -1.672,2.139 v 3.836 c 0,1.239 0.597,2.139 1.999,2.139 1.474,0 1.906,-0.818 1.906,-1.987 V 1.099 H 0.678 v 0.807 c 0,0.491 -0.187,0.772 -0.666,0.772 -0.479,0 -0.69,-0.34 -0.69,-0.819 v -4.256 c 0,-0.479 0.199,-0.819 0.655,-0.819 0.433,0 0.655,0.246 0.655,0.761 v 1.403 H 0 Z"
     style="fill:#ffffff;fill-opacity:1;fill-rule:nonzero;stroke:none"
     transform="matrix(1.3333333,0,0,-1.3333333,682.22533,336.39427)"
     clip-path="url(#clipPath601-1)" /><path
     id="path602"
     d="m 0,0 v -5.998 c 0,-1.228 -0.526,-2.023 -1.883,-2.023 -1.403,0 -1.987,0.795 -1.987,2.023 V 0 h 1.333 v -6.127 c 0,-0.468 0.187,-0.783 0.654,-0.783 0.468,0 0.655,0.315 0.655,0.783 V 0 Z"
     style="fill:#ffffff;fill-opacity:1;fill-rule:nonzero;stroke:none"
     transform="matrix(1.3333333,0,0,-1.3333333,691.0488,331.46787)"
     clip-path="url(#clipPath603-5)" /><path
     id="path604"
     d="M 0,0 H 1.064 L 0.538,3.18 H 0.526 Z m -1.672,-2.514 1.496,7.928 h 1.52 L 2.853,-2.514 H 1.485 l -0.246,1.45 h -1.415 l -0.233,-1.45 z"
     style="fill:#ffffff;fill-opacity:1;fill-rule:nonzero;stroke:none"
     transform="matrix(1.3333333,0,0,-1.3333333,694.11933,338.68613)"
     clip-path="url(#clipPath605-5)" /><path
     id="path606"
     d="m 0,0 h 1.333 v -6.84 h 1.59 V -7.928 H 0 Z"
     style="fill:#ffffff;fill-opacity:1;fill-rule:nonzero;stroke:none"
     transform="matrix(1.3333333,0,0,-1.3333333,698.78027,331.46787)"
     clip-path="url(#clipPath607-0)" /><path
     id="path608"
     d="M 0,0 C 0.549,0 0.76,0.327 0.76,0.807 V 4.958 C 0.76,5.425 0.549,5.752 0,5.752 H -0.562 V 0 Z M 2.093,4.712 V 1.041 c 0,-1.217 -0.503,-2.129 -1.93,-2.129 H -1.894 V 6.84 h 2.057 c 1.427,0 1.93,-0.9 1.93,-2.128"
     style="fill:#ffffff;fill-opacity:1;fill-rule:nonzero;stroke:none"
     transform="matrix(1.3333333,0,0,-1.3333333,706.13813,340.588)"
     clip-path="url(#clipPath609-4)" /><path
     id="path610"
     d="M 0,0 H 1.064 L 0.538,3.18 H 0.527 Z m -1.672,-2.514 1.497,7.928 h 1.52 L 2.853,-2.514 H 1.485 l -0.245,1.45 h -1.415 l -0.234,-1.45 z"
     style="fill:#ffffff;fill-opacity:1;fill-rule:nonzero;stroke:none"
     transform="matrix(1.3333333,0,0,-1.3333333,712.01427,338.68613)"
     clip-path="url(#clipPath611-3)" /><path
     id="path612"
     d="M 0,0 C 0.549,0 0.76,0.327 0.76,0.807 V 4.958 C 0.76,5.425 0.549,5.752 0,5.752 H -0.562 V 0 Z M 2.093,4.712 V 1.041 c 0,-1.217 -0.503,-2.129 -1.93,-2.129 H -1.894 V 6.84 h 2.057 c 1.427,0 1.93,-0.9 1.93,-2.128"
     style="fill:#ffffff;fill-opacity:1;fill-rule:nonzero;stroke:none"
     transform="matrix(1.3333333,0,0,-1.3333333,719.2008,340.588)"
     clip-path="url(#clipPath613-8)" /><path
     id="path614"
     d="M 0,0 H 3.181 V -1.088 H 1.333 V -3.356 H 2.654 V -4.431 H 1.333 V -6.84 H 3.181 V -7.928 H 0 Z"
     style="fill:#ffffff;fill-opacity:1;fill-rule:nonzero;stroke:none"
     transform="matrix(1.3333333,0,0,-1.3333333,723.12853,331.46787)"
     clip-path="url(#clipPath615-1)" /><path
     id="path616"
     d="m 0,0 v 1.064 h 1.239 v -1.087 c 0,-0.444 0.199,-0.702 0.655,-0.702 0.421,0 0.608,0.281 0.608,0.702 v 0.304 c 0,0.456 -0.187,0.737 -0.596,1.122 L 1.122,2.186 C 0.363,2.935 0.012,3.391 0.012,4.303 v 0.269 c 0,0.982 0.573,1.742 1.871,1.742 1.333,0 1.859,-0.655 1.859,-1.8 V 3.87 H 2.526 v 0.69 c 0,0.456 -0.211,0.678 -0.632,0.678 -0.374,0 -0.631,-0.21 -0.631,-0.655 V 4.42 c 0,-0.444 0.245,-0.702 0.631,-1.076 L 2.748,2.502 C 3.472,1.766 3.824,1.321 3.824,0.445 V 0.059 C 3.824,-1.029 3.239,-1.8 1.883,-1.8 0.527,-1.8 0,-1.04 0,0"
     style="fill:#ffffff;fill-opacity:1;fill-rule:nonzero;stroke:none"
     transform="matrix(1.3333333,0,0,-1.3333333,728.33507,339.76173)"
     clip-path="url(#clipPath617-4)" /></g></svg>
