<?xml version="1.0" encoding="UTF-8" standalone="no"?>
<!-- Generator: Adobe Illustrator 19.0.0, SVG Export Plug-In . SVG Version: 6.00 Build 0)  -->

<svg
   version="1.1"
   id="Layer_1"
   x="0px"
   y="0px"
   viewBox="0 0 512 512"
   style="enable-background:new 0 0 512 512;"
   xml:space="preserve"
   width="512"
   height="512"
   sodipodi:docname="5.svg"
   inkscape:version="1.4.2 (f4327f4, 2025-05-13)"
   xmlns:inkscape="http://www.inkscape.org/namespaces/inkscape"
   xmlns:sodipodi="http://sodipodi.sourceforge.net/DTD/sodipodi-0.dtd"
   xmlns="http://www.w3.org/2000/svg"
   xmlns:svg="http://www.w3.org/2000/svg"><defs
   id="defs1"><clipPath
     clipPathUnits="userSpaceOnUse"
     id="clipPath281-8"><path
       d="M 0,841.89 H 595.276 V 0 H 0 Z"
       id="path281-1" /></clipPath><clipPath
     clipPathUnits="userSpaceOnUse"
     id="clipPath283-9"><path
       d="M 0,841.89 H 595.276 V 0 H 0 Z"
       transform="translate(-45.232501,-590.60801)"
       id="path283-5" /></clipPath><clipPath
     clipPathUnits="userSpaceOnUse"
     id="clipPath285-3"><path
       d="M 0,841.89 H 595.276 V 0 H 0 Z"
       transform="translate(-95.2294,-563.99941)"
       id="path285-2" /></clipPath><clipPath
     clipPathUnits="userSpaceOnUse"
     id="clipPath287-5"><path
       d="M 0,841.89 H 595.276 V 0 H 0 Z"
       transform="translate(-59.667401,-590.58401)"
       id="path287-2" /></clipPath><clipPath
     clipPathUnits="userSpaceOnUse"
     id="clipPath289-5"><path
       d="M 0,841.89 H 595.276 V 0 H 0 Z"
       transform="translate(-64.629202,-584.45791)"
       id="path289-8" /></clipPath><clipPath
     clipPathUnits="userSpaceOnUse"
     id="clipPath291-6"><path
       d="M 0,841.89 H 595.276 V 0 H 0 Z"
       transform="translate(-70.513102,-585.25241)"
       id="path291-7" /></clipPath><clipPath
     clipPathUnits="userSpaceOnUse"
     id="clipPath293-7"><path
       d="M 0,841.89 H 595.276 V 0 H 0 Z"
       transform="translate(-74.968602,-587.68201)"
       id="path293-2" /></clipPath><clipPath
     clipPathUnits="userSpaceOnUse"
     id="clipPath295-2"><path
       d="M 0,841.89 H 595.276 V 0 H 0 Z"
       transform="translate(-78.410904,-590.58401)"
       id="path295-9" /></clipPath><clipPath
     clipPathUnits="userSpaceOnUse"
     id="clipPath297-4"><path
       d="M 0,841.89 H 595.276 V 0 H 0 Z"
       transform="translate(-83.672605,-585.25241)"
       id="path297-1" /></clipPath><clipPath
     clipPathUnits="userSpaceOnUse"
     id="clipPath299-9"><path
       d="M 0,841.89 H 595.276 V 0 H 0 Z"
       transform="translate(-90.638605,-587.84332)"
       id="path299-6" /></clipPath><clipPath
     clipPathUnits="userSpaceOnUse"
     id="clipPath301-9"><path
       d="M 0,841.89 H 595.276 V 0 H 0 Z"
       transform="translate(-92.583602,-590.58401)"
       id="path301-8" /></clipPath><clipPath
     clipPathUnits="userSpaceOnUse"
     id="clipPath303-2"><path
       d="M 0,841.89 H 595.276 V 0 H 0 Z"
       transform="translate(-97.5118,-587.68201)"
       id="path303-5" /></clipPath><clipPath
     clipPathUnits="userSpaceOnUse"
     id="clipPath305-5"><path
       d="M 0,841.89 H 595.276 V 0 H 0 Z"
       transform="translate(-100.8046,-590.58401)"
       id="path305-4" /></clipPath><clipPath
     clipPathUnits="userSpaceOnUse"
     id="clipPath307-9"><path
       d="M 0,841.89 H 595.276 V 0 H 0 Z"
       transform="translate(-107.563,-584.58472)"
       id="path307-1" /></clipPath><clipPath
     clipPathUnits="userSpaceOnUse"
     id="clipPath309-2"><path
       d="M 0,841.89 H 595.276 V 0 H 0 Z"
       transform="translate(-61.049501,-596.76622)"
       id="path309-5" /></clipPath><clipPath
     clipPathUnits="userSpaceOnUse"
     id="clipPath311-0"><path
       d="M 0,841.89 H 595.276 V 0 H 0 Z"
       transform="translate(-66.494902,-598.45871)"
       id="path311-8" /></clipPath><clipPath
     clipPathUnits="userSpaceOnUse"
     id="clipPath313-3"><path
       d="M 0,841.89 H 595.276 V 0 H 0 Z"
       transform="translate(-73.034602,-602.09752)"
       id="path313-9" /></clipPath><clipPath
     clipPathUnits="userSpaceOnUse"
     id="clipPath315-3"><path
       d="M 0,841.89 H 595.276 V 0 H 0 Z"
       transform="translate(-75.325899,-596.76622)"
       id="path315-9" /></clipPath><clipPath
     clipPathUnits="userSpaceOnUse"
     id="clipPath317-6"><path
       d="M 0,841.89 H 595.276 V 0 H 0 Z"
       transform="translate(-81.416102,-601.02662)"
       id="path317-7" /></clipPath><clipPath
     clipPathUnits="userSpaceOnUse"
     id="clipPath319-9"><path
       d="M 0,841.89 H 595.276 V 0 H 0 Z"
       transform="translate(-87.311005,-596.09842)"
       id="path319-9" /></clipPath><clipPath
     clipPathUnits="userSpaceOnUse"
     id="clipPath321-7"><path
       d="M 0,841.89 H 595.276 V 0 H 0 Z"
       transform="translate(-89.337302,-602.09752)"
       id="path321-6" /></clipPath><clipPath
     clipPathUnits="userSpaceOnUse"
     id="clipPath323-9"><path
       d="M 0,841.89 H 595.276 V 0 H 0 Z"
       transform="translate(-94.9903,-596.76622)"
       id="path323-3" /></clipPath><clipPath
     clipPathUnits="userSpaceOnUse"
     id="clipPath325-5"><path
       d="M 0,841.89 H 595.276 V 0 H 0 Z"
       transform="translate(-102.65871,-602.09752)"
       id="path325-7" /></clipPath><clipPath
     clipPathUnits="userSpaceOnUse"
     id="clipPath327-6"><path
       d="M 0,841.89 H 595.276 V 0 H 0 Z"
       transform="translate(-103.31451,-602.09752)"
       id="path327-6" /></clipPath><clipPath
     clipPathUnits="userSpaceOnUse"
     id="clipPath329-5"><path
       d="M 0,841.89 H 595.276 V 0 H 0 Z"
       transform="translate(-107.2522,-602.09752)"
       id="path329-8" /></clipPath></defs><sodipodi:namedview
   id="namedview1"
   pagecolor="#505050"
   bordercolor="#eeeeee"
   borderopacity="1"
   inkscape:showpageshadow="0"
   inkscape:pageopacity="0"
   inkscape:pagecheckerboard="0"
   inkscape:deskcolor="#505050"
   inkscape:zoom="1.0675655"
   inkscape:cx="249.63339"
   inkscape:cy="270.24103"
   inkscape:window-width="1920"
   inkscape:window-height="991"
   inkscape:window-x="-9"
   inkscape:window-y="-9"
   inkscape:window-maximized="1"
   inkscape:current-layer="Layer_1" />
















<g
   id="g8"
   transform="matrix(4.0084704,0,0,4.0084704,-172.21342,-1238.0825)"><path
     id="path280"
     d="M 127.791,514.518 H 32.288 v 95.509 h 95.503 z"
     style="fill:#3fb8d4;fill-opacity:1;fill-rule:nonzero;stroke:none"
     transform="matrix(1.3333333,0,0,-1.3333333,0,1122.52)"
     clip-path="url(#clipPath281-8)" /><path
     id="path282"
     d="m 0,0 c 0.057,1.078 0.511,1.76 1.534,1.76 1.106,0 1.533,-0.682 1.533,-1.932 V -3.523 C 3.067,-4.744 2.614,-5.454 1.506,-5.454 0.426,-5.454 0,-4.716 0,-3.523 Z m 1.506,-8.096 c 3.435,0 4.771,1.875 4.771,4.858 v 2.84 c 0,3.153 -1.25,4.743 -3.58,4.743 C 1.334,4.345 0.511,3.72 0.028,2.782 H 0 V 6.93 c 0,1.165 0.37,1.988 1.534,1.988 1.163,0 1.505,-0.683 1.505,-1.875 V 5.765 h 2.954 v 1.022 c 0,2.842 -0.938,4.829 -4.516,4.829 -3.408,0 -4.687,-2.186 -4.687,-5.197 v -9.373 c 0,-2.983 1.307,-5.142 4.716,-5.142"
     style="fill:#ffffff;fill-opacity:1;fill-rule:nonzero;stroke:none"
     transform="matrix(1.3333333,0,0,-1.3333333,60.31,335.04267)"
     clip-path="url(#clipPath283-9)" /><path
     id="path284"
     d="m 0,0 c -0.939,0.414 -2.129,0.265 -3.272,-0.198 -4.3,-1.743 -7.225,-2.37 -11.748,-0.953 -2.846,0.891 -5.511,2.758 -8.661,1.621 -2.089,-0.753 -4.037,-1.47 -6.4,-1.451 l -1.364,6.997 H 0.981 Z m -10.992,-20.779 c 0,0 -1.574,-1.616 -4.134,-1.441 -2.567,-0.175 -4.138,1.441 -4.138,1.441 -2.597,2.594 -1.67,5.82 -0.767,7.488 0.558,1.044 4.546,7.033 4.89,7.543 v 0.04 c 0,0 0.005,-0.008 0.015,-0.019 l 0.014,0.019 v -0.04 c 0.334,-0.51 4.329,-6.499 4.887,-7.543 0.904,-1.668 1.827,-4.894 -0.767,-7.488 M 2.4,7.408 C 2.319,7.495 2.21,7.545 2.086,7.545 h -34.648 c -0.12,0 -0.23,-0.05 -0.312,-0.137 C -32.95,7.311 -32.98,7.191 -32.96,7.08 l 5.821,-35.207 c 0.032,-0.195 0.203,-0.34 0.399,-0.34 h 7.145 l 0.489,-5.734 -3.007,-0.003 6.996,-6.996 7.012,7.011 -3.006,-0.003 0.488,5.725 h 7.271 c 0.199,0 0.367,0.145 0.397,0.345 L 2.491,7.08 C 2.509,7.2 2.475,7.316 2.4,7.408"
     style="fill:#ffffff;fill-opacity:1;fill-rule:nonzero;stroke:none"
     transform="matrix(1.3333333,0,0,-1.3333333,126.97253,370.5208)"
     clip-path="url(#clipPath285-3)" /><path
     id="path286"
     d="M 0,0 H 3.132 V -1.071 H 1.312 V -3.305 H 2.614 V -4.364 H 1.312 v -2.372 h 1.82 V -7.807 H 0 Z"
     style="fill:#ffffff;fill-opacity:1;fill-rule:nonzero;stroke:none"
     transform="matrix(1.3333333,0,0,-1.3333333,79.556533,335.07467)"
     clip-path="url(#clipPath287-5)" /><path
     id="path288"
     d="m 0,0 v 1.048 h 1.221 v -1.071 c 0,-0.437 0.196,-0.691 0.645,-0.691 0.414,0 0.599,0.276 0.599,0.691 v 0.299 c 0,0.45 -0.185,0.726 -0.588,1.106 L 1.106,2.153 C 0.357,2.89 0.012,3.339 0.012,4.238 v 0.264 c 0,0.968 0.564,1.716 1.842,1.716 1.313,0 1.831,-0.645 1.831,-1.773 V 3.812 H 2.487 V 4.491 C 2.487,4.94 2.28,5.158 1.866,5.158 1.497,5.158 1.244,4.951 1.244,4.514 V 4.353 c 0,-0.438 0.242,-0.691 0.622,-1.06 L 2.707,2.464 C 3.42,1.739 3.766,1.301 3.766,0.437 V 0.058 C 3.766,-1.013 3.19,-1.773 1.854,-1.773 0.518,-1.773 0,-1.025 0,0"
     style="fill:#ffffff;fill-opacity:1;fill-rule:nonzero;stroke:none"
     transform="matrix(1.3333333,0,0,-1.3333333,86.172267,343.2428)"
     clip-path="url(#clipPath289-5)" /><path
     id="path290"
     d="M 0,0 H 1.048 L 0.529,3.132 H 0.518 Z m -1.646,-2.476 1.473,7.808 H 1.325 L 2.81,-2.476 H 1.463 l -0.242,1.428 h -1.394 l -0.23,-1.428 z"
     style="fill:#ffffff;fill-opacity:1;fill-rule:nonzero;stroke:none"
     transform="matrix(1.3333333,0,0,-1.3333333,94.017467,342.18347)"
     clip-path="url(#clipPath291-6)" /><path
     id="path292"
     d="m 0,0 v -4.905 h -1.105 v 7.807 h 1.289 l 1.417,-4.48 v 4.48 H 2.694 V -4.905 H 1.543 Z"
     style="fill:#ffffff;fill-opacity:1;fill-rule:nonzero;stroke:none"
     transform="matrix(1.3333333,0,0,-1.3333333,99.958133,338.944)"
     clip-path="url(#clipPath293-7)" /><path
     id="path294"
     d="M 0,0 H 3.132 V -1.071 H 1.313 V -3.305 H 2.614 V -4.364 H 1.313 V -6.736 H 3.132 V -7.807 H 0 Z"
     style="fill:#ffffff;fill-opacity:1;fill-rule:nonzero;stroke:none"
     transform="matrix(1.3333333,0,0,-1.3333333,104.54787,335.07467)"
     clip-path="url(#clipPath295-2)" /><path
     id="path296"
     d="M 0,0 H 1.048 L 0.53,3.132 H 0.518 Z m -1.646,-2.476 1.474,7.808 H 1.325 L 2.81,-2.476 H 1.463 l -0.242,1.428 h -1.393 l -0.23,-1.428 z"
     style="fill:#ffffff;fill-opacity:1;fill-rule:nonzero;stroke:none"
     transform="matrix(1.3333333,0,0,-1.3333333,111.56347,342.18347)"
     clip-path="url(#clipPath297-4)" /><path
     id="path298"
     d="M 0,0 H -0.035 L -0.921,-5.067 H -1.532 L -2.511,0 h -0.023 v -5.067 h -1.082 v 7.808 h 1.532 l 0.852,-4.399 h 0.011 l 0.76,4.399 H 1.198 V -5.067 H 0 Z"
     style="fill:#ffffff;fill-opacity:1;fill-rule:nonzero;stroke:none"
     transform="matrix(1.3333333,0,0,-1.3333333,120.85147,338.72893)"
     clip-path="url(#clipPath299-9)" /><path
     id="path300"
     d="M 0,0 H 3.132 V -1.071 H 1.313 V -3.305 H 2.614 V -4.364 H 1.313 V -6.736 H 3.132 V -7.807 H 0 Z"
     style="fill:#ffffff;fill-opacity:1;fill-rule:nonzero;stroke:none"
     transform="matrix(1.3333333,0,0,-1.3333333,123.4448,335.07467)"
     clip-path="url(#clipPath301-9)" /><path
     id="path302"
     d="m 0,0 v -4.905 h -1.105 v 7.807 h 1.289 l 1.417,-4.48 v 4.48 H 2.694 V -4.905 H 1.543 Z"
     style="fill:#ffffff;fill-opacity:1;fill-rule:nonzero;stroke:none"
     transform="matrix(1.3333333,0,0,-1.3333333,130.01573,338.944)"
     clip-path="url(#clipPath303-2)" /><path
     id="path304"
     d="M 0,0 H 3.489 V -1.071 H 2.406 V -7.807 H 1.082 v 6.736 H 0 Z"
     style="fill:#ffffff;fill-opacity:1;fill-rule:nonzero;stroke:none"
     transform="matrix(1.3333333,0,0,-1.3333333,134.40613,335.07467)"
     clip-path="url(#clipPath305-5)" /><path
     id="path306"
     d="m 0,0 v 4.191 c 0,0.473 -0.207,0.806 -0.68,0.806 -0.46,0 -0.667,-0.333 -0.667,-0.806 V 0 c 0,-0.472 0.207,-0.806 0.667,-0.806 C -0.207,-0.806 0,-0.472 0,0 m -2.66,0.207 v 3.777 c 0,1.221 0.599,2.107 1.98,2.107 1.394,0 1.993,-0.886 1.993,-2.107 V 0.207 c 0,-1.209 -0.599,-2.107 -1.993,-2.107 -1.381,0 -1.98,0.898 -1.98,2.107"
     style="fill:#ffffff;fill-opacity:1;fill-rule:nonzero;stroke:none"
     transform="matrix(1.3333333,0,0,-1.3333333,143.41733,343.07373)"
     clip-path="url(#clipPath307-9)" /><path
     id="path308"
     d="M 0,0 H 1.047 L 0.529,3.132 H 0.518 Z M 1.646,5.884 -0.415,5.619 v 0.737 l 2.061,0.438 z m -3.293,-8.36 1.474,7.807 H 1.324 L 2.809,-2.476 H 1.462 L 1.22,-1.048 h -1.393 l -0.23,-1.428 z"
     style="fill:#ffffff;fill-opacity:1;fill-rule:nonzero;stroke:none"
     transform="matrix(1.3333333,0,0,-1.3333333,81.399333,326.83173)"
     clip-path="url(#clipPath309-2)" /><path
     id="path310"
     d="M 0,0 H 1.866 V -4.168 H 0.922 v 0.852 C 0.749,-3.904 0.38,-4.26 -0.334,-4.26 c -1.129,0 -1.646,0.898 -1.646,2.107 v 3.777 c 0,1.22 0.587,2.107 1.968,2.107 1.451,0 1.878,-0.806 1.878,-1.957 V 1.082 H 0.668 v 0.795 c 0,0.484 -0.184,0.76 -0.656,0.76 -0.472,0 -0.679,-0.334 -0.679,-0.806 V -2.36 c 0,-0.473 0.195,-0.806 0.644,-0.806 0.426,0 0.645,0.242 0.645,0.748 v 1.382 H 0 Z"
     style="fill:#ffffff;fill-opacity:1;fill-rule:nonzero;stroke:none"
     transform="matrix(1.3333333,0,0,-1.3333333,88.659867,324.57507)"
     clip-path="url(#clipPath311-0)" /><path
     id="path312"
     d="m 0,0 v -5.907 c 0,-1.209 -0.518,-1.992 -1.854,-1.992 -1.381,0 -1.957,0.783 -1.957,1.992 V 0 h 1.313 v -6.034 c 0,-0.46 0.183,-0.771 0.644,-0.771 0.461,0 0.645,0.311 0.645,0.771 V 0 Z"
     style="fill:#ffffff;fill-opacity:1;fill-rule:nonzero;stroke:none"
     transform="matrix(1.3333333,0,0,-1.3333333,97.379467,319.72333)"
     clip-path="url(#clipPath313-3)" /><path
     id="path314"
     d="M 0,0 H 1.047 L 0.529,3.132 H 0.518 Z m -1.647,-2.476 1.474,7.807 H 1.324 L 2.809,-2.476 H 1.462 L 1.22,-1.048 h -1.393 l -0.23,-1.428 z"
     style="fill:#ffffff;fill-opacity:1;fill-rule:nonzero;stroke:none"
     transform="matrix(1.3333333,0,0,-1.3333333,100.43453,326.83173)"
     clip-path="url(#clipPath315-3)" /><path
     id="path316"
     d="m 0,0 v -3.074 h 0.484 c 0.449,0 0.645,0.218 0.645,0.644 v 1.796 C 1.129,-0.207 0.933,0 0.484,0 Z m -1.313,1.071 h 1.946 c 1.324,0 1.808,-0.657 1.808,-1.751 v -1.646 c 0,-1.093 -0.484,-1.762 -1.808,-1.762 H 0 v -2.648 h -1.313 z"
     style="fill:#ffffff;fill-opacity:1;fill-rule:nonzero;stroke:none"
     transform="matrix(1.3333333,0,0,-1.3333333,108.5548,321.1512)"
     clip-path="url(#clipPath317-6)" /><path
     id="path318"
     d="m 0,0 v 4.191 c 0,0.472 -0.207,0.806 -0.679,0.806 -0.461,0 -0.668,-0.334 -0.668,-0.806 V 0 c 0,-0.472 0.207,-0.806 0.668,-0.806 C -0.207,-0.806 0,-0.472 0,0 m -2.66,0.207 v 3.777 c 0,1.22 0.599,2.107 1.981,2.107 1.393,0 1.992,-0.887 1.992,-2.107 V 0.207 c 0,-1.209 -0.599,-2.107 -1.992,-2.107 -1.382,0 -1.981,0.898 -1.981,2.107"
     style="fill:#ffffff;fill-opacity:1;fill-rule:nonzero;stroke:none"
     transform="matrix(1.3333333,0,0,-1.3333333,116.41467,327.72213)"
     clip-path="url(#clipPath319-9)" /><path
     id="path320"
     d="M 0,0 H 3.489 V -1.071 H 2.407 V -7.807 H 1.082 v 6.736 H 0 Z"
     style="fill:#ffffff;fill-opacity:1;fill-rule:nonzero;stroke:none"
     transform="matrix(1.3333333,0,0,-1.3333333,119.1164,319.72333)"
     clip-path="url(#clipPath321-7)" /><path
     id="path322"
     d="M 0,0 H 1.048 L 0.529,3.132 H 0.519 Z M 1.646,5.884 -0.415,5.619 v 0.737 l 2.061,0.438 z m -3.292,-8.36 1.473,7.807 H 1.324 L 2.81,-2.476 H 1.463 l -0.242,1.428 h -1.394 l -0.23,-1.428 z"
     style="fill:#ffffff;fill-opacity:1;fill-rule:nonzero;stroke:none"
     transform="matrix(1.3333333,0,0,-1.3333333,126.65373,326.83173)"
     clip-path="url(#clipPath323-9)" /><path
     id="path324"
     d="M 0,0 -1.486,-7.807 H -2.914 L -4.399,0 h 1.336 l 0.898,-5.446 h 0.012 L -1.232,0 Z"
     style="fill:#ffffff;fill-opacity:1;fill-rule:nonzero;stroke:none"
     transform="matrix(1.3333333,0,0,-1.3333333,136.87827,319.72333)"
     clip-path="url(#clipPath325-5)" /><path
     id="path326"
     d="M 0,0 H 3.132 V -1.071 H 1.312 V -3.305 H 2.614 V -4.364 H 1.312 v -2.372 h 1.82 V -7.807 H 0 Z"
     style="fill:#ffffff;fill-opacity:1;fill-rule:nonzero;stroke:none"
     transform="matrix(1.3333333,0,0,-1.3333333,137.75267,319.72333)"
     clip-path="url(#clipPath327-6)" /><path
     id="path328"
     d="M 0,0 H 1.312 V -6.736 H 2.878 V -7.807 H 0 Z"
     style="fill:#ffffff;fill-opacity:1;fill-rule:nonzero;stroke:none"
     transform="matrix(1.3333333,0,0,-1.3333333,143.00293,319.72333)"
     clip-path="url(#clipPath329-5)" /></g></svg>
