<?xml version="1.0" encoding="UTF-8" standalone="no"?>
<!-- Generator: Adobe Illustrator 19.0.0, SVG Export Plug-In . SVG Version: 6.00 Build 0)  -->

<svg
   version="1.1"
   id="Layer_1"
   x="0px"
   y="0px"
   viewBox="0 0 512 512"
   style="enable-background:new 0 0 512 512;"
   xml:space="preserve"
   width="512"
   height="512"
   sodipodi:docname="6.svg"
   inkscape:version="1.4.2 (f4327f4, 2025-05-13)"
   xmlns:inkscape="http://www.inkscape.org/namespaces/inkscape"
   xmlns:sodipodi="http://sodipodi.sourceforge.net/DTD/sodipodi-0.dtd"
   xmlns="http://www.w3.org/2000/svg"
   xmlns:svg="http://www.w3.org/2000/svg"><defs
   id="defs1"><clipPath
     clipPathUnits="userSpaceOnUse"
     id="clipPath331-2"><path
       d="M 0,841.89 H 595.276 V 0 H 0 Z"
       id="path331-5" /></clipPath><clipPath
     clipPathUnits="userSpaceOnUse"
     id="clipPath333-4"><path
       d="M 0,841.89 H 595.276 V 0 H 0 Z"
       transform="translate(-149.6832,-601.75232)"
       id="path333-4" /></clipPath><clipPath
     clipPathUnits="userSpaceOnUse"
     id="clipPath335-1"><path
       d="M 0,841.89 H 595.276 V 0 H 0 Z"
       transform="translate(-187.6761,-544.95631)"
       id="path335-6" /></clipPath><clipPath
     clipPathUnits="userSpaceOnUse"
     id="clipPath337-1"><path
       d="M 0,841.89 H 595.276 V 0 H 0 Z"
       transform="translate(-171.60651,-552.25102)"
       id="path337-6" /></clipPath><clipPath
     clipPathUnits="userSpaceOnUse"
     id="clipPath339-3"><path
       d="M 0,841.89 H 595.276 V 0 H 0 Z"
       transform="translate(-212.03691,-552.25102)"
       id="path339-3" /></clipPath><clipPath
     clipPathUnits="userSpaceOnUse"
     id="clipPath341-5"><path
       d="M 0,841.89 H 595.276 V 0 H 0 Z"
       transform="translate(-187.67961,-568.31932)"
       id="path341-5" /></clipPath><clipPath
     clipPathUnits="userSpaceOnUse"
     id="clipPath343-3"><path
       d="M 0,841.89 H 595.276 V 0 H 0 Z"
       transform="translate(-187.67961,-527.88991)"
       id="path343-2" /></clipPath><clipPath
     clipPathUnits="userSpaceOnUse"
     id="clipPath345-8"><path
       d="M 0,841.89 H 595.276 V 0 H 0 Z"
       transform="translate(-173.73,-560.23361)"
       id="path345-2" /></clipPath><clipPath
     clipPathUnits="userSpaceOnUse"
     id="clipPath347-5"><path
       d="M 0,841.89 H 595.276 V 0 H 0 Z"
       transform="translate(-208.82031,-540.15112)"
       id="path347-3" /></clipPath><clipPath
     clipPathUnits="userSpaceOnUse"
     id="clipPath349-6"><path
       d="M 0,841.89 H 595.276 V 0 H 0 Z"
       transform="translate(-195.6622,-566.19541)"
       id="path349-1" /></clipPath><clipPath
     clipPathUnits="userSpaceOnUse"
     id="clipPath351-8"><path
       d="M 0,841.89 H 595.276 V 0 H 0 Z"
       transform="translate(-175.5793,-531.10552)"
       id="path351-6" /></clipPath><clipPath
     clipPathUnits="userSpaceOnUse"
     id="clipPath353-2"><path
       d="M 0,841.89 H 595.276 V 0 H 0 Z"
       transform="translate(-179.668,-566.18171)"
       id="path353-1" /></clipPath><clipPath
     clipPathUnits="userSpaceOnUse"
     id="clipPath355-4"><path
       d="M 0,841.89 H 595.276 V 0 H 0 Z"
       transform="translate(-199.8222,-531.13291)"
       id="path355-6" /></clipPath><clipPath
     clipPathUnits="userSpaceOnUse"
     id="clipPath357-2"><path
       d="M 0,841.89 H 595.276 V 0 H 0 Z"
       transform="translate(-201.6103,-560.25892)"
       id="path357-9" /></clipPath><clipPath
     clipPathUnits="userSpaceOnUse"
     id="clipPath359-1"><path
       d="M 0,841.89 H 595.276 V 0 H 0 Z"
       transform="translate(-166.56141,-540.10321)"
       id="path359-5" /></clipPath><clipPath
     clipPathUnits="userSpaceOnUse"
     id="clipPath361-0"><path
       d="M 0,841.89 H 595.276 V 0 H 0 Z"
       transform="translate(-167.15781,-604.42682)"
       id="path361-3" /></clipPath><clipPath
     clipPathUnits="userSpaceOnUse"
     id="clipPath363-6"><path
       d="M 0,841.89 H 595.276 V 0 H 0 Z"
       transform="translate(-172.0276,-601.52552)"
       id="path363-4" /></clipPath><clipPath
     clipPathUnits="userSpaceOnUse"
     id="clipPath365-9"><path
       d="M 0,841.89 H 595.276 V 0 H 0 Z"
       transform="translate(-175.41261,-604.42682)"
       id="path365-2" /></clipPath><clipPath
     clipPathUnits="userSpaceOnUse"
     id="clipPath367-9"><path
       d="M 0,841.89 H 595.276 V 0 H 0 Z"
       transform="translate(-180.513,-603.35602)"
       id="path367-3" /></clipPath><clipPath
     clipPathUnits="userSpaceOnUse"
     id="clipPath369-4"><path
       d="M 0,841.89 H 595.276 V 0 H 0 Z"
       transform="translate(-185.4405,-600.78862)"
       id="path369-4" /></clipPath><clipPath
     clipPathUnits="userSpaceOnUse"
     id="clipPath371-0"><path
       d="M 0,841.89 H 595.276 V 0 H 0 Z"
       id="path371-5" /></clipPath><clipPath
     clipPathUnits="userSpaceOnUse"
     id="clipPath373-9"><path
       d="M 0,841.89 H 595.276 V 0 H 0 Z"
       transform="translate(-191.2197,-599.09651)"
       id="path373-6" /></clipPath><clipPath
     clipPathUnits="userSpaceOnUse"
     id="clipPath375-3"><path
       d="M 0,841.89 H 595.276 V 0 H 0 Z"
       transform="translate(-195.43401,-604.42682)"
       id="path375-4" /></clipPath><clipPath
     clipPathUnits="userSpaceOnUse"
     id="clipPath377-2"><path
       d="M 0,841.89 H 595.276 V 0 H 0 Z"
       id="path377-8" /></clipPath><clipPath
     clipPathUnits="userSpaceOnUse"
     id="clipPath379-8"><path
       d="M 0,841.89 H 595.276 V 0 H 0 Z"
       transform="translate(-204.2524,-601.68662)"
       id="path379-7" /></clipPath><clipPath
     clipPathUnits="userSpaceOnUse"
     id="clipPath381-5"><path
       d="M 0,841.89 H 595.276 V 0 H 0 Z"
       transform="translate(-207.3382,-603.35602)"
       id="path381-8" /></clipPath><clipPath
     clipPathUnits="userSpaceOnUse"
     id="clipPath383-1"><path
       d="M 0,841.89 H 595.276 V 0 H 0 Z"
       transform="translate(-211.72471,-599.09651)"
       id="path383-2" /></clipPath><clipPath
     clipPathUnits="userSpaceOnUse"
     id="clipPath385-5"><path
       d="M 0,841.89 H 595.276 V 0 H 0 Z"
       transform="translate(-167.1493,-592.92911)"
       id="path385-7" /></clipPath><clipPath
     clipPathUnits="userSpaceOnUse"
     id="clipPath387-4"><path
       d="M 0,841.89 H 595.276 V 0 H 0 Z"
       transform="translate(-173.25381,-587.62612)"
       id="path387-4" /></clipPath><clipPath
     clipPathUnits="userSpaceOnUse"
     id="clipPath389-4"><path
       d="M 0,841.89 H 595.276 V 0 H 0 Z"
       transform="translate(-176.41521,-587.16802)"
       id="path389-4" /></clipPath><clipPath
     clipPathUnits="userSpaceOnUse"
     id="clipPath391-4"><path
       d="M 0,841.89 H 595.276 V 0 H 0 Z"
       transform="translate(-180.7446,-592.92911)"
       id="path391-2" /></clipPath><clipPath
     clipPathUnits="userSpaceOnUse"
     id="clipPath393-9"><path
       d="M 0,841.89 H 595.276 V 0 H 0 Z"
       transform="translate(-184.3182,-586.83611)"
       id="path393-3" /></clipPath><clipPath
     clipPathUnits="userSpaceOnUse"
     id="clipPath395-0"><path
       d="M 0,841.89 H 595.276 V 0 H 0 Z"
       transform="translate(-188.51031,-586.83611)"
       id="path395-7" /></clipPath><clipPath
     clipPathUnits="userSpaceOnUse"
     id="clipPath397-7"><path
       d="M 0,841.89 H 595.276 V 0 H 0 Z"
       id="path397-8" /></clipPath><clipPath
     clipPathUnits="userSpaceOnUse"
     id="clipPath399-7"><path
       d="M 0,841.89 H 595.276 V 0 H 0 Z"
       transform="translate(-198.8419,-592.92911)"
       id="path399-3" /></clipPath><clipPath
     clipPathUnits="userSpaceOnUse"
     id="clipPath401-0"><path
       d="M 0,841.89 H 595.276 V 0 H 0 Z"
       transform="translate(-199.20801,-592.92911)"
       id="path401-3" /></clipPath><clipPath
     clipPathUnits="userSpaceOnUse"
     id="clipPath403-8"><path
       d="M 0,841.89 H 595.276 V 0 H 0 Z"
       transform="translate(-202.85031,-592.92911)"
       id="path403-2" /></clipPath></defs><sodipodi:namedview
   id="namedview1"
   pagecolor="#505050"
   bordercolor="#eeeeee"
   borderopacity="1"
   inkscape:showpageshadow="0"
   inkscape:pageopacity="0"
   inkscape:pagecheckerboard="0"
   inkscape:deskcolor="#505050"
   inkscape:zoom="1.0675655"
   inkscape:cx="300.21577"
   inkscape:cy="303.96261"
   inkscape:window-width="1920"
   inkscape:window-height="991"
   inkscape:window-x="-9"
   inkscape:window-y="-9"
   inkscape:window-maximized="1"
   inkscape:current-layer="Layer_1" />
















<g
   id="g9"
   transform="matrix(4.0085649,0,0,4.0085649,-747.41958,-1225.6802)"><path
     id="path330"
     d="m 235.39,516.893 h -95.503 v 95.506 h 95.503 z"
     style="fill:#e9b021;fill-opacity:1;fill-rule:nonzero;stroke:none"
     transform="matrix(1.3333333,0,0,-1.3333333,0,1122.52)"
     clip-path="url(#clipPath331-2)" /><path
     id="path332"
     d="M 0,0 H 5 L 0.681,-16.614 H 3.892 L 8.124,-0.34 V 2.642 H 0 Z"
     style="fill:#ffffff;fill-opacity:1;fill-rule:nonzero;stroke:none"
     transform="matrix(1.3333333,0,0,-1.3333333,199.5776,320.1836)"
     clip-path="url(#clipPath333-4)" /><path
     id="path334"
     d="m 0,0 c -4.02,0 -7.28,3.259 -7.28,7.28 0,3.268 2.151,6.032 5.117,6.953 v -2.71 C -3.707,10.734 -4.766,9.132 -4.766,7.28 -4.766,4.648 -2.632,2.514 0,2.514 c 2.633,0 4.766,2.134 4.766,4.766 0,1.858 -1.064,3.463 -2.615,4.249 v 2.708 C 5.122,13.319 7.281,10.553 7.281,7.28 7.281,3.259 4.022,0 0,0 m -1.039,15.64 c 0,0.466 0.468,0.979 1.042,0.979 0.574,0 1.038,-0.513 1.038,-0.979 v -4.806 c 0,-0.463 -0.464,-0.971 -1.038,-0.971 -0.574,0 -1.042,0.508 -1.042,0.971 z m 1.037,5.529 c -7.73,0 -13.996,-6.267 -13.996,-13.997 0,-7.733 6.266,-13.999 13.996,-13.999 7.729,0 13.996,6.266 13.996,13.999 0,7.73 -6.267,13.997 -13.996,13.997"
     style="fill:#ffffff;fill-opacity:1;fill-rule:nonzero;stroke:none"
     transform="matrix(1.3333333,0,0,-1.3333333,250.2348,395.9116)"
     clip-path="url(#clipPath335-1)" /><path
     id="path336"
     d="m 0,0 c 0,0.635 -0.562,1.149 -1.075,1.149 h -6.131 c -0.516,0 -1.083,-0.514 -1.083,-1.149 0,-0.636 0.567,-1.153 1.083,-1.153 h 6.131 C -0.562,-1.153 0,-0.636 0,0"
     style="fill:#ffffff;fill-opacity:1;fill-rule:nonzero;stroke:none"
     transform="matrix(1.3333333,0,0,-1.3333333,228.80867,386.18533)"
     clip-path="url(#clipPath337-1)" /><path
     id="path338"
     d="m 0,0 c 0,0.635 -0.562,1.149 -1.076,1.149 h -6.129 c -0.516,0 -1.084,-0.514 -1.084,-1.149 0,-0.636 0.568,-1.153 1.084,-1.153 h 6.129 C -0.562,-1.153 0,-0.636 0,0"
     style="fill:#ffffff;fill-opacity:1;fill-rule:nonzero;stroke:none"
     transform="matrix(1.3333333,0,0,-1.3333333,282.71587,386.18533)"
     clip-path="url(#clipPath339-3)" /><path
     id="path340"
     d="M 0,0 C 0.633,0 1.148,0.562 1.148,1.075 V 7.206 C 1.148,7.723 0.633,8.289 0,8.289 -0.635,8.289 -1.153,7.723 -1.153,7.206 V 1.075 C -1.153,0.562 -0.635,0 0,0"
     style="fill:#ffffff;fill-opacity:1;fill-rule:nonzero;stroke:none"
     transform="matrix(1.3333333,0,0,-1.3333333,250.23947,364.76093)"
     clip-path="url(#clipPath341-5)" /><path
     id="path342"
     d="m 0,0 c 0.633,0 1.148,0.562 1.148,1.075 v 6.13 C 1.148,7.721 0.633,8.289 0,8.289 -0.635,8.289 -1.153,7.721 -1.153,7.205 V 1.075 C -1.153,0.562 -0.635,0 0,0"
     style="fill:#ffffff;fill-opacity:1;fill-rule:nonzero;stroke:none"
     transform="matrix(1.3333333,0,0,-1.3333333,250.23947,418.6668)"
     clip-path="url(#clipPath343-3)" /><path
     id="path344"
     d="M 0,0 C 0.316,0.551 0.084,1.276 -0.363,1.531 L -5.682,4.576 C -6.131,4.833 -6.879,4.668 -7.194,4.118 -7.51,3.565 -7.274,2.835 -6.826,2.578 l 5.32,-3.045 C -1.061,-0.721 -0.316,-0.552 0,0"
     style="fill:#ffffff;fill-opacity:1;fill-rule:nonzero;stroke:none"
     transform="matrix(1.3333333,0,0,-1.3333333,231.64,375.54187)"
     clip-path="url(#clipPath345-8)" /><path
     id="path346"
     d="M 0,0 C 0.314,0.55 0.083,1.276 -0.363,1.531 L -5.682,4.576 C -6.131,4.832 -6.879,4.668 -7.194,4.116 -7.509,3.565 -7.274,2.834 -6.826,2.578 l 5.32,-3.045 C -1.061,-0.721 -0.316,-0.552 0,0"
     style="fill:#ffffff;fill-opacity:1;fill-rule:nonzero;stroke:none"
     transform="matrix(1.3333333,0,0,-1.3333333,278.42707,402.31853)"
     clip-path="url(#clipPath347-5)" /><path
     id="path348"
     d="M 0,0 C 0.55,-0.314 1.275,-0.082 1.531,0.363 L 4.575,5.682 C 4.832,6.132 4.668,6.879 4.117,7.195 3.565,7.511 2.834,7.275 2.577,6.826 L -0.467,1.507 C -0.722,1.061 -0.553,0.316 0,0"
     style="fill:#ffffff;fill-opacity:1;fill-rule:nonzero;stroke:none"
     transform="matrix(1.3333333,0,0,-1.3333333,260.88293,367.5928)"
     clip-path="url(#clipPath349-6)" /><path
     id="path350"
     d="M 0,0 C 0.55,-0.314 1.276,-0.082 1.531,0.364 L 4.576,5.682 C 4.832,6.131 4.667,6.88 4.116,7.195 3.566,7.511 2.833,7.275 2.577,6.827 L -0.467,1.507 C -0.722,1.062 -0.552,0.316 0,0"
     style="fill:#ffffff;fill-opacity:1;fill-rule:nonzero;stroke:none"
     transform="matrix(1.3333333,0,0,-1.3333333,234.10573,414.37933)"
     clip-path="url(#clipPath351-8)" /><path
     id="path352"
     d="M 0,0 C 0.55,0.316 0.716,1.06 0.459,1.505 L -2.596,6.819 C -2.855,7.267 -3.582,7.502 -4.132,7.185 -4.685,6.868 -4.849,6.118 -4.591,5.671 L -1.536,0.358 C -1.279,-0.087 -0.553,-0.317 0,0"
     style="fill:#ffffff;fill-opacity:1;fill-rule:nonzero;stroke:none"
     transform="matrix(1.3333333,0,0,-1.3333333,239.55733,367.61107)"
     clip-path="url(#clipPath353-2)" /><path
     id="path354"
     d="M 0,0 C 0.55,0.316 0.715,1.06 0.46,1.505 L -2.595,6.818 C -2.854,7.267 -3.582,7.502 -4.132,7.185 -4.684,6.869 -4.849,6.119 -4.59,5.67 L -1.535,0.357 C -1.28,-0.087 -0.552,-0.317 0,0"
     style="fill:#ffffff;fill-opacity:1;fill-rule:nonzero;stroke:none"
     transform="matrix(1.3333333,0,0,-1.3333333,266.4296,414.3428)"
     clip-path="url(#clipPath355-4)" /><path
     id="path356"
     d="M 0,0 C 0.316,-0.55 1.059,-0.716 1.505,-0.46 L 6.817,2.595 C 7.266,2.854 7.502,3.582 7.186,4.132 6.868,4.683 6.119,4.849 5.671,4.591 L 0.358,1.536 C -0.088,1.28 -0.318,0.551 0,0"
     style="fill:#ffffff;fill-opacity:1;fill-rule:nonzero;stroke:none"
     transform="matrix(1.3333333,0,0,-1.3333333,268.81373,375.50813)"
     clip-path="url(#clipPath357-2)" /><path
     id="path358"
     d="M 0,0 C 0.316,-0.549 1.06,-0.715 1.505,-0.458 L 6.817,2.597 C 7.266,2.854 7.503,3.582 7.185,4.132 6.869,4.684 6.119,4.85 5.671,4.592 L 0.357,1.536 C -0.088,1.281 -0.317,0.552 0,0"
     style="fill:#ffffff;fill-opacity:1;fill-rule:nonzero;stroke:none"
     transform="matrix(1.3333333,0,0,-1.3333333,222.08187,402.3824)"
     clip-path="url(#clipPath359-1)" /><path
     id="path360"
     d="M 0,0 H 3.132 V -1.071 H 1.313 v -2.233 h 1.3 v -1.059 h -1.3 V -6.735 H 3.132 V -7.806 H 0 Z"
     style="fill:#ffffff;fill-opacity:1;fill-rule:nonzero;stroke:none"
     transform="matrix(1.3333333,0,0,-1.3333333,222.87707,316.6176)"
     clip-path="url(#clipPath361-0)" /><path
     id="path362"
     d="M 0,0 V -4.904 H -1.105 V 2.901 H 0.184 L 1.6,-1.577 V 2.901 H 2.694 V -4.904 H 1.543 Z"
     style="fill:#ffffff;fill-opacity:1;fill-rule:nonzero;stroke:none"
     transform="matrix(1.3333333,0,0,-1.3333333,229.37013,320.486)"
     clip-path="url(#clipPath363-6)" /><path
     id="path364"
     d="M 0,0 H 3.132 V -1.071 H 1.312 V -3.304 H 2.613 V -4.363 H 1.312 v -2.372 h 1.82 V -7.806 H 0 Z"
     style="fill:#ffffff;fill-opacity:1;fill-rule:nonzero;stroke:none"
     transform="matrix(1.3333333,0,0,-1.3333333,233.88347,316.6176)"
     clip-path="url(#clipPath365-9)" /><path
     id="path366"
     d="m 0,0 v -2.429 h 0.438 c 0.448,0 0.644,0.23 0.644,0.645 v 1.151 C 1.082,-0.207 0.886,0 0.438,0 Z m 0,-3.154 v -3.581 h -1.312 v 7.806 h 1.91 c 1.324,0 1.808,-0.657 1.808,-1.75 v -1.002 c 0,-0.84 -0.299,-1.335 -1.048,-1.508 L 2.613,-6.735 H 1.232 Z"
     style="fill:#ffffff;fill-opacity:1;fill-rule:nonzero;stroke:none"
     transform="matrix(1.3333333,0,0,-1.3333333,240.684,318.04533)"
     clip-path="url(#clipPath367-9)" /><path
     id="path368"
     d="M 0,0 H 1.865 V -4.168 H 0.921 v 0.853 C 0.748,-3.902 0.38,-4.259 -0.334,-4.259 c -1.128,0 -1.646,0.898 -1.646,2.106 v 3.777 c 0,1.22 0.587,2.106 1.968,2.106 1.451,0 1.877,-0.806 1.877,-1.957 V 1.082 H 0.668 v 0.795 c 0,0.483 -0.184,0.759 -0.656,0.759 -0.472,0 -0.68,-0.333 -0.68,-0.805 V -2.36 c 0,-0.472 0.196,-0.806 0.645,-0.806 0.426,0 0.645,0.242 0.645,0.748 v 1.382 H 0 Z"
     style="fill:#ffffff;fill-opacity:1;fill-rule:nonzero;stroke:none"
     transform="matrix(1.3333333,0,0,-1.3333333,247.254,321.46853)"
     clip-path="url(#clipPath369-4)" /><path
     id="path370"
     d="m 187.881,604.427 h 1.312 v -7.806 h -1.312 z"
     style="fill:#ffffff;fill-opacity:1;fill-rule:nonzero;stroke:none"
     transform="matrix(1.3333333,0,0,-1.3333333,0,1122.52)"
     clip-path="url(#clipPath371-0)" /><path
     id="path372"
     d="M 0,0 H 1.048 L 0.53,3.132 H 0.519 Z M -1.646,-2.475 -0.172,5.33 H 1.325 L 2.809,-2.475 H 1.462 l -0.241,1.427 h -1.393 l -0.231,-1.427 z"
     style="fill:#ffffff;fill-opacity:1;fill-rule:nonzero;stroke:none"
     transform="matrix(1.3333333,0,0,-1.3333333,254.9596,323.72467)"
     clip-path="url(#clipPath373-9)" /><path
     id="path374"
     d="M 0,0 H 1.312 V -6.735 H 2.878 V -7.806 H 0 Z"
     style="fill:#ffffff;fill-opacity:1;fill-rule:nonzero;stroke:none"
     transform="matrix(1.3333333,0,0,-1.3333333,260.57867,316.6176)"
     clip-path="url(#clipPath375-3)" /><path
     id="path376"
     d="m 198.738,604.427 h 1.312 v -7.806 h -1.312 z"
     style="fill:#ffffff;fill-opacity:1;fill-rule:nonzero;stroke:none"
     transform="matrix(1.3333333,0,0,-1.3333333,0,1122.52)"
     clip-path="url(#clipPath377-2)" /><path
     id="path378"
     d="m 0,0 h -0.034 l -0.887,-5.066 h -0.61 L -2.51,0 H -2.533 V -5.066 H -3.614 V 2.74 h 1.53 l 0.852,-4.398 H -1.22 L -0.46,2.74 H 1.198 V -5.066 H 0 Z"
     style="fill:#ffffff;fill-opacity:1;fill-rule:nonzero;stroke:none"
     transform="matrix(1.3333333,0,0,-1.3333333,272.33653,320.2712)"
     clip-path="url(#clipPath379-8)" /><path
     id="path380"
     d="m 0,0 v -3.074 h 0.483 c 0.449,0 0.645,0.219 0.645,0.645 v 1.796 C 1.128,-0.207 0.932,0 0.483,0 Z m -1.313,1.071 h 1.946 c 1.324,0 1.808,-0.657 1.808,-1.75 v -1.647 c 0,-1.093 -0.484,-1.761 -1.808,-1.761 H 0 v -2.648 h -1.313 z"
     style="fill:#ffffff;fill-opacity:1;fill-rule:nonzero;stroke:none"
     transform="matrix(1.3333333,0,0,-1.3333333,276.45093,318.04533)"
     clip-path="url(#clipPath381-5)" /><path
     id="path382"
     d="M 0,0 H 1.048 L 0.529,3.132 H 0.518 Z M -1.646,-2.475 -0.173,5.33 H 1.324 L 2.809,-2.475 H 1.462 L 1.22,-1.048 h -1.393 l -0.23,-1.427 z"
     style="fill:#ffffff;fill-opacity:1;fill-rule:nonzero;stroke:none"
     transform="matrix(1.3333333,0,0,-1.3333333,282.2996,323.72467)"
     clip-path="url(#clipPath383-1)" /><path
     id="path384"
     d="M 0,0 H 3.115 V -1.065 H 1.306 V -3.287 H 2.6 V -4.341 H 1.306 V -6.7 H 3.115 V -7.765 H 0 Z"
     style="fill:#ffffff;fill-opacity:1;fill-rule:nonzero;stroke:none"
     transform="matrix(1.3333333,0,0,-1.3333333,222.86573,331.94787)"
     clip-path="url(#clipPath385-5)" /><path
     id="path386"
     d="M 0,0 H 1.043 L 0.527,3.115 H 0.516 Z m -1.638,-2.462 1.466,7.765 h 1.489 l 1.478,-7.765 h -1.34 l -0.241,1.42 h -1.386 l -0.229,-1.42 z"
     style="fill:#ffffff;fill-opacity:1;fill-rule:nonzero;stroke:none"
     transform="matrix(1.3333333,0,0,-1.3333333,231.00507,339.01853)"
     clip-path="url(#clipPath387-4)" /><path
     id="path388"
     d="m 0,0 v 3.757 c 0,1.214 0.573,2.096 1.947,2.096 1.443,0 1.844,-0.802 1.844,-1.947 V 2.99 H 2.6 V 4.009 C 2.6,4.49 2.44,4.765 1.97,4.765 1.501,4.765 1.306,4.433 1.306,3.963 v -4.169 c 0,-0.47 0.195,-0.802 0.664,-0.802 0.47,0 0.63,0.298 0.63,0.756 V 1.18 h 1.191 v -1.341 c 0,-1.11 -0.458,-1.935 -1.844,-1.935 C 0.573,-2.096 0,-1.203 0,0"
     style="fill:#ffffff;fill-opacity:1;fill-rule:nonzero;stroke:none"
     transform="matrix(1.3333333,0,0,-1.3333333,235.22027,339.62933)"
     clip-path="url(#clipPath389-4)" /><path
     id="path390"
     d="M 0,0 H 3.115 V -1.065 H 1.306 V -3.287 H 2.6 V -4.341 H 1.306 V -6.7 H 3.115 V -7.765 H 0 Z"
     style="fill:#ffffff;fill-opacity:1;fill-rule:nonzero;stroke:none"
     transform="matrix(1.3333333,0,0,-1.3333333,240.9928,331.94787)"
     clip-path="url(#clipPath391-4)" /><path
     id="path392"
     d="m 0,0 v 1.042 h 1.214 v -1.065 c 0,-0.435 0.195,-0.687 0.641,-0.687 0.413,0 0.596,0.274 0.596,0.687 v 0.298 c 0,0.446 -0.183,0.721 -0.584,1.099 L 1.099,2.142 C 0.355,2.875 0.012,3.321 0.012,4.215 v 0.263 c 0,0.962 0.561,1.707 1.832,1.707 1.306,0 1.821,-0.642 1.821,-1.764 V 3.791 H 2.474 V 4.467 C 2.474,4.914 2.268,5.131 1.855,5.131 1.489,5.131 1.237,4.925 1.237,4.49 V 4.329 c 0,-0.435 0.241,-0.687 0.618,-1.053 L 2.692,2.451 C 3.402,1.729 3.746,1.294 3.746,0.435 V 0.057 C 3.746,-1.008 3.173,-1.764 1.844,-1.764 0.515,-1.764 0,-1.02 0,0"
     style="fill:#ffffff;fill-opacity:1;fill-rule:nonzero;stroke:none"
     transform="matrix(1.3333333,0,0,-1.3333333,245.7576,340.07187)"
     clip-path="url(#clipPath393-9)" /><path
     id="path394"
     d="m 0,0 v 1.042 h 1.214 v -1.065 c 0,-0.435 0.195,-0.687 0.641,-0.687 0.413,0 0.596,0.274 0.596,0.687 v 0.298 c 0,0.446 -0.183,0.721 -0.584,1.099 L 1.1,2.142 C 0.355,2.875 0.011,3.321 0.011,4.215 v 0.263 c 0,0.962 0.562,1.707 1.833,1.707 1.306,0 1.821,-0.642 1.821,-1.764 V 3.791 H 2.474 V 4.467 C 2.474,4.914 2.268,5.131 1.855,5.131 1.489,5.131 1.237,4.925 1.237,4.49 V 4.329 c 0,-0.435 0.241,-0.687 0.618,-1.053 L 2.692,2.451 C 3.402,1.729 3.746,1.294 3.746,0.435 V 0.057 C 3.746,-1.008 3.173,-1.764 1.844,-1.764 0.515,-1.764 0,-1.02 0,0"
     style="fill:#ffffff;fill-opacity:1;fill-rule:nonzero;stroke:none"
     transform="matrix(1.3333333,0,0,-1.3333333,251.34707,340.07187)"
     clip-path="url(#clipPath395-0)" /><path
     id="path396"
     d="m 192.771,592.929 h 1.306 v -7.765 h -1.306 z m 1.718,0.55 -2.05,-0.263 v 0.733 l 2.05,0.435 z"
     style="fill:#ffffff;fill-opacity:1;fill-rule:nonzero;stroke:none"
     transform="matrix(1.3333333,0,0,-1.3333333,0,1122.52)"
     clip-path="url(#clipPath397-7)" /><path
     id="path398"
     d="m 0,0 -1.478,-7.765 h -1.42 L -4.376,0 h 1.329 l 0.893,-5.417 h 0.012 L -1.226,0 Z"
     style="fill:#ffffff;fill-opacity:1;fill-rule:nonzero;stroke:none"
     transform="matrix(1.3333333,0,0,-1.3333333,265.12253,331.94787)"
     clip-path="url(#clipPath399-7)" /><path
     id="path400"
     d="M 0,0 H 3.115 V -1.065 H 1.306 V -3.287 H 2.6 V -4.341 H 1.306 V -6.7 H 3.115 V -7.765 H 0 Z"
     style="fill:#ffffff;fill-opacity:1;fill-rule:nonzero;stroke:none"
     transform="matrix(1.3333333,0,0,-1.3333333,265.61067,331.94787)"
     clip-path="url(#clipPath401-0)" /><path
     id="path402"
     d="M 0,0 H 1.306 V -6.7 H 2.863 V -7.765 H 0 Z"
     style="fill:#ffffff;fill-opacity:1;fill-rule:nonzero;stroke:none"
     transform="matrix(1.3333333,0,0,-1.3333333,270.46707,331.94787)"
     clip-path="url(#clipPath403-8)" /></g></svg>
