<?xml version="1.0" encoding="UTF-8" standalone="no"?>
<!-- Generator: Adobe Illustrator 19.0.0, SVG Export Plug-In . SVG Version: 6.00 Build 0)  -->

<svg
   version="1.1"
   id="Layer_1"
   x="0px"
   y="0px"
   viewBox="0 0 536.68 536.68"
   style="enable-background:new 0 0 536.68 536.68;"
   xml:space="preserve"
   width="512"
   height="512"
   sodipodi:docname="8.svg"
   inkscape:version="1.4.2 (f4327f4, 2025-05-13)"
   xmlns:inkscape="http://www.inkscape.org/namespaces/inkscape"
   xmlns:sodipodi="http://sodipodi.sourceforge.net/DTD/sodipodi-0.dtd"
   xmlns="http://www.w3.org/2000/svg"
   xmlns:svg="http://www.w3.org/2000/svg"><defs
   id="defs1"><clipPath
     clipPathUnits="userSpaceOnUse"
     id="clipPath489-8"><path
       d="M 0,841.89 H 595.276 V 0 H 0 Z"
       id="path489-3" /></clipPath><clipPath
     clipPathUnits="userSpaceOnUse"
     id="clipPath491-0"><path
       d="M 0,841.89 H 595.276 V 0 H 0 Z"
       transform="translate(-371.23221,-596.83591)"
       id="path491-2" /></clipPath><clipPath
     clipPathUnits="userSpaceOnUse"
     id="clipPath493-2"><path
       d="M 0,841.89 H 595.276 V 0 H 0 Z"
       transform="translate(-427.93591,-536.08471)"
       id="path493-3" /></clipPath><clipPath
     clipPathUnits="userSpaceOnUse"
     id="clipPath495-6"><path
       d="M 0,841.89 H 595.276 V 0 H 0 Z"
       id="path495-7" /></clipPath><clipPath
     clipPathUnits="userSpaceOnUse"
     id="clipPath497-1"><path
       d="M 0,841.89 H 595.276 V 0 H 0 Z"
       transform="translate(-382.35181,-601.71611)"
       id="path497-5" /></clipPath><clipPath
     clipPathUnits="userSpaceOnUse"
     id="clipPath499-5"><path
       d="M 0,841.89 H 595.276 V 0 H 0 Z"
       transform="translate(-387.24821,-598.05941)"
       id="path499-4" /></clipPath><clipPath
     clipPathUnits="userSpaceOnUse"
     id="clipPath501-0"><path
       d="M 0,841.89 H 595.276 V 0 H 0 Z"
       transform="translate(-392.62771,-605.01022)"
       id="path501-2" /></clipPath><clipPath
     clipPathUnits="userSpaceOnUse"
     id="clipPath503-6"><path
       d="M 0,841.89 H 595.276 V 0 H 0 Z"
       transform="translate(-393.87991,-598.64152)"
       id="path503-0" /></clipPath><clipPath
     clipPathUnits="userSpaceOnUse"
     id="clipPath505-6"><path
       d="M 0,841.89 H 595.276 V 0 H 0 Z"
       transform="translate(-397.54711,-604.48312)"
       id="path505-1" /></clipPath><clipPath
     clipPathUnits="userSpaceOnUse"
     id="clipPath507-1"><path
       d="M 0,841.89 H 595.276 V 0 H 0 Z"
       transform="translate(-402.54221,-603.46181)"
       id="path507-1" /></clipPath><clipPath
     clipPathUnits="userSpaceOnUse"
     id="clipPath509-7"><path
       d="M 0,841.89 H 595.276 V 0 H 0 Z"
       id="path509-3" /></clipPath><clipPath
     clipPathUnits="userSpaceOnUse"
     id="clipPath511-0"><path
       d="M 0,841.89 H 595.276 V 0 H 0 Z"
       transform="translate(-408.26221,-599.39921)"
       id="path511-0" /></clipPath><clipPath
     clipPathUnits="userSpaceOnUse"
     id="clipPath513-4"><path
       d="M 0,841.89 H 595.276 V 0 H 0 Z"
       transform="translate(-412.57661,-598.13641)"
       id="path513-8" /></clipPath><clipPath
     clipPathUnits="userSpaceOnUse"
     id="clipPath515-3"><path
       d="M 0,841.89 H 595.276 V 0 H 0 Z"
       id="path515-0" /></clipPath><clipPath
     clipPathUnits="userSpaceOnUse"
     id="clipPath517-1"><path
       d="M 0,841.89 H 595.276 V 0 H 0 Z"
       transform="translate(-416.97961,-601.71611)"
       id="path517-2" /></clipPath><clipPath
     clipPathUnits="userSpaceOnUse"
     id="clipPath519-9"><path
       d="M 0,841.89 H 595.276 V 0 H 0 Z"
       transform="translate(-422.63321,-598.76251)"
       id="path519-0" /></clipPath><clipPath
     clipPathUnits="userSpaceOnUse"
     id="clipPath521-3"><path
       d="M 0,841.89 H 595.276 V 0 H 0 Z"
       transform="translate(-428.44071,-604.48312)"
       id="path521-8" /></clipPath><clipPath
     clipPathUnits="userSpaceOnUse"
     id="clipPath523-8"><path
       d="M 0,841.89 H 595.276 V 0 H 0 Z"
       transform="translate(-430.16491,-599.39921)"
       id="path523-5" /></clipPath><clipPath
     clipPathUnits="userSpaceOnUse"
     id="clipPath525-7"><path
       d="M 0,841.89 H 595.276 V 0 H 0 Z"
       transform="translate(-434.52351,-596.28061)"
       id="path525-7" /></clipPath><clipPath
     clipPathUnits="userSpaceOnUse"
     id="clipPath527-0"><path
       d="M 0,841.89 H 595.276 V 0 H 0 Z"
       transform="translate(-438.71731,-599.39921)"
       id="path527-8" /></clipPath><clipPath
     clipPathUnits="userSpaceOnUse"
     id="clipPath529-9"><path
       d="M 0,841.89 H 595.276 V 0 H 0 Z"
       transform="translate(-444.28321,-598.76251)"
       id="path529-3" /></clipPath><clipPath
     clipPathUnits="userSpaceOnUse"
     id="clipPath531-0"><path
       d="M 0,841.89 H 595.276 V 0 H 0 Z"
       transform="translate(-379.48631,-593.00962)"
       id="path531-7" /></clipPath><clipPath
     clipPathUnits="userSpaceOnUse"
     id="clipPath533-4"><path
       d="M 0,841.89 H 595.276 V 0 H 0 Z"
       id="path533-7" /></clipPath><clipPath
     clipPathUnits="userSpaceOnUse"
     id="clipPath535-8"><path
       d="M 0,841.89 H 595.276 V 0 H 0 Z"
       transform="translate(-387.14951,-590.24291)"
       id="path535-3" /></clipPath><clipPath
     clipPathUnits="userSpaceOnUse"
     id="clipPath537-7"><path
       d="M 0,841.89 H 595.276 V 0 H 0 Z"
       transform="translate(-390.37741,-593.00962)"
       id="path537-1" /></clipPath><clipPath
     clipPathUnits="userSpaceOnUse"
     id="clipPath539-0"><path
       d="M 0,841.89 H 595.276 V 0 H 0 Z"
       transform="translate(-395.05391,-591.98861)"
       id="path539-0" /></clipPath><clipPath
     clipPathUnits="userSpaceOnUse"
     id="clipPath541-8"><path
       d="M 0,841.89 H 595.276 V 0 H 0 Z"
       transform="translate(-399.33591,-587.92601)"
       id="path541-3" /></clipPath><clipPath
     clipPathUnits="userSpaceOnUse"
     id="clipPath543-4"><path
       d="M 0,841.89 H 595.276 V 0 H 0 Z"
       transform="translate(-402.47601,-593.00962)"
       id="path543-5" /></clipPath><clipPath
     clipPathUnits="userSpaceOnUse"
     id="clipPath545-0"><path
       d="M 0,841.89 H 595.276 V 0 H 0 Z"
       transform="translate(-406.00031,-587.16841)"
       id="path545-1" /></clipPath><clipPath
     clipPathUnits="userSpaceOnUse"
     id="clipPath547-4"><path
       d="M 0,841.89 H 595.276 V 0 H 0 Z"
       transform="translate(-410.04011,-593.00962)"
       id="path547-5" /></clipPath><clipPath
     clipPathUnits="userSpaceOnUse"
     id="clipPath549-6"><path
       d="M 0,841.89 H 595.276 V 0 H 0 Z"
       transform="translate(-415.14531,-591.98861)"
       id="path549-2" /></clipPath><clipPath
     clipPathUnits="userSpaceOnUse"
     id="clipPath551-0"><path
       d="M 0,841.89 H 595.276 V 0 H 0 Z"
       transform="translate(-421.68841,-593.00962)"
       id="path551-3" /></clipPath><clipPath
     clipPathUnits="userSpaceOnUse"
     id="clipPath553-5"><path
       d="M 0,841.89 H 595.276 V 0 H 0 Z"
       transform="translate(-422.19401,-593.00962)"
       id="path553-6" /></clipPath><clipPath
     clipPathUnits="userSpaceOnUse"
     id="clipPath555-6"><path
       d="M 0,841.89 H 595.276 V 0 H 0 Z"
       transform="translate(-429.68091,-593.00962)"
       id="path555-6" /></clipPath><clipPath
     clipPathUnits="userSpaceOnUse"
     id="clipPath557-7"><path
       d="M 0,841.89 H 595.276 V 0 H 0 Z"
       transform="translate(-431.58041,-591.98861)"
       id="path557-6" /></clipPath><clipPath
     clipPathUnits="userSpaceOnUse"
     id="clipPath559-7"><path
       d="M 0,841.89 H 595.276 V 0 H 0 Z"
       transform="translate(-435.87341,-587.92601)"
       id="path559-7" /></clipPath></defs><sodipodi:namedview
   id="namedview1"
   pagecolor="#505050"
   bordercolor="#eeeeee"
   borderopacity="1"
   inkscape:showpageshadow="0"
   inkscape:pageopacity="0"
   inkscape:pagecheckerboard="0"
   inkscape:deskcolor="#505050"
   inkscape:zoom="1.5097656"
   inkscape:cx="256"
   inkscape:cy="544.78655"
   inkscape:window-width="1920"
   inkscape:window-height="991"
   inkscape:window-x="-9"
   inkscape:window-y="-9"
   inkscape:window-maximized="1"
   inkscape:current-layer="Layer_1" />
















<g
   id="g11"
   transform="matrix(4.2214449,0,0,4.2214449,-2009.6292,-1289.5326)"><path
     id="path488"
     d="m 452.452,517.132 h -95.503 v 95.505 h 95.503 z"
     style="fill:#ea4c30;fill-opacity:1;fill-rule:nonzero;stroke:none"
     transform="matrix(1.3333333,0,0,-1.3333333,0,1122.52)"
     clip-path="url(#clipPath489-8)" /><path
     id="path490"
     d="m 0,0 c -0.057,-1.078 -0.511,-1.759 -1.532,-1.759 -1.106,0 -1.534,0.681 -1.534,1.93 v 3.35 c 0,1.22 0.454,1.929 1.562,1.929 C -0.426,5.45 0,4.712 0,3.521 Z m 3.209,2.952 c 0,2.982 -1.307,5.138 -4.713,5.138 -3.436,0 -4.768,-1.872 -4.768,-4.854 V 0.397 c 0,-3.151 1.247,-4.74 3.577,-4.74 1.362,0 2.184,0.625 2.667,1.561 H 0 v -4.143 c 0,-1.164 -0.455,-1.988 -1.618,-1.988 -1.164,0 -1.589,0.681 -1.589,1.874 v 1.276 H -6.16 v -1.022 c 0,-2.838 1.022,-4.825 4.6,-4.825 3.404,0 4.769,2.186 4.769,5.195 z"
     style="fill:#ffffff;fill-opacity:1;fill-rule:nonzero;stroke:none"
     transform="matrix(1.3333333,0,0,-1.3333333,494.97627,326.7388)"
     clip-path="url(#clipPath491-0)" /><path
     id="path492"
     d="M 0,0 -10.192,-5.882 V 5.883 L 0,11.767 Z M -33.668,-5.882 V 4.989 l 9.415,-5.437 z m -1.548,0 L -45.406,0 v 11.767 l 10.19,-5.884 z m 10.963,32.545 -9.415,-5.437 v 10.872 z m 12.512,-5.437 -9.413,5.437 9.413,5.435 z m -9.413,-8.118 10.188,5.882 10.191,-5.881 -10.191,-5.884 z m -2.324,1.342 -9.415,5.435 9.415,5.437 z m 10.962,5.434 -9.413,-5.434 v 10.872 z m -10.962,-18.99 -9.416,5.437 9.416,5.436 z M 1.161,13.78 -10.192,20.331 v 13.108 c 0,0.277 -0.147,0.533 -0.387,0.671 l -11.737,6.777 c -0.24,0.137 -0.535,0.137 -0.775,0 L -34.829,34.11 c -0.24,-0.138 -0.387,-0.394 -0.387,-0.671 V 20.331 L -46.568,13.78 c -0.24,-0.139 -0.387,-0.394 -0.387,-0.671 V -0.448 c 0,-0.277 0.147,-0.532 0.387,-0.671 l 11.739,-6.776 c 0.12,-0.068 0.253,-0.103 0.387,-0.103 0.134,0 0.267,0.035 0.387,0.103 l 11.351,6.553 11.351,-6.553 c 0.119,-0.068 0.253,-0.103 0.387,-0.103 0.134,0 0.267,0.034 0.387,0.103 l 11.74,6.776 c 0.24,0.139 0.387,0.394 0.387,0.671 v 13.557 c 0,0.277 -0.147,0.532 -0.387,0.671"
     style="fill:#ffffff;fill-opacity:1;fill-rule:nonzero;stroke:none"
     transform="matrix(1.3333333,0,0,-1.3333333,570.5812,407.7404)"
     clip-path="url(#clipPath493-2)" /><path
     id="path494"
     d="m 379.486,604.483 h 1.251 v -7.445 h -1.251 z"
     style="fill:#ffffff;fill-opacity:1;fill-rule:nonzero;stroke:none"
     transform="matrix(1.3333333,0,0,-1.3333333,0,1122.52)"
     clip-path="url(#clipPath495-6)" /><path
     id="path496"
     d="m 0,0 v -4.678 h -1.054 v 7.445 h 1.23 l 1.35,-4.271 V 2.767 H 2.569 V -4.678 H 1.471 Z"
     style="fill:#ffffff;fill-opacity:1;fill-rule:nonzero;stroke:none"
     transform="matrix(1.3333333,0,0,-1.3333333,509.8024,320.23187)"
     clip-path="url(#clipPath497-1)" /><path
     id="path498"
     d="M 0,0 C 0.516,0 0.714,0.307 0.714,0.758 V 4.656 C 0.714,5.095 0.516,5.402 0,5.402 H -0.527 V 0 Z M 1.965,4.425 V 0.977 c 0,-1.142 -0.472,-1.998 -1.811,-1.998 h -1.933 v 7.445 h 1.933 c 1.339,0 1.811,-0.846 1.811,-1.999"
     style="fill:#ffffff;fill-opacity:1;fill-rule:nonzero;stroke:none"
     transform="matrix(1.3333333,0,0,-1.3333333,516.33093,325.10747)"
     clip-path="url(#clipPath499-5)" /><path
     id="path500"
     d="M 0,0 -1.965,-0.252 V 0.45 L 0,0.868 Z M 0.769,-0.527 V -6.16 c 0,-1.153 -0.495,-1.9 -1.768,-1.9 -1.318,0 -1.866,0.747 -1.866,1.9 v 5.633 h 1.251 v -5.754 c 0,-0.439 0.176,-0.736 0.615,-0.736 0.439,0 0.615,0.297 0.615,0.736 v 5.754 z"
     style="fill:#ffffff;fill-opacity:1;fill-rule:nonzero;stroke:none"
     transform="matrix(1.3333333,0,0,-1.3333333,523.5036,315.83973)"
     clip-path="url(#clipPath501-0)" /><path
     id="path502"
     d="m 0,0 v 0.999 h 1.164 v -1.021 c 0,-0.417 0.187,-0.659 0.615,-0.659 0.395,0 0.571,0.264 0.571,0.659 v 0.285 c 0,0.429 -0.176,0.692 -0.56,1.055 L 1.054,2.054 C 0.34,2.756 0.011,3.184 0.011,4.041 v 0.252 c 0,0.922 0.538,1.636 1.757,1.636 1.251,0 1.745,-0.615 1.745,-1.69 V 3.634 H 2.371 v 0.648 c 0,0.429 -0.197,0.637 -0.592,0.637 -0.352,0 -0.593,-0.197 -0.593,-0.614 V 4.15 c 0,-0.417 0.23,-0.658 0.593,-1.01 L 2.58,2.35 C 3.261,1.658 3.59,1.241 3.59,0.417 V 0.055 C 3.59,-0.966 3.041,-1.691 1.768,-1.691 0.494,-1.691 0,-0.977 0,0"
     style="fill:#ffffff;fill-opacity:1;fill-rule:nonzero;stroke:none"
     transform="matrix(1.3333333,0,0,-1.3333333,525.1732,324.33133)"
     clip-path="url(#clipPath503-6)" /><path
     id="path504"
     d="M 0,0 H 3.326 V -1.021 H 2.294 V -7.445 H 1.032 v 6.424 H 0 Z"
     style="fill:#ffffff;fill-opacity:1;fill-rule:nonzero;stroke:none"
     transform="matrix(1.3333333,0,0,-1.3333333,530.0628,316.54253)"
     clip-path="url(#clipPath505-6)" /><path
     id="path506"
     d="m 0,0 v -2.317 h 0.417 c 0.428,0 0.615,0.22 0.615,0.615 v 1.098 C 1.032,-0.197 0.845,0 0.417,0 Z m 0,-3.009 v -3.415 h -1.252 v 7.445 h 1.823 c 1.262,0 1.723,-0.626 1.723,-1.669 v -0.955 c 0,-0.802 -0.285,-1.274 -0.998,-1.438 L 2.492,-6.424 H 1.175 Z"
     style="fill:#ffffff;fill-opacity:1;fill-rule:nonzero;stroke:none"
     transform="matrix(1.3333333,0,0,-1.3333333,536.72293,317.90427)"
     clip-path="url(#clipPath507-1)" /><path
     id="path508"
     d="m 405.078,604.483 h 1.252 v -7.445 h -1.252 z"
     style="fill:#ffffff;fill-opacity:1;fill-rule:nonzero;stroke:none"
     transform="matrix(1.3333333,0,0,-1.3333333,0,1122.52)"
     clip-path="url(#clipPath509-7)" /><path
     id="path510"
     d="M 0,0 H 0.999 L 0.505,2.987 H 0.494 Z m -1.569,-2.361 1.404,7.445 H 1.263 L 2.679,-2.361 H 1.394 l -0.23,1.362 h -1.329 l -0.219,-1.362 z"
     style="fill:#ffffff;fill-opacity:1;fill-rule:nonzero;stroke:none"
     transform="matrix(1.3333333,0,0,-1.3333333,544.3496,323.32107)"
     clip-path="url(#clipPath511-0)" /><path
     id="path512"
     d="m 0,0 -0.637,-1.68 h -0.702 l 0.153,1.779 H 0 Z"
     style="fill:#ffffff;fill-opacity:1;fill-rule:nonzero;stroke:none"
     transform="matrix(1.3333333,0,0,-1.3333333,550.10213,325.0048)"
     clip-path="url(#clipPath513-4)" /><path
     id="path514"
     d="m 414.114,604.483 h 1.251 v -7.445 h -1.251 z"
     style="fill:#ffffff;fill-opacity:1;fill-rule:nonzero;stroke:none"
     transform="matrix(1.3333333,0,0,-1.3333333,0,1122.52)"
     clip-path="url(#clipPath515-3)" /><path
     id="path516"
     d="m 0,0 v -4.678 h -1.054 v 7.445 h 1.23 l 1.35,-4.271 V 2.767 H 2.569 V -4.678 H 1.471 Z"
     style="fill:#ffffff;fill-opacity:1;fill-rule:nonzero;stroke:none"
     transform="matrix(1.3333333,0,0,-1.3333333,555.9728,320.23187)"
     clip-path="url(#clipPath517-1)" /><path
     id="path518"
     d="m 0,0 v 3.997 c 0,0.45 -0.197,0.768 -0.648,0.768 -0.439,0 -0.636,-0.318 -0.636,-0.768 V 0 c 0,-0.45 0.197,-0.769 0.636,-0.769 C -0.197,-0.769 0,-0.45 0,0 m -2.536,0.197 v 3.602 c 0,1.164 0.571,2.009 1.888,2.009 1.329,0 1.9,-0.845 1.9,-2.009 V 0.197 c 0,-1.152 -0.571,-2.009 -1.9,-2.009 -1.317,0 -1.888,0.857 -1.888,2.009"
     style="fill:#ffffff;fill-opacity:1;fill-rule:nonzero;stroke:none"
     transform="matrix(1.3333333,0,0,-1.3333333,563.51093,324.17)"
     clip-path="url(#clipPath519-9)" /><path
     id="path520"
     d="M 0,0 -1.416,-7.445 H -2.777 L -4.194,0 h 1.274 l 0.856,-5.194 h 0.011 L -1.174,0 Z"
     style="fill:#ffffff;fill-opacity:1;fill-rule:nonzero;stroke:none"
     transform="matrix(1.3333333,0,0,-1.3333333,571.25427,316.54253)"
     clip-path="url(#clipPath521-3)" /><path
     id="path522"
     d="M 0,0 H 0.999 L 0.505,2.987 H 0.494 Z m -1.57,-2.361 1.405,7.445 H 1.262 L 2.678,-2.361 H 1.394 l -0.231,1.362 h -1.328 l -0.22,-1.362 z"
     style="fill:#ffffff;fill-opacity:1;fill-rule:nonzero;stroke:none"
     transform="matrix(1.3333333,0,0,-1.3333333,573.5532,323.32107)"
     clip-path="url(#clipPath523-8)" /><path
     id="path524"
     d="m 0,0 c 0.351,0.011 0.406,0.088 0.406,0.176 0,0.077 -0.066,0.12 -0.175,0.12 H 0.175 v 0.407 c -1.064,0.132 -1.503,0.933 -1.503,1.976 v 3.602 c 0,1.164 0.548,2.009 1.866,2.009 1.383,0 1.767,-0.768 1.767,-1.866 V 5.545 H 1.164 v 0.978 c 0,0.461 -0.154,0.724 -0.604,0.724 -0.45,0 -0.637,-0.318 -0.637,-0.768 V 2.482 c 0,-0.45 0.187,-0.769 0.637,-0.769 0.45,0 0.604,0.286 0.604,0.725 V 3.81 H 2.305 V 2.526 C 2.305,1.483 1.888,0.714 0.648,0.67 V 0.571 C 0.944,0.527 1.109,0.417 1.109,0.176 1.109,-0.165 0.79,-0.352 0,-0.352 Z"
     style="fill:#ffffff;fill-opacity:1;fill-rule:nonzero;stroke:none"
     transform="matrix(1.3333333,0,0,-1.3333333,579.36467,327.4792)"
     clip-path="url(#clipPath525-7)" /><path
     id="path526"
     d="M 0,0 H 0.999 L 0.505,2.987 H 0.494 Z m -0.593,5.38 c 0.022,0.517 0.22,0.934 0.769,0.934 0.318,0 0.581,-0.187 0.746,-0.187 0.088,0 0.154,0.055 0.154,0.165 H 1.69 C 1.669,5.776 1.471,5.359 0.922,5.359 0.604,5.359 0.34,5.545 0.176,5.545 0.088,5.545 0.022,5.49 0.022,5.38 Z M -1.57,-2.361 -0.165,5.084 H 1.262 L 2.679,-2.361 H 1.394 l -0.23,1.362 h -1.329 l -0.219,-1.362 z"
     style="fill:#ffffff;fill-opacity:1;fill-rule:nonzero;stroke:none"
     transform="matrix(1.3333333,0,0,-1.3333333,584.9564,323.32107)"
     clip-path="url(#clipPath527-0)" /><path
     id="path528"
     d="m 0,0 v 3.997 c 0,0.45 -0.197,0.768 -0.648,0.768 -0.439,0 -0.636,-0.318 -0.636,-0.768 V 0 c 0,-0.45 0.197,-0.769 0.636,-0.769 C -0.197,-0.769 0,-0.45 0,0 m -2.536,0.197 v 3.602 c 0,1.164 0.571,2.009 1.888,2.009 1.329,0 1.9,-0.845 1.9,-2.009 V 0.197 c 0,-1.152 -0.571,-2.009 -1.9,-2.009 -1.317,0 -1.888,0.857 -1.888,2.009"
     style="fill:#ffffff;fill-opacity:1;fill-rule:nonzero;stroke:none"
     transform="matrix(1.3333333,0,0,-1.3333333,592.3776,324.17)"
     clip-path="url(#clipPath529-9)" /><path
     id="path530"
     d="M 0,0 H 2.986 V -1.021 H 1.251 v -2.13 h 1.241 v -1.01 H 1.251 V -6.423 H 2.986 V -7.445 H 0 Z"
     style="fill:#ffffff;fill-opacity:1;fill-rule:nonzero;stroke:none"
     transform="matrix(1.3333333,0,0,-1.3333333,505.98173,331.84053)"
     clip-path="url(#clipPath531-0)" /><path
     id="path532"
     d="m 384.174,593.01 h 1.252 v -7.445 h -1.252 z"
     style="fill:#ffffff;fill-opacity:1;fill-rule:nonzero;stroke:none"
     transform="matrix(1.3333333,0,0,-1.3333333,0,1122.52)"
     clip-path="url(#clipPath533-4)" /><path
     id="path534"
     d="m 0,0 v -4.678 h -1.054 v 7.445 h 1.23 l 1.35,-4.271 V 2.767 H 2.569 V -4.678 H 1.471 Z"
     style="fill:#ffffff;fill-opacity:1;fill-rule:nonzero;stroke:none"
     transform="matrix(1.3333333,0,0,-1.3333333,516.19933,335.52947)"
     clip-path="url(#clipPath535-8)" /><path
     id="path536"
     d="M 0,0 H 2.931 V -1.021 H 1.252 v -2.13 h 1.251 v -1.01 H 1.252 V -7.445 H 0 Z"
     style="fill:#ffffff;fill-opacity:1;fill-rule:nonzero;stroke:none"
     transform="matrix(1.3333333,0,0,-1.3333333,520.5032,331.84053)"
     clip-path="url(#clipPath537-7)" /><path
     id="path538"
     d="m 0,0 v -2.317 h 0.417 c 0.428,0 0.615,0.22 0.615,0.615 v 1.098 C 1.032,-0.198 0.845,0 0.417,0 Z m 0,-3.009 v -3.415 h -1.252 v 7.445 h 1.823 c 1.263,0 1.724,-0.626 1.724,-1.669 v -0.955 c 0,-0.802 -0.286,-1.274 -0.999,-1.438 L 2.492,-6.424 H 1.175 Z"
     style="fill:#ffffff;fill-opacity:1;fill-rule:nonzero;stroke:none"
     transform="matrix(1.3333333,0,0,-1.3333333,526.73853,333.20187)"
     clip-path="url(#clipPath539-0)" /><path
     id="path540"
     d="M 0,0 H 0.999 L 0.505,2.987 H 0.494 Z m -1.57,-2.361 1.405,7.445 H 1.262 L 2.679,-2.361 H 1.394 l -0.23,1.362 h -1.329 l -0.219,-1.362 z"
     style="fill:#ffffff;fill-opacity:1;fill-rule:nonzero;stroke:none"
     transform="matrix(1.3333333,0,0,-1.3333333,532.44787,338.61867)"
     clip-path="url(#clipPath541-8)" /><path
     id="path542"
     d="M 0,0 H 2.986 V -1.021 H 1.251 v -2.13 h 1.241 v -1.01 H 1.251 V -6.423 H 2.986 V -7.445 H 0 Z"
     style="fill:#ffffff;fill-opacity:1;fill-rule:nonzero;stroke:none"
     transform="matrix(1.3333333,0,0,-1.3333333,536.63467,331.84053)"
     clip-path="url(#clipPath543-4)" /><path
     id="path544"
     d="m 0,0 v 0.999 h 1.163 v -1.021 c 0,-0.417 0.187,-0.659 0.615,-0.659 0.395,0 0.571,0.264 0.571,0.659 v 0.286 c 0,0.428 -0.176,0.691 -0.56,1.053 L 1.054,2.053 C 0.34,2.756 0.011,3.184 0.011,4.041 v 0.252 c 0,0.922 0.538,1.636 1.756,1.636 1.252,0 1.746,-0.614 1.746,-1.691 V 3.634 H 2.371 V 4.282 C 2.371,4.71 2.173,4.919 1.778,4.919 1.427,4.919 1.186,4.722 1.186,4.304 V 4.15 c 0,-0.417 0.23,-0.658 0.592,-1.01 L 2.58,2.35 C 3.26,1.658 3.589,1.241 3.589,0.417 V 0.055 C 3.589,-0.967 3.041,-1.691 1.767,-1.691 0.494,-1.691 0,-0.978 0,0"
     style="fill:#ffffff;fill-opacity:1;fill-rule:nonzero;stroke:none"
     transform="matrix(1.3333333,0,0,-1.3333333,541.33373,339.6288)"
     clip-path="url(#clipPath545-0)" /><path
     id="path546"
     d="M 0,0 H 3.327 V -1.021 H 2.294 V -7.445 H 1.032 v 6.424 H 0 Z"
     style="fill:#ffffff;fill-opacity:1;fill-rule:nonzero;stroke:none"
     transform="matrix(1.3333333,0,0,-1.3333333,546.72013,331.84053)"
     clip-path="url(#clipPath547-4)" /><path
     id="path548"
     d="m 0,0 v -2.317 h 0.417 c 0.428,0 0.615,0.22 0.615,0.615 v 1.098 C 1.032,-0.198 0.845,0 0.417,0 Z m 0,-3.009 v -3.415 h -1.252 v 7.445 h 1.823 c 1.262,0 1.723,-0.626 1.723,-1.669 v -0.955 c 0,-0.802 -0.285,-1.274 -0.998,-1.438 L 2.492,-6.424 H 1.174 Z"
     style="fill:#ffffff;fill-opacity:1;fill-rule:nonzero;stroke:none"
     transform="matrix(1.3333333,0,0,-1.3333333,553.52707,333.20187)"
     clip-path="url(#clipPath549-6)" /><path
     id="path550"
     d="m 0,0 v -5.633 c 0,-1.152 -0.494,-1.899 -1.767,-1.899 -1.318,0 -1.867,0.747 -1.867,1.899 V 0 h 1.252 v -5.754 c 0,-0.438 0.176,-0.735 0.615,-0.735 0.439,0 0.614,0.297 0.614,0.735 V 0 Z"
     style="fill:#ffffff;fill-opacity:1;fill-rule:nonzero;stroke:none"
     transform="matrix(1.3333333,0,0,-1.3333333,562.2512,331.84053)"
     clip-path="url(#clipPath551-0)" /><path
     id="path552"
     d="M 0,0 H 3.326 V -1.021 H 2.294 V -7.445 H 1.032 v 6.424 H 0 Z"
     style="fill:#ffffff;fill-opacity:1;fill-rule:nonzero;stroke:none"
     transform="matrix(1.3333333,0,0,-1.3333333,562.92533,331.84053)"
     clip-path="url(#clipPath553-5)" /><path
     id="path554"
     d="m 0,0 v -5.633 c 0,-1.152 -0.494,-1.899 -1.767,-1.899 -1.317,0 -1.866,0.747 -1.866,1.899 V 0 h 1.251 v -5.754 c 0,-0.438 0.176,-0.735 0.615,-0.735 0.439,0 0.615,0.297 0.615,0.735 V 0 Z"
     style="fill:#ffffff;fill-opacity:1;fill-rule:nonzero;stroke:none"
     transform="matrix(1.3333333,0,0,-1.3333333,572.90787,331.84053)"
     clip-path="url(#clipPath555-6)" /><path
     id="path556"
     d="m 0,0 v -2.317 h 0.417 c 0.428,0 0.615,0.22 0.615,0.615 v 1.098 C 1.032,-0.198 0.845,0 0.417,0 Z m 0,-3.009 v -3.415 h -1.251 v 7.445 h 1.822 c 1.263,0 1.723,-0.626 1.723,-1.669 v -0.955 c 0,-0.802 -0.285,-1.274 -0.998,-1.438 L 2.492,-6.424 H 1.175 Z"
     style="fill:#ffffff;fill-opacity:1;fill-rule:nonzero;stroke:none"
     transform="matrix(1.3333333,0,0,-1.3333333,575.44053,333.20187)"
     clip-path="url(#clipPath557-7)" /><path
     id="path558"
     d="M 0,0 H 0.999 L 0.505,2.987 H 0.494 Z m -1.57,-2.361 1.405,7.445 H 1.263 L 2.679,-2.361 H 1.394 l -0.23,1.362 h -1.329 l -0.219,-1.362 z"
     style="fill:#ffffff;fill-opacity:1;fill-rule:nonzero;stroke:none"
     transform="matrix(1.3333333,0,0,-1.3333333,581.16453,338.61867)"
     clip-path="url(#clipPath559-7)" /></g></svg>
