<?xml version="1.0" encoding="UTF-8" standalone="no"?>
<svg
   width="64"
   height="65"
   viewBox="0 0 64 65"
   fill="none"
   version="1.1"
   id="svg17"
   sodipodi:docname="retro.svg"
   inkscape:version="1.4.2 (f4327f4, 2025-05-13)"
   xmlns:inkscape="http://www.inkscape.org/namespaces/inkscape"
   xmlns:sodipodi="http://sodipodi.sourceforge.net/DTD/sodipodi-0.dtd"
   xmlns="http://www.w3.org/2000/svg"
   xmlns:svg="http://www.w3.org/2000/svg">
  <sodipodi:namedview
     id="namedview17"
     pagecolor="#505050"
     bordercolor="#eeeeee"
     borderopacity="1"
     inkscape:showpageshadow="0"
     inkscape:pageopacity="0"
     inkscape:pagecheckerboard="0"
     inkscape:deskcolor="#505050"
     inkscape:zoom="5.9461538"
     inkscape:cx="19.928849"
     inkscape:cy="15.72445"
     inkscape:window-width="1920"
     inkscape:window-height="991"
     inkscape:window-x="-9"
     inkscape:window-y="-9"
     inkscape:window-maximized="1"
     inkscape:current-layer="svg17" />
  <defs
     id="defs17">
    <filter
       id="filter0_i_34_884"
       x="0"
       y="0.0158691"
       width="64"
       height="59.3562"
       filterUnits="userSpaceOnUse"
       color-interpolation-filters="sRGB">
      <feFlood
         flood-opacity="0"
         result="BackgroundImageFix"
         id="feFlood16" />
      <feBlend
         mode="normal"
         in="SourceGraphic"
         in2="BackgroundImageFix"
         result="shape"
         id="feBlend16" />
      <feColorMatrix
         in="SourceAlpha"
         type="matrix"
         values="0 0 0 0 0 0 0 0 0 0 0 0 0 0 0 0 0 0 127 0"
         result="hardAlpha"
         id="feColorMatrix16" />
      <feOffset
         dy="4"
         id="feOffset16" />
      <feGaussianBlur
         stdDeviation="2"
         id="feGaussianBlur16" />
      <feComposite
         in2="hardAlpha"
         operator="arithmetic"
         k2="-1"
         k3="1"
         id="feComposite16" />
      <feColorMatrix
         type="matrix"
         values="0 0 0 0 0 0 0 0 0 0 0 0 0 0 0 0 0 0 0.25 0"
         id="feColorMatrix17" />
      <feBlend
         mode="normal"
         in2="shape"
         result="effect1_innerShadow_34_884"
         id="feBlend17" />
    </filter>
    <clipPath
       id="clip0_34_884">
      <rect
         width="64"
         height="64"
         fill="white"
         transform="translate(0 0.0158691)"
         id="rect17" />
    </clipPath>
    <clipPath
       clipPathUnits="userSpaceOnUse"
       id="clipPath1883-2">
      <path
         d="M 0,841.89 H 595.276 V 0 H 0 Z"
         transform="translate(-73.026702,-185.09871)"
         id="path1883-2" />
    </clipPath>
    <clipPath
       clipPathUnits="userSpaceOnUse"
       id="clipPath1885-8">
      <path
         d="M 0,841.89 H 595.276 V 0 H 0 Z"
         transform="translate(-60.650602,-182.81511)"
         id="path1885-8" />
    </clipPath>
    <clipPath
       clipPathUnits="userSpaceOnUse"
       id="clipPath1887-8">
      <path
         d="M 0,841.89 H 595.276 V 0 H 0 Z"
         transform="translate(-100.85541,-195.32841)"
         id="path1887-7" />
    </clipPath>
    <clipPath
       clipPathUnits="userSpaceOnUse"
       id="clipPath1889-4">
      <path
         d="M 0,841.89 H 595.276 V 0 H 0 Z"
         transform="translate(-203.96121,-188.6923)"
         id="path1889-0" />
    </clipPath>
    <clipPath
       clipPathUnits="userSpaceOnUse"
       id="clipPath1891-0">
      <path
         d="M 0,841.89 H 595.276 V 0 H 0 Z"
         transform="translate(-154.7275,-177.14691)"
         id="path1891-5" />
    </clipPath>
    <clipPath
       clipPathUnits="userSpaceOnUse"
       id="clipPath1893-9">
      <path
         d="M 0,841.89 H 595.276 V 0 H 0 Z"
         transform="translate(-123.83241,-170.2813)"
         id="path1893-9" />
    </clipPath>
    <clipPath
       clipPathUnits="userSpaceOnUse"
       id="clipPath1895-5">
      <path
         d="M 0,841.89 H 595.276 V 0 H 0 Z"
         transform="translate(-86.194,-170.0064)"
         id="path1895-3" />
    </clipPath>
    <clipPath
       clipPathUnits="userSpaceOnUse"
       id="clipPath1897-0">
      <path
         d="M 0,841.89 H 595.276 V 0 H 0 Z"
         transform="translate(-137.4666,-195.0727)"
         id="path1897-9" />
    </clipPath>
    <clipPath
       clipPathUnits="userSpaceOnUse"
       id="clipPath1899-9">
      <path
         d="M 0,841.89 H 595.276 V 0 H 0 Z"
         transform="translate(-183.0144,-178.161)"
         id="path1899-5" />
    </clipPath>
    <clipPath
       clipPathUnits="userSpaceOnUse"
       id="clipPath1901-1">
      <path
         d="M 0,841.89 H 595.276 V 0 H 0 Z"
         transform="translate(-174.90681,-169.2091)"
         id="path1901-1" />
    </clipPath>
    <clipPath
       clipPathUnits="userSpaceOnUse"
       id="clipPath1903-1">
      <path
         d="M 0,841.89 H 595.276 V 0 H 0 Z"
         transform="translate(-176.4798,-189.49161)"
         id="path1903-2" />
    </clipPath>
    <clipPath
       clipPathUnits="userSpaceOnUse"
       id="clipPath1905-3">
      <path
         d="M 0,841.89 H 595.276 V 0 H 0 Z"
         transform="translate(-173.316,-175.76511)"
         id="path1905-3" />
    </clipPath>
    <clipPath
       clipPathUnits="userSpaceOnUse"
       id="clipPath1907-9">
      <path
         d="M 0,841.89 H 595.276 V 0 H 0 Z"
         transform="translate(-164.2113,-178.96341)"
         id="path1907-7" />
    </clipPath>
    <clipPath
       clipPathUnits="userSpaceOnUse"
       id="clipPath1909-2">
      <path
         d="M 0,841.89 H 595.276 V 0 H 0 Z"
         transform="translate(-169.8696,-179.8684)"
         id="path1909-3" />
    </clipPath>
    <clipPath
       clipPathUnits="userSpaceOnUse"
       id="clipPath1911-3">
      <path
         d="M 0,841.89 H 595.276 V 0 H 0 Z"
         transform="translate(-180.49941,-175.85301)"
         id="path1911-0" />
    </clipPath>
    <clipPath
       clipPathUnits="userSpaceOnUse"
       id="clipPath1913-4">
      <path
         d="M 0,841.89 H 595.276 V 0 H 0 Z"
         transform="translate(-184.09101,-183.1768)"
         id="path1913-8" />
    </clipPath>
    <clipPath
       clipPathUnits="userSpaceOnUse"
       id="clipPath1915-4">
      <path
         d="M 0,841.89 H 595.276 V 0 H 0 Z"
         transform="translate(-189.8511,-183.06021)"
         id="path1915-3" />
    </clipPath>
    <clipPath
       clipPathUnits="userSpaceOnUse"
       id="clipPath1917-9">
      <path
         d="M 0,841.89 H 595.276 V 0 H 0 Z"
         transform="translate(-169.726,-171.25251)"
         id="path1917-2" />
    </clipPath>
    <clipPath
       clipPathUnits="userSpaceOnUse"
       id="clipPath1919-4">
      <path
         d="M 0,841.89 H 595.276 V 0 H 0 Z"
         transform="translate(-181.8771,-194.17521)"
         id="path1919-9" />
    </clipPath>
    <clipPath
       clipPathUnits="userSpaceOnUse"
       id="clipPath1921-0">
      <path
         d="M 0,841.89 H 595.276 V 0 H 0 Z"
         transform="translate(-184.09491,-171.35211)"
         id="path1921-5" />
    </clipPath>
    <clipPath
       clipPathUnits="userSpaceOnUse"
       id="clipPath1923-7">
      <path
         d="M 0,841.89 H 595.276 V 0 H 0 Z"
         transform="translate(-165.38151,-188.3821)"
         id="path1923-4" />
    </clipPath>
    <clipPath
       clipPathUnits="userSpaceOnUse"
       id="clipPath1925-7">
      <path
         d="M 0,841.89 H 595.276 V 0 H 0 Z"
         transform="translate(-185.91381,-191.5281)"
         id="path1925-6" />
    </clipPath>
    <clipPath
       clipPathUnits="userSpaceOnUse"
       id="clipPath1927-6">
      <path
         d="M 0,841.89 H 595.276 V 0 H 0 Z"
         transform="translate(-177.2793,-189.4833)"
         id="path1927-3" />
    </clipPath>
    <clipPath
       clipPathUnits="userSpaceOnUse"
       id="clipPath1929-0">
      <path
         d="M 0,841.89 H 595.276 V 0 H 0 Z"
         transform="translate(-168.4039,-192.1221)"
         id="path1929-9" />
    </clipPath>
    <clipPath
       clipPathUnits="userSpaceOnUse"
       id="clipPath1931-0">
      <path
         d="M 0,841.89 H 595.276 V 0 H 0 Z"
         transform="translate(-170.09991,-185.181)"
         id="path1931-8" />
    </clipPath>
    <clipPath
       clipPathUnits="userSpaceOnUse"
       id="clipPath1933-0">
      <path
         d="M 0,841.89 H 595.276 V 0 H 0 Z"
         transform="translate(-183.0144,-178.161)"
         id="path1933-1" />
    </clipPath>
    <clipPath
       clipPathUnits="userSpaceOnUse"
       id="clipPath1935-5">
      <path
         d="M 0,841.89 H 595.276 V 0 H 0 Z"
         transform="translate(-124.94091,-129.01701)"
         id="path1935-1" />
    </clipPath>
    <clipPath
       clipPathUnits="userSpaceOnUse"
       id="clipPath1937-0">
      <path
         d="M 0,841.89 H 595.276 V 0 H 0 Z"
         transform="translate(-57.366901,-147.1065)"
         id="path1937-3" />
    </clipPath>
    <clipPath
       clipPathUnits="userSpaceOnUse"
       id="clipPath1939-9">
      <path
         d="M 0,841.89 H 595.276 V 0 H 0 Z"
         transform="translate(-159.9279,-142.6075)"
         id="path1939-5" />
    </clipPath>
    <clipPath
       clipPathUnits="userSpaceOnUse"
       id="clipPath1941-8">
      <path
         d="M 0,841.89 H 595.276 V 0 H 0 Z"
         transform="translate(-88.4635,-142.4502)"
         id="path1941-9" />
    </clipPath>
    <clipPath
       clipPathUnits="userSpaceOnUse"
       id="clipPath1943-6">
      <path
         d="M 0,841.89 H 595.276 V 0 H 0 Z"
         transform="translate(-53.708302,-142.4365)"
         id="path1943-2" />
    </clipPath>
    <clipPath
       clipPathUnits="userSpaceOnUse"
       id="clipPath1945-5">
      <path
         d="M 0,841.89 H 595.276 V 0 H 0 Z"
         transform="translate(-106.83261,-147.0844)"
         id="path1945-7" />
    </clipPath>
    <clipPath
       clipPathUnits="userSpaceOnUse"
       id="clipPath1947-6">
      <path
         d="M 0,841.89 H 595.276 V 0 H 0 Z"
         transform="translate(-189.05421,-143.94801)"
         id="path1947-3" />
    </clipPath>
    <clipPath
       clipPathUnits="userSpaceOnUse"
       id="clipPath1949-8">
      <path
         d="M 0,841.89 H 595.276 V 0 H 0 Z"
         transform="translate(-175.5196,-134.04801)"
         id="path1949-5" />
    </clipPath>
    <clipPath
       clipPathUnits="userSpaceOnUse"
       id="clipPath1951-9">
      <path
         d="M 0,841.89 H 595.276 V 0 H 0 Z"
         transform="translate(-99.371905,-129.0166)"
         id="path1951-3" />
    </clipPath>
    <clipPath
       clipPathUnits="userSpaceOnUse"
       id="clipPath1953-0">
      <path
         d="M 0,841.89 H 595.276 V 0 H 0 Z"
         transform="translate(-143.6859,-143.5573)"
         id="path1953-2" />
    </clipPath>
    <clipPath
       clipPathUnits="userSpaceOnUse"
       id="clipPath1955-5">
      <path
         d="M 0,841.89 H 595.276 V 0 H 0 Z"
         transform="translate(-199.9329,-147.08721)"
         id="path1955-1" />
    </clipPath>
    <clipPath
       clipPathUnits="userSpaceOnUse"
       id="clipPath1957-5">
      <path
         d="M 0,841.89 H 595.276 V 0 H 0 Z"
         transform="translate(-160.28121,-159.4089)"
         id="path1957-7" />
    </clipPath>
    <clipPath
       clipPathUnits="userSpaceOnUse"
       id="clipPath1959-7">
      <path
         d="M 0,841.89 H 595.276 V 0 H 0 Z"
         transform="translate(-182.6197,-159.3699)"
         id="path1959-9" />
    </clipPath>
    <clipPath
       clipPathUnits="userSpaceOnUse"
       id="clipPath1961-4">
      <path
         d="M 0,841.89 H 595.276 V 0 H 0 Z"
         transform="translate(-112.723,-152.4513)"
         id="path1961-1" />
    </clipPath>
    <clipPath
       clipPathUnits="userSpaceOnUse"
       id="clipPath1963-7">
      <path
         d="M 0,841.89 H 595.276 V 0 H 0 Z"
         transform="translate(-67.913302,-154.137)"
         id="path1963-8" />
    </clipPath>
    <clipPath
       clipPathUnits="userSpaceOnUse"
       id="clipPath1965-5">
      <path
         d="M 0,841.89 H 595.276 V 0 H 0 Z"
         transform="translate(-48.419001,-159.0214)"
         id="path1965-7" />
    </clipPath>
    <clipPath
       clipPathUnits="userSpaceOnUse"
       id="clipPath1967-8">
      <path
         d="M 0,841.89 H 595.276 V 0 H 0 Z"
         transform="translate(-128.6077,-161.3578)"
         id="path1967-8" />
    </clipPath>
    <clipPath
       clipPathUnits="userSpaceOnUse"
       id="clipPath1969-4">
      <path
         d="M 0,841.89 H 595.276 V 0 H 0 Z"
         transform="translate(-207.1417,-159.9957)"
         id="path1969-2" />
    </clipPath>
    <clipPath
       clipPathUnits="userSpaceOnUse"
       id="clipPath1971-3">
      <path
         d="M 0,841.89 H 595.276 V 0 H 0 Z"
         transform="translate(-85.083205,-155.60211)"
         id="path1971-8" />
    </clipPath>
    <clipPath
       clipPathUnits="userSpaceOnUse"
       id="clipPath1973-4">
      <path
         d="M 0,841.89 H 595.276 V 0 H 0 Z"
         transform="translate(-97.4581,-154.34421)"
         id="path1973-1" />
    </clipPath>
    <clipPath
       clipPathUnits="userSpaceOnUse"
       id="clipPath1975-3">
      <path
         d="M 0,841.89 H 595.276 V 0 H 0 Z"
         transform="translate(-178.7848,-163.2624)"
         id="path1975-0" />
    </clipPath>
    <clipPath
       clipPathUnits="userSpaceOnUse"
       id="clipPath1977-4">
      <path
         d="M 0,841.89 H 595.276 V 0 H 0 Z"
         transform="translate(-76.791999,-163.2781)"
         id="path1977-1" />
    </clipPath>
    <clipPath
       clipPathUnits="userSpaceOnUse"
       id="clipPath1979-7">
      <path
         d="M 0,841.89 H 595.276 V 0 H 0 Z"
         transform="translate(-54.847901,-158.8186)"
         id="path1979-7" />
    </clipPath>
    <clipPath
       clipPathUnits="userSpaceOnUse"
       id="clipPath1981-2">
      <path
         d="M 0,841.89 H 595.276 V 0 H 0 Z"
         transform="translate(-145.1185,-163.2612)"
         id="path1981-1" />
    </clipPath>
    <clipPath
       clipPathUnits="userSpaceOnUse"
       id="clipPath1983-3">
      <path
         d="M 0,841.89 H 595.276 V 0 H 0 Z"
         transform="translate(-114.2055,-163.27131)"
         id="path1983-1" />
    </clipPath>
    <clipPath
       clipPathUnits="userSpaceOnUse"
       id="clipPath1985-3">
      <path
         d="M 0,841.89 H 595.276 V 0 H 0 Z"
         transform="translate(-199.0081,-161.37831)"
         id="path1985-1" />
    </clipPath>
    <clipPath
       clipPathUnits="userSpaceOnUse"
       id="clipPath1987-5">
      <path
         d="M 0,841.89 H 595.276 V 0 H 0 Z"
         transform="translate(-136.8675,-163.2781)"
         id="path1987-1" />
    </clipPath>
    <clipPath
       clipPathUnits="userSpaceOnUse"
       id="clipPath1989-5">
      <path
         d="M 0,841.89 H 595.276 V 0 H 0 Z"
         transform="translate(-155.54571,-152.4561)"
         id="path1989-0" />
    </clipPath>
    <clipPath
       clipPathUnits="userSpaceOnUse"
       id="clipPath1991-5">
      <path
         d="M 0,841.89 H 595.276 V 0 H 0 Z"
         transform="translate(-100.8907,-118.858)"
         id="path1991-1" />
    </clipPath>
    <clipPath
       clipPathUnits="userSpaceOnUse"
       id="clipPath1993-2">
      <path
         d="M 0,841.89 H 595.276 V 0 H 0 Z"
         transform="translate(-146.4817,-118.858)"
         id="path1993-2" />
    </clipPath>
    <clipPath
       clipPathUnits="userSpaceOnUse"
       id="clipPath1995-1">
      <path
         d="M 0,841.89 H 595.276 V 0 H 0 Z"
         transform="translate(-93.441302,-115.3188)"
         id="path1995-5" />
    </clipPath>
    <clipPath
       clipPathUnits="userSpaceOnUse"
       id="clipPath1997-5">
      <path
         d="M 0,841.89 H 595.276 V 0 H 0 Z"
         transform="translate(-153.9312,-115.3188)"
         id="path1997-3" />
    </clipPath>
    <clipPath
       clipPathUnits="userSpaceOnUse"
       id="clipPath1999-8">
      <path
         d="M 0,841.89 H 595.276 V 0 H 0 Z"
         transform="translate(-86.489702,-109.4884)"
         id="path1999-9" />
    </clipPath>
    <clipPath
       clipPathUnits="userSpaceOnUse"
       id="clipPath2001-2">
      <path
         d="M 0,841.89 H 595.276 V 0 H 0 Z"
         transform="translate(-160.8828,-109.4884)"
         id="path2001-8" />
    </clipPath>
    <clipPath
       clipPathUnits="userSpaceOnUse"
       id="clipPath2003-4">
      <path
         d="M 0,841.89 H 595.276 V 0 H 0 Z"
         transform="translate(-81.997,-98.6308)"
         id="path2003-2" />
    </clipPath>
    <clipPath
       clipPathUnits="userSpaceOnUse"
       id="clipPath2005-7">
      <path
         d="M 0,841.89 H 595.276 V 0 H 0 Z"
         transform="translate(-165.37461,-98.6308)"
         id="path2005-5" />
    </clipPath>
    <clipPath
       clipPathUnits="userSpaceOnUse"
       id="clipPath2007-8">
      <path
         d="M 0,841.89 H 595.276 V 0 H 0 Z"
         transform="translate(-80.925602,-86.015177)"
         id="path2007-4" />
    </clipPath>
    <clipPath
       clipPathUnits="userSpaceOnUse"
       id="clipPath2009-0">
      <path
         d="M 0,841.89 H 595.276 V 0 H 0 Z"
         transform="translate(-166.446,-86.015177)"
         id="path2009-9" />
    </clipPath>
    <clipPath
       clipPathUnits="userSpaceOnUse"
       id="clipPath2011-4">
      <path
         d="M 0,841.89 H 595.276 V 0 H 0 Z"
         transform="translate(-83.587405,-74.413277)"
         id="path2011-4" />
    </clipPath>
    <clipPath
       clipPathUnits="userSpaceOnUse"
       id="clipPath2013-3">
      <path
         d="M 0,841.89 H 595.276 V 0 H 0 Z"
         transform="translate(-163.7851,-74.413277)"
         id="path2013-5" />
    </clipPath>
    <clipPath
       clipPathUnits="userSpaceOnUse"
       id="clipPath2015-8">
      <path
         d="M 0,841.89 H 595.276 V 0 H 0 Z"
         transform="translate(-89.855702,-64.142702)"
         id="path2015-4" />
    </clipPath>
    <clipPath
       clipPathUnits="userSpaceOnUse"
       id="clipPath2017-1">
      <path
         d="M 0,841.89 H 595.276 V 0 H 0 Z"
         transform="translate(-157.5166,-64.142702)"
         id="path2017-0" />
    </clipPath>
    <clipPath
       clipPathUnits="userSpaceOnUse"
       id="clipPath2019-3">
      <path
         d="M 0,841.89 H 595.276 V 0 H 0 Z"
         transform="translate(-145.5321,-53.064976)"
         id="path2019-3" />
    </clipPath>
    <clipPath
       clipPathUnits="userSpaceOnUse"
       id="clipPath2021-4">
      <path
         d="M 0,841.89 H 595.276 V 0 H 0 Z"
         transform="translate(-123.1914,-103.2453)"
         id="path2021-0" />
    </clipPath>
    <clipPath
       clipPathUnits="userSpaceOnUse"
       id="clipPath2023-6">
      <path
         d="M 0,841.89 H 595.276 V 0 H 0 Z"
         transform="translate(-123.1914,-97.3705)"
         id="path2023-7" />
    </clipPath>
    <clipPath
       clipPathUnits="userSpaceOnUse"
       id="clipPath2025-5">
      <path
         d="M 0,841.89 H 595.276 V 0 H 0 Z"
         transform="translate(-102.4314,-112.5889)"
         id="path2025-5" />
    </clipPath>
    <clipPath
       clipPathUnits="userSpaceOnUse"
       id="clipPath2027-6">
      <path
         d="M 0,841.89 H 595.276 V 0 H 0 Z"
         transform="translate(-152.5498,-91.829027)"
         id="path2027-0" />
    </clipPath>
    <clipPath
       clipPathUnits="userSpaceOnUse"
       id="clipPath2029-9">
      <path
         d="M 0,841.89 H 595.276 V 0 H 0 Z"
         transform="translate(-143.95041,-112.5889)"
         id="path2029-8" />
    </clipPath>
    <clipPath
       clipPathUnits="userSpaceOnUse"
       id="clipPath2031-3">
      <path
         d="M 0,841.89 H 595.276 V 0 H 0 Z"
         transform="translate(-132.9877,-84.259427)"
         id="path2031-5" />
    </clipPath>
    <clipPath
       clipPathUnits="userSpaceOnUse"
       id="clipPath2033-7">
      <path
         d="M 0,841.89 H 595.276 V 0 H 0 Z"
         transform="translate(-136.0344,-107.3887)"
         id="path2033-9" />
    </clipPath>
    <clipPath
       clipPathUnits="userSpaceOnUse"
       id="clipPath2035-0">
      <path
         d="M 0,841.89 H 595.276 V 0 H 0 Z"
         transform="translate(-137.2513,-114.2272)"
         id="path2035-4" />
    </clipPath>
    <clipPath
       clipPathUnits="userSpaceOnUse"
       id="clipPath2037-8">
      <path
         d="M 0,841.89 H 595.276 V 0 H 0 Z"
         transform="translate(-124.79301,-117.14931)"
         id="path2037-7" />
    </clipPath>
  </defs>
  <path
     id="path1882"
     d="M 0,0 C 1.299,0 2.554,-0.053 3.801,0.019 4.658,0.067 5.466,0.39 6.1,1.013 6.794,1.693 6.979,2.63 6.686,3.646 6.623,3.866 6.653,4.113 6.642,4.308 6.359,4.592 6.107,4.834 5.867,5.086 5.383,5.594 4.744,5.812 4.094,5.84 2.742,5.899 1.386,5.858 0,5.858 Z m 0.004,-4.184 v -6.276 c 1.319,0 2.603,-0.002 3.887,0 1.243,0.002 2.25,0.515 3.054,1.442 0.146,0.168 0.329,0.391 0.326,0.586 -0.01,0.604 0.495,1.207 0.019,1.811 0.03,1.133 -1.571,2.395 -2.782,2.428 -1.49,0.039 -2.983,0.009 -4.504,0.009 m -5.021,14.435 c 3.241,0 6.447,0.073 9.647,-0.034 C 5.982,10.172 7.355,9.873 8.591,9.205 9.728,8.59 10.468,7.568 11.258,6.597 11.602,5.275 12.11,3.968 11.881,2.572 11.688,1.394 11.194,0.306 10.363,-0.553 9.871,-1.061 9.204,-1.4 8.624,-1.809 c 1.032,-0.283 1.991,-0.827 2.713,-1.721 0.626,-0.775 1.019,-1.661 1.185,-2.647 0.054,-0.323 0.185,-0.638 0.199,-0.96 0.053,-1.246 -0.255,-2.439 -0.766,-3.549 -0.589,-1.279 -1.594,-2.218 -2.823,-2.914 -1.101,-0.623 -2.282,-0.886 -3.535,-1.085 -1.761,-0.279 -3.506,-0.104 -5.255,-0.157 -1.773,-0.053 -3.548,-0.012 -5.359,-0.012 z"
     style="fill:#ffffff;fill-opacity:1;fill-rule:evenodd;stroke:none"
     transform="matrix(0.28800559,0,0,-0.28800559,17.18293,15.754825)"
     clip-path="url(#clipPath1883-2)" />
  <path
     id="path1884"
     d="m 0,0 c -0.051,0.757 0.031,1.594 -0.173,2.449 -0.16,0.669 -0.364,1.314 -0.592,1.956 -0.423,1.19 -1.329,2.021 -2.228,2.83 -0.399,0.36 -0.938,0.574 -1.429,0.822 C -4.74,8.218 -5.13,8.278 -5.454,8.315 -6.348,8.417 -7.265,8.399 -8.166,8.331 -8.635,8.295 -9.108,8.093 -9.545,7.893 -10.413,7.496 -11.166,6.81 -11.883,5.999 -12.506,5.295 -12.827,4.447 -13.181,3.607 -13.652,2.485 -13.622,1.274 -13.79,0.101 c -0.121,-0.838 0.344,-1.663 0.192,-2.524 0.307,-0.449 0.263,-1.006 0.454,-1.484 0.191,-0.478 0.489,-0.911 0.725,-1.372 0.497,-0.972 1.268,-1.678 2.16,-2.271 1.505,-0.999 3.204,-0.845 4.88,-0.836 0.249,0.434 0.833,-0.016 1.084,0.412 3.138,1.459 3.97,3.995 4.287,6.53 C 0.048,-0.998 0,-0.54 0,0 M -7.312,12.987 C -4.949,12.922 -3.12,12.598 -1.394,11.743 0.23,10.939 1.504,9.781 2.645,8.372 3.64,7.143 4.244,5.754 4.725,4.313 5.034,3.388 5.275,2.4 5.239,1.384 5.229,1.095 5.144,0.793 5.402,0.505 5.524,0.368 5.522,-0.007 5.423,-0.192 5.142,-0.712 5.319,-1.264 5.219,-1.785 4.982,-3.03 4.795,-4.274 4.308,-5.48 3.524,-7.423 2.351,-9.054 0.791,-10.388 c -1.27,-1.086 -2.755,-1.811 -4.415,-2.2 -1.468,-0.344 -2.948,-0.538 -4.427,-0.374 -1.548,0.171 -3.069,0.56 -4.47,1.3 -0.797,0.421 -1.564,0.888 -2.173,1.558 -0.574,0.63 -1.209,1.189 -1.734,1.882 -0.806,1.063 -1.333,2.234 -1.756,3.462 -0.167,0.485 -0.458,0.95 -0.434,1.493 0.022,0.508 -0.356,0.958 -0.21,1.481 -0.375,0.817 -0.203,1.685 -0.192,2.526 0.008,0.686 0.254,1.362 0.34,2.039 0.109,0.862 0.4,1.644 0.686,2.442 0.364,1.014 0.843,1.955 1.466,2.847 0.52,0.742 1.181,1.327 1.795,1.966 1.073,1.116 2.411,1.83 3.863,2.272 1.299,0.395 2.622,0.79 3.558,0.681"
     style="fill:#ffffff;fill-opacity:1;fill-rule:evenodd;stroke:none"
     transform="matrix(0.28800559,0,0,-0.28800559,13.618542,16.412514)"
     clip-path="url(#clipPath1885-8)" />
  <path
     id="path1886"
     d="M 0,0 H 15.832 V -4.562 H 5.009 v -5.627 h 10.63 c 0.031,-1.481 0.006,-2.924 0.017,-4.403 H 5.034 v -5.87 H 15.82 v -4.6 H 0 Z"
     style="fill:#ffffff;fill-opacity:1;fill-rule:evenodd;stroke:none"
     transform="matrix(0.28800559,0,0,-0.28800559,25.197755,12.808614)"
     clip-path="url(#clipPath1887-8)" />
  <path
     id="path1888"
     d="M 0,0 C 0.064,1.335 -0.82,1.968 -1.809,2.459 -2.514,2.809 -4.201,2.736 -5.098,2.522 -5.447,2.439 -5.861,2.475 -6.132,2.25 -6.53,1.921 -6.844,1.494 -7.354,0.934 -7.408,0.631 -7.504,0.077 -7.588,-0.398 c 0.085,-0.147 0.128,-0.2 0.149,-0.26 0.527,-1.444 1.821,-1.891 3.093,-2.294 1.757,-0.556 3.51,-1.133 5.249,-1.732 1.088,-0.375 2.183,-0.939 2.991,-1.864 0.816,-0.934 1.401,-1.95 1.579,-3.226 0.073,-0.53 0.233,-1.068 0.155,-1.59 -0.14,-0.935 -0.194,-1.897 -0.61,-2.776 -0.542,-1.146 -1.342,-2.09 -2.282,-2.923 -0.391,-0.346 -2.206,-1.34 -2.669,-1.366 -0.607,-0.034 -1.17,-0.378 -1.795,-0.227 -0.89,-0.366 -1.824,-0.205 -2.737,-0.198 -1.463,0.01 -2.896,0.351 -4.23,0.889 -0.933,0.378 -1.818,0.979 -2.498,1.805 -0.59,0.717 -1.062,1.505 -1.346,2.372 -0.297,0.907 -0.531,1.849 -0.417,2.844 0.141,0.012 0.24,0.027 0.339,0.027 1.53,10e-4 3.06,10e-4 4.652,10e-4 -0.056,-0.811 0.316,-1.481 0.656,-2.136 0.353,-0.681 1.099,-0.939 1.764,-1.191 1.011,-0.383 2.098,-0.275 3.147,-0.206 0.739,0.049 1.391,0.503 2.051,0.83 0.42,0.208 0.659,0.643 0.764,1.124 0.094,0.432 0.453,0.861 -0.002,1.291 -0.048,0.843 -0.6,1.208 -1.299,1.563 -1.363,0.69 -2.813,1.125 -4.233,1.653 -0.997,0.371 -1.989,0.759 -2.997,1.096 -1.332,0.444 -2.295,1.385 -3.187,2.386 -0.537,0.603 -0.818,1.402 -1.033,2.178 -0.443,1.602 -0.305,2.749 0.322,4.391 0.183,0.48 0.558,0.897 0.688,1.385 0.146,0.541 0.839,0.632 0.86,1.216 1.183,0.805 2.244,1.732 3.762,2.048 1.384,0.287 2.748,0.44 4.124,0.332 C -1.712,6.976 -0.829,6.813 0.026,6.543 0.874,6.275 1.675,5.901 2.365,5.384 3.562,4.485 4.377,3.274 4.812,1.821 4.988,1.234 5.087,0.648 4.981,0 Z"
     style="fill:#ffffff;fill-opacity:1;fill-rule:evenodd;stroke:none"
     transform="matrix(0.28800559,0,0,-0.28800559,54.892805,14.719849)"
     clip-path="url(#clipPath1889-4)" />
  <path
     id="path1890"
     d="m 0,0 c 0.231,0.705 0.542,1.396 0.674,2.119 0.16,0.872 0.444,1.71 0.683,2.55 0.257,0.898 0.444,1.82 0.78,2.704 0.31,0.816 0.369,1.727 0.673,2.547 0.225,0.608 0.351,1.242 0.586,1.847 0.223,0.572 0.275,1.208 0.442,1.805 0.184,0.653 0.425,1.289 0.619,1.938 0.222,0.747 0.414,1.502 0.636,2.248 0.046,0.152 0.165,0.282 0.252,0.427 h 5.207 C 10.468,17.808 10.42,17.461 10.313,17.132 9.836,15.657 9.334,14.191 8.855,12.716 8.416,11.364 8.005,10.002 7.561,8.651 6.956,6.811 6.324,4.98 5.719,3.14 5.405,2.188 5.134,1.222 4.827,0.267 4.293,-1.393 3.747,-3.05 3.204,-4.708 2.973,-5.414 2.739,-6.12 2.492,-6.869 h -5.256 c -2.7,8.303 -5.408,16.627 -8.138,25.024 h 5.504 c 0.202,-0.659 0.425,-1.394 0.653,-2.127 0.415,-1.327 0.801,-2.665 1.2,-3.995 0.25,-0.833 0.47,-1.694 0.703,-2.54 0.23,-0.836 0.326,-1.728 0.816,-2.482 C -2.049,6.099 -1.58,5.308 -1.372,4.453 -1.169,3.613 -1.011,2.738 -0.561,1.97 -0.643,1.246 -0.114,0.689 0,0"
     style="fill:#ffffff;fill-opacity:1;fill-rule:evenodd;stroke:none"
     transform="matrix(0.28800559,0,0,-0.28800559,40.713212,18.044987)"
     clip-path="url(#clipPath1891-0)" />
  <path
     id="path1892"
     d="m 0,0 v 20.429 h -6.478 c -0.017,1.547 -0.003,3.059 -0.01,4.606 H 11.677 C 11.765,23.56 11.682,22.047 11.724,20.5 H 5.056 V 0 Z"
     style="fill:#ffffff;fill-opacity:1;fill-rule:evenodd;stroke:none"
     transform="matrix(0.28800559,0,0,-0.28800559,31.815264,20.02232)"
     clip-path="url(#clipPath1893-9)" />
  <path
     id="path1894"
     d="m 0,0 v 4.423 c 1.125,0 2.233,-0.039 3.337,0.012 0.906,0.042 1.802,0.223 2.384,1.033 0.205,0.286 0.333,0.629 0.508,0.97 V 20.726 H 0.1 c -0.109,0.109 -0.183,0.183 -0.293,0.293 v 4.047 c 0.062,0.061 0.161,0.159 0.256,0.253 h 11.214 v -1.046 c 0,-5.574 0.001,-11.148 -10e-4,-16.722 0,-0.435 -0.058,-0.849 -0.172,-1.282 C 10.991,5.835 10.995,5.354 10.866,4.9 10.751,4.494 10.422,4.185 10.419,3.717 10.418,3.482 9.975,3.394 10.016,3.057 9.035,2.043 8.073,1.002 6.62,0.657 5.748,0.45 4.851,0.36 3.98,0.195 2.672,-0.051 1.38,0.131 0,0"
     style="fill:#ffffff;fill-opacity:1;fill-rule:evenodd;stroke:none"
     transform="matrix(0.28800559,0,0,-0.28800559,20.975177,20.101493)"
     clip-path="url(#clipPath1895-5)" />
  <path
     id="path1896"
     d="M 0,0 C 0.111,0.111 0.185,0.185 0.249,0.25 H 4.907 C 5.009,0.148 5.083,0.074 5.175,-0.018 V -24.532 C 5.083,-24.625 5.009,-24.698 4.907,-24.8 H 0.249 C 0.185,-24.735 0.111,-24.662 0,-24.551 Z"
     style="fill:#ffffff;fill-opacity:1;fill-rule:evenodd;stroke:none"
     transform="matrix(0.28800559,0,0,-0.28800559,35.741978,12.882258)"
     clip-path="url(#clipPath1897-0)" />
  <path
     id="path1898"
     d="M 0,0 C 1.531,-1.148 2.973,-2.228 4.479,-3.356 5.29,-2.245 5.881,-1.241 6.137,0.121 4.346,0.639 2.615,1.139 0.84,1.653 0.541,1.064 0.3,0.59 0,0 m -12.914,7.02 c -1.704,0.85 -3.319,1.655 -4.976,2.481 -0.713,-1.257 -0.998,-2.446 -1.182,-3.816 1.927,-0.172 3.73,-0.334 5.593,-0.501 0.193,0.625 0.356,1.16 0.565,1.836 m -1.696,6.941 c 1.305,-1.433 2.561,-2.808 3.848,-4.22 0.573,0.351 1.074,0.659 1.665,1.02 -0.691,1.773 -1.366,3.505 -2.075,5.326 -1.305,-0.562 -2.392,-1.189 -3.438,-2.126 m 8.875,-2.639 c 0.661,-0.13 1.26,-0.249 1.921,-0.379 0.698,1.826 1.364,3.564 2.05,5.359 -1.35,0.549 -2.601,0.785 -3.971,0.743 z m 8.634,2.045 C 1.584,11.932 0.324,10.557 -0.959,9.158 -0.512,8.592 -0.147,8.131 0.272,7.601 1.976,8.45 3.624,9.27 5.329,10.119 4.685,11.401 3.946,12.418 2.899,13.367 m -20.532,-3.146 c 1.776,-0.883 3.422,-1.703 5.108,-2.541 0.433,0.579 0.799,1.07 1.2,1.607 -1.285,1.411 -2.52,2.767 -3.788,4.161 -1.101,-0.945 -1.864,-1.94 -2.52,-3.227 M 1.081,-6.809 c 1.225,0.825 2.211,1.638 2.977,2.809 -1.566,1.179 -3.039,2.287 -4.504,3.39 -0.546,-0.505 -0.997,-0.922 -1.474,-1.363 1.017,-1.64 1.977,-3.186 3.001,-4.836 m -2.218,22.823 c -0.706,-1.843 -1.369,-3.574 -2.031,-5.305 0.646,-0.399 1.147,-0.708 1.699,-1.048 1.293,1.417 2.545,2.792 3.832,4.203 -1.07,0.946 -2.123,1.637 -3.5,2.15 M -13.288,-6.908 c 1.038,1.68 2.009,3.249 3.002,4.854 -0.538,0.482 -0.999,0.894 -1.521,1.362 -1.524,-1.165 -3.007,-2.298 -4.551,-3.478 0.942,-1.092 1.824,-2.003 3.07,-2.738 M 6.837,4.899 C 4.879,4.713 3.028,4.538 1.161,4.361 1.079,3.623 1.014,3.042 0.941,2.381 2.834,1.843 4.625,1.334 6.515,0.796 6.809,2.203 7.055,3.441 6.837,4.899 M 1.077,5.016 C 3.015,5.199 4.866,5.375 6.788,5.556 6.666,7.023 6.312,8.251 5.659,9.533 3.904,8.655 2.235,7.82 0.52,6.963 0.708,6.306 0.87,5.74 1.077,5.016 m -3.592,-7.324 c -0.643,-0.268 -1.211,-0.505 -1.879,-0.784 0.356,-1.888 0.704,-3.736 1.063,-5.641 1.453,0.299 2.652,0.751 3.835,1.544 -1.025,1.659 -2.007,3.245 -3.019,4.881 m -10.63,4.015 c -1.858,-0.533 -3.641,-1.046 -5.497,-1.579 0.467,-1.422 0.99,-2.592 1.893,-3.705 1.563,1.184 3.046,2.306 4.533,3.431 -0.333,0.663 -0.598,1.194 -0.929,1.853 m -5.658,-0.905 c 1.866,0.535 3.652,1.046 5.47,1.568 -0.055,0.734 -0.101,1.344 -0.153,2.05 -1.936,0.172 -3.782,0.335 -5.681,0.503 -0.196,-1.471 -0.035,-2.74 0.364,-4.121 m 9.105,-3.198 c -1.011,-1.644 -1.989,-3.231 -2.997,-4.869 1.245,-0.806 2.461,-1.262 3.886,-1.477 0.36,1.935 0.699,3.763 1.043,5.618 -0.682,0.257 -1.237,0.466 -1.932,0.728 m 3.163,13.727 v 5.741 c -1.416,-0.04 -2.687,-0.184 -3.975,-0.787 0.707,-1.812 1.383,-3.546 2.069,-5.304 0.712,0.13 1.293,0.237 1.906,0.35"
     style="fill:#ffffff;fill-opacity:1;fill-rule:evenodd;stroke:none"
     transform="matrix(0.28800559,0,0,-0.28800559,48.860001,17.752922)"
     clip-path="url(#clipPath1899-9)" />
  <path
     id="path1900"
     d="M 0,0 C 0.323,1.877 0.645,3.753 0.972,5.655 H 3.081 C 3.431,3.75 3.775,1.875 4.119,0 Z"
     style="fill:#ffffff;fill-opacity:1;fill-rule:evenodd;stroke:none"
     transform="matrix(0.28800559,0,0,-0.28800559,46.524971,20.331119)"
     clip-path="url(#clipPath1901-1)" />
  <path
     id="path1902"
     d="M 0,0 C -0.613,-0.112 -1.194,-0.219 -1.906,-0.35 -2.592,1.409 -3.268,3.143 -3.975,4.955 -2.688,5.558 -1.417,5.702 0,5.742 Z"
     style="fill:#ffffff;fill-opacity:1;fill-rule:evenodd;stroke:none"
     transform="matrix(0.28800559,0,0,-0.28800559,46.977994,14.489645)"
     clip-path="url(#clipPath1903-1)" />
  <path
     id="path1904"
     d="M 0,0 C 0.696,-0.262 1.25,-0.471 1.932,-0.728 1.588,-2.583 1.249,-4.411 0.889,-6.347 -0.536,-6.131 -1.752,-5.675 -2.996,-4.869 -1.989,-3.231 -1.01,-1.644 0,0"
     style="fill:#ffffff;fill-opacity:1;fill-rule:evenodd;stroke:none"
     transform="matrix(0.28800559,0,0,-0.28800559,46.06681,18.442953)"
     clip-path="url(#clipPath1905-3)" />
  <path
     id="path1906"
     d="M 0,0 C -0.399,1.381 -0.56,2.649 -0.364,4.121 1.535,3.953 3.381,3.789 5.317,3.618 5.369,2.912 5.415,2.301 5.47,1.567 3.652,1.046 1.866,0.535 0,0"
     style="fill:#ffffff;fill-opacity:1;fill-rule:evenodd;stroke:none"
     transform="matrix(0.28800559,0,0,-0.28800559,43.444606,17.521826)"
     clip-path="url(#clipPath1907-9)" />
  <path
     id="path1908"
     d="M 0,0 C 0.331,-0.659 0.596,-1.19 0.929,-1.853 -0.559,-2.978 -2.041,-4.101 -3.604,-5.285 -4.507,-4.171 -5.03,-3.002 -5.497,-1.58 -3.641,-1.046 -1.858,-0.534 0,0"
     style="fill:#ffffff;fill-opacity:1;fill-rule:evenodd;stroke:none"
     transform="matrix(0.28800559,0,0,-0.28800559,45.074224,17.261182)"
     clip-path="url(#clipPath1909-2)" />
  <path
     id="path1910"
     d="M 0,0 C 1.012,-1.636 1.994,-3.222 3.019,-4.881 1.836,-5.674 0.637,-6.126 -0.816,-6.425 -1.175,-4.52 -1.523,-2.672 -1.879,-0.784 -1.211,-0.505 -0.643,-0.268 0,0"
     style="fill:#ffffff;fill-opacity:1;fill-rule:evenodd;stroke:none"
     transform="matrix(0.28800559,0,0,-0.28800559,48.135672,18.417638)"
     clip-path="url(#clipPath1911-3)" />
  <path
     id="path1912"
     d="M 0,0 C -0.206,0.724 -0.368,1.29 -0.557,1.947 1.158,2.804 2.828,3.639 4.583,4.517 5.235,3.235 5.59,2.007 5.711,0.541 3.79,0.359 1.938,0.183 0,0"
     style="fill:#ffffff;fill-opacity:1;fill-rule:evenodd;stroke:none"
     transform="matrix(0.28800559,0,0,-0.28800559,49.170079,16.308344)"
     clip-path="url(#clipPath1913-4)" />
  <path
     id="path1914"
     d="m 0,0 c 0.219,-1.458 -0.028,-2.696 -0.322,-4.103 -1.889,0.538 -3.681,1.046 -5.573,1.585 0.073,0.66 0.138,1.242 0.219,1.98 C -3.809,-0.361 -1.958,-0.186 0,0"
     style="fill:#ffffff;fill-opacity:1;fill-rule:evenodd;stroke:none"
     transform="matrix(0.28800559,0,0,-0.28800559,50.829011,16.341924)"
     clip-path="url(#clipPath1915-4)" />
  <path
     id="path1916"
     d="m 0,0 c -1.245,0.736 -2.128,1.647 -3.069,2.739 1.544,1.18 3.027,2.313 4.55,3.477 C 2.004,5.748 2.464,5.336 3.002,4.854 2.01,3.25 1.039,1.68 0,0"
     style="fill:#ffffff;fill-opacity:1;fill-rule:evenodd;stroke:none"
     transform="matrix(0.28800559,0,0,-0.28800559,45.032858,19.742608)"
     clip-path="url(#clipPath1917-9)" />
  <path
     id="path1918"
     d="M 0,0 C 1.378,-0.513 2.43,-1.205 3.5,-2.151 2.213,-3.561 0.961,-4.936 -0.332,-6.353 -0.884,-6.013 -1.385,-5.704 -2.03,-5.306 -1.368,-3.575 -0.706,-1.843 0,0"
     style="fill:#ffffff;fill-opacity:1;fill-rule:evenodd;stroke:none"
     transform="matrix(0.28800559,0,0,-0.28800559,48.53245,13.140742)"
     clip-path="url(#clipPath1919-4)" />
  <path
     id="path1920"
     d="m 0,0 c -1.024,1.65 -1.984,3.196 -3.001,4.836 0.478,0.441 0.929,0.858 1.475,1.363 C -0.061,5.096 1.411,3.988 2.978,2.809 2.211,1.638 1.225,0.825 0,0"
     style="fill:#ffffff;fill-opacity:1;fill-rule:evenodd;stroke:none"
     transform="matrix(0.28800559,0,0,-0.28800559,49.171199,19.713922)"
     clip-path="url(#clipPath1921-0)" />
  <path
     id="path1922"
     d="M 0,0 C 0.655,1.286 1.419,2.282 2.52,3.227 3.788,1.833 5.023,0.477 6.308,-0.934 5.907,-1.471 5.541,-1.962 5.108,-2.541 3.421,-1.703 1.776,-0.883 0,0"
     style="fill:#ffffff;fill-opacity:1;fill-rule:evenodd;stroke:none"
     transform="matrix(0.28800559,0,0,-0.28800559,43.781635,14.809189)"
     clip-path="url(#clipPath1923-7)" />
  <path
     id="path1924"
     d="m 0,0 c 1.046,-0.949 1.786,-1.966 2.43,-3.248 -1.705,-0.849 -3.354,-1.669 -5.057,-2.518 -0.419,0.53 -0.784,0.991 -1.231,1.557 C -2.576,-2.81 -1.315,-1.435 0,0"
     style="fill:#ffffff;fill-opacity:1;fill-rule:evenodd;stroke:none"
     transform="matrix(0.28800559,0,0,-0.28800559,49.695054,13.903122)"
     clip-path="url(#clipPath1925-7)" />
  <path
     id="path1926"
     d="M 0,0 V 5.722 C 1.37,5.765 2.621,5.529 3.971,4.98 3.285,3.185 2.619,1.447 1.921,-0.379 1.26,-0.249 0.661,-0.131 0,0"
     style="fill:#ffffff;fill-opacity:1;fill-rule:evenodd;stroke:none"
     transform="matrix(0.28800559,0,0,-0.28800559,47.208256,14.492036)"
     clip-path="url(#clipPath1927-6)" />
  <path
     id="path1928"
     d="M 0,0 C 1.046,0.936 2.134,1.564 3.438,2.126 4.148,0.305 4.822,-1.427 5.513,-3.2 4.923,-3.561 4.421,-3.869 3.848,-4.22 2.561,-2.809 1.306,-1.433 0,0"
     style="fill:#ffffff;fill-opacity:1;fill-rule:evenodd;stroke:none"
     transform="matrix(0.28800559,0,0,-0.28800559,44.652089,13.732046)"
     clip-path="url(#clipPath1929-0)" />
  <path
     id="path1930"
     d="m 0,0 c -0.208,-0.676 -0.372,-1.211 -0.564,-1.836 -1.864,0.167 -3.666,0.329 -5.594,0.501 0.185,1.37 0.47,2.559 1.182,3.816 C -3.319,1.655 -1.704,0.85 0,0"
     style="fill:#ffffff;fill-opacity:1;fill-rule:evenodd;stroke:none"
     transform="matrix(0.28800559,0,0,-0.28800559,45.140554,15.731122)"
     clip-path="url(#clipPath1931-0)" />
  <path
     id="path1932"
     d="M 0,0 C 0.3,0.59 0.541,1.064 0.84,1.653 2.615,1.139 4.346,0.639 6.137,0.121 5.881,-1.241 5.29,-2.245 4.479,-3.356 2.973,-2.228 1.531,-1.148 0,0"
     style="fill:#ffffff;fill-opacity:1;fill-rule:evenodd;stroke:none"
     transform="matrix(0.28800559,0,0,-0.28800559,48.860001,17.752922)"
     clip-path="url(#clipPath1933-0)" />
  <path
     id="path1934"
     d="M 0,0 H -3.412 V 18.037 H 0.344 C 2.73,14.088 5.123,10.125 7.626,5.981 v 12.088 h 3.379 V -0.007 C 10.461,-0.036 9.871,-0.016 9.283,-0.019 8.715,-0.023 8.146,-0.02 7.457,-0.02 7.114,0.509 6.726,1.089 6.356,1.679 5.599,2.89 4.826,4.092 4.111,5.328 3.663,6.103 3.198,6.866 2.739,7.634 2.005,8.859 1.263,10.079 0.493,11.282 0.326,11.541 0.208,11.832 0,12.243 Z"
     style="fill:#ffffff;fill-opacity:1;fill-rule:evenodd;stroke:none"
     transform="matrix(0.28800559,0,0,-0.28800559,32.134517,31.906668)"
     clip-path="url(#clipPath1935-5)" />
  <path
     id="path1936"
     d="m 0,0 h 3.59 c 0.01,-0.266 0.03,-0.536 0.031,-0.806 0.002,-3.547 0.002,-7.094 10e-4,-10.64 0,-1.27 0.487,-2.34 1.473,-3.105 1.096,-0.851 3.62,-0.836 4.73,-0.003 1.018,0.764 1.44,1.887 1.454,3.111 0.038,3.44 0.013,6.881 0.013,10.321 v 1.086 h 3.622 v -0.772 c 0,-3.617 0.006,-7.235 -0.003,-10.853 -0.003,-1.454 -0.832,-3.638 -1.964,-4.732 -0.755,-0.73 -1.627,-1.193 -2.537,-1.614 -0.443,-0.204 -0.971,-0.28 -1.465,-0.302 -0.992,-0.045 -1.986,-0.011 -2.979,-0.015 -0.616,-0.002 -1.172,0.244 -1.737,0.433 -1.25,0.419 -2.159,1.323 -2.978,2.289 -0.531,0.626 -0.808,1.436 -1.024,2.227 -0.191,0.693 -0.244,1.411 -0.238,2.143 C 0.014,-7.863 0,-4.493 0,-1.124 Z"
     style="fill:#ffffff;fill-opacity:1;fill-rule:evenodd;stroke:none"
     transform="matrix(0.28800559,0,0,-0.28800559,12.672814,26.696791)"
     clip-path="url(#clipPath1937-0)" />
  <path
     id="path1938"
     d="M 0,0 C -0.773,-2.426 -1.495,-4.688 -2.217,-6.953 H 2.339 C 1.599,-4.635 0.868,-2.394 0,0 M -1.763,4.492 H 2.028 C 2.165,4.144 2.333,3.757 2.47,3.36 2.983,1.872 3.49,0.382 4.093,-1.074 4.344,-1.68 4.484,-2.33 4.706,-2.948 5.194,-4.306 5.717,-5.651 6.2,-7.01 c 0.548,-1.547 1.059,-3.107 1.604,-4.655 0.163,-0.462 0.394,-0.901 0.572,-1.358 0.058,-0.152 0.052,-0.329 0.083,-0.543 H 4.49 c -0.385,1.231 -0.785,2.512 -1.177,3.765 h -6.5 c -0.415,-1.252 -0.818,-2.47 -1.244,-3.759 h -3.917 c 2.198,6.023 4.394,12.045 6.585,18.052"
     style="fill:#ffffff;fill-opacity:1;fill-rule:evenodd;stroke:none"
     transform="matrix(0.28800559,0,0,-0.28800559,42.210958,27.99253)"
     clip-path="url(#clipPath1939-9)" />
  <path
     id="path1940"
     d="M 0,0 C -1.194,-0.125 -2.386,0.164 -3.59,-0.311 -3.574,0.535 -4.014,1.103 -4.604,1.435 -5.305,1.83 -6.134,2.103 -6.946,1.826 -7.496,1.639 -8.131,1.642 -8.573,1.106 -9.037,0.542 -9.38,0.02 -8.943,-0.703 c 0.031,-0.052 0.004,-0.14 0.004,-0.225 0.57,-0.879 1.504,-1.172 2.44,-1.442 1.14,-0.329 2.249,-0.751 3.382,-1.101 0.74,-0.229 1.48,-0.657 2.051,-1.181 0.681,-0.626 1.222,-1.424 1.294,-2.431 0.031,-0.436 0.289,-0.828 0.214,-1.298 -0.277,-1.713 -0.591,-2.978 -2.411,-4.234 -1.046,-0.722 -2.148,-1.083 -3.403,-1.054 -0.745,0.017 -1.492,-0.016 -2.237,0.006 -2.126,0.064 -3.736,1.041 -4.887,2.808 -0.194,0.878 -0.717,1.701 -0.435,2.693 h 3.534 c 0.061,-0.41 -0.003,-0.917 0.38,-1.274 0.377,-0.352 0.681,-0.832 1.197,-0.961 0.452,-0.112 0.878,-0.299 1.375,-0.309 0.885,-0.019 1.631,0.301 2.405,0.649 0.64,0.288 0.813,0.902 0.804,1.399 -0.011,0.533 -0.23,1.082 -0.901,1.428 -1.15,0.594 -2.388,0.927 -3.561,1.439 -0.691,0.301 -1.421,0.51 -2.122,0.787 -1.243,0.491 -2.1,1.445 -2.574,2.623 -0.324,0.802 -0.647,1.709 -0.211,2.649 0.178,0.383 0.08,0.9 0.274,1.268 0.812,1.551 1.946,2.699 3.751,3.147 1.296,0.322 2.578,0.164 3.858,0.149 0.695,-0.008 1.448,-0.284 2.06,-0.637 0.859,-0.493 1.65,-1.161 2.093,-2.078 C -0.26,1.476 0.067,0.798 0,0"
     style="fill:#ffffff;fill-opacity:1;fill-rule:evenodd;stroke:none"
     transform="matrix(0.28800559,0,0,-0.28800559,21.628805,28.037832)"
     clip-path="url(#clipPath1941-8)" />
  <path
     id="path1942"
     d="M 0,0 C -1.217,-0.087 -2.373,0.155 -3.573,-0.289 -3.565,0.285 -3.581,0.845 -4.03,1.151 -4.601,1.541 -5.197,1.886 -5.949,1.917 -6.837,1.954 -7.593,1.619 -8.336,1.242 -8.575,1.122 -8.704,0.784 -8.95,0.457 c 0.047,-0.393 0.041,-0.885 0.173,-1.336 0.223,-0.756 0.963,-0.99 1.58,-1.248 0.968,-0.404 1.991,-0.677 2.993,-0.997 0.469,-0.15 0.935,-0.259 1.397,-0.485 1.03,-0.502 1.527,-0.716 2.184,-1.397 0.709,-0.733 1.079,-1.628 1.072,-2.636 -0.006,-0.643 0.22,-1.327 -0.199,-1.933 -0.301,-1.71 -1.258,-2.619 -2.326,-3.22 -0.974,-0.548 -2,-0.928 -3.155,-0.865 -0.743,0.04 -1.49,0.018 -2.234,0.005 -1.526,-0.026 -2.797,0.634 -3.929,1.552 -0.773,0.628 -1.15,1.543 -1.351,2.516 -0.095,0.458 -0.183,0.917 -0.285,1.433 h 3.589 c 0.165,-0.413 0.301,-0.894 0.541,-1.315 0.394,-0.693 1.128,-1.049 1.828,-1.156 0.681,-0.104 1.421,-0.189 2.151,0.146 0.844,0.386 0.879,0.311 1.753,1.185 v 1.37 c -0.398,0.312 -0.808,0.781 -1.324,1.004 -1.052,0.454 -2.172,0.747 -3.244,1.158 -1.008,0.388 -2.101,0.692 -2.958,1.309 -1.082,0.78 -1.86,1.894 -1.839,3.36 0.002,0.178 0.01,0.356 -0.001,0.532 -0.083,1.204 0.331,2.208 1.016,3.206 0.674,0.981 1.537,1.555 2.61,1.926 0.547,0.189 1.083,0.357 1.68,0.321 0.672,-0.041 1.347,-0.026 2.021,-0.006 1.152,0.035 2.149,-0.419 3.11,-0.97 0.35,-0.201 0.728,-0.437 0.953,-0.757 C -0.711,2.54 -0.323,1.874 -0.023,1.181 0.115,0.861 0,0.431 0,0"
     style="fill:#ffffff;fill-opacity:1;fill-rule:evenodd;stroke:none"
     transform="matrix(0.28800559,0,0,-0.28800559,11.619118,28.041779)"
     clip-path="url(#clipPath1943-6)" />
  <path
     id="path1944"
     d="M 0,0 H 11.436 V -3.155 H 3.609 v -4.239 h 7.595 c 0.101,-0.546 0.036,-1.07 0.047,-1.586 0.012,-0.527 0.003,-1.055 0.003,-1.619 H 3.635 v -4.274 h 7.789 v -3.192 H 0 Z"
     style="fill:#ffffff;fill-opacity:1;fill-rule:evenodd;stroke:none"
     transform="matrix(0.28800559,0,0,-0.28800559,26.919222,26.703157)"
     clip-path="url(#clipPath1945-5)" />
  <path
     id="path1946"
     d="M 0,0 V -4.273 H 7.601 V -7.482 H 0.019 v -4.243 c 1.252,-0.069 2.551,-0.019 3.847,-0.028 1.309,-0.009 2.618,-0.002 3.96,-0.002 v -3.146 H -3.616 V 3.115 H 7.839 V 0 Z"
     style="fill:#ffffff;fill-opacity:1;fill-rule:evenodd;stroke:none"
     transform="matrix(0.28800559,0,0,-0.28800559,50.599506,27.606457)"
     clip-path="url(#clipPath1947-6)" />
  <path
     id="path1948"
     d="m 0,0 c 0.61,2.182 1.198,4.305 1.796,6.424 0.593,2.099 1.198,4.194 1.845,6.457 -0.04,-0.041 0.06,0.06 0.15,0.15 H 7.613 C 7.224,11.791 6.911,10.585 6.466,9.43 6.006,8.233 5.68,6.992 5.257,5.785 4.847,4.614 4.525,3.387 4.107,2.213 3.677,1.007 3.302,-0.222 2.909,-1.433 2.523,-2.62 2.105,-3.802 1.763,-5.024 h -3.814 c -0.524,1.442 -1.016,2.937 -1.486,4.442 -0.47,1.505 -0.989,2.995 -1.486,4.491 -0.497,1.497 -1.012,2.987 -1.486,4.491 -0.474,1.507 -0.907,3.028 -1.378,4.613 h 3.904 c 0.207,-0.677 0.402,-1.438 0.672,-2.171 C -2.822,9.511 -2.652,8.083 -2.054,6.788 -2.088,5.857 -1.567,5.068 -1.359,4.196 -1.155,3.348 -1.031,2.439 -0.553,1.664 -0.698,1.229 -0.327,0.893 -0.32,0.478 -0.319,0.338 -0.141,0.2 0,0"
     style="fill:#ffffff;fill-opacity:1;fill-rule:evenodd;stroke:none"
     transform="matrix(0.28800559,0,0,-0.28800559,46.70145,30.457712)"
     clip-path="url(#clipPath1949-8)" />
  <path
     id="path1950"
     d="m 0,0 h -3.655 v 1.046 c 0,4.29 0,8.581 -0.002,12.871 0,0.34 0.109,0.721 -0.357,0.98 h -4.508 v 3.141 H 4.617 v -3.144 c -1.502,0 -3.044,0 -4.617,0 z"
     style="fill:#ffffff;fill-opacity:1;fill-rule:evenodd;stroke:none"
     transform="matrix(0.28800559,0,0,-0.28800559,24.770503,31.906785)"
     clip-path="url(#clipPath1951-9)" />
  <path
     id="path1952"
     d="m 0,0 c -0.176,0.177 -0.252,0.252 -0.362,0.362 h -4.54 V 3.501 H 8.242 V 0.381 H 3.619 v -14.927 c -0.613,-0.028 -1.204,-0.01 -1.793,-0.014 -0.597,-0.002 -1.195,0 -1.826,0 z"
     style="fill:#ffffff;fill-opacity:1;fill-rule:evenodd;stroke:none"
     transform="matrix(0.28800559,0,0,-0.28800559,37.533176,27.718982)"
     clip-path="url(#clipPath1953-0)" />
  <path
     id="path1954"
     d="m 0,0 h 3.551 v -14.526 c 0.059,-0.066 0.079,-0.097 0.106,-0.116 0.025,-0.019 0.06,-0.038 0.089,-0.038 2.267,-0.002 4.532,-0.002 6.835,-0.002 V -17.99 C 9.73,-18.133 2.826,-18.178 0,-18.052 Z"
     style="fill:#ffffff;fill-opacity:1;fill-rule:evenodd;stroke:none"
     transform="matrix(0.28800559,0,0,-0.28800559,53.732624,26.702349)"
     clip-path="url(#clipPath1955-5)" />
  <path
     id="path1956"
     d="M 0,0 V -6.954 H -2.104 V 3.865 c 0.368,0.007 0.78,0.019 1.192,0.023 0.421,0.005 0.841,10e-4 1.255,10e-4 C 0.732,3.014 1.148,2.191 1.47,1.332 1.884,0.225 2.486,-0.802 2.781,-1.963 2.905,-2.454 3.264,-2.886 3.541,-3.387 4.587,-0.956 5.625,1.455 6.663,3.866 H 9.119 V -6.929 H 6.996 v 6.763 C 6.959,-0.161 6.921,-0.156 6.884,-0.152 5.995,-2.404 5.105,-4.656 4.203,-6.941 H 2.84 C 1.927,-4.709 1,-2.444 0,0"
     style="fill:#ffffff;fill-opacity:1;fill-rule:evenodd;stroke:none"
     transform="matrix(0.28800559,0,0,-0.28800559,42.312719,23.153632)"
     clip-path="url(#clipPath1957-5)" />
  <path
     id="path1958"
     d="M 0,0 V -6.912 H -2.068 V 3.902 h 2.23 c 0.903,-0.966 1.456,-2.266 2.2,-3.438 0.748,-1.178 1.477,-2.367 2.213,-3.551 0.033,0.016 0.063,0.023 0.081,0.042 0.022,0.023 0.05,0.055 0.05,0.084 0.002,2.267 0.002,4.534 0.002,6.845 H 6.814 V -6.892 H 4.524 C 3.074,-4.629 1.719,-2.195 0.179,0.12 0.12,0.08 0.06,0.04 0,0"
     style="fill:#ffffff;fill-opacity:1;fill-rule:evenodd;stroke:none"
     transform="matrix(0.28800559,0,0,-0.28800559,48.746319,23.164864)"
     clip-path="url(#clipPath1959-7)" />
  <path
     id="path1960"
     d="M 0,0 H -2.256 C -3.656,2.335 -5.055,4.665 -6.51,7.09 -6.631,5.858 -6.549,4.708 -6.564,3.562 -6.579,2.395 -6.567,1.228 -6.567,0.021 H -8.591 C -8.75,0.866 -8.799,7.286 -8.666,10.809 h 2.273 C -5.02,8.52 -3.611,6.173 -2.101,3.657 v 7.169 H 0 Z"
     style="fill:#ffffff;fill-opacity:1;fill-rule:evenodd;stroke:none"
     transform="matrix(0.28800559,0,0,-0.28800559,28.615675,25.157459)"
     clip-path="url(#clipPath1961-4)" />
  <path
     id="path1962"
     d="M 0,0 C 0.451,0 0.944,-0.026 1.433,0.009 1.761,0.033 2.101,0.097 2.404,0.222 3.075,0.5 3.731,0.766 4.097,1.514 4.534,2.411 4.664,3.332 4.573,4.291 4.412,6.005 3.433,7.082 1.582,7.237 1.054,7.281 0.522,7.244 0,7.244 -0.109,7.135 -0.209,7.034 -0.292,6.952 V 0.292 C -0.189,0.189 -0.114,0.114 0,0 m 3.176,-1.679 h -5.598 v 10.84 h 0.782 c 1.098,0 2.197,0.025 3.295,-0.009 C 2.299,9.132 3.004,9.162 3.572,8.917 4.579,8.483 5.54,7.958 6.134,6.895 6.888,5.547 7.061,4.024 6.896,2.866 6.712,1.569 6.264,0.31 5.177,-0.55 4.799,-0.848 4.473,-1.275 3.891,-1.298 3.656,-1.307 3.429,-1.537 3.176,-1.679"
     style="fill:#ffffff;fill-opacity:1;fill-rule:evenodd;stroke:none"
     transform="matrix(0.28800559,0,0,-0.28800559,15.710238,24.671968)"
     clip-path="url(#clipPath1963-7)" />
  <path
     id="path1964"
     d="M 0,0 C -0.108,0.247 -0.155,0.371 -0.214,0.488 -0.832,1.719 -1.81,2.377 -3.21,2.36 -3.67,2.355 -4.13,2.359 -4.58,2.359 -4.689,2.251 -4.789,2.15 -4.872,2.067 v -6.66 c 0.102,-0.102 0.178,-0.177 0.247,-0.247 1.147,-0.186 2.237,0.015 3.361,0.502 0.037,0.037 0.141,0.133 0.236,0.238 0.651,0.725 1.108,1.522 1.034,2.55 C -0.031,-1.02 0,-0.487 0,0 m -6.993,4.277 c 1.466,0 2.918,0.078 4.356,-0.029 C -1.73,4.181 -0.811,3.985 0.032,3.524 0.635,3.195 1.105,2.731 1.47,2.207 1.917,1.565 2.133,0.783 2.335,0.022 2.456,-0.434 2.209,-2.032 2.146,-2.652 1.982,-4.27 0.973,-5.274 -0.274,-6.086 -0.699,-6.364 -1.258,-6.55 -1.762,-6.566 -3.492,-6.624 -5.225,-6.589 -6.993,-6.589 Z"
     style="fill:#ffffff;fill-opacity:1;fill-rule:evenodd;stroke:none"
     transform="matrix(0.28800559,0,0,-0.28800559,10.09577,23.265235)"
     clip-path="url(#clipPath1965-5)" />
  <path
     id="path1966"
     d="m 0,0 c -0.929,-0.568 -1.423,-1.116 -1.714,-1.931 -0.366,-1.022 -0.42,-2.049 -0.076,-3.097 0.514,-1.565 1.71,-2.308 3.007,-2.207 0.451,0.035 0.921,0.12 1.234,0.355 0.539,0.406 1.094,0.875 1.298,1.575 0.32,1.103 0.379,2.217 -0.009,3.333 C 3.363,-0.886 2.726,-0.023 1.417,0.031 1.301,0.036 1.189,0.15 1.083,0.21 0.785,-0.143 0.357,0.111 0,0 m 0.986,-9.138 c -1.015,0 -1.67,0.088 -2.166,0.359 -0.988,0.541 -1.857,1.168 -2.339,2.284 -0.297,0.684 -0.716,1.296 -0.61,2.084 -0.327,0.35 -0.302,0.821 -0.19,1.18 0.283,0.909 0.286,1.868 0.792,2.755 0.696,1.22 1.81,1.788 2.928,2.416 C 0.035,1.797 0.614,2.227 1.223,2.14 1.911,2.043 2.645,1.963 3.248,1.657 4.167,1.19 4.96,0.577 5.494,-0.43 6.199,-1.76 6.494,-3.136 6.27,-4.551 6.107,-5.568 5.788,-6.617 4.968,-7.405 4.253,-8.093 3.559,-8.726 2.544,-9.014 1.971,-9.176 1.437,-9.011 0.986,-9.138"
     style="fill:#ffffff;fill-opacity:1;fill-rule:evenodd;stroke:none"
     transform="matrix(0.28800559,0,0,-0.28800559,33.190555,22.592338)"
     clip-path="url(#clipPath1967-8)" />
  <path
     id="path1968"
     d="M 0,0 C -0.13,0.13 -0.234,0.226 -0.33,0.331 -0.901,0.956 -1.483,1.559 -2.451,1.385 -2.823,1.755 -3.185,1.339 -3.538,1.314 -3.92,1.288 -4.387,0.987 -4.621,0.664 c -0.42,-0.58 -0.865,-1.215 -0.902,-1.957 -0.054,-1.089 -0.149,-2.209 0.45,-3.213 0.089,-0.148 0.246,-0.254 0.371,-0.38 0.251,-0.251 0.502,-0.502 0.801,-0.801 0.662,-0.073 1.375,-0.152 1.924,-0.213 0.276,0.137 0.392,0.201 0.513,0.254 1.301,0.572 1.742,1.704 1.878,2.989 0.082,0.78 0.057,1.572 -0.406,2.278 C -0.055,-0.283 0,-0.109 0,0 m -2.546,-7.759 c -0.984,-0.095 -1.845,0.087 -2.663,0.596 -1.271,0.789 -2.103,1.873 -2.461,3.323 -0.072,0.29 -0.172,0.576 -0.205,0.869 -0.036,0.315 -0.003,0.637 -0.009,0.955 -0.027,1.255 0.469,2.318 1.112,3.368 0.605,0.986 1.467,1.59 2.526,1.824 0.816,0.18 1.668,0.677 2.539,0.127 C -0.761,3.367 -0.081,2.798 0.657,2.337 1.523,1.797 1.964,0.953 2.327,0.068 2.473,-0.29 2.61,-0.679 2.575,-1.113 2.55,-1.43 2.776,-1.766 2.756,-2.085 2.657,-3.729 2.259,-5.265 1.004,-6.454 -0.007,-7.413 -1.167,-7.952 -2.546,-7.759"
     style="fill:#ffffff;fill-opacity:1;fill-rule:evenodd;stroke:none"
     transform="matrix(0.28800559,0,0,-0.28800559,55.808795,22.98463)"
     clip-path="url(#clipPath1969-4)" />
  <path
     id="path1970"
     d="m 0,0 h 2.083 c 0.28,-0.511 0.407,-1.214 1.132,-1.394 0.333,-0.082 0.693,-0.225 1.01,-0.17 0.62,0.108 1.303,0.165 1.702,0.942 v 0.524 C 5.626,0.321 5.219,0.686 4.695,0.872 3.829,1.18 2.944,1.436 2.073,1.733 1.074,2.075 0.2,3.33 0.194,4.403 c -0.002,0.283 0,0.566 0,0.79 0.144,0.246 0.326,0.434 0.369,0.65 0.176,0.871 0.895,1.21 1.529,1.638 C 2.117,7.497 2.183,7.469 2.194,7.485 2.505,7.955 3.036,7.556 3.449,7.813 3.794,8.028 4.284,7.995 4.729,7.769 4.986,7.639 5.337,7.696 5.536,7.678 6.891,7.118 7.866,6.35 7.87,4.748 7.528,4.737 7.188,4.72 6.847,4.715 6.497,4.709 6.148,4.713 5.826,4.713 5.36,5.715 4.609,6.117 3.379,5.955 3.078,5.655 2.665,5.243 2.304,4.883 2.465,3.858 3.229,3.688 3.904,3.441 4.644,3.17 5.415,2.981 6.146,2.689 6.938,2.372 7.648,1.928 7.87,1.002 7.891,0.912 8.004,0.845 8.076,0.765 8.076,0.45 8.068,0.131 8.078,-0.188 8.117,-1.473 7.305,-2.739 5.874,-3.185 5.154,-3.409 4.443,-3.348 3.724,-3.386 2.735,-3.438 1.841,-3.226 1.099,-2.53 0.629,-2.577 0.909,-1.938 0.526,-1.905 0.249,-1.308 -0.098,-0.73 0,0"
     style="fill:#ffffff;fill-opacity:1;fill-rule:evenodd;stroke:none"
     transform="matrix(0.28800559,0,0,-0.28800559,20.655278,24.25001)"
     clip-path="url(#clipPath1971-3)" />
  <path
     id="path1972"
     d="M 0,0 H 4.618 V -1.864 H -2.354 V 8.661 c 0.067,0.068 0.142,0.143 0.255,0.256 H 4.63 C 4.674,8.34 4.637,7.72 4.653,7.064 H 0.011 V 4.497 H 4.394 V 2.568 H 0 Z"
     style="fill:#ffffff;fill-opacity:1;fill-rule:evenodd;stroke:none"
     transform="matrix(0.28800559,0,0,-0.28800559,24.219302,24.612293)"
     clip-path="url(#clipPath1973-4)" />
  <path
     id="path1974"
     d="m 0,0 v -1.854 h -4.532 c -0.137,-0.137 -0.237,-0.238 -0.315,-0.315 v -2.264 h 4.617 v -1.856 c 0.015,0.014 -0.008,-0.015 -0.037,-0.033 -0.027,-0.017 -0.061,-0.032 -0.093,-0.032 -1.413,-0.002 -2.827,-0.002 -4.2,-0.002 -0.116,-0.116 -0.191,-0.191 -0.293,-0.293 v -2.252 h 4.851 v -1.891 H -6.904 C -7.059,-9.946 -7.108,-3.204 -6.974,0 Z"
     style="fill:#ffffff;fill-opacity:1;fill-rule:evenodd;stroke:none"
     transform="matrix(0.28800559,0,0,-0.28800559,47.641848,22.043802)"
     clip-path="url(#clipPath1975-3)" />
  <path
     id="path1976"
     d="M 0,0 H 6.748 V -1.874 H 2.436 C 2.286,-2.024 2.211,-2.099 2.114,-2.196 V -4.417 H 6.727 V -6.346 H 2.141 v -2.567 h 4.597 v -1.912 H 0 Z"
     style="fill:#ffffff;fill-opacity:1;fill-rule:evenodd;stroke:none"
     transform="matrix(0.28800559,0,0,-0.28800559,18.267353,22.039281)"
     clip-path="url(#clipPath1977-4)" />
  <path
     id="path1978"
     d="m 0,0 h 4.618 v -1.891 h -4.629 v -2.568 h 4.64 v -1.89 h -6.697 c -0.14,0.833 -0.185,8.245 -0.058,10.796 H 4.6 V 2.58 H 0.3 C 0.188,2.468 0.113,2.393 0,2.28 Z"
     style="fill:#ffffff;fill-opacity:1;fill-rule:evenodd;stroke:none"
     transform="matrix(0.28800559,0,0,-0.28800559,11.94733,23.323642)"
     clip-path="url(#clipPath1979-7)" />
  <path
     id="path1980"
     d="m 0,0 c 0.765,-2.627 1.52,-5.222 2.291,-7.871 0.244,0.764 0.525,1.492 0.706,2.243 0.217,0.9 0.502,1.779 0.745,2.671 0.182,0.669 0.346,1.343 0.551,2.005 0.106,0.343 0.284,0.663 0.417,0.966 H 6.776 C 7.018,-0.546 6.665,-0.988 6.517,-1.446 6.022,-2.975 5.353,-4.46 4.988,-6.016 4.633,-7.535 3.946,-8.94 3.639,-10.463 3.614,-10.583 3.473,-10.679 3.371,-10.804 H 1.073 c -0.271,0.876 -0.545,1.788 -0.836,2.694 -0.293,0.907 -0.592,1.814 -0.889,2.718 -0.286,0.871 -0.61,1.733 -0.875,2.613 C -1.8,-1.87 -2.301,-1.025 -2.331,0 Z"
     style="fill:#ffffff;fill-opacity:1;fill-rule:evenodd;stroke:none"
     transform="matrix(0.28800559,0,0,-0.28800559,37.945761,22.044147)"
     clip-path="url(#clipPath1981-2)" />
  <path
     id="path1982"
     d="m 0,0 h 2.332 c 0.763,-2.622 1.519,-5.217 2.304,-7.911 0.19,0.54 0.478,1.007 0.494,1.483 0.023,0.666 0.312,1.242 0.493,1.833 0.28,0.911 0.417,1.863 0.798,2.751 0.244,0.57 0.327,1.21 0.488,1.844 L 9.127,0 C 9.383,-0.315 9.058,-0.548 8.999,-0.825 8.789,-1.829 8.451,-2.795 8.137,-3.768 7.563,-5.549 6.954,-7.32 6.372,-9.099 6.228,-9.538 6.139,-9.995 6.006,-10.438 5.969,-10.562 5.859,-10.664 5.765,-10.801 H 3.447 C 3.053,-9.701 2.561,-8.549 2.23,-7.352 1.887,-6.112 1.494,-4.89 1.11,-3.665 0.736,-2.472 0.209,-1.325 0,0"
     style="fill:#ffffff;fill-opacity:1;fill-rule:evenodd;stroke:none"
     transform="matrix(0.28800559,0,0,-0.28800559,29.042655,22.041238)"
     clip-path="url(#clipPath1983-3)" />
  <path
     id="path1984"
     d="m 0,0 h -2.628 c -0.111,-0.11 -0.186,-0.185 -0.291,-0.291 v -8.603 h -2.126 v 8.892 C -5.517,0 -5.963,0.002 -6.41,0.002 c -0.455,0.001 -0.911,0 -1.401,0 V 1.868 H 0 Z"
     style="fill:#ffffff;fill-opacity:1;fill-rule:evenodd;stroke:none"
     transform="matrix(0.28800559,0,0,-0.28800559,53.466265,22.586433)"
     clip-path="url(#clipPath1985-3)" />
  <path
     id="path1986"
     d="M 0,0 H 2.064 V -8.795 C 2.121,-8.847 2.143,-8.876 2.173,-8.894 2.2,-8.911 2.234,-8.927 2.265,-8.927 3.606,-8.928 4.949,-8.928 6.325,-8.928 v -1.867 H 0 Z"
     style="fill:#ffffff;fill-opacity:1;fill-rule:evenodd;stroke:none"
     transform="matrix(0.28800559,0,0,-0.28800559,35.569435,22.039281)"
     clip-path="url(#clipPath1987-5)" />
  <path
     id="path1988"
     d="m 0,0 h -2.052 v 10.563 c 0.087,0.088 0.163,0.163 0.258,0.259 H 0 Z"
     style="fill:#ffffff;fill-opacity:1;fill-rule:evenodd;stroke:none"
     transform="matrix(0.28800559,0,0,-0.28800559,40.948864,25.156077)"
     clip-path="url(#clipPath1989-5)" />
  <path
     id="path1990"
     d="M 0,0 C -2.685,-2.693 -4.404,-6.16 -7.368,-8.632 -8.217,-9.34 -9.143,-9.982 -10.056,-10.906 -9.305,-5.594 -5.762,-0.698 0,0"
     style="fill:#ffffff;fill-opacity:1;fill-rule:evenodd;stroke:#1b85d0;stroke-width:0.25;stroke-linecap:butt;stroke-linejoin:miter;stroke-miterlimit:22.926;stroke-dasharray:none;stroke-opacity:1"
     transform="matrix(0.28800559,0,0,-0.28800559,25.20791,34.832518)"
     clip-path="url(#clipPath1991-5)" />
  <path
     id="path1992"
     d="M 0,0 C 2.685,-2.693 4.404,-6.16 7.368,-8.632 8.217,-9.34 9.142,-9.982 10.056,-10.906 9.304,-5.594 5.762,-0.698 0,0"
     style="fill:#ffffff;fill-opacity:1;fill-rule:evenodd;stroke:#1b85d0;stroke-width:0.25;stroke-linecap:butt;stroke-linejoin:miter;stroke-miterlimit:22.926;stroke-dasharray:none;stroke-opacity:1"
     transform="matrix(0.28800559,0,0,-0.28800559,38.33837,34.832518)"
     clip-path="url(#clipPath1993-2)" />
  <path
     id="path1994"
     d="m 0,0 c -3.98,-2.121 -3.228,-7.252 -4.619,-10.463 l 0.128,-0.025 c 1.321,3.172 6.425,3.929 7.885,7.541 -0.1,-6.714 -7.047,-7.972 -9.866,-13.133 C -6.654,-10.131 -7.956,-2.091 0,0"
     style="fill:#ffffff;fill-opacity:1;fill-rule:evenodd;stroke:#1b85d0;stroke-width:0.25;stroke-linecap:butt;stroke-linejoin:miter;stroke-miterlimit:22.926;stroke-dasharray:none;stroke-opacity:1"
     transform="matrix(0.28800559,0,0,-0.28800559,23.062442,35.851827)"
     clip-path="url(#clipPath1995-1)" />
  <path
     id="path1996"
     d="m 0,0 c 3.98,-2.121 3.228,-7.252 4.619,-10.463 l -0.128,-0.025 c -1.321,3.172 -6.425,3.929 -7.885,7.541 0.1,-6.714 7.046,-7.972 9.865,-13.133 C 6.654,-10.131 7.956,-2.091 0,0"
     style="fill:#ffffff;fill-opacity:1;fill-rule:evenodd;stroke:#1b85d0;stroke-width:0.25;stroke-linecap:butt;stroke-linejoin:miter;stroke-miterlimit:22.926;stroke-dasharray:none;stroke-opacity:1"
     transform="matrix(0.28800559,0,0,-0.28800559,40.483879,35.851827)"
     clip-path="url(#clipPath1997-5)" />
  <path
     id="path1998"
     d="m 0,0 c -2.142,-3.915 0.152,-7.779 -0.642,-14.282 0.033,-0.034 0.033,-0.15 0.158,-0.109 1.24,5.67 5.956,6.579 7.194,9.417 -0.85,-6.427 -6.534,-9.63 -7.517,-15.459 C -1.08,-17.411 -7.82,-7.533 0,0"
     style="fill:#ffffff;fill-opacity:1;fill-rule:evenodd;stroke:#1b85d0;stroke-width:0.25;stroke-linecap:butt;stroke-linejoin:miter;stroke-miterlimit:22.926;stroke-dasharray:none;stroke-opacity:1"
     transform="matrix(0.28800559,0,0,-0.28800559,21.060343,37.531016)"
     clip-path="url(#clipPath1999-8)" />
  <path
     id="path2000"
     d="m 0,0 c 2.141,-3.915 -0.152,-7.779 0.642,-14.282 -0.034,-0.034 -0.034,-0.15 -0.159,-0.109 -1.24,5.67 -5.956,6.579 -7.194,9.417 0.85,-6.427 6.535,-9.63 7.518,-15.459 C 1.08,-17.411 7.82,-7.533 0,0"
     style="fill:#ffffff;fill-opacity:1;fill-rule:evenodd;stroke:#1b85d0;stroke-width:0.25;stroke-linecap:butt;stroke-linejoin:miter;stroke-miterlimit:22.926;stroke-dasharray:none;stroke-opacity:1"
     transform="matrix(0.28800559,0,0,-0.28800559,42.485978,37.531016)"
     clip-path="url(#clipPath2001-2)" />
  <path
     id="path2002"
     d="m 0,0 c -0.849,-4.145 3.035,-9.034 4.014,-14.732 0.07,-0.027 0.117,0.033 0.141,0.079 -0.328,4.401 0.944,6.51 3.196,9.778 0.55,0.891 0.865,1.881 1.141,2.884 1.111,-1.494 0.052,-4.768 -1.107,-8.864 -0.818,-2.894 -1.991,-5.347 -1.666,-9.65 -1.425,1.729 -5.656,6.936 -6.047,8.956 C -1.574,-7.658 -1.805,-3.753 0,0"
     style="fill:#ffffff;fill-opacity:1;fill-rule:evenodd;stroke:#1b85d0;stroke-width:0.25;stroke-linecap:butt;stroke-linejoin:miter;stroke-miterlimit:22.926;stroke-dasharray:none;stroke-opacity:1"
     transform="matrix(0.28800559,0,0,-0.28800559,19.766422,40.658066)"
     clip-path="url(#clipPath2003-4)" />
  <path
     id="path2004"
     d="m 0,0 c 0.849,-4.145 -3.034,-9.034 -4.013,-14.732 -0.07,-0.027 -0.118,0.033 -0.142,0.079 0.329,4.401 -0.944,6.51 -3.195,9.778 -0.551,0.891 -0.866,1.881 -1.142,2.884 -1.111,-1.494 -0.051,-4.768 1.107,-8.864 0.819,-2.894 1.992,-5.347 1.667,-9.65 1.425,1.729 5.656,6.936 6.047,8.956 C 1.575,-7.658 1.806,-3.753 0,0"
     style="fill:#ffffff;fill-opacity:1;fill-rule:evenodd;stroke:#1b85d0;stroke-width:0.25;stroke-linecap:butt;stroke-linejoin:miter;stroke-miterlimit:22.926;stroke-dasharray:none;stroke-opacity:1"
     transform="matrix(0.28800559,0,0,-0.28800559,43.779647,40.658066)"
     clip-path="url(#clipPath2005-7)" />
  <path
     id="path2006"
     d="m 0,0 c 0.54,-4.687 6.395,-8.248 8.89,-12.557 0.072,-0.025 0.096,0.033 0.103,0.077 -2.462,5.145 0.365,8.974 0.269,13.262 2.975,-6.555 0.519,-11.364 3.923,-18.649 C 4.634,-13.363 -1.31,-8.107 0,0"
     style="fill:#ffffff;fill-opacity:1;fill-rule:evenodd;stroke:#1b85d0;stroke-width:0.25;stroke-linecap:butt;stroke-linejoin:miter;stroke-miterlimit:22.926;stroke-dasharray:none;stroke-opacity:1"
     transform="matrix(0.28800559,0,0,-0.28800559,19.457858,44.291435)"
     clip-path="url(#clipPath2007-8)" />
  <path
     id="path2008"
     d="m 0,0 c -0.539,-4.687 -6.395,-8.248 -8.889,-12.557 -0.072,-0.025 -0.097,0.033 -0.103,0.077 2.462,5.145 -0.365,8.974 -0.269,13.262 -2.976,-6.555 -0.52,-11.364 -3.923,-18.649 C -4.634,-13.363 1.311,-8.107 0,0"
     style="fill:#ffffff;fill-opacity:1;fill-rule:evenodd;stroke:#1b85d0;stroke-width:0.25;stroke-linecap:butt;stroke-linejoin:miter;stroke-miterlimit:22.926;stroke-dasharray:none;stroke-opacity:1"
     transform="matrix(0.28800559,0,0,-0.28800559,44.08821,44.291435)"
     clip-path="url(#clipPath2009-0)" />
  <path
     id="path2010"
     d="m 0,0 c 0.723,-1.691 2.564,-3.421 4.987,-4.842 3.066,-1.8 6.09,-2.419 8.948,-5.148 -2.736,3.239 -3.283,6.14 -4.554,13.943 2.301,-2.218 3.601,-5 4.754,-8.224 1.083,-3.03 1.683,-6.463 4.643,-8.951 -2.223,0.907 -6.961,0.997 -10.862,2.904 C 3.764,-8.29 0.823,-4.392 0,0"
     style="fill:#ffffff;fill-opacity:1;fill-rule:evenodd;stroke:#1b85d0;stroke-width:0.25;stroke-linecap:butt;stroke-linejoin:miter;stroke-miterlimit:22.926;stroke-dasharray:none;stroke-opacity:1"
     transform="matrix(0.28800559,0,0,-0.28800559,20.224472,47.632848)"
     clip-path="url(#clipPath2011-4)" />
  <path
     id="path2012"
     d="m 0,0 c -0.723,-1.691 -2.565,-3.421 -4.988,-4.842 -3.065,-1.8 -6.09,-2.419 -8.948,-5.148 2.736,3.239 3.284,6.14 4.555,13.943 -2.301,-2.218 -3.601,-5 -4.754,-8.224 -1.084,-3.03 -1.683,-6.463 -4.644,-8.951 2.223,0.907 6.961,0.997 10.863,2.904 C -3.764,-8.29 -0.824,-4.392 0,0"
     style="fill:#ffffff;fill-opacity:1;fill-rule:evenodd;stroke:#1b85d0;stroke-width:0.25;stroke-linecap:butt;stroke-linejoin:miter;stroke-miterlimit:22.926;stroke-dasharray:none;stroke-opacity:1"
     transform="matrix(0.28800559,0,0,-0.28800559,43.321849,47.632848)"
     clip-path="url(#clipPath2013-3)" />
  <path
     id="path2014"
     d="M 0,0 C 4.532,-4.72 12.225,-3.088 16.404,-4.148 11.932,-2.125 10.75,1.833 8.891,5.395 13.431,3.643 15.775,-3.408 23.836,-4.754 19.588,-5.288 14.384,-8.408 7.531,-6.627 4.113,-5.534 1.698,-3.433 0,0"
     style="fill:#ffffff;fill-opacity:1;fill-rule:evenodd;stroke:#1b85d0;stroke-width:0.25;stroke-linecap:butt;stroke-linejoin:miter;stroke-miterlimit:22.926;stroke-dasharray:none;stroke-opacity:1"
     transform="matrix(0.28800559,0,0,-0.28800559,22.029772,50.59083)"
     clip-path="url(#clipPath2015-8)" />
  <path
     id="path2016"
     d="m 0,0 c -4.532,-4.72 -12.225,-3.088 -16.404,-4.148 4.472,2.023 5.654,5.981 7.513,9.543 -4.539,-1.752 -6.884,-8.803 -14.945,-10.149 4.248,-0.534 9.452,-3.654 16.306,-1.873 C -4.113,-5.534 -1.697,-3.433 0,0"
     style="fill:#ffffff;fill-opacity:1;fill-rule:evenodd;stroke:#1b85d0;stroke-width:0.25;stroke-linecap:butt;stroke-linejoin:miter;stroke-miterlimit:22.926;stroke-dasharray:none;stroke-opacity:1"
     transform="matrix(0.28800559,0,0,-0.28800559,41.516488,50.59083)"
     clip-path="url(#clipPath2017-1)" />
  <path
     id="path2018"
     d="m 0,0 c -4.523,-1.72 -9.342,-0.247 -12.885,2.494 -1.615,1.059 -4.68,3.203 -6.892,2.587 3.436,-1.63 6.319,-3.744 9.251,-6.619 -0.499,-0.565 -1.241,-1.18 -1.839,-1.669 -2.81,3.098 -5.945,5.832 -9.436,7.566 -2.9,-1.176 -7.53,-5.134 -9.466,-7.586 l -1.938,1.716 c 2.913,2.978 5.849,4.861 9.357,6.524 -3.364,0.79 -5.243,-1.381 -7.698,-3.039 -3.045,-2.155 -7.85,-3.641 -11.548,-2.159 -1.972,0.777 -4.073,1.957 -5.425,3.864 2.891,-2.034 8.359,-1.64 11.645,-0.326 4.424,1.963 8.91,4.461 15.055,2.471 4.677,1.586 9.207,0.463 13.433,-1.836 C -3.925,2.039 0.143,1.2 4.767,3.639 3.32,1.799 2.042,0.734 0,0"
     style="fill:#ffffff;fill-opacity:1;fill-rule:evenodd;stroke:#1b85d0;stroke-width:0.25;stroke-linecap:butt;stroke-linejoin:miter;stroke-miterlimit:22.926;stroke-dasharray:none;stroke-opacity:1"
     transform="matrix(0.28800559,0,0,-0.28800559,38.064884,53.781278)"
     clip-path="url(#clipPath2019-3)" />
  <path
     id="path2020"
     d="m 0,0 c 6.304,0 11.416,-5.112 11.416,-11.416 0,-6.304 -5.112,-11.416 -11.416,-11.416 -6.305,0 -11.417,5.112 -11.417,11.416 C -11.417,-5.112 -6.305,0 0,0 Z m 0,6.334 c 9.801,0 17.751,-7.948 17.751,-17.75 0,-9.803 -7.95,-17.751 -17.751,-17.751 -9.803,0 -17.752,7.948 -17.752,17.751 0,9.802 7.949,17.75 17.752,17.75 z m 0,5.959 c 13.091,0 23.708,-10.617 23.708,-23.709 0,-13.092 -10.617,-23.709 -23.708,-23.709 -13.092,0 -23.709,10.617 -23.709,23.709 0,13.092 10.617,23.709 23.709,23.709 z m 0,5.786 c 16.286,0 29.494,-13.209 29.494,-29.495 0,-16.287 -13.208,-29.495 -29.494,-29.495 -16.288,0 -29.495,13.208 -29.495,29.495 0,16.286 13.207,29.495 29.495,29.495 z"
     style="fill:none;stroke:#ffffff;stroke-width:0.25;stroke-linecap:butt;stroke-linejoin:miter;stroke-miterlimit:22.926;stroke-dasharray:none;stroke-opacity:1"
     transform="matrix(0.28800559,0,0,-0.28800559,31.630639,39.329063)"
     clip-path="url(#clipPath2021-4)" />
  <path
     id="path2022"
     d="m 0,0 c 3.06,0 5.541,-2.556 5.541,-5.706 0,-3.151 -2.481,-5.706 -5.541,-5.706 -3.06,0 -5.541,2.555 -5.541,5.706 C -5.541,-2.556 -3.06,0 0,0 Z"
     style="fill:#ffffff;stroke:#00adef;stroke-width:0.25;stroke-linecap:butt;stroke-linejoin:miter;stroke-miterlimit:22.926;stroke-dasharray:none;stroke-opacity:1"
     transform="matrix(0.28800559,0,0,-0.28800559,31.630639,41.021039)"
     clip-path="url(#clipPath2023-6)" />
  <path
     id="path2024"
     d="M 0,0 41.519,-41.519 M 20.76,8.599 v -58.718"
     style="fill:#ffffff;stroke:#1b85d0;stroke-width:0.25;stroke-linecap:butt;stroke-linejoin:miter;stroke-miterlimit:22.926;stroke-dasharray:none;stroke-opacity:1"
     transform="matrix(0.28800559,0,0,-0.28800559,25.651647,36.638054)"
     clip-path="url(#clipPath2025-5)" />
  <path
     id="path2026"
     d="M 0,0 H -58.718"
     style="fill:#ffffff;stroke:#00adef;stroke-width:0.25;stroke-linecap:butt;stroke-linejoin:miter;stroke-miterlimit:22.926;stroke-dasharray:none;stroke-opacity:1"
     transform="matrix(0.28800559,0,0,-0.28800559,40.086021,42.617013)"
     clip-path="url(#clipPath2027-6)" />
  <path
     id="path2028"
     d="M 0,0 -41.519,-41.519"
     style="fill:#ffffff;stroke:#1b85d0;stroke-width:0.25;stroke-linecap:butt;stroke-linejoin:miter;stroke-miterlimit:22.926;stroke-dasharray:none;stroke-opacity:1"
     transform="matrix(0.28800559,0,0,-0.28800559,37.609358,36.638054)"
     clip-path="url(#clipPath2029-9)" />
  <path
     id="path2030"
     d="m 0,0 0.014,-0.178 0.136,-0.015 0.082,0.062 h 0.164 l 0.116,-0.055 0.136,0.007 0.11,0.021 0.075,0.074 L 0.847,0.025 0.895,0.087 0.99,0.176 1.072,0.251 1.12,0.332 1.215,0.435 1.222,0.531 1.284,0.64 1.25,0.763 1.072,0.749 c 0,0 -0.041,-0.047 -0.034,-0.081 C 1.044,0.634 1.011,0.524 1.011,0.524 L 0.915,0.511 0.812,0.483 c 0,0 -0.075,-0.028 -0.075,-0.069 V 0.278 L 0.689,0.189 0.574,0.114 V 0.032 H 0.409 L 0.266,0.093 0.191,0.155 0.11,0.08 Z m -4.947,-0.316 0.199,-0.035 0.136,0.103 0.096,0.09 0.143,0.027 0.226,0.135 0.13,0.096 0.191,0.096 0.109,0.103 V 0.503 L -3.969,0.517 -4.188,0.407 -4.352,0.312 -4.592,0.224 -4.625,0.052 -4.809,-0.016 -4.932,-0.098 Z M -3.102,2.867 -2.924,2.86 -2.842,2.758 -2.74,2.669 -2.733,2.56 -2.631,2.47 -2.46,2.43 -2.425,2.328 -2.419,2.212 -2.302,2.13 -2.145,2.054 -2.077,1.911 -1.947,1.767 c 0,0 0.034,-0.096 0.034,-0.171 0,-0.074 -0.068,-0.259 -0.068,-0.259 L -2.057,1.234 -2.173,1.282 -2.248,1.385 c 0,0 -0.047,0.13 -0.096,0.13 -0.047,0 -0.156,0.048 -0.156,0.048 L -2.494,1.719 -2.576,1.822 -2.705,1.815 -2.733,1.918 -2.774,1.999 -2.883,1.986 -2.993,1.952 c 0,0 -0.048,-0.082 -0.054,-0.116 C -3.055,1.802 -3.163,1.802 -3.163,1.802 l -0.007,0.13 0.055,0.115 0.034,0.123 -0.089,0.096 0.035,0.19 0.006,0.165 -0.048,0.158 z m -13.042,3.526 h -0.17 l -0.15,0.013 v 0.15 l 0.123,0.034 0.061,0.151 0.13,0.034 0.13,0.014 -0.041,0.13 0.062,0.19 0.013,0.158 0.082,0.177 0.075,0.089 0.185,0.075 0.04,0.124 0.273,0.006 0.165,0.061 0.177,0.014 0.226,-0.061 h 0.17 l 0.13,-0.096 0.089,-0.13 0.062,-0.15 0.074,-0.109 0.055,-0.117 0.013,-0.102 0.096,-0.089 c 0,0 0.11,-0.027 0.144,-0.027 0.035,0 0.171,-0.021 0.171,-0.021 l 0.13,-0.026 0.041,-0.137 0.027,-0.144 -0.13,-0.028 -0.116,0.097 -0.068,0.047 -0.092,-0.024 -0.05,0.067 -0.102,0.005 h -0.136 l -0.194,-0.005 -0.166,-0.016 -0.115,0.041 -0.133,-0.045 -0.006,-0.108 -0.182,0.03 -0.108,0.076 -0.165,0.021 -0.068,-0.042 -0.095,-0.116 -0.137,-0.007 -0.185,-0.014 h -0.177 L -16.123,6.516 Z M -34.602,1.274 h -0.357 l -0.082,0.151 -0.219,0.028 -0.315,-0.014 -0.248,-0.027 -0.164,-0.179 -0.096,-0.164 -0.096,-0.137 V 0.713 l -0.095,-0.165 -0.11,-0.178 -0.11,-0.151 v -0.274 l -0.055,-0.233 0.013,-0.287 v -0.261 l 0.015,-0.219 0.109,-0.165 0.014,-0.233 0.082,-0.232 0.109,-0.165 0.083,-0.246 0.151,-0.192 0.192,-0.234 0.041,-0.246 0.37,-0.083 0.26,-0.068 0.247,-0.246 0.109,-0.166 0.193,-0.191 0.15,-0.124 0.247,-0.067 h 0.246 l -0.041,0.191 0.138,0.055 0.287,-0.165 0.178,-0.219 0.234,-0.151 0.15,-0.177 0.151,-0.138 0.288,-0.178 0.15,-0.04 0.316,-0.125 0.177,-0.136 0.151,-0.165 0.015,-0.191 0.15,-0.234 0.123,-0.191 0.233,-0.425 0.193,-0.11 0.848,-0.054 0.412,-0.754 0.918,-0.616 1.316,-1.344 0.686,-0.055 0.204,-0.082 1.878,-0.055 0.274,-0.165 0.15,-0.108 0.206,-0.055 0.247,-0.014 h 0.206 l 0.383,0.069 0.233,0.108 0.192,0.152 0.192,0.177 0.301,0.028 0.548,0.028 0.165,0.178 0.466,0.014 0.644,-0.014 0.357,0.356 -0.014,0.534 -0.521,0.823 -0.494,0.685 -0.301,0.439 -0.275,0.492 -0.355,0.412 -0.385,0.384 -0.328,0.246 0.014,0.398 0.26,0.205 0.11,0.316 0.041,0.26 v 0.356 l -0.055,0.288 -0.123,0.137 -0.165,0.452 -0.096,0.219 -0.178,0.165 -0.151,0.082 0.069,1.151 -0.138,0.083 0.11,0.959 -0.191,0.109 -0.041,0.384 -0.152,0.11 0.028,0.85 -0.206,0.219 v 0.356 l -1.054,1.26 -0.055,0.905 -0.152,0.109 0.028,0.261 0.179,0.191 0.218,0.152 0.329,0.109 0.453,0.411 0.041,0.563 h 0.727 l 0.274,0.205 0.068,0.356 -0.138,0.452 -0.123,0.275 -0.067,0.232 -0.152,0.124 0.027,0.301 0.219,0.165 0.22,0.028 0.15,0.15 0.726,-0.014 0.152,-0.178 0.219,-0.178 0.069,-0.329 0.054,-0.534 -0.137,-0.096 0.014,-0.959 0.165,-0.276 -0.151,-0.163 -0.233,-0.288 h -0.507 l -0.137,0.191 -0.206,0.042 -0.082,0.151 -0.424,-0.055 0.014,-0.48 0.109,-0.191 0.027,-0.549 -0.261,-0.069 -0.205,-0.191 -0.26,-0.097 0.068,-0.287 0.26,-0.246 0.179,-0.247 0.219,-0.11 0.178,0.028 0.02,0.156 0.157,0.069 0.006,0.212 0.021,0.566 0.15,0.096 0.082,0.151 0.124,-0.021 0.034,0.164 0.491,-0.021 0.014,-0.122 0.505,0.014 0.158,-0.048 h 0.266 l 0.226,0.013 0.232,-0.041 0.055,-0.116 0.552,-0.021 0.117,-0.143 0.444,-0.027 0.444,-0.525 0.575,-0.069 0.809,-1.137 0.315,-0.041 0.082,0.479 0.205,0.014 0.002,-0.218 0.123,-0.102 0.034,-1.032 0.171,-0.013 0.867,0.717 0.014,0.704 0.151,-0.007 0.02,0.17 h 0.355 l 0.342,-0.321 0.484,-0.049 0.412,-0.027 0.397,-0.014 0.465,0.055 0.275,-0.028 0.589,0.179 0.274,0.041 0.041,0.164 0.754,-0.028 0.384,0.371 0.041,0.37 0.014,0.301 0.246,0.411 0.097,0.288 0.177,0.192 0.014,0.261 0.124,0.137 0.013,0.164 -0.179,0.082 v 0.398 l -0.3,0.11 -0.042,0.136 h -1.685 l -0.357,-0.37 0.014,-0.685 -0.329,-0.329 -0.246,-0.055 -0.124,-0.301 -0.151,-0.164 -0.027,-0.206 -0.493,0.014 -0.014,0.164 -0.144,-0.004 0.013,0.165 0.479,0.027 0.068,0.129 0.123,0.028 0.021,0.205 0.02,0.198 0.009,0.266 0.151,0.137 0.055,0.234 0.192,0.149 0.112,0.102 0.02,0.301 -0.197,0.04 v 0.165 l 0.014,0.28 -0.552,0.086 -0.083,0.329 -0.136,0.096 0.054,0.301 0.151,0.055 0.055,0.604 0.136,0.273 0.124,0.206 0.165,0.219 0.219,0.219 0.26,0.205 0.192,0.22 0.123,0.123 0.247,0.082 0.261,0.083 0.096,0.164 0.247,0.055 0.245,0.11 0.234,0.191 0.151,0.138 0.246,0.192 0.058,0.155 -0.013,0.177 v 0.185 l -0.008,0.143 -0.157,0.082 0.007,0.676 0.15,0.014 0.076,0.137 0.417,-0.007 0.006,-0.287 -0.129,-0.013 -0.075,0.068 -0.158,-0.027 -0.116,-0.124 0.014,-0.164 v -0.184 l 0.096,-0.137 0.175,-0.132 0.151,-0.22 0.164,-0.151 0.275,-0.151 0.246,-0.081 0.192,-0.165 0.369,0.014 0.275,-0.056 0.274,-0.15 0.246,-0.247 0.234,-0.246 0.219,-0.178 0.082,-0.179 0.261,-0.013 0.068,-0.288 V 9.524 9.305 L -6.701,9.236 -6.729,8.88 -6.878,8.785 -7.017,8.688 -7.127,8.538 -7.222,8.415 -7.249,8.196 -7.222,7.976 -7.071,7.879 -6.948,7.729 -6.77,7.578 -6.564,7.497 -6.509,7.332 -6.359,7.14 -6.414,6.866 V 6.674 L -6.372,6.481 -6.345,6.235 -6.18,6.044 -5.989,5.838 V 5.578 L -6.058,5.345 -6.235,5.166 -6.318,4.961 -6.29,4.742 -6.441,4.605 -6.688,4.632 H -6.961 L -7.235,4.591 -7.51,4.522 -7.743,4.412 -7.932,4.35 -8.048,4.186 -8.136,4.002 -8.184,3.755 -8.274,3.619 -8.369,3.462 -8.373,3.124 -8.497,3.001 -8.729,2.754 -8.853,2.536 -9.017,2.343 -9.155,2.247 -9.278,2.083 -9.359,1.878 -9.456,1.699 -9.634,1.508 -9.785,1.261 -9.798,1.042 -10.018,0.918 -10.086,0.685 -10.1,0.466 V 0.233 l -0.137,-0.096 -0.028,-0.233 0.041,-0.192 0.015,-0.192 0.027,-0.232 0.178,-0.124 0.112,-0.122 v -0.151 l -0.062,-0.117 h -0.151 l -0.115,0.007 -0.185,-0.019 -0.143,-0.069 -0.123,-0.075 -0.11,-0.054 -0.014,-0.103 -0.075,-0.075 -0.02,-0.116 0.062,-0.041 0.013,-0.11 0.117,-0.034 0.095,-0.048 0.008,-0.143 c 0,0 -0.076,-0.021 -0.124,-0.021 -0.048,0 -0.212,-0.007 -0.212,-0.007 l -0.014,-0.157 -0.033,-0.137 0.013,-0.102 -0.027,-0.129 -0.158,-0.041 -0.041,-0.117 -0.136,-0.007 -0.246,0.014 -0.089,-0.102 -0.041,-0.116 -0.014,-0.151 -0.109,-0.124 -0.069,-0.205 -0.151,-0.151 -0.164,-0.192 v -0.26 l -0.11,-0.192 -0.205,-0.137 -0.234,-0.055 -0.123,-0.165 -0.165,-0.108 -0.191,-0.111 -0.151,-0.191 v -0.206 l -0.177,-0.165 -0.097,-0.205 0.055,-0.219 -0.165,-0.096 -0.15,-0.138 -0.22,-0.163 -0.027,-0.261 v -0.233 l 0.082,-0.178 0.234,-0.26 0.15,-0.109 0.013,-0.275 0.125,-0.151 0.163,-0.232 0.165,-0.207 0.082,-0.177 0.178,-0.179 0.192,-0.041 0.178,-0.192 0.301,-0.068 0.371,-0.164 0.301,-0.179 0.247,-0.055 0.151,-0.177 0.178,-0.151 0.246,-0.109 0.151,-0.234 0.151,-0.069 0.233,-0.136 0.233,-0.193 0.26,-0.164 0.219,-0.178 0.179,-0.192 0.232,-0.124 0.166,-0.149 0.136,-0.152 0.192,-0.123 0.274,-0.082 1.576,-0.096 0.054,-0.205 0.056,-0.262 -0.124,-0.081 -0.15,-0.165 -0.152,-0.232 -0.068,-0.275 0.083,-0.151 0.068,-0.151 -0.027,-0.177 0.164,-0.247 0.15,-0.027 0.152,-0.206 0.191,-0.233 0.288,-0.055 0.219,-0.15 0.261,-0.097 0.205,-0.219 0.233,-0.15 0.124,-0.247 0.192,-0.233 0.232,-0.192 0.083,-0.123 0.124,-0.138 0.164,-0.219 0.164,-0.11 0.151,-0.177 0.192,-0.152 0.232,-0.122 0.179,-0.124 0.233,-0.069 0.178,-0.123 0.165,-0.109 0.177,-0.138 0.151,-0.219 0.302,-0.151 0.165,-0.109 0.246,-0.123 0.191,0.04 0.207,-0.013 0.26,0.123 0.11,0.109 0.164,0.193 0.356,0.205 0.233,0.138 0.301,0.164 0.233,0.26 0.247,0.165 0.275,0.246 0.26,0.247 0.287,0.233 0.261,0.288 0.192,0.247 0.191,0.301 0.233,0.329 0.192,0.301 0.083,0.289 0.164,0.301 0.178,0.287 0.069,0.288 0.027,0.342 0.151,0.234 0.11,0.247 0.109,0.3 0.027,0.248 0.069,0.246 0.069,0.15 v 0.22 0.192 l -0.124,0.206 -0.136,0.137 v 0.247 l 0.136,0.081 0.082,0.275 0.11,0.096 0.069,0.219 0.15,0.095 0.069,0.193 0.124,0.15 0.109,0.179 0.096,0.205 -0.014,0.178 -0.123,0.164 -0.123,0.166 -0.165,0.109 -0.123,0.082 -0.22,0.123 -0.082,0.165 -0.178,0.095 -0.165,0.014 -0.109,0.124 -0.123,0.137 -0.151,0.068 -0.096,0.124 0.014,0.178 0.014,0.247 0.109,0.136 0.11,0.206 0.013,0.164 0.165,0.124 0.178,0.082 0.178,-0.041 0.137,-0.137 0.11,-0.138 0.219,-0.136 0.068,-0.137 0.179,-0.178 0.164,-0.028 0.014,-0.219 0.178,-0.096 C 4.467,-7.03 4.55,-7.194 4.55,-7.194 l 0.151,-0.137 0.123,-0.069 0.11,-0.247 0.15,-0.137 0.082,-0.233 0.083,-0.178 0.014,-0.205 0.109,-0.192 0.151,-0.165 0.164,-0.137 0.151,-0.068 0.274,0.041 0.192,0.069 0.164,0.013 0.261,0.028 0.246,0.013 0.233,0.028 0.027,0.15 0.234,0.028 v 0.178 l -0.041,0.301 0.068,0.261 v 0.288 l -0.164,0.205 -0.028,0.26 -0.164,0.124 -0.027,0.288 0.013,0.315 v 0.232 l -0.151,0.138 v 0.26 l -0.123,0.151 -0.178,0.124 -0.137,0.15 -0.178,0.069 -0.151,0.123 H 6.003 L 5.715,-5.139 5.717,-5.303 5.683,-5.434 5.69,-5.563 5.628,-5.639 5.472,-5.618 5.376,-5.556 v 0.089 L 5.335,-5.393 5.232,-5.338 5.15,-5.228 5.103,-5.139 4.952,-5.078 4.877,-4.955 4.782,-4.839 4.652,-4.757 4.543,-4.633 4.446,-4.552 4.303,-4.497 4.229,-4.34 4.126,-4.258 4.119,-3.992 4.037,-3.828 3.934,-3.841 3.887,-3.711 3.908,-3.5 3.819,-3.363 3.757,-3.179 3.572,-3.152 H 3.409 L 3.258,-3.048 3.251,-2.879 3.19,-2.693 3.088,-2.591 3.027,-2.421 2.999,-2.311 2.869,-2.256 2.718,-2.284 2.561,-2.236 2.507,-2.332 2.52,-2.468 2.397,-2.551 2.404,-2.673 2.288,-2.789 2.234,-2.933 2.193,-3.09 2.186,-3.268 V -3.411 L 2.125,-3.562 1.967,-3.691 1.851,-3.861 1.576,-4.015 H 1.302 L 0.877,-4.07 0.548,-3.947 0.15,-4.002 l -0.274,0.069 -0.424,0.041 -0.205,0.138 h -0.261 l -0.315,0.191 h -0.329 l -0.247,0.219 -0.233,-0.013 -0.287,0.054 -0.207,-0.041 -0.054,0.275 -0.288,0.15 -0.014,0.179 0.275,0.068 0.219,-0.041 0.26,0.027 h 0.302 l 0.343,-0.068 0.274,-0.055 0.274,-0.069 0.151,-0.246 0.26,-0.014 0.274,-0.068 0.273,-0.028 0.288,-0.041 0.248,-0.056 0.205,-0.094 0.232,-0.056 h 0.356 l 0.276,0.028 0.163,0.122 0.014,0.22 0.179,0.247 v 0.26 l 0.15,0.261 0.178,0.233 0.082,0.233 -0.054,0.164 0.081,0.302 0.042,0.219 0.096,0.109 -0.014,0.219 0.069,0.165 0.041,0.37 0.055,0.164 L 2.563,0.151 2.522,0.453 2.385,0.672 2.261,0.918 C 2.124,0.904 2.014,0.932 2.014,0.932 V 1.083 L 2.069,1.233 2.234,1.288 2.26,1.391 2.37,1.502 2.404,1.644 2.493,1.761 2.561,1.863 2.63,1.979 2.725,2.081 2.862,2.197 2.896,2.308 H 3.047 L 3.094,2.184 3.203,2.102 3.244,1.993 3.34,1.952 3.45,1.979 3.559,1.986 h 0.095 l 0.055,0.095 0.042,0.11 0.027,0.11 -0.007,0.102 0.013,0.109 0.28,-0.014 0.157,0.01 0.123,-0.096 H 4.523 L 4.66,2.481 4.851,2.453 H 5.057 L 5.249,2.494 5.482,2.453 5.728,2.481 5.975,2.494 6.139,2.645 C 6.152,2.81 6.318,2.851 6.318,2.851 L 6.537,2.81 6.605,2.658 6.77,2.59 6.948,2.577 7.14,2.563 7.29,2.536 7.442,2.508 7.577,2.498 H 7.684 L 7.801,2.477 7.924,2.47 8.007,2.525 8.013,2.423 8.102,2.369 8.177,2.362 8.28,2.321 8.43,2.362 8.498,2.45 8.457,2.539 c 0,0 0.007,0.082 0.034,0.117 0.028,0.033 0.041,0.102 0.041,0.102 L 8.594,2.867 8.69,2.955 c 0,0 0.068,-0.047 0.109,-0.047 0.041,0 0.075,0.041 0.116,0.041 0.04,0 0.116,-0.069 0.116,-0.069 L 9.188,2.915 9.236,2.997 9.338,3.032 9.42,3.086 V 3.235 L 9.496,3.386 9.434,3.468 9.461,3.619 9.386,3.727 9.264,3.865 9.1,4.043 9.14,4.18 8.976,4.29 8.867,4.399 8.962,4.673 8.989,4.879 9.059,5.03 C 9.182,5.098 9.182,5.29 9.182,5.29 L 9.1,5.522 9.14,5.674 9.25,5.865 9.155,6.044 9.223,9.236 9.127,9.387 9.113,9.607 9.072,9.895 9.086,10.141 v 0.274 L 8.935,10.552 8.948,11.607 9.086,11.745 9.1,12.087 8.921,12.252 8.893,12.444 8.551,12.43 V 12.224 C 8.401,12.196 8.401,11.977 8.401,11.977 L 8.305,11.826 8.222,11.649 8.168,11.361 8.154,11.196 7.866,11.183 V 10.799 L 7.798,10.594 7.633,10.47 7.647,10.265 7.564,10.1 7.482,9.895 7.469,9.36 7.496,8.853 7.633,8.702 7.605,7.839 c 0,0 0.015,-0.329 0.015,-0.397 0,-0.069 0.082,-0.384 0.082,-0.384 L 7.551,6.633 7.482,5.468 7.318,5.359 7.194,5.112 7.222,4.81 7.208,4.578 7.072,4.55 7.105,4.089 6.995,3.974 6.893,4.022 6.858,4.124 6.865,4.234 6.818,4.343 6.798,4.582 6.708,4.705 6.586,4.883 c 0,0 -0.083,0.102 -0.131,0.129 C 6.407,5.04 6.285,5.136 6.285,5.136 L 6.135,5.245 6.011,5.449 c 0,0 -0.108,0.062 -0.136,0.096 C 5.848,5.579 5.752,5.682 5.752,5.682 V 5.879 L 5.687,6.167 5.523,6.359 5.44,6.564 5.317,6.715 5.445,6.789 5.52,6.782 5.635,6.768 5.786,6.775 5.936,6.837 6.045,6.775 6.292,6.762 6.428,6.857 6.448,7.007 6.537,7.137 6.626,7.281 6.599,7.478 6.634,7.636 V 7.758 L 6.66,7.895 6.708,7.998 6.694,8.107 6.756,8.182 6.75,8.511 6.551,8.572 6.388,8.558 6.299,8.572 6.278,8.701 6.183,8.763 6.194,8.908 6.093,8.927 V 9.07 L 6.087,9.242 6.127,9.391 6.23,9.412 6.278,9.549 6.326,9.651 6.442,9.637 6.483,9.761 h 0.151 l 0.102,0.068 0.157,-0.075 0.109,0.101 0.041,0.097 0.11,0.02 0.041,0.184 0.096,0.15 0.138,0.26 0.15,0.274 0.084,0.25 0.054,0.075 0.058,0.033 0.067,0.035 0.007,0.091 -0.007,0.082 0.022,0.164 -0.006,0.274 0.115,0.041 0.048,0.17 0.095,0.069 0.053,0.128 0.013,0.301 -0.041,0.246 0.014,0.193 -0.096,0.109 -0.027,0.233 0.027,0.439 -0.014,0.26 0.137,0.069 0.069,0.219 -0.041,0.315 -0.014,0.206 0.014,0.178 -0.137,0.11 -0.041,0.232 -0.014,0.288 -0.133,0.081 -0.11,0.123 -0.123,0.021 -0.116,0.068 -0.075,0.082 -0.117,-0.007 -0.061,0.185 0.013,0.136 0.13,0.049 0.103,0.087 -0.034,0.089 0.027,0.137 v 0.191 l -0.068,0.171 -0.11,-0.013 -0.157,0.075 -0.088,0.096 0.027,0.143 0.014,0.164 v 0.409 L 6.988,18 6.941,18.136 6.752,18.125 6.653,18.104 6.44,18.118 6.263,18.074 6.174,18.03 6.079,17.945 l -0.19,0.009 -0.105,0.021 -0.058,0.133 -0.013,0.197 0.013,0.187 -0.152,0.037 -0.007,0.16 -0.061,0.158 -0.123,0.021 -0.144,0.197 -0.122,0.068 -0.362,0.355 -0.274,0.274 -0.219,0.493 -0.165,0.287 -0.122,0.207 -0.165,0.273 -0.233,0.233 -0.192,0.206 -0.096,0.397 -0.082,0.22 -0.011,0.314 -0.075,0.116 -0.047,0.177 -0.062,0.165 -0.123,0.103 -0.02,0.149 -0.09,0.079 -0.102,0.023 -0.033,0.065 -0.072,0.009 -0.071,-0.012 -0.113,0.016 H 2.294 L 2.247,23.35 2.165,23.449 2.019,23.459 1.913,23.486 1.877,23.571 1.825,23.622 1.722,23.738 1.578,23.854 1.516,23.949 1.442,24.031 1.25,24.162 1.161,24.278 1.038,24.414 0.888,24.531 0.806,24.585 0.758,24.694 H 0.505 L 0.362,24.687 0.375,24.599 0.458,24.496 0.382,24.393 0.471,24.291 0.478,24.175 0.595,24.065 0.696,23.901 0.737,23.744 0.682,23.519 0.737,23.389 0.758,23.225 0.772,23.102 0.922,22.98 0.99,22.863 1.106,22.767 1.23,22.57 1.271,22.454 1.311,22.275 1.414,22.18 1.502,22.016 1.509,21.825 1.612,21.743 c 0,0 0.041,-0.082 0.041,-0.116 0,-0.035 0.061,-0.158 0.061,-0.158 L 1.756,21.32 c 0,0 0.048,-0.089 0.088,-0.124 C 1.885,21.162 1.912,21.08 1.912,21.08 L 2.008,20.978 2.138,20.89 V 20.738 L 2.288,20.351 2.343,20.118 2.522,19.926 2.563,19.693 2.672,19.473 2.851,19.337 2.919,19.145 3.07,18.967 3.083,18.761 3.276,18.692 3.44,18.514 3.604,18.309 3.782,18.09 3.975,17.87 c 0,0 0.15,-0.232 0.191,-0.301 0.041,-0.069 0.205,-0.288 0.205,-0.288 0,0 0.152,-0.041 0.22,-0.109 0.069,-0.069 0.164,-0.206 0.164,-0.206 L 4.947,16.692 5.016,16.459 5.007,16.243 4.993,16.086 5,15.957 4.918,15.772 4.843,15.662 c 0,0 -0.061,-0.122 -0.061,-0.156 0,-0.034 -0.096,-0.11 -0.096,-0.11 0,0 -0.054,-0.218 -0.047,-0.252 0.006,-0.034 0.02,-0.069 0.027,-0.11 C 4.673,14.993 4.7,14.973 4.748,14.945 4.795,14.918 4.857,14.87 4.857,14.87 L 5,14.768 5.18,14.677 5.372,14.582 5.55,14.445 5.81,14.321 6.016,14.197 6.235,13.937 6.495,13.677 6.688,13.416 6.783,13.06 6.948,12.636 6.989,12.347 7.044,12.059 7.125,12.001 V 11.905 L 7.119,11.769 7.091,11.646 7.063,11.516 7.016,11.332 6.913,11.201 6.906,11.045 6.791,10.956 6.694,10.846 6.599,10.73 6.442,10.641 6.347,10.54 l -0.11,-0.055 -0.355,0.007 -0.014,0.197 -0.075,0.075 0.068,0.103 0.09,0.144 0.033,0.108 0.088,0.082 0.049,0.069 0.062,0.151 0.068,0.095 0.061,0.116 v 0.171 l 0.041,0.115 0.081,0.096 0.014,0.096 -0.067,0.137 -0.075,0.068 c 0,0 -0.09,0.048 -0.083,0.096 0.007,0.047 0.028,0.068 -0.007,0.096 -0.033,0.027 -0.054,0.047 -0.054,0.047 0,0 -0.041,0.042 -0.075,0.076 -0.035,0.034 -0.09,0.129 -0.09,0.129 0,0 -0.006,0.055 -0.101,0.089 -0.096,0.034 -0.13,0.069 -0.13,0.069 l -0.055,0.088 -0.124,0.103 -0.122,0.068 -0.089,0.088 -0.089,0.069 c 0,0 -0.096,0.014 -0.137,0.007 C 5.11,13.333 5.007,13.32 5.007,13.32 L 4.891,13.312 4.768,13.203 4.659,13.094 4.618,13.005 4.502,12.957 h -0.39 l -0.095,0.062 c 0,0 -0.028,0.089 -0.028,0.123 v 0.164 l 0.069,0.061 0.061,0.069 0.021,0.069 -0.048,0.06 -0.048,0.069 v 0.081 l -0.09,0.049 -0.053,0.075 -0.215,0.208 -0.123,0.177 -0.027,0.207 -0.179,0.163 -0.095,0.179 -0.179,0.191 c 0,0 -0.096,0.179 -0.191,0.166 -0.097,-0.015 -0.22,-0.015 -0.22,-0.015 L 2.439,15.28 2.282,15.239 2.125,15.192 c 0,0 -0.227,0.074 -0.274,0.074 -0.047,0 -0.225,-0.006 -0.267,-0.006 -0.041,0 -0.034,-0.014 -0.17,-0.014 -0.136,0 -0.274,0.007 -0.274,0.007 0,0 0,0.061 -0.109,0.054 C 0.922,15.301 0.826,15.321 0.764,15.293 0.703,15.266 0.648,15.253 0.608,15.246 0.567,15.239 0.464,15.314 0.464,15.314 h -0.15 c 0,0 -0.069,0.014 -0.103,0.014 -0.033,0 -0.088,0 -0.115,0.034 -0.028,0.034 -0.083,0.082 -0.083,0.082 0,0 -0.054,0.055 -0.116,0.041 -0.062,-0.013 -0.218,-0.068 -0.218,-0.068 L -0.411,15.253 -0.561,15.117 -0.662,15 -0.751,14.836 -0.82,14.714 l -0.021,-0.227 -0.04,-0.204 0.013,-0.137 -0.034,-0.109 -0.13,0.021 -0.129,0.013 -0.028,0.103 -0.096,0.116 -0.041,0.102 -0.048,0.102 0.028,0.144 -0.014,0.205 V 15 l -0.088,0.09 -0.144,0.108 0.007,0.103 v 0.15 l -0.096,0.069 -0.076,0.156 v 0.151 l -0.108,0.068 -0.062,0.109 v 0.151 l -0.013,0.096 -0.062,0.102 -0.034,0.096 -0.157,-0.035 -0.102,-0.068 c 0,0 -0.137,-0.02 -0.144,-0.055 -0.007,-0.034 -0.034,-0.116 -0.034,-0.116 l -0.062,-0.048 -0.109,-0.136 -0.103,-0.103 -0.109,-0.102 -0.164,-0.042 -0.143,-0.116 -0.014,-0.177 -0.068,-0.034 -0.013,-0.137 0.061,-0.068 0.054,-0.061 0.116,-0.041 h 0.103 l 0.068,-0.014 c 0.041,-0.062 0.048,-0.164 0.048,-0.164 l -0.041,-0.144 -0.075,-0.02 h -0.11 l -0.034,-0.075 -0.082,-0.089 -0.157,-0.158 -0.143,-0.047 -0.157,-0.048 -0.062,-0.13 -0.13,-0.075 -0.143,-0.041 -0.13,-0.129 -0.089,-0.116 -0.144,-0.068 -0.108,-0.11 -0.096,-0.09 -0.123,-0.04 -0.116,-0.15 -0.055,-0.103 -0.137,-0.089 -0.027,-0.136 -0.089,-0.109 -0.109,-0.11 -0.136,-0.02 h -0.192 l -0.177,0.006 -0.124,0.089 -0.054,0.103 -0.11,0.102 -0.108,0.109 -0.083,0.076 -0.171,0.082 -0.081,0.096 h -0.123 l -0.076,-0.075 -0.096,-0.028 -0.143,0.007 -0.054,-0.11 -0.116,-0.007 -0.062,-0.102 h -0.123 l -0.062,0.102 0.008,0.138 0.027,0.115 0.068,0.014 0.082,-0.007 0.068,0.089 0.062,-0.069 0.109,0.034 0.041,0.076 c 0,0 0,0.068 0.034,0.075 0.034,0.007 0.13,0.007 0.13,0.007 l 0.11,0.075 0.068,0.035 0.061,0.081 0.11,0.006 0.095,0.089 0.13,0.068 0.089,0.09 c 0,0 0.034,0.089 0.047,0.123 0.014,0.034 0.096,0.102 0.096,0.102 l 0.103,0.109 0.061,0.082 0.042,0.198 0.067,0.062 0.096,0.089 0.02,0.158 0.048,0.163 -0.068,0.102 0.027,0.192 v 0.198 l -0.102,0.13 -0.102,0.109 -0.041,0.137 -0.103,0.034 -0.144,-0.068 -0.157,-0.042 v -0.082 l -0.129,-0.116 -0.048,-0.102 -0.117,-0.055 -0.094,-0.109 -0.042,-0.075 -0.109,-0.096 -0.124,-0.11 -0.109,-0.041 -0.142,-0.108 -0.09,-0.095 -0.137,-0.056 -0.109,-0.061 -0.252,-0.021 -0.075,0.103 -0.13,0.096 -0.123,0.121 -0.124,0.097 -0.122,-0.021 -0.109,0.11 -0.158,0.082 -0.136,-0.048 -0.13,0.055 -0.192,0.007 -0.054,-0.096 c 0,0 -0.068,-0.007 -0.137,-0.007 -0.068,0 -0.3,-0.007 -0.3,-0.007 L -9.585,15.41 -9.667,15.328 -9.838,15.307 -10.621,15.28 h -0.132 l -0.165,-0.095 -0.074,-0.095 h -0.281 l -0.095,0.135 -0.027,0.13 -0.089,0.076 v 0.123 l -0.069,0.101 -0.109,-0.006 -0.123,-0.054 -0.054,-0.11 -0.075,-0.109 -0.144,-0.123 -0.109,-0.205 0.047,-0.11 -0.109,-0.143 0.007,-0.157 0.014,-0.226 -0.041,-0.15 -0.123,-0.095 -0.219,-0.158 -0.096,-0.163 -0.634,0.008 -0.218,0.165 -0.207,-0.095 h -0.259 l -0.233,-0.014 -0.055,0.165 -0.184,0.112 -0.144,0.021 -0.265,-0.062 -0.11,-0.088 -0.089,-0.13 -0.156,0.054 -0.103,0.158 -0.014,0.115 0.034,0.144 -0.007,0.178 -0.068,0.164 -0.102,0.095 c 0,0 -0.068,0.034 -0.082,0.069 -0.013,0.033 -0.233,0.095 -0.233,0.095 l -0.081,0.075 -0.15,0.089 -0.782,0.226 -0.232,0.013 -0.315,0.056 -0.179,0.109 -0.425,0.082 -0.136,0.138 H -18.5 l -0.288,-0.042 -0.768,-0.782 -0.205,-0.149 -0.247,-0.096 -0.232,-0.069 -0.384,-0.329 -0.138,-0.219 -0.205,-0.234 -0.246,-0.397 -0.248,-0.067 -0.232,0.012 -0.233,-0.054 -0.22,-0.193 -0.191,-0.218 0.013,-0.219 -0.013,-0.261 -0.179,-0.137 -0.205,0.028 h -0.22 l -0.178,-0.097 -0.233,-0.013 -0.369,-0.411 -0.152,-0.165 -0.096,-0.274 -0.15,-0.233 -0.192,-0.26 c 0,0 -0.178,-0.179 -0.178,-0.247 0,-0.068 -0.151,-0.37 -0.151,-0.37 0,0 -0.042,-0.165 -0.027,-0.234 0.013,-0.068 0.027,-0.314 0.027,-0.314 l -0.014,-0.521 0.041,-0.315 0.165,-0.261 0.028,-0.315 0.164,-0.178 -0.028,-0.315 -0.041,-0.356 -0.191,-0.247 -0.233,-0.206 -0.165,-0.164 -0.164,-0.109 -0.22,-0.193 -0.205,-0.26 0.027,-0.274 c 0,0 0,-0.206 -0.054,-0.274 -0.056,-0.068 -0.028,-0.246 -0.028,-0.246 l -0.074,-0.102 -0.021,-0.149 0.007,-0.151 0.006,-0.151 0.076,-0.061 0.082,-0.122 -0.014,-0.13 c 0,0 -0.027,-0.185 -0.027,-0.219 0,-0.034 0.021,-0.212 0.021,-0.212 l -0.096,-0.095 -0.171,-0.082 -0.103,-0.103 -0.116,-0.007 -0.164,0.069 -0.108,0.129 -0.11,0.116 c 0,0 -0.124,0.055 -0.171,0.055 -0.048,0 -0.109,0.034 -0.109,0.034 l -0.185,0.137 -0.137,0.102 -0.061,0.123 h -0.239 l -0.178,0.123 -0.198,0.136 -0.3,0.158 -0.123,0.151 -0.308,0.094 -0.143,-0.053 -0.245,-0.055 -0.179,-0.171 -0.163,-0.178 -0.185,-0.095 -0.13,-0.205 -0.218,-0.137 -0.199,-0.13 c 0,0 -0.239,-0.157 -0.245,-0.198 -0.007,-0.042 -0.179,-0.246 -0.179,-0.246 l -0.122,-0.158 -0.157,-0.156 -0.039,-0.168 -0.061,-0.089 c 0,0 -0.075,-0.051 -0.065,-0.074 0.01,-0.024 0.038,-0.126 0.038,-0.126 l -0.116,-0.058 -0.027,-0.102 c 0,0 0.014,-0.054 0.02,-0.078 0.007,-0.023 0.044,-0.064 0.044,-0.064 l 0.049,-0.252 0.006,-0.294 V 1.85 l -0.034,-0.348 -0.081,-0.138 -0.138,-0.171 -0.095,-0.115 -0.007,-0.144 -0.273,-0.035 -0.416,0.008 -0.09,0.137 c 0,0 -0.13,0.054 -0.191,0.048 -0.061,-0.008 -0.274,-0.008 -0.274,-0.008 l -0.389,0.027 -0.239,-0.013 -0.082,0.164 h -0.198 l 0.027,0.123 -0.048,0.178 -0.122,0.088 -0.041,0.123 h -0.287 l -0.28,0.02 -0.239,-0.02 -0.123,-0.109 -0.103,-0.15 0.007,-0.124 -0.124,-0.066 z"
     style="fill:#ffffff;fill-opacity:1;fill-rule:evenodd;stroke:none"
     transform="matrix(0.28800559,0,0,-0.28800559,34.452023,44.797101)"
     clip-path="url(#clipPath2031-3)" />
  <path
     id="path2032"
     d="m 0,0 -0.11,0.11 -0.157,0.027 -0.061,0.075 -0.075,0.24 -0.116,0.013 -0.007,0.178 0.013,0.287 -0.102,0.095 -0.109,0.144 -0.13,0.061 -0.014,0.642 0.124,0.027 0.068,0.123 -0.014,0.117 -0.13,0.075 -0.137,0.122 -0.115,0.09 -0.116,0.225 -0.089,0.204 -0.165,0.301 -0.115,0.151 -0.103,0.279 -0.116,0.158 0.013,0.218 v 0.315 l 0.035,0.136 0.136,0.021 v 0.239 l 0.035,0.199 0.101,0.102 0.055,0.13 v 0.218 l 0.007,0.178 0.117,0.122 0.061,0.172 0.157,0.123 0.137,0.082 h 0.164 l 0.122,0.026 0.096,0.158 0.13,-0.028 0.246,-0.006 0.198,0.02 H 0.273 L 0.465,6.155 0.635,6.135 0.744,6.032 0.943,6.019 1.093,5.999 1.209,5.971 1.264,5.855 1.394,5.835 1.53,5.828 H 1.681 L 1.783,5.787 1.804,5.663 1.94,5.622 1.995,5.534 2.022,5.439 2.104,5.432 2.2,5.363 2.343,5.267 2.459,5.247 2.569,5.219 2.684,5.097 2.862,4.988 2.958,4.905 3.094,4.768 3.204,4.639 3.381,4.444 3.586,4.347 3.668,4.143 3.861,3.909 3.915,3.58 4.011,3.305 4.176,3.074 4.326,2.895 4.875,2.223 4.987,2.077 4.994,1.817 5.022,1.584 5.035,1.402 5.135,0.826 5.367,0.729 5.519,0.538 5.724,0.347 5.971,0.03 6.163,-0.038 6.327,-0.12 6.505,-0.271 6.738,-0.435 6.848,-0.613 6.972,-0.819 7.039,-0.997 7.122,-1.216 7.273,-1.421 7.492,-1.586 7.656,-1.764 7.89,-1.956 8.027,-2.175 8.191,-2.354 8.314,-2.504 8.424,-2.724 8.478,-2.97 8.63,-3.161 8.862,-3.423 9.095,-3.587 9.204,-3.861 9.438,-4.19 9.564,-4.283 9.626,-4.44 9.666,-4.604 9.701,-4.802 9.81,-5 9.831,-5.232 9.844,-5.424 9.803,-5.608 9.735,-5.909 9.639,-6.032 9.544,-6.169 9.4,-6.299 9.127,-6.388 8.895,-6.394 8.847,-6.551 8.519,-6.565 8.376,-6.572 H 8.17 L 8.007,-6.592 7.959,-6.674 7.788,-6.64 H 7.61 l -0.109,0.089 -0.089,0.096 -0.109,0.067 -0.014,0.185 -0.048,0.124 -0.081,0.108 -0.076,0.123 -0.047,0.131 -0.244,0.239 -0.37,0.37 -0.288,0.247 -0.274,0.219 -0.192,0.069 -0.575,0.15 -0.138,0.206 -0.219,0.233 -0.548,0.11 -0.151,0.218 -0.232,0.206 -0.193,0.178 -0.069,0.233 -0.136,0.22 -0.11,0.095 -0.685,0.096 -0.246,0.137 -0.165,0.164 -0.123,0.166 -0.151,0.219 -0.013,0.232 0.013,0.576 -0.151,0.083 v 0.492 L 1.709,-0.299 1.558,-0.202 1.544,0.044 1.394,0.099 1.298,0.223 1.133,0.332 0.859,0.428 0.681,0.347 0.451,0.314 0.273,0.273 0.117,0.178 V 0.055 Z"
     style="fill:#ffffff;fill-opacity:1;fill-rule:evenodd;stroke:none"
     transform="matrix(0.28800559,0,0,-0.28800559,35.329493,38.135742)"
     clip-path="url(#clipPath2033-7)" />
  <path
     id="path2034"
     d="M 0,0 0.047,-0.144 0.04,-0.328 0.163,-0.451 0.259,-0.567 0.382,-0.635 0.491,-0.717 0.493,-0.912 0.65,-0.973 0.785,-0.977 0.901,-1.032 1.004,-1.14 1.113,-1.243 1.256,-1.277 1.4,-1.319 l 0.143,0.035 0.089,0.116 0.082,0.123 -0.02,0.157 0.068,0.158 -0.075,0.088 -0.103,0.102 0.034,0.137 0.069,0.136 -0.021,0.082 -0.116,0.103 H 1.468 L 1.373,0.042 1.304,0.117 1.27,0.266 1.126,0.239 H 0.798 L 0.648,0.253 0.491,0.28 0.375,0.273 0.204,0.246 0.033,0.259 Z"
     style="fill:#ffffff;fill-opacity:1;fill-rule:evenodd;stroke:none"
     transform="matrix(0.28800559,0,0,-0.28800559,35.679968,36.166215)"
     clip-path="url(#clipPath2035-0)" />
  <path
     id="path2036"
     d="m 0,0 0.219,-0.165 0.261,-0.26 0.302,-0.177 0.41,-0.166 h 0.384 l 0.302,0.014 h 0.423 l 0.248,0.165 h 0.384 l 0.52,-0.027 0.425,0.055 0.288,-0.055 0.329,0.041 0.329,0.095 0.246,0.22 0.356,0.219 0.042,0.329 -0.192,0.233 -0.26,0.247 -0.192,0.109 c 0,0 -0.219,0.137 -0.288,0.164 C 4.467,1.069 4.248,1.193 4.248,1.193 L 4.002,1.207 3.577,1.151 3.22,1.083 2.549,1.096 2.384,0.918 2.166,0.754 1.713,0.658 1.329,0.508 0.877,0.425 0.589,0.384 H 0.301 Z"
     style="fill:#ffffff;fill-opacity:1;fill-rule:evenodd;stroke:none"
     transform="matrix(0.28800559,0,0,-0.28800559,32.091919,35.324633)"
     clip-path="url(#clipPath2037-8)" />
</svg>
